<?xml version="1.0" standalone="no"?><!DOCTYPE svg PUBLIC "-//W3C//DTD SVG 1.1//EN" "http://www.w3.org/Graphics/SVG/1.1/DTD/svg11.dtd"><svg fill="#ec407a" t="1674829089587" class="icon" viewBox="0 0 1024 1024" version="1.1" xmlns="http://www.w3.org/2000/svg" p-id="15513" xmlns:xlink="http://www.w3.org/1999/xlink" width="200" height="200"><path d="M414.354286 0H61.074286A61.129143 61.129143 0 0 0 0 61.074286v353.28A61.129143 61.129143 0 0 0 61.074286 475.428571h353.28A61.129143 61.129143 0 0 0 475.428571 414.354286V61.074286A61.129143 61.129143 0 0 0 414.354286 0zM438.857143 414.354286c0 13.513143-10.989714 24.502857-24.502857 24.502857H61.074286C47.561143 438.857143 36.571429 427.867429 36.571429 414.354286V61.074286C36.571429 47.561143 47.561143 36.571429 61.074286 36.571429h353.28c13.513143 0 24.502857 10.989714 24.502857 24.502857v353.28zM962.925714 0H609.645714A61.129143 61.129143 0 0 0 548.571429 61.074286v353.28A61.129143 61.129143 0 0 0 609.645714 475.428571h353.28A61.129143 61.129143 0 0 0 1024 414.354286V61.074286A61.129143 61.129143 0 0 0 962.925714 0zM987.428571 414.354286c0 13.513143-10.989714 24.502857-24.502857 24.502857H609.645714c-13.513143 0-24.502857-10.989714-24.502857-24.502857V61.074286c0-13.513143 10.989714-24.502857 24.502857-24.502857h353.28c13.513143 0 24.502857 10.989714 24.502857 24.502857v353.28zM414.354286 548.571429H61.074286A61.129143 61.129143 0 0 0 0 609.645714v353.28A61.129143 61.129143 0 0 0 61.074286 1024h353.28A61.129143 61.129143 0 0 0 475.428571 962.925714V609.645714A61.129143 61.129143 0 0 0 414.354286 548.571429zM438.857143 962.925714c0 13.513143-10.989714 24.502857-24.502857 24.502857H61.074286C47.561143 987.428571 36.571429 976.438857 36.571429 962.925714V609.645714c0-13.513143 10.989714-24.502857 24.502857-24.502857h353.28c13.513143 0 24.502857 10.989714 24.502857 24.502857v353.28zM1005.714286 768H804.571429V566.857143a18.285714 18.285714 0 1 0-36.571429 0v201.142857H566.857143a18.285714 18.285714 0 1 0 0 36.571429h201.142857v201.142857a18.285714 18.285714 0 1 0 36.571429 0V804.571429h201.142857a18.285714 18.285714 0 1 0 0-36.571429z" p-id="15514"></path></svg>