<?xml version="1.0" standalone="no"?><!DOCTYPE svg PUBLIC "-//W3C//DTD SVG 1.1//EN" "http://www.w3.org/Graphics/SVG/1.1/DTD/svg11.dtd"><svg t="1712836465368" class="icon" viewBox="0 0 1024 1024" version="1.1" xmlns="http://www.w3.org/2000/svg" p-id="3515" xmlns:xlink="http://www.w3.org/1999/xlink" width="200" height="200"><path d="M810.666667 725.333333V128a85.333333 85.333333 0 0 0-85.333334-85.333333H128a85.333333 85.333333 0 0 0-85.333333 85.333333v597.333333a85.333333 85.333333 0 0 0 85.333333 85.333334h597.333333a85.333333 85.333333 0 0 0 85.333334-85.333334zM320 256A64 64 0 1 1 256 320 64 64 0 0 1 320 256z m362.666667 405.333333a21.333333 21.333333 0 0 1-21.333334 21.333334h-469.333333a21.333333 21.333333 0 0 1-21.333333-21.333334v-14.08a21.76 21.76 0 0 1 4.266666-12.8l101.12-135.253333a21.76 21.76 0 0 1 34.56 0l42.666667 58.026667a21.333333 21.333333 0 0 0 33.706667 0l97.706666-122.88a21.333333 21.333333 0 0 1 33.28 0l159.573334 199.253333a22.186667 22.186667 0 0 1 4.693333 13.653333zM896 213.333333v597.333334a85.333333 85.333333 0 0 1-85.333333 85.333333H213.333333a85.333333 85.333333 0 0 0 85.333334 85.333333h512a170.666667 170.666667 0 0 0 170.666666-170.666666V298.666667a85.333333 85.333333 0 0 0-85.333333-85.333334z" p-id="3516"></path></svg>