<?xml version="1.0" encoding="utf-8"?>
<!-- Generator: Adobe Illustrator 24.0.1, SVG Export Plug-In . SVG Version: 6.00 Build 0)  -->
<svg version="1.1" id="图层_1" xmlns="http://www.w3.org/2000/svg" xmlns:xlink="http://www.w3.org/1999/xlink" x="0px" y="0px"
	 viewBox="0 0 522 512" style="enable-background:new 0 0 522 512;" xml:space="preserve">
<style type="text/css">
	.st0{fill:none;stroke:#000000;stroke-width:15;stroke-linecap:round;stroke-miterlimit:10;}
	.st1{fill:none;}
</style>
<line class="st0" x1="338.4" y1="8.3" x2="129.6" y2="503.7"/>
<path class="st1" d="M565.1,426.7c11.5,0,20.7-9.2,20.7-20.7c0-11.5-9.2-20.7-20.7-20.7H400.8l-17.5,41.5H565.1z"/>
<path class="st1" d="M351.1,405.9c0,11.5,9.2,20.7,20.7,20.7h11.6l17.5-41.5h-29C360.3,385.2,351.1,394.4,351.1,405.9z"/>
<path class="st1" d="M351.1,323c0,11.5,9.2,20.7,20.7,20.7h46.5l17.5-41.5h-64C360.3,302.3,351.1,311.5,351.1,323z"/>
<path class="st1" d="M351.1,240.1c0,11.5,9.2,20.7,20.7,20.7h81.4l17.5-41.5h-98.9C360.3,219.3,351.1,228.6,351.1,240.1z"/>
<path class="st1" d="M565.1,343.7c11.5,0,20.7-9.2,20.7-20.7s-9.2-20.7-20.7-20.7H435.7l-17.5,41.5H565.1z"/>
<path class="st1" d="M565.1,260.8c11.5,0,20.7-9.2,20.7-20.7s-9.2-20.7-20.7-20.7h-94.4l-17.5,41.5H565.1z"/>
<ellipse class="st1" cx="288.9" cy="240.1" rx="27.6" ry="27.6"/>
<ellipse class="st1" cx="288.9" cy="405.9" rx="27.6" ry="27.6"/>
<ellipse class="st1" cx="288.9" cy="323" rx="27.6" ry="27.6"/>
<path d="M415.4,80.2H303.7l-37.8,89.8h94.4c11.5,0,20.7,9.2,20.7,20.7s-9.2,20.7-20.7,20.7H248.4L230.9,253h129.3
	c11.5,0,20.7,9.2,20.7,20.7s-9.2,20.7-20.7,20.7H213.4L196,335.9h164.3c11.5,0,20.7,9.2,20.7,20.7c0,11.5-9.2,20.7-20.7,20.7H178.5
	l-37.8,89.8h274.8c30.5,0,55.2-24.8,55.2-55.3V135.5C470.7,105,445.9,80.2,415.4,80.2z"/>
<g>
	<path d="M70.7,162C57,162,46,173.1,46,186.7s11,24.7,24.7,24.7H249l20.8-49.3H70.7z"/>
	<path d="M46,310.1c0,13.6,11,24.7,24.7,24.7H197l20.8-49.3H70.7C57,285.4,46,296.4,46,310.1z"/>
	<path d="M70.7,38.7C57,38.7,46,49.7,46,63.3C46,77,57,88,70.7,88h230.3l20.8-49.3H70.7z"/>
</g>
</svg>
