<?xml version="1.0" encoding="utf-8"?>
<!-- Generator: Adobe Illustrator 21.0.0, SVG Export Plug-In . SVG Version: 6.00 Build 0)  -->
<svg version="1.1" id="图层_1" xmlns="http://www.w3.org/2000/svg" xmlns:xlink="http://www.w3.org/1999/xlink" x="0px" y="0px"
	 viewBox="0 0 209 150" style="enable-background:new 0 0 209 150;" xml:space="preserve">
<style type="text/css">
	.st0{fill:none;stroke:#000000;stroke-miterlimit:10;}
	.st1{fill:none;stroke:#000000;stroke-miterlimit:10;stroke-dasharray:0.9796,0.9796;}
</style>
<g>
	<g>
		<path d="M22.5,134c19.4,0,38.7,0,58.1,0c30.9,0,61.7,0,92.6,0c7.1,0,14.2,0,21.3,0c1.9,0,1.9-3,0-3c-19.4,0-38.7,0-58.1,0
			c-30.9,0-61.7,0-92.6,0c-7.1,0-14.2,0-21.3,0C20.6,131,20.6,134,22.5,134L22.5,134z"/>
	</g>
</g>
<g>
	<g>
		<path d="M24,132.5c0-26.8,0-53.7,0-80.5c0-3.8,0-7.7,0-11.5c0-1.9-3-1.9-3,0c0,26.8,0,53.7,0,80.5c0,3.8,0,7.7,0,11.5
			C21,134.4,24,134.4,24,132.5L24,132.5z"/>
	</g>
</g>
<g>
	<g>
		<path d="M21.7,41.8C41.2,52.2,60.6,62.6,80,73c30.8,16.5,61.6,32.9,92.4,49.4c7.1,3.8,14.2,7.6,21.3,11.4c1.7,0.9,3.2-1.7,1.5-2.6
			c-19.4-10.4-38.8-20.8-58.3-31.2c-30.8-16.5-61.6-32.9-92.4-49.4c-7.1-3.8-14.2-7.6-21.3-11.4C21.6,38.3,20,40.9,21.7,41.8
			L21.7,41.8z"/>
	</g>
</g>
<g>
	<g>
		<path d="M29.7,33.8c-3.4,9-17.2,4.6-14.3-4.6C18.3,19.9,32.1,24.6,29.7,33.8c-0.5,1.9,2.4,2.7,2.9,0.8c1.4-5.5-1.3-11.4-6.9-13.1
			c-5.4-1.7-11.5,1.4-13.1,6.9c-1.7,5.5,1.5,11.4,6.9,13.1c5.7,1.8,11.1-1.6,13.1-6.9C33.2,32.8,30.3,32,29.7,33.8z"/>
	</g>
</g>
<g>
	<line class="st0" x1="22.2" y1="32" x2="69.2" y2="15"/>
	<line class="st0" x1="69.2" y1="15" x2="58.4" y2="14.6"/>
	<line class="st0" x1="69.2" y1="15" x2="61.7" y2="20.9"/>
</g>
<g>
	<g>
		<line class="st0" x1="22.5" y1="31.5" x2="23" y2="31.5"/>
		<line class="st1" x1="24" y1="31.5" x2="70.5" y2="31.5"/>
		<line class="st0" x1="71" y1="31.5" x2="71.5" y2="31.5"/>
	</g>
</g>
<path class="st0" d="M38.5,26.4c0.8,0.5,1.4,1.4,1.4,2.3c0,1-0.4,1.9-1.2,2.5"/>
<path class="st0" d="M162.7,114.8c-1.8,3.2-2.2,6.9-2.3,10.5c-0.1,2.4-0.1,4.9,1.4,6.9"/>
<g>
	<path d="M49.2,29.9c-0.4,0.4-0.8,0.5-1.3,0.5c-0.6,0-1-0.5-1.1-1.6h-0.1c-0.5,1.1-1.2,1.6-2,1.6c-0.6,0-1-0.2-1.4-0.7
		s-0.5-1.2-0.5-2.1c0-0.9,0.2-1.7,0.7-2.2s1-0.8,1.7-0.8c0.5,0,0.9,0.1,1.2,0.4s0.5,0.6,0.7,1.2h0.1l0.4-1.4h1V25
		c-0.3,0.4-0.7,1.2-1.1,2.4c0.1,0.8,0.2,1.4,0.3,1.8s0.3,0.6,0.5,0.6c0.2,0,0.3-0.1,0.6-0.3L49.2,29.9z M46.7,27.5
		c-0.1-0.9-0.3-1.5-0.5-1.9s-0.5-0.5-0.9-0.5c-0.4,0-0.7,0.2-1,0.7S44,26.8,44,27.6c0,1.4,0.4,2.2,1.1,2.2
		C45.8,29.7,46.4,29,46.7,27.5z"/>
</g>
<g>
	<path d="M155.5,127.4c-0.9,0-1.5-0.3-1.9-1s-0.6-1.7-0.6-3.1c0-1.4,0.2-2.4,0.7-3.2s1.1-1.1,1.9-1.1c0.9,0,1.5,0.3,1.9,1
		s0.6,1.7,0.6,3.1c0,1.4-0.2,2.5-0.7,3.2S156.4,127.4,155.5,127.4z M154.1,122.9h2.9c-0.1-2.2-0.5-3.4-1.5-3.4
		C154.7,119.6,154.2,120.7,154.1,122.9z M157.1,123.5h-2.9c0,2.3,0.5,3.4,1.5,3.4S157.1,125.8,157.1,123.5z"/>
</g>
<g>
	<path d="M70.8,10.7V11c-0.2,0-0.3,0.1-0.4,0.1s-0.1,0.1-0.2,0.2s-0.1,0.1-0.1,0.3s0,0.2,0,0.3s0.1,0.2,0.1,0.4l1,3l1.2-2.8
		c0.1-0.2,0.1-0.3,0.2-0.5s0-0.2,0-0.3c0-0.2,0-0.3-0.1-0.4s-0.2-0.2-0.5-0.2v-0.3h2.2V11c-0.2,0-0.3,0.1-0.4,0.1s-0.2,0.2-0.2,0.3
		s-0.2,0.3-0.3,0.6l-2,4.3h-0.7L69.2,12c-0.1-0.3-0.2-0.5-0.3-0.6s-0.1-0.2-0.2-0.2s-0.2-0.1-0.3-0.1v-0.3H70.8z"/>
</g>
<g>
	<path d="M74.9,18.8c-0.6,0-1-0.2-1.3-0.7s-0.4-1.1-0.4-2c0-0.5,0-0.9,0.1-1.2s0.2-0.6,0.4-0.9s0.3-0.4,0.5-0.5s0.4-0.2,0.7-0.2
		c0.6,0,1,0.2,1.3,0.7s0.4,1.1,0.4,2c0,0.9-0.1,1.6-0.4,2.1S75.5,18.8,74.9,18.8z M74,16c0,0.8,0.1,1.5,0.2,1.9s0.4,0.6,0.7,0.6
		c0.3,0,0.5-0.2,0.7-0.6s0.2-1,0.2-1.7c0-0.6,0-1.1-0.1-1.5s-0.2-0.6-0.3-0.8s-0.3-0.2-0.5-0.2c-0.2,0-0.3,0.1-0.5,0.2
		s-0.2,0.3-0.3,0.5s-0.1,0.4-0.2,0.7S74,15.7,74,16z"/>
</g>
<g>
</g>
<g>
</g>
<g>
</g>
<g>
</g>
<g>
</g>
<g>
</g>
<g>
</g>
<g>
</g>
<g>
</g>
<g>
</g>
<g>
</g>
<g>
</g>
<g>
</g>
<g>
</g>
<g>
</g>
</svg>
