<svg version="1.1" xmlns="http://www.w3.org/2000/svg" xmlns:xlink="http://www.w3.org/1999/xlink" width="892" height="908"><defs><clipPath id="JiviMvvELDrC"><path fill="none" stroke="none" d=" M 0 0 L 892 0 L 892 908 L 0 908 L 0 0 Z"/></clipPath></defs><g transform="scale(1,1)" clip-path="url(#JiviMvvELDrC)"><g><rect fill="rgb(255,255,255)" stroke="none" x="0" y="0" width="892" height="908" fill-opacity="1"/><path fill="none" stroke="rgb(192,192,192)" paint-order="fill stroke markers" d=" M 18.5 0.5 L 18.5 908.5 M 18.5 0.5 L 18.5 908.5 M 96.5 0.5 L 96.5 908.5 M 173.5 0.5 L 173.5 908.5 M 251.5 0.5 L 251.5 908.5 M 406.5 0.5 L 406.5 908.5 M 483.5 0.5 L 483.5 908.5 M 561.5 0.5 L 561.5 908.5 M 638.5 0.5 L 638.5 908.5 M 716.5 0.5 L 716.5 908.5 M 793.5 0.5 L 793.5 908.5 M 871.5 0.5 L 871.5 908.5" stroke-opacity="1" stroke-linecap="round" stroke-linejoin="round" stroke-miterlimit="10"/><path fill="none" stroke="rgb(192,192,192)" paint-order="fill stroke markers" d=" M 3.5 0.5 L 3.5 908.5 M 34.5 0.5 L 34.5 908.5 M 49.5 0.5 L 49.5 908.5 M 65.5 0.5 L 65.5 908.5 M 80.5 0.5 L 80.5 908.5 M 111.5 0.5 L 111.5 908.5 M 127.5 0.5 L 127.5 908.5 M 142.5 0.5 L 142.5 908.5 M 158.5 0.5 L 158.5 908.5 M 189.5 0.5 L 189.5 908.5 M 204.5 0.5 L 204.5 908.5 M 220.5 0.5 L 220.5 908.5 M 235.5 0.5 L 235.5 908.5 M 266.5 0.5 L 266.5 908.5 M 282.5 0.5 L 282.5 908.5 M 297.5 0.5 L 297.5 908.5 M 313.5 0.5 L 313.5 908.5 M 344.5 0.5 L 344.5 908.5 M 359.5 0.5 L 359.5 908.5 M 375.5 0.5 L 375.5 908.5 M 390.5 0.5 L 390.5 908.5 M 421.5 0.5 L 421.5 908.5 M 437.5 0.5 L 437.5 908.5 M 452.5 0.5 L 452.5 908.5 M 468.5 0.5 L 468.5 908.5 M 499.5 0.5 L 499.5 908.5 M 514.5 0.5 L 514.5 908.5 M 530.5 0.5 L 530.5 908.5 M 545.5 0.5 L 545.5 908.5 M 576.5 0.5 L 576.5 908.5 M 592.5 0.5 L 592.5 908.5 M 607.5 0.5 L 607.5 908.5 M 623.5 0.5 L 623.5 908.5 M 654.5 0.5 L 654.5 908.5 M 669.5 0.5 L 669.5 908.5 M 685.5 0.5 L 685.5 908.5 M 700.5 0.5 L 700.5 908.5 M 731.5 0.5 L 731.5 908.5 M 747.5 0.5 L 747.5 908.5 M 762.5 0.5 L 762.5 908.5 M 778.5 0.5 L 778.5 908.5 M 809.5 0.5 L 809.5 908.5 M 824.5 0.5 L 824.5 908.5 M 840.5 0.5 L 840.5 908.5 M 855.5 0.5 L 855.5 908.5 M 886.5 0.5 L 886.5 908.5" stroke-opacity="0.23529411764705882" stroke-linecap="round" stroke-linejoin="round" stroke-miterlimit="10"/><path fill="none" stroke="rgb(192,192,192)" paint-order="fill stroke markers" d=" M 0.5 19.5 L 892.5 19.5 M 0.5 19.5 L 892.5 19.5 M 0.5 97.5 L 892.5 97.5 M 0.5 174.5 L 892.5 174.5 M 0.5 252.5 L 892.5 252.5 M 0.5 329.5 L 892.5 329.5 M 0.5 407.5 L 892.5 407.5 M 0.5 484.5 L 892.5 484.5 M 0.5 562.5 L 892.5 562.5 M 0.5 717.5 L 892.5 717.5 M 0.5 794.5 L 892.5 794.5 M 0.5 872.5 L 892.5 872.5" stroke-opacity="1" stroke-linecap="round" stroke-linejoin="round" stroke-miterlimit="10"/><path fill="none" stroke="rgb(192,192,192)" paint-order="fill stroke markers" d=" M 0.5 4.5 L 892.5 4.5 M 0.5 4.5 L 892.5 4.5 M 0.5 35.5 L 892.5 35.5 M 0.5 50.5 L 892.5 50.5 M 0.5 66.5 L 892.5 66.5 M 0.5 81.5 L 892.5 81.5 M 0.5 112.5 L 892.5 112.5 M 0.5 128.5 L 892.5 128.5 M 0.5 143.5 L 892.5 143.5 M 0.5 159.5 L 892.5 159.5 M 0.5 190.5 L 892.5 190.5 M 0.5 205.5 L 892.5 205.5 M 0.5 221.5 L 892.5 221.5 M 0.5 236.5 L 892.5 236.5 M 0.5 267.5 L 892.5 267.5 M 0.5 283.5 L 892.5 283.5 M 0.5 298.5 L 892.5 298.5 M 0.5 314.5 L 892.5 314.5 M 0.5 345.5 L 892.5 345.5 M 0.5 360.5 L 892.5 360.5 M 0.5 376.5 L 892.5 376.5 M 0.5 391.5 L 892.5 391.5 M 0.5 422.5 L 892.5 422.5 M 0.5 438.5 L 892.5 438.5 M 0.5 453.5 L 892.5 453.5 M 0.5 469.5 L 892.5 469.5 M 0.5 500.5 L 892.5 500.5 M 0.5 515.5 L 892.5 515.5 M 0.5 531.5 L 892.5 531.5 M 0.5 546.5 L 892.5 546.5 M 0.5 577.5 L 892.5 577.5 M 0.5 593.5 L 892.5 593.5 M 0.5 608.5 L 892.5 608.5 M 0.5 624.5 L 892.5 624.5 M 0.5 655.5 L 892.5 655.5 M 0.5 670.5 L 892.5 670.5 M 0.5 686.5 L 892.5 686.5 M 0.5 701.5 L 892.5 701.5 M 0.5 732.5 L 892.5 732.5 M 0.5 748.5 L 892.5 748.5 M 0.5 763.5 L 892.5 763.5 M 0.5 779.5 L 892.5 779.5 M 0.5 810.5 L 892.5 810.5 M 0.5 825.5 L 892.5 825.5 M 0.5 841.5 L 892.5 841.5 M 0.5 856.5 L 892.5 856.5 M 0.5 887.5 L 892.5 887.5 M 0.5 903.5 L 892.5 903.5" stroke-opacity="0.23529411764705882" stroke-linecap="round" stroke-linejoin="round" stroke-miterlimit="10"/><path fill="none" stroke="rgb(0,0,0)" paint-order="fill stroke markers" d=" M 328.5 2.5 L 328.5 908.5" stroke-opacity="1" stroke-miterlimit="10"/><path fill="none" stroke="rgb(0,0,0)" paint-order="fill stroke markers" d=" M 328.5 1.5 L 324.5 5.5" stroke-opacity="1" stroke-miterlimit="10"/><path fill="none" stroke="rgb(0,0,0)" paint-order="fill stroke markers" d=" M 328.5 1.5 L 332.5 5.5" stroke-opacity="1" stroke-miterlimit="10"/><path fill="none" stroke="rgb(0,0,0)" paint-order="fill stroke markers" d=" M 0.5 639.5 L 890.5 639.5" stroke-opacity="1" stroke-miterlimit="10"/><path fill="none" stroke="rgb(0,0,0)" paint-order="fill stroke markers" d=" M 891.5 639.5 L 887.5 635.5" stroke-opacity="1" stroke-miterlimit="10"/><path fill="none" stroke="rgb(0,0,0)" paint-order="fill stroke markers" d=" M 891.5 639.5 L 887.5 643.5" stroke-opacity="1" stroke-miterlimit="10"/><text fill="rgb(0,0,0)" stroke="none" font-family="geogebra-sans-serif, sans-serif" font-size="12px" font-style="normal" font-weight="normal" text-decoration="normal" x="13" y="655" text-anchor="start" dominant-baseline="alphabetic" fill-opacity="1">–2</text><text fill="none" stroke="rgb(255,255,255)" font-family="geogebra-sans-serif, sans-serif" font-size="12px" font-style="normal" font-weight="normal" text-decoration="normal" x="13" y="655" text-anchor="start" dominant-baseline="alphabetic" stroke-opacity="1" stroke-linejoin="bevel" stroke-miterlimit="10" stroke-width="3">–2</text><text fill="rgb(0,0,0)" stroke="none" font-family="geogebra-sans-serif, sans-serif" font-size="12px" font-style="normal" font-weight="normal" text-decoration="normal" x="13" y="655" text-anchor="start" dominant-baseline="alphabetic" fill-opacity="1">–2</text><text fill="rgb(0,0,0)" stroke="none" font-family="geogebra-sans-serif, sans-serif" font-size="12px" font-style="normal" font-weight="normal" text-decoration="normal" x="85" y="655" text-anchor="start" dominant-baseline="alphabetic" fill-opacity="1">–1.5</text><text fill="none" stroke="rgb(255,255,255)" font-family="geogebra-sans-serif, sans-serif" font-size="12px" font-style="normal" font-weight="normal" text-decoration="normal" x="85" y="655" text-anchor="start" dominant-baseline="alphabetic" stroke-opacity="1" stroke-linejoin="bevel" stroke-miterlimit="10" stroke-width="3">–1.5</text><text fill="rgb(0,0,0)" stroke="none" font-family="geogebra-sans-serif, sans-serif" font-size="12px" font-style="normal" font-weight="normal" text-decoration="normal" x="85" y="655" text-anchor="start" dominant-baseline="alphabetic" fill-opacity="1">–1.5</text><text fill="rgb(0,0,0)" stroke="none" font-family="geogebra-sans-serif, sans-serif" font-size="12px" font-style="normal" font-weight="normal" text-decoration="normal" x="168" y="655" text-anchor="start" dominant-baseline="alphabetic" fill-opacity="1">–1</text><text fill="none" stroke="rgb(255,255,255)" font-family="geogebra-sans-serif, sans-serif" font-size="12px" font-style="normal" font-weight="normal" text-decoration="normal" x="168" y="655" text-anchor="start" dominant-baseline="alphabetic" stroke-opacity="1" stroke-linejoin="bevel" stroke-miterlimit="10" stroke-width="3">–1</text><text fill="rgb(0,0,0)" stroke="none" font-family="geogebra-sans-serif, sans-serif" font-size="12px" font-style="normal" font-weight="normal" text-decoration="normal" x="168" y="655" text-anchor="start" dominant-baseline="alphabetic" fill-opacity="1">–1</text><text fill="rgb(0,0,0)" stroke="none" font-family="geogebra-sans-serif, sans-serif" font-size="12px" font-style="normal" font-weight="normal" text-decoration="normal" x="240" y="655" text-anchor="start" dominant-baseline="alphabetic" fill-opacity="1">–0.5</text><text fill="none" stroke="rgb(255,255,255)" font-family="geogebra-sans-serif, sans-serif" font-size="12px" font-style="normal" font-weight="normal" text-decoration="normal" x="240" y="655" text-anchor="start" dominant-baseline="alphabetic" stroke-opacity="1" stroke-linejoin="bevel" stroke-miterlimit="10" stroke-width="3">–0.5</text><text fill="rgb(0,0,0)" stroke="none" font-family="geogebra-sans-serif, sans-serif" font-size="12px" font-style="normal" font-weight="normal" text-decoration="normal" x="240" y="655" text-anchor="start" dominant-baseline="alphabetic" fill-opacity="1">–0.5</text><text fill="rgb(0,0,0)" stroke="none" font-family="geogebra-sans-serif, sans-serif" font-size="12px" font-style="normal" font-weight="normal" text-decoration="normal" x="398" y="655" text-anchor="start" dominant-baseline="alphabetic" fill-opacity="1">0.5</text><text fill="none" stroke="rgb(255,255,255)" font-family="geogebra-sans-serif, sans-serif" font-size="12px" font-style="normal" font-weight="normal" text-decoration="normal" x="398" y="655" text-anchor="start" dominant-baseline="alphabetic" stroke-opacity="1" stroke-linejoin="bevel" stroke-miterlimit="10" stroke-width="3">0.5</text><text fill="rgb(0,0,0)" stroke="none" font-family="geogebra-sans-serif, sans-serif" font-size="12px" font-style="normal" font-weight="normal" text-decoration="normal" x="398" y="655" text-anchor="start" dominant-baseline="alphabetic" fill-opacity="1">0.5</text><text fill="rgb(0,0,0)" stroke="none" font-family="geogebra-sans-serif, sans-serif" font-size="12px" font-style="normal" font-weight="normal" text-decoration="normal" x="481" y="655" text-anchor="start" dominant-baseline="alphabetic" fill-opacity="1">1</text><text fill="none" stroke="rgb(255,255,255)" font-family="geogebra-sans-serif, sans-serif" font-size="12px" font-style="normal" font-weight="normal" text-decoration="normal" x="481" y="655" text-anchor="start" dominant-baseline="alphabetic" stroke-opacity="1" stroke-linejoin="bevel" stroke-miterlimit="10" stroke-width="3">1</text><text fill="rgb(0,0,0)" stroke="none" font-family="geogebra-sans-serif, sans-serif" font-size="12px" font-style="normal" font-weight="normal" text-decoration="normal" x="481" y="655" text-anchor="start" dominant-baseline="alphabetic" fill-opacity="1">1</text><text fill="rgb(0,0,0)" stroke="none" font-family="geogebra-sans-serif, sans-serif" font-size="12px" font-style="normal" font-weight="normal" text-decoration="normal" x="553" y="655" text-anchor="start" dominant-baseline="alphabetic" fill-opacity="1">1.5</text><text fill="none" stroke="rgb(255,255,255)" font-family="geogebra-sans-serif, sans-serif" font-size="12px" font-style="normal" font-weight="normal" text-decoration="normal" x="553" y="655" text-anchor="start" dominant-baseline="alphabetic" stroke-opacity="1" stroke-linejoin="bevel" stroke-miterlimit="10" stroke-width="3">1.5</text><text fill="rgb(0,0,0)" stroke="none" font-family="geogebra-sans-serif, sans-serif" font-size="12px" font-style="normal" font-weight="normal" text-decoration="normal" x="553" y="655" text-anchor="start" dominant-baseline="alphabetic" fill-opacity="1">1.5</text><text fill="rgb(0,0,0)" stroke="none" font-family="geogebra-sans-serif, sans-serif" font-size="12px" font-style="normal" font-weight="normal" text-decoration="normal" x="636" y="655" text-anchor="start" dominant-baseline="alphabetic" fill-opacity="1">2</text><text fill="none" stroke="rgb(255,255,255)" font-family="geogebra-sans-serif, sans-serif" font-size="12px" font-style="normal" font-weight="normal" text-decoration="normal" x="636" y="655" text-anchor="start" dominant-baseline="alphabetic" stroke-opacity="1" stroke-linejoin="bevel" stroke-miterlimit="10" stroke-width="3">2</text><text fill="rgb(0,0,0)" stroke="none" font-family="geogebra-sans-serif, sans-serif" font-size="12px" font-style="normal" font-weight="normal" text-decoration="normal" x="636" y="655" text-anchor="start" dominant-baseline="alphabetic" fill-opacity="1">2</text><text fill="rgb(0,0,0)" stroke="none" font-family="geogebra-sans-serif, sans-serif" font-size="12px" font-style="normal" font-weight="normal" text-decoration="normal" x="708" y="655" text-anchor="start" dominant-baseline="alphabetic" fill-opacity="1">2.5</text><text fill="none" stroke="rgb(255,255,255)" font-family="geogebra-sans-serif, sans-serif" font-size="12px" font-style="normal" font-weight="normal" text-decoration="normal" x="708" y="655" text-anchor="start" dominant-baseline="alphabetic" stroke-opacity="1" stroke-linejoin="bevel" stroke-miterlimit="10" stroke-width="3">2.5</text><text fill="rgb(0,0,0)" stroke="none" font-family="geogebra-sans-serif, sans-serif" font-size="12px" font-style="normal" font-weight="normal" text-decoration="normal" x="708" y="655" text-anchor="start" dominant-baseline="alphabetic" fill-opacity="1">2.5</text><text fill="rgb(0,0,0)" stroke="none" font-family="geogebra-sans-serif, sans-serif" font-size="12px" font-style="normal" font-weight="normal" text-decoration="normal" x="791" y="655" text-anchor="start" dominant-baseline="alphabetic" fill-opacity="1">3</text><text fill="none" stroke="rgb(255,255,255)" font-family="geogebra-sans-serif, sans-serif" font-size="12px" font-style="normal" font-weight="normal" text-decoration="normal" x="791" y="655" text-anchor="start" dominant-baseline="alphabetic" stroke-opacity="1" stroke-linejoin="bevel" stroke-miterlimit="10" stroke-width="3">3</text><text fill="rgb(0,0,0)" stroke="none" font-family="geogebra-sans-serif, sans-serif" font-size="12px" font-style="normal" font-weight="normal" text-decoration="normal" x="791" y="655" text-anchor="start" dominant-baseline="alphabetic" fill-opacity="1">3</text><text fill="rgb(0,0,0)" stroke="none" font-family="geogebra-sans-serif, sans-serif" font-size="12px" font-style="normal" font-weight="normal" text-decoration="normal" x="863" y="655" text-anchor="start" dominant-baseline="alphabetic" fill-opacity="1">3.5</text><text fill="none" stroke="rgb(255,255,255)" font-family="geogebra-sans-serif, sans-serif" font-size="12px" font-style="normal" font-weight="normal" text-decoration="normal" x="863" y="655" text-anchor="start" dominant-baseline="alphabetic" stroke-opacity="1" stroke-linejoin="bevel" stroke-miterlimit="10" stroke-width="3">3.5</text><text fill="rgb(0,0,0)" stroke="none" font-family="geogebra-sans-serif, sans-serif" font-size="12px" font-style="normal" font-weight="normal" text-decoration="normal" x="863" y="655" text-anchor="start" dominant-baseline="alphabetic" fill-opacity="1">3.5</text><text fill="rgb(0,0,0)" stroke="none" font-family="geogebra-sans-serif, sans-serif" font-size="12px" font-style="normal" font-weight="normal" text-decoration="normal" x="297" y="877" text-anchor="start" dominant-baseline="alphabetic" fill-opacity="1">–1.5</text><text fill="none" stroke="rgb(255,255,255)" font-family="geogebra-sans-serif, sans-serif" font-size="12px" font-style="normal" font-weight="normal" text-decoration="normal" x="297" y="877" text-anchor="start" dominant-baseline="alphabetic" stroke-opacity="1" stroke-linejoin="bevel" stroke-miterlimit="10" stroke-width="3">–1.5</text><text fill="rgb(0,0,0)" stroke="none" font-family="geogebra-sans-serif, sans-serif" font-size="12px" font-style="normal" font-weight="normal" text-decoration="normal" x="297" y="877" text-anchor="start" dominant-baseline="alphabetic" fill-opacity="1">–1.5</text><text fill="rgb(0,0,0)" stroke="none" font-family="geogebra-sans-serif, sans-serif" font-size="12px" font-style="normal" font-weight="normal" text-decoration="normal" x="307" y="799" text-anchor="start" dominant-baseline="alphabetic" fill-opacity="1">–1</text><text fill="none" stroke="rgb(255,255,255)" font-family="geogebra-sans-serif, sans-serif" font-size="12px" font-style="normal" font-weight="normal" text-decoration="normal" x="307" y="799" text-anchor="start" dominant-baseline="alphabetic" stroke-opacity="1" stroke-linejoin="bevel" stroke-miterlimit="10" stroke-width="3">–1</text><text fill="rgb(0,0,0)" stroke="none" font-family="geogebra-sans-serif, sans-serif" font-size="12px" font-style="normal" font-weight="normal" text-decoration="normal" x="307" y="799" text-anchor="start" dominant-baseline="alphabetic" fill-opacity="1">–1</text><text fill="rgb(0,0,0)" stroke="none" font-family="geogebra-sans-serif, sans-serif" font-size="12px" font-style="normal" font-weight="normal" text-decoration="normal" x="297" y="722" text-anchor="start" dominant-baseline="alphabetic" fill-opacity="1">–0.5</text><text fill="none" stroke="rgb(255,255,255)" font-family="geogebra-sans-serif, sans-serif" font-size="12px" font-style="normal" font-weight="normal" text-decoration="normal" x="297" y="722" text-anchor="start" dominant-baseline="alphabetic" stroke-opacity="1" stroke-linejoin="bevel" stroke-miterlimit="10" stroke-width="3">–0.5</text><text fill="rgb(0,0,0)" stroke="none" font-family="geogebra-sans-serif, sans-serif" font-size="12px" font-style="normal" font-weight="normal" text-decoration="normal" x="297" y="722" text-anchor="start" dominant-baseline="alphabetic" fill-opacity="1">–0.5</text><text fill="rgb(0,0,0)" stroke="none" font-family="geogebra-sans-serif, sans-serif" font-size="12px" font-style="normal" font-weight="normal" text-decoration="normal" x="304" y="567" text-anchor="start" dominant-baseline="alphabetic" fill-opacity="1">0.5</text><text fill="none" stroke="rgb(255,255,255)" font-family="geogebra-sans-serif, sans-serif" font-size="12px" font-style="normal" font-weight="normal" text-decoration="normal" x="304" y="567" text-anchor="start" dominant-baseline="alphabetic" stroke-opacity="1" stroke-linejoin="bevel" stroke-miterlimit="10" stroke-width="3">0.5</text><text fill="rgb(0,0,0)" stroke="none" font-family="geogebra-sans-serif, sans-serif" font-size="12px" font-style="normal" font-weight="normal" text-decoration="normal" x="304" y="567" text-anchor="start" dominant-baseline="alphabetic" fill-opacity="1">0.5</text><text fill="rgb(0,0,0)" stroke="none" font-family="geogebra-sans-serif, sans-serif" font-size="12px" font-style="normal" font-weight="normal" text-decoration="normal" x="314" y="489" text-anchor="start" dominant-baseline="alphabetic" fill-opacity="1">1</text><text fill="none" stroke="rgb(255,255,255)" font-family="geogebra-sans-serif, sans-serif" font-size="12px" font-style="normal" font-weight="normal" text-decoration="normal" x="314" y="489" text-anchor="start" dominant-baseline="alphabetic" stroke-opacity="1" stroke-linejoin="bevel" stroke-miterlimit="10" stroke-width="3">1</text><text fill="rgb(0,0,0)" stroke="none" font-family="geogebra-sans-serif, sans-serif" font-size="12px" font-style="normal" font-weight="normal" text-decoration="normal" x="314" y="489" text-anchor="start" dominant-baseline="alphabetic" fill-opacity="1">1</text><text fill="rgb(0,0,0)" stroke="none" font-family="geogebra-sans-serif, sans-serif" font-size="12px" font-style="normal" font-weight="normal" text-decoration="normal" x="304" y="412" text-anchor="start" dominant-baseline="alphabetic" fill-opacity="1">1.5</text><text fill="none" stroke="rgb(255,255,255)" font-family="geogebra-sans-serif, sans-serif" font-size="12px" font-style="normal" font-weight="normal" text-decoration="normal" x="304" y="412" text-anchor="start" dominant-baseline="alphabetic" stroke-opacity="1" stroke-linejoin="bevel" stroke-miterlimit="10" stroke-width="3">1.5</text><text fill="rgb(0,0,0)" stroke="none" font-family="geogebra-sans-serif, sans-serif" font-size="12px" font-style="normal" font-weight="normal" text-decoration="normal" x="304" y="412" text-anchor="start" dominant-baseline="alphabetic" fill-opacity="1">1.5</text><text fill="rgb(0,0,0)" stroke="none" font-family="geogebra-sans-serif, sans-serif" font-size="12px" font-style="normal" font-weight="normal" text-decoration="normal" x="314" y="334" text-anchor="start" dominant-baseline="alphabetic" fill-opacity="1">2</text><text fill="none" stroke="rgb(255,255,255)" font-family="geogebra-sans-serif, sans-serif" font-size="12px" font-style="normal" font-weight="normal" text-decoration="normal" x="314" y="334" text-anchor="start" dominant-baseline="alphabetic" stroke-opacity="1" stroke-linejoin="bevel" stroke-miterlimit="10" stroke-width="3">2</text><text fill="rgb(0,0,0)" stroke="none" font-family="geogebra-sans-serif, sans-serif" font-size="12px" font-style="normal" font-weight="normal" text-decoration="normal" x="314" y="334" text-anchor="start" dominant-baseline="alphabetic" fill-opacity="1">2</text><text fill="rgb(0,0,0)" stroke="none" font-family="geogebra-sans-serif, sans-serif" font-size="12px" font-style="normal" font-weight="normal" text-decoration="normal" x="304" y="257" text-anchor="start" dominant-baseline="alphabetic" fill-opacity="1">2.5</text><text fill="none" stroke="rgb(255,255,255)" font-family="geogebra-sans-serif, sans-serif" font-size="12px" font-style="normal" font-weight="normal" text-decoration="normal" x="304" y="257" text-anchor="start" dominant-baseline="alphabetic" stroke-opacity="1" stroke-linejoin="bevel" stroke-miterlimit="10" stroke-width="3">2.5</text><text fill="rgb(0,0,0)" stroke="none" font-family="geogebra-sans-serif, sans-serif" font-size="12px" font-style="normal" font-weight="normal" text-decoration="normal" x="304" y="257" text-anchor="start" dominant-baseline="alphabetic" fill-opacity="1">2.5</text><text fill="rgb(0,0,0)" stroke="none" font-family="geogebra-sans-serif, sans-serif" font-size="12px" font-style="normal" font-weight="normal" text-decoration="normal" x="314" y="179" text-anchor="start" dominant-baseline="alphabetic" fill-opacity="1">3</text><text fill="none" stroke="rgb(255,255,255)" font-family="geogebra-sans-serif, sans-serif" font-size="12px" font-style="normal" font-weight="normal" text-decoration="normal" x="314" y="179" text-anchor="start" dominant-baseline="alphabetic" stroke-opacity="1" stroke-linejoin="bevel" stroke-miterlimit="10" stroke-width="3">3</text><text fill="rgb(0,0,0)" stroke="none" font-family="geogebra-sans-serif, sans-serif" font-size="12px" font-style="normal" font-weight="normal" text-decoration="normal" x="314" y="179" text-anchor="start" dominant-baseline="alphabetic" fill-opacity="1">3</text><text fill="rgb(0,0,0)" stroke="none" font-family="geogebra-sans-serif, sans-serif" font-size="12px" font-style="normal" font-weight="normal" text-decoration="normal" x="304" y="102" text-anchor="start" dominant-baseline="alphabetic" fill-opacity="1">3.5</text><text fill="none" stroke="rgb(255,255,255)" font-family="geogebra-sans-serif, sans-serif" font-size="12px" font-style="normal" font-weight="normal" text-decoration="normal" x="304" y="102" text-anchor="start" dominant-baseline="alphabetic" stroke-opacity="1" stroke-linejoin="bevel" stroke-miterlimit="10" stroke-width="3">3.5</text><text fill="rgb(0,0,0)" stroke="none" font-family="geogebra-sans-serif, sans-serif" font-size="12px" font-style="normal" font-weight="normal" text-decoration="normal" x="304" y="102" text-anchor="start" dominant-baseline="alphabetic" fill-opacity="1">3.5</text><text fill="rgb(0,0,0)" stroke="none" font-family="geogebra-sans-serif, sans-serif" font-size="12px" font-style="normal" font-weight="normal" text-decoration="normal" x="314" y="24" text-anchor="start" dominant-baseline="alphabetic" fill-opacity="1">4</text><text fill="none" stroke="rgb(255,255,255)" font-family="geogebra-sans-serif, sans-serif" font-size="12px" font-style="normal" font-weight="normal" text-decoration="normal" x="314" y="24" text-anchor="start" dominant-baseline="alphabetic" stroke-opacity="1" stroke-linejoin="bevel" stroke-miterlimit="10" stroke-width="3">4</text><text fill="rgb(0,0,0)" stroke="none" font-family="geogebra-sans-serif, sans-serif" font-size="12px" font-style="normal" font-weight="normal" text-decoration="normal" x="314" y="24" text-anchor="start" dominant-baseline="alphabetic" fill-opacity="1">4</text><text fill="rgb(0,0,0)" stroke="none" font-family="geogebra-sans-serif, sans-serif" font-size="12px" font-style="normal" font-weight="normal" text-decoration="normal" x="314" y="655" text-anchor="start" dominant-baseline="alphabetic" fill-opacity="1">0</text><text fill="none" stroke="rgb(255,255,255)" font-family="geogebra-sans-serif, sans-serif" font-size="12px" font-style="normal" font-weight="normal" text-decoration="normal" x="314" y="655" text-anchor="start" dominant-baseline="alphabetic" stroke-opacity="1" stroke-linejoin="bevel" stroke-miterlimit="10" stroke-width="3">0</text><text fill="rgb(0,0,0)" stroke="none" font-family="geogebra-sans-serif, sans-serif" font-size="12px" font-style="normal" font-weight="normal" text-decoration="normal" x="314" y="655" text-anchor="start" dominant-baseline="alphabetic" fill-opacity="1">0</text><path fill="none" stroke="rgb(0,100,0)" paint-order="fill stroke markers" d=" M 0 621.0880062216971 L 3.484375 620.6660485132836 L 6.96875 620.234497787477 L 10.453125000000057 619.7931359513716 L 13.937500000000057 619.3417399538182 L 17.421875 618.880081672701 L 20.90625 618.4079277996508 L 24.390625 617.9250397221388 L 27.875 617.4311734028879 L 31.359375000000057 616.9260792565445 L 34.84375 616.4095020235447 L 38.328125 615.8811806411143 L 41.8125 615.3408481113347 L 45.296875 614.7882313662111 L 48.78125000000006 614.2230511296713 L 52.265625 613.6450217764277 L 55.75 613.053851187632 L 59.234375 612.4492406032452 L 62.71875 611.8308844710549 L 66.20312500000006 611.1984702922572 L 69.6875 610.5516784635295 L 73.171875 609.8901821155122 L 76.65625000000003 609.2136469476192 L 80.14062500000006 608.5217310590917 L 83.62500000000003 607.8140847762123 L 87.10937500000003 607.0903504755897 L 90.59375 606.3501624034268 L 94.07812500000003 605.5931464906798 L 97.56250000000006 604.8189201640145 L 101.04687500000003 604.0270921524649 L 104.53125000000003 603.2172622896974 L 108.015625 602.3890213117777 L 111.50000000000003 601.5419506503412 L 114.98437500000003 600.6756222210612 L 118.46875000000003 599.789598207308 L 121.953125 598.8834308388887 L 125.4375 597.956662165758 L 128.92187500000003 597.0088238265839 L 132.40625000000003 596.0394368120515 L 135.89062500000003 595.0480112227858 L 139.375 594.0340460217722 L 142.859375 592.9970287811454 L 146.34375000000003 591.9364354232256 L 149.82812500000003 590.8517299556637 L 153.31250000000003 589.7423642005677 L 156.796875 588.6077775174693 L 160.28125000000003 587.447396519993 L 163.76562500000003 586.2606347860841 L 167.25000000000003 585.0468925616476 L 170.73437500000003 583.805556457451 L 174.21875 582.5359991391356 L 177.70312500000003 581.2375790101797 L 181.18750000000003 579.9096398876559 L 184.67187500000003 578.5515106706147 L 188.15625000000003 577.1625050009304 L 191.640625 575.7419209164365 L 195.12500000000003 574.2890404961743 L 198.60937500000003 572.8031294975773 L 202.09375000000003 571.283436985407 L 205.57812500000003 569.7291949522521 L 209.0625 568.1396179304007 L 212.54687500000003 566.5139025948883 L 216.03125 564.8512273575212 L 219.51562500000003 563.1507519516701 L 223 561.4116170076244 L 226.484375 559.6329436182925 L 229.96875000000003 557.8138328950281 L 233.453125 555.9533655133584 L 236.93750000000003 554.0506012483855 L 240.421875 552.104578499624 L 243.90625 550.114313805037 L 247.39062500000003 548.0788013440238 L 250.875 545.9970124291075 L 254.35937500000003 543.8678949860677 L 257.84375 541.6903730222529 L 261.328125 539.463346082806 L 264.8125 537.1856886945272 L 268.296875 534.8562497970933 L 271.78125 532.4738521613457 L 275.265625 530.0372917943544 L 278.75 527.545337330955 L 282.234375 524.9967294114543 L 285.71875 522.3901800451866 L 289.203125 519.7243719596016 L 292.6875 516.9979579345544 L 296.17187500000006 514.2095601214601 L 299.65625 511.3577693469705 L 303.140625 508.44114440081927 L 306.625 505.4582113074776 L 310.109375 502.40746258125057 L 313.59375 499.28735646443863 L 317.078125 496.0963161481794 L 320.56250000000006 492.8327289755749 L 324.046875 489.4949456267034 L 327.53125 486.0812792851011 L 331.015625 482.5900047852965 L 334.50000000000006 479.01935774096194 L 337.98437500000006 475.367533653246 L 341.46875 471.6326869988332 L 344.953125 467.81293029727107 L 348.4375 463.906333157094 L 351.92187500000006 459.9109213002608 L 355.40625000000006 455.8246755644131 L 358.890625 451.6455308824509 L 362.375 447.3713752389088 L 365.859375 443.0000486026064 L 369.34375000000006 438.5293418350327 L 372.82812500000006 433.95699557391333 L 376.3125 429.28069909139583 L 379.796875 424.49808912627634 L 383.28125 419.60674868967817 L 386.76562500000006 414.6042058435769 L 390.25000000000006 409.48793245155707 L 393.734375 404.2553429011665 L 397.21875 398.90379279722504 L 400.703125 393.4305776254257 L 404.18750000000006 387.83293138555376 L 407.671875 382.1080251936325 L 411.15625 376.2529658522888 L 414.640625 370.264794388618 L 418.125 364.1404845588063 L 421.60937500000006 357.8769413187574 L 425.09375 351.4709992599497 L 428.578125 344.919421009732 L 432.0625 338.2188955952522 L 435.546875 331.36603677019014 L 439.03125000000006 324.35738130344896 L 442.515625 317.18938722894165 L 446 309.85843205558626 L 449.484375 302.3608109366067 L 452.96875 294.69273479721335 L 456.45312500000006 286.8503284197173 L 459.9375 278.82962848511096 L 463.421875 270.6265815701238 L 466.90625 262.23704209874296 L 470.390625 253.65677024716263 L 473.875 244.88142980110308 L 477.359375 235.90658596441693 L 480.84375 226.7277031178748 L 484.328125 217.34014252699814 L 487.8125 207.7391599977812 L 491.296875 197.91990347911604 L 493.0390625 192.92687611328859 L 494.78125 187.8774106107108 L 496.5234375 182.770869029099 L 498.265625 177.6066062152591 L 500.0078125 172.38396972357862 L 501.75 167.1022997335977 L 503.4921875 161.7609289666483 L 505.234375 156.3591826015512 L 506.97656250000006 150.89637818936006 L 508.71875 145.37182556714203 L 510.4609375 139.78482677078313 L 512.203125 134.13467594680844 L 513.9453125 128.42065926320595 L 515.6875 122.64205481924193 L 517.4296875 116.79813255425677 L 519.171875 110.88815415543058 L 520.9140625 104.91137296450518 L 522.65625 98.86703388345313 L 524.3984375 92.75437327907878 L 526.140625 86.57261888654341 L 527.8828125 80.32098971179653 L 529.625 73.99869593290771 L 531.3671875 67.60493880028048 L 533.109375 61.13891053574059 L 534.8515625 54.59979423048162 L 536.59375 47.986763741857885 L 538.3359375 41.2989835890113 L 540.078125 34.535608847317576 L 541.8203125 27.69578504163917 L 543.5625 20.77864803837383 L 545.3046875 13.783323936278748 L 547.046875 6.708928956064938 L 548.7890625 -0.44543067125891866 L 550.53125 -7.680658817303765" stroke-opacity="0.6980392156862745" stroke-linecap="round" stroke-linejoin="round" stroke-miterlimit="10" stroke-width="2.5"/><g transform="scale(19,19)"><g transform="translate(0.3684210526315789,32.55638576315789)"><path fill="rgb(0,100,0)" stroke="none" paint-order="stroke fill markers" d=" M 0.187 -0.231 L 0.134 -0.231 Q 0.11800000000000001 -0.166 0.11800000000000001 -0.127 Q 0.11800000000000001 -0.048 0.164 -0.021 Q 0.181 -0.011 0.20500000000000002 -0.011 Q 0.295 -0.011 0.367 -0.07100000000000001 Q 0.388 -0.088 0.405 -0.11 Q 0.41200000000000003 -0.12 0.418 -0.12 Q 0.427 -0.12 0.43 -0.107 Q 0.43 -0.096 0.396 -0.064 Q 0.313 0.011 0.203 0.011 Q 0.113 0.011 0.07100000000000001 -0.066 Q 0.046 -0.111 0.046 -0.17 Q 0.046 -0.301 0.148 -0.382 Q 0.223 -0.442 0.308 -0.442 Q 0.38 -0.442 0.406 -0.392 Q 0.41500000000000004 -0.376 0.41500000000000004 -0.357 Q 0.41500000000000004 -0.305 0.37 -0.271 L 0.369 -0.27 Q 0.356 -0.261 0.34 -0.254 Q 0.28500000000000003 -0.231 0.187 -0.231 M 0.14 -0.253 L 0.181 -0.253 Q 0.382 -0.253 0.382 -0.357 Q 0.382 -0.397 0.343 -0.41400000000000003 L 0.343 -0.41400000000000003 Q 0.329 -0.419 0.308 -0.42 Q 0.252 -0.42 0.20500000000000002 -0.374 Q 0.16 -0.33 0.14 -0.253 Z"/></g><g transform="translate(0.834048052631579,32.14349376315789) scale(0.7,0.7)"><path fill="rgb(0,100,0)" stroke="none" paint-order="stroke fill markers" d=" M 0.334 -0.302 L 0.3 -0.165 Q 0.28300000000000003 -0.097 0.28300000000000003 -0.077 Q 0.28300000000000003 -0.025 0.32 -0.014 Q 0.328 -0.011 0.338 -0.011 Q 0.388 -0.011 0.429 -0.061 Q 0.456 -0.093 0.47100000000000003 -0.14200000000000002 Q 0.47400000000000003 -0.153 0.484 -0.153 Q 0.496 -0.153 0.496 -0.14300000000000002 Q 0.496 -0.11800000000000001 0.465 -0.07100000000000001 Q 0.41100000000000003 0.011 0.336 0.011 Q 0.268 0.011 0.23700000000000002 -0.046 Q 0.231 -0.055 0.228 -0.065 Q 0.20400000000000001 -0.017 0.162 0.002 Q 0.14300000000000002 0.011 0.123 0.011 Q 0.063 0.011 0.039 -0.024 Q 0.029 -0.037 0.029 -0.055 Q 0.029 -0.092 0.061 -0.107 Q 0.07200000000000001 -0.113 0.084 -0.113 Q 0.114 -0.113 0.12 -0.088 Q 0.121 -0.083 0.121 -0.078 Q 0.121 -0.044 0.08700000000000001 -0.028 Q 0.081 -0.025 0.074 -0.024 Q 0.095 -0.011 0.124 -0.011 Q 0.177 -0.011 0.20800000000000002 -0.082 Q 0.214 -0.097 0.219 -0.115 Q 0.273 -0.319 0.273 -0.353 Q 0.267 -0.41500000000000004 0.219 -0.42 Q 0.167 -0.42 0.124 -0.367 L 0.124 -0.366 Q 0.124 -0.365 0.123 -0.365 Q 0.108 -0.34500000000000003 0.096 -0.319 Q 0.091 -0.307 0.08700000000000001 -0.295 L 0.085 -0.289 Q 0.083 -0.278 0.07200000000000001 -0.278 Q 0.06 -0.278 0.06 -0.28800000000000003 Q 0.06 -0.313 0.092 -0.36 Q 0.146 -0.442 0.221 -0.442 Q 0.298 -0.442 0.329 -0.366 Q 0.361 -0.428 0.41400000000000003 -0.44 Q 0.424 -0.442 0.434 -0.442 Q 0.493 -0.442 0.517 -0.40900000000000003 Q 0.527 -0.395 0.527 -0.376 Q 0.527 -0.335 0.49 -0.321 Q 0.481 -0.318 0.47300000000000003 -0.318 Q 0.442 -0.318 0.436 -0.34500000000000003 Q 0.435 -0.34900000000000003 0.435 -0.353 Q 0.435 -0.383 0.464 -0.4 Q 0.47300000000000003 -0.405 0.483 -0.40700000000000003 Q 0.462 -0.42 0.433 -0.42 Q 0.365 -0.42 0.337 -0.314 Q 0.335 -0.308 0.334 -0.302 Z"/></g></g><path fill="none" stroke="rgb(204,0,0)" paint-order="fill stroke markers" d=" M 0 590.0071885807041 L 3.484375 589.6472023546805 L 6.96875 589.281956900797 L 10.453125000000057 588.9113361187351 L 13.937500000000057 588.5352204655396 L 17.421875 588.1534868270641 L 20.90625 587.7660083836104 L 24.390625 587.3726544694581 L 27.875 586.973290425954 L 31.359375000000057 586.5677774478158 L 34.84375 586.1559724222817 L 38.328125 585.7377277607142 L 41.8125 585.3128912222408 L 45.296875 584.8813057289913 L 48.78125000000006 584.4428091724579 L 52.265625 583.9972342104782 L 55.75 583.5444080543066 L 59.234375 583.0841522452054 L 62.71875 582.6162824199477 L 66.20312500000006 582.1406080645856 L 69.6875 581.6569322557932 L 73.171875 581.1650513890444 L 76.65625000000003 580.6647548928408 L 80.14062500000006 580.1558249281443 L 83.62500000000003 579.6380360721131 L 87.10937500000003 579.1111549851786 L 90.59375 578.5749400604276 L 94.07812500000003 578.0291410541851 L 97.56250000000006 577.4734986966093 L 101.04687500000003 576.907744281027 L 104.53125000000003 576.3315992306414 L 108.015625 575.7447746411461 L 111.50000000000003 575.1469707976662 L 114.98437500000003 574.5378766643295 L 118.46875000000003 573.9171693446422 L 121.953125 573.284513510701 L 125.4375 572.639560799123 L 128.92187500000003 571.9819491714054 L 132.40625000000003 571.3113022362478 L 135.89062500000003 570.6272285311728 L 139.375 569.9293207605624 L 142.859375 569.217154986995 L 146.34375000000003 568.4902897725075 L 149.82812500000003 567.7482652661312 L 153.31250000000003 566.9906022337328 L 156.796875 566.2168010258649 L 160.28125000000003 565.426340478951 L 163.76562500000003 564.6186767447283 L 167.25000000000003 563.7932420424246 L 170.73437500000003 562.9494433276501 L 174.21875 562.0866608714491 L 177.70312500000003 561.204246742354 L 181.18750000000003 560.3015231836304 L 184.67187500000003 559.3777808771697 L 188.15625000000003 558.4322770846857 L 191.640625 557.4642336559754 L 195.12500000000003 556.4728348930201 L 198.60937500000003 555.457225257605 L 202.09375000000003 554.4165069089156 L 205.57812500000003 553.3497370562172 L 209.0625 552.255925110208 L 212.54687500000003 551.1340296149568 L 216.03125 549.9829549404507 L 219.51562500000003 548.8015477136727 L 223 547.5885929637739 L 226.484375 546.3428099542562 L 229.96875000000003 545.0628476721095 L 233.453125 543.7472799405073 L 236.93750000000003 542.394600117888 L 240.421875 541.0032153420038 L 243.90625 539.571440272704 L 247.39062500000003 538.0974902817709 L 250.875 536.5794740319549 L 254.35937500000003 535.0153853803178 L 257.84375 533.4030945330096 L 261.328125 531.7403383694664 L 264.8125 530.0247098435949 L 268.296875 528.2536463575581 L 271.78125 526.4244169900649 L 275.265625 524.5341084452908 L 278.75 522.5796095703784 L 282.234375 520.5575942684471 L 285.71875 518.4645026097194 L 289.203125 516.2965199151063 L 292.6875 514.0495535537232 L 296.17187500000006 511.7192071574225 L 299.65625 509.3007519105332 L 303.140625 506.78909452030183 L 306.625 504.17874141152396 L 310.109375 501.46375861566105 L 313.59375 498.6377267380729 L 317.078125 495.693690284048 L 320.56250000000006 492.6241005016068 L 324.046875 489.4207507522859 L 327.53125 486.07470324492124 L 331.015625 482.57620575513903 L 334.50000000000006 478.9145966964046 L 337.98437500000006 475.07819659645 L 341.46875 471.05418365219947 L 344.953125 466.828450569738 L 348.4375 462.38543932133064 L 351.92187500000006 457.70794974052393 L 355.40625000000006 452.77691699195935 L 358.890625 447.5711518463898 L 362.375 442.06703629998384 L 365.859375 436.23816531615216 L 369.34375000000006 430.0549232255545 L 372.82812500000006 423.4839804446034 L 376.3125 416.4876924598766 L 379.796875 409.02337819524496 L 383.28125 401.0424485434088 L 386.76562500000006 392.48934746462544 L 390.25000000000006 383.3002568728295 L 393.734375 373.4015014604715 L 395.4765625 368.1598030025338 L 397.21875 362.70756909729755 L 398.9609375 357.03185539385197 L 400.703125 351.118634195466 L 402.4453125 344.9526787026127 L 404.18750000000006 338.51743208932845 L 405.92968750000006 331.79485904279966 L 407.671875 324.7652769631058 L 409.4140625 317.4071634960465 L 411.15625 309.6969364351184 L 412.8984375 301.60870125135534 L 414.640625 293.1139605565789 L 416.3828125 284.1812786313082 L 418.125 274.7758926946436 L 419.8671875 264.8592607838626 L 420.73828125 259.69602172981126 L 421.60937500000006 254.38853384689287 L 422.48046875 248.9306665351993 L 423.35156250000006 243.31593680048763 L 424.22265625 237.53748356495367 L 425.09375 231.58803969748152 L 425.96484375 225.45990152364942 L 426.8359375 219.1448955464947 L 427.70703125 212.63434207576086 L 428.578125 205.91901542528285 L 429.44921875000006 198.98910029469772 L 430.3203125 191.83414390178564 L 431.19140625000006 184.443003374495 L 432.0625 176.80378784579784 L 432.93359375 168.9037946184634 L 433.8046875 160.729438678946 L 434.67578125 152.26617473764736 L 435.546875 143.49841085444336 L 436.41796875 134.40941257040544 L 437.2890625 124.98119630559574 L 438.16015625 115.19441059411804 L 438.595703125 110.16010051803005 L 439.03125000000006 105.02820350607601 L 439.466796875 99.79585429549672 L 439.90234375 94.46007434506362 L 440.337890625 89.01776618110705 L 440.77343750000006 83.46570740147627 L 441.208984375 77.80054431306019 L 441.64453125 72.01878517645832 L 442.080078125 66.11679302922562 L 442.515625 60.090778056676754 L 442.95117187500006 53.936789476635 L 443.38671875 47.650706901604394 L 443.822265625 41.22823113867639 L 444.2578125 34.664874384016 L 444.69335937500006 27.955949764913044 L 445.12890625 21.096560178199752 L 445.564453125 14.081586369162324 L 446 6.9056741899800045 L 446.435546875 -0.4367790289804816 L 446.87109375000006 -7.951639067902988 M 571.4375 914.3159442771165 L 573.1796875 908.951971142036 L 574.921875 903.793490502962 L 578.40625 894.0475152757257 L 581.890625 884.9951294153352 L 585.375 876.5648362641741 L 588.859375 868.694639430857 L 592.34375 861.3305155641574 L 595.828125 854.4251725629705 L 599.3125 847.9370328636819 L 602.796875 841.8293956054558 L 606.28125 836.0697420028407 L 609.765625 830.62915615928 L 613.25 825.4818395419917 L 616.734375 820.6047019114518 L 620.21875 815.9770150190126 L 623.703125 811.5801181164456 L 627.1875 807.3971664536422 L 630.671875 803.4129156173074 L 634.15625 799.6135358900119 L 637.640625 795.98645186479 L 641.125 792.5202033956174 L 644.609375 789.2043246442576 L 648.09375 786.029238534168 L 651.578125 782.9861643694155 L 655.0625 780.067036741829 L 658.546875 777.2644341492872 L 662.03125 774.5715159949265 L 665.515625 771.981966841299 L 669 769.4899469631383 L 672.484375 767.0900483838019 L 675.96875 764.7772556987716 L 679.453125 762.546911088929 L 682.9375 760.3946830100016 L 686.421875 758.3165381152867 L 689.90625 756.3087160287178 L 693.390625 754.3677066362983 L 696.875 752.4902296074002 L 700.359375 750.6732158945857 L 703.84375 748.9137909924727 L 707.328125 747.2092597635612 L 710.8125 745.5570926625358 L 714.296875 743.9549132109518 L 717.78125 742.4004865918711 L 721.265625 740.8917092493299 L 724.75 739.4265993908534 L 728.234375 738.0032883028435 L 731.71875 736.6200123988156 L 735.203125 735.2751059293332 L 738.6875 733.9669942902848 L 742.171875 732.6941878729757 L 745.65625 731.4552764055395 L 749.140625 730.2489237404751 L 752.625 729.0738630478064 L 756.109375 727.9288923775125 L 759.59375 726.8128705585484 L 763.078125 725.7247134050441 L 766.5625 724.6633902031692 L 770.046875 723.6279204547337 L 773.53125 722.6173708558989 L 777.015625 721.6308524914306 L 780.5 720.6675182267654 L 783.984375 719.7265602818082 L 787.46875 718.8072079718559 L 790.953125 717.9087256023687 L 794.4375 717.0304105055037 L 797.921875 716.171591207396 L 801.40625 715.3316257161416 L 804.890625 714.5098999213093 L 808.375 713.705826096595 L 811.859375 712.9188414979473 L 815.34375 712.1484070501359 L 818.828125 711.3940061153224 L 822.3125 710.6551433377205 L 825.796875 709.9313435589164 L 829.28125 709.2221507988612 L 832.765625 708.5271272979383 L 836.25 707.8458526158811 L 839.734375 707.1779227836422 L 843.2187500000001 706.522949504618 L 846.703125 705.880559401912 L 850.1875 705.2503933085682 L 853.671875 704.632105597942 L 857.15625 704.0253635515841 L 860.640625 703.429846762208 L 864.125 702.8452465694911 L 867.609375 702.2712655266215 L 871.09375 701.707616895653 L 874.578125 701.1540241698701 L 878.0625000000001 700.610220621491 L 881.546875 700.0759488731544 L 885.03125 699.550960491743 L 888.515625 699.0350156031982 L 892 698.5278825270697" stroke-opacity="0.6980392156862745" stroke-linecap="round" stroke-linejoin="round" stroke-miterlimit="10" stroke-width="2.5"/><g transform="scale(19,19)"><g transform="translate(5.486115115829941,30.065496631578952)"><path fill="rgb(204,0,0)" stroke="none" paint-order="stroke fill markers" d=" M 0.294 -0.64 L 0.294 -0.079 Q 0.294 -0.049 0.306 -0.041 Q 0.323 -0.031 0.387 -0.031 L 0.419 -0.031 L 0.419 0 Q 0.384 -0.003 0.257 -0.003 Q 0.13 -0.003 0.095 0 L 0.095 -0.031 L 0.127 -0.031 Q 0.20400000000000001 -0.031 0.215 -0.049 L 0.216 -0.05 Q 0.22 -0.058 0.22 -0.079 L 0.22 -0.597 Q 0.168 -0.5710000000000001 0.089 -0.5710000000000001 L 0.089 -0.602 Q 0.209 -0.602 0.271 -0.666 Q 0.29 -0.666 0.293 -0.659 L 0.293 -0.659 L 0.293 -0.658 Q 0.294 -0.655 0.294 -0.64 Z"/></g><rect fill="rgb(204,0,0)" stroke="none" x="4.589237726941052" y="30.472005131578953" width="2.2937567777777774" height="0.039999"/><g transform="translate(4.589237726941052,31.427955631578953)"><path fill="rgb(204,0,0)" stroke="none" paint-order="stroke fill markers" d=" M 0.294 -0.64 L 0.294 -0.079 Q 0.294 -0.049 0.306 -0.041 Q 0.323 -0.031 0.387 -0.031 L 0.419 -0.031 L 0.419 0 Q 0.384 -0.003 0.257 -0.003 Q 0.13 -0.003 0.095 0 L 0.095 -0.031 L 0.127 -0.031 Q 0.20400000000000001 -0.031 0.215 -0.049 L 0.216 -0.05 Q 0.22 -0.058 0.22 -0.079 L 0.22 -0.597 Q 0.168 -0.5710000000000001 0.089 -0.5710000000000001 L 0.089 -0.602 Q 0.209 -0.602 0.271 -0.666 Q 0.29 -0.666 0.293 -0.659 L 0.293 -0.659 L 0.293 -0.658 Q 0.294 -0.655 0.294 -0.64 Z"/></g><g transform="translate(5.311462615829941,31.427955631578953)"><path fill="rgb(204,0,0)" stroke="none" paint-order="stroke fill markers" d=" M 0.661 -0.23 L 0.116 -0.23 Q 0.084 -0.23 0.083 -0.25 Q 0.083 -0.27 0.116 -0.27 L 0.661 -0.27 Q 0.6930000000000001 -0.27 0.6940000000000001 -0.25 Q 0.6940000000000001 -0.23 0.661 -0.23 Z"/></g><g transform="translate(6.3114665047188305,31.427955631578953)"><path fill="rgb(204,0,0)" stroke="none" paint-order="stroke fill markers" d=" M 0.334 -0.302 L 0.3 -0.165 Q 0.28300000000000003 -0.097 0.28300000000000003 -0.077 Q 0.28300000000000003 -0.025 0.32 -0.014 Q 0.328 -0.011 0.338 -0.011 Q 0.388 -0.011 0.429 -0.061 Q 0.456 -0.093 0.47100000000000003 -0.14200000000000002 Q 0.47400000000000003 -0.153 0.484 -0.153 Q 0.496 -0.153 0.496 -0.14300000000000002 Q 0.496 -0.11800000000000001 0.465 -0.07100000000000001 Q 0.41100000000000003 0.011 0.336 0.011 Q 0.268 0.011 0.23700000000000002 -0.046 Q 0.231 -0.055 0.228 -0.065 Q 0.20400000000000001 -0.017 0.162 0.002 Q 0.14300000000000002 0.011 0.123 0.011 Q 0.063 0.011 0.039 -0.024 Q 0.029 -0.037 0.029 -0.055 Q 0.029 -0.092 0.061 -0.107 Q 0.07200000000000001 -0.113 0.084 -0.113 Q 0.114 -0.113 0.12 -0.088 Q 0.121 -0.083 0.121 -0.078 Q 0.121 -0.044 0.08700000000000001 -0.028 Q 0.081 -0.025 0.074 -0.024 Q 0.095 -0.011 0.124 -0.011 Q 0.177 -0.011 0.20800000000000002 -0.082 Q 0.214 -0.097 0.219 -0.115 Q 0.273 -0.319 0.273 -0.353 Q 0.267 -0.41500000000000004 0.219 -0.42 Q 0.167 -0.42 0.124 -0.367 L 0.124 -0.366 Q 0.124 -0.365 0.123 -0.365 Q 0.108 -0.34500000000000003 0.096 -0.319 Q 0.091 -0.307 0.08700000000000001 -0.295 L 0.085 -0.289 Q 0.083 -0.278 0.07200000000000001 -0.278 Q 0.06 -0.278 0.06 -0.28800000000000003 Q 0.06 -0.313 0.092 -0.36 Q 0.146 -0.442 0.221 -0.442 Q 0.298 -0.442 0.329 -0.366 Q 0.361 -0.428 0.41400000000000003 -0.44 Q 0.424 -0.442 0.434 -0.442 Q 0.493 -0.442 0.517 -0.40900000000000003 Q 0.527 -0.395 0.527 -0.376 Q 0.527 -0.335 0.49 -0.321 Q 0.481 -0.318 0.47300000000000003 -0.318 Q 0.442 -0.318 0.436 -0.34500000000000003 Q 0.435 -0.34900000000000003 0.435 -0.353 Q 0.435 -0.383 0.464 -0.4 Q 0.47300000000000003 -0.405 0.483 -0.40700000000000003 Q 0.462 -0.42 0.433 -0.42 Q 0.365 -0.42 0.337 -0.314 Q 0.335 -0.308 0.334 -0.302 Z"/></g></g><path fill="none" stroke="rgb(0,0,0)" paint-order="fill stroke markers" d=" M -5 818.6191869386895 L 818.6191869386902 -5" stroke-opacity="0.6980392156862745" stroke-linecap="round" stroke-linejoin="round" stroke-miterlimit="10" stroke-width="2.5"/><text fill="rgb(0,0,0)" stroke="none" font-family="geogebra-sans-serif, sans-serif" font-size="16px" font-style="normal" font-weight="normal" text-decoration="normal" x="69" y="746" text-anchor="start" dominant-baseline="alphabetic" fill-opacity="1">y = x + 1</text><text fill="none" stroke="rgb(255,255,255)" font-family="geogebra-sans-serif, sans-serif" font-size="16px" font-style="normal" font-weight="normal" text-decoration="normal" x="69" y="746" text-anchor="start" dominant-baseline="alphabetic" stroke-opacity="1" stroke-linejoin="bevel" stroke-miterlimit="10" stroke-width="3">y = x + 1</text><text fill="rgb(0,0,0)" stroke="none" font-family="geogebra-sans-serif, sans-serif" font-size="16px" font-style="normal" font-weight="normal" text-decoration="normal" x="69" y="746" text-anchor="start" dominant-baseline="alphabetic" fill-opacity="1">y = x + 1</text><path fill="none" stroke="rgb(255,192,203)" paint-order="fill stroke markers" d=" M 483.96919178416647 913 L 483.96919178416647 -5" stroke-opacity="0.6980392156862745" stroke-linejoin="round" stroke-miterlimit="10" stroke-width="2.5" stroke-dasharray="10.5,8"/><text fill="rgb(255,192,203)" stroke="none" font-family="geogebra-sans-serif, sans-serif" font-size="16px" font-style="normal" font-weight="normal" text-decoration="normal" x="467" y="16" text-anchor="start" dominant-baseline="alphabetic" fill-opacity="1">eq1</text><text fill="none" stroke="rgb(255,255,255)" font-family="geogebra-sans-serif, sans-serif" font-size="16px" font-style="normal" font-weight="normal" text-decoration="normal" x="467" y="16" text-anchor="start" dominant-baseline="alphabetic" stroke-opacity="1" stroke-linejoin="bevel" stroke-miterlimit="10" stroke-width="3">eq1</text><text fill="rgb(255,192,203)" stroke="none" font-family="geogebra-sans-serif, sans-serif" font-size="16px" font-style="normal" font-weight="normal" text-decoration="normal" x="467" y="16" text-anchor="start" dominant-baseline="alphabetic" fill-opacity="1">eq1</text><path fill="none" stroke="rgb(204,102,255)" paint-order="fill stroke markers" d=" M 55.61829175664461 913 L 897 71.61829175664525" stroke-opacity="0.6980392156862745" stroke-linejoin="round" stroke-miterlimit="10" stroke-width="2.5" stroke-dasharray="10.5,8"/><text fill="rgb(204,102,255)" stroke="none" font-family="geogebra-sans-serif, sans-serif" font-size="16px" font-style="normal" font-weight="normal" text-decoration="normal" x="877" y="103" text-anchor="start" dominant-baseline="alphabetic" fill-opacity="1">p</text><text fill="none" stroke="rgb(255,255,255)" font-family="geogebra-sans-serif, sans-serif" font-size="16px" font-style="normal" font-weight="normal" text-decoration="normal" x="877" y="103" text-anchor="start" dominant-baseline="alphabetic" stroke-opacity="1" stroke-linejoin="bevel" stroke-miterlimit="10" stroke-width="3">p</text><text fill="rgb(204,102,255)" stroke="none" font-family="geogebra-sans-serif, sans-serif" font-size="16px" font-style="normal" font-weight="normal" text-decoration="normal" x="877" y="103" text-anchor="start" dominant-baseline="alphabetic" fill-opacity="1">p</text></g></g></svg>