<svg viewBox="0 0 659 512" xmlns:xlink="http://www.w3.org/1999/xlink" height="512" width="659" xmlns="http://www.w3.org/2000/svg" xmlns:ev="http://www.w3.org/2001/xml-events"><defs/><g id="page1" transform="translate(5.5,5.5)"><rect y="0" x="0" height="502" width="649" fill="none"/><g id="shape1" transform="translate(39.224000,39.266200)"><path stroke="#e91e63" d="M35.1,70.1L175.5,70.1L175.5,70.1C194.8,70.1,210.5,54.4,210.5,35.1C210.5,15.7,194.8,.0,175.5,.0L35.1,.0L35.1,.0C15.7,.0,.0,15.7,.0,35.1C.0,54.4,15.7,70.1,35.1,70.1z" stroke-width="1" fill="none"/><text xml:space="preserve" style="fill:#000000;font-family:微软雅黑,PingFang SC,Mircrosoft YaHei,Arial;font-size:18.00pt;font-weight:bold"><tspan style="font-family:微软雅黑,PingFang SC,Mircrosoft YaHei,Arial" y="44.4" x="57.3">方法选择</tspan></text></g><g id="shape2" transform="translate(39.224000,137.511800)"><path stroke="#e91e63" d="M105.3,70.1L210.5,35.1L105.3,.0L.0,35.1L105.3,70.1z" stroke-width="1" fill="none"/><text xml:space="preserve" style="fill:#000000;font-family:微软雅黑,PingFang SC,Mircrosoft YaHei,Arial;font-size:18.00pt;font-weight:bold"><tspan style="font-family:微软雅黑,PingFang SC,Mircrosoft YaHei,Arial" y="44.4" x="51.7">题干表述?</tspan></text></g><g id="shape3" transform="translate(249.760000,172.581000)"><path stroke="#e91e63" d="M.0,.0L143.5,.0" stroke-width="1" fill="none"/><path stroke="#e91e63" d="M143.5,-3.0L149.5,.0L143.5,3.0L143.5,-3.0" stroke-linecap="round" stroke-width="1" fill="#e91e63"/><rect y="-16.3" x="40.0" height="32.0" width="72.0" fill="#ffffff"/><text xml:space="preserve" style="fill:#000000;font-family:微软雅黑,PingFang SC,Mircrosoft YaHei,Arial;font-size:18.00pt;font-weight:bold"><tspan style="font-family:微软雅黑,PingFang SC,Mircrosoft YaHei,Arial" y="9.3" x="40.0">隐函数</tspan></text></g><g id="shape4" transform="translate(399.240000,137.511800)"><path stroke="#e91e63" d="M210.5,70.1L210.5,.0L.0,.0L.0,70.1L210.5,70.1z" stroke-width="1" fill="none"/><text xml:space="preserve" style="fill:#000000;font-family:微软雅黑,PingFang SC,Mircrosoft YaHei,Arial;font-size:18.00pt;font-weight:bold"><tspan style="font-family:微软雅黑,PingFang SC,Mircrosoft YaHei,Arial" y="44.4" x="45.3">构造函数法</tspan></text></g><g id="shape5" transform="translate(144.492000,207.650000)"><path stroke="#e91e63" d="M.0,.0L.0,52.0" stroke-width="1" fill="none"/><path stroke="#e91e63" d="M3.0,52.0L.0,58.0L-3.0,52.0L3.0,52.0" stroke-linecap="round" stroke-width="1" fill="#e91e63"/><rect y="5.5" x="-35.0" height="32.0" width="72.0" fill="#ffffff"/><text xml:space="preserve" style="fill:#000000;font-family:微软雅黑,PingFang SC,Mircrosoft YaHei,Arial;font-size:18.00pt;font-weight:bold"><tspan style="font-family:微软雅黑,PingFang SC,Mircrosoft YaHei,Arial" y="31.1" x="-35.0">纯数值</tspan></text></g><g id="shape6" transform="translate(39.224000,265.475800)"><path stroke="#e91e63" d="M105.3,70.1L210.5,35.1L105.3,.0L.0,35.1L105.3,70.1z" stroke-width="1" fill="none"/><text xml:space="preserve" style="fill:#000000;font-family:微软雅黑,PingFang SC,Mircrosoft YaHei,Arial;font-size:18.00pt;font-weight:bold"><tspan style="font-family:微软雅黑,PingFang SC,Mircrosoft YaHei,Arial" y="44.4" x="51.7">三数形式?</tspan></text></g><g id="shape7" transform="translate(144.492000,109.405000)"><path stroke="#e91e63" d="M.0,.0L.0,22.0" stroke-width="1" fill="none"/><path stroke="#e91e63" d="M3.0,22.0L.0,28.0L-3.0,22.0L3.0,22.0" stroke-linecap="round" stroke-width="1" fill="#e91e63"/></g><g id="shape8" transform="translate(399.240000,265.475800)"><path stroke="#e91e63" d="M210.5,70.1L210.5,.0L.0,.0L.0,70.1L210.5,70.1z" stroke-width="1" fill="none"/><text xml:space="preserve" style="fill:#000000;font-family:微软雅黑,PingFang SC,Mircrosoft YaHei,Arial;font-size:18.00pt;font-weight:bold"><tspan style="font-family:微软雅黑,PingFang SC,Mircrosoft YaHei,Arial" y="44.4" x="45.3">直接做商法</tspan></text></g><g id="shape9" transform="translate(249.760000,300.545000)"><path stroke="#e91e63" d="M.0,.0L144.0,.0" stroke-width="1" fill="none"/><path stroke="#e91e63" d="M144.0,-3.0L150.0,.0L144.0,3.0L144.0,-3.0" stroke-linecap="round" stroke-width="1" fill="#e91e63"/><rect y="-16.3" x="52.5" height="32.0" width="48.0" fill="#ffffff"/><text xml:space="preserve" style="fill:#000000;font-family:微软雅黑,PingFang SC,Mircrosoft YaHei,Arial;font-size:18.00pt;font-weight:bold"><tspan style="font-family:微软雅黑,PingFang SC,Mircrosoft YaHei,Arial" y="9.3" x="52.5">相同</tspan></text></g><g id="shape10" transform="translate(39.224000,393.438800)"><path stroke="#e91e63" d="M210.5,70.1L210.5,.0L.0,.0L.0,70.1L210.5,70.1z" stroke-width="1" fill="none"/><text xml:space="preserve" style="fill:#000000;font-family:微软雅黑,PingFang SC,Mircrosoft YaHei,Arial;font-size:18.00pt;font-weight:bold"><tspan style="font-family:微软雅黑,PingFang SC,Mircrosoft YaHei,Arial" y="44.4" x="45.3">泰勒展开法</tspan></text></g><g id="shape11" transform="translate(144.492000,335.614000)"><path stroke="#e91e63" d="M.0,.0L.0,52.0" stroke-width="1" fill="none"/><path stroke="#e91e63" d="M3.0,52.0L.0,58.0L-3.0,52.0L3.0,52.0" stroke-linecap="round" stroke-width="1" fill="#e91e63"/><rect y="12.9" x="-23.0" height="32.0" width="48.0" fill="#ffffff"/><text xml:space="preserve" style="fill:#000000;font-family:微软雅黑,PingFang SC,Mircrosoft YaHei,Arial;font-size:18.00pt;font-weight:bold"><tspan style="font-family:微软雅黑,PingFang SC,Mircrosoft YaHei,Arial" y="38.5" x="-23.0">不同</tspan></text></g></g></svg>