<svg height="512" viewBox="0 0 659 512" xmlns="http://www.w3.org/2000/svg" xmlns:ev="http://www.w3.org/2001/xml-events" xmlns:xlink="http://www.w3.org/1999/xlink" width="659"><defs/><g transform="translate(5.5,5.5)" id="page1"><rect y="0" fill="none" height="502" x="0" width="649"/><g transform="translate(39.224000,39.266200)" id="shape1"><path fill="#e91e63" stroke="#e91e63" stroke-width="1" d="M35.1,70.1L175.5,70.1L175.5,70.1C194.8,70.1,210.5,54.4,210.5,35.1C210.5,15.7,194.8,.0,175.5,.0L35.1,.0L35.1,.0C15.7,.0,.0,15.7,.0,35.1C.0,54.4,15.7,70.1,35.1,70.1z" fill-rule="nonzero"/><text xml:space="preserve" style="fill:#fce4ec;font-family:微软雅黑,PingFang SC,Mircrosoft YaHei,Arial;font-size:18.00pt;font-weight:bold"><tspan y="44.4" style="font-family:微软雅黑,PingFang SC,Mircrosoft YaHei,Arial" x="57.3">方法选择</tspan></text></g><g transform="translate(39.224000,137.511800)" id="shape2"><path stroke="#e91e63" stroke-width="1" fill="none" d="M105.3,70.1L210.5,35.1L105.3,.0L.0,35.1L105.3,70.1z"/><text xml:space="preserve" style="fill:#e91e63;font-family:微软雅黑,PingFang SC,Mircrosoft YaHei,Arial;font-size:18.00pt;font-weight:bold"><tspan y="44.4" style="font-family:微软雅黑,PingFang SC,Mircrosoft YaHei,Arial" x="51.7">题干表述?</tspan></text></g><g transform="translate(399.240000,137.511800)" id="shape3"><path fill="#e91e63" stroke="#e91e63" stroke-width="1" d="M210.5,70.1L210.5,.0L.0,.0L.0,70.1L210.5,70.1z" fill-rule="nonzero"/><text xml:space="preserve" style="fill:#fce4ec;font-family:微软雅黑,PingFang SC,Mircrosoft YaHei,Arial;font-size:18.00pt;font-weight:bold"><tspan y="44.8" style="font-family:微软雅黑,PingFang SC,Mircrosoft YaHei,Arial" x="45.3">构造函数法</tspan></text></g><g transform="translate(39.224000,265.475800)" id="shape4"><path stroke="#e91e63" stroke-width="1" fill="none" d="M105.3,70.1L210.5,35.1L105.3,.0L.0,35.1L105.3,70.1z"/><text xml:space="preserve" style="fill:#e91e63;font-family:微软雅黑,PingFang SC,Mircrosoft YaHei,Arial;font-size:18.00pt;font-weight:bold"><tspan y="44.4" style="font-family:微软雅黑,PingFang SC,Mircrosoft YaHei,Arial" x="51.7">三数形式?</tspan></text></g><g transform="translate(144.492000,109.405000)" id="shape5"><path stroke="#e91e63" stroke-width="1" fill="none" d="M.0,.0L.0,22.0"/><path stroke-width="1" fill="#e91e63" stroke="#e91e63" d="M3.0,22.0L.0,28.0L-3.0,22.0L3.0,22.0" stroke-linecap="round"/></g><g transform="translate(399.240000,265.475800)" id="shape6"><path fill="#e91e63" stroke="#e91e63" stroke-width="1" d="M210.5,70.1L210.5,.0L.0,.0L.0,70.1L210.5,70.1z" fill-rule="nonzero"/><text xml:space="preserve" style="fill:#fce4ec;font-family:微软雅黑,PingFang SC,Mircrosoft YaHei,Arial;font-size:18.00pt;font-weight:bold"><tspan y="44.8" style="font-family:微软雅黑,PingFang SC,Mircrosoft YaHei,Arial" x="45.3">直接做商法</tspan></text></g><g transform="translate(39.224000,393.438800)" id="shape7"><path fill="#e91e63" stroke="#e91e63" stroke-width="1" d="M210.5,70.1L210.5,.0L.0,.0L.0,70.1L210.5,70.1z" fill-rule="nonzero"/><text xml:space="preserve" style="fill:#fce4ec;font-family:微软雅黑,PingFang SC,Mircrosoft YaHei,Arial;font-size:18.00pt;font-weight:bold"><tspan y="44.8" style="font-family:微软雅黑,PingFang SC,Mircrosoft YaHei,Arial" x="45.3">泰勒展开法</tspan></text></g><g transform="translate(283.250000,159.046400)" id="shape8"><text xml:space="preserve" style="fill:#9b9b9b;font-family:微软雅黑,PingFang SC,Mircrosoft YaHei,Arial;font-size:18.00pt;font-weight:bold"><tspan y="22.8" style="font-family:微软雅黑,PingFang SC,Mircrosoft YaHei,Arial" x="5.5">隐函数</tspan></text></g><g transform="translate(293.875000,287.010400)" id="shape9"><text xml:space="preserve" style="fill:#9b9b9b;font-family:微软雅黑,PingFang SC,Mircrosoft YaHei,Arial;font-size:18.00pt;font-weight:bold"><tspan y="22.8" style="font-family:微软雅黑,PingFang SC,Mircrosoft YaHei,Arial" x="6.9">相同</tspan></text></g><g transform="translate(102.992000,349.991400)" id="shape10"><text xml:space="preserve" style="fill:#9b9b9b;font-family:微软雅黑,PingFang SC,Mircrosoft YaHei,Arial;font-size:18.00pt;font-weight:bold"><tspan y="23.8" style="font-family:微软雅黑,PingFang SC,Mircrosoft YaHei,Arial" x="17.5">不同</tspan></text></g><g transform="translate(102.992000,223.528400)" id="shape11"><text xml:space="preserve" style="fill:#9b9b9b;font-family:微软雅黑,PingFang SC,Mircrosoft YaHei,Arial;font-size:18.00pt;font-weight:bold"><tspan y="22.3" style="font-family:微软雅黑,PingFang SC,Mircrosoft YaHei,Arial" x="5.5">纯数值</tspan></text></g><path stroke="#e91e63" stroke-width="1" fill="none" d="M.0,.0L.0,15.9" transform="translate(144.492000,207.650000)" id="shape12"/><g transform="translate(144.492000,249.598000)" id="shape13"><path stroke="#e91e63" stroke-width="1" fill="none" d="M.0,.0L.0,9.9"/><path stroke-width="1" fill="#e91e63" stroke="#e91e63" d="M3.0,9.9L.0,15.9L-3.0,9.9L3.0,9.9" stroke-linecap="round"/></g><path stroke="#e91e63" stroke-width="1" fill="none" d="M.0,.0L1.2,.0L27.2,.0L33.5,.0" transform="translate(249.760000,172.581000)" id="shape14"/><path stroke="#e91e63" stroke-width="1" fill="none" d="M.0,.0L.0,14.4" transform="translate(144.492000,335.614000)" id="shape15"/><g transform="translate(144.492000,380.000000)" id="shape16"><path stroke="#e91e63" stroke-width="1" fill="none" d="M.0,.0L.0,7.4"/><path stroke-width="1" fill="#e91e63" stroke="#e91e63" d="M3.0,7.4L.0,13.4L-3.0,7.4L3.0,7.4" stroke-linecap="round"/></g><path stroke="#e91e63" stroke-width="1" fill="none" d="M.0,.0L44.1,.0" transform="translate(249.760000,300.545000)" id="shape17"/><g transform="translate(356.000000,300.545000)" id="shape18"><path stroke="#e91e63" stroke-width="1" fill="none" d="M.0,.0L37.2,.0"/><path stroke-width="1" fill="#e91e63" stroke="#e91e63" d="M37.2,-3.0L43.2,.0L37.2,3.0L37.2,-3.0" stroke-linecap="round"/></g><g transform="translate(366.250000,172.581000)" id="shape19"><path stroke="#e91e63" stroke-width="1" fill="none" d="M.0,.0L27.0,-0.0"/><path stroke-width="1" fill="#e91e63" stroke="#e91e63" d="M27.0,-3.0L33.0,-0.0L27.0,3.0L27.0,-3.0" stroke-linecap="round"/></g></g></svg>