<svg xmlns:ev="http://www.w3.org/2001/xml-events" width="1560" height="766" xmlns="http://www.w3.org/2000/svg" xmlns:xlink="http://www.w3.org/1999/xlink" viewBox="0 0 1560 766"><defs/><g transform="translate(5.5,5.5)" id="page1"><rect width="1550" height="756" x="0" y="0" fill="none"/><g transform="translate(39.000000,116.520000)" id="shape1"><path stroke="#101843" stroke-width="1" fill-rule="nonzero" fill="#ffffff" d="M132.0,28.0L132.0,7.0C132.0,3.1,128.9,.0,125.0,.0L7.0,.0C3.1,.0,.0,3.1,.0,7.0L.0,28.0C.0,31.9,3.1,35.0,7.0,35.0L125.0,35.0C128.9,35.0,132.0,31.9,132.0,28.0z"/><text style="fill:#191919;font-family:方正书宋简体,PingFang SC,Mircrosoft YaHei,Arial;font-size:13.00pt" xml:space="preserve"><tspan style="font-family:方正书宋简体,PingFang SC,Mircrosoft YaHei,Arial" x="12.8" y="21.9">铵线P204原液</tspan></text></g><g transform="translate(105.000000,151.520000)" id="shape2"><path stroke="#191919" stroke-width="1" d="M.0,.0L.0,31.2" fill="none"/><path stroke="#191919" stroke-linecap="round" stroke-width="1" fill="#191919" d="M3.0,31.2L.0,37.2L-3.0,31.2L3.0,31.2"/></g><g transform="translate(39.000000,188.686000)" id="shape3"><path stroke="#101843" stroke-width="1" fill-rule="nonzero" fill="#ffffff" d="M132.0,35.0L132.0,.0L.0,.0L.0,35.0L132.0,35.0z"/><text style="fill:#191919;font-family:方正书宋简体,PingFang SC,Mircrosoft YaHei,Arial;font-size:13.00pt" xml:space="preserve"><tspan style="font-family:方正书宋简体,PingFang SC,Mircrosoft YaHei,Arial" x="30.8" y="21.9">预萃钙线</tspan></text></g><g transform="translate(105.000000,223.686000)" id="shape4"><path stroke="#191919" stroke-width="1" d="M.0,.0L.0,31.2" fill="none"/><path stroke="#191919" stroke-linecap="round" stroke-width="1" fill="#191919" d="M3.0,31.2L.0,37.2L-3.0,31.2L3.0,31.2"/></g><g transform="translate(39.000000,260.853000)" id="shape5"><path stroke="#101843" stroke-width="1" fill-rule="nonzero" fill="#ffffff" d="M132.0,35.0L132.0,.0L.0,.0L.0,35.0L132.0,35.0z"/><text style="fill:#191919;font-family:方正书宋简体,PingFang SC,Mircrosoft YaHei,Arial;font-size:13.00pt" xml:space="preserve"><tspan style="font-family:方正书宋简体,PingFang SC,Mircrosoft YaHei,Arial" x="30.4" y="21.9">P204萃取</tspan></text></g><g transform="translate(105.000000,295.853000)" id="shape6"><path stroke="#191919" stroke-width="1" d="M.0,.0L.0,31.2" fill="none"/><path stroke="#191919" stroke-linecap="round" stroke-width="1" fill="#191919" d="M3.0,31.2L.0,37.2L-3.0,31.2L3.0,31.2"/></g><g transform="translate(39.000000,333.020000)" id="shape7"><path stroke="#101843" stroke-width="1" fill-rule="nonzero" fill="#ffffff" d="M132.0,35.0L132.0,.0L.0,.0L.0,35.0L132.0,35.0z"/><text style="fill:#191919;font-family:方正书宋简体,PingFang SC,Mircrosoft YaHei,Arial;font-size:13.00pt" xml:space="preserve"><tspan style="font-family:方正书宋简体,PingFang SC,Mircrosoft YaHei,Arial" x="30.4" y="21.9">P507萃取</tspan></text></g><g transform="translate(105.000000,368.020000)" id="shape8"><path stroke="#191919" stroke-width="1" d="M.0,.0L.0,31.2" fill="none"/><path stroke="#191919" stroke-linecap="round" stroke-width="1" fill="#191919" d="M3.0,31.2L.0,37.2L-3.0,31.2L3.0,31.2"/></g><g transform="translate(39.000000,405.186000)" id="shape9"><path stroke="#101843" stroke-width="1" fill-rule="nonzero" fill="#ffffff" d="M132.0,35.0L132.0,.0L.0,.0L.0,35.0L132.0,35.0z"/><text style="fill:#191919;font-family:方正书宋简体,PingFang SC,Mircrosoft YaHei,Arial;font-size:13.00pt" xml:space="preserve"><tspan style="font-family:方正书宋简体,PingFang SC,Mircrosoft YaHei,Arial" x="21.6" y="21.9">P507铵镁线</tspan></text></g><g transform="translate(105.000000,440.186000)" id="shape10"><path stroke="#191919" stroke-width="1" d="M.0,.0L.0,31.2" fill="none"/><path stroke="#191919" stroke-linecap="round" stroke-width="1" fill="#191919" d="M3.0,31.2L.0,37.2L-3.0,31.2L3.0,31.2"/></g><g transform="translate(39.000000,477.353000)" id="shape11"><path stroke="#101843" stroke-width="1" fill-rule="nonzero" fill="#ffffff" d="M132.0,35.0L132.0,.0L.0,.0L.0,35.0L132.0,35.0z"/><text style="fill:#191919;font-family:方正书宋简体,PingFang SC,Mircrosoft YaHei,Arial;font-size:13.00pt" xml:space="preserve"><tspan style="font-family:方正书宋简体,PingFang SC,Mircrosoft YaHei,Arial" x="30.8" y="21.9">深度净化</tspan></text></g><g transform="translate(105.000000,512.353000)" id="shape12"><path stroke="#191919" stroke-width="1" d="M.0,.0L.0,31.2" fill="none"/><path stroke="#191919" stroke-linecap="round" stroke-width="1" fill="#191919" d="M3.0,31.2L.0,37.2L-3.0,31.2L3.0,31.2"/></g><g transform="translate(39.000000,549.520000)" id="shape13"><path stroke="#101843" stroke-width="1" fill-rule="nonzero" fill="#ffffff" d="M132.0,35.0L132.0,.0L.0,.0L.0,35.0L132.0,35.0z"/><text style="fill:#191919;font-family:方正书宋简体,PingFang SC,Mircrosoft YaHei,Arial;font-size:13.00pt" xml:space="preserve"><tspan style="font-family:方正书宋简体,PingFang SC,Mircrosoft YaHei,Arial" x="48.4" y="21.9">除油</tspan></text></g><g transform="translate(203.571000,116.520000)" id="shape14"><path stroke="#101843" stroke-width="1" fill-rule="nonzero" fill="#ffffff" d="M68.0,35.0L68.0,.0L.0,.0L.0,35.0L68.0,35.0z"/><text style="fill:#191919;font-family:方正书宋简体,PingFang SC,Mircrosoft YaHei,Arial;font-size:13.00pt" xml:space="preserve"><tspan style="font-family:方正书宋简体,PingFang SC,Mircrosoft YaHei,Arial" x="16.4" y="21.9">皂化</tspan></text></g><g transform="translate(271.571000,134.020000)" id="shape15"><path stroke="#191919" stroke-width="1" d="M.0,.0L21.1,.0" fill="none"/><path stroke="#191919" stroke-linecap="round" stroke-width="1" fill="#191919" d="M21.1,-3.0L27.1,.0L21.1,3.0L21.1,-3.0"/></g><g transform="translate(298.714000,116.520000)" id="shape16"><path stroke="#101843" stroke-width="1" fill-rule="nonzero" fill="#ffffff" d="M68.0,35.0L68.0,.0L.0,.0L.0,35.0L68.0,35.0z"/><text style="fill:#191919;font-family:方正书宋简体,PingFang SC,Mircrosoft YaHei,Arial;font-size:13.00pt" xml:space="preserve"><tspan style="font-family:方正书宋简体,PingFang SC,Mircrosoft YaHei,Arial" x="16.4" y="21.9">萃取</tspan></text></g><g transform="translate(366.714000,134.020000)" id="shape17"><path stroke="#191919" stroke-width="1" d="M.0,.0L21.1,.0" fill="none"/><path stroke="#191919" stroke-linecap="round" stroke-width="1" fill="#191919" d="M21.1,-3.0L27.1,.0L21.1,3.0L21.1,-3.0"/></g><g transform="translate(393.857000,116.520000)" id="shape18"><path stroke="#101843" stroke-width="1" fill-rule="nonzero" fill="#ffffff" d="M68.0,35.0L68.0,.0L.0,.0L.0,35.0L68.0,35.0z"/><text style="fill:#191919;font-family:方正书宋简体,PingFang SC,Mircrosoft YaHei,Arial;font-size:13.00pt" xml:space="preserve"><tspan style="font-family:方正书宋简体,PingFang SC,Mircrosoft YaHei,Arial" x="16.4" y="21.9">洗涤</tspan></text></g><g transform="translate(461.857000,134.020000)" id="shape19"><path stroke="#191919" stroke-width="1" d="M.0,.0L21.1,.0" fill="none"/><path stroke="#191919" stroke-linecap="round" stroke-width="1" fill="#191919" d="M21.1,-3.0L27.1,.0L21.1,3.0L21.1,-3.0"/></g><g transform="translate(489.000000,116.520000)" id="shape20"><path stroke="#101843" stroke-width="1" fill-rule="nonzero" fill="#ffffff" d="M68.0,35.0L68.0,.0L.0,.0L.0,35.0L68.0,35.0z"/><text style="fill:#191919;font-family:方正书宋简体,PingFang SC,Mircrosoft YaHei,Arial;font-size:13.00pt" xml:space="preserve"><tspan style="font-family:方正书宋简体,PingFang SC,Mircrosoft YaHei,Arial" x="16.4" y="21.9">反钙</tspan></text></g><g transform="translate(557.000000,134.020000)" id="shape21"><path stroke="#191919" stroke-width="1" d="M.0,.0L21.1,.0" fill="none"/><path stroke="#191919" stroke-linecap="round" stroke-width="1" fill="#191919" d="M21.1,-3.0L27.1,.0L21.1,3.0L21.1,-3.0"/></g><g transform="translate(584.143000,116.520000)" id="shape22"><path stroke="#101843" stroke-width="1" fill-rule="nonzero" fill="#ffffff" d="M68.0,35.0L68.0,.0L.0,.0L.0,35.0L68.0,35.0z"/><text style="fill:#191919;font-family:方正书宋简体,PingFang SC,Mircrosoft YaHei,Arial;font-size:13.00pt" xml:space="preserve"><tspan style="font-family:方正书宋简体,PingFang SC,Mircrosoft YaHei,Arial" x="7.6" y="21.9">反锌铝</tspan></text></g><g transform="translate(652.143000,134.020000)" id="shape23"><path stroke="#191919" stroke-width="1" d="M.0,.0L21.1,.0" fill="none"/><path stroke="#191919" stroke-linecap="round" stroke-width="1" fill="#191919" d="M21.1,-3.0L27.1,.0L21.1,3.0L21.1,-3.0"/></g><g transform="translate(679.286000,116.520000)" id="shape24"><path stroke="#101843" stroke-width="1" fill-rule="nonzero" fill="#ffffff" d="M68.0,35.0L68.0,.0L.0,.0L.0,35.0L68.0,35.0z"/><text style="fill:#191919;font-family:方正书宋简体,PingFang SC,Mircrosoft YaHei,Arial;font-size:13.00pt" xml:space="preserve"><tspan style="font-family:方正书宋简体,PingFang SC,Mircrosoft YaHei,Arial" x="7.6" y="21.9">反铁段</tspan></text></g><g transform="translate(774.429000,116.520000)" id="shape25"><path stroke="#101843" stroke-width="1" fill-rule="nonzero" fill="#ffffff" d="M68.0,35.0L68.0,.0L.0,.0L.0,35.0L68.0,35.0z"/><text style="fill:#191919;font-family:方正书宋简体,PingFang SC,Mircrosoft YaHei,Arial;font-size:13.00pt" xml:space="preserve"><tspan style="font-family:方正书宋简体,PingFang SC,Mircrosoft YaHei,Arial" x="7.6" y="21.9">洗氯段</tspan></text></g><g transform="translate(747.286000,134.020000)" id="shape26"><path stroke="#191919" stroke-width="1" d="M.0,.0L21.1,.0" fill="none"/><path stroke="#191919" stroke-linecap="round" stroke-width="1" fill="#191919" d="M21.1,-3.0L27.1,.0L21.1,3.0L21.1,-3.0"/></g><g transform="translate(203.571000,188.686000)" id="shape27"><path stroke="#101843" stroke-width="1" fill-rule="nonzero" fill="#ffffff" d="M68.0,35.0L68.0,.0L.0,.0L.0,35.0L68.0,35.0z"/><text style="fill:#191919;font-family:方正书宋简体,PingFang SC,Mircrosoft YaHei,Arial;font-size:13.00pt" xml:space="preserve"><tspan style="font-family:方正书宋简体,PingFang SC,Mircrosoft YaHei,Arial" x="16.4" y="21.9">皂化</tspan></text></g><g transform="translate(271.571000,206.186000)" id="shape28"><path stroke="#191919" stroke-width="1" d="M.0,.0L21.1,.0" fill="none"/><path stroke="#191919" stroke-linecap="round" stroke-width="1" fill="#191919" d="M21.1,-3.0L27.1,.0L21.1,3.0L21.1,-3.0"/></g><g transform="translate(298.714000,188.686000)" id="shape29"><path stroke="#101843" stroke-width="1" fill-rule="nonzero" fill="#ffffff" d="M68.0,35.0L68.0,.0L.0,.0L.0,35.0L68.0,35.0z"/><text style="fill:#191919;font-family:方正书宋简体,PingFang SC,Mircrosoft YaHei,Arial;font-size:13.00pt" xml:space="preserve"><tspan style="font-family:方正书宋简体,PingFang SC,Mircrosoft YaHei,Arial" x="16.4" y="21.9">萃取</tspan></text></g><g transform="translate(366.714000,206.186000)" id="shape30"><path stroke="#191919" stroke-width="1" d="M.0,.0L21.1,.0" fill="none"/><path stroke="#191919" stroke-linecap="round" stroke-width="1" fill="#191919" d="M21.1,-3.0L27.1,.0L21.1,3.0L21.1,-3.0"/></g><g transform="translate(393.857000,188.686000)" id="shape31"><path stroke="#101843" stroke-width="1" fill-rule="nonzero" fill="#ffffff" d="M68.0,35.0L68.0,.0L.0,.0L.0,35.0L68.0,35.0z"/><text style="fill:#191919;font-family:方正书宋简体,PingFang SC,Mircrosoft YaHei,Arial;font-size:13.00pt" xml:space="preserve"><tspan style="font-family:方正书宋简体,PingFang SC,Mircrosoft YaHei,Arial" x="16.4" y="21.9">洗涤</tspan></text></g><g transform="translate(461.857000,206.186000)" id="shape32"><path stroke="#191919" stroke-width="1" d="M.0,.0L21.1,.0" fill="none"/><path stroke="#191919" stroke-linecap="round" stroke-width="1" fill="#191919" d="M21.1,-3.0L27.1,.0L21.1,3.0L21.1,-3.0"/></g><g transform="translate(489.000000,188.686000)" id="shape33"><path stroke="#101843" stroke-width="1" fill-rule="nonzero" fill="#ffffff" d="M68.0,35.0L68.0,.0L.0,.0L.0,35.0L68.0,35.0z"/><text style="fill:#191919;font-family:方正书宋简体,PingFang SC,Mircrosoft YaHei,Arial;font-size:13.00pt" xml:space="preserve"><tspan style="font-family:方正书宋简体,PingFang SC,Mircrosoft YaHei,Arial" x="7.6" y="21.9">反铜锰</tspan></text></g><g transform="translate(679.286000,188.686000)" id="shape34"><path stroke="#101843" stroke-width="1" fill-rule="nonzero" fill="#ffffff" d="M68.0,35.0L68.0,.0L.0,.0L.0,35.0L68.0,35.0z"/><text style="fill:#191919;font-family:方正书宋简体,PingFang SC,Mircrosoft YaHei,Arial;font-size:13.00pt" xml:space="preserve"><tspan style="font-family:方正书宋简体,PingFang SC,Mircrosoft YaHei,Arial" x="7.6" y="21.9">反铁段</tspan></text></g><g transform="translate(774.429000,188.686000)" id="shape35"><path stroke="#101843" stroke-width="1" fill-rule="nonzero" fill="#ffffff" d="M68.0,35.0L68.0,.0L.0,.0L.0,35.0L68.0,35.0z"/><text style="fill:#191919;font-family:方正书宋简体,PingFang SC,Mircrosoft YaHei,Arial;font-size:13.00pt" xml:space="preserve"><tspan style="font-family:方正书宋简体,PingFang SC,Mircrosoft YaHei,Arial" x="7.6" y="21.9">洗氯段</tspan></text></g><g transform="translate(747.286000,206.186000)" id="shape36"><path stroke="#191919" stroke-width="1" d="M.0,.0L21.1,.0" fill="none"/><path stroke="#191919" stroke-linecap="round" stroke-width="1" fill="#191919" d="M21.1,-3.0L27.1,.0L21.1,3.0L21.1,-3.0"/></g><g transform="translate(557.000000,206.186000)" id="shape37"><path stroke="#191919" stroke-width="1" d="M.0,.0L116.3,.0" fill="none"/><path stroke="#191919" stroke-linecap="round" stroke-width="1" fill="#191919" d="M116.3,-3.0L122.3,.0L116.3,3.0L116.3,-3.0"/></g><g transform="translate(203.571000,405.186000)" id="shape38"><path stroke="#101843" stroke-width="1" fill-rule="nonzero" fill="#ffffff" d="M68.0,35.0L68.0,.0L.0,.0L.0,35.0L68.0,35.0z"/><text style="fill:#191919;font-family:方正书宋简体,PingFang SC,Mircrosoft YaHei,Arial;font-size:13.00pt" xml:space="preserve"><tspan style="font-family:方正书宋简体,PingFang SC,Mircrosoft YaHei,Arial" x="16.4" y="21.9">皂化</tspan></text></g><g transform="translate(271.571000,422.686000)" id="shape39"><path stroke="#191919" stroke-width="1" d="M.0,.0L21.1,.0" fill="none"/><path stroke="#191919" stroke-linecap="round" stroke-width="1" fill="#191919" d="M21.1,-3.0L27.1,.0L21.1,3.0L21.1,-3.0"/></g><g transform="translate(298.714000,405.186000)" id="shape40"><path stroke="#101843" stroke-width="1" fill-rule="nonzero" fill="#ffffff" d="M68.0,35.0L68.0,.0L.0,.0L.0,35.0L68.0,35.0z"/><text style="fill:#191919;font-family:方正书宋简体,PingFang SC,Mircrosoft YaHei,Arial;font-size:13.00pt" xml:space="preserve"><tspan style="font-family:方正书宋简体,PingFang SC,Mircrosoft YaHei,Arial" x="7.6" y="21.9">萃取段</tspan></text></g><g transform="translate(404.714000,461.436000)" id="shape41"><path stroke="#101843" stroke-width="1" fill-rule="nonzero" fill="#ffffff" d="M132.0,28.0L132.0,7.0C132.0,3.1,128.9,.0,125.0,.0L7.0,.0C3.1,.0,.0,3.1,.0,7.0L.0,28.0C.0,31.9,3.1,35.0,7.0,35.0L125.0,35.0C128.9,35.0,132.0,31.9,132.0,28.0z"/><text style="fill:#191919;font-family:方正书宋简体,PingFang SC,Mircrosoft YaHei,Arial;font-size:13.00pt" xml:space="preserve"><tspan style="font-family:方正书宋简体,PingFang SC,Mircrosoft YaHei,Arial" x="22.0" y="21.9">含铵萃余液</tspan></text></g><g transform="translate(404.714000,552.186000)" id="shape42"><path stroke="#101843" stroke-width="1" fill-rule="nonzero" fill="#ffffff" d="M132.0,35.0L132.0,.0L.0,.0L.0,35.0L132.0,35.0z"/><text style="fill:#191919;font-family:方正书宋简体,PingFang SC,Mircrosoft YaHei,Arial;font-size:13.00pt" xml:space="preserve"><tspan style="font-family:方正书宋简体,PingFang SC,Mircrosoft YaHei,Arial" x="30.8" y="21.9">树脂除油</tspan></text></g><g transform="translate(404.714000,617.186000)" id="shape43"><path stroke="#101843" stroke-width="1" fill-rule="nonzero" fill="#ffffff" d="M132.0,35.0L132.0,.0L.0,.0L.0,35.0L132.0,35.0z"/><text style="fill:#191919;font-family:方正书宋简体,PingFang SC,Mircrosoft YaHei,Arial;font-size:13.00pt" xml:space="preserve"><tspan style="font-family:方正书宋简体,PingFang SC,Mircrosoft YaHei,Arial" x="12.0" y="21.9">MVR蒸发结晶</tspan></text></g><g transform="translate(325.000000,682.186000)" id="shape44"><path stroke="#ff7e79" stroke-width="1" fill-rule="nonzero" fill="#ffecec" d="M132.0,28.0L132.0,7.0C132.0,3.1,128.9,.0,125.0,.0L7.0,.0C3.1,.0,.0,3.1,.0,7.0L.0,28.0C.0,31.9,3.1,35.0,7.0,35.0L125.0,35.0C128.9,35.0,132.0,31.9,132.0,28.0z"/><text style="fill:#bc5b57;font-family:方正书宋简体,PingFang SC,Mircrosoft YaHei,Arial;font-size:13.00pt;font-weight:bold" xml:space="preserve"><tspan style="font-family:方正书宋简体,PingFang SC,Mircrosoft YaHei,Arial" x="38.4" y="21.9">硫酸铵</tspan></text></g><g transform="translate(488.000000,682.186000)" id="shape45"><path stroke="#101843" stroke-width="1" fill-rule="nonzero" fill="#ffffff" d="M132.0,28.0L132.0,7.0C132.0,3.1,128.9,.0,125.0,.0L7.0,.0C3.1,.0,.0,3.1,.0,7.0L.0,28.0C.0,31.9,3.1,35.0,7.0,35.0L125.0,35.0C128.9,35.0,132.0,31.9,132.0,28.0z"/><text style="fill:#191919;font-family:方正书宋简体,PingFang SC,Mircrosoft YaHei,Arial;font-size:13.00pt" xml:space="preserve"><tspan style="font-family:方正书宋简体,PingFang SC,Mircrosoft YaHei,Arial" x="22.0" y="21.9">蒸发冷凝水</tspan></text></g><g transform="translate(470.714000,496.436000)" id="shape46"><path stroke="#191919" stroke-width="1" d="M.0,.0L-0.0,49.8" fill="none"/><path stroke="#191919" stroke-linecap="round" stroke-width="1" fill="#191919" d="M3.0,49.8L-0.0,55.8L-3.0,49.8L3.0,49.8"/><rect width="91.2" height="13.6" x="-44.6" y="12.5" fill="#ffffff"/><text style="fill:#191919;font-family:方正书宋简体,PingFang SC,Mircrosoft YaHei,Arial;font-size:9.00pt" xml:space="preserve"><tspan style="font-family:方正书宋简体,PingFang SC,Mircrosoft YaHei,Arial" x="-44.6" y="22.9">调pH，隔油过滤</tspan></text></g><g transform="translate(470.714000,587.186000)" id="shape47"><path stroke="#191919" stroke-width="1" d="M.0,.0L-0.0,24.0" fill="none"/><path stroke="#191919" stroke-linecap="round" stroke-width="1" fill="#191919" d="M3.0,24.0L-0.0,30.0L-3.0,24.0L3.0,24.0"/></g><g transform="translate(470.714000,652.186000)" id="shape48"><path stroke="#191919" stroke-width="1" d="M.0,.0L.0,14.3L-79.7,14.3L-79.7,24.0" fill="none"/><path stroke="#191919" stroke-linecap="round" stroke-width="1" fill="#191919" d="M-76.7,24.0L-79.7,30.0L-82.7,24.0L-76.7,24.0"/></g><g transform="translate(470.714000,652.186000)" id="shape49"><path stroke="#191919" stroke-width="1" d="M.0,.0L.0,14.3L83.3,14.3L83.3,24.0" fill="none"/><path stroke="#191919" stroke-linecap="round" stroke-width="1" fill="#191919" d="M86.3,24.0L83.3,30.0L80.3,24.0L86.3,24.0"/></g><g transform="translate(631.000000,461.436000)" id="shape50"><path stroke="#101843" stroke-width="1" fill-rule="nonzero" fill="#ffffff" d="M132.0,28.0L132.0,7.0C132.0,3.1,128.9,.0,125.0,.0L7.0,.0C3.1,.0,.0,3.1,.0,7.0L.0,28.0C.0,31.9,3.1,35.0,7.0,35.0L125.0,35.0C128.9,35.0,132.0,31.9,132.0,28.0z"/><text style="fill:#191919;font-family:方正书宋简体,PingFang SC,Mircrosoft YaHei,Arial;font-size:13.00pt" xml:space="preserve"><tspan style="font-family:方正书宋简体,PingFang SC,Mircrosoft YaHei,Arial" x="30.8" y="21.9">硫酸镁液</tspan></text></g><g transform="translate(631.000000,552.186000)" id="shape51"><path stroke="#101843" stroke-width="1" fill-rule="nonzero" fill="#ffffff" d="M132.0,35.0L132.0,.0L.0,.0L.0,35.0L132.0,35.0z"/><text style="fill:#191919;font-family:方正书宋简体,PingFang SC,Mircrosoft YaHei,Arial;font-size:13.00pt" xml:space="preserve"><tspan style="font-family:方正书宋简体,PingFang SC,Mircrosoft YaHei,Arial" x="22.0" y="21.9">硫化铵沉镍</tspan></text></g><g transform="translate(631.000000,617.186000)" id="shape52"><path stroke="#101843" stroke-width="1" fill-rule="nonzero" fill="#ffffff" d="M132.0,35.0L132.0,.0L.0,.0L.0,35.0L132.0,35.0z"/><text style="fill:#191919;font-family:方正书宋简体,PingFang SC,Mircrosoft YaHei,Arial;font-size:13.00pt" xml:space="preserve"><tspan style="font-family:方正书宋简体,PingFang SC,Mircrosoft YaHei,Arial" x="48.4" y="21.9">压滤</tspan></text></g><g transform="translate(662.812000,652.186000)" id="shape53"><path stroke="#191919" stroke-width="1" d="M.0,.0L.0,7.0L-76.8,7.0L-76.8,-118.0L-192.1,-118.0L-192.1,-106.0" fill="none"/><path stroke="#191919" stroke-linecap="round" stroke-width="1" fill="#191919" d="M-189.1,-106.0L-192.1,-100.0L-195.1,-106.0L-189.1,-106.0"/></g><g transform="translate(665.781000,682.186000)" id="shape54"><path stroke="#101843" stroke-width="1" fill-rule="nonzero" fill="#ffffff" d="M135.0,28.0L135.0,7.0C135.0,3.1,131.9,.0,128.0,.0L7.0,.0C3.1,.0,.0,3.1,.0,7.0L.0,28.0C.0,31.9,3.1,35.0,7.0,35.0L128.0,35.0C131.9,35.0,135.0,31.9,135.0,28.0z"/><text style="fill:#191919;font-family:方正书宋简体,PingFang SC,Mircrosoft YaHei,Arial;font-size:13.00pt" xml:space="preserve"><tspan style="font-family:方正书宋简体,PingFang SC,Mircrosoft YaHei,Arial" x="5.9" y="21.9">铵线沉镍回收料</tspan></text></g><g transform="translate(733.300000,652.186000)" id="shape55"><path stroke="#191919" stroke-width="1" d="M.0,.0L.0,1.3L-0.0,14.3L-0.0,24.0" fill="none"/><path stroke="#191919" stroke-linecap="round" stroke-width="1" fill="#191919" d="M3.0,24.0L-0.0,30.0L-3.0,24.0L3.0,24.0"/></g><g transform="translate(697.000000,496.436000)" id="shape56"><path stroke="#191919" stroke-width="1" d="M.0,.0L-0.0,49.8" fill="none"/><path stroke="#191919" stroke-linecap="round" stroke-width="1" fill="#191919" d="M3.0,49.8L-0.0,55.8L-3.0,49.8L3.0,49.8"/><rect width="27.2" height="13.6" x="-12.6" y="18.0" fill="#ffffff"/><text style="fill:#191919;font-family:方正书宋简体,PingFang SC,Mircrosoft YaHei,Arial;font-size:9.00pt" xml:space="preserve"><tspan style="font-family:方正书宋简体,PingFang SC,Mircrosoft YaHei,Arial" x="-12.6" y="28.4">调pH</tspan></text></g><g transform="translate(697.000000,587.186000)" id="shape57"><path stroke="#191919" stroke-width="1" d="M.0,.0L.0,24.0" fill="none"/><path stroke="#191919" stroke-linecap="round" stroke-width="1" fill="#191919" d="M3.0,24.0L.0,30.0L-3.0,24.0L3.0,24.0"/></g><g transform="translate(552.000000,405.186000)" id="shape58"><path stroke="#101843" stroke-width="1" fill-rule="nonzero" fill="#ffffff" d="M68.0,35.0L68.0,.0L.0,.0L.0,35.0L68.0,35.0z"/><text style="fill:#191919;font-family:方正书宋简体,PingFang SC,Mircrosoft YaHei,Arial;font-size:13.00pt" xml:space="preserve"><tspan style="font-family:方正书宋简体,PingFang SC,Mircrosoft YaHei,Arial" x="7.6" y="21.9">洗涤段</tspan></text></g><g transform="translate(366.714000,422.686000)" id="shape59"><path stroke="#191919" stroke-width="1" d="M.0,.0L179.3,.0" fill="none"/><path stroke="#191919" stroke-linecap="round" stroke-width="1" fill="#191919" d="M179.3,-3.0L185.3,.0L179.3,3.0L179.3,-3.0"/></g><g transform="translate(366.714000,422.686000)" id="shape60"><path stroke="#191919" stroke-width="1" d="M.0,.0L104.0,.0L104.0,32.8" fill="none"/><path stroke="#191919" stroke-linecap="round" stroke-width="1" fill="#191919" d="M107.0,32.8L104.0,38.8L101.0,32.8L107.0,32.8"/></g><g transform="translate(620.000000,422.686000)" id="shape61"><path stroke="#191919" stroke-width="1" d="M.0,.0L77.0,.0L77.0,32.8" fill="none"/><path stroke="#191919" stroke-linecap="round" stroke-width="1" fill="#191919" d="M80.0,32.8L77.0,38.8L74.0,32.8L80.0,32.8"/></g><g transform="translate(866.999700,116.520000)" id="shape62"><path stroke="#101843" stroke-width="1" fill-rule="nonzero" fill="#ffffff" d="M82.4,28.0L82.4,7.0C82.4,3.1,79.3,.0,75.4,.0L7.0,.0C3.1,.0,.0,3.1,.0,7.0L.0,28.0C.0,31.9,3.1,35.0,7.0,35.0L75.4,35.0C79.3,35.0,82.4,31.9,82.4,28.0z"/><text style="fill:#191919;font-family:方正书宋简体,PingFang SC,Mircrosoft YaHei,Arial;font-size:13.00pt" xml:space="preserve"><tspan style="font-family:方正书宋简体,PingFang SC,Mircrosoft YaHei,Arial" x="6.0" y="21.9">反铜锰液</tspan></text></g><g transform="translate(866.999700,188.686000)" id="shape63"><path stroke="#101843" stroke-width="1" fill-rule="nonzero" fill="#ffffff" d="M82.4,35.0L82.4,.0L.0,.0L.0,35.0L82.4,35.0z"/><text style="fill:#191919;font-family:方正书宋简体,PingFang SC,Mircrosoft YaHei,Arial;font-size:13.00pt" xml:space="preserve"><tspan style="font-family:方正书宋简体,PingFang SC,Mircrosoft YaHei,Arial" x="14.8" y="21.9">预除钙</tspan></text></g><g transform="translate(908.214000,151.520000)" id="shape64"><path stroke="#191919" stroke-width="1" d="M.0,.0L.0,30.2" fill="none"/><path stroke="#191919" stroke-linecap="round" stroke-width="1" fill="#191919" d="M3.0,30.2L.0,36.2L-3.0,30.2L3.0,30.2"/></g><g transform="translate(949.429000,206.186000)" id="shape65"><path stroke="#191919" stroke-width="1" d="M.0,.0L26.6,.0" fill="none"/><path stroke="#191919" stroke-linecap="round" stroke-width="1" fill="#191919" d="M26.6,-3.0L32.6,.0L26.6,3.0L26.6,-3.0"/></g><g transform="translate(982.000000,178.186000)" id="shape66"><path stroke="#101843" stroke-width="1" fill-rule="nonzero" fill="#ffffff" d="M114.0,49.0L114.0,7.0C114.0,3.1,110.9,.0,107.0,.0L7.0,.0C3.1,.0,.0,3.1,.0,7.0L.0,49.0C.0,52.9,3.1,56.0,7.0,56.0L107.0,56.0C110.9,56.0,114.0,52.9,114.0,49.0z"/><text style="fill:#191919;font-family:方正书宋简体,PingFang SC,Mircrosoft YaHei,Arial;font-size:13.00pt" xml:space="preserve"><tspan style="font-family:方正书宋简体,PingFang SC,Mircrosoft YaHei,Arial" x="4.2" y="22.4">硫酸钙渣（报</tspan><tspan style="font-family:方正书宋简体,PingFang SC,Mircrosoft YaHei,Arial" x="39.4" y="42.4">废）</tspan></text></g><g transform="translate(908.214000,223.686000)" id="shape67"><path stroke="#191919" stroke-width="1" d="M.0,.0L.0,31.2" fill="none"/><path stroke="#191919" stroke-linecap="round" stroke-width="1" fill="#191919" d="M3.0,31.2L.0,37.2L-3.0,31.2L3.0,31.2"/></g><g transform="translate(866.999700,260.853000)" id="shape68"><path stroke="#101843" stroke-width="1" fill-rule="nonzero" fill="#ffffff" d="M82.4,35.0L82.4,.0L.0,.0L.0,35.0L82.4,35.0z"/><text style="fill:#191919;font-family:方正书宋简体,PingFang SC,Mircrosoft YaHei,Arial;font-size:13.00pt" xml:space="preserve"><tspan style="font-family:方正书宋简体,PingFang SC,Mircrosoft YaHei,Arial" x="23.6" y="21.9">沉铜</tspan></text></g><g transform="translate(982.000000,250.353000)" id="shape69"><path stroke="#101843" stroke-width="1" fill-rule="nonzero" fill="#ffffff" d="M114.0,49.0L114.0,7.0C114.0,3.1,110.9,.0,107.0,.0L7.0,.0C3.1,.0,.0,3.1,.0,7.0L.0,49.0C.0,52.9,3.1,56.0,7.0,56.0L107.0,56.0C110.9,56.0,114.0,52.9,114.0,49.0z"/><text style="fill:#191919;font-family:方正书宋简体,PingFang SC,Mircrosoft YaHei,Arial;font-size:13.00pt" xml:space="preserve"><tspan style="font-family:方正书宋简体,PingFang SC,Mircrosoft YaHei,Arial" x="13.0" y="22.4">粗制硫化铜</tspan><tspan style="font-family:方正书宋简体,PingFang SC,Mircrosoft YaHei,Arial" x="21.8" y="42.4">（外售）</tspan></text></g><g transform="translate(949.429000,278.353000)" id="shape70"><path stroke="#191919" stroke-width="1" d="M.0,.0L26.6,.0" fill="none"/><path stroke="#191919" stroke-linecap="round" stroke-width="1" fill="#191919" d="M26.6,-3.0L32.6,.0L26.6,3.0L26.6,-3.0"/></g><g transform="translate(866.999700,333.020000)" id="shape71"><path stroke="#101843" stroke-width="1" fill-rule="nonzero" fill="#ffffff" d="M82.4,35.0L82.4,.0L.0,.0L.0,35.0L82.4,35.0z"/><text style="fill:#191919;font-family:方正书宋简体,PingFang SC,Mircrosoft YaHei,Arial;font-size:13.00pt" xml:space="preserve"><tspan style="font-family:方正书宋简体,PingFang SC,Mircrosoft YaHei,Arial" x="14.8" y="21.9">除钙镁</tspan></text></g><g transform="translate(982.000000,322.520000)" id="shape72"><path stroke="#101843" stroke-width="1" fill-rule="nonzero" fill="#ffffff" d="M114.0,49.0L114.0,7.0C114.0,3.1,110.9,.0,107.0,.0L7.0,.0C3.1,.0,.0,3.1,.0,7.0L.0,49.0C.0,52.9,3.1,56.0,7.0,56.0L107.0,56.0C110.9,56.0,114.0,52.9,114.0,49.0z"/><text style="fill:#191919;font-family:方正书宋简体,PingFang SC,Mircrosoft YaHei,Arial;font-size:13.00pt" xml:space="preserve"><tspan style="font-family:方正书宋简体,PingFang SC,Mircrosoft YaHei,Arial" x="4.2" y="22.4">除钙镁渣（报</tspan><tspan style="font-family:方正书宋简体,PingFang SC,Mircrosoft YaHei,Arial" x="39.4" y="42.4">废）</tspan></text></g><g transform="translate(949.429000,350.520000)" id="shape73"><path stroke="#191919" stroke-width="1" d="M.0,.0L26.6,.0" fill="none"/><path stroke="#191919" stroke-linecap="round" stroke-width="1" fill="#191919" d="M26.6,-3.0L32.6,.0L26.6,3.0L26.6,-3.0"/></g><g transform="translate(908.214000,295.853000)" id="shape74"><path stroke="#191919" stroke-width="1" d="M.0,.0L.0,31.2" fill="none"/><path stroke="#191919" stroke-linecap="round" stroke-width="1" fill="#191919" d="M3.0,31.2L.0,37.2L-3.0,31.2L3.0,31.2"/></g><g transform="translate(866.999700,405.186000)" id="shape75"><path stroke="#101843" stroke-width="1" fill-rule="nonzero" fill="#ffffff" d="M82.4,35.0L82.4,.0L.0,.0L.0,35.0L82.4,35.0z"/><text style="fill:#191919;font-family:方正书宋简体,PingFang SC,Mircrosoft YaHei,Arial;font-size:13.00pt" xml:space="preserve"><tspan style="font-family:方正书宋简体,PingFang SC,Mircrosoft YaHei,Arial" x="23.6" y="21.9">萃锌</tspan></text></g><g transform="translate(866.999700,477.353000)" id="shape76"><path stroke="#101843" stroke-width="1" fill-rule="nonzero" fill="#ffffff" d="M82.4,35.0L82.4,.0L.0,.0L.0,35.0L82.4,35.0z"/><text style="fill:#191919;font-family:方正书宋简体,PingFang SC,Mircrosoft YaHei,Arial;font-size:13.00pt" xml:space="preserve"><tspan style="font-family:方正书宋简体,PingFang SC,Mircrosoft YaHei,Arial" x="23.6" y="21.9">萃锰</tspan></text></g><g transform="translate(866.999700,549.520000)" id="shape77"><path stroke="#101843" stroke-width="1" fill-rule="nonzero" fill="#ffffff" d="M82.4,35.0L82.4,.0L.0,.0L.0,35.0L82.4,35.0z"/><text style="fill:#191919;font-family:方正书宋简体,PingFang SC,Mircrosoft YaHei,Arial;font-size:13.00pt" xml:space="preserve"><tspan style="font-family:方正书宋简体,PingFang SC,Mircrosoft YaHei,Arial" x="23.6" y="21.9">除油</tspan></text></g><g transform="translate(908.214000,368.020000)" id="shape78"><path stroke="#191919" stroke-width="1" d="M.0,.0L.0,31.2" fill="none"/><path stroke="#191919" stroke-linecap="round" stroke-width="1" fill="#191919" d="M3.0,31.2L.0,37.2L-3.0,31.2L3.0,31.2"/></g><g transform="translate(908.214000,440.186000)" id="shape79"><path stroke="#191919" stroke-width="1" d="M.0,.0L.0,31.2" fill="none"/><path stroke="#191919" stroke-linecap="round" stroke-width="1" fill="#191919" d="M3.0,31.2L.0,37.2L-3.0,31.2L3.0,31.2"/></g><g transform="translate(908.214000,512.353000)" id="shape80"><path stroke="#191919" stroke-width="1" d="M.0,.0L.0,31.2" fill="none"/><path stroke="#191919" stroke-linecap="round" stroke-width="1" fill="#191919" d="M3.0,31.2L.0,37.2L-3.0,31.2L3.0,31.2"/></g><g transform="translate(997.785700,405.186000)" id="shape81"><path stroke="#101843" stroke-width="1" fill-rule="nonzero" fill="#ffffff" d="M82.4,35.0L82.4,.0L.0,.0L.0,35.0L82.4,35.0z"/><text style="fill:#191919;font-family:方正书宋简体,PingFang SC,Mircrosoft YaHei,Arial;font-size:13.00pt" xml:space="preserve"><tspan style="font-family:方正书宋简体,PingFang SC,Mircrosoft YaHei,Arial" x="23.6" y="21.9">沉锌</tspan></text></g><g transform="translate(949.429000,422.686000)" id="shape82"><path stroke="#191919" stroke-width="1" d="M.0,.0L42.4,.0" fill="none"/><path stroke="#191919" stroke-linecap="round" stroke-width="1" fill="#191919" d="M42.4,-3.0L48.4,.0L42.4,3.0L42.4,-3.0"/></g><g transform="translate(982.000000,466.853000)" id="shape83"><path stroke="#ff7e79" stroke-width="1" fill-rule="nonzero" fill="#ffecec" d="M114.0,49.0L114.0,7.0C114.0,3.1,110.9,.0,107.0,.0L7.0,.0C3.1,.0,.0,3.1,.0,7.0L.0,49.0C.0,52.9,3.1,56.0,7.0,56.0L107.0,56.0C110.9,56.0,114.0,52.9,114.0,49.0z"/><text style="fill:#bc5b57;font-family:方正书宋简体,PingFang SC,Mircrosoft YaHei,Arial;font-size:13.00pt;font-weight:bold" xml:space="preserve"><tspan style="font-family:方正书宋简体,PingFang SC,Mircrosoft YaHei,Arial" x="11.0" y="22.4">碱式碳酸盐</tspan><tspan style="font-family:方正书宋简体,PingFang SC,Mircrosoft YaHei,Arial" x="20.2" y="42.4">（外售）</tspan></text></g><g transform="translate(1039.000000,440.186000)" id="shape84"><path stroke="#191919" stroke-width="1" d="M.0,.0L.0,20.7" fill="none"/><path stroke="#191919" stroke-linecap="round" stroke-width="1" fill="#191919" d="M3.0,20.7L.0,26.7L-3.0,20.7L3.0,20.7"/></g><g transform="translate(982.000000,539.020000)" id="shape85"><path stroke="#ff7e79" stroke-width="1" fill-rule="nonzero" fill="#ffecec" d="M114.0,49.0L114.0,7.0C114.0,3.1,110.9,.0,107.0,.0L7.0,.0C3.1,.0,.0,3.1,.0,7.0L.0,49.0C.0,52.9,3.1,56.0,7.0,56.0L107.0,56.0C110.9,56.0,114.0,52.9,114.0,49.0z"/><text style="fill:#bc5b57;font-family:方正书宋简体,PingFang SC,Mircrosoft YaHei,Arial;font-size:13.00pt;font-weight:bold" xml:space="preserve"><tspan style="font-family:方正书宋简体,PingFang SC,Mircrosoft YaHei,Arial" x="29.4" y="22.4">硫酸锰</tspan><tspan style="font-family:方正书宋简体,PingFang SC,Mircrosoft YaHei,Arial" x="29.4" y="42.4">转移液</tspan></text></g><g transform="translate(949.429000,567.020000)" id="shape86"><path stroke="#191919" stroke-width="1" d="M.0,.0L26.6,.0" fill="none"/><path stroke="#191919" stroke-linecap="round" stroke-width="1" fill="#191919" d="M26.6,-3.0L32.6,.0L26.6,3.0L26.6,-3.0"/></g><g transform="translate(1134.000000,116.520000)" id="shape87"><path stroke="#101843" stroke-width="1" fill-rule="nonzero" fill="#ffffff" d="M132.0,35.0L132.0,.0L.0,.0L.0,35.0L132.0,35.0z"/><text style="fill:#191919;font-family:方正书宋简体,PingFang SC,Mircrosoft YaHei,Arial;font-size:13.00pt" xml:space="preserve"><tspan style="font-family:方正书宋简体,PingFang SC,Mircrosoft YaHei,Arial" x="30.4" y="21.9">P204萃杂</tspan></text></g><g transform="translate(1134.000000,39.519700)" id="shape88"><path stroke="#101843" stroke-width="1" fill-rule="nonzero" fill="#ffffff" d="M132.0,28.0L132.0,7.0C132.0,3.1,128.9,.0,125.0,.0L7.0,.0C3.1,.0,.0,3.1,.0,7.0L.0,28.0C.0,31.9,3.1,35.0,7.0,35.0L125.0,35.0C128.9,35.0,132.0,31.9,132.0,28.0z"/><text style="fill:#191919;font-family:方正书宋简体,PingFang SC,Mircrosoft YaHei,Arial;font-size:13.00pt" xml:space="preserve"><tspan style="font-family:方正书宋简体,PingFang SC,Mircrosoft YaHei,Arial" x="12.8" y="21.9">钠线P204原液</tspan></text></g><g transform="translate(1134.000000,224.770000)" id="shape89"><path stroke="#101843" stroke-width="1" fill-rule="nonzero" fill="#ffffff" d="M132.0,35.0L132.0,.0L.0,.0L.0,35.0L132.0,35.0z"/><text style="fill:#191919;font-family:方正书宋简体,PingFang SC,Mircrosoft YaHei,Arial;font-size:13.00pt" xml:space="preserve"><tspan style="font-family:方正书宋简体,PingFang SC,Mircrosoft YaHei,Arial" x="30.4" y="21.9">P507萃钴</tspan></text></g><g transform="translate(1134.000000,333.020000)" id="shape90"><path stroke="#101843" stroke-width="1" fill-rule="nonzero" fill="#ffffff" d="M132.0,35.0L132.0,.0L.0,.0L.0,35.0L132.0,35.0z"/><text style="fill:#191919;font-family:方正书宋简体,PingFang SC,Mircrosoft YaHei,Arial;font-size:13.00pt" xml:space="preserve"><tspan style="font-family:方正书宋简体,PingFang SC,Mircrosoft YaHei,Arial" x="26.0" y="21.9">Cy272萃镁</tspan></text></g><g transform="translate(1134.000000,441.270000)" id="shape91"><path stroke="#101843" stroke-width="1" fill-rule="nonzero" fill="#ffffff" d="M132.0,35.0L132.0,.0L.0,.0L.0,35.0L132.0,35.0z"/><text style="fill:#191919;font-family:方正书宋简体,PingFang SC,Mircrosoft YaHei,Arial;font-size:13.00pt" xml:space="preserve"><tspan style="font-family:方正书宋简体,PingFang SC,Mircrosoft YaHei,Arial" x="48.4" y="21.9">除油</tspan></text></g><g transform="translate(1136.000000,549.520000)" id="shape92"><path stroke="#101843" stroke-width="1" fill-rule="nonzero" fill="#ffffff" d="M132.0,28.0L132.0,7.0C132.0,3.1,128.9,.0,125.0,.0L7.0,.0C3.1,.0,.0,3.1,.0,7.0L.0,28.0C.0,31.9,3.1,35.0,7.0,35.0L125.0,35.0C128.9,35.0,132.0,31.9,132.0,28.0z"/><text style="fill:#191919;font-family:方正书宋简体,PingFang SC,Mircrosoft YaHei,Arial;font-size:13.00pt" xml:space="preserve"><tspan style="font-family:方正书宋简体,PingFang SC,Mircrosoft YaHei,Arial" x="30.8" y="21.9">硫酸镍液</tspan></text></g><g transform="translate(1200.000000,74.519700)" id="shape93"><path stroke="#191919" stroke-width="1" d="M.0,.0L.0,36.0" fill="none"/><path stroke="#191919" stroke-linecap="round" stroke-width="1" fill="#191919" d="M3.0,36.0L.0,42.0L-3.0,36.0L3.0,36.0"/></g><g transform="translate(1134.000000,134.020000)" id="shape94"><path stroke="#191919" stroke-width="1" d="M.0,.0L-178.6,.0" fill="none"/><path stroke="#191919" stroke-linecap="round" stroke-width="1" fill="#191919" d="M-178.6,3.0L-184.6,.0L-178.6,-3.0L-178.6,3.0"/></g><g transform="translate(1200.000000,151.520000)" id="shape95"><path stroke="#191919" stroke-width="1" d="M.0,.0L.0,67.3" fill="none"/><path stroke="#191919" stroke-linecap="round" stroke-width="1" fill="#191919" d="M3.0,67.3L.0,73.3L-3.0,67.3L3.0,67.3"/></g><g transform="translate(1200.000000,259.770000)" id="shape96"><path stroke="#191919" stroke-width="1" d="M.0,.0L.0,67.3" fill="none"/><path stroke="#191919" stroke-linecap="round" stroke-width="1" fill="#191919" d="M3.0,67.3L.0,73.3L-3.0,67.3L3.0,67.3"/></g><g transform="translate(1200.000000,368.020000)" id="shape97"><path stroke="#191919" stroke-width="1" d="M.0,.0L.0,67.3" fill="none"/><path stroke="#191919" stroke-linecap="round" stroke-width="1" fill="#191919" d="M3.0,67.3L.0,73.3L-3.0,67.3L3.0,67.3"/></g><g transform="translate(1200.000000,476.270000)" id="shape98"><path stroke="#191919" stroke-width="1" d="M.0,.0L.0,59.7L2.0,59.7L2.0,67.3" fill="none"/><path stroke="#191919" stroke-linecap="round" stroke-width="1" fill="#191919" d="M5.0,67.3L2.0,73.3L-1.0,67.3L5.0,67.3"/></g><g transform="translate(523.000000,116.520000)" id="shape99"><path stroke="#191919" stroke-width="1" d="M.0,.0L.0,-28.5L385.2,-28.5L385.2,-6.0" fill="none"/><path stroke="#191919" stroke-linecap="round" stroke-width="1" fill="#191919" d="M388.2,-6.0L385.2,.0L382.2,-6.0L388.2,-6.0"/></g><g transform="translate(1360.500000,116.520000)" id="shape100"><path stroke="#101843" stroke-width="1" fill-rule="nonzero" fill="#ffffff" d="M151.0,129.0L151.0,7.0C151.0,3.1,147.9,.0,144.0,.0L7.0,.0C3.1,.0,.0,3.1,.0,7.0L.0,129.0C.0,132.9,3.1,136.0,7.0,136.0L144.0,136.0C147.9,136.0,151.0,132.9,151.0,129.0z"/><text style="fill:#191919;font-family:方正书宋简体,PingFang SC,Mircrosoft YaHei,Arial;font-size:13.00pt" xml:space="preserve"><tspan style="font-family:方正书宋简体,PingFang SC,Mircrosoft YaHei,Arial" x="40.3" y="22.4">硫酸钠液</tspan><tspan style="font-family:方正书宋简体,PingFang SC,Mircrosoft YaHei,Arial" x="31.5" y="52.4">氯化钠废水</tspan><tspan style="font-family:方正书宋简体,PingFang SC,Mircrosoft YaHei,Arial" x="49.1" y="82.4">洗氯水</tspan><tspan style="font-family:方正书宋简体,PingFang SC,Mircrosoft YaHei,Arial" x="31.5" y="112.4">反锌铝后液</tspan></text></g><g transform="translate(1266.000000,134.020000)" id="shape101"><path stroke="#191919" stroke-width="1" d="M.0,.0L88.5,.0" fill="none"/><path stroke="#191919" stroke-linecap="round" stroke-width="1" fill="#191919" d="M88.5,-3.0L94.5,.0L88.5,3.0L88.5,-3.0"/></g></g></svg>