<svg xmlns:ev="http://www.w3.org/2001/xml-events" width="1226" height="822" xmlns="http://www.w3.org/2000/svg" xmlns:xlink="http://www.w3.org/1999/xlink" viewBox="0 0 1226 822"><defs/><g transform="translate(5.5,5.5)" id="page9"><rect width="1216" height="812" x="0" y="0" fill="none"/><g transform="translate(38.000000,121.375000)" id="shape1"><path fill-rule="nonzero" fill="#ffffff" d="M65.0,29.5L65.0,7.0C65.0,3.1,61.9,.0,58.0,.0L7.0,.0C3.1,.0,.0,3.1,.0,7.0L.0,29.5C.0,33.4,3.1,36.5,7.0,36.5L58.0,36.5C61.9,36.5,65.0,33.4,65.0,29.5z"/><text style="fill:#191919;font-family:方正书宋简体,PingFang SC,Mircrosoft YaHei,Arial;font-size:13.00pt" xml:space="preserve"><tspan style="font-family:方正书宋简体,PingFang SC,Mircrosoft YaHei,Arial" x="6.1" y="22.6">洗氯水</tspan></text></g><g transform="translate(122.000000,111.375000)" id="shape2"><path stroke="#000000" stroke-width="1" fill-rule="nonzero" fill="#ffffff" d="M102.0,56.5L102.0,.0L.0,.0L.0,56.5L102.0,56.5z"/><text style="fill:#191919;font-family:方正书宋简体,PingFang SC,Mircrosoft YaHei,Arial;font-size:13.00pt" xml:space="preserve"><tspan style="font-family:方正书宋简体,PingFang SC,Mircrosoft YaHei,Arial" x="7.0" y="32.6">洗氯水沉钴</tspan></text></g><g transform="translate(257.000000,111.375000)" id="shape3"><path stroke="#000000" stroke-width="1" fill-rule="nonzero" fill="#ffffff" d="M88.0,56.5L88.0,.0L.0,.0L.0,56.5L88.0,56.5z"/><text style="fill:#191919;font-family:方正书宋简体,PingFang SC,Mircrosoft YaHei,Arial;font-size:13.00pt" xml:space="preserve"><tspan style="font-family:方正书宋简体,PingFang SC,Mircrosoft YaHei,Arial" x="8.8" y="32.6">沉钴压滤</tspan></text></g><g transform="translate(364.000000,111.375000)" id="shape4"><path stroke="#000000" stroke-width="1" fill-rule="nonzero" fill="#ffffff" d="M102.0,56.5L102.0,.0L.0,.0L.0,56.5L102.0,56.5z"/><text style="fill:#191919;font-family:方正书宋简体,PingFang SC,Mircrosoft YaHei,Arial;font-size:13.00pt" xml:space="preserve"><tspan style="font-family:方正书宋简体,PingFang SC,Mircrosoft YaHei,Arial" x="15.8" y="22.6">沉钴后液</tspan><tspan style="font-family:方正书宋简体,PingFang SC,Mircrosoft YaHei,Arial" x="33.4" y="42.6">调酸</tspan></text></g><g transform="translate(485.000000,111.375000)" id="shape5"><path stroke="#000000" stroke-width="1" fill-rule="nonzero" fill="#ffffff" d="M102.0,56.5L102.0,.0L.0,.0L.0,56.5L102.0,56.5z"/><text style="fill:#191919;font-family:方正书宋简体,PingFang SC,Mircrosoft YaHei,Arial;font-size:13.00pt" xml:space="preserve"><tspan style="font-family:方正书宋简体,PingFang SC,Mircrosoft YaHei,Arial" x="7.0" y="22.9">萃取废水线</tspan><tspan style="font-family:方正书宋简体,PingFang SC,Mircrosoft YaHei,Arial" x="33.4" y="42.9">除磷</tspan></text></g><g transform="translate(606.000000,111.375000)" id="shape6"><path stroke="#000000" stroke-width="1" fill-rule="nonzero" fill="#ffffff" d="M102.0,56.5L102.0,.0L.0,.0L.0,56.5L102.0,56.5z"/><text style="fill:#191919;font-family:方正书宋简体,PingFang SC,Mircrosoft YaHei,Arial;font-size:13.00pt" xml:space="preserve"><tspan style="font-family:方正书宋简体,PingFang SC,Mircrosoft YaHei,Arial" x="7.0" y="22.9">萃取废水线</tspan><tspan style="font-family:方正书宋简体,PingFang SC,Mircrosoft YaHei,Arial" x="15.8" y="42.9">除磷压滤</tspan></text></g><g transform="translate(727.000000,111.375000)" id="shape7"><path stroke="#000000" stroke-width="1" fill-rule="nonzero" fill="#ffffff" d="M102.0,56.5L102.0,.0L.0,.0L.0,56.5L102.0,56.5z"/><text style="fill:#191919;font-family:方正书宋简体,PingFang SC,Mircrosoft YaHei,Arial;font-size:13.00pt" xml:space="preserve"><tspan style="font-family:方正书宋简体,PingFang SC,Mircrosoft YaHei,Arial" x="7.0" y="22.9">萃取废水线</tspan><tspan style="font-family:方正书宋简体,PingFang SC,Mircrosoft YaHei,Arial" x="33.4" y="42.9">沉重</tspan></text></g><g transform="translate(848.000000,111.375000)" id="shape8"><path stroke="#000000" stroke-width="1" fill-rule="nonzero" fill="#ffffff" d="M102.0,56.5L102.0,.0L.0,.0L.0,56.5L102.0,56.5z"/><text style="fill:#191919;font-family:方正书宋简体,PingFang SC,Mircrosoft YaHei,Arial;font-size:13.00pt" xml:space="preserve"><tspan style="font-family:方正书宋简体,PingFang SC,Mircrosoft YaHei,Arial" x="7.0" y="22.9">萃取废水线</tspan><tspan style="font-family:方正书宋简体,PingFang SC,Mircrosoft YaHei,Arial" x="33.4" y="42.9">压滤</tspan></text></g><g transform="translate(1090.000000,111.375000)" id="shape9"><path fill-rule="nonzero" fill="#ffffff" d="M88.0,49.5L88.0,7.0C88.0,3.1,84.9,.0,81.0,.0L7.0,.0C3.1,.0,.0,3.1,.0,7.0L.0,49.5C.0,53.4,3.1,56.5,7.0,56.5L81.0,56.5C84.9,56.5,88.0,53.4,88.0,49.5z"/><text style="fill:#191919;font-family:方正书宋简体,PingFang SC,Mircrosoft YaHei,Arial;font-size:13.00pt" xml:space="preserve"><tspan style="font-family:方正书宋简体,PingFang SC,Mircrosoft YaHei,Arial" x="8.8" y="22.6">钠线沉氯</tspan><tspan style="font-family:方正书宋简体,PingFang SC,Mircrosoft YaHei,Arial" x="17.6" y="42.6">回收料</tspan></text></g><g transform="translate(140.500000,57.875000)" id="shape10"><path fill-rule="nonzero" fill="#ffffff" d="M65.0,29.3L65.0,7.0C65.0,3.1,61.9,.0,58.0,.0L7.0,.0C3.1,.0,.0,3.1,.0,7.0L.0,29.3C.0,33.1,3.1,36.3,7.0,36.3L58.0,36.3C61.9,36.3,65.0,33.1,65.0,29.3z"/><text style="fill:#191919;font-family:方正书宋简体,PingFang SC,Mircrosoft YaHei,Arial;font-size:13.00pt" xml:space="preserve"><tspan style="font-family:方正书宋简体,PingFang SC,Mircrosoft YaHei,Arial" x="14.9" y="22.5">液碱</tspan></text></g><g transform="translate(173.000000,94.125000)" id="shape11"><path stroke="#191919" stroke-width="1" d="M.0,.0L-0.0,10.4" fill="none"/><path stroke="#191919" stroke-linecap="round" stroke-width="1" fill="#191919" d="M3.0,10.4L-0.0,16.4L-3.0,10.4L3.0,10.4"/></g><g transform="translate(485.000000,37.875000)" id="shape12"><path fill-rule="nonzero" fill="#ffffff" d="M102.0,49.3L102.0,7.0C102.0,3.1,98.9,.0,95.0,.0L7.0,.0C3.1,.0,.0,3.1,.0,7.0L.0,49.3C.0,53.1,3.1,56.3,7.0,56.3L95.0,56.3C98.9,56.3,102.0,53.1,102.0,49.3z"/><text style="fill:#191919;font-family:方正书宋简体,PingFang SC,Mircrosoft YaHei,Arial;font-size:13.00pt" xml:space="preserve"><tspan style="font-family:方正书宋简体,PingFang SC,Mircrosoft YaHei,Arial" x="7.0" y="22.9">液体氯化钙</tspan><tspan style="font-family:方正书宋简体,PingFang SC,Mircrosoft YaHei,Arial" x="7.0" y="42.9">液体除锗剂</tspan></text></g><g transform="translate(338.875000,39.000000)" id="shape13"><path fill-rule="nonzero" fill="#ffffff" d="M152.3,48.1L152.3,7.0C152.3,3.1,149.1,.0,145.3,.0L7.0,.0C3.1,.0,.0,3.1,.0,7.0L.0,48.1C.0,52.0,3.1,55.1,7.0,55.1L145.3,55.1C149.1,55.1,152.3,52.0,152.3,48.1z"/><text style="fill:#191919;font-family:方正书宋简体,PingFang SC,Mircrosoft YaHei,Arial;font-size:12.00pt" xml:space="preserve"><tspan style="font-family:方正书宋简体,PingFang SC,Mircrosoft YaHei,Arial;font-size:13.00pt" x="49.7" y="22.5">浓硫酸</tspan><tspan style="font-family:方正书宋简体,PingFang SC,Mircrosoft YaHei,Arial" x="12.1" y="40.9">固废中心尾气废水</tspan></text></g><g transform="translate(415.000000,94.125000)" id="shape14"><path stroke="#191919" stroke-width="1" d="M.0,.0L.0,11.3" fill="none"/><path stroke="#191919" stroke-linecap="round" stroke-width="1" fill="#191919" d="M3.0,11.3L.0,17.3L-3.0,11.3L3.0,11.3"/></g><g transform="translate(345.000000,139.625000)" id="shape15"><path stroke="#191919" stroke-width="1" d="M.0,.0L13.0,.0" fill="none"/><path stroke="#191919" stroke-linecap="round" stroke-width="1" fill="#191919" d="M13.0,-3.0L19.0,.0L13.0,3.0L13.0,-3.0"/></g><g transform="translate(466.000000,139.625000)" id="shape16"><path stroke="#191919" stroke-width="1" d="M.0,.0L13.0,.0" fill="none"/><path stroke="#191919" stroke-linecap="round" stroke-width="1" fill="#191919" d="M13.0,-3.0L19.0,.0L13.0,3.0L13.0,-3.0"/></g><g transform="translate(587.000000,139.625000)" id="shape17"><path stroke="#191919" stroke-width="1" d="M.0,.0L13.0,.0" fill="none"/><path stroke="#191919" stroke-linecap="round" stroke-width="1" fill="#191919" d="M13.0,-3.0L19.0,.0L13.0,3.0L13.0,-3.0"/></g><g transform="translate(708.000000,139.625000)" id="shape18"><path stroke="#191919" stroke-width="1" d="M.0,.0L13.0,.0" fill="none"/><path stroke="#191919" stroke-linecap="round" stroke-width="1" fill="#191919" d="M13.0,-3.0L19.0,.0L13.0,3.0L13.0,-3.0"/></g><g transform="translate(829.000000,139.625000)" id="shape19"><path stroke="#191919" stroke-width="1" d="M.0,.0L13.0,.0" fill="none"/><path stroke="#191919" stroke-linecap="round" stroke-width="1" fill="#191919" d="M13.0,-3.0L19.0,.0L13.0,3.0L13.0,-3.0"/></g><g transform="translate(536.000000,94.125000)" id="shape20"><path stroke="#191919" stroke-width="1" d="M.0,.0L.0,10.4" fill="none"/><path stroke="#191919" stroke-linecap="round" stroke-width="1" fill="#191919" d="M3.0,10.4L.0,16.4L-3.0,10.4L3.0,10.4"/></g><g transform="translate(486.750000,185.125500)" id="shape21"><path fill-rule="nonzero" fill="#ffffff" d="M98.5,36.1L98.5,7.0C98.5,3.1,95.4,.0,91.5,.0L7.0,.0C3.1,.0,.0,3.1,.0,7.0L.0,36.1C.0,40.0,3.1,43.1,7.0,43.1L91.5,43.1C95.4,43.1,98.5,40.0,98.5,36.1z"/><text style="fill:#191919;font-family:方正书宋简体,PingFang SC,Mircrosoft YaHei,Arial;font-size:13.00pt" xml:space="preserve"><tspan style="font-family:方正书宋简体,PingFang SC,Mircrosoft YaHei,Arial" x="5.3" y="16.0">氯化钠废水</tspan><tspan style="font-family:方正书宋简体,PingFang SC,Mircrosoft YaHei,Arial" x="14.1" y="36.0">萃锰余液</tspan></text></g><g transform="translate(536.000000,185.125000)" id="shape22"><path stroke="#191919" stroke-width="1" d="M.0,.0L.0,-12.0" fill="none"/><path stroke="#191919" stroke-linecap="round" stroke-width="1" fill="#191919" d="M-3.0,-12.0L.0,-18.0L3.0,-12.0L-3.0,-12.0"/></g><g transform="translate(606.000000,185.125000)" id="shape23"><path fill-rule="nonzero" fill="#ffffff" d="M102.0,22.8L102.0,7.0C102.0,3.1,98.9,.0,95.0,.0L7.0,.0C3.1,.0,.0,3.1,.0,7.0L.0,22.8C.0,26.6,3.1,29.8,7.0,29.8L95.0,29.8C98.9,29.8,102.0,26.6,102.0,22.8z"/><text style="fill:#191919;font-family:方正书宋简体,PingFang SC,Mircrosoft YaHei,Arial;font-size:13.00pt" xml:space="preserve"><tspan style="font-family:方正书宋简体,PingFang SC,Mircrosoft YaHei,Arial" x="7.0" y="19.3">除磷报废渣</tspan></text></g><g transform="translate(657.000000,167.875000)" id="shape24"><path stroke="#191919" stroke-width="1" d="M.0,.0L.0,11.3" fill="none"/><path stroke="#191919" stroke-linecap="round" stroke-width="1" fill="#191919" d="M3.0,11.3L.0,17.3L-3.0,11.3L3.0,11.3"/></g><g transform="translate(745.500000,57.875000)" id="shape25"><path fill-rule="nonzero" fill="#ffffff" d="M65.0,29.3L65.0,7.0C65.0,3.1,61.9,.0,58.0,.0L7.0,.0C3.1,.0,.0,3.1,.0,7.0L.0,29.3C.0,33.1,3.1,36.3,7.0,36.3L58.0,36.3C61.9,36.3,65.0,33.1,65.0,29.3z"/><text style="fill:#191919;font-family:方正书宋简体,PingFang SC,Mircrosoft YaHei,Arial;font-size:13.00pt" xml:space="preserve"><tspan style="font-family:方正书宋简体,PingFang SC,Mircrosoft YaHei,Arial" x="14.9" y="22.5">液碱</tspan></text></g><g transform="translate(778.000000,94.125000)" id="shape26"><path stroke="#191919" stroke-width="1" d="M.0,.0L.0,10.4" fill="none"/><path stroke="#191919" stroke-linecap="round" stroke-width="1" fill="#191919" d="M3.0,10.4L.0,16.4L-3.0,10.4L3.0,10.4"/></g><g transform="translate(103.000000,139.625000)" id="shape27"><path stroke="#191919" stroke-width="1" d="M.0,.0L12.0,.0" fill="none"/><path stroke="#191919" stroke-linecap="round" stroke-width="1" fill="#191919" d="M12.0,-3.0L18.0,.0L12.0,3.0L12.0,-3.0"/></g><g transform="translate(224.000000,139.625000)" id="shape28"><path stroke="#191919" stroke-width="1" d="M.0,.0L27.0,.0" fill="none"/><path stroke="#191919" stroke-linecap="round" stroke-width="1" fill="#191919" d="M27.0,-3.0L33.0,.0L27.0,3.0L27.0,-3.0"/></g><g transform="translate(38.000000,251.125000)" id="shape29"><path fill-rule="nonzero" fill="#ffffff" d="M80.0,29.5L80.0,7.0C80.0,3.1,76.9,.0,73.0,.0L7.0,.0C3.1,.0,.0,3.1,.0,7.0L.0,29.5C.0,33.4,3.1,36.5,7.0,36.5L73.0,36.5C76.9,36.5,80.0,33.4,80.0,29.5z"/><text style="fill:#191919;font-family:方正书宋简体,PingFang SC,Mircrosoft YaHei,Arial;font-size:13.00pt" xml:space="preserve"><tspan style="font-family:方正书宋简体,PingFang SC,Mircrosoft YaHei,Arial" x="4.8" y="22.9">反铜锰液</tspan></text></g><g transform="translate(178.900000,251.125000)" id="shape30"><path stroke="#000000" stroke-width="0.3333329856395721" fill-rule="nonzero" fill="#ffffff" d="M121.0,36.5L121.0,.0L.0,.0L.0,36.5L121.0,36.5z"/><text style="fill:#191919;font-family:方正书宋简体,PingFang SC,Mircrosoft YaHei,Arial;font-size:13.00pt" xml:space="preserve"><tspan style="font-family:方正书宋简体,PingFang SC,Mircrosoft YaHei,Arial" x="16.5" y="22.6">沉锌锰反应</tspan></text></g><g transform="translate(360.800000,251.125000)" id="shape31"><path stroke="#000000" stroke-width="0.3333329856395721" fill-rule="nonzero" fill="#ffffff" d="M121.0,36.5L121.0,.0L.0,.0L.0,36.5L121.0,36.5z"/><text style="fill:#191919;font-family:方正书宋简体,PingFang SC,Mircrosoft YaHei,Arial;font-size:13.00pt" xml:space="preserve"><tspan style="font-family:方正书宋简体,PingFang SC,Mircrosoft YaHei,Arial" x="16.5" y="22.6">沉锌锰压滤</tspan></text></g><g transform="translate(542.700000,251.125000)" id="shape32"><path stroke="#000000" stroke-width="0.3333329856395721" fill-rule="nonzero" fill="#ffffff" d="M173.5,36.5L173.5,.0L.0,.0L.0,36.5L173.5,36.5z"/><text style="fill:#191919;font-family:方正书宋简体,PingFang SC,Mircrosoft YaHei,Arial;font-size:13.00pt" xml:space="preserve"><tspan style="font-family:方正书宋简体,PingFang SC,Mircrosoft YaHei,Arial" x="16.4" y="22.9">萃取废水线除氨氮</tspan></text></g><g transform="translate(969.000000,111.375000)" id="shape33"><path stroke="#000000" stroke-width="1" fill-rule="nonzero" fill="#ffffff" d="M102.0,56.5L102.0,.0L.0,.0L.0,56.5L102.0,56.5z"/><text style="fill:#191919;font-family:方正书宋简体,PingFang SC,Mircrosoft YaHei,Arial;font-size:13.00pt" xml:space="preserve"><tspan style="font-family:方正书宋简体,PingFang SC,Mircrosoft YaHei,Arial" x="7.0" y="22.9">萃取废水线</tspan><tspan style="font-family:方正书宋简体,PingFang SC,Mircrosoft YaHei,Arial" x="15.8" y="42.9">沉重压滤</tspan></text></g><g transform="translate(950.000000,139.625000)" id="shape34"><path stroke="#191919" stroke-width="1" d="M.0,.0L13.0,.0" fill="none"/><path stroke="#191919" stroke-linecap="round" stroke-width="1" fill="#191919" d="M13.0,-3.0L19.0,.0L13.0,3.0L13.0,-3.0"/></g><g transform="translate(1071.000000,139.625000)" id="shape35"><path stroke="#191919" stroke-width="1" d="M.0,.0L13.0,.0" fill="none"/><path stroke="#191919" stroke-linecap="round" stroke-width="1" fill="#191919" d="M13.0,-3.0L19.0,.0L13.0,3.0L13.0,-3.0"/></g><g transform="translate(777.100000,251.125000)" id="shape36"><path stroke="#000000" stroke-width="1" fill-rule="nonzero" fill="#ffffff" d="M217.0,36.5L217.0,.0L.0,.0L.0,36.5L217.0,36.5z"/><text style="fill:#191919;font-family:方正书宋简体,PingFang SC,Mircrosoft YaHei,Arial;font-size:13.00pt" xml:space="preserve"><tspan style="font-family:方正书宋简体,PingFang SC,Mircrosoft YaHei,Arial" x="29.3" y="22.6">萃取废水线沉重压滤</tspan></text></g><g transform="translate(1055.000000,251.125000)" id="shape37"><path fill-rule="nonzero" fill="#ffffff" d="M123.0,29.5L123.0,7.0C123.0,3.1,119.9,.0,116.0,.0L7.0,.0C3.1,.0,.0,3.1,.0,7.0L.0,29.5C.0,33.4,3.1,36.5,7.0,36.5L116.0,36.5C119.9,36.5,123.0,33.4,123.0,29.5z"/><text style="fill:#191919;font-family:方正书宋简体,PingFang SC,Mircrosoft YaHei,Arial;font-size:13.00pt" xml:space="preserve"><tspan style="font-family:方正书宋简体,PingFang SC,Mircrosoft YaHei,Arial" x="8.7" y="22.6">萃取废水后液</tspan></text></g><g transform="translate(206.500000,192.000000)" id="shape38"><path fill-rule="nonzero" fill="#ffffff" d="M65.0,29.3L65.0,7.0C65.0,3.1,61.9,.0,58.0,.0L7.0,.0C3.1,.0,.0,3.1,.0,7.0L.0,29.3C.0,33.1,3.1,36.3,7.0,36.3L58.0,36.3C61.9,36.3,65.0,33.1,65.0,29.3z"/><text style="fill:#191919;font-family:方正书宋简体,PingFang SC,Mircrosoft YaHei,Arial;font-size:13.00pt" xml:space="preserve"><tspan style="font-family:方正书宋简体,PingFang SC,Mircrosoft YaHei,Arial" x="14.9" y="22.5">液碱</tspan></text></g><g transform="translate(239.000000,228.250000)" id="shape39"><path stroke="#191919" stroke-width="1" d="M.0,.0L.4,10.0L.4,16.1" fill="none"/><path stroke="#191919" stroke-linecap="round" stroke-width="1" fill="#191919" d="M3.4,16.1L.4,22.1L-2.6,16.1L3.4,16.1"/></g><g transform="translate(118.000000,269.375000)" id="shape40"><path stroke="#191919" stroke-width="1" d="M.0,.0L54.9,.0" fill="none"/><path stroke="#191919" stroke-linecap="round" stroke-width="1" fill="#191919" d="M54.9,-3.0L60.9,.0L54.9,3.0L54.9,-3.0"/></g><g transform="translate(299.900000,269.375000)" id="shape41"><path stroke="#191919" stroke-width="1" d="M.0,.0L54.9,.0" fill="none"/><path stroke="#191919" stroke-linecap="round" stroke-width="1" fill="#191919" d="M54.9,-3.0L60.9,.0L54.9,3.0L54.9,-3.0"/><text style="fill:#191919;font-family:方正书宋简体,PingFang SC,Mircrosoft YaHei,Arial;font-size:13.00pt" xml:space="preserve"><tspan style="font-family:方正书宋简体,PingFang SC,Mircrosoft YaHei,Arial" x="19.9" y="-5.6">pH</tspan><tspan style="font-family:方正书宋简体,PingFang SC,Mircrosoft YaHei,Arial" x="8.3" y="14.4">11~12</tspan></text></g><g transform="translate(481.800000,269.375000)" id="shape42"><path stroke="#191919" stroke-width="1" d="M.0,.0L54.9,.0" fill="none"/><path stroke="#191919" stroke-linecap="round" stroke-width="1" fill="#191919" d="M54.9,-3.0L60.9,.0L54.9,3.0L54.9,-3.0"/></g><g transform="translate(716.200000,269.375000)" id="shape43"><path stroke="#191919" stroke-width="1" d="M.0,.0L54.1,.0" fill="none"/><path stroke="#191919" stroke-linecap="round" stroke-width="1" fill="#191919" d="M54.1,-3.0L60.1,.0L54.1,3.0L54.1,-3.0"/></g><g transform="translate(994.100000,269.375000)" id="shape44"><path stroke="#191919" stroke-width="1" d="M.0,.0L54.9,.0" fill="none"/><path stroke="#191919" stroke-linecap="round" stroke-width="1" fill="#191919" d="M54.9,-3.0L60.9,.0L54.9,3.0L54.9,-3.0"/></g><g transform="translate(360.800000,312.125000)" id="shape45"><path fill-rule="nonzero" fill="#ffffff" d="M121.0,29.3L121.0,7.0C121.0,3.1,117.9,.0,114.0,.0L7.0,.0C3.1,.0,.0,3.1,.0,7.0L.0,29.3C.0,33.1,3.1,36.3,7.0,36.3L114.0,36.3C117.9,36.3,121.0,33.1,121.0,29.3z"/><text style="fill:#191919;font-family:方正书宋简体,PingFang SC,Mircrosoft YaHei,Arial;font-size:13.00pt" xml:space="preserve"><tspan style="font-family:方正书宋简体,PingFang SC,Mircrosoft YaHei,Arial" x="16.5" y="22.5">粗制碳酸锰</tspan></text></g><g transform="translate(421.300000,287.625000)" id="shape46"><path stroke="#191919" stroke-width="1" d="M.0,.0L.0,18.5" fill="none"/><path stroke="#191919" stroke-linecap="round" stroke-width="1" fill="#191919" d="M3.0,18.5L.0,24.5L-3.0,18.5L3.0,18.5"/></g><g transform="translate(536.500000,116.625000)" id="shape47"><text style="fill:#191919;font-family:方正书宋简体,PingFang SC,Mircrosoft YaHei,Arial;font-size:10.00pt" xml:space="preserve"><tspan style="font-family:方正书宋简体,PingFang SC,Mircrosoft YaHei,Arial" x="52.0" y="19.2">pH</tspan><tspan style="font-family:方正书宋简体,PingFang SC,Mircrosoft YaHei,Arial" x="50.0" y="35.2">4~6</tspan></text></g><g transform="translate(179.000000,116.625000)" id="shape48"><text style="fill:#191919;font-family:方正书宋简体,PingFang SC,Mircrosoft YaHei,Arial;font-size:10.00pt" xml:space="preserve"><tspan style="font-family:方正书宋简体,PingFang SC,Mircrosoft YaHei,Arial" x="52.0" y="19.2">pH</tspan><tspan style="font-family:方正书宋简体,PingFang SC,Mircrosoft YaHei,Arial" x="46.8" y="35.2">9~10</tspan></text></g><g transform="translate(38.000000,499.750000)" id="shape49"><path fill-rule="nonzero" fill="#ffffff" d="M110.0,49.5L110.0,7.0C110.0,3.1,106.9,.0,103.0,.0L7.0,.0C3.1,.0,.0,3.1,.0,7.0L.0,49.5C.0,53.4,3.1,56.5,7.0,56.5L103.0,56.5C106.9,56.5,110.0,53.4,110.0,49.5z"/><text style="fill:#191919;font-family:方正书宋简体,PingFang SC,Mircrosoft YaHei,Arial;font-size:13.00pt" xml:space="preserve"><tspan style="font-family:方正书宋简体,PingFang SC,Mircrosoft YaHei,Arial" x="19.8" y="22.6">其他废水</tspan><tspan style="font-family:方正书宋简体,PingFang SC,Mircrosoft YaHei,Arial" x="11.0" y="42.6">备料洗氯水</tspan></text></g><g transform="translate(222.945000,499.750000)" id="shape50"><path stroke="#000000" stroke-width="1" fill-rule="nonzero" fill="#ffffff" d="M102.9,56.5L102.9,.0L.0,.0L.0,56.5L102.9,56.5z"/><text style="fill:#191919;font-family:方正书宋简体,PingFang SC,Mircrosoft YaHei,Arial;font-size:13.00pt" xml:space="preserve"><tspan style="font-family:方正书宋简体,PingFang SC,Mircrosoft YaHei,Arial" x="16.3" y="32.9">沉重金属</tspan></text></g><g transform="translate(400.789500,499.750000)" id="shape51"><path stroke="#000000" stroke-width="1" fill-rule="nonzero" fill="#ffffff" d="M143.1,56.5L143.1,.0L.0,.0L.0,56.5L143.1,56.5z"/><text style="fill:#191919;font-family:方正书宋简体,PingFang SC,Mircrosoft YaHei,Arial;font-size:13.00pt" xml:space="preserve"><tspan style="font-family:方正书宋简体,PingFang SC,Mircrosoft YaHei,Arial" x="27.6" y="22.9">其它废水线</tspan><tspan style="font-family:方正书宋简体,PingFang SC,Mircrosoft YaHei,Arial" x="36.4" y="42.9">沉镍压滤</tspan></text></g><g transform="translate(618.859500,499.750000)" id="shape52"><path stroke="#000000" stroke-width="0.3333329856395721" fill-rule="nonzero" fill="#ffffff" d="M143.1,56.5L143.1,.0L.0,.0L.0,56.5L143.1,56.5z"/><text style="fill:#191919;font-family:方正书宋简体,PingFang SC,Mircrosoft YaHei,Arial;font-size:13.00pt" xml:space="preserve"><tspan style="font-family:方正书宋简体,PingFang SC,Mircrosoft YaHei,Arial" x="27.6" y="22.6">其它废水线</tspan><tspan style="font-family:方正书宋简体,PingFang SC,Mircrosoft YaHei,Arial" x="45.2" y="42.6">除氨氮</tspan></text></g><g transform="translate(836.929500,499.750000)" id="shape53"><path stroke="#000000" stroke-width="0.3333329856395721" fill-rule="nonzero" fill="#ffffff" d="M143.1,56.5L143.1,.0L.0,.0L.0,56.5L143.1,56.5z"/><text style="fill:#191919;font-family:方正书宋简体,PingFang SC,Mircrosoft YaHei,Arial;font-size:13.00pt" xml:space="preserve"><tspan style="font-family:方正书宋简体,PingFang SC,Mircrosoft YaHei,Arial" x="54.0" y="22.9">钠线</tspan><tspan style="font-family:方正书宋简体,PingFang SC,Mircrosoft YaHei,Arial" x="36.4" y="42.9">二次压滤</tspan></text></g><g transform="translate(1055.000000,499.750000)" id="shape54"><path fill-rule="nonzero" fill="#ffffff" d="M123.0,49.5L123.0,7.0C123.0,3.1,119.9,.0,116.0,.0L7.0,.0C3.1,.0,.0,3.1,.0,7.0L.0,49.5C.0,53.4,3.1,56.5,7.0,56.5L116.0,56.5C119.9,56.5,123.0,53.4,123.0,49.5z"/><text style="fill:#191919;font-family:方正书宋简体,PingFang SC,Mircrosoft YaHei,Arial;font-size:13.00pt" xml:space="preserve"><tspan style="font-family:方正书宋简体,PingFang SC,Mircrosoft YaHei,Arial" x="26.3" y="22.6">沉重金属</tspan><tspan style="font-family:方正书宋简体,PingFang SC,Mircrosoft YaHei,Arial" x="43.9" y="42.6">后液</tspan></text></g><g transform="translate(237.145000,444.874500)" id="shape55"><path fill-rule="nonzero" fill="#ffffff" d="M74.5,29.1L74.5,7.0C74.5,3.1,71.4,.0,67.5,.0L7.0,.0C3.1,.0,.0,3.1,.0,7.0L.0,29.1C.0,33.0,3.1,36.1,7.0,36.1L67.5,36.1C71.4,36.1,74.5,33.0,74.5,29.1z"/><text style="fill:#191919;font-family:方正书宋简体,PingFang SC,Mircrosoft YaHei,Arial;font-size:13.00pt" xml:space="preserve"><tspan style="font-family:方正书宋简体,PingFang SC,Mircrosoft YaHei,Arial" x="19.6" y="22.9">液碱</tspan></text></g><g transform="translate(274.395000,481.000000)" id="shape56"><path stroke="#191919" stroke-width="1" d="M.0,.0L.0,11.8" fill="none"/><path stroke="#191919" stroke-linecap="round" stroke-width="1" fill="#191919" d="M3.0,11.8L.0,17.8L-3.0,11.8L3.0,11.8"/></g><g transform="translate(618.859500,444.875500)" id="shape57"><path fill-rule="nonzero" fill="#ffffff" d="M143.1,29.1L143.1,7.0C143.1,3.1,140.0,.0,136.1,.0L7.0,.0C3.1,.0,.0,3.1,.0,7.0L.0,29.1C.0,33.0,3.1,36.1,7.0,36.1L136.1,36.1C140.0,36.1,143.1,33.0,143.1,29.1z"/><text style="fill:#191919;font-family:方正书宋简体,PingFang SC,Mircrosoft YaHei,Arial;font-size:13.00pt" xml:space="preserve"><tspan style="font-family:方正书宋简体,PingFang SC,Mircrosoft YaHei,Arial" x="36.4" y="22.9">次氯酸钠</tspan></text></g><g transform="translate(690.422000,481.000000)" id="shape58"><path stroke="#191919" stroke-width="1" d="M.0,.0L.0,11.8" fill="none"/><path stroke="#191919" stroke-linecap="round" stroke-width="1" fill="#191919" d="M3.0,11.8L.0,17.8L-3.0,11.8L3.0,11.8"/></g><g transform="translate(836.929500,585.500000)" id="shape59"><path fill-rule="nonzero" fill="#ffffff" d="M143.1,32.5L143.1,.0L.0,.0L.0,32.5L143.1,32.5z"/><text style="fill:#191919;font-family:方正书宋简体,PingFang SC,Mircrosoft YaHei,Arial;font-size:13.00pt" xml:space="preserve"><tspan style="font-family:方正书宋简体,PingFang SC,Mircrosoft YaHei,Arial" x="10.0" y="20.9">钠线沉镍回收料</tspan></text></g><g transform="translate(908.492000,556.250000)" id="shape60"><path stroke="#191919" stroke-width="1" d="M.0,.0L.0,22.8" fill="none"/><path stroke="#191919" stroke-linecap="round" stroke-width="1" fill="#191919" d="M3.0,22.8L.0,28.8L-3.0,22.8L3.0,22.8"/></g><g transform="translate(38.000000,381.000000)" id="shape61"><path fill-rule="nonzero" fill="#ffffff" d="M80.0,29.5L80.0,7.0C80.0,3.1,76.9,.0,73.0,.0L7.0,.0C3.1,.0,.0,3.1,.0,7.0L.0,29.5C.0,33.4,3.1,36.5,7.0,36.5L73.0,36.5C76.9,36.5,80.0,33.4,80.0,29.5z"/><text style="fill:#191919;font-family:方正书宋简体,PingFang SC,Mircrosoft YaHei,Arial;font-size:13.00pt" xml:space="preserve"><tspan style="font-family:方正书宋简体,PingFang SC,Mircrosoft YaHei,Arial" x="4.8" y="22.9">沉锗后液</tspan></text></g><g transform="translate(222.945000,371.000000)" id="shape62"><path stroke="#000000" stroke-width="1" fill-rule="nonzero" fill="#ffffff" d="M102.9,56.5L102.9,.0L.0,.0L.0,56.5L102.9,56.5z"/><text style="fill:#191919;font-family:方正书宋简体,PingFang SC,Mircrosoft YaHei,Arial;font-size:13.00pt" xml:space="preserve"><tspan style="font-family:方正书宋简体,PingFang SC,Mircrosoft YaHei,Arial" x="25.1" y="22.9">钴合金</tspan><tspan style="font-family:方正书宋简体,PingFang SC,Mircrosoft YaHei,Arial" x="16.3" y="42.9">沉钴反应</tspan></text></g><g transform="translate(400.789500,371.000000)" id="shape63"><path stroke="#000000" stroke-width="1" fill-rule="nonzero" fill="#ffffff" d="M143.1,56.5L143.1,.0L.0,.0L.0,56.5L143.1,56.5z"/><text style="fill:#191919;font-family:方正书宋简体,PingFang SC,Mircrosoft YaHei,Arial;font-size:13.00pt" xml:space="preserve"><tspan style="font-family:方正书宋简体,PingFang SC,Mircrosoft YaHei,Arial" x="36.4" y="32.6">沉钴压滤</tspan></text></g><g transform="translate(472.352000,427.500000)" id="shape64"><path stroke="#191919" stroke-width="1" d="M.0,.0L.0,66.3" fill="none"/><path stroke="#191919" stroke-linecap="round" stroke-width="1" fill="#191919" d="M3.0,66.3L.0,72.3L-3.0,66.3L3.0,66.3"/></g><g transform="translate(118.000000,399.250000)" id="shape65"><path stroke="#191919" stroke-width="1" d="M.0,.0L97.9,.0" fill="none"/><path stroke="#191919" stroke-linecap="round" stroke-width="1" fill="#191919" d="M97.9,-3.0L103.9,.0L97.9,3.0L97.9,-3.0"/></g><g transform="translate(326.000000,399.250000)" id="shape66"><path stroke="#191919" stroke-width="1" d="M.0,.0L68.8,.0" fill="none"/><path stroke="#191919" stroke-linecap="round" stroke-width="1" fill="#191919" d="M68.8,-3.0L74.8,.0L68.8,3.0L68.8,-3.0"/></g><g transform="translate(148.000000,528.000000)" id="shape67"><path stroke="#191919" stroke-width="1" d="M.0,.0L68.9,.0" fill="none"/><path stroke="#191919" stroke-linecap="round" stroke-width="1" fill="#191919" d="M68.9,-3.0L74.9,.0L68.9,3.0L68.9,-3.0"/></g><g transform="translate(325.845000,528.000000)" id="shape68"><path stroke="#191919" stroke-width="1" d="M.0,.0L68.8,.0" fill="none"/><path stroke="#191919" stroke-linecap="round" stroke-width="1" fill="#191919" d="M68.8,-3.0L74.8,.0L68.8,3.0L68.8,-3.0"/></g><g transform="translate(543.915000,528.000000)" id="shape69"><path stroke="#191919" stroke-width="1" d="M.0,.0L68.9,.0" fill="none"/><path stroke="#191919" stroke-linecap="round" stroke-width="1" fill="#191919" d="M68.9,-3.0L74.9,.0L68.9,3.0L68.9,-3.0"/></g><g transform="translate(761.985000,528.000000)" id="shape70"><path stroke="#191919" stroke-width="1" d="M.0,.0L68.9,.0" fill="none"/><path stroke="#191919" stroke-linecap="round" stroke-width="1" fill="#191919" d="M68.9,-3.0L74.9,.0L68.9,3.0L68.9,-3.0"/></g><g transform="translate(980.055000,528.000000)" id="shape71"><path stroke="#191919" stroke-width="1" d="M.0,.0L68.0,.0" fill="none"/><path stroke="#191919" stroke-linecap="round" stroke-width="1" fill="#191919" d="M68.0,-3.0L74.0,.0L68.0,3.0L68.0,-3.0"/></g><g transform="translate(618.860000,371.000000)" id="shape72"><path fill-rule="nonzero" fill="#ffffff" d="M156.1,49.5L156.1,7.0C156.1,3.1,153.0,.0,149.1,.0L7.0,.0C3.1,.0,.0,3.1,.0,7.0L.0,49.5C.0,53.4,3.1,56.5,7.0,56.5L149.1,56.5C153.0,56.5,156.1,53.4,156.1,49.5z"/><text style="fill:#191919;font-family:方正书宋简体,PingFang SC,Mircrosoft YaHei,Arial;font-size:13.00pt" xml:space="preserve"><tspan style="font-family:方正书宋简体,PingFang SC,Mircrosoft YaHei,Arial" x="7.7" y="32.6">钴合金沉钴回收料</tspan></text></g><g transform="translate(543.915000,399.250000)" id="shape73"><path stroke="#191919" stroke-width="1" d="M.0,.0L69.0,.0" fill="none"/><path stroke="#191919" stroke-linecap="round" stroke-width="1" fill="#191919" d="M69.0,-3.0L75.0,.0L69.0,3.0L69.0,-3.0"/></g><g transform="translate(38.000000,679.750000)" id="shape74"><path fill-rule="nonzero" fill="#ffffff" d="M80.0,29.5L80.0,7.0C80.0,3.1,76.9,.0,73.0,.0L7.0,.0C3.1,.0,.0,3.1,.0,7.0L.0,29.5C.0,33.4,3.1,36.5,7.0,36.5L73.0,36.5C76.9,36.5,80.0,33.4,80.0,29.5z"/><text style="fill:#191919;font-family:方正书宋简体,PingFang SC,Mircrosoft YaHei,Arial;font-size:13.00pt" xml:space="preserve"><tspan style="font-family:方正书宋简体,PingFang SC,Mircrosoft YaHei,Arial" x="4.8" y="22.9">电镍废水</tspan></text></g><g transform="translate(169.202500,669.750000)" id="shape75"><path stroke="#000000" stroke-width="1" fill-rule="nonzero" fill="#ffffff" d="M128.8,56.5L128.8,.0L.0,.0L.0,56.5L128.8,56.5z"/><text style="fill:#191919;font-family:方正书宋简体,PingFang SC,Mircrosoft YaHei,Arial;font-size:13.00pt" xml:space="preserve"><tspan style="font-family:方正书宋简体,PingFang SC,Mircrosoft YaHei,Arial" x="20.4" y="22.6">1#电镍沉镍</tspan><tspan style="font-family:方正书宋简体,PingFang SC,Mircrosoft YaHei,Arial" x="38.0" y="42.6">反应槽</tspan></text></g><g transform="translate(349.249500,669.750000)" id="shape76"><path stroke="#000000" stroke-width="1" fill-rule="nonzero" fill="#ffffff" d="M128.8,56.5L128.8,.0L.0,.0L.0,56.5L128.8,56.5z"/><text style="fill:#191919;font-family:方正书宋简体,PingFang SC,Mircrosoft YaHei,Arial;font-size:13.00pt" xml:space="preserve"><tspan style="font-family:方正书宋简体,PingFang SC,Mircrosoft YaHei,Arial" x="20.4" y="22.9">2#电镍沉镍</tspan><tspan style="font-family:方正书宋简体,PingFang SC,Mircrosoft YaHei,Arial" x="38.0" y="42.9">反应槽</tspan></text></g><g transform="translate(529.297500,669.750000)" id="shape77"><path stroke="#000000" stroke-width="1" fill-rule="nonzero" fill="#ffffff" d="M128.8,56.5L128.8,.0L.0,.0L.0,56.5L128.8,56.5z"/><text style="fill:#191919;font-family:方正书宋简体,PingFang SC,Mircrosoft YaHei,Arial;font-size:13.00pt" xml:space="preserve"><tspan style="font-family:方正书宋简体,PingFang SC,Mircrosoft YaHei,Arial" x="20.4" y="22.9">3#电镍沉镍</tspan><tspan style="font-family:方正书宋简体,PingFang SC,Mircrosoft YaHei,Arial" x="38.0" y="42.9">反应槽</tspan></text></g><g transform="translate(709.344500,669.750000)" id="shape78"><path stroke="#000000" stroke-width="1" fill-rule="nonzero" fill="#ffffff" d="M143.1,56.5L143.1,.0L.0,.0L.0,56.5L143.1,56.5z"/><text style="fill:#191919;font-family:方正书宋简体,PingFang SC,Mircrosoft YaHei,Arial;font-size:13.00pt" xml:space="preserve"><tspan style="font-family:方正书宋简体,PingFang SC,Mircrosoft YaHei,Arial" x="18.8" y="22.6">电镍废水沉镍</tspan><tspan style="font-family:方正书宋简体,PingFang SC,Mircrosoft YaHei,Arial" x="36.4" y="42.6">一次压滤</tspan></text></g><g transform="translate(903.672500,669.750000)" id="shape79"><path stroke="#000000" stroke-width="1" fill-rule="nonzero" fill="#ffffff" d="M143.1,56.5L143.1,.0L.0,.0L.0,56.5L143.1,56.5z"/><text style="fill:#191919;font-family:方正书宋简体,PingFang SC,Mircrosoft YaHei,Arial;font-size:13.00pt" xml:space="preserve"><tspan style="font-family:方正书宋简体,PingFang SC,Mircrosoft YaHei,Arial" x="18.8" y="22.9">电镍废水沉镍</tspan><tspan style="font-family:方正书宋简体,PingFang SC,Mircrosoft YaHei,Arial" x="36.4" y="42.9">二次压滤</tspan></text></g><g transform="translate(1098.000000,669.750000)" id="shape80"><path fill-rule="nonzero" fill="#ffffff" d="M80.0,49.5L80.0,7.0C80.0,3.1,76.9,.0,73.0,.0L7.0,.0C3.1,.0,.0,3.1,.0,7.0L.0,49.5C.0,53.4,3.1,56.5,7.0,56.5L73.0,56.5C76.9,56.5,80.0,53.4,80.0,49.5z"/><text style="fill:#191919;font-family:方正书宋简体,PingFang SC,Mircrosoft YaHei,Arial;font-size:13.00pt" xml:space="preserve"><tspan style="font-family:方正书宋简体,PingFang SC,Mircrosoft YaHei,Arial" x="4.8" y="22.6">电镍废水</tspan><tspan style="font-family:方正书宋简体,PingFang SC,Mircrosoft YaHei,Arial" x="4.8" y="42.6">处理后液</tspan></text></g><g transform="translate(400.789500,585.500000)" id="shape81"><path fill-rule="nonzero" fill="#ffffff" d="M143.1,32.5L143.1,.0L.0,.0L.0,32.5L143.1,32.5z"/><text style="fill:#191919;font-family:方正书宋简体,PingFang SC,Mircrosoft YaHei,Arial;font-size:13.00pt" xml:space="preserve"><tspan style="font-family:方正书宋简体,PingFang SC,Mircrosoft YaHei,Arial" x="10.0" y="20.9">钠线沉镍回收料</tspan></text></g><g transform="translate(472.352000,557.000000)" id="shape82"><path stroke="#191919" stroke-width="1" d="M.0,.0L.0,13.0L.0,22.5" fill="none"/><path stroke="#191919" stroke-linecap="round" stroke-width="1" fill="#191919" d="M3.0,22.5L.0,28.5L-3.0,22.5L3.0,22.5"/></g><g transform="translate(709.344500,741.500000)" id="shape83"><path fill-rule="nonzero" fill="#ffffff" d="M143.1,32.5L143.1,.0L.0,.0L.0,32.5L143.1,32.5z"/><text style="fill:#191919;font-family:方正书宋简体,PingFang SC,Mircrosoft YaHei,Arial;font-size:13.00pt" xml:space="preserve"><tspan style="font-family:方正书宋简体,PingFang SC,Mircrosoft YaHei,Arial" x="10.0" y="20.9">电镍沉镍回收料</tspan></text></g><g transform="translate(780.907000,727.000000)" id="shape84"><path stroke="#191919" stroke-width="1" d="M.0,.0L.0,8.5" fill="none"/><path stroke="#191919" stroke-linecap="round" stroke-width="1" fill="#191919" d="M3.0,8.5L.0,14.5L-3.0,8.5L3.0,8.5"/></g><g transform="translate(903.672500,741.500000)" id="shape85"><path fill-rule="nonzero" fill="#ffffff" d="M143.1,32.5L143.1,.0L.0,.0L.0,32.5L143.1,32.5z"/><text style="fill:#191919;font-family:方正书宋简体,PingFang SC,Mircrosoft YaHei,Arial;font-size:13.00pt" xml:space="preserve"><tspan style="font-family:方正书宋简体,PingFang SC,Mircrosoft YaHei,Arial" x="10.0" y="20.9">电镍沉镍回收料</tspan></text></g><g transform="translate(975.235000,726.250000)" id="shape86"><path stroke="#191919" stroke-width="1" d="M.0,.0L.0,8.5" fill="none"/><path stroke="#191919" stroke-linecap="round" stroke-width="1" fill="#191919" d="M3.0,8.5L.0,14.5L-3.0,8.5L3.0,8.5"/></g><g transform="translate(196.375000,616.875500)" id="shape87"><path fill-rule="nonzero" fill="#ffffff" d="M74.5,29.1L74.5,7.0C74.5,3.1,71.4,.0,67.5,.0L7.0,.0C3.1,.0,.0,3.1,.0,7.0L.0,29.1C.0,33.0,3.1,36.1,7.0,36.1L67.5,36.1C71.4,36.1,74.5,33.0,74.5,29.1z"/><text style="fill:#191919;font-family:方正书宋简体,PingFang SC,Mircrosoft YaHei,Arial;font-size:13.00pt" xml:space="preserve"><tspan style="font-family:方正书宋简体,PingFang SC,Mircrosoft YaHei,Arial" x="19.6" y="22.9">液碱</tspan></text></g><g transform="translate(233.625000,653.000000)" id="shape88"><path stroke="#191919" stroke-width="1" d="M.0,.0L.0,9.8" fill="none"/><path stroke="#191919" stroke-linecap="round" stroke-width="1" fill="#191919" d="M3.0,9.8L.0,15.8L-3.0,9.8L3.0,9.8"/></g><g transform="translate(376.422000,618.000500)" id="shape89"><path fill-rule="nonzero" fill="#ffffff" d="M74.5,29.1L74.5,7.0C74.5,3.1,71.4,.0,67.5,.0L7.0,.0C3.1,.0,.0,3.1,.0,7.0L.0,29.1C.0,33.0,3.1,36.1,7.0,36.1L67.5,36.1C71.4,36.1,74.5,33.0,74.5,29.1z"/><text style="fill:#191919;font-family:方正书宋简体,PingFang SC,Mircrosoft YaHei,Arial;font-size:13.00pt" xml:space="preserve"><tspan style="font-family:方正书宋简体,PingFang SC,Mircrosoft YaHei,Arial" x="19.6" y="22.9">液碱</tspan></text></g><g transform="translate(556.470000,616.875500)" id="shape90"><path fill-rule="nonzero" fill="#ffffff" d="M74.5,29.1L74.5,7.0C74.5,3.1,71.4,.0,67.5,.0L7.0,.0C3.1,.0,.0,3.1,.0,7.0L.0,29.1C.0,33.0,3.1,36.1,7.0,36.1L67.5,36.1C71.4,36.1,74.5,33.0,74.5,29.1z"/><text style="fill:#191919;font-family:方正书宋简体,PingFang SC,Mircrosoft YaHei,Arial;font-size:13.00pt" xml:space="preserve"><tspan style="font-family:方正书宋简体,PingFang SC,Mircrosoft YaHei,Arial" x="19.6" y="22.9">液碱</tspan></text></g><g transform="translate(413.672000,654.125000)" id="shape91"><path stroke="#191919" stroke-width="1" d="M.0,.0L.0,9.6" fill="none"/><path stroke="#191919" stroke-linecap="round" stroke-width="1" fill="#191919" d="M3.0,9.6L.0,15.6L-3.0,9.6L3.0,9.6"/></g><g transform="translate(593.720000,654.000000)" id="shape92"><path stroke="#191919" stroke-width="1" d="M.0,.0L.0,6.0L.0,9.8" fill="none"/><path stroke="#191919" stroke-linecap="round" stroke-width="1" fill="#191919" d="M3.0,9.8L.0,15.8L-3.0,9.8L3.0,9.8"/></g><g transform="translate(118.000000,698.000000)" id="shape93"><path stroke="#191919" stroke-width="1" d="M.0,.0L45.2,.0" fill="none"/><path stroke="#191919" stroke-linecap="round" stroke-width="1" fill="#191919" d="M45.2,-3.0L51.2,.0L45.2,3.0L45.2,-3.0"/></g><g transform="translate(299.000000,698.000000)" id="shape94"><path stroke="#191919" stroke-width="1" d="M.0,.0L44.3,.0" fill="none"/><path stroke="#191919" stroke-linecap="round" stroke-width="1" fill="#191919" d="M44.3,-3.0L50.3,.0L44.3,3.0L44.3,-3.0"/></g><g transform="translate(479.000000,698.000000)" id="shape95"><path stroke="#191919" stroke-width="1" d="M.0,.0L44.3,.0" fill="none"/><path stroke="#191919" stroke-linecap="round" stroke-width="1" fill="#191919" d="M44.3,-3.0L50.3,.0L44.3,3.0L44.3,-3.0"/></g><g transform="translate(659.000000,698.000000)" id="shape96"><path stroke="#191919" stroke-width="1" d="M.0,.0L44.3,.0" fill="none"/><path stroke="#191919" stroke-linecap="round" stroke-width="1" fill="#191919" d="M44.3,-3.0L50.3,.0L44.3,3.0L44.3,-3.0"/></g><g transform="translate(852.470000,698.000000)" id="shape97"><path stroke="#191919" stroke-width="1" d="M.0,.0L45.2,.0" fill="none"/><path stroke="#191919" stroke-linecap="round" stroke-width="1" fill="#191919" d="M45.2,-3.0L51.2,.0L45.2,3.0L45.2,-3.0"/></g><g transform="translate(1046.800000,698.000000)" id="shape98"><path stroke="#191919" stroke-width="1" d="M.0,.0L45.2,.0" fill="none"/><path stroke="#191919" stroke-linecap="round" stroke-width="1" fill="#191919" d="M45.2,-3.0L51.2,.0L45.2,3.0L45.2,-3.0"/></g></g></svg>