<svg xmlns:ev="http://www.w3.org/2001/xml-events" width="1256" height="538" xmlns="http://www.w3.org/2000/svg" xmlns:xlink="http://www.w3.org/1999/xlink" viewBox="0 0 1256 538"><defs/><g transform="translate(5.5,5.5)" id="page11"><rect width="1246" height="528" x="0" y="0" fill="none"/><path stroke="#b29335" transform="translate(706.000000,149.000000)" id="shape1" stroke-width="2" fill-rule="nonzero" stroke-dasharray="22,10" fill="#fcf5e9" d="M449.0,138.0C455.6,138.0,461.0,132.6,461.0,126.0L461.0,12.0C461.0,5.4,455.6,.0,449.0,.0L12.0,.0C5.4,.0,.0,5.4,.0,12.0L.0,126.0C.0,132.6,5.4,138.0,12.0,138.0L449.0,138.0z"/><g transform="translate(39.000000,77.500000)" id="shape2"><path stroke="#543214" stroke-width="1" fill-rule="nonzero" fill="#ffffff" d="M100.0,36.0L100.0,.0L.0,.0L.0,36.0L100.0,36.0z"/><text style="fill:#191919;font-family:方正书宋简体,PingFang SC,Mircrosoft YaHei,Arial;font-size:13.00pt" xml:space="preserve"><tspan style="font-family:方正书宋简体,PingFang SC,Mircrosoft YaHei,Arial" x="6.0" y="22.4">配置碳铵液</tspan></text></g><g transform="translate(39.000000,194.333000)" id="shape3"><path stroke="#543214" stroke-width="1" fill-rule="nonzero" fill="#ffffff" d="M100.0,36.0L100.0,.0L.0,.0L.0,36.0L100.0,36.0z"/><text style="fill:#191919;font-family:方正书宋简体,PingFang SC,Mircrosoft YaHei,Arial;font-size:13.00pt" xml:space="preserve"><tspan style="font-family:方正书宋简体,PingFang SC,Mircrosoft YaHei,Arial" x="14.8" y="22.4">硫酸钴液</tspan></text></g><g transform="translate(39.000000,138.000000)" id="shape4"><path stroke="#543214" stroke-width="1" fill-rule="nonzero" fill="#ffffff" d="M100.0,36.0L100.0,.0L.0,.0L.0,36.0L100.0,36.0z"/><text style="fill:#191919;font-family:方正书宋简体,PingFang SC,Mircrosoft YaHei,Arial;font-size:13.00pt" xml:space="preserve"><tspan style="font-family:方正书宋简体,PingFang SC,Mircrosoft YaHei,Arial" x="14.8" y="22.4">四钴合成</tspan></text></g><g transform="translate(308.000000,138.000000)" id="shape5"><path stroke="#543214" stroke-width="1" fill-rule="nonzero" fill="#ffffff" d="M100.0,36.0L100.0,.0L.0,.0L.0,36.0L100.0,36.0z"/><text style="fill:#191919;font-family:方正书宋简体,PingFang SC,Mircrosoft YaHei,Arial;font-size:13.00pt" xml:space="preserve"><tspan style="font-family:方正书宋简体,PingFang SC,Mircrosoft YaHei,Arial" x="14.8" y="22.4">树脂除钴</tspan></text></g><g transform="translate(165.000000,138.000000)" id="shape6"><path stroke="#9b51e0" stroke-width="1" fill-rule="nonzero" fill="#efe9f9" d="M117.0,29.0L117.0,7.0C117.0,3.1,113.9,.0,110.0,.0L7.0,.0C3.1,.0,.0,3.1,.0,7.0L.0,29.0C.0,32.9,3.1,36.0,7.0,36.0L110.0,36.0C113.9,36.0,117.0,32.9,117.0,29.0z"/><text style="fill:#7139a4;font-family:方正书宋简体,PingFang SC,Mircrosoft YaHei,Arial;font-size:13.00pt" xml:space="preserve"><tspan style="font-family:方正书宋简体,PingFang SC,Mircrosoft YaHei,Arial" x="5.7" y="22.4">产品合成母液</tspan></text></g><g transform="translate(165.000000,194.333000)" id="shape7"><path stroke="#9b51e0" stroke-width="1" fill-rule="nonzero" fill="#efe9f9" d="M117.0,29.0L117.0,7.0C117.0,3.1,113.9,.0,110.0,.0L7.0,.0C3.1,.0,.0,3.1,.0,7.0L.0,29.0C.0,32.9,3.1,36.0,7.0,36.0L110.0,36.0C113.9,36.0,117.0,32.9,117.0,29.0z"/><text style="fill:#7139a4;font-family:方正书宋简体,PingFang SC,Mircrosoft YaHei,Arial;font-size:13.00pt" xml:space="preserve"><tspan style="font-family:方正书宋简体,PingFang SC,Mircrosoft YaHei,Arial" x="14.5" y="22.4">硫铵萃余液</tspan></text></g><g transform="translate(165.000000,250.667000)" id="shape8"><path stroke="#9b51e0" stroke-width="1" fill-rule="nonzero" fill="#efe9f9" d="M117.0,69.0L117.0,7.0C117.0,3.1,113.9,.0,110.0,.0L7.0,.0C3.1,.0,.0,3.1,.0,7.0L.0,69.0C.0,72.9,3.1,76.0,7.0,76.0L110.0,76.0C113.9,76.0,117.0,72.9,117.0,69.0z"/><text style="fill:#7139a4;font-family:方正书宋简体,PingFang SC,Mircrosoft YaHei,Arial;font-size:13.00pt" xml:space="preserve"><tspan style="font-family:方正书宋简体,PingFang SC,Mircrosoft YaHei,Arial" x="23.3" y="22.4">固废废水</tspan><tspan style="font-family:方正书宋简体,PingFang SC,Mircrosoft YaHei,Arial" x="23.3" y="42.4">均化焙烧</tspan><tspan style="font-family:方正书宋简体,PingFang SC,Mircrosoft YaHei,Arial" x="14.5" y="62.4">尾气吸收液</tspan></text></g><g transform="translate(165.000000,347.000000)" id="shape9"><path stroke="#9b51e0" stroke-width="1" fill-rule="nonzero" fill="#efe9f9" d="M117.0,29.0L117.0,7.0C117.0,3.1,113.9,.0,110.0,.0L7.0,.0C3.1,.0,.0,3.1,.0,7.0L.0,29.0C.0,32.9,3.1,36.0,7.0,36.0L110.0,36.0C113.9,36.0,117.0,32.9,117.0,29.0z"/><text style="fill:#7139a4;font-family:方正书宋简体,PingFang SC,Mircrosoft YaHei,Arial;font-size:13.00pt" xml:space="preserve"><tspan style="font-family:方正书宋简体,PingFang SC,Mircrosoft YaHei,Arial" x="11.3" y="22.4">二级RO浓水</tspan></text></g><g transform="translate(139.000000,156.000000)" id="shape10"><path stroke="#191919" stroke-width="1" d="M.0,.0L20.0,.0" fill="none"/><path stroke="#191919" stroke-linecap="round" stroke-width="1" fill="#191919" d="M20.0,-3.0L26.0,.0L20.0,3.0L20.0,-3.0"/></g><g transform="translate(282.000000,156.000000)" id="shape11"><path stroke="#191919" stroke-width="1" d="M.0,.0L20.0,.0" fill="none"/><path stroke="#191919" stroke-linecap="round" stroke-width="1" fill="#191919" d="M20.0,-3.0L26.0,.0L20.0,3.0L20.0,-3.0"/></g><g transform="translate(308.000000,184.333000)" id="shape12"><path stroke="#543214" stroke-width="1" fill-rule="nonzero" fill="#ffffff" d="M100.0,56.0L100.0,.0L.0,.0L.0,56.0L100.0,56.0z"/><text style="fill:#191919;font-family:方正书宋简体,PingFang SC,Mircrosoft YaHei,Arial;font-size:13.00pt" xml:space="preserve"><tspan style="font-family:方正书宋简体,PingFang SC,Mircrosoft YaHei,Arial" x="14.8" y="22.4">树脂除油</tspan><tspan style="font-family:方正书宋简体,PingFang SC,Mircrosoft YaHei,Arial" x="32.4" y="42.4">解析</tspan></text></g><g transform="translate(539.000000,161.000000)" id="shape13"><path stroke="#543214" stroke-width="1" fill-rule="nonzero" fill="#ffffff" d="M100.0,36.0L100.0,.0L.0,.0L.0,36.0L100.0,36.0z"/><text style="fill:#191919;font-family:方正书宋简体,PingFang SC,Mircrosoft YaHei,Arial;font-size:13.00pt" xml:space="preserve"><tspan style="font-family:方正书宋简体,PingFang SC,Mircrosoft YaHei,Arial" x="13.6" y="22.4">MVR蒸发</tspan></text></g><g transform="translate(408.000000,156.000000)" id="shape14"><path stroke="#191919" stroke-width="1" d="M.0,.0L103.0,.0L103.0,23.0L125.0,23.0" fill="none"/><path stroke="#191919" stroke-linecap="round" stroke-width="1" fill="#191919" d="M125.0,20.0L131.0,23.0L125.0,26.0L125.0,20.0"/><rect width="57.6" height="16.0" x="38.2" y="-8.3" fill="#ffffff"/><text style="fill:#191919;font-family:方正书宋简体,PingFang SC,Mircrosoft YaHei,Arial;font-size:10.00pt" xml:space="preserve"><tspan style="font-family:方正书宋简体,PingFang SC,Mircrosoft YaHei,Arial" x="38.2" y="3.7">除钴后液</tspan></text></g><g transform="translate(408.000000,212.333000)" id="shape15"><path stroke="#191919" stroke-width="1" d="M.0,.0L103.0,.0L103.0,-33.3L125.0,-33.3" fill="none"/><path stroke="#191919" stroke-linecap="round" stroke-width="1" fill="#191919" d="M125.0,-36.3L131.0,-33.3L125.0,-30.3L125.0,-36.3"/><rect width="72.0" height="16.0" x="29.0" y="-8.3" fill="#ffffff"/><text style="fill:#191919;font-family:方正书宋简体,PingFang SC,Mircrosoft YaHei,Arial;font-size:10.00pt" xml:space="preserve"><tspan style="font-family:方正书宋简体,PingFang SC,Mircrosoft YaHei,Arial" x="29.0" y="3.7">除油置换液</tspan></text></g><g transform="translate(408.000000,212.333000)" id="shape16"><path stroke="#191919" stroke-width="1" d="M.0,.0L22.0,.0L22.0,-33.3L97.0,-33.3C97.0,-36.6,99.7,-39.3,103.0,-39.3C106.3,-39.3,109.0,-36.6,109.0,-33.3L125.0,-33.3" fill="none"/><path stroke="#191919" stroke-linecap="round" stroke-width="1" fill="#191919" d="M125.0,-36.3L131.0,-33.3L125.0,-30.3L125.0,-36.3"/><rect width="57.6" height="16.0" x="37.6" y="-41.6" fill="#ffffff"/><text style="fill:#191919;font-family:方正书宋简体,PingFang SC,Mircrosoft YaHei,Arial;font-size:10.00pt" xml:space="preserve"><tspan style="font-family:方正书宋简体,PingFang SC,Mircrosoft YaHei,Arial" x="37.6" y="-29.6">除油后液</tspan></text></g><g transform="translate(539.000000,77.500000)" id="shape17"><path stroke="#156d3b" stroke-width="1" fill-rule="nonzero" fill="#e8efe9" d="M100.0,49.0L100.0,7.0C100.0,3.1,96.9,.0,93.0,.0L7.0,.0C3.1,.0,.0,3.1,.0,7.0L.0,49.0C.0,52.9,3.1,56.0,7.0,56.0L93.0,56.0C96.9,56.0,100.0,52.9,100.0,49.0z"/><text style="fill:#156d3b;font-family:方正书宋简体,PingFang SC,Mircrosoft YaHei,Arial;font-size:13.00pt" xml:space="preserve"><tspan style="font-family:方正书宋简体,PingFang SC,Mircrosoft YaHei,Arial" x="23.6" y="22.4">硫酸铵</tspan><tspan style="font-family:方正书宋简体,PingFang SC,Mircrosoft YaHei,Arial" x="14.8" y="42.4">（外售）</tspan></text></g><g transform="translate(713.500000,161.000000)" id="shape18"><path stroke="#543214" stroke-width="1" fill-rule="nonzero" fill="#ffffff" d="M80.5,36.0L80.5,.0L.0,.0L.0,36.0L80.5,36.0z"/><text style="fill:#191919;font-family:方正书宋简体,PingFang SC,Mircrosoft YaHei,Arial;font-size:13.00pt" xml:space="preserve"><tspan style="font-family:方正书宋简体,PingFang SC,Mircrosoft YaHei,Arial" x="5.0" y="22.4">板换降温</tspan></text></g><g transform="translate(815.375000,161.000000)" id="shape19"><path stroke="#543214" stroke-width="1" fill-rule="nonzero" fill="#ffffff" d="M63.5,36.0L63.5,.0L.0,.0L.0,36.0L63.5,36.0z"/><text style="fill:#191919;font-family:方正书宋简体,PingFang SC,Mircrosoft YaHei,Arial;font-size:13.00pt" xml:space="preserve"><tspan style="font-family:方正书宋简体,PingFang SC,Mircrosoft YaHei,Arial" x="14.2" y="22.4">布袋</tspan></text></g><g transform="translate(899.750000,161.000000)" id="shape20"><path stroke="#543214" stroke-width="1" fill-rule="nonzero" fill="#ffffff" d="M63.5,36.0L63.5,.0L.0,.0L.0,36.0L63.5,36.0z"/><text style="fill:#191919;font-family:方正书宋简体,PingFang SC,Mircrosoft YaHei,Arial;font-size:13.00pt" xml:space="preserve"><tspan style="font-family:方正书宋简体,PingFang SC,Mircrosoft YaHei,Arial" x="5.3" y="22.4">多介质</tspan></text></g><g transform="translate(984.120000,161.000000)" id="shape21"><path stroke="#543214" stroke-width="1" fill-rule="nonzero" fill="#ffffff" d="M63.5,36.0L63.5,.0L.0,.0L.0,36.0L63.5,36.0z"/><text style="fill:#191919;font-family:方正书宋简体,PingFang SC,Mircrosoft YaHei,Arial;font-size:13.00pt" xml:space="preserve"><tspan style="font-family:方正书宋简体,PingFang SC,Mircrosoft YaHei,Arial" x="14.2" y="22.4">精滤</tspan></text></g><g transform="translate(1068.500000,161.000000)" id="shape22"><path stroke="#543214" stroke-width="1" fill-rule="nonzero" fill="#ffffff" d="M63.5,36.0L63.5,.0L.0,.0L.0,36.0L63.5,36.0z"/><text style="fill:#191919;font-family:方正书宋简体,PingFang SC,Mircrosoft YaHei,Arial;font-size:13.00pt" xml:space="preserve"><tspan style="font-family:方正书宋简体,PingFang SC,Mircrosoft YaHei,Arial" x="19.8" y="22.4">RO</tspan></text></g><g transform="translate(639.000000,179.000000)" id="shape23"><path stroke="#191919" stroke-width="1" d="M.0,.0L68.5,.0" fill="none"/><path stroke="#191919" stroke-linecap="round" stroke-width="1" fill="#191919" d="M68.5,-3.0L74.5,.0L68.5,3.0L68.5,-3.0"/><text style="fill:#191919;font-family:方正书宋简体,PingFang SC,Mircrosoft YaHei,Arial;font-size:10.00pt" xml:space="preserve"><tspan style="font-family:方正书宋简体,PingFang SC,Mircrosoft YaHei,Arial" x="7.0" y="-3.8">硫铵蒸发</tspan><tspan style="font-family:方正书宋简体,PingFang SC,Mircrosoft YaHei,Arial" x="14.2" y="12.2">冷凝水</tspan></text></g><g transform="translate(713.500000,223.500000)" id="shape24"><path stroke="#9b51e0" stroke-width="1" fill-rule="nonzero" fill="#efe9f9" d="M80.5,49.0L80.5,7.0C80.5,3.1,77.4,.0,73.5,.0L7.0,.0C3.1,.0,.0,3.1,.0,7.0L.0,49.0C.0,52.9,3.1,56.0,7.0,56.0L73.5,56.0C77.4,56.0,80.5,52.9,80.5,49.0z"/><text style="fill:#7139a4;font-family:方正书宋简体,PingFang SC,Mircrosoft YaHei,Arial;font-size:13.00pt" xml:space="preserve"><tspan style="font-family:方正书宋简体,PingFang SC,Mircrosoft YaHei,Arial" x="22.6" y="22.4">二级</tspan><tspan style="font-family:方正书宋简体,PingFang SC,Mircrosoft YaHei,Arial" x="10.7" y="42.4">RO浓水</tspan></text></g><g transform="translate(589.000000,161.000000)" id="shape25"><path stroke="#191919" stroke-width="1" d="M.0,.0L.0,-21.5" fill="none"/><path stroke="#191919" stroke-linecap="round" stroke-width="1" fill="#191919" d="M-3.0,-21.5L.0,-27.5L3.0,-21.5L-3.0,-21.5"/></g><g transform="translate(851.250000,318.000000)" id="shape26"><path stroke="#543214" stroke-width="1" fill-rule="nonzero" fill="#ffffff" d="M111.5,36.0L111.5,.0L.0,.0L.0,36.0L111.5,36.0z"/><text style="fill:#191919;font-family:方正书宋简体,PingFang SC,Mircrosoft YaHei,Arial;font-size:13.00pt" xml:space="preserve"><tspan style="font-family:方正书宋简体,PingFang SC,Mircrosoft YaHei,Arial" x="20.6" y="22.4">生化系统</tspan></text></g><g transform="translate(962.750000,336.000000)" id="shape27"><path stroke="#191919" stroke-width="1" d="M.0,.0L54.3,.0" fill="none"/><path stroke="#191919" stroke-linecap="round" stroke-width="1" fill="#191919" d="M54.3,-3.0L60.3,.0L54.3,3.0L54.3,-3.0"/><rect width="28.8" height="16.0" x="17.9" y="-8.3" fill="#ffffff"/><text style="fill:#191919;font-family:方正书宋简体,PingFang SC,Mircrosoft YaHei,Arial;font-size:10.00pt" xml:space="preserve"><tspan style="font-family:方正书宋简体,PingFang SC,Mircrosoft YaHei,Arial" x="17.9" y="3.7">外排</tspan></text></g><g transform="translate(794.000000,179.000000)" id="shape28"><path stroke="#191919" stroke-width="1" d="M.0,.0L14.4,.0" fill="none"/><path stroke="#191919" stroke-linecap="round" stroke-width="1" fill="#191919" d="M14.4,-3.0L20.4,.0L14.4,3.0L14.4,-3.0"/></g><g transform="translate(878.875000,179.000000)" id="shape29"><path stroke="#191919" stroke-width="1" d="M.0,.0L14.9,.0" fill="none"/><path stroke="#191919" stroke-linecap="round" stroke-width="1" fill="#191919" d="M14.9,-3.0L20.9,.0L14.9,3.0L14.9,-3.0"/></g><g transform="translate(1047.630000,179.000000)" id="shape30"><path stroke="#191919" stroke-width="1" d="M.0,.0L14.9,.0" fill="none"/><path stroke="#191919" stroke-linecap="round" stroke-width="1" fill="#191919" d="M14.9,-3.0L20.9,.0L14.9,3.0L14.9,-3.0"/></g><g transform="translate(1132.000000,179.000000)" id="shape31"><path stroke="#191919" stroke-width="1" d="M.0,.0L65.0,.0" fill="none"/><path stroke="#191919" stroke-linecap="round" stroke-width="1" fill="#191919" d="M65.0,-3.0L71.0,.0L65.0,3.0L65.0,-3.0"/><rect width="57.6" height="16.0" x="6.8" y="-8.3" fill="#ffffff"/><text style="fill:#191919;font-family:方正书宋简体,PingFang SC,Mircrosoft YaHei,Arial;font-size:10.00pt" xml:space="preserve"><tspan style="font-family:方正书宋简体,PingFang SC,Mircrosoft YaHei,Arial" x="6.8" y="3.7">锰生产等</tspan></text></g><g transform="translate(1100.250000,197.000000)" id="shape32"><path stroke="#191919" stroke-width="1" d="M.0,.0L.0,120.0L95.8,120.0" fill="none"/><path stroke="#191919" stroke-linecap="round" stroke-width="1" fill="#191919" d="M95.8,117.0L101.8,120.0L95.8,123.0L95.8,117.0"/><rect width="86.4" height="16.0" x="4.3" y="111.7" fill="#ffffff"/><text style="fill:#191919;font-family:方正书宋简体,PingFang SC,Mircrosoft YaHei,Arial;font-size:10.00pt" xml:space="preserve"><tspan style="font-family:方正书宋简体,PingFang SC,Mircrosoft YaHei,Arial" x="4.3" y="123.7">萃取车间配酸</tspan></text></g><g transform="translate(963.250000,179.000000)" id="shape33"><path stroke="#191919" stroke-width="1" d="M.0,.0L14.1,.0" fill="none"/><path stroke="#191919" stroke-linecap="round" stroke-width="1" fill="#191919" d="M14.1,-3.0L20.1,.0L14.1,3.0L14.1,-3.0"/></g><g transform="translate(282.000000,212.333000)" id="shape34"><path stroke="#191919" stroke-width="1" d="M.0,.0L20.0,.0" fill="none"/><path stroke="#191919" stroke-linecap="round" stroke-width="1" fill="#191919" d="M20.0,-3.0L26.0,.0L20.0,3.0L20.0,-3.0"/></g><g transform="translate(753.750000,279.500000)" id="shape35"><path stroke="#191919" stroke-width="1" d="M.0,.0L.0,56.5L91.5,56.5" fill="none"/><path stroke="#191919" stroke-linecap="round" stroke-width="1" fill="#191919" d="M91.5,53.5L97.5,56.5L91.5,59.5L91.5,53.5"/><text style="fill:#191919;font-family:方正书宋简体,PingFang SC,Mircrosoft YaHei,Arial;font-size:10.00pt" xml:space="preserve"><tspan style="font-family:方正书宋简体,PingFang SC,Mircrosoft YaHei,Arial" x="19.7" y="52.7">开路处理</tspan><tspan style="font-family:方正书宋简体,PingFang SC,Mircrosoft YaHei,Arial" x="35.7" y="68.7">COD</tspan></text></g><g transform="translate(753.750000,197.000000)" id="shape36"><path stroke="#191919" stroke-width="1" d="M.0,.0L.0,20.0" fill="none"/><path stroke="#191919" stroke-linecap="round" stroke-width="1" fill="#191919" d="M3.0,20.0L.0,26.0L-3.0,20.0L3.0,20.0"/></g><g transform="translate(282.000000,274.717000)" id="shape37"><path stroke="#191919" stroke-width="1" d="M.0,.0L307.0,.0L307.0,-71.7" fill="none"/><path stroke="#191919" stroke-linecap="round" stroke-width="1" fill="#191919" d="M304.0,-71.7L307.0,-77.7L310.0,-71.7L304.0,-71.7"/></g><g transform="translate(377.250000,290.667000)" id="shape38"><path stroke="#543214" stroke-width="1" fill-rule="nonzero" fill="#ffffff" d="M63.5,36.0L63.5,.0L.0,.0L.0,36.0L63.5,36.0z"/><text style="fill:#191919;font-family:方正书宋简体,PingFang SC,Mircrosoft YaHei,Arial;font-size:13.00pt" xml:space="preserve"><tspan style="font-family:方正书宋简体,PingFang SC,Mircrosoft YaHei,Arial" x="14.2" y="22.4">脱氨</tspan></text></g><g transform="translate(282.000000,308.631000)" id="shape39"><path stroke="#191919" stroke-width="1" d="M.0,.0L1.0,.0L12.0,.0L89.3,.0" fill="none"/><path stroke="#191919" stroke-linecap="round" stroke-width="1" fill="#191919" d="M89.3,-3.0L95.3,.0L89.3,3.0L89.3,-3.0"/></g><g transform="translate(440.750000,308.667000)" id="shape40"><path stroke="#191919" stroke-width="1" d="M.0,.0L70.3,.0" fill="none"/><path stroke="#191919" stroke-linecap="round" stroke-width="1" fill="#191919" d="M70.3,-3.0L76.3,.0L70.3,3.0L70.3,-3.0"/><rect width="28.8" height="16.0" x="25.4" y="-8.3" fill="#ffffff"/><text style="fill:#191919;font-family:方正书宋简体,PingFang SC,Mircrosoft YaHei,Arial;font-size:10.00pt" xml:space="preserve"><tspan style="font-family:方正书宋简体,PingFang SC,Mircrosoft YaHei,Arial" x="25.4" y="3.7">外排</tspan></text></g><path stroke="#191919" transform="translate(282.000000,360.534000)" id="shape41" stroke-width="1" d="M.0,.0L307.0,.0L307.0,-163.5" fill="none"/><g transform="translate(89.000000,194.333000)" id="shape42"><path stroke="#191919" stroke-width="1" d="M.0,.0L.0,-14.3" fill="none"/><path stroke="#191919" stroke-linecap="round" stroke-width="1" fill="#191919" d="M-3.0,-14.3L.0,-20.3L3.0,-14.3L-3.0,-14.3"/></g><g transform="translate(89.000000,113.500000)" id="shape43"><path stroke="#191919" stroke-width="1" d="M.0,.0L.0,18.5" fill="none"/><path stroke="#191919" stroke-linecap="round" stroke-width="1" fill="#191919" d="M3.0,18.5L.0,24.5L-3.0,18.5L3.0,18.5"/></g><g transform="translate(1100.250000,161.000000)" id="shape44"><path stroke="#191919" stroke-width="1" d="M.0,.0L.0,-112.0L-1011.3,-112.0L-1011.3,-89.5" fill="none"/><path stroke="#191919" stroke-linecap="round" stroke-width="1" fill="#191919" d="M-1008.3,-89.5L-1011.3,-83.5L-1014.3,-89.5L-1008.3,-89.5"/><rect width="86.4" height="16.0" x="-658.8" y="-120.3" fill="#ffffff"/><text style="fill:#191919;font-family:方正书宋简体,PingFang SC,Mircrosoft YaHei,Arial;font-size:10.00pt" xml:space="preserve"><tspan style="font-family:方正书宋简体,PingFang SC,Mircrosoft YaHei,Arial" x="-658.8" y="-108.3">产品分厂洗液</tspan></text></g><g transform="translate(165.000000,403.333000)" id="shape45"><path stroke="#9b51e0" stroke-width="1" fill-rule="nonzero" fill="#efe9f9" d="M117.0,29.0L117.0,7.0C117.0,3.1,113.9,.0,110.0,.0L7.0,.0C3.1,.0,.0,3.1,.0,7.0L.0,29.0C.0,32.9,3.1,36.0,7.0,36.0L110.0,36.0C113.9,36.0,117.0,32.9,117.0,29.0z"/><text style="fill:#7139a4;font-family:方正书宋简体,PingFang SC,Mircrosoft YaHei,Arial;font-size:13.00pt" xml:space="preserve"><tspan style="font-family:方正书宋简体,PingFang SC,Mircrosoft YaHei,Arial" x="5.7" y="22.4">铵线硫酸镁液</tspan></text></g><g transform="translate(308.000000,403.333000)" id="shape46"><path stroke="#543214" stroke-width="1" fill-rule="nonzero" fill="#ffffff" d="M100.0,36.0L100.0,.0L.0,.0L.0,36.0L100.0,36.0z"/><text style="fill:#191919;font-family:方正书宋简体,PingFang SC,Mircrosoft YaHei,Arial;font-size:13.00pt" xml:space="preserve"><tspan style="font-family:方正书宋简体,PingFang SC,Mircrosoft YaHei,Arial" x="6.0" y="22.4">硫化铵沉镍</tspan></text></g><g transform="translate(539.000000,403.333000)" id="shape47"><path stroke="#543214" stroke-width="1" fill-rule="nonzero" fill="#ffffff" d="M100.0,36.0L100.0,.0L.0,.0L.0,36.0L100.0,36.0z"/><text style="fill:#191919;font-family:方正书宋简体,PingFang SC,Mircrosoft YaHei,Arial;font-size:13.00pt" xml:space="preserve"><tspan style="font-family:方正书宋简体,PingFang SC,Mircrosoft YaHei,Arial" x="13.6" y="22.4">MVR蒸发</tspan></text></g><g transform="translate(358.000000,439.333000)" id="shape48"><path stroke="#191919" stroke-width="1" d="M.0,.0L.0,38.7L334.0,38.7" fill="none"/><path stroke="#191919" stroke-linecap="round" stroke-width="1" fill="#191919" d="M334.0,35.7L340.0,38.7L334.0,41.7L334.0,35.7"/><rect width="195.2" height="16.0" x="60.1" y="30.4" fill="#ffffff"/><text style="fill:#191919;font-family:方正书宋简体,PingFang SC,Mircrosoft YaHei,Arial;font-size:10.00pt" xml:space="preserve"><tspan style="font-family:方正书宋简体,PingFang SC,Mircrosoft YaHei,Arial" x="60.1" y="42.4">铵线沉镍回收料(火法分厂处理)</tspan></text></g><g transform="translate(282.000000,421.333000)" id="shape49"><path stroke="#191919" stroke-width="1" d="M.0,.0L20.0,.0" fill="none"/><path stroke="#191919" stroke-linecap="round" stroke-width="1" fill="#191919" d="M20.0,-3.0L26.0,.0L20.0,3.0L20.0,-3.0"/></g><g transform="translate(408.000000,421.333000)" id="shape50"><path stroke="#191919" stroke-width="1" d="M.0,.0L125.0,.0" fill="none"/><path stroke="#191919" stroke-linecap="round" stroke-width="1" fill="#191919" d="M125.0,-3.0L131.0,.0L125.0,3.0L125.0,-3.0"/></g><g transform="translate(706.000000,403.333000)" id="shape51"><path stroke="#156d3b" stroke-width="1" fill-rule="nonzero" fill="#e8efe9" d="M201.8,29.0L201.8,7.0C201.8,3.1,198.6,.0,194.8,.0L7.0,.0C3.1,.0,.0,3.1,.0,7.0L.0,29.0C.0,32.9,3.1,36.0,7.0,36.0L194.8,36.0C198.6,36.0,201.8,32.9,201.8,29.0z"/><text style="fill:#156d3b;font-family:方正书宋简体,PingFang SC,Mircrosoft YaHei,Arial;font-size:13.00pt" xml:space="preserve"><tspan style="font-family:方正书宋简体,PingFang SC,Mircrosoft YaHei,Arial" x="17.3" y="22.4">102型硫酸铵（外售）</tspan></text></g><g transform="translate(639.000000,421.333000)" id="shape52"><path stroke="#191919" stroke-width="1" d="M.0,.0L61.0,.0" fill="none"/><path stroke="#191919" stroke-linecap="round" stroke-width="1" fill="#191919" d="M61.0,-3.0L67.0,.0L61.0,3.0L61.0,-3.0"/></g><g transform="translate(930.247500,233.500000)" id="shape53"><text style="fill:#b29335;font-family:方正书宋简体,PingFang SC,Mircrosoft YaHei,Arial;font-size:13.00pt;font-weight:bold" xml:space="preserve"><tspan style="font-family:方正书宋简体,PingFang SC,Mircrosoft YaHei,Arial" x="6.9" y="22.4">水回用处理系统</tspan></text></g><path stroke="#191919" transform="translate(282.000000,374.262000)" id="shape54" stroke-width="1" d="M.0,.0L445.8,.0L445.8,-38.3L471.8,-38.3" fill="none"/></g></svg>