<svg viewBox="0 0 311.27 207.57" xmlns="http://www.w3.org/2000/svg" xmlns:xlink="http://www.w3.org/1999/xlink" id="a" overflow="hidden"><defs></defs><g id="b"><path d="M38.31 9.6 38.41 9.65 38.51 9.75 38.61 9.8 38.71 9.85 38.76 9.9 38.86 10 38.96 10 39.06 10.05 39.11 10.1 39.21 10.15 39.31 10.15 39.41 10.2 39.46 10.25 39.56 10.3 39.66 10.35 39.76 10.35 39.81 10.45 39.91 10.5 40.02 10.55 40.12 10.6 40.17 10.65 40.27 10.65 40.38 10.7 40.48 10.75 40.58 10.8 40.63 10.85 40.73 10.9 40.83 10.95 40.93 10.95 40.98 11 41.08 11.05 41.18 11.1 41.28 11.15 41.33 11.2 41.43 11.25 41.53 11.3 41.63 11.35 41.68 11.4 41.78 11.45 41.88 11.55 41.98 11.55 42.08 11.65 42.13 11.7 42.23 11.75 42.34 11.8 42.44 11.9 42.49 11.95 42.59 12 42.7 12.1 42.8 12.15 42.85 12.25 42.95 12.35 43.06 12.4 43.16 12.5 43.21 12.6 43.31 12.65 43.41 12.75 43.51 12.85 43.56 12.95 43.77 13.16 43.87 13.26 43.97 13.36 44.02 13.46 44.12 13.56 44.22 13.66 44.32 13.82 44.37 13.92 44.47 14.02 44.57 14.12 44.67 14.22 44.72 14.37 44.83 14.47 44.93 14.62 45.04 14.77 45.09 14.87 45.2 15.03 45.3 15.13 45.41 15.28 45.46 15.44 45.57 15.59 45.67 15.74 45.78 15.9 45.88 16.06 45.93 16.22 46.03 16.37 46.14 16.53 46.24 16.68 46.29 16.89 46.39 17.04 46.5 17.2 46.6 17.41 46.65 17.56 46.75 17.72 46.86 17.93 46.96 18.09 47.01 18.3 47.11 18.51 47.21 18.67 47.31 18.88 47.36 19.09 47.47 19.3 47.68 19.71 47.78 19.92 47.83 20.13 47.93 20.34 48.03 20.6 48.13 20.81 48.18 21.02 48.28 21.23 48.38 21.44 48.48 21.7 48.53 21.91 48.63 22.17 48.73 22.38 48.84 22.64 48.89 22.85 48.99 23.11 49.09 23.32 49.2 23.58 49.25 23.84 49.35 24.05 49.45 24.31 49.55 24.57 49.65 24.83 49.7 25.09 49.81 25.35 49.91 25.56 50.01 25.82 50.06 26.08 50.17 26.34 50.27 26.6 50.37 26.86 50.42 27.12 50.52 27.38 50.62 27.64 50.72 27.9 50.77 28.16 50.87 28.37 51.08 28.89 51.13 29.15 51.23 29.41 51.33 29.67 51.43 29.93 51.54 30.19 51.59 30.45 51.8 30.97 51.91 31.23 51.96 31.44 52.06 31.7 52.17 31.96 52.27 32.22 52.32 32.43 52.42 32.69 52.53 32.95 52.63 33.16 52.68 33.42 52.78 33.68 52.88 33.89 53.09 34.41 53.14 34.62 53.24 34.88 53.34 35.09 53.44 35.35 53.49 35.56 53.59 35.77 53.69 36.03 53.79 36.24 53.84 36.45 53.94 36.66 54.04 36.87 54.14 37.08 54.19 37.34 54.29 37.55 54.39 37.76 54.49 37.97 54.54 38.18 54.65 38.39 54.75 38.6 54.86 38.81 54.96 38.96 55.01 39.17 55.11 39.38 55.22 39.54 55.32 39.75 55.37 39.91 55.47 40.12 55.57 40.33 55.67 40.48 55.72 40.64 55.82 40.85 55.92 41 56.02 41.15 56.07 41.31 56.17 41.46 56.27 41.67 56.37 41.83 56.42 41.98 56.52 42.13 56.62 42.29 56.72 42.44 56.82 42.6 56.87 42.75 56.98 42.9 57.08 43 57.19 43.15 57.24 43.31 57.34 43.41 57.45 43.57 57.55 43.72 57.6 43.82 57.7 43.97 57.81 44.07 57.91 44.22 57.96 44.32 58.06 44.47 58.16 44.57 58.26 44.72 58.31 44.82 58.41 44.92 58.51 45.02 58.61 45.12 58.71 45.28 58.76 45.38 58.86 45.48 58.96 45.58 59.06 45.68 59.11 45.78 59.21 45.88 59.31 45.98 59.41 46.08 59.46 46.18 59.57 46.28 59.67 46.38 59.77 46.48 59.82 46.58 59.93 46.63 60.03 46.73 60.14 46.78 60.19 46.88 60.3 46.98 60.4 47.03 60.51 47.13 60.61 47.23 60.66 47.28 60.76 47.38 60.86 47.48 60.96 47.53 61.01 47.64 61.11 47.69 61.21 47.79 61.31 47.84 61.36 47.94 61.46 47.99 61.56 48.04 61.66 48.14 61.71 48.19 61.81 48.24 61.91 48.34 62.01 48.39 62.06 48.49 62.16 48.54 62.27 48.59 62.37 48.69 62.48 48.74 62.53 48.79 62.64 48.84 62.74 48.94 62.85 48.99 62.9 49.04 63.01 49.14 63.11 49.19 63.22 49.24 63.27 49.29 63.37 49.34 63.47 49.39 63.57 49.49 63.62 49.54 63.72 49.59 63.82 49.64 63.92 49.69 64.02 49.74 64.07 49.79 64.17 49.89 64.27 49.94 64.37 49.99 64.42 50.04 64.52 50.09 64.62 50.14 64.72 50.19 64.77 50.24 64.87 50.29 64.98 50.34 65.08 50.39 65.13 50.44 65.23 50.49 65.34 50.54 65.44 50.59 65.49 50.64 65.59 50.69 65.69 50.74 65.79 50.79 65.89 50.84 65.94 50.94 66.04 50.99 66.14 51.04 66.24 51.09 66.29 51.14 66.39 51.19 66.49 51.24 66.59 51.24 66.64 51.29 66.74 51.34 66.84 51.39 66.94 51.44 66.99 51.54 67.1 51.59 67.2 51.64 67.3 51.64 67.46 51.8 67.56 51.85 67.67 51.9 67.77 51.95 67.82 52 67.92 52.05 68.03 52.1 68.13 52.15 68.18 52.2 68.28 52.25 68.38 52.3 68.49 52.4 68.54 52.45 68.64 52.45 68.74 52.5 68.84 52.55 68.89 52.65 68.99 52.7 69.09 52.75 69.19 52.8 69.24 52.85 69.34 52.9 69.44 52.95 69.54 53 69.64 53.05 69.69 53.15 69.79 53.2 69.89 53.25 69.99 53.3 70.04 53.35 70.14 53.4 70.25 53.5 70.35 53.55 70.4 53.6 70.5 53.65 70.61 53.7 70.71 53.8 70.76 53.85 70.86 53.9 70.96 53.95 71.06 54 71.11 54.1 71.21 54.15 71.31 54.2 71.41 54.25 71.51 54.35 71.56 54.4 71.66 54.45 71.76 54.5 71.86 54.6 72.02 54.76 72.12 54.81 72.22 54.86 72.27 54.96 72.37 55.01 72.47 55.11 72.57 55.16 72.62 55.21 72.72 55.32 72.82 55.37 72.93 55.47 72.98 55.52 73.08 55.62 73.18 55.67 73.29 55.77 73.39 55.82 73.44 55.92 73.55 55.97 73.65 56.07 73.75 56.12 73.8 56.22 73.91 56.32 74.01 56.37 74.17 56.52 74.27 56.62 74.37 56.72 74.47 56.77 74.52 56.87 74.62 56.97 74.83 57.18 74.93 57.23 74.98 57.33 75.08 57.43 75.18 57.48 75.29 57.58 75.34 57.68 75.44 57.78 75.54 57.88 75.64 57.93 75.69 58.03 75.79 58.13 75.89 58.23 75.99 58.33 76.04 58.43 76.14 58.53 76.25 58.63 76.35 58.73 76.4 58.83 76.5 58.93 76.61 59.03 76.82 59.24 76.87 59.34 76.97 59.44 77.07 59.59 77.17 59.69 77.22 59.79 77.32 59.89 77.42 60.04 77.52 60.14 77.57 60.24 77.67 60.34 77.77 60.5 77.87 60.6 77.92 60.7 78.02 60.85 78.12 60.95 78.22 61.1 78.27 61.26 78.38 61.36 78.48 61.51 78.59 61.61 78.69 61.76 78.74 61.92 78.84 62.07 78.95 62.17 79.05 62.33 79.1 62.48 79.2 62.63 79.31 62.79 79.41 62.94 79.46 63.1 79.57 63.25 79.68 63.41 79.78 63.56 79.83 63.77 79.93 63.92 80.04 64.08 80.14 64.29 80.19 64.44 80.29 64.59 80.4 64.8 80.5 65.01 80.61 65.17 80.66 65.38 80.76 65.59 80.86 65.8 80.96 65.96 81.01 66.17 81.11 66.38 81.21 66.59 81.31 66.8 81.36 67.06 81.46 67.27 81.56 67.48 81.66 67.74 81.71 67.95 81.81 68.21 81.91 68.42 82.01 68.68 82.06 68.89 82.16 69.15 82.26 69.41 82.37 69.67 82.47 69.93 82.52 70.19 82.62 70.45 82.73 70.71 82.83 70.97 82.88 71.28 82.98 71.54 83.08 71.8 83.18 72.11 83.23 72.37 83.33 72.68 83.43 72.94 83.53 73.25 83.58 73.51 83.68 73.82 83.78 74.08 83.88 74.39 83.93 74.7 84.03 74.96 84.13 75.27 84.23 75.53 84.33 75.84 84.38 76.15 84.48 76.41 84.58 76.72 84.68 76.98 84.73 77.29 84.83 77.55 84.93 77.86 85.04 78.17 85.09 78.43 85.19 78.69 85.29 79 85.4 79.26 85.45 79.52 85.55 79.83 85.65 80.09 85.75 80.35 85.85 80.61 85.9 80.87 86 81.13 86.1 81.39 86.2 81.65 86.25 81.91 86.35 82.17 86.45 82.38 86.55 82.64 86.6 82.85 86.7 83.11 86.8 83.32 86.9 83.58 86.95 83.79 87.05 84 87.15 84.21 87.25 84.42 87.3 84.58 87.4 84.79 87.61 85.2 87.72 85.36 87.77 85.57 87.87 85.73 87.97 85.94 88.08 86.09 88.13 86.25 88.23 86.4 88.34 86.55 88.44 86.71 88.49 86.87 88.59 87.02 88.7 87.12 88.8 87.27 88.85 87.43 88.95 87.58 89.05 87.68 89.15 87.78 89.2 87.94 89.41 88.15 89.51 88.25 89.61 88.41 89.66 88.51 89.76 88.61 89.86 88.71 89.96 88.76 90.01 88.86 90.11 88.96 90.21 89.06 90.31 89.11 90.36 89.21 90.47 89.31 90.57 89.41 90.68 89.46 90.73 89.56 90.83 89.66 90.93 89.71 91.03 89.76 91.08 89.86 91.18 89.91 91.28 90.01 91.38 90.06 91.54 90.22 91.64 90.27 91.75 90.37 91.85 90.42 91.9 90.52 92 90.57 92.11 90.62 92.21 90.72 92.26 90.77 92.36 90.82 92.47 90.92 92.57 90.97 92.62 91.02 92.72 91.12 92.82 91.17 92.92 91.22 92.97 91.27 93.07 91.32 93.17 91.37 93.27 91.47 93.37 91.52 93.42 91.57 93.52 91.67 93.62 91.72 93.72 91.77 93.77 91.82 93.87 91.87 93.97 91.92 94.07 92.02 94.12 92.07 94.23 92.12 94.33 92.17 94.44 92.22 94.49 92.27 94.6 92.32 94.7 92.37 94.81 92.42 94.86 92.52 94.96 92.57 95.06 92.62 95.16 92.67 95.26 92.72 95.31 92.77 95.41 92.82 95.51 92.92 95.61 92.97 95.66 93.02 95.76 93.07 95.86 93.07 95.96 93.12 96.01 93.22 96.11 93.27 96.21 93.27 96.31 93.32 96.36 93.37 96.46 93.47 96.56 93.52 96.66 93.57 96.76 93.62 96.81 93.67 96.92 93.72 97.02 93.77 97.13 93.82 97.18 93.87 97.28 93.92 97.38 93.97 97.49 94.02 97.54 94.07 97.64 94.12 97.74 94.17 97.84 94.22 97.89 94.27 97.99 94.32 98.09 94.37 98.19 94.42 98.24 94.53 98.34 94.58 98.44 94.63 98.54 94.68 98.64 94.73 98.69 94.78 98.79 94.83 98.89 94.88 98.99 94.93 99.04 94.98 99.14 95.03 99.24 95.08 99.34 95.13 99.39 95.18 99.49 95.23 99.59 95.33 99.69 95.38 99.74 95.43 99.84 95.48 99.94 95.53 100.04 95.58 100.09 95.68 100.2 95.68 100.3 95.78 100.4 95.78 100.5 95.88 100.55 95.93 100.65 95.98 100.75 96.03 100.85 96.08 100.9 96.13 101 96.18 101.1 96.23 101.2 96.28 101.25 96.33 101.35 96.43 101.45 96.48 101.55 96.53 101.6 96.58 101.7 96.63 101.81 96.68 101.91 96.73 101.96 96.78 102.06 96.83 102.16 96.93 102.26 96.98 102.37 97.03 102.42 97.08 102.52 97.13 102.62 97.18 102.73 97.28 102.78 97.33 102.88 97.38 102.98 97.43 103.08 97.48 103.13 97.53 103.23 97.58 103.33 97.63 103.43 97.68 103.48 97.78 103.58 97.83 103.68 97.88 103.78 97.93 103.83 97.98 103.93 98.03 104.03 98.08 104.13 98.13 104.23 98.23 104.28 98.28 104.38 98.33 104.48 98.38 104.58 98.43 104.63 98.53 104.73 98.58 104.83 98.63 104.93 98.68 104.98 98.73 105.08 98.78 105.18 98.83 105.28 98.88 105.33 98.93 105.44 99.03 105.54 99.08 105.65 99.13 105.75 99.18 105.8 99.23 105.9 99.28 106.01 99.38 106.11 99.43 106.16 99.48 106.26 99.53 106.36 99.63 106.46 99.68 106.51 99.73 106.61 99.78 106.71 99.83 106.81 99.88 106.86 99.93 106.96 99.98 107.06 100.03 107.16 100.13 107.21 100.18 107.31 100.23 107.41 100.28 107.51 100.33 107.61 100.43 107.66 100.48 107.77 100.53 107.87 100.58 107.98 100.63 108.03 100.73 108.14 100.78 108.24 100.83 108.35 100.88 108.4 100.93 108.51 100.98 108.61 101.03 108.72 101.08 108.77 101.13 108.87 101.18 108.97 101.23 109.07 101.28 109.12 101.33 109.22 101.38 109.32 101.43 109.42 101.48 109.52 101.53 109.57 101.58 109.67 101.68 109.77 101.73 109.87 101.78 109.92 101.83 110.02 101.88 110.12 101.93 110.22 101.98 110.27 102.08 110.37 102.08 110.48 102.19 110.58 102.24 110.63 102.29 110.73 102.34 110.84 102.39 110.94 102.44 110.99 102.49 111.09 102.54 111.19 102.59 111.29 102.64 111.4 102.69 111.45 102.74 111.55 102.79 111.65 102.84 111.75 102.89 111.8 102.99 111.9 103.04 112 103.09 112.1 103.09 112.15 103.14 112.25 103.19 112.35 103.24 112.45 103.29 112.5 103.34 112.6 103.39 112.7 103.49 112.8 103.49 112.85 103.54 112.96 103.59 113.07 103.64 113.17 103.69 113.28 103.74 113.33 103.79 113.44 103.84 113.54 103.89 113.65 103.89 113.7 103.94 113.81 103.99 113.91 104.04 114.02 104.09 114.07 104.14 114.17 104.19 114.27 104.24 114.37 104.29 114.42 104.34 114.52 104.39 114.62 104.44 114.72 104.49 114.77 104.54 114.87 104.59 114.97 104.59 115.07 104.64 115.17 104.69 115.22 104.74 115.32 104.79 115.42 104.84 115.52 104.89 115.57 104.94 115.67 104.99 115.78 105.04 115.88 105.09 115.93 105.14 116.03 105.19 116.14 105.24 116.24 105.29 116.29 105.34 116.39 105.39 116.49 105.39 116.59 105.44 116.69 105.49 116.74 105.54 116.84 105.59 116.94 105.64 117.04 105.69 117.09 105.74 117.19 105.79 117.29 105.84 117.39 105.89 117.44 105.94 117.54 105.99 117.64 106.04 117.74 106.04 117.79 106.09 117.89 106.14 117.99 106.19 118.09 106.24 118.14 106.29 118.25 106.34 118.35 106.39 118.46 106.44 118.56 106.49 118.61 106.54 118.71 106.54 118.82 106.59 118.92 106.64 118.97 106.69 119.07 106.74 119.17 106.79 119.27 106.79 119.32 106.84 119.42 106.89 119.52 106.94 119.62 106.99 119.67 107.04 119.77 107.09 119.87 107.14 119.97 107.19 120.02 107.24 120.12 107.29 120.22 107.29 120.32 107.34 120.42 107.39 120.47 107.44 120.58 107.49 120.68 107.54 120.79 107.59 120.84 107.59 120.94 107.64 121.04 107.74 121.15 107.74 121.2 107.79 121.3 107.84 121.4 107.89 121.51 107.94 121.56 107.99 121.66 108.04 121.76 108.04 121.86 108.09 121.91 108.14 122.01 108.19 122.11 108.19 122.21 108.24 122.31 108.34 122.36 108.39 122.46 108.39 122.56 108.44 122.66 108.49 122.71 108.54 122.81 108.59 122.91 108.64 123.01 108.69 123.06 108.74 123.16 108.79 123.26 108.84 123.36 108.89 123.41 108.94 123.51 108.99 123.61 109.04 123.71 109.09 123.76 109.14 123.87 109.19 123.97 109.24 124.08 109.29 124.18 109.34 124.23 109.39 124.33 109.44 124.43 109.44 124.53 109.49 124.58 109.54 124.68 109.59 124.78 109.64 124.88 109.69 124.93 109.74 125.03 109.79 125.14 109.84 125.24 109.89 125.29 109.94 125.39 109.99 125.5 110.04 125.6 110.09 125.65 110.14 125.75 110.19 125.86 110.24 125.96 110.29 126.07 110.34 126.12 110.39 126.22 110.44 126.32 110.49 126.42 110.59 126.47 110.64 126.57 110.69 126.67 110.74 126.77 110.79 126.82 110.84 126.92 110.89 127.02 110.94 127.12 110.99 127.17 111.04 127.27 111.14 127.37 111.19 127.47 111.24 127.57 111.29 127.62 111.34 127.72 111.44 127.83 111.49 127.93 111.54 127.98 111.59 128.08 111.64 128.19 111.74 128.29 111.79 128.34 111.84 128.44 111.89 128.54 111.94 128.64 112.04 128.69 112.09 128.79 112.14 128.89 112.19 128.99 112.29 129.04 112.34 129.14 112.39 129.24 112.49 129.34 112.54 129.44 112.59 129.49 112.64 129.59 112.74 129.69 112.79 129.79 112.84 129.84 112.94 129.94 112.99 130.04 113.04 130.14 113.14 130.19 113.19 130.3 113.29 130.4 113.34 130.51 113.44 130.56 113.49 130.67 113.59 130.77 113.64 130.88 113.74 130.93 113.79 131.03 113.89 131.13 113.94 131.23 114.04 131.33 114.14 131.38 114.24 131.48 114.29 131.58 114.39 131.68 114.44 131.73 114.54 131.83 114.64 131.93 114.69 132.03 114.79 132.08 114.89 132.18 114.99 132.28 115.04 132.38 115.14 132.43 115.24 132.64 115.45 132.74 115.5 132.79 115.6 132.89 115.7 133 115.8 133.1 115.9 133.21 116 133.26 116.1 133.37 116.2 133.47 116.3 133.58 116.4 133.63 116.5 133.73 116.6 133.83 116.76 133.93 116.86 133.98 116.96 134.08 117.06 134.18 117.16 134.28 117.26 134.33 117.42 134.54 117.63 134.64 117.78 134.69 117.88 134.79 118.03 134.89 118.13 134.99 118.23 135.09 118.33 135.14 118.48 135.25 118.58 135.35 118.68 135.45 118.83 135.5 118.93 135.61 119.03 135.71 119.19 135.82 119.29 135.87 119.44 135.97 119.59 136.07 119.69 136.18 119.84 136.23 119.94 136.33 120.09 136.43 120.24 136.53 120.34 136.58 120.5 136.68 120.65 136.78 120.75 136.88 120.91 136.98 121.06 137.03 121.21 137.13 121.37 137.23 121.52 137.33 121.62 137.38 121.78 137.48 121.93 137.58 122.08 137.68 122.24 137.73 122.39 137.83 122.55 137.94 122.7 138.04 122.85 138.09 123.01 138.19 123.16 138.29 123.32 138.39 123.47 138.5 123.63 138.55 123.78 138.65 123.93 138.75 124.09 138.86 124.24 138.91 124.4 139.12 124.71 139.22 124.92 139.27 125.08 139.37 125.24 139.47 125.39 139.57 125.55 139.62 125.76 139.72 125.91 139.82 126.07 139.92 126.28 139.97 126.43 140.07 126.58 140.17 126.79 140.27 126.94 140.37 127.15 140.42 127.3 140.52 127.45 140.62 127.66 140.72 127.82 140.77 128.03 140.87 128.18 140.97 128.34 141.07 128.55 141.12 128.71 141.23 128.86 141.33 129.07 141.43 129.22 141.48 129.43 141.59 129.58 141.69 129.79 141.79 129.94 141.84 130.09 141.95 130.25 142.05 130.46 142.16 130.61 142.26 130.82 142.31 130.97 142.41 131.13 142.51 131.28 142.61 131.49 142.66 131.7 142.76 131.85 142.86 132.01 142.96 132.16 143.01 132.32 143.11 132.53 143.21 132.68 143.31 132.83 143.36 133.04 143.46 133.2 143.56 133.36 143.66 133.51 143.71 133.66 143.81 133.82 143.92 133.97 144.02 134.13 144.12 134.28 144.17 134.43 144.28 134.59 144.38 134.69 144.49 134.84 144.54 135 144.64 135.1 144.74 135.25 144.85 135.4 144.9 135.5 145 135.66 145.1 135.81 145.2 135.91 145.25 136.06 145.35 136.22 145.45 136.32 145.55 136.42 145.6 136.52 145.7 136.62 145.8 136.77 145.9 136.87 146 136.97 146.05 137.12 146.15 137.22 146.25 137.32 146.36 137.42 146.41 137.58 146.51 137.63 146.61 137.78 146.71 137.88 146.76 137.98 146.86 138.08 146.96 138.18 147.06 138.28 147.11 138.38 147.21 138.48 147.31 138.58 147.41 138.68 147.46 138.78 147.56 138.88 147.67 138.93 147.77 139.03 147.88 139.13 147.93 139.23 148.04 139.28 148.25 139.49 148.3 139.59 148.4 139.69 148.5 139.74 148.6 139.84 148.65 139.94 148.75 139.99 148.85 140.09 148.95 140.19 149 140.24 149.1 140.34 149.2 140.39 149.3 140.49 149.4 140.54 149.45 140.64 149.55 140.74 149.65 140.79 149.75 140.9 149.8 140.95 149.9 141.05 150.01 141.1 150.11 141.2 150.16 141.3 150.26 141.35 150.37 141.4 150.47 141.5 150.52 141.55 150.62 141.65 150.73 141.7 150.83 141.75 150.88 141.85 150.99 141.9 151.09 142 151.19 142.05 151.29 142.1 151.34 142.2 151.44 142.25 151.54 142.3 151.64 142.35 151.69 142.45 151.79 142.5 151.89 142.6 151.99 142.65 152.04 142.7 152.14 142.75 152.24 142.8 152.34 142.9 152.39 142.95 152.49 143 152.59 143.05 152.7 143.15 152.75 143.2 152.85 143.25 152.95 143.3 153.06 143.4 153.16 143.45 153.21 143.5 153.32 143.55 153.42 143.6 153.52 143.65 153.57 143.7 153.68 143.75 153.78 143.85 153.88 143.9 153.93 143.95 154.04 144 154.14 144.05 154.24 144.1 154.29 144.15 154.39 144.2 154.49 144.25 154.59 144.35 154.64 144.35 154.74 144.45 154.84 144.5 154.94 144.55 155.04 144.6 155.09 144.65 155.19 144.7 155.29 144.7 155.39 144.75 155.44 144.8 155.54 144.85 155.64 144.9 155.74 144.95 155.79 145 155.89 145.05 156 145.1 156.1 145.15 156.15 145.2 156.25 145.25 156.36 145.3 156.46 145.35 156.51 145.4 156.61 145.45 156.71 145.5 156.81 145.55 156.91 145.6 156.96 145.6 157.06 145.65 157.16 145.7 157.26 145.75 157.31 145.8 157.41 145.8 157.52 145.85 157.62 145.9 157.67 145.95 157.77 146 157.87 146.05 157.97 146.1 158.02 146.15 158.12 146.2 158.22 146.25 158.32 146.3 158.42 146.35 158.47 146.35 158.58 146.4 158.68 146.45 158.78 146.5 158.83 146.55 158.94 146.55 159.04 146.6 159.14 146.65 159.19 146.65 159.3 146.7 159.4 146.75 159.51 146.8 159.56 146.85 159.66 146.9 159.76 146.9 159.86 146.95 159.91 147 160.01 147.05 160.11 147.05 160.21 147.1 160.31 147.1 160.36 147.15 160.46 147.2 160.56 147.25 160.66 147.25 160.71 147.3 160.81 147.35 160.91 147.35 161.01 147.4 161.06 147.45 161.16 147.45 161.27 147.5 161.37 147.55 161.42 147.6 161.52 147.65 161.63 147.65 161.73 147.7 161.78 147.7 161.88 147.75 161.98 147.75 162.08 147.8 162.19 147.85 162.24 147.9 162.34 147.9 162.44 147.95 162.54 147.95 162.59 148 162.69 148 162.79 148.05 162.89 148.05 162.94 148.1 163.04 148.15 163.14 148.15 163.24 148.2 163.29 148.25 163.39 148.25 163.49 148.3 163.59 148.3 163.64 148.35 163.75 148.35 163.85 148.4 163.96 148.4 164.06 148.45 164.11 148.45 164.21 148.5 164.32 148.55 164.42 148.55 164.47 148.6 164.57 148.6 164.67 148.65 164.77 148.65 164.82 148.7 164.92 148.7 165.02 148.75 165.12 148.75 165.17 148.8 165.38 148.8 165.48 148.85 165.53 148.9 165.74 148.9 165.84 148.95 165.94 148.95 165.99 149 166.1 149 166.2 149.05 166.31 149.05 166.36 149.1 166.57 149.1 166.68 149.15 166.73 149.15 166.84 149.2 166.94 149.2 167.05 149.25 167.1 149.3 167.2 149.3 167.3 149.35 167.46 149.35 167.56 149.4 167.66 149.4 167.76 149.45 167.86 149.45 167.91 149.5 168.01 149.5 168.11 149.55 168.27 149.55 168.37 149.6 168.47 149.6 168.57 149.65 168.62 149.65 168.73 149.7 168.83 149.7 168.93 149.75 168.98 149.75 169.08 149.8 169.29 149.8 169.39 149.85 169.44 149.85 169.54 149.9 169.75 149.9 169.8 149.95 169.9 149.95 170 150 170.1 150.05 170.15 150.05 170.25 150.1 170.35 150.1 170.45 150.15 170.5 150.15 170.6 150.2 170.81 150.2 170.86 150.25 170.96 150.25 171.07 150.3 171.17 150.3 171.27 150.35 171.32 150.35 171.43 150.4 171.53 150.4 171.63 150.45 171.89 150.45 171.99 150.5 172.04 150.55 172.14 150.55 172.24 150.6 172.34 150.6 172.39 150.65 172.49 150.65 172.59 150.7 172.69 150.7 172.74 150.75 172.84 150.75 172.94 150.8 173.15 150.8 173.2 150.85 173.3 150.85 173.41 150.9 173.51 150.95 173.56 150.95 173.66 151 173.77 151.05 173.92 151.05 174.02 151.1 174.13 151.1 174.23 151.15 174.28 151.15 174.38 151.2 174.59 151.2 174.64 151.25 174.74 151.25 174.84 151.3 175.05 151.3 175.1 151.35 175.2 151.4 175.3 151.45 175.46 151.45 175.56 151.5 175.77 151.5 175.82 151.55 175.93 151.55 176.03 151.6 176.14 151.65 176.3 151.65 176.4 151.7 176.56 151.7 176.66 151.75 176.87 151.75 176.97 151.8 177.02 151.8 177.12 151.85 177.22 151.85 177.32 151.9 177.37 151.9 177.47 151.95 177.68 151.95 177.73 152 178.04 152 178.09 152.05 178.19 152.05 178.3 152.1 178.46 152.1 178.56 152.15 178.77 152.15 178.88 152.2 178.93 152.2 179.04 152.25 179.25 152.25 179.3 152.3 179.51 152.3 179.61 152.35 179.77 152.35 179.87 152.4 179.98 152.4 180.03 152.45 180.24 152.45 180.34 152.5 180.5 152.5 180.6 152.55 180.7 152.55 180.8 152.6 181.16 152.6 181.21 152.65 181.32 152.65 181.42 152.7 181.58 152.7 181.69 152.75 181.9 152.75 181.95 152.8 182.26 152.8 182.36 152.85 182.52 152.85 182.62 152.9 182.88 152.9 182.98 152.95 183.14 152.95 183.24 153 183.5 153 183.6 153.05 183.86 153.05 183.96 153.1 184.17 153.1 184.28 153.15 184.64 153.15 184.69 153.2 185.16 153.2 185.26 153.25 185.52 153.25 185.62 153.3 186.19 153.3 186.24 153.35 186.6 153.35 186.7 153.4 187.43 153.4 187.53 153.45 188.15 153.45 188.25 153.5 188.87 153.5 188.97 153.55 190.01 153.55 190.06 153.6 191.83 153.6 191.93 153.65 193.18 153.65 193.28 153.7 194.37 153.7 194.47 153.75 194.57 153.7 194.62 153.75 195.45 153.75 195.55 153.7 195.81 153.7 195.91 153.75 197.31 153.75 197.36 153.7 197.57 153.7 197.67 153.65 197.72 153.7 198.03 153.7 198.08 153.75 198.55 153.75 198.65 153.7 198.76 153.75 199.12 153.75 199.22 153.7 199.95 153.7 200 153.75 201.4 153.75 201.51 153.8 201.77 153.8 201.88 153.75 202.5 153.75 202.61 153.8 205.73 153.8 205.78 153.85 207.34 153.85 207.44 153.9 209 153.9 209.11 153.95 209.99 153.95 210.09 154 211.13 154 211.18 154.05 212.32 154.05 212.37 154.1 213.05 154.1 213.1 154.15 213.41 154.15 213.46 154.2 213.56 154.15 213.77 154.15 213.88 154.2 214.66 154.2 214.76 154.25 215.38 154.25 215.48 154.3 215.95 154.3 216.05 154.35 216.88 154.35 216.93 154.4 217.03 154.4 217.13 154.45 217.86 154.45 217.96 154.5 218.48 154.5 218.58 154.55 218.84 154.55 218.94 154.6 219.2 154.6 219.3 154.65 219.66 154.65 219.76 154.7 220.23 154.7 220.33 154.75 220.49 154.75 220.6 154.8 220.86 154.8 220.96 154.85 221.43 154.85 221.53 154.9 221.58 154.9 221.68 154.95 222.15 154.95 222.25 155 222.61 155 222.66 155.05 224.06 155.05 224.16 155.1 224.21 155.1 224.31 155.15 225.14 155.15 225.24 155.2 225.71 155.2 225.76 155.25 225.97 155.25 226.07 155.2 226.23 155.2 226.33 155.25 226.49 155.25 226.59 155.3 227.06 155.3 227.16 155.35 227.63 155.35 227.68 155.3 228.04 155.3 228.15 155.35 228.25 155.35 228.36 155.4 229.24 155.4 229.34 155.45 229.6 155.45 229.7 155.5 230.17 155.5 230.27 155.55 230.63 155.55 230.74 155.6 231.1 155.6 231.15 155.65 231.36 155.65 231.46 155.7 231.62 155.7 231.72 155.75 232.34 155.75 232.44 155.7 232.8 155.7 232.91 155.75 233.01 155.8 233.89 155.8 233.99 155.85 234.09 155.85 234.19 155.9 234.55 155.9 234.6 155.95 235.17 155.95 235.27 156 235.63 156 235.68 156.05 236.36 156.05 236.46 156.1 236.62 156.1 236.73 156.15 236.99 156.15 237.09 156.2 237.24 156.2 237.35 156.25 237.56 156.25 237.61 156.3 238.18 156.3 238.29 156.35 238.55 156.35 238.65 156.4 238.75 156.4 238.8 156.45 238.9 156.45 239 156.5 239.47 156.5 239.52 156.55 239.73 156.55 239.83 156.6 240.3 156.6 240.35 156.65 240.66 156.65 240.71 156.7 240.92 156.7 241.02 156.75 241.28 156.75 241.38 156.8 241.85 156.8 241.9 156.85 242.21 156.85 242.26 156.9 242.57 156.9 242.62 156.95 243.09 156.95 243.2 157 243.35 157 243.45 157.05 243.55 157.05 243.65 157.1 243.81 157.1 243.91 157.15 244.12 157.15 244.17 157.2 244.64 157.2 244.74 157.25 244.84 157.3 245.2 157.3 245.3 157.35 245.35 157.4 245.45 157.45 245.71 157.45 245.81 157.5 245.92 157.5 246.02 157.55 246.18 157.55 246.28 157.6 246.54 157.6 246.64 157.65 246.74 157.65 246.79 157.7 246.89 157.7 246.99 157.75 247.09 157.7 247.19 157.7 247.24 157.75 247.34 157.75 247.44 157.8 247.59 157.8 247.7 157.85 247.8 157.85 247.91 157.9 248.07 157.9 248.18 157.95 248.34 157.95 248.44 158 248.55 158.05 248.65 158.05 248.7 158.1 248.8 158.1 248.9 158.15 249.11 158.15 249.16 158.2 249.37 158.2 249.47 158.25 249.63 158.25 249.73 158.3 249.83 158.3 249.88 158.35 250.19 158.35 250.24 158.4 250.45 158.4 250.56 158.45 250.72 158.45 250.82 158.5 251.08 158.5 251.18 158.55 251.44 158.55 251.54 158.6 251.8 158.6 251.9 158.65 252 158.65 252.1 158.7 252.46 158.7 252.51 158.75 252.98 158.75 253.09 158.8 253.19 158.85 253.71 158.85 253.81 158.9 254.07 158.9 254.17 158.95 254.27 158.95 254.37 159 254.42 159.05 254.63 159.05 254.73 159.1 255.2 159.1 255.25 159.15 255.56 159.15 255.61 159.2 255.82 159.2 255.92 159.25 256.08 159.25 256.18 159.3" id="c" stroke="#ED1D24" stroke-width="0.67" stroke-linejoin="round" fill="none"/></g><g id="d"><path d="M38.31 115.47 38.41 115.57 38.51 115.57 38.61 115.62 38.71 115.62 38.76 115.67 38.86 115.77 38.96 115.72 39.06 115.87 39.11 115.82 39.21 115.92 39.31 116.02 39.41 116.07 39.46 116.07 39.56 116.23 39.66 116.28 39.76 116.44 39.81 116.54 39.91 116.64 40.02 116.8 40.12 116.9 40.17 117 40.27 117.1 40.38 117.2 40.48 117.3 40.58 117.35 40.63 117.5 40.73 117.55 40.83 117.65 40.93 117.7 40.98 117.8 41.08 117.85 41.18 117.95 41.28 118.05 41.33 118.1 41.43 118.26 41.53 118.26 41.63 118.36 41.68 118.41 41.78 118.46 41.88 118.56 41.98 118.61 42.08 118.66 42.13 118.77 42.23 118.87 42.34 118.92 42.44 119.02 42.49 119.12 42.59 119.17 42.7 119.33 42.8 119.38 42.85 119.48 42.95 119.53 43.06 119.63 43.16 119.73 43.21 119.83 43.42 120.04 43.52 120.14 43.57 120.24 43.67 120.34 43.77 120.44 43.87 120.54 43.97 120.7 44.02 120.75 44.12 120.9 44.22 121 44.32 121.1 44.37 121.2 44.47 121.36 44.57 121.41 44.67 121.57 44.72 121.67 44.83 121.77 44.93 121.87 45.04 121.97 45.09 122.07 45.2 122.23 45.3 122.28 45.41 122.43 45.46 122.59 45.57 122.69 45.67 122.9 45.78 122.95 45.88 123.11 45.93 123.16 46.03 123.31 46.14 123.52 46.24 123.62 46.29 123.67 46.39 123.82 46.5 123.98 46.6 124.13 46.65 124.28 46.75 124.38 46.86 124.59 46.96 124.75 47.01 124.85 47.11 125 47.21 125.1 47.31 125.2 47.36 125.35 47.47 125.45 47.57 125.6 47.67 125.76 47.77 125.86 47.82 126.01 47.92 126.11 48.02 126.27 48.12 126.37 48.17 126.53 48.27 126.69 48.37 126.74 48.47 126.84 48.52 126.94 48.62 127.09 48.72 127.19 48.83 127.29 49.09 127.55 49.2 127.65 49.25 127.75 49.35 127.85 49.45 127.9 49.55 127.9 49.65 128 49.7 128.05 49.81 128.15 49.91 128.15 50.01 128.2 50.06 128.25 50.17 128.25 50.27 128.3 50.37 128.3 50.42 128.35 50.52 128.4 50.62 128.35 50.72 128.4 50.77 128.35 50.87 128.4 50.97 128.4 51.07 128.3 51.12 128.35 51.22 128.3 51.32 128.25 51.42 128.25 51.53 128.15 51.58 128.05 51.68 128 51.78 127.9 51.88 127.85 51.93 127.8 52.03 127.65 52.14 127.6 52.24 127.45 52.29 127.24 52.39 127.19 52.5 127.09 52.6 126.88 52.65 126.78 52.75 126.62 52.85 126.41 52.95 126.31 53.05 126.16 53.1 126 53.2 125.79 53.3 125.58 53.4 125.43 53.45 125.17 53.55 125.01 53.65 124.8 53.75 124.54 53.8 124.33 53.9 124.12 54 123.91 54.1 123.6 54.15 123.39 54.25 123.13 54.35 122.87 54.45 122.61 54.5 122.35 54.61 122.14 54.71 121.83 54.82 121.62 54.92 121.36 54.97 121 55.07 120.79 55.18 120.43 55.28 120.17 55.33 119.91 55.43 119.6 55.53 119.39 55.63 119.03 55.68 118.82 55.78 118.46 55.88 118.15 55.98 117.89 56.03 117.53 56.13 117.22 56.23 116.91 56.33 116.6 56.38 116.34 56.48 116.03 56.58 115.62 56.68 115.36 56.78 115 56.83 114.74 56.94 114.43 57.04 114.12 57.15 113.81 57.2 113.5 57.3 113.24 57.41 112.88 57.51 112.62 57.56 112.26 57.66 111.95 57.77 111.69 57.87 111.38 57.92 111.07 58.02 110.81 58.12 110.45 58.22 110.19 58.27 109.93 58.37 109.62 58.47 109.31 58.57 109 58.67 108.74 58.72 108.48 58.82 108.17 58.92 107.86 59.02 107.6 59.07 107.34 59.17 107.08 59.27 106.82 59.37 106.41 59.42 106.26 59.53 105.95 59.63 105.69 59.73 105.38 59.78 105.07 59.89 104.81 59.99 104.55 60.1 104.29 60.15 104.03 60.26 103.77 60.36 103.41 60.47 103.15 60.57 102.94 60.62 102.68 60.72 102.37 60.82 102.11 60.92 101.9 60.97 101.64 61.07 101.43 61.17 101.12 61.27 100.91 61.32 100.65 61.42 100.34 61.52 100.13 61.62 99.87 61.67 99.61 61.77 99.35 61.87 99.09 61.97 98.94 62.02 98.63 62.12 98.42 62.23 98.16 62.33 97.95 62.44 97.69 62.49 97.53 62.6 97.32 62.7 97.06 62.81 96.8 62.86 96.64 62.97 96.33 63.07 96.12 63.18 95.96 63.23 95.75 63.33 95.49 63.43 95.34 63.53 95.13 63.58 94.87 63.68 94.61 63.78 94.45 63.88 94.3 63.98 94.09 64.03 93.88 64.13 93.62 64.23 93.46 64.33 93.31 64.38 93.16 64.48 92.85 64.58 92.64 64.68 92.49 64.73 92.28 64.83 92.12 64.94 91.91 65.04 91.7 65.09 91.54 65.19 91.33 65.3 91.18 65.4 90.92 65.45 90.82 65.55 90.61 65.65 90.4 65.75 90.24 65.85 90.09 65.9 89.83 66 89.73 66.1 89.52 66.2 89.42 66.25 89.21 66.35 89.06 66.45 88.91 66.55 88.75 66.6 88.54 66.7 88.38 66.8 88.23 66.9 88.13 66.95 87.92 67.06 87.77 67.16 87.56 67.26 87.46 67.31 87.25 67.41 87.1 67.51 86.94 67.62 86.78 67.72 86.63 67.77 86.53 67.87 86.32 67.98 86.11 68.08 86.01 68.13 85.8 68.23 85.7 68.33 85.54 68.44 85.39 68.49 85.18 68.59 85.13 68.69 84.98 68.79 84.77 68.84 84.62 68.94 84.52 69.04 84.36 69.14 84.15 69.19 83.99 69.4 83.78 69.5 83.63 69.6 83.47 69.65 83.42 69.75 83.26 69.85 83.11 69.95 83.01 70 82.86 70.1 82.7 70.21 82.6 70.31 82.5 70.36 82.35 70.46 82.14 70.57 81.98 70.67 81.93 70.72 81.78 70.82 81.68 70.92 81.58 71.02 81.48 71.07 81.33 71.18 81.17 71.28 81.07 71.38 80.92 71.48 80.82 71.53 80.66 71.63 80.56 71.73 80.41 71.83 80.26 71.88 80.21 71.98 80.06 72.08 79.96 72.18 79.86 72.23 79.7 72.33 79.6 72.43 79.44 72.53 79.39 72.58 79.23 72.68 79.13 72.78 79.13 72.89 78.92 72.94 78.82 73.04 78.72 73.14 78.51 73.25 78.51 73.35 78.3 73.4 78.2 73.51 78.15 73.61 78.05 73.71 77.9 73.76 77.74 73.87 77.69 73.97 77.54 74.07 77.49 74.12 77.39 74.22 77.29 74.32 77.14 74.42 77.09 74.47 76.99 74.57 76.94 74.67 76.84 74.77 76.79 74.87 76.63 74.92 76.58 75.13 76.37 75.24 76.32 75.29 76.22 75.39 76.12 75.49 76.02 75.59 75.97 75.64 75.87 75.74 75.82 75.84 75.72 76 75.57 76.1 75.52 76.21 75.42 76.31 75.37 76.36 75.27 76.46 75.22 76.57 75.07 76.67 75.02 76.77 74.97 76.82 74.97 76.92 74.87 77.02 74.82 77.12 74.77 77.17 74.82 77.27 74.66 77.37 74.71 77.47 74.71 77.52 74.61 77.62 74.61 77.72 74.51 77.82 74.56 77.87 74.51 78.44 74.51 78.55 74.56 79.02 74.56 79.07 74.61 79.17 74.56 79.28 74.61 79.38 74.61 79.43 74.66 79.54 74.71 79.65 74.66 79.75 74.71 79.91 74.71 80.02 74.76 80.12 74.76 80.17 74.91 80.27 74.86 80.38 74.91 80.48 74.96 80.59 75.01 80.64 75.11 80.74 75.16 80.84 75.16 80.94 75.21 80.99 75.31 81.09 75.31 81.19 75.41 81.29 75.51 81.34 75.56 81.44 75.66 81.54 75.76 81.64 75.81 81.69 75.91 81.79 75.96 81.89 76.06 81.99 76.11 82.04 76.21 82.14 76.31 82.24 76.31 82.35 76.46 82.45 76.51 82.5 76.61 82.6 76.61 82.71 76.71 82.81 76.81 82.86 76.86 82.96 76.96 83.06 76.96 83.16 76.91 83.21 77.01 83.31 77.06 83.41 77.11 83.51 77.16 83.56 77.16 83.66 77.11 83.92 77.11 84.02 77.06 84.12 76.96 84.22 76.91 84.32 76.81 84.37 76.71 84.47 76.66 84.57 76.5 84.67 76.4 84.72 76.25 84.82 76.09 84.92 75.94 85.03 75.73 85.08 75.58 85.18 75.48 85.28 75.27 85.39 75.06 85.44 74.85 85.54 74.54 85.64 74.39 85.74 74.08 85.84 73.82 85.89 73.56 85.99 73.35 86.09 73.09 86.19 72.73 86.24 72.42 86.34 72.16 86.44 71.85 86.54 71.59 86.59 71.28 86.69 70.92 86.79 70.61 86.89 70.35 86.94 69.99 87.04 69.58 87.14 69.32 87.24 68.96 87.29 68.6 87.39 68.29 87.49 67.93 87.59 67.52 87.7 67.21 87.75 66.85 87.85 66.54 87.95 66.18 88.06 65.82 88.11 65.46 88.21 65.15 88.31 64.79 88.41 64.43 88.46 64.02 88.56 63.71 88.67 63.4 88.77 63.04 88.82 62.68 88.92 62.37 89.02 62.01 89.12 61.7 89.17 61.34 89.27 61.03 89.37 60.67 89.47 60.41 89.57 60.05 89.62 59.74 89.72 59.43 89.82 59.17 89.92 58.91 89.97 58.6 90.07 58.29 90.17 57.98 90.27 57.72 90.32 57.51 90.43 57.25 90.53 56.99 90.64 56.68 90.69 56.53 90.79 56.27 90.89 56.01 90.99 55.8 91.04 55.54 91.25 55.12 91.35 54.91 91.45 54.7 91.5 54.49 91.6 54.33 91.71 54.12 91.81 53.91 91.86 53.7 91.96 53.54 92.07 53.39 92.17 53.24 92.22 53.08 92.32 52.93 92.43 52.83 92.53 52.62 92.58 52.47 92.68 52.37 92.78 52.22 92.88 52.06 92.93 52.01 93.03 51.91 93.13 51.76 93.23 51.6 93.33 51.55 93.38 51.45 93.48 51.29 93.58 51.19 93.68 51.09 93.73 50.99 93.83 50.89 93.93 50.74 94.03 50.53 94.08 50.48 94.19 50.33 94.29 50.28 94.4 50.18 94.45 50.13 94.56 50.03 94.66 49.93 94.77 49.83 94.82 49.78 95.03 49.57 95.13 49.47 95.23 49.42 95.28 49.37 95.38 49.27 95.48 49.17 95.58 49.07 95.63 48.97 95.73 48.87 95.83 48.77 95.93 48.67 95.98 48.62 96.08 48.57 96.18 48.42 96.34 48.26 96.44 48.21 96.54 48.11 96.64 48.01 96.74 48.01 96.79 47.96 96.9 47.8 97 47.75 97.11 47.65 97.16 47.65 97.26 47.6 97.36 47.49 97.47 47.44 97.52 47.34 97.62 47.34 97.72 47.24 97.82 47.24 97.87 47.14 97.97 47.04 98.07 46.99 98.17 46.94 98.22 46.89 98.32 46.84 98.42 46.74 98.52 46.74 98.62 46.69 98.78 46.53 98.88 46.53 98.98 46.43 99.03 46.38 99.13 46.38 99.24 46.33 99.34 46.28 99.5 46.28 99.6 46.18 99.7 46.13 99.75 46.08 99.85 46.13 99.95 45.97 100.05 46.02 100.1 45.97 100.21 45.92 100.31 45.87 100.41 45.82 100.51 45.72 100.56 45.67 100.66 45.62 100.76 45.57 100.86 45.47 100.91 45.42 101.01 45.32 101.11 45.27 101.21 45.17 101.26 45.17 101.36 45.12 101.46 45.07 101.56 44.97 101.61 44.97 101.71 44.92 101.82 44.92 101.92 44.87 101.97 44.82 102.07 44.87 102.17 44.87 102.27 44.82 102.38 44.82 102.43 44.77 102.53 44.77 102.63 44.72 102.74 44.67 102.79 44.67 102.89 44.62 102.99 44.57 103.09 44.52 103.14 44.52 103.24 44.47 103.34 44.47 103.44 44.37 103.6 44.37 103.7 44.27 103.8 44.27 103.85 44.22 104.27 44.22 104.32 44.17 104.53 44.17 104.63 44.12 104.68 44.17 104.78 44.07 104.88 44.02 104.98 43.97 105.03 44.02 105.13 44.02 105.23 43.97 105.8 43.97 105.85 43.92 106.16 43.92 106.21 43.97 106.57 43.97 106.67 43.92 106.77 43.87 106.87 43.82 106.92 43.77 107.02 43.67 107.12 43.67 107.22 43.51 107.27 43.41 107.37 43.41 107.47 43.31 107.57 43.21 107.67 43.16 107.72 43.06 107.83 42.96 107.93 42.86 108.04 42.86 108.09 42.76 108.2 42.66 108.3 42.56 108.41 42.51 108.46 42.41 108.57 42.31 108.67 42.31 108.78 42.21 108.83 42.21 108.93 42.16 109.03 42.06 109.13 41.96 109.18 41.86 109.28 41.81 109.38 41.66 109.48 41.56 109.58 41.51 109.63 41.41 109.73 41.41 109.83 41.31 109.93 41.36 109.98 41.31 110.08 41.31 110.18 41.36 110.44 41.36 110.55 41.41 110.65 41.46 110.7 41.41 110.8 41.51 110.91 41.51 111.01 41.46 111.06 41.51 111.16 41.56 111.47 41.56 111.52 41.51 111.62 41.46 111.72 41.41 111.82 41.31 111.87 41.21 111.97 41.11 112.07 41.01 112.17 40.91 112.22 40.81 112.32 40.65 112.42 40.6 112.52 40.55 112.57 40.45 112.67 40.4 112.77 40.3 112.87 40.2 112.92 40.2 113.03 40.15 113.14 40.15 113.24 40.2 113.5 40.2 113.6 40.15 113.71 40.15 113.76 40.1 113.87 40.05 113.97 40 114.08 39.9 114.13 39.8 114.23 39.7 114.33 39.65 114.43 39.55 114.48 39.5 114.58 39.45 114.68 39.35 115.04 39.35 115.14 39.3 115.24 39.35 115.6 39.35 115.65 39.3 115.75 39.35 115.86 39.3 115.96 39.35 116.12 39.35 116.23 39.3 116.33 39.25 116.38 39.3 116.48 39.2 116.58 39.2 116.68 39.15 116.78 39.1 116.83 39.05 117.04 39.05 117.14 39 117.3 39 117.4 38.95 117.5 39 117.55 38.95 117.65 38.9 117.75 38.9 117.85 38.85 117.9 38.8 118 38.8 118.1 38.75 118.25 38.75 118.36 38.7 118.46 38.65 118.67 38.65 118.72 38.7 118.82 38.65 118.93 38.7 119.03 38.7 119.08 38.75 119.18 38.7 119.28 38.7 119.38 38.65 119.43 38.6 119.53 38.5 119.63 38.45 119.73 38.4 119.78 38.45 119.88 38.35 119.98 38.4 120.14 38.4 120.24 38.45 120.34 38.45 120.44 38.5 120.54 38.55 120.59 38.6 120.7 38.65 120.91 38.65 120.96 38.7 121.06 38.75 121.16 38.8 121.27 38.8 121.32 38.7 121.42 38.7 121.52 38.65 121.68 38.65 121.78 38.55 121.88 38.55 121.98 38.45 122.03 38.5 122.13 38.35 122.44 38.35 122.49 38.45 122.59 38.5 122.69 38.5 122.79 38.6 122.84 38.65 122.94 38.7 123.04 38.75 123.14 38.8 123.19 38.85 123.29 38.85 123.39 38.9 123.49 39 123.54 39 123.64 38.95 124 38.95 124.1 38.9 124.21 38.95 124.31 38.85 124.57 38.85 124.67 38.9 124.93 38.9 125.03 38.85 125.08 38.8 125.18 38.75 125.29 38.75 125.39 38.7 125.44 38.65 125.54 38.6 125.65 38.55 125.75 38.55 125.8 38.5 126.11 38.5 126.22 38.55 126.27 38.55 126.37 38.6 126.47 38.65 126.57 38.7 126.62 38.8 126.72 38.85 126.82 38.85 126.92 38.95 126.97 39 127.07 39.1 127.17 39.15 127.27 39.25 127.32 39.3 127.42 39.35 127.52 39.4 127.62 39.45 127.72 39.5 127.77 39.55 127.87 39.65 127.98 39.65 128.08 39.7 128.13 39.75 128.23 39.8 128.34 39.9 128.44 39.95 128.49 40 128.59 40 128.69 40.1 128.79 40.1 128.84 40.2 128.94 40.2 129.04 40.3 129.14 40.3 129.19 40.15 129.29 40.2 129.39 40.1 129.75 40.1 129.85 40.2 129.95 40.3 130 40.35 130.1 40.35 130.2 40.4 130.3 40.5 130.35 40.55 130.46 40.6 130.56 40.7 130.67 40.8 130.72 40.95 130.83 41.11 130.93 41.21 131.04 41.36 131.09 41.51 131.19 41.61 131.29 41.82 131.39 41.98 131.49 42.13 131.54 42.34 131.64 42.39 131.74 42.55 131.84 42.55 131.89 42.76 131.99 42.76 132.09 42.81 132.19 42.91 132.24 42.96 132.34 43.06 132.44 43.06 132.54 43.11 132.59 43.11 132.69 43.16 132.8 43.26 132.9 43.26 133.06 43.42 133.17 43.47 133.27 43.57 133.38 43.67 133.43 43.77 133.54 43.87 133.64 44.02 133.75 44.12 133.8 44.17 133.9 44.38 134 44.48 134.1 44.53 134.15 44.58 134.25 44.68 134.35 44.78 134.45 44.88 134.5 44.98 134.6 45.08 134.7 45.13 134.8 45.39 134.85 45.49 134.95 45.64 135.05 45.74 135.15 45.79 135.25 45.89 135.3 45.94 135.41 46.1 135.51 46.2 135.61 46.35 135.66 46.45 135.77 46.6 135.87 46.7 135.98 46.91 136.03 47.07 136.14 47.22 136.24 47.37 136.35 47.53 136.4 47.69 136.5 47.84 136.6 47.94 136.7 48.09 136.75 48.19 136.85 48.34 136.95 48.44 137.05 48.6 137.15 48.75 137.2 48.91 137.3 49.06 137.4 49.16 137.5 49.26 137.55 49.41 137.65 49.51 137.75 49.61 137.85 49.77 137.9 49.92 138 50.02 138.11 50.17 138.21 50.27 138.26 50.32 138.36 50.37 138.46 50.47 138.56 50.57 138.67 50.62 138.72 50.72 138.82 50.87 138.92 50.92 139.03 50.97 139.08 51.07 139.18 51.22 139.28 51.22 139.38 51.32 139.43 51.37 139.53 51.42 139.63 51.47 139.73 51.68 139.78 51.78 139.88 51.83 139.98 51.93 140.08 52.03 140.13 52.08 140.23 52.24 140.33 52.34 140.43 52.39 140.53 52.49 140.58 52.54 140.68 52.59 140.78 52.59 140.88 52.64 140.93 52.69 141.03 52.69 141.13 52.74 141.23 52.74 141.28 52.79 141.39 52.84 141.49 52.89 141.59 52.94 141.64 52.99 141.75 53.04 141.96 53.04 142.01 53.09 142.12 52.99 142.33 52.99 142.43 53.04 142.48 52.99 142.58 52.94 142.68 52.94 142.78 52.84 142.83 52.79 142.93 52.74 143.03 52.59 143.13 52.49 143.18 52.49 143.28 52.39 143.38 52.29 143.48 52.24 143.53 52.14 143.63 52.04 143.73 51.94 143.83 51.68 143.88 51.58 143.98 51.37 144.09 51.22 144.19 51.12 144.29 50.91 144.34 50.76 144.45 50.61 144.55 50.35 144.66 50.25 144.71 50.04 144.81 49.94 144.91 49.78 145.02 49.57 145.07 49.47 145.17 49.26 145.27 49.16 145.37 49.01 145.42 48.91 145.52 48.81 145.62 48.66 145.72 48.56 145.77 48.4 145.87 48.19 145.97 48.09 146.07 47.99 146.17 47.89 146.22 47.84 146.32 47.74 146.42 47.64 146.53 47.59 146.58 47.59 146.68 47.43 146.78 47.33 146.88 47.23 146.93 47.02 147.03 46.81 147.13 46.6 147.23 46.5 147.28 46.4 147.38 46.14 147.48 45.93 147.58 45.83 147.63 45.68 147.73 45.52 147.84 45.37 147.94 45.27 148.05 45.17 148.1 45.12 148.21 45.07 148.31 45.02 148.42 45.02 148.47 44.87 148.57 44.77 148.67 44.72 148.77 44.72 148.82 44.67 148.92 44.67 149.02 44.62 149.12 44.57 149.17 44.52 149.27 44.47 149.37 44.37 149.47 44.27 149.57 44.27 149.62 44.12 149.72 43.96 149.82 43.81 149.92 43.6 149.97 43.5 150.07 43.4 150.18 43.35 150.34 43.35 150.44 43.4 150.55 43.4 150.65 43.35 150.7 43.4 150.8 43.3 150.91 43.3 151.01 43.2 151.06 43.15 151.17 43.1 151.27 43 151.37 43 151.47 42.9 151.52 43 151.62 42.95 151.72 43 151.82 43.05 151.87 43 151.97 43 152.07 43.05 152.17 43 152.22 42.95 152.32 42.9 152.42 42.8 152.52 42.75 152.57 42.65 152.67 42.65 152.77 42.6 152.88 42.5 152.93 42.4 153.03 42.35 153.13 42.25 153.24 42.2 153.34 42.15 153.39 42.1 153.5 42.2 153.71 42.2 153.76 42.15 153.97 42.15 154.07 42.05 154.12 42 154.23 41.95 154.33 41.9 154.43 41.75 154.48 41.65 154.58 41.6 154.68 41.5 154.78 41.45 154.83 41.4 154.93 41.4 155.03 41.45 155.13 41.5 155.29 41.5 155.39 41.6 155.49 41.45 155.6 41.45 155.65 41.35 155.75 41.25 155.85 41.3 155.95 41.25 156 41.2 156.1 41.2 156.21 41.15 156.31 41.15 156.36 41.1 156.46 41.05 156.57 41.1 156.67 41 156.72 41 156.82 40.9 156.92 40.85 157.02 40.7 157.18 40.54 157.28 40.54 157.38 40.49 157.48 40.59 157.64 40.59 157.75 40.64 157.85 40.64 157.9 40.74 158 40.79 158.1 40.89 158.2 40.99 158.25 41.04 158.35 41.09 158.45 41.09 158.55 41.19 158.65 41.14 158.7 41.09 158.81 40.99 158.91 40.94 159.01 40.73 159.06 40.58 159.17 40.42 159.38 40.32 159.64 40.32 159.75 40.37 159.8 40.42 159.9 40.52 160 40.57 160.1 40.67 160.15 40.77 160.25 40.72 160.35 40.72 160.45 40.62 160.55 40.62 160.6 40.57 160.7 40.52 160.8 40.57 160.9 40.72 161.06 40.72 161.16 40.77 161.32 40.77 161.42 40.82 161.53 40.82 161.63 40.92 161.68 40.87 161.78 40.82 161.89 40.82 161.99 40.77 162.04 40.72 162.14 40.57 162.24 40.47 162.34 40.42 162.45 40.37 162.5 40.37 162.6 40.42 162.7 40.47 162.8 40.57 162.85 40.67 162.95 40.62 163.05 40.62 163.15 40.57 163.2 40.52 163.3 40.47 163.4 40.42 163.5 40.37 163.66 40.37 163.76 40.42 164.02 40.42 164.12 40.52 164.48 40.52 164.59 40.42 164.69 40.37 164.74 40.22 164.84 40.27 164.94 40.27 165.04 40.17 165.09 40.33 165.19 40.38 165.29 40.48 165.39 40.63 165.44 40.63 165.54 40.68 165.64 40.68 165.74 40.58 165.79 40.53 165.89 40.43 165.99 40.38 166.09 40.23 166.19 40.13 166.24 40.08 166.35 40.03 166.45 39.93 166.56 39.88 166.61 39.83 166.72 39.73 166.82 39.73 166.93 39.68 166.98 39.68 167.09 39.73 167.19 39.68 167.3 39.73 167.35 39.78 167.45 39.83 167.55 39.83 167.65 39.88 167.7 39.93 167.8 39.93 167.9 39.98 168 39.98 168.1 39.88 168.15 39.93 168.25 39.82 168.35 39.87 168.51 39.87 168.61 39.82 168.82 39.82 168.87 39.87 168.98 39.97 169.08 40.02 169.18 40.02 169.23 40.17 169.33 40.27 169.43 40.27 169.53 40.42 169.63 40.37 169.79 40.37 169.89 40.42 169.99 40.47 170.04 40.42 170.25 40.32 170.36 40.27 170.72 40.27 170.77 40.22 170.87 40.17 170.98 40.12 171.08 40.07 171.13 40.12 171.23 40.02 171.34 40.07 171.44 40.07 171.54 40.12 171.59 40.17 171.7 40.17 171.8 40.22 171.9 40.22 171.95 40.32 172.05 40.42 172.15 40.47 172.25 40.57 172.3 40.62 172.4 40.67 172.5 40.62 172.6 40.62 172.65 40.72 172.75 40.77 172.85 40.82 172.95 40.92 173 40.97 173.21 40.97 173.31 41.12 173.41 41.17 173.46 41.17 173.56 41.12 173.67 41.27 173.77 41.27 173.82 41.32 173.92 41.37 174.03 41.32 174.13 41.42 174.18 41.42 174.28 41.52 174.39 41.52 174.49 41.57 174.54 41.67 174.64 41.67 174.74 41.72 174.84 41.77 175 41.77 175.1 41.82 175.2 41.92 175.3 41.92 175.35 41.97 175.45 41.97 175.55 41.82 175.65 41.77 175.7 41.82 175.8 41.82 175.9 41.92 176 42.18 176.05 42.44 176.16 42.54 176.26 42.59 176.37 42.59 176.42 42.54 176.53 42.49 176.63 42.39 176.74 42.44 176.79 42.44 176.89 42.39 176.99 42.29 177.09 42.24 177.19 42.19 177.24 42.14 177.34 42.04 177.44 41.99 177.54 41.94 177.59 41.84 177.69 41.79 177.79 41.74 177.89 41.58 177.94 41.43 178.04 41.33 178.14 41.02 178.24 40.87 178.29 40.66 178.39 40.56 178.5 40.46 178.6 40.31 178.65 40.21 178.75 40.11 178.86 39.95 178.96 39.74 179.07 39.53 179.12 39.17 179.23 38.76 179.33 38.24 179.44 37.67 179.49 36.95 179.59 36.17 179.69 35.34 179.79 34.41 179.84 33.38 179.94 32.24 180.04 31.05 180.15 29.81 180.2 28.41 180.3 27.06 180.4 25.66 180.5 24.26 180.6 22.97 180.65 21.57 180.75 20.22 180.85 18.82 180.95 17.63 181 16.65 181.11 15.82 181.21 15.2 181.31 14.84 181.36 14.69 181.47 14.9 181.57 15.37 181.68 16.04 181.73 16.87 181.84 17.9 181.94 19.04 182.05 20.07 182.1 21.31 182.2 22.45 182.3 23.64 182.4 24.68 182.5 25.71 182.55 26.64 182.65 27.57 182.75 28.45 182.85 29.17 182.9 29.89 183 30.51 183.1 31.18 183.2 31.8 183.25 32.37 183.35 32.89 183.45 33.36 183.55 33.77 183.6 34.13 183.7 34.54 183.81 34.9 183.91 35.21 183.96 35.42 184.06 35.73 184.17 36.04 184.27 36.35 184.38 36.66 184.43 36.87 184.54 37.08 184.64 37.18 184.75 37.39 184.8 37.49 184.9 37.64 185 37.8 185.1 37.95 185.15 38.21 185.25 38.36 185.35 38.52 185.45 38.73 185.5 38.88 185.6 39.09 185.7 39.25 185.8 39.35 185.85 39.45 185.95 39.5 186.05 39.55 186.15 39.81 186.25 39.86 186.3 39.86 186.4 39.91 186.51 39.96 186.61 40.01 186.66 40.06 186.76 40.11 186.87 40.27 186.97 40.32 187.02 40.47 187.12 40.68 187.22 40.84 187.32 40.99 187.37 40.99 187.47 41.15 187.57 41.2 187.67 41.3 187.72 41.25 187.82 41.35 187.92 41.35 188.02 41.51 188.12 41.61 188.17 41.76 188.27 41.92 188.48 42.13 188.53 42.23 188.63 42.39 188.73 42.44 188.83 42.6 188.88 42.65 188.98 42.65 189.08 42.75 189.19 42.8 189.24 42.96 189.34 43.01 189.44 43.27 189.55 43.48 189.6 43.69 189.7 43.84 189.8 43.89 189.9 43.99 190 44.15 190.16 44.15 190.26 44.1 190.36 44.26 190.41 44.36 190.51 44.46 190.72 44.77 190.77 44.87 190.87 45.08 190.97 45.18 191.07 45.18 191.12 45.39 191.23 45.44 191.33 45.49 191.44 45.49 191.54 45.54 191.59 45.7 191.69 45.7 191.79 45.85 191.89 45.85 191.94 45.95 192.04 46 192.14 46.1 192.3 46.1 192.4 46.15 192.5 46.31 192.66 46.31 192.76 46.26 192.86 46.16 192.96 46.26 193.01 46.41 193.11 46.57 193.21 46.72 193.31 46.77 193.41 46.87 193.46 47.08 193.57 47.23 193.67 47.33 193.78 47.38 193.83 47.38 193.94 47.54 194.04 47.64 194.15 47.8 194.2 47.85 194.3 48.06 194.4 48.11 194.5 48.21 194.55 48.16 194.65 48.21 194.75 48.26 194.85 48.26 194.9 48.36 195 48.52 195.1 48.52 195.2 48.67 195.3 48.83 195.35 48.93 195.45 49.03 195.66 49.24 195.71 49.45 195.81 49.66 195.92 49.71 196.02 49.86 196.07 50.02 196.17 50.07 196.28 50.17 196.38 50.32 196.43 50.42 196.53 50.63 196.64 50.73 196.74 50.99 196.79 51.2 196.89 51.36 196.99 51.36 197.09 51.46 197.19 51.62 197.24 51.72 197.34 51.82 197.44 51.92 197.54 52.02 197.59 52.07 197.69 52.22 197.79 52.43 197.89 52.64 197.94 52.79 198.04 52.89 198.14 52.99 198.24 53.09 198.29 53.24 198.4 53.4 198.5 53.4 198.61 53.55 198.66 53.55 198.77 53.65 198.87 53.7 198.98 53.75 199.08 53.8 199.13 53.96 199.23 54.06 199.34 54.16 199.44 54.42 199.49 54.57 199.59 54.67 199.69 54.72 199.79 54.93 199.84 54.98 199.94 55.19 200.04 55.45 200.14 55.66 200.19 55.71 200.29 55.87 200.39 55.97 200.49 56.12 200.54 56.33 200.64 56.48 200.74 56.69 200.84 56.74 200.94 56.79 200.99 56.79 201.09 56.89 201.19 56.99 201.3 57.09 201.35 57.24 201.45 57.24 201.55 57.34 201.66 57.44 201.71 57.6 201.92 57.91 202.02 58.07 202.07 58.12 202.17 58.28 202.27 58.43 202.38 58.53 202.48 58.63 202.53 58.68 202.63 58.63 202.73 58.78 202.83 58.83 202.88 58.93 202.99 59.03 203.09 59.29 203.2 59.29 203.25 59.55 203.36 59.76 203.46 59.92 203.57 60.02 203.62 60.07 203.73 60.23 203.83 60.33 203.94 60.33 203.99 60.43 204.09 60.59 204.19 60.64 204.29 60.69 204.39 60.74 204.44 60.95 204.54 61 204.64 61.1 204.74 61.25 204.79 61.41 204.89 61.77 204.99 61.82 205.09 62.08 205.14 62.18 205.24 62.23 205.34 62.54 205.44 62.64 205.49 62.69 205.59 62.79 205.7 62.94 205.8 62.84 205.96 62.84 206.07 62.79 206.17 62.94 206.28 63.1 206.33 63.31 206.43 63.57 206.53 63.73 206.63 63.99 206.68 64.14 206.78 64.24 206.88 64.4 206.98 64.61 207.03 64.76 207.13 64.81 207.23 64.96 207.33 65.11 207.38 65.27 207.48 65.22 207.58 65.38 207.68 65.43 207.73 65.69 207.84 65.84 207.94 65.99 208.05 66.15 208.15 66.25 208.2 66.25 208.3 66.46 208.41 66.51 208.51 66.56 208.56 66.61 208.66 66.71 208.77 66.76 208.87 66.86 208.92 66.91 209.02 67.06 209.12 67.11 209.22 67.27 209.27 67.48 209.37 67.74 209.47 67.89 209.57 67.99 209.62 68.2 209.72 68.35 209.82 68.35 209.92 68.3 210.02 68.3 210.07 68.35 210.17 68.35 210.27 68.45 210.37 68.66 210.42 68.61 210.53 68.77 210.63 68.82 210.74 68.97 211 68.97 211.11 69.07 211.16 69.22 211.26 69.53 211.36 69.74 211.47 69.95 211.52 70.21 211.62 70.31 211.72 70.41 211.82 70.56 211.92 70.66 211.97 70.61 212.07 70.61 212.17 70.66 212.27 70.76 212.32 70.86 212.42 70.91 212.52 71.22 212.62 71.48 212.67 71.63 212.77 71.73 212.87 71.78 212.97 71.99 213.02 71.89 213.12 71.84 213.23 71.74 213.33 71.69 213.44 71.9 213.49 72.11 213.59 72.32 213.7 72.48 213.8 72.69 213.85 72.84 213.95 72.94 214.06 73.09 214.16 73.19 214.21 73.4 214.31 73.61 214.41 73.71 214.51 73.81 214.56 73.97 214.66 74.07 214.76 74.28 214.86 74.38 214.91 74.64 215.01 74.74 215.11 74.69 215.21 74.79 215.31 74.74 215.36 74.84 215.46 75.05 215.56 75.15 215.66 75.2 215.71 75.41 215.82 75.51 215.92 75.66 216.03 75.71 216.08 75.86 216.18 76.02 216.28 76.23 216.39 76.39 216.44 76.54 216.54 76.75 216.64 76.9 216.75 77.16 216.8 77.21 216.9 77.47 217 77.57 217.1 77.78 217.2 77.83 217.25 78.04 217.35 78.19 217.45 78.4 217.55 78.5 217.6 78.6 217.7 78.75 217.8 78.8 217.9 78.95 217.95 79 218.05 79 218.15 79.21 218.25 79.31 218.3 79.52 218.4 79.78 218.5 80.09 218.6 80.24 218.65 80.4 218.75 80.24 218.85 80.34 218.95 80.29 219.06 80.39 219.11 80.49 219.21 80.59 219.31 80.8 219.41 81.01 219.46 81.22 219.56 81.27 219.66 81.37 219.76 81.52 219.81 81.57 219.91 81.73 220.02 81.99 220.12 82.51 220.17 82.77 220.27 83.03 220.37 83.24 220.47 83.34 220.52 83.44 220.62 83.39 220.72 83.44 220.82 83.49 220.92 83.54 220.97 83.59 221.07 83.69 221.17 83.74 221.27 83.84 221.32 83.94 221.42 84.04 221.52 84.14 221.62 84.19 221.67 84.34 221.78 84.44 221.88 84.65 221.98 84.86 222.03 84.91 222.14 84.96 222.24 85.06 222.35 85.16 222.45 85.37 222.5 85.37 222.6 85.58 222.7 85.63 222.8 85.73 222.85 85.78 222.95 85.83 223.05 85.93 223.31 86.19 223.41 86.29 223.51 86.34 223.56 86.55 223.66 86.6 223.76 86.65 223.86 86.75 223.91 86.75 224.01 86.9 224.12 87.06 224.22 87.16 224.32 87.31 224.37 87.52 224.48 87.73 224.58 87.89 224.69 88.1 224.74 88.2 224.84 88.51 224.95 88.67 225.05 88.88 225.1 89.03 225.2 89.03 225.31 88.93 225.41 88.83 225.46 88.93 225.56 89.08 225.66 89.29 225.76 89.45 225.81 89.81 225.91 90.02 226.01 90.28 226.11 90.49 226.21 90.54 226.26 90.75 226.36 90.85 226.46 90.95 226.56 91.16 226.61 91.16 226.71 91.42 226.81 91.47 226.91 91.57 226.96 91.83 227.07 92.14 227.17 92.4 227.28 92.66 227.33 92.71 227.44 92.66 227.54 92.66 227.65 92.87 227.7 93.02 227.8 93.18 227.9 93.28 228 93.54 228.1 93.8 228.15 93.85 228.25 94 228.35 94.1 228.45 94.31 228.5 94.46 228.6 94.56 228.7 94.66 228.8 94.87 228.85 95.08 228.95 95.24 229.05 95.39 229.15 95.6 229.2 95.86 229.3 96.02 229.41 96.23 229.51 96.44 229.56 96.65 229.66 96.86 229.77 97.01 229.87 97.17 229.98 97.43 230.03 97.64 230.14 97.64 230.24 97.69 230.35 97.79 230.4 98 230.5 98.26 230.6 98.52 230.7 98.78 230.75 98.93 230.85 99.14 230.95 99.4 231.05 99.5 231.1 99.65 231.2 99.7 231.3 99.75 231.4 99.8 231.45 100.01 231.55 100.22 231.65 100.63 231.75 100.94 231.85 101.2 231.9 101.46 232 101.67 232.11 101.82 232.21 102.03 232.26 102.24 232.36 102.24 232.47 102.5 232.57 102.55 232.62 102.76 232.72 102.86 232.83 103.07 232.93 103.12 232.98 103.22 233.08 103.48 233.18 103.95 233.28 104.16 233.38 104.52 233.43 104.78 233.53 104.99 233.63 105.15 233.73 105.36 233.78 105.57 233.88 105.62 233.98 105.67 234.08 105.93 234.13 106.08 234.23 106.39 234.33 106.39 234.43 106.49 234.48 106.64 234.59 106.8 234.69 107.01 234.8 107.32 234.85 107.47 234.96 107.68 235.06 107.99 235.17 108.14 235.27 108.35 235.32 108.56 235.42 108.82 235.52 108.98 235.62 109.19 235.67 109.45 235.77 109.76 235.88 110.02 235.98 110.28 236.03 110.49 236.13 110.91 236.23 111.22 236.33 111.48 236.38 111.69 236.49 111.9 236.59 112 236.69 112.26 236.74 112.47 236.85 112.78 236.95 112.93 237.05 113.14 237.15 113.29 237.2 113.5 237.3 113.65 237.41 113.86 237.51 114.17 237.56 114.38 237.66 114.74 237.76 115.05 237.86 115.2 237.91 115.51 238.01 115.66 238.11 115.87 238.21 116.08 238.26 116.24 238.36 116.34 238.46 116.65 238.56 116.81 238.61 116.91 238.71 117.06 238.81 117.22 238.91 117.53 239.01 117.74 239.06 118.05 239.17 118.2 239.27 118.67 239.38 118.93 239.43 119.24 239.54 119.6 239.64 119.91 239.75 119.96 239.8 120.22 239.9 120.48 240 120.69 240.1 121.05 240.15 121.26 240.25 121.52 240.35 121.73 240.45 122.09 240.5 122.14 240.6 122.5 240.7 122.71 240.8 122.76 240.9 123.02 240.95 123.12 241.05 123.07 241.15 123.17 241.25 123.22 241.3 123.38 241.4 123.74 241.5 124.1 241.6 124.46 241.65 124.82 241.75 125.08 241.86 125.34 241.96 125.7 242.01 126.01 242.11 126.42 242.22 126.68 242.32 126.94 242.37 127.2 242.47 127.46 242.57 127.72 242.67 127.93 242.77 128.19 242.82 128.76 242.92 129.17 243.02 129.48 243.12 129.84 243.17 130.05 243.27 130.1 243.37 130.1 243.47 130.15 243.52 130.36 243.62 130.46 243.72 130.67 243.82 130.83 243.87 131.09 243.98 131.4 244.08 131.71 244.19 131.97 244.29 132.38 244.34 132.53 244.44 132.79 244.55 133 244.65 133.36 244.7 133.67 244.8 133.98 244.91 134.14 245.01 134.55 245.06 134.76 245.16 135.02 245.26 135.38 245.36 136.1 245.41 136.57 245.51 137.09 245.61 137.14 245.71 137.5 245.76 137.76 245.86 138.02 245.96 138.49 246.06 138.8 246.16 138.85 246.21 139.11 246.31 139.32 246.41 139.63 246.51 139.84 246.56 140.15 246.67 140.46 246.77 140.67 246.88 140.98 246.93 141.24 247.04 141.5 247.15 141.71 247.25 142.02 247.3 142.54 247.4 142.8 247.51 143.21 247.61 143.62 247.66 143.98 247.76 144.34 247.86 144.49 247.96 144.9 248.06 145.26 248.11 145.83 248.21 146.14 248.31 146.29 248.41 146.29 248.46 145.41 248.56 145.46 248.66 146.49 248.76 147.68 248.81 148.71 248.91 149.23 249.01 149.59 249.11 149.74 249.16 149.64 249.27 149.9 249.37 150.16 249.48 150.31 249.53 150.46 249.64 149.89 249.74 149.89 249.85 150.67 249.95 151.5 250 151.76 250.1 151.4 250.21 151.81 250.31 152.64 250.36 153.47 250.46 154.14 250.56 154.66 250.66 154.92 250.71 155.28 250.81 155.33 250.91 155.64 251.01 155.74 251.06 156.15 251.16 156.05 251.26 156.31 251.36 156.47 251.41 156.11 251.51 156.52 251.61 157.5 251.71 158.8 251.81 159.37 251.86 158.8 251.97 158.23 252.07 158.64 252.18 159.73 252.23 161.18 252.34 162.11 252.44 162.32 252.55 162.11 252.6 162.42 252.7 162.89 252.8 163.36 252.9 163.77 252.95 164.03 253.05 164.5 253.15 165.48 253.25 166.1 253.3 166.31 253.4 166.36 253.5 166.41 253.6 166.46 253.7 166.46 253.75 166.87 253.85 167.18 253.95 167.54 254.05 168.01 254.1 168.42 254.2 168.94 254.31 168.89 254.41 169.05 254.46 169.26 254.56 169.47 254.66 169.88 254.76 170.29 254.81 170.91 254.91 171.38 255.01 171.74" id="e" stroke="#3B4BA7" stroke-width="0.67" stroke-linejoin="round" fill="none"/></g><g id="f" fill="none"><text fill="#ED1D24" font-family="ArialMT,Arial" font-size="8.8" transform="translate(32.43 192.83)"><tspan x="0" y="0">0</tspan></text><text fill="#ED1D24" font-family="ArialMT,Arial" font-size="8.8" transform="translate(64.14 192.83)"><tspan x="0" y="0">2</tspan></text><text fill="#ED1D24" font-family="ArialMT,Arial" font-size="8.8" transform="translate(69.08 192.83)"><tspan x="0" y="0">0</tspan></text><text fill="#ED1D24" font-family="ArialMT,Arial" font-size="8.8" transform="translate(74.02 192.83)"><tspan x="0" y="0">0</tspan></text><text fill="#ED1D24" font-family="ArialMT,Arial" font-size="8.8" transform="translate(100.79 192.83)"><tspan x="0" y="0">4</tspan></text><text fill="#ED1D24" font-family="ArialMT,Arial" font-size="8.8" transform="translate(105.73 192.83)"><tspan x="0" y="0">0</tspan></text><text fill="#ED1D24" font-family="ArialMT,Arial" font-size="8.8" transform="translate(110.67 192.83)"><tspan x="0" y="0">0</tspan></text><text fill="#ED1D24" font-family="ArialMT,Arial" font-size="8.8" transform="translate(137.44 192.83)"><tspan x="0" y="0">6</tspan></text><text fill="#ED1D24" font-family="ArialMT,Arial" font-size="8.8" transform="translate(142.38 192.83)"><tspan x="0" y="0">0</tspan></text><text fill="#ED1D24" font-family="ArialMT,Arial" font-size="8.8" transform="translate(147.32 192.83)"><tspan x="0" y="0">0</tspan></text><text fill="#ED1D24" font-family="ArialMT,Arial" font-size="8.8" transform="translate(174.1 192.83)"><tspan x="0" y="0">8</tspan></text><text fill="#ED1D24" font-family="ArialMT,Arial" font-size="8.8" transform="translate(179.04 192.83)"><tspan x="0" y="0">0</tspan></text><text fill="#ED1D24" font-family="ArialMT,Arial" font-size="8.8" transform="translate(183.98 192.83)"><tspan x="0" y="0">0</tspan></text><text fill="#ED1D24" font-family="ArialMT,Arial" font-size="8.8" transform="translate(208.31 192.83)"><tspan x="0" y="0">1</tspan></text><text fill="#ED1D24" font-family="ArialMT,Arial" font-size="8.8" transform="translate(213.25 192.83)"><tspan x="0" y="0">0</tspan></text><text fill="#ED1D24" font-family="ArialMT,Arial" font-size="8.8" transform="translate(218.19 192.83)"><tspan x="0" y="0">0</tspan></text><text fill="#ED1D24" font-family="ArialMT,Arial" font-size="8.8" transform="translate(223.13 192.83)"><tspan x="0" y="0">0</tspan></text><text fill="#ED1D24" font-family="ArialMT,Arial" font-size="8.8" transform="translate(244.96 192.83)"><tspan x="0" y="0">1</tspan></text><text fill="#ED1D24" font-family="ArialMT,Arial" font-size="8.8" transform="translate(249.9 192.83)"><tspan x="0" y="0">2</tspan></text><text fill="#ED1D24" font-family="ArialMT,Arial" font-size="8.8" transform="translate(254.84 192.83)"><tspan x="0" y="0">0</tspan></text><text fill="#ED1D24" font-family="ArialMT,Arial" font-size="8.8" transform="translate(259.78 192.83)"><tspan x="0" y="0">0</tspan></text><text fill="#ED1D24" font-family="ArialMT,Arial" font-size="8.8" transform="translate(21.16 173.21)"><tspan x="0" y="0">8</tspan></text><text fill="#ED1D24" font-family="ArialMT,Arial" font-size="8.8" transform="translate(26.1 173.21)"><tspan x="0" y="0">6</tspan></text><text fill="#ED1D24" font-family="ArialMT,Arial" font-size="8.8" transform="translate(21.16 150.08)"><tspan x="0" y="0">8</tspan></text><text fill="#ED1D24" font-family="ArialMT,Arial" font-size="8.8" transform="translate(26.1 150.08)"><tspan x="0" y="0">8</tspan></text><text fill="#ED1D24" font-family="ArialMT,Arial" font-size="8.8" transform="translate(21.16 127)"><tspan x="0" y="0">9</tspan></text><text fill="#ED1D24" font-family="ArialMT,Arial" font-size="8.8" transform="translate(26.1 127)"><tspan x="0" y="0">0</tspan></text><text fill="#ED1D24" font-family="ArialMT,Arial" font-size="8.8" transform="translate(21.16 103.92)"><tspan x="0" y="0">9</tspan></text><text fill="#ED1D24" font-family="ArialMT,Arial" font-size="8.8" transform="translate(26.1 103.92)"><tspan x="0" y="0">2</tspan></text><text fill="#ED1D24" font-family="ArialMT,Arial" font-size="8.8" transform="translate(21.16 80.78)"><tspan x="0" y="0">9</tspan></text><text fill="#ED1D24" font-family="ArialMT,Arial" font-size="8.8" transform="translate(26.1 80.78)"><tspan x="0" y="0">4</tspan></text><text fill="#ED1D24" font-family="ArialMT,Arial" font-size="8.8" transform="translate(21.16 57.7)"><tspan x="0" y="0">9</tspan></text><text fill="#ED1D24" font-family="ArialMT,Arial" font-size="8.8" transform="translate(26.1 57.7)"><tspan x="0" y="0">6</tspan></text><text fill="#ED1D24" font-family="ArialMT,Arial" font-size="8.8" transform="translate(21.16 34.56)"><tspan x="0" y="0">9</tspan></text><text fill="#ED1D24" font-family="ArialMT,Arial" font-size="8.8" transform="translate(26.1 34.56)"><tspan x="0" y="0">8</tspan></text><text fill="#ED1D24" font-family="ArialMT,Arial" font-size="8.8" transform="translate(16.22 11.48)"><tspan x="0" y="0">1</tspan></text><text fill="#ED1D24" font-family="ArialMT,Arial" font-size="8.8" transform="translate(21.16 11.48)"><tspan x="0" y="0">0</tspan></text><text fill="#ED1D24" font-family="ArialMT,Arial" font-size="8.8" transform="translate(26.1 11.48)"><tspan x="0" y="0">0</tspan></text></g><g id="g"><path d="M34.93 182.07 34.93 178.5" id="h" stroke="#231F20" stroke-width="0.67" stroke-linejoin="round" fill="none"/></g><g id="i"><path d="M53.23 182.07 53.23 180.26" id="j" stroke="#231F20" stroke-width="0.67" stroke-linejoin="round" fill="none"/></g><g id="k"><path d="M71.58 182.07 71.58 178.5" id="l" stroke="#231F20" stroke-width="0.67" stroke-linejoin="round" fill="none"/></g><g id="m"><path d="M89.87 182.07 89.87 180.26" id="n" stroke="#231F20" stroke-width="0.67" stroke-linejoin="round" fill="none"/></g><g id="o"><path d="M108.22 182.07 108.22 178.5" id="p" stroke="#231F20" stroke-width="0.67" stroke-linejoin="round" fill="none"/></g><g id="q"><path d="M126.52 182.07 126.52 180.26" id="r" stroke="#231F20" stroke-width="0.67" stroke-linejoin="round" fill="none"/></g><g id="s"><path d="M144.87 182.07 144.87 178.5" id="t" stroke="#231F20" stroke-width="0.67" stroke-linejoin="round" fill="none"/></g><g id="u"><path d="M163.17 182.07 163.17 180.26" id="v" stroke="#231F20" stroke-width="0.67" stroke-linejoin="round" fill="none"/></g><g id="w"><path d="M181.52 182.07 181.52 178.5" id="x" stroke="#231F20" stroke-width="0.67" stroke-linejoin="round" fill="none"/></g><g id="y"><path d="M199.82 182.07 199.82 180.26" id="z" stroke="#231F20" stroke-width="0.67" stroke-linejoin="round" fill="none"/></g><g id="aa"><path d="M218.17 182.07 218.17 178.5" id="ab" stroke="#231F20" stroke-width="0.67" stroke-linejoin="round" fill="none"/></g><g id="ac"><path d="M236.46 182.07 236.46 180.26" id="ad" stroke="#231F20" stroke-width="0.67" stroke-linejoin="round" fill="none"/></g><g id="ae"><path d="M254.81 182.07 254.81 178.5" id="af" stroke="#231F20" stroke-width="0.67" stroke-linejoin="round" fill="none"/></g><g id="ag"><path d="M273.11 182.07 273.11 180.26" id="ah" stroke="#231F20" stroke-width="0.67" stroke-linejoin="round" fill="none"/></g><g id="ai"><path d="M34.93 182.07 273.11 182.07" id="aj" stroke="#231F20" stroke-width="0.67" stroke-linejoin="round" fill="none"/></g><g id="ak"><path d="M34.93 182.07 36.75 182.07" id="al" stroke="#ED1D24" stroke-width="0.67" stroke-linejoin="round" fill="none"/></g><g id="am"><path d="M34.93 170.53 38.52 170.53" id="an" stroke="#ED1D24" stroke-width="0.67" stroke-linejoin="round" fill="none"/></g><g id="ao"><path d="M34.93 158.99 36.75 158.99" id="ap" stroke="#ED1D24" stroke-width="0.67" stroke-linejoin="round" fill="none"/></g><g id="aq"><path d="M34.93 147.4 38.52 147.4" id="ar" stroke="#ED1D24" stroke-width="0.67" stroke-linejoin="round" fill="none"/></g><g id="as"><path d="M34.93 135.86 36.75 135.86" id="at" stroke="#ED1D24" stroke-width="0.67" stroke-linejoin="round" fill="none"/></g><g id="au"><path d="M34.93 124.32 38.52 124.32" id="av" stroke="#ED1D24" stroke-width="0.67" stroke-linejoin="round" fill="none"/></g><g id="aw"><path d="M34.93 112.78 36.75 112.78" id="ax" stroke="#ED1D24" stroke-width="0.67" stroke-linejoin="round" fill="none"/></g><g id="ay"><path d="M34.93 101.24 38.52 101.24" id="az" stroke="#ED1D24" stroke-width="0.67" stroke-linejoin="round" fill="none"/></g><g id="ba"><path d="M34.93 89.65 36.75 89.65" id="bb" stroke="#ED1D24" stroke-width="0.67" stroke-linejoin="round" fill="none"/></g><g id="bc"><path d="M34.93 78.11 38.52 78.11" id="bd" stroke="#ED1D24" stroke-width="0.67" stroke-linejoin="round" fill="none"/></g><g id="be"><path d="M34.93 66.57 36.75 66.57" id="bf" stroke="#ED1D24" stroke-width="0.67" stroke-linejoin="round" fill="none"/></g><g id="bg"><path d="M34.93 55.03 38.52 55.03" id="bh" stroke="#ED1D24" stroke-width="0.67" stroke-linejoin="round" fill="none"/></g><g id="bi"><path d="M34.93 43.49 36.75 43.49" id="bj" stroke="#ED1D24" stroke-width="0.67" stroke-linejoin="round" fill="none"/></g><g id="bk"><path d="M34.93 31.9 38.52 31.9" id="bl" stroke="#ED1D24" stroke-width="0.67" stroke-linejoin="round" fill="none"/></g><g id="bm"><path d="M34.93 20.36 36.75 20.36" id="bn" stroke="#ED1D24" stroke-width="0.67" stroke-linejoin="round" fill="none"/></g><g id="bo"><path d="M34.93 8.82 38.52 8.82" id="bp" stroke="#ED1D24" stroke-width="0.67" stroke-linejoin="round" fill="none"/></g><g id="bq"><path d="M34.93 182.07 34.93 8.82" id="br" stroke="#ED1D24" stroke-width="0.67" stroke-linejoin="round" fill="none"/></g><g id="bs"><path d="M34.93 8.82 273.11 8.82" id="bt" stroke="#231F20" stroke-width="0.67" stroke-linejoin="round" fill="none"/></g><g id="bu" fill="none"><text fill="#231F20" font-family="TimesNewRomanMTStd,Times New Roman MT Std" font-size="10.24" transform="translate(123.3 204.21)"><tspan x="0" y="0">T</tspan></text><text fill="#231F20" font-family="TimesNewRomanMTStd,Times New Roman MT Std" font-size="10.24" transform="translate(129.59 204.21)"><tspan x="0" y="0">e</tspan></text><text fill="#231F20" font-family="TimesNewRomanMTStd,Times New Roman MT Std" font-size="10.24" transform="translate(134.16 204.21)"><tspan x="0" y="0">m</tspan></text><text fill="#231F20" font-family="TimesNewRomanMTStd,Times New Roman MT Std" font-size="10.24" transform="translate(142.16 204.21)"><tspan x="0" y="0">p</tspan></text><text fill="#231F20" font-family="TimesNewRomanMTStd,Times New Roman MT Std" font-size="10.24" transform="translate(147.31 204.21)"><tspan x="0" y="0">e</tspan></text><text fill="#231F20" font-family="TimesNewRomanMTStd,Times New Roman MT Std" font-size="10.24" transform="translate(151.88 204.21)"><tspan x="0" y="0">r</tspan></text><text fill="#231F20" font-family="TimesNewRomanMTStd,Times New Roman MT Std" font-size="10.24" transform="translate(155.31 204.21)"><tspan x="0" y="0">a</tspan></text><text fill="#231F20" font-family="TimesNewRomanMTStd,Times New Roman MT Std" font-size="10.24" transform="translate(159.88 204.21)"><tspan x="0" y="0">t</tspan></text><text fill="#231F20" font-family="TimesNewRomanMTStd,Times New Roman MT Std" font-size="10.24" transform="translate(162.74 204.21)"><tspan x="0" y="0">u</tspan></text><text fill="#231F20" font-family="TimesNewRomanMTStd,Times New Roman MT Std" font-size="10.24" transform="translate(167.88 204.21)"><tspan x="0" y="0">r</tspan></text><text fill="#231F20" font-family="TimesNewRomanMTStd,Times New Roman MT Std" font-size="10.24" transform="translate(171.31 204.21)"><tspan x="0" y="0">e</tspan></text><text fill="#231F20" font-family="TimesNewRomanMTStd,Times New Roman MT Std" font-size="10.24" transform="translate(175.88 204.21)"><tspan x="0" y="0">/</tspan></text><text fill="#231F20" font-family="TimesNewRomanMTStd,Times New Roman MT Std" font-size="10.24" transform="translate(178.74 204.21)"><tspan x="0" y="0"></tspan></text></g><g id="bv" fill="none"><text fill="#231F20" font-family="TimesNewRomanMTStd,Times New Roman MT Std" font-size="6.11" transform="translate(181.36 198.57)"><tspan x="0" y="0">o</tspan></text></g><g id="bw" fill="none"><text fill="#231F20" font-family="TimesNewRomanMTStd,Times New Roman MT Std" font-size="10.24" transform="translate(184.43 204.21)"><tspan x="0" y="0">C</tspan></text></g><g id="bx" fill="none"><text fill="#231F20" font-family="TimesNewRomanMTStd,Times New Roman MT Std" font-size="10.45" transform="matrix(6.12323e-17 -1 1 6.12323e-17 12.84 115.11)"><tspan x="0" y="0">T</tspan></text><text fill="#231F20" font-family="TimesNewRomanMTStd,Times New Roman MT Std" font-size="10.45" transform="matrix(6.12323e-17 -1 1 6.12323e-17 12.84 108.75)"><tspan x="0" y="0">G</tspan></text><text fill="#231F20" font-family="TimesNewRomanMTStd,Times New Roman MT Std" font-size="10.45" transform="matrix(6.12323e-17 -1 1 6.12323e-17 12.84 101.24)"><tspan x="0" y="0">/</tspan></text><text fill="#231F20" font-family="TimesNewRomanMTStd,Times New Roman MT Std" font-size="10.45" transform="matrix(6.12323e-17 -1 1 6.12323e-17 12.84 98.35)"><tspan x="0" y="0">%</tspan></text></g><g id="by" fill="none"><text fill="#3B4BA7" font-family="ArialMT,Arial" font-size="8.8" transform="translate(277.01 184.76)"><tspan x="0" y="0">-</tspan></text><text fill="#3B4BA7" font-family="ArialMT,Arial" font-size="8.8" transform="translate(279.96 184.76)"><tspan x="0" y="0">1</tspan></text><text fill="#3B4BA7" font-family="ArialMT,Arial" font-size="8.8" transform="translate(284.88 184.76)"><tspan x="0" y="0">.</tspan></text><text fill="#3B4BA7" font-family="ArialMT,Arial" font-size="8.8" transform="translate(287.35 184.76)"><tspan x="0" y="0">0</tspan></text><text fill="#3B4BA7" font-family="ArialMT,Arial" font-size="8.8" transform="translate(277.01 150.08)"><tspan x="0" y="0">-</tspan></text><text fill="#3B4BA7" font-family="ArialMT,Arial" font-size="8.8" transform="translate(279.96 150.08)"><tspan x="0" y="0">0</tspan></text><text fill="#3B4BA7" font-family="ArialMT,Arial" font-size="8.8" transform="translate(284.88 150.08)"><tspan x="0" y="0">.</tspan></text><text fill="#3B4BA7" font-family="ArialMT,Arial" font-size="8.8" transform="translate(287.35 150.08)"><tspan x="0" y="0">5</tspan></text><text fill="#3B4BA7" font-family="ArialMT,Arial" font-size="8.8" transform="translate(277.01 115.47)"><tspan x="0" y="0">0</tspan></text><text fill="#3B4BA7" font-family="ArialMT,Arial" font-size="8.8" transform="translate(281.92 115.47)"><tspan x="0" y="0">.</tspan></text><text fill="#3B4BA7" font-family="ArialMT,Arial" font-size="8.8" transform="translate(284.38 115.47)"><tspan x="0" y="0">0</tspan></text><text fill="#3B4BA7" font-family="ArialMT,Arial" font-size="8.8" transform="translate(277.01 80.8)"><tspan x="0" y="0">0</tspan></text><text fill="#3B4BA7" font-family="ArialMT,Arial" font-size="8.8" transform="translate(281.92 80.8)"><tspan x="0" y="0">.</tspan></text><text fill="#3B4BA7" font-family="ArialMT,Arial" font-size="8.8" transform="translate(284.38 80.8)"><tspan x="0" y="0">5</tspan></text><text fill="#3B4BA7" font-family="ArialMT,Arial" font-size="8.8" transform="translate(277.01 46.18)"><tspan x="0" y="0">1</tspan></text><text fill="#3B4BA7" font-family="ArialMT,Arial" font-size="8.8" transform="translate(281.92 46.18)"><tspan x="0" y="0">.</tspan></text><text fill="#3B4BA7" font-family="ArialMT,Arial" font-size="8.8" transform="translate(284.38 46.18)"><tspan x="0" y="0">0</tspan></text><text fill="#3B4BA7" font-family="ArialMT,Arial" font-size="8.8" transform="translate(277.01 11.51)"><tspan x="0" y="0">1</tspan></text><text fill="#3B4BA7" font-family="ArialMT,Arial" font-size="8.8" transform="translate(281.92 11.51)"><tspan x="0" y="0">.</tspan></text><text fill="#3B4BA7" font-family="ArialMT,Arial" font-size="8.8" transform="translate(284.38 11.51)"><tspan x="0" y="0">5</tspan></text></g><g id="bz"><path d="M273.11 182.07 269.52 182.07" id="ca" stroke="#3B4BA7" stroke-width="0.67" stroke-linejoin="round" fill="none"/></g><g id="cb"><path d="M273.11 164.73 271.29 164.73" id="cc" stroke="#3B4BA7" stroke-width="0.67" stroke-linejoin="round" fill="none"/></g><g id="cd"><path d="M273.11 147.4 269.52 147.4" id="ce" stroke="#3B4BA7" stroke-width="0.67" stroke-linejoin="round" fill="none"/></g><g id="cf"><path d="M273.11 130.11 271.29 130.11" id="cg" stroke="#3B4BA7" stroke-width="0.67" stroke-linejoin="round" fill="none"/></g><g id="ch"><path d="M273.11 112.78 269.52 112.78" id="ci" stroke="#3B4BA7" stroke-width="0.67" stroke-linejoin="round" fill="none"/></g><g id="cj"><path d="M273.11 95.44 271.29 95.44" id="ck" stroke="#3B4BA7" stroke-width="0.67" stroke-linejoin="round" fill="none"/></g><g id="cl"><path d="M273.11 78.11 269.52 78.11" id="cm" stroke="#3B4BA7" stroke-width="0.67" stroke-linejoin="round" fill="none"/></g><g id="cn"><path d="M273.11 60.77 271.29 60.77" id="co" stroke="#3B4BA7" stroke-width="0.67" stroke-linejoin="round" fill="none"/></g><g id="cp"><path d="M273.11 43.49 269.52 43.49" id="cq" stroke="#3B4BA7" stroke-width="0.67" stroke-linejoin="round" fill="none"/></g><g id="cr"><path d="M273.11 26.15 271.29 26.15" id="cs" stroke="#3B4BA7" stroke-width="0.67" stroke-linejoin="round" fill="none"/></g><g id="ct"><path d="M273.11 8.82 269.52 8.82" id="cu" stroke="#3B4BA7" stroke-width="0.67" stroke-linejoin="round" fill="none"/></g><g id="cv"><path d="M273.11 182.07 273.11 8.82" id="cw" stroke="#3B4BA7" stroke-width="0.67" stroke-linejoin="round" fill="none"/></g><g id="cx" fill="none"><text fill="#231F20" font-family="ArialMT,Arial" font-size="7.09" transform="translate(185.99 146.36)"><tspan x="0" y="0">M</tspan></text><text fill="#231F20" font-family="ArialMT,Arial" font-size="7.09" transform="translate(191.92 146.36)"><tspan x="0" y="0">a</tspan></text><text fill="#231F20" font-family="ArialMT,Arial" font-size="7.09" transform="translate(195.88 146.36)"><tspan x="0" y="0">s</tspan></text><text fill="#231F20" font-family="ArialMT,Arial" font-size="7.09" transform="translate(199.44 146.36)"><tspan x="0" y="0">s</tspan></text><text fill="#231F20" font-family="ArialMT,Arial" font-size="7.09" transform="translate(203 146.36)"><tspan x="0" y="0"></tspan></text><text fill="#231F20" font-family="ArialMT,Arial" font-size="7.09" transform="translate(204.98 146.36)"><tspan x="0" y="0">c</tspan></text><text fill="#231F20" font-family="ArialMT,Arial" font-size="7.09" transform="translate(208.54 146.36)"><tspan x="0" y="0">h</tspan></text><text fill="#231F20" font-family="ArialMT,Arial" font-size="7.09" transform="translate(212.5 146.36)"><tspan x="0" y="0">a</tspan></text><text fill="#231F20" font-family="ArialMT,Arial" font-size="7.09" transform="translate(216.46 146.36)"><tspan x="0" y="0">n</tspan></text><text fill="#231F20" font-family="ArialMT,Arial" font-size="7.09" transform="translate(220.42 146.36)"><tspan x="0" y="0">g</tspan></text><text fill="#231F20" font-family="ArialMT,Arial" font-size="7.09" transform="translate(224.38 146.36)"><tspan x="0" y="0">e</tspan></text><text fill="#231F20" font-family="ArialMT,Arial" font-size="7.09" transform="translate(228.34 146.36)"><tspan x="0" y="0">-</tspan></text><text fill="#231F20" font-family="ArialMT,Arial" font-size="7.09" transform="translate(230.71 146.36)"><tspan x="0" y="0">0</tspan></text><text fill="#231F20" font-family="ArialMT,Arial" font-size="7.09" transform="translate(234.67 146.36)"><tspan x="0" y="0">.</tspan></text><text fill="#231F20" font-family="ArialMT,Arial" font-size="7.09" transform="translate(236.65 146.36)"><tspan x="0" y="0">9</tspan></text><text fill="#231F20" font-family="ArialMT,Arial" font-size="7.09" transform="translate(240.61 146.36)"><tspan x="0" y="0">1</tspan></text><text fill="#231F20" font-family="ArialMT,Arial" font-size="7.09" transform="translate(244.57 146.36)"><tspan x="0" y="0">%</tspan></text><text fill="#231F20" font-family="ArialMT,Arial" font-size="7.09" transform="translate(162.81 128.3)"><tspan x="0" y="0">M</tspan></text><text fill="#231F20" font-family="ArialMT,Arial" font-size="7.09" transform="translate(168.74 128.3)"><tspan x="0" y="0">a</tspan></text><text fill="#231F20" font-family="ArialMT,Arial" font-size="7.09" transform="translate(172.7 128.3)"><tspan x="0" y="0">s</tspan></text><text fill="#231F20" font-family="ArialMT,Arial" font-size="7.09" transform="translate(176.26 128.3)"><tspan x="0" y="0">s</tspan></text><text fill="#231F20" font-family="ArialMT,Arial" font-size="7.09" transform="translate(179.82 128.3)"><tspan x="0" y="0"></tspan></text><text fill="#231F20" font-family="ArialMT,Arial" font-size="7.09" transform="translate(181.8 128.3)"><tspan x="0" y="0">c</tspan></text><text fill="#231F20" font-family="ArialMT,Arial" font-size="7.09" transform="translate(185.36 128.3)"><tspan x="0" y="0">h</tspan></text><text fill="#231F20" font-family="ArialMT,Arial" font-size="7.09" transform="translate(189.32 128.3)"><tspan x="0" y="0">a</tspan></text><text fill="#231F20" font-family="ArialMT,Arial" font-size="7.09" transform="translate(193.28 128.3)"><tspan x="0" y="0">n</tspan></text><text fill="#231F20" font-family="ArialMT,Arial" font-size="7.09" transform="translate(197.24 128.3)"><tspan x="0" y="0">g</tspan></text><text fill="#231F20" font-family="ArialMT,Arial" font-size="7.09" transform="translate(201.2 128.3)"><tspan x="0" y="0">e</tspan></text><text fill="#231F20" font-family="ArialMT,Arial" font-size="7.09" transform="translate(205.16 128.3)"><tspan x="0" y="0">-</tspan></text><text fill="#231F20" font-family="ArialMT,Arial" font-size="7.09" transform="translate(207.53 128.3)"><tspan x="0" y="0">3</tspan></text><text fill="#231F20" font-family="ArialMT,Arial" font-size="7.09" transform="translate(211.49 128.3)"><tspan x="0" y="0">.</tspan></text><text fill="#231F20" font-family="ArialMT,Arial" font-size="7.09" transform="translate(213.47 128.3)"><tspan x="0" y="0">6</tspan></text><text fill="#231F20" font-family="ArialMT,Arial" font-size="7.09" transform="translate(217.43 128.3)"><tspan x="0" y="0">8</tspan></text><text fill="#231F20" font-family="ArialMT,Arial" font-size="7.09" transform="translate(221.39 128.3)"><tspan x="0" y="0">%</tspan></text><text fill="#231F20" font-family="ArialMT,Arial" font-size="7.09" transform="translate(117.22 88.15)"><tspan x="0" y="0">M</tspan></text><text fill="#231F20" font-family="ArialMT,Arial" font-size="7.09" transform="translate(123.15 88.15)"><tspan x="0" y="0">a</tspan></text><text fill="#231F20" font-family="ArialMT,Arial" font-size="7.09" transform="translate(127.11 88.15)"><tspan x="0" y="0">s</tspan></text><text fill="#231F20" font-family="ArialMT,Arial" font-size="7.09" transform="translate(130.67 88.15)"><tspan x="0" y="0">s</tspan></text><text fill="#231F20" font-family="ArialMT,Arial" font-size="7.09" transform="translate(134.23 88.15)"><tspan x="0" y="0"></tspan></text><text fill="#231F20" font-family="ArialMT,Arial" font-size="7.09" transform="translate(136.21 88.15)"><tspan x="0" y="0">c</tspan></text><text fill="#231F20" font-family="ArialMT,Arial" font-size="7.09" transform="translate(139.77 88.15)"><tspan x="0" y="0">h</tspan></text><text fill="#231F20" font-family="ArialMT,Arial" font-size="7.09" transform="translate(143.73 88.15)"><tspan x="0" y="0">a</tspan></text><text fill="#231F20" font-family="ArialMT,Arial" font-size="7.09" transform="translate(147.69 88.15)"><tspan x="0" y="0">n</tspan></text><text fill="#231F20" font-family="ArialMT,Arial" font-size="7.09" transform="translate(151.65 88.15)"><tspan x="0" y="0">g</tspan></text><text fill="#231F20" font-family="ArialMT,Arial" font-size="7.09" transform="translate(155.61 88.15)"><tspan x="0" y="0">e</tspan></text><text fill="#231F20" font-family="ArialMT,Arial" font-size="7.09" transform="translate(159.57 88.15)"><tspan x="0" y="0">-</tspan></text><text fill="#231F20" font-family="ArialMT,Arial" font-size="7.09" transform="translate(161.95 88.15)"><tspan x="0" y="0">4</tspan></text><text fill="#231F20" font-family="ArialMT,Arial" font-size="7.09" transform="translate(165.9 88.15)"><tspan x="0" y="0">.</tspan></text><text fill="#231F20" font-family="ArialMT,Arial" font-size="7.09" transform="translate(167.89 88.15)"><tspan x="0" y="0">9</tspan></text><text fill="#231F20" font-family="ArialMT,Arial" font-size="7.09" transform="translate(171.84 88.15)"><tspan x="0" y="0">3</tspan></text><text fill="#231F20" font-family="ArialMT,Arial" font-size="7.09" transform="translate(175.8 88.15)"><tspan x="0" y="0">%</tspan></text></g><g id="cy" fill="none"><text fill="#3B4BA7" font-family="TimesNewRomanMTStd,Times New Roman MT Std" font-size="10.45" transform="matrix(6.12323e-17 -1 1 6.12323e-17 302.74 134.51)"><tspan x="0" y="0">D</tspan></text><text fill="#3B4BA7" font-family="TimesNewRomanMTStd,Times New Roman MT Std" font-size="10.45" transform="matrix(6.12323e-17 -1 1 6.12323e-17 302.74 127)"><tspan x="0" y="0">S</tspan></text><text fill="#3B4BA7" font-family="TimesNewRomanMTStd,Times New Roman MT Std" font-size="10.45" transform="matrix(6.12323e-17 -1 1 6.12323e-17 302.74 121.22)"><tspan x="0" y="0">C</tspan></text><text fill="#3B4BA7" font-family="TimesNewRomanMTStd,Times New Roman MT Std" font-size="10.45" transform="matrix(6.12323e-17 -1 1 6.12323e-17 302.74 114.28)"><tspan x="0" y="0">/</tspan></text><text fill="#3B4BA7" font-family="TimesNewRomanMTStd,Times New Roman MT Std" font-size="10.45" transform="matrix(6.12323e-17 -1 1 6.12323e-17 302.74 111.39)"><tspan x="0" y="0">(</tspan></text><text fill="#3B4BA7" font-family="TimesNewRomanMTStd,Times New Roman MT Std" font-size="10.45" transform="matrix(6.12323e-17 -1 1 6.12323e-17 302.74 107.93)"><tspan x="0" y="0">m</tspan></text><text fill="#3B4BA7" font-family="TimesNewRomanMTStd,Times New Roman MT Std" font-size="10.45" transform="matrix(6.12323e-17 -1 1 6.12323e-17 302.74 99.8)"><tspan x="0" y="0">W</tspan></text><text fill="#3B4BA7" font-family="TimesNewRomanMTStd,Times New Roman MT Std" font-size="10.45" transform="matrix(6.12323e-17 -1 1 6.12323e-17 302.74 89.99)"><tspan x="0" y="0">/</tspan></text><text fill="#3B4BA7" font-family="TimesNewRomanMTStd,Times New Roman MT Std" font-size="10.45" transform="matrix(6.12323e-17 -1 1 6.12323e-17 302.74 87.1)"><tspan x="0" y="0">m</tspan></text><text fill="#3B4BA7" font-family="TimesNewRomanMTStd,Times New Roman MT Std" font-size="10.45" transform="matrix(6.12323e-17 -1 1 6.12323e-17 302.74 78.96)"><tspan x="0" y="0">g</tspan></text><text fill="#3B4BA7" font-family="TimesNewRomanMTStd,Times New Roman MT Std" font-size="10.45" transform="matrix(6.12323e-17 -1 1 6.12323e-17 302.74 73.76)"><tspan x="0" y="0">)</tspan></text></g><g id="cz"><path d="M61.91 123.64 51.77 129.8" id="da" stroke="#231F20" stroke-width="0.47" stroke-linejoin="round" fill="none"/></g><g id="db"><path d="M51.77 129.8 54.99 126.54 55.56 127.47 56.13 128.4 51.76 129.8Z" id="dc" fill="#231F20" fill-rule="evenodd"/></g><g id="dd"><path d="M51.77 129.8 54.99 126.54 55.56 127.47 56.13 128.4 51.76 129.8Z" id="de" stroke="#231F20" stroke-width="0.47" stroke-linejoin="round" fill="none"/></g><g id="df" fill="none"><text fill="#231F20" font-family="ArialMT,Arial" font-size="6.31" letter-spacing="-0.02em" transform="translate(61.75 128.66)"><tspan x="0" y="0">P</tspan></text><text fill="#231F20" font-family="ArialMT,Arial" font-size="6.31" transform="translate(65.98 128.66)"><tspan x="0" y="0">e</tspan></text><text fill="#231F20" font-family="ArialMT,Arial" font-size="6.31" transform="translate(69.51 128.66)"><tspan x="0" y="0">a</tspan></text><text fill="#231F20" font-family="ArialMT,Arial" font-size="6.31" transform="translate(73.03 128.66)"><tspan x="0" y="0">k</tspan></text><text fill="#231F20" font-family="ArialMT,Arial" font-size="6.31" transform="translate(76.21 128.66)"><tspan x="0" y="0"></tspan></text><text fill="#231F20" font-family="ArialMT,Arial" font-size="6.31" transform="translate(77.97 128.66)"><tspan x="0" y="0">8</tspan></text><text fill="#231F20" font-family="ArialMT,Arial" font-size="6.31" transform="translate(81.5 128.66)"><tspan x="0" y="0">9</tspan></text></g><g id="dg" fill="none"><text fill="#231F20" font-family="ArialMT,Arial" font-size="3.78" transform="translate(85.04 125.2)"><tspan x="0" y="0">o</tspan></text></g><g id="dh" fill="none"><text fill="#231F20" font-family="ArialMT,Arial" font-size="6.31" transform="translate(87.17 128.66)"><tspan x="0" y="0">C</tspan></text></g><g id="di"><path d="M94.4 70.66 85.61 76.82" id="dj" stroke="#231F20" stroke-width="0.47" stroke-linejoin="round" fill="none"/></g><g id="dk"><path d="M85.61 76.81 88.62 73.34 89.24 74.22 89.86 75.15 85.6 76.81Z" id="dl" fill="#231F20" fill-rule="evenodd"/></g><g id="dm"><path d="M85.61 76.81 88.62 73.34 89.24 74.22 89.86 75.15 85.6 76.81Z" id="dn" stroke="#231F20" stroke-width="0.47" stroke-linejoin="round" fill="none"/></g><g id="do" fill="none"><text fill="#231F20" font-family="ArialMT,Arial" font-size="6.31" letter-spacing="-0.02em" transform="translate(95.38 74.64)"><tspan x="0" y="0">P</tspan></text><text fill="#231F20" font-family="ArialMT,Arial" font-size="6.31" transform="translate(99.61 74.64)"><tspan x="0" y="0">e</tspan></text><text fill="#231F20" font-family="ArialMT,Arial" font-size="6.31" transform="translate(103.14 74.64)"><tspan x="0" y="0">a</tspan></text><text fill="#231F20" font-family="ArialMT,Arial" font-size="6.31" transform="translate(106.67 74.64)"><tspan x="0" y="0">k</tspan></text><text fill="#231F20" font-family="ArialMT,Arial" font-size="6.31" transform="translate(109.84 74.64)"><tspan x="0" y="0"></tspan></text><text fill="#231F20" font-family="ArialMT,Arial" font-size="6.31" transform="translate(111.6 74.64)"><tspan x="0" y="0">2</tspan></text><text fill="#231F20" font-family="ArialMT,Arial" font-size="6.31" transform="translate(115.13 74.64)"><tspan x="0" y="0">7</tspan></text><text fill="#231F20" font-family="ArialMT,Arial" font-size="6.31" transform="translate(118.65 74.64)"><tspan x="0" y="0">1</tspan></text></g><g id="dp" fill="none"><text fill="#231F20" font-family="ArialMT,Arial" font-size="3.78" transform="translate(122.21 71.17)"><tspan x="0" y="0">o</tspan></text></g><g id="dq" fill="none"><text fill="#231F20" font-family="ArialMT,Arial" font-size="6.31" transform="translate(124.34 74.64)"><tspan x="0" y="0">C</tspan></text></g><g id="dr"><path d="M153.71 46.49 144.92 52.65" id="ds" stroke="#231F20" stroke-width="0.47" stroke-linejoin="round" fill="none"/></g><g id="dt"><path d="M144.92 52.65 147.93 49.18 148.55 50.06 149.18 50.99 144.92 52.65Z" id="du" fill="#231F20" fill-rule="evenodd"/></g><g id="dv"><path d="M144.92 52.65 147.93 49.18 148.55 50.06 149.18 50.99 144.92 52.65Z" id="dw" stroke="#231F20" stroke-width="0.47" stroke-linejoin="round" fill="none"/></g><g id="dx" fill="none"><text fill="#231F20" font-family="ArialMT,Arial" font-size="6.31" letter-spacing="-0.02em" transform="translate(154.75 50.48)"><tspan x="0" y="0">P</tspan></text><text fill="#231F20" font-family="ArialMT,Arial" font-size="6.31" transform="translate(158.98 50.48)"><tspan x="0" y="0">e</tspan></text><text fill="#231F20" font-family="ArialMT,Arial" font-size="6.31" transform="translate(162.5 50.48)"><tspan x="0" y="0">a</tspan></text><text fill="#231F20" font-family="ArialMT,Arial" font-size="6.31" transform="translate(166.03 50.48)"><tspan x="0" y="0">k</tspan></text><text fill="#231F20" font-family="ArialMT,Arial" font-size="6.31" transform="translate(169.2 50.48)"><tspan x="0" y="0"></tspan></text><text fill="#231F20" font-family="ArialMT,Arial" font-size="6.31" transform="translate(170.97 50.48)"><tspan x="0" y="0">5</tspan></text><text fill="#231F20" font-family="ArialMT,Arial" font-size="6.31" transform="translate(174.49 50.48)"><tspan x="0" y="0">9</tspan></text><text fill="#231F20" font-family="ArialMT,Arial" font-size="6.31" transform="translate(178.02 50.48)"><tspan x="0" y="0">7</tspan></text></g><g id="dy" fill="none"><text fill="#231F20" font-family="ArialMT,Arial" font-size="3.78" transform="translate(181.57 47.01)"><tspan x="0" y="0">o</tspan></text></g><g id="dz" fill="none"><text fill="#231F20" font-family="ArialMT,Arial" font-size="6.31" transform="translate(183.7 50.48)"><tspan x="0" y="0">C</tspan></text><text fill="#231F20" font-family="ArialMT,Arial" font-size="6.31" letter-spacing="-0.02em" transform="translate(195.5 26.62)"><tspan x="0" y="0">P</tspan></text><text fill="#231F20" font-family="ArialMT,Arial" font-size="6.31" transform="translate(199.73 26.62)"><tspan x="0" y="0">e</tspan></text><text fill="#231F20" font-family="ArialMT,Arial" font-size="6.31" transform="translate(203.26 26.62)"><tspan x="0" y="0">a</tspan></text><text fill="#231F20" font-family="ArialMT,Arial" font-size="6.31" transform="translate(206.78 26.62)"><tspan x="0" y="0">k</tspan></text><text fill="#231F20" font-family="ArialMT,Arial" font-size="6.31" transform="translate(209.95 26.62)"><tspan x="0" y="0"></tspan></text><text fill="#231F20" font-family="ArialMT,Arial" font-size="6.31" transform="translate(211.72 26.62)"><tspan x="0" y="0">8</tspan></text><text fill="#231F20" font-family="ArialMT,Arial" font-size="6.31" transform="translate(215.24 26.62)"><tspan x="0" y="0">0</tspan></text><text fill="#231F20" font-family="ArialMT,Arial" font-size="6.31" transform="translate(218.77 26.62)"><tspan x="0" y="0">9</tspan></text></g><g id="ea" fill="none"><text fill="#231F20" font-family="ArialMT,Arial" font-size="3.78" transform="translate(222.32 23.15)"><tspan x="0" y="0">o</tspan></text></g><g id="eb" fill="none"><text fill="#231F20" font-family="ArialMT,Arial" font-size="6.31" transform="translate(224.46 26.62)"><tspan x="0" y="0">C</tspan></text></g><g id="ec"><path d="M199.82 21.24 184.95 14.56" id="ed" stroke="#231F20" stroke-width="0.47" stroke-linejoin="round" fill="none"/></g><g id="ee"><path d="M184.95 14.56 189.47 15.39 189 16.38 188.58 17.41 184.94 14.56Z" id="ef" fill="#231F20" fill-rule="evenodd"/></g><g id="eg"><path d="M184.95 14.56 189.47 15.39 189 16.38 188.58 17.41 184.94 14.56Z" id="eh" stroke="#231F20" stroke-width="0.47" stroke-linejoin="round" fill="none"/></g><g id="ei"><path d="M58.95 9.91 58.95 43.34" id="ej" stroke="#231F20" stroke-width="0.47" stroke-linejoin="round" fill="none"/></g><g id="ek"><path d="M58.95 43.33 57.86 38.88 60.04 38.88 58.95 43.33Z" id="el" fill="#231F20" fill-rule="evenodd"/></g><g id="em"><path d="M58.95 43.33 57.86 38.88 60.04 38.88 58.95 43.33Z" id="en" stroke="#231F20" stroke-width="0.47" stroke-linejoin="round" fill="none"/></g><g id="eo"><path d="M59.52 9.91 35.14 9.91" id="ep" stroke="#231F20" stroke-width="0.47" stroke-linejoin="round" fill="none"/></g><g id="eq"><path d="M118 105.48 161.51 105.48" id="er" stroke="#231F20" stroke-width="0.47" stroke-linejoin="round" fill="none"/></g><g id="es"><path d="M161.19 105.64 161.19 148.74" id="et" stroke="#231F20" stroke-width="0.47" stroke-linejoin="round" fill="none"/></g><g id="eu"><path d="M161.19 148.74 160.1 144.29 162.29 144.29 161.2 148.74Z" id="ev" fill="#231F20" fill-rule="evenodd"/></g><g id="ew"><path d="M161.19 148.74 160.1 144.29 162.29 144.29 161.2 148.74Z" id="ex" stroke="#231F20" stroke-width="0.47" stroke-linejoin="round" fill="none"/></g><g id="ey"><path d="M161.92 148.02 258.29 148.02" id="ez" stroke="#231F20" stroke-width="0.47" stroke-linejoin="round" fill="none"/></g><g id="fa"><path d="M257.83 147.6 257.83 161.11" id="fb" stroke="#231F20" stroke-width="0.47" stroke-linejoin="round" fill="none"/></g><g id="fc"><path d="M257.83 161.11 256.74 156.66 258.92 156.66 257.83 161.11Z" id="fd" fill="#231F20" fill-rule="evenodd"/></g><g id="fe"><path d="M257.83 161.11 256.74 156.66 258.92 156.66 257.83 161.11Z" id="ff" stroke="#231F20" stroke-width="0.47" stroke-linejoin="round" fill="none"/></g><g id="fg"><path d="M58.37 43.33 118.56 43.33" id="fh" stroke="#231F20" stroke-width="0.47" stroke-linejoin="round" fill="none"/></g><g id="fi"><path d="M118.05 43.44 118.05 105.64" id="fj" stroke="#231F20" stroke-width="0.47" stroke-linejoin="round" fill="none"/></g><g id="fk"><path d="M118.05 105.64 116.96 101.19 119.14 101.19 118.05 105.64Z" id="fl" fill="#231F20" fill-rule="evenodd"/></g><g id="fm"><path d="M118.05 105.64 116.96 101.19 119.14 101.19 118.05 105.64Z" id="fn" stroke="#231F20" stroke-width="0.47" stroke-linejoin="round" fill="none"/></g><g id="fo" fill="none"><text fill="#231F20" font-family="ArialMT,Arial" font-size="7.09" transform="translate(60.4 26)"><tspan x="0" y="0">M</tspan></text><text fill="#231F20" font-family="ArialMT,Arial" font-size="7.09" transform="translate(66.33 26)"><tspan x="0" y="0">a</tspan></text><text fill="#231F20" font-family="ArialMT,Arial" font-size="7.09" transform="translate(70.29 26)"><tspan x="0" y="0">s</tspan></text><text fill="#231F20" font-family="ArialMT,Arial" font-size="7.09" transform="translate(73.85 26)"><tspan x="0" y="0">s</tspan></text><text fill="#231F20" font-family="ArialMT,Arial" font-size="7.09" transform="translate(77.41 26)"><tspan x="0" y="0"></tspan></text><text fill="#231F20" font-family="ArialMT,Arial" font-size="7.09" transform="translate(79.39 26)"><tspan x="0" y="0">c</tspan></text><text fill="#231F20" font-family="ArialMT,Arial" font-size="7.09" transform="translate(82.96 26)"><tspan x="0" y="0">h</tspan></text><text fill="#231F20" font-family="ArialMT,Arial" font-size="7.09" transform="translate(86.92 26)"><tspan x="0" y="0">a</tspan></text><text fill="#231F20" font-family="ArialMT,Arial" font-size="7.09" transform="translate(90.87 26)"><tspan x="0" y="0">n</tspan></text><text fill="#231F20" font-family="ArialMT,Arial" font-size="7.09" transform="translate(94.83 26)"><tspan x="0" y="0">g</tspan></text><text fill="#231F20" font-family="ArialMT,Arial" font-size="7.09" transform="translate(98.79 26)"><tspan x="0" y="0">e</tspan></text><text fill="#231F20" font-family="ArialMT,Arial" font-size="7.09" transform="translate(102.75 26)"><tspan x="0" y="0">-</tspan></text><text fill="#231F20" font-family="ArialMT,Arial" font-size="7.09" transform="translate(105.13 26)"><tspan x="0" y="0">3</tspan></text><text fill="#231F20" font-family="ArialMT,Arial" font-size="7.09" transform="translate(109.09 26)"><tspan x="0" y="0">.</tspan></text><text fill="#231F20" font-family="ArialMT,Arial" font-size="7.09" transform="translate(111.06 26)"><tspan x="0" y="0">6</tspan></text><text fill="#231F20" font-family="ArialMT,Arial" font-size="7.09" transform="translate(115.02 26)"><tspan x="0" y="0">4</tspan></text><text fill="#231F20" font-family="ArialMT,Arial" font-size="7.09" transform="translate(118.98 26)"><tspan x="0" y="0">%</tspan></text></g></svg>