<svg width="985" height="224" viewBox="0 0 985 224" xmlns="http://www.w3.org/2000/svg" xmlns:xlink="http://www.w3.org/1999/xlink" overflow="hidden"><defs></defs><g id="page7" transform="translate(5.5 5.5)"><rect x="0" y="0" width="975" height="214" fill="none"/><g id="shape1" transform="translate(38 118.5)"><path d="M116 49 116 7C116 3.1 112.9 0 109 0L7 0C3.1 0 0 3.1 0 7L0 49C0 52.9 3.1 56 7 56L109 56C112.9 56 116 52.9 116 49Z" fill="#FFFFFF"/><text fill="#191919" font-family="方正书宋简体,PingFang SC,Mircrosoft YaHei,Arial" font-size="17.3333" xml:space="preserve"><tspan x="5.2" y="22.4">萃取转皂后液</tspan><tspan x="5.2" y="42.4">钠线循环母液</tspan></text></g><g id="shape2" transform="translate(182.5 118.5)"><path d="M102 56 102 0 0 0 0 56 102 56Z" stroke="#000000" fill="#FFFFFF"/><text fill="#191919" font-family="方正书宋简体,PingFang SC,Mircrosoft YaHei,Arial" font-size="17.3333" xml:space="preserve"><tspan x="15.8" y="32.4">除磷工段</tspan></text></g><g id="shape3" transform="translate(835 118.5)"><path d="M102 49 102 7C102 3.1 98.9 0 95 0L7 0C3.1 0 0 3.1 0 7L0 49C0 52.9 3.1 56 7 56L95 56C98.9 56 102 52.9 102 49Z" fill="#FFFFFF"/><text fill="#191919" font-family="方正书宋简体,PingFang SC,Mircrosoft YaHei,Arial" font-size="17.3333" xml:space="preserve"><tspan x="24.6" y="22.4">硫酸钠</tspan><tspan x="7" y="42.4">预处理后液</tspan></text></g><g id="shape4" transform="translate(313 118.5)"><path d="M102 56 102 0 0 0 0 56 102 56Z" stroke="#000000" fill="#FFFFFF"/><text fill="#191919" font-family="方正书宋简体,PingFang SC,Mircrosoft YaHei,Arial" font-size="17.3333" xml:space="preserve"><tspan x="15.8" y="32.4">除磷压滤</tspan></text></g><g id="shape5" transform="translate(154 146.5)"><path d="M0 0 22.5 0" stroke="#191919" fill="none"/><path d="M22.5-3 28.5 0 22.5 3 22.5-3" stroke="#191919" stroke-linecap="round" fill="#191919"/></g><g id="shape6" transform="translate(284.5 146.5)"><path d="M0 0 22.5 0" stroke="#191919" fill="none"/><path d="M22.5-3 28.5 0 22.5 3 22.5-3" stroke="#191919" stroke-linecap="round" fill="#191919"/></g><g id="shape7" transform="translate(182.5 66)"><path d="M102 21 102 7C102 3.1 98.9 0 95 0L7 0C3.1 0 0 3.1 0 7L0 21C0 24.9 3.1 28 7 28L95 28C98.9 28 102 24.9 102 21Z" fill="#FFFFFF"/><text fill="#191919" font-family="方正书宋简体,PingFang SC,Mircrosoft YaHei,Arial" font-size="17.3333" xml:space="preserve"><tspan x="24.6" y="18.4">除磷剂</tspan></text></g><g id="shape8" transform="translate(233.5 94)"><path d="M0 0 0 18.5" stroke="#191919" fill="none"/><path d="M3 18.5 0 24.5-3 18.5 3 18.5" stroke="#191919" stroke-linecap="round" fill="#191919"/></g><g id="shape9" transform="matrix(0 1 -1 0 373.193 60)"><path d="M36 46 58.5 88.7M0 0 36 0 36 92.1 0 92.1 0 0Z" stroke="#F2C94C" stroke-width="2" fill="#FCF5E9"/><text fill="#B29335" font-family="方正书宋简体,PingFang SC,Mircrosoft YaHei,Arial" font-size="17.3333" xml:space="preserve" transform="matrix(0 -1 1 0 -28 64)"><tspan x="-17.6" y="50.4">pH=4~4.5</tspan></text></g><g id="shape10" transform="translate(430.894 38)"><path d="M127.2 49 127.2 7C127.2 3.1 124.1 0 120.2 0L7 0C3.1 0 0 3.1 0 7L0 49C0 52.9 3.1 56 7 56L120.2 56C124.1 56 127.2 52.9 127.2 49Z" fill="#FFFFFF"/><text fill="#191919" font-family="方正书宋简体,PingFang SC,Mircrosoft YaHei,Arial" font-size="17.3333" xml:space="preserve"><tspan x="46" y="22.4">液碱</tspan><tspan x="10.8" y="42.4">电镍沉镍后液</tspan></text></g><g id="shape11" transform="translate(494.5 94)"><path d="M0 0 0 18.5" stroke="#191919" fill="none"/><path d="M3 18.5 0 24.5-3 18.5 3 18.5" stroke="#191919" stroke-linecap="round" fill="#191919"/></g><g id="shape12" transform="translate(443.5 118.5)"><path d="M102 56 102 0 0 0 0 56 102 56Z" stroke="#000000" fill="#FFFFFF"/><text fill="#191919" font-family="方正书宋简体,PingFang SC,Mircrosoft YaHei,Arial" font-size="17.3333" xml:space="preserve"><tspan x="15.8" y="32.4">除重工段</tspan></text></g><g id="shape13" transform="translate(415 146.5)"><path d="M0 0 22.5 0" stroke="#191919" fill="none"/><path d="M22.5-3 28.5 0 22.5 3 22.5-3" stroke="#191919" stroke-linecap="round" fill="#191919"/></g><g id="shape14" transform="translate(574 118.5)"><path d="M102 56 102 0 0 0 0 56 102 56Z" stroke="#000000" fill="#FFFFFF"/><text fill="#191919" font-family="方正书宋简体,PingFang SC,Mircrosoft YaHei,Arial" font-size="17.3333" xml:space="preserve"><tspan x="15.8" y="32.4">除重压滤</tspan></text></g><g id="shape15" transform="translate(545.5 146.5)"><path d="M0 0 22.5 0" stroke="#191919" fill="none"/><path d="M22.5-3 28.5 0 22.5 3 22.5-3" stroke="#191919" stroke-linecap="round" fill="#191919"/></g><g id="shape16" transform="translate(676 146.5)"><path d="M0 0 22 0" stroke="#191919" fill="none"/><path d="M22-3 28 0 22 3 22-3" stroke="#191919" stroke-linecap="round" fill="#191919"/></g><g id="shape17" transform="translate(704.5 118.5)"><path d="M102 56 102 0 0 0 0 56 102 56Z" stroke="#000000" fill="#FFFFFF"/><text fill="#191919" font-family="方正书宋简体,PingFang SC,Mircrosoft YaHei,Arial" font-size="17.3333" xml:space="preserve"><tspan x="15.8" y="32.4">调酸工段</tspan></text></g><g id="shape18" transform="translate(806.5 146.5)"><path d="M0 0 22.5 0" stroke="#191919" fill="none"/><path d="M22.5-3 28.5 0 22.5 3 22.5-3" stroke="#191919" stroke-linecap="round" fill="#191919"/></g><g id="shape19" transform="matrix(0 1 -1 0 657.034 58)"><path d="M36 46 60.5 111.5M0 0 36 0 36 92.1 0 92.1 0 0Z" stroke="#F2C94C" stroke-width="2" fill="#FCF5E9"/><text fill="#B29335" font-family="方正书宋简体,PingFang SC,Mircrosoft YaHei,Arial" font-size="17.3333" xml:space="preserve" transform="matrix(0 -1 1 0 -28 64)"><tspan x="-15.6" y="50.4">pH=9~10</tspan></text></g><g id="shape20" transform="matrix(0 1 -1 0 802.534 58)"><path d="M36 46 60.5 47M0 0 36 0 36 92.1 0 92.1 0 0Z" stroke="#F2C94C" stroke-width="2" fill="#FCF5E9"/><text fill="#B29335" font-family="方正书宋简体,PingFang SC,Mircrosoft YaHei,Arial" font-size="17.3333" xml:space="preserve" transform="matrix(0 -1 1 0 -28 64)"><tspan x="-17.6" y="50.4">pH=6.5~7</tspan></text></g></g></svg>