<svg width="497" height="518" viewBox="0 0 497 518" xmlns="http://www.w3.org/2000/svg" xmlns:xlink="http://www.w3.org/1999/xlink" overflow="hidden"><defs></defs><g id="page1" transform="translate(5.5 5.5)"><rect x="0" y="0" width="487" height="508" fill="none"/><g id="shape1" transform="translate(39 38)"><path d="M100 34 100 7C100 3.1 96.9 0 93 0L7 0C3.1 0 0 3.1 0 7L0 34C0 37.9 3.1 41 7 41L93 41C96.9 41 100 37.9 100 34Z" fill="#FFFFFF"/><text fill="#191919" font-family="方正书宋简体,PingFang SC,Mircrosoft YaHei,Arial" font-size="17.3333" xml:space="preserve"><tspan x="14.8" y="24.9">正极粉料</tspan></text></g><g id="shape2" transform="translate(39 103)"><path d="M100 41 100 0 0 0 0 41 100 41Z" stroke="#101843" fill="#FFFFFF"/><text fill="#191919" font-family="方正书宋简体,PingFang SC,Mircrosoft YaHei,Arial" font-size="17.3333" xml:space="preserve"><tspan x="14.8" y="24.9">优先提锂</tspan></text></g><g id="shape3" transform="translate(39 168)"><path d="M100 41 100 0 0 0 0 41 100 41Z" stroke="#101843" fill="#FFFFFF"/><text fill="#191919" font-family="方正书宋简体,PingFang SC,Mircrosoft YaHei,Arial" font-size="17.3333" xml:space="preserve"><tspan x="10" y="24.9">浸出+除杂</tspan></text></g><g id="shape4" transform="translate(39 233)"><path d="M100 41 100 0 0 0 0 41 100 41Z" stroke="#101843" fill="#FFFFFF"/><text fill="#191919" font-family="方正书宋简体,PingFang SC,Mircrosoft YaHei,Arial" font-size="17.3333" xml:space="preserve"><tspan x="32.4" y="24.9">萃杂</tspan></text></g><g id="shape5" transform="translate(39 298)"><path d="M100 41 100 0 0 0 0 41 100 41Z" stroke="#101843" fill="#FFFFFF"/><text fill="#191919" font-family="方正书宋简体,PingFang SC,Mircrosoft YaHei,Arial" font-size="17.3333" xml:space="preserve"><tspan x="32.4" y="24.9">萃钴</tspan></text></g><g id="shape6" transform="translate(39 363)"><path d="M100 41 100 0 0 0 0 41 100 41Z" stroke="#101843" fill="#FFFFFF"/><text fill="#191919" font-family="方正书宋简体,PingFang SC,Mircrosoft YaHei,Arial" font-size="17.3333" xml:space="preserve"><tspan x="32.4" y="24.9">萃镁</tspan></text></g><g id="shape7" transform="translate(39 428)"><path d="M100 41 100 0 0 0 0 41 100 41Z" stroke="#101843" fill="#FFFFFF"/><text fill="#191919" font-family="方正书宋简体,PingFang SC,Mircrosoft YaHei,Arial" font-size="17.3333" xml:space="preserve"><tspan x="14.8" y="24.9">蒸发配制</tspan></text></g><g id="shape8" transform="translate(139 123.5)"><path d="M0 0 49 0" stroke="#191919" fill="none"/><path d="M49-3 55 0 49 3 49-3" stroke="#191919" stroke-linecap="round" fill="#191919"/></g><g id="shape9" transform="translate(194 103)"><path d="M100 41 100 0 0 0 0 41 100 41Z" stroke="#101843" fill="#FFFFFF"/><text fill="#191919" font-family="方正书宋简体,PingFang SC,Mircrosoft YaHei,Arial" font-size="17.3333" xml:space="preserve"><tspan x="32.4" y="24.9">除杂</tspan></text></g><g id="shape10" transform="translate(194 168)"><path d="M100 41 100 0 0 0 0 41 100 41Z" stroke="#101843" fill="#FFFFFF"/><text fill="#191919" font-family="方正书宋简体,PingFang SC,Mircrosoft YaHei,Arial" font-size="17.3333" xml:space="preserve"><tspan x="14.8" y="24.9">蒸发富锂</tspan></text></g><g id="shape11" transform="translate(194 233)"><path d="M100 41 100 0 0 0 0 41 100 41Z" stroke="#101843" fill="#FFFFFF"/><text fill="#191919" font-family="方正书宋简体,PingFang SC,Mircrosoft YaHei,Arial" font-size="17.3333" xml:space="preserve"><tspan x="14.8" y="24.9">现有工艺</tspan></text></g><g id="shape12" transform="translate(89 144)"><path d="M0 0 0 18" stroke="#191919" fill="none"/><path d="M3 18 0 24-3 18 3 18" stroke="#191919" stroke-linecap="round" fill="#191919"/></g><g id="shape13" transform="translate(89 209)"><path d="M0 0 0 18" stroke="#191919" fill="none"/><path d="M3 18 0 24-3 18 3 18" stroke="#191919" stroke-linecap="round" fill="#191919"/></g><g id="shape14" transform="translate(89 274)"><path d="M0 0 0 18" stroke="#191919" fill="none"/><path d="M3 18 0 24-3 18 3 18" stroke="#191919" stroke-linecap="round" fill="#191919"/></g><g id="shape15" transform="translate(89 339)"><path d="M0 0 0 18" stroke="#191919" fill="none"/><path d="M3 18 0 24-3 18 3 18" stroke="#191919" stroke-linecap="round" fill="#191919"/></g><g id="shape16" transform="translate(89 404)"><path d="M0 0 0 18" stroke="#191919" fill="none"/><path d="M3 18 0 24-3 18 3 18" stroke="#191919" stroke-linecap="round" fill="#191919"/></g><g id="shape17" transform="translate(244 144)"><path d="M0 0 0 18" stroke="#191919" fill="none"/><path d="M3 18 0 24-3 18 3 18" stroke="#191919" stroke-linecap="round" fill="#191919"/></g><g id="shape18" transform="translate(244 209)"><path d="M0 0 0 18" stroke="#191919" fill="none"/><path d="M3 18 0 24-3 18 3 18" stroke="#191919" stroke-linecap="round" fill="#191919"/></g><g id="shape19" transform="translate(89 79)"><path d="M0 0 0 18" stroke="#191919" fill="none"/><path d="M3 18 0 24-3 18 3 18" stroke="#191919" stroke-linecap="round" fill="#191919"/></g><g id="shape20" transform="translate(194 298)"><path d="M100 34 100 7C100 3.1 96.9 0 93 0L7 0C3.1 0 0 3.1 0 7L0 34C0 37.9 3.1 41 7 41L93 41C96.9 41 100 37.9 100 34Z" fill="#FFFFFF"/><text fill="#191919" font-family="方正书宋简体,PingFang SC,Mircrosoft YaHei,Arial" font-size="17.3333" xml:space="preserve"><tspan x="14.8" y="24.9">硫酸钴液</tspan></text></g><g id="shape21" transform="translate(139 318.5)"><path d="M0 0 49 0" stroke="#191919" fill="none"/><path d="M49-3 55 0 49 3 49-3" stroke="#191919" stroke-linecap="round" fill="#191919"/></g><g id="shape22" transform="translate(194 428)"><path d="M100 34 100 7C100 3.1 96.9 0 93 0L7 0C3.1 0 0 3.1 0 7L0 34C0 37.9 3.1 41 7 41L93 41C96.9 41 100 37.9 100 34Z" fill="#FFFFFF"/><text fill="#191919" font-family="方正书宋简体,PingFang SC,Mircrosoft YaHei,Arial" font-size="17.3333" xml:space="preserve"><tspan x="14.8" y="24.9">硫酸镍液</tspan></text></g><g id="shape23" transform="translate(139 448.5)"><path d="M0 0 49 0" stroke="#191919" fill="none"/><path d="M49-3 55 0 49 3 49-3" stroke="#191919" stroke-linecap="round" fill="#191919"/></g><g id="shape24" transform="translate(349 233)"><path d="M100 34 100 7C100 3.1 96.9 0 93 0L7 0C3.1 0 0 3.1 0 7L0 34C0 37.9 3.1 41 7 41L93 41C96.9 41 100 37.9 100 34Z" fill="#FFFFFF"/><text fill="#191919" font-family="方正书宋简体,PingFang SC,Mircrosoft YaHei,Arial" font-size="17.3333" xml:space="preserve"><tspan x="23.6" y="24.9">碳酸锂</tspan></text></g><g id="shape25" transform="translate(294 253.5)"><path d="M0 0 49 0" stroke="#191919" fill="none"/><path d="M49-3 55 0 49 3 49-3" stroke="#191919" stroke-linecap="round" fill="#191919"/></g><g id="shape26" transform="matrix(0 1 -1 0 428.698 146.307)"><path d="M28 57 53.7 128.7M28 0 28 114 28 0Z" stroke="#379E90" fill="none"/><text fill="#379E90" font-family="方正书宋简体,PingFang SC,Mircrosoft YaHei,Arial" font-size="17.3333" xml:space="preserve" transform="matrix(0 -1 1 0 -43 71)"><tspan x="-30.8" y="61.4">Li: 25~30g/L</tspan></text></g></g></svg>