<svg width="978" height="539" viewBox="0 0 978 539" xmlns="http://www.w3.org/2000/svg" xmlns:xlink="http://www.w3.org/1999/xlink" overflow="hidden"><defs></defs><g id="page10" transform="translate(5.5 5.5)"><rect x="0" y="0" width="968" height="529" fill="none"/><g id="shape1" transform="translate(38.2325 119.876)"><path d="M110 69.5 110 7C110 3.1 106.9 0 103 0L7 0C3.1 0 0 3.1 0 7L0 69.5C0 73.4 3.1 76.5 7 76.5L103 76.5C106.9 76.5 110 73.4 110 69.5Z" fill="#FFFFFF"/><text fill="#191919" font-family="方正书宋简体,PingFang SC,Mircrosoft YaHei,Arial" font-size="17.3333" xml:space="preserve"><tspan x="11" y="22.9">旧活性炭、</tspan><tspan x="11" y="52.9">硫酸钠母液</tspan></text></g><g id="shape2" transform="translate(177.666 144.063)"><path d="M102.9 28.1 102.9 0 0 0 0 28.1 102.9 28.1Z" stroke="#000000" fill="#FFFFFF"/><text fill="#191919" font-family="方正书宋简体,PingFang SC,Mircrosoft YaHei,Arial" font-size="17.3333" xml:space="preserve"><tspan x="25.1" y="18.9">沉镍钴</tspan></text></g><g id="shape3" transform="translate(177.666 91.8755)"><path d="M102.9 21.1 102.9 7C102.9 3.1 99.8 0 95.9 0L7 0C3.1 0 0 3.1 0 7L0 21.1C0 25 3.1 28.1 7 28.1L95.9 28.1C99.8 28.1 102.9 25 102.9 21.1Z" fill="#FFFFFF"/><text fill="#191919" font-family="方正书宋简体,PingFang SC,Mircrosoft YaHei,Arial" font-size="17.3333" xml:space="preserve"><tspan x="33.9" y="18.5">液碱</tspan></text></g><g id="shape4" transform="translate(310 144.063)"><path d="M102.9 28.1 102.9 0 0 0 0 28.1 102.9 28.1Z" stroke="#000000" fill="#FFFFFF"/><text fill="#191919" font-family="方正书宋简体,PingFang SC,Mircrosoft YaHei,Arial" font-size="17.3333" xml:space="preserve"><tspan x="16.3" y="18.9">除重压滤</tspan></text></g><g id="shape5" transform="translate(476.55 144.063)"><path d="M74.4 28.1 74.4 0 0 0 0 28.1 74.4 28.1Z" stroke="#000000" fill="#FFFFFF"/><text fill="#191919" font-family="方正书宋简体,PingFang SC,Mircrosoft YaHei,Arial" font-size="17.3333" xml:space="preserve"><tspan x="19.6" y="18.5">除磷</tspan></text></g><g id="shape6" transform="translate(581.775 144.063)"><path d="M102.9 28.1 102.9 0 0 0 0 28.1 102.9 28.1Z" stroke="#000000" fill="#FFFFFF"/><text fill="#191919" font-family="方正书宋简体,PingFang SC,Mircrosoft YaHei,Arial" font-size="17.3333" xml:space="preserve"><tspan x="16.3" y="18.9">除磷压滤</tspan></text></g><g id="shape7" transform="translate(710.775 144.063)"><path d="M102.9 28.1 102.9 0 0 0 0 28.1 102.9 28.1Z" stroke="#000000" fill="#FFFFFF"/><text fill="#191919" font-family="方正书宋简体,PingFang SC,Mircrosoft YaHei,Arial" font-size="17.3333" xml:space="preserve"><tspan x="25.5" y="18.9">除COD</tspan></text></g><g id="shape8" transform="translate(710.775 223.516)"><path d="M102.9 28.1 102.9 0 0 0 0 28.1 102.9 28.1Z" stroke="#000000" fill="#FFFFFF"/><text fill="#191919" font-family="方正书宋简体,PingFang SC,Mircrosoft YaHei,Arial" font-size="17.3333" xml:space="preserve"><tspan x="7.9" y="18.9">除COD压滤</tspan></text></g><g id="shape9" transform="translate(710.775 302.969)"><path d="M102.9 28.1 102.9 0 0 0 0 28.1 102.9 28.1Z" stroke="#000000" fill="#FFFFFF"/><text fill="#191919" font-family="方正书宋简体,PingFang SC,Mircrosoft YaHei,Arial" font-size="17.3333" xml:space="preserve"><tspan x="33.9" y="18.9">调酸</tspan></text></g><g id="shape10" transform="translate(710.775 382.422)"><path d="M102.9 28.1 102.9 0 0 0 0 28.1 102.9 28.1Z" stroke="#000000" fill="#FFFFFF"/><text fill="#191919" font-family="方正书宋简体,PingFang SC,Mircrosoft YaHei,Arial" font-size="17.3333" xml:space="preserve"><tspan x="33.9" y="18.9">均化</tspan></text></g><g id="shape11" transform="translate(710.775 461.875)"><path d="M102.9 28.1 102.9 0 0 0 0 28.1 102.9 28.1Z" stroke="#000000" fill="#FFFFFF"/><text fill="#191919" font-family="方正书宋简体,PingFang SC,Mircrosoft YaHei,Arial" font-size="17.3333" xml:space="preserve"><tspan x="33.9" y="18.9">外排</tspan></text></g><g id="shape12" transform="translate(229.116 121)"><path d="M0 0 0 17.1" stroke="#191919" fill="none"/><path d="M3 17.1 0 23.1-3 17.1 3 17.1" stroke="#191919" stroke-linecap="round" fill="#191919"/></g><g id="shape13" transform="translate(361.45 172.188)"><path d="M0 0 0 17.7" stroke="#191919" fill="none"/><path d="M3 17.7 0 23.7-3 17.7 3 17.7" stroke="#191919" stroke-linecap="round" fill="#191919"/></g><g id="shape14" transform="translate(310 195.875)"><path d="M102.9 21.1 102.9 7C102.9 3.1 99.8 0 95.9 0L7 0C3.1 0 0 3.1 0 7L0 21.1C0 25 3.1 28.1 7 28.1L95.9 28.1C99.8 28.1 102.9 25 102.9 21.1Z" fill="#FFFFFF"/><text fill="#191919" font-family="方正书宋简体,PingFang SC,Mircrosoft YaHei,Arial" font-size="17.3333" xml:space="preserve"><tspan x="25.1" y="18.9">除重渣</tspan></text></g><g id="shape15" transform="translate(310 247.688)"><path d="M102.9 28.1 102.9 0 0 0 0 28.1 102.9 28.1Z" stroke="#000000" fill="#FFFFFF"/><text fill="#191919" font-family="方正书宋简体,PingFang SC,Mircrosoft YaHei,Arial" font-size="17.3333" xml:space="preserve"><tspan x="16.3" y="18.9">除重压滤</tspan></text></g><g id="shape16" transform="translate(412.9 261.75)"><path d="M0 0 18.1 0 18.1-103.6 57.7-103.6" stroke="#191919" fill="none"/><path d="M57.7-106.6 63.7-103.6 57.7-100.6 57.7-106.6" stroke="#191919" stroke-linecap="round" fill="#191919"/></g><g id="shape17" transform="translate(177.666 247.688)"><path d="M102.9 28.1 102.9 0 0 0 0 28.1 102.9 28.1Z" stroke="#000000" fill="#FFFFFF"/><text fill="#191919" font-family="方正书宋简体,PingFang SC,Mircrosoft YaHei,Arial" font-size="17.3333" xml:space="preserve"><tspan x="33.9" y="18.9">除重</tspan></text></g><g id="shape18" transform="translate(38.2325 233.5)"><path d="M110 49.5 110 7C110 3.1 106.9 0 103 0L7 0C3.1 0 0 3.1 0 7L0 49.5C0 53.4 3.1 56.5 7 56.5L103 56.5C106.9 56.5 110 53.4 110 49.5Z" fill="#FFFFFF"/><text fill="#191919" font-family="方正书宋简体,PingFang SC,Mircrosoft YaHei,Arial" font-size="17.3333" xml:space="preserve"><tspan x="5" y="32.9">BC196萃余液</tspan></text></g><g id="shape19" transform="translate(148.232 261.75)"><path d="M0 0 1.8 0 13.8 0 23.4 0" stroke="#191919" fill="none"/><path d="M23.4-3 29.4 0 23.4 3 23.4-3" stroke="#191919" stroke-linecap="round" fill="#191919"/></g><g id="shape20" transform="translate(148.232 158.125)"><path d="M0 0 23.4 0" stroke="#191919" fill="none"/><path d="M23.4-3 29.4 0 23.4 3 23.4-3" stroke="#191919" stroke-linecap="round" fill="#191919"/></g><g id="shape21" transform="translate(281 158.125)"><path d="M0 0 27 0" stroke="#191919" fill="none"/><path d="M23-3 29 0 23 3 23-3" stroke="#191919" stroke-linecap="round" fill="#191919"/></g><g id="shape22" transform="translate(281 261.75)"><path d="M0 0 23 0" stroke="#191919" fill="none"/><path d="M23-3 29 0 23 3 23-3" stroke="#191919" stroke-linecap="round" fill="#191919"/></g><g id="shape23" transform="translate(551 158.125)"><path d="M0 0 23.8 0" stroke="#191919" fill="none"/><path d="M23.8-3 29.8 0 23.8 3 23.8-3" stroke="#191919" stroke-linecap="round" fill="#191919"/></g><g id="shape24" transform="translate(684.675 158.126)"><path d="M0 0 19.8 0" stroke="#191919" fill="none"/><path d="M19.8-3 25.8 0 19.8 3 19.8-3" stroke="#191919" stroke-linecap="round" fill="#191919"/></g><g id="shape25" transform="translate(762.225 172.188)"><path d="M0 0 0 45.3" stroke="#191919" fill="none"/><path d="M3 45.3 0 51.3-3 45.3 3 45.3" stroke="#191919" stroke-linecap="round" fill="#191919"/></g><g id="shape26" transform="translate(762.225 251.641)"><path d="M0 0 0 45.3" stroke="#191919" fill="none"/><path d="M3 45.3 0 51.3-3 45.3 3 45.3" stroke="#191919" stroke-linecap="round" fill="#191919"/></g><g id="shape27" transform="translate(762.225 331.094)"><path d="M0 0 0 44.4" stroke="#191919" fill="none"/><path d="M3 44.4 0 50.4-3 44.4 3 44.4" stroke="#191919" stroke-linecap="round" fill="#191919"/></g><g id="shape28" transform="translate(762.225 410.547)"><path d="M0 0 0 45.3" stroke="#191919" fill="none"/><path d="M3 45.3 0 51.3-3 45.3 3 45.3" stroke="#191919" stroke-linecap="round" fill="#191919"/></g><g id="shape29" transform="translate(38.2325 316)"><path d="M120.8 39 120.8 7C120.8 3.1 117.6 0 113.8 0L7 0C3.1 0 0 3.1 0 7L0 39C0 42.9 3.1 46 7 46L113.8 46C117.6 46 120.8 42.9 120.8 39Z" fill="#FFFFFF"/><text fill="#191919" font-family="方正书宋简体,PingFang SC,Mircrosoft YaHei,Arial" font-size="17.3333" xml:space="preserve"><tspan x="7.6" y="27.4">钙渣压滤后液</tspan></text></g><g id="shape30" transform="translate(177.666 324.938)"><path d="M102.9 28.1 102.9 0 0 0 0 28.1 102.9 28.1Z" stroke="#000000" fill="#FFFFFF"/><text fill="#191919" font-family="方正书宋简体,PingFang SC,Mircrosoft YaHei,Arial" font-size="17.3333" xml:space="preserve"><tspan x="33.9" y="18.9">除重</tspan></text></g><g id="shape31" transform="translate(310 324.938)"><path d="M102.9 28.1 102.9 0 0 0 0 28.1 102.9 28.1Z" stroke="#000000" fill="#FFFFFF"/><text fill="#191919" font-family="方正书宋简体,PingFang SC,Mircrosoft YaHei,Arial" font-size="17.3333" xml:space="preserve"><tspan x="16.3" y="18.9">除重压滤</tspan></text></g><g id="shape32" transform="translate(281 339)"><path d="M0 0 23 0" stroke="#191919" fill="none"/><path d="M23-3 29 0 23 3 23-3" stroke="#191919" stroke-linecap="round" fill="#191919"/></g><g id="shape33" transform="translate(160 339)"><path d="M0 0 7 0 11.7 0" stroke="#191919" fill="none"/><path d="M11.7-3 17.7 0 11.7 3 11.7-3" stroke="#191919" stroke-linecap="round" fill="#191919"/></g><path d="M0 0 18.1 0 18.1-80.1" id="shape34" stroke="#191919" fill="none" transform="translate(412.9 339)"/><g id="shape35" transform="translate(371 41)"><path d="M120 34 120 7C120 3.1 116.9 0 113 0L7 0C3.1 0 0 3.1 0 7L0 34C0 37.9 3.1 41 7 41L113 41C116.9 41 120 37.9 120 34Z" fill="#FFFFFF"/><text fill="#191919" font-family="方正书宋简体,PingFang SC,Mircrosoft YaHei,Arial" font-size="17.3333" xml:space="preserve"><tspan x="33.6" y="14.9">硫酸锰</tspan><tspan x="16" y="34.9">预处理后液</tspan></text></g><path d="M0 0 0 77.1" id="shape36" stroke="#191919" fill="none" transform="translate(431 82)"/><g id="shape37" transform="translate(453.775 91.8755)"><text fill="#191919" font-family="方正书宋简体,PingFang SC,Mircrosoft YaHei,Arial" font-size="17.3333" xml:space="preserve"><tspan x="7.2" y="18.5">硫酸、除磷剂</tspan></text></g><g id="shape38" transform="translate(513.775 120)"><path d="M0 0 0 17.1" stroke="#191919" fill="none"/><path d="M3 17.1 0 23.1-3 17.1 3 17.1" stroke="#191919" stroke-linecap="round" fill="#191919"/></g><path d="M0 0 18.1 0" id="shape39" stroke="#191919" fill="none" transform="translate(412.9 158.126)"/><g id="shape40" transform="translate(38.2323 407)"><path d="M120.8 39 120.8 7C120.8 3.1 117.6 0 113.8 0L7 0C3.1 0 0 3.1 0 7L0 39C0 42.9 3.1 46 7 46L113.8 46C117.6 46 120.8 42.9 120.8 39Z" fill="#FFFFFF"/><text fill="#191919" font-family="方正书宋简体,PingFang SC,Mircrosoft YaHei,Arial" font-size="17.3333" xml:space="preserve"><tspan x="7.6" y="27.4">反铁反钙后液</tspan></text></g><g id="shape41" transform="translate(205.55 415.938)"><path d="M102.9 28.1 102.9 0 0 0 0 28.1 102.9 28.1Z" stroke="#000000" fill="#FFFFFF"/><text fill="#191919" font-family="方正书宋简体,PingFang SC,Mircrosoft YaHei,Arial" font-size="17.3333" xml:space="preserve"><tspan x="25.1" y="18.9">沉铜锰</tspan></text></g><g id="shape42" transform="translate(371 415.938)"><path d="M102.9 28.1 102.9 0 0 0 0 28.1 102.9 28.1Z" stroke="#000000" fill="#FFFFFF"/><text fill="#191919" font-family="方正书宋简体,PingFang SC,Mircrosoft YaHei,Arial" font-size="17.3333" xml:space="preserve"><tspan x="7.5" y="18.9">沉铜锰压滤</tspan></text></g><g id="shape43" transform="translate(205.55 370.438)"><path d="M102.9 21.1 102.9 7C102.9 3.1 99.8 0 95.9 0L7 0C3.1 0 0 3.1 0 7L0 21.1C0 25 3.1 28.1 7 28.1L95.9 28.1C99.8 28.1 102.9 25 102.9 21.1Z" fill="#FFFFFF"/><text fill="#191919" font-family="方正书宋简体,PingFang SC,Mircrosoft YaHei,Arial" font-size="17.3333" xml:space="preserve"><tspan x="33.9" y="18.5">液碱</tspan></text></g><g id="shape44" transform="translate(257 398.562)"><path d="M0 0 0 11.4" stroke="#191919" fill="none"/><path d="M3 11.4 0 17.4-3 11.4 3 11.4" stroke="#191919" stroke-linecap="round" fill="#191919"/></g><g id="shape45" transform="translate(371 461.875)"><path d="M102.9 21.1 102.9 7C102.9 3.1 99.8 0 95.9 0L7 0C3.1 0 0 3.1 0 7L0 21.1C0 25 3.1 28.1 7 28.1L95.9 28.1C99.8 28.1 102.9 25 102.9 21.1Z" fill="#FFFFFF"/><text fill="#191919" font-family="方正书宋简体,PingFang SC,Mircrosoft YaHei,Arial" font-size="17.3333" xml:space="preserve"><tspan x="16.3" y="18.9">沉铜锰渣</tspan></text></g><g id="shape46" transform="translate(422.45 445)"><path d="M0 0 0 10.9" stroke="#191919" fill="none"/><path d="M3 10.9 0 16.9-3 10.9 3 10.9" stroke="#191919" stroke-linecap="round" fill="#191919"/></g><g id="shape47" transform="translate(160 430)"><path d="M0 0 7 0 39.6 0" stroke="#191919" fill="none"/><path d="M39.6-3 45.6 0 39.6 3 39.6-3" stroke="#191919" stroke-linecap="round" fill="#191919"/></g><g id="shape48" transform="translate(309 430)"><path d="M0 0 56 0" stroke="#191919" fill="none"/><path d="M56-3 62 0 56 3 56-3" stroke="#191919" stroke-linecap="round" fill="#191919"/></g><g id="shape49" transform="translate(710.775 41)"><text fill="#191919" font-family="方正书宋简体,PingFang SC,Mircrosoft YaHei,Arial" font-size="17.3333" xml:space="preserve"><tspan x="25" y="17.9">双氧水</tspan><tspan x="16.2" y="41.9">硫酸亚铁</tspan><tspan x="33.8" y="65.9">液碱</tspan></text></g><g id="shape50" transform="translate(762.225 120)"><path d="M0 0 0 18" stroke="#191919" fill="none"/><path d="M3 18 0 24-3 18 3 18" stroke="#191919" stroke-linecap="round" fill="#191919"/></g><g id="shape51" transform="translate(847 223.516)"><text fill="#191919" font-family="方正书宋简体,PingFang SC,Mircrosoft YaHei,Arial" font-size="17.3333" xml:space="preserve"><tspan x="6.3" y="18.5">芬顿铁渣</tspan></text></g><g id="shape52" transform="translate(814 237.579)"><path d="M0 0 26 -0" stroke="#191919" fill="none"/><path d="M27-3 33 -0 27 3 27-3" stroke="#191919" stroke-linecap="round" fill="#191919"/></g><g id="shape53" transform="translate(533 219.812)"><path d="M120 49 120 7C120 3.1 116.9 0 113 0L7 0C3.1 0 0 3.1 0 7L0 49C0 52.9 3.1 56 7 56L113 56C116.9 56 120 52.9 120 49Z" fill="#FFFFFF"/><text fill="#191919" font-family="方正书宋简体,PingFang SC,Mircrosoft YaHei,Arial" font-size="17.3333" xml:space="preserve"><tspan x="7.2" y="22.4">硫酸钠冷凝水</tspan><tspan x="33.6" y="42.4">浓硫酸</tspan></text></g><g id="shape54" transform="translate(473.9 430)"><path d="M0 0 119.1 0 119.1-113 230.9-113" stroke="#191919" fill="none"/><path d="M230.9-116 236.9-113 230.9-110 230.9-116" stroke="#191919" stroke-linecap="round" fill="#191919"/></g><path d="M0 0 0 42" id="shape55" stroke="#191919" fill="none" transform="translate(593 275.812)"/></g></svg>