<svg width="646" height="299" viewBox="0 0 646 299" xmlns="http://www.w3.org/2000/svg" xmlns:xlink="http://www.w3.org/1999/xlink" overflow="hidden"><defs></defs><g id="page3" transform="translate(5.5 5.5)"><rect x="0" y="0" width="636" height="289" fill="none"/><g id="shape1" transform="translate(38 39)"><path d="M100 36 100 0 0 0 0 36 100 36Z" fill="#FFFFFF"/><text fill="#191919" font-family="方正书宋简体,PingFang SC,Mircrosoft YaHei,Arial" font-size="17.3333" xml:space="preserve"><tspan x="6" y="22.4">三元电池料</tspan></text></g><g id="shape2" transform="translate(158 39)"><path d="M81 36 81 0 0 0 0 36 81 36Z" stroke="#101843" fill="#FFFFFF"/><text fill="#191919" font-family="方正书宋简体,PingFang SC,Mircrosoft YaHei,Arial" font-size="17.3333" xml:space="preserve"><tspan x="5.3" y="22.4">粉碎分级</tspan></text></g><g id="shape3" transform="translate(138 57)"><path d="M0 0 14 0" stroke="#191919" fill="none"/><path d="M14-3 20 0 14 3 14-3" stroke="#191919" stroke-linecap="round" fill="#191919"/></g><g id="shape4" transform="translate(259 39)"><path d="M81 36 81 0 0 0 0 36 81 36Z" stroke="#101843" fill="#FFFFFF"/><text fill="#191919" font-family="方正书宋简体,PingFang SC,Mircrosoft YaHei,Arial" font-size="17.3333" xml:space="preserve"><tspan x="22.9" y="22.4">浸出</tspan></text></g><g id="shape5" transform="translate(239 57)"><path d="M0 0 14 0" stroke="#191919" fill="none"/><path d="M14-3 20 0 14 3 14-3" stroke="#191919" stroke-linecap="round" fill="#191919"/></g><g id="shape6" transform="translate(360 39)"><path d="M81 36 81 0 0 0 0 36 81 36Z" stroke="#101843" fill="#FFFFFF"/><text fill="#191919" font-family="方正书宋简体,PingFang SC,Mircrosoft YaHei,Arial" font-size="17.3333" xml:space="preserve"><tspan x="5.3" y="22.4">萃取除杂</tspan></text></g><g id="shape7" transform="translate(340 57)"><path d="M0 0 14 0" stroke="#191919" fill="none"/><path d="M14-3 20 0 14 3 14-3" stroke="#191919" stroke-linecap="round" fill="#191919"/></g><g id="shape8" transform="translate(461 39)"><path d="M137 36 137 0 0 0 0 36 137 36Z" fill="#FFFFFF"/><text fill="#191919" font-family="方正书宋简体,PingFang SC,Mircrosoft YaHei,Arial" font-size="17.3333" xml:space="preserve"><tspan x="6.9" y="22.4">电池级硫酸锰液</tspan></text></g><g id="shape9" transform="translate(441 57)"><path d="M0 0 14 0" stroke="#191919" fill="none"/><path d="M14-3 20 0 14 3 14-3" stroke="#191919" stroke-linecap="round" fill="#191919"/></g><g id="shape10" transform="translate(57 107)"><path d="M81 36 81 0 0 0 0 36 81 36Z" stroke="#101843" fill="#FFFFFF"/><text fill="#191919" font-family="方正书宋简体,PingFang SC,Mircrosoft YaHei,Arial" font-size="17.3333" xml:space="preserve"><tspan x="5.3" y="22.4">钴镍分离</tspan></text></g><g id="shape11" transform="translate(158 107)"><path d="M81 36 81 0 0 0 0 36 81 36Z" stroke="#101843" fill="#FFFFFF"/><text fill="#191919" font-family="方正书宋简体,PingFang SC,Mircrosoft YaHei,Arial" font-size="17.3333" xml:space="preserve"><tspan x="14.1" y="22.4">萃余液</tspan></text></g><g id="shape12" transform="translate(138 125)"><path d="M0 0 14 0" stroke="#191919" fill="none"/><path d="M14-3 20 0 14 3 14-3" stroke="#191919" stroke-linecap="round" fill="#191919"/></g><g id="shape13" transform="translate(259 107)"><path d="M81 36 81 0 0 0 0 36 81 36Z" stroke="#101843" fill="#FFFFFF"/><text fill="#191919" font-family="方正书宋简体,PingFang SC,Mircrosoft YaHei,Arial" font-size="17.3333" xml:space="preserve"><tspan x="22.9" y="22.4">沉锂</tspan></text></g><g id="shape14" transform="translate(239 125)"><path d="M0 0 14 0" stroke="#191919" fill="none"/><path d="M14-3 20 0 14 3 14-3" stroke="#191919" stroke-linecap="round" fill="#191919"/></g><g id="shape15" transform="translate(360 107)"><path d="M81 36 81 0 0 0 0 36 81 36Z" stroke="#101843" fill="#FFFFFF"/><text fill="#191919" font-family="方正书宋简体,PingFang SC,Mircrosoft YaHei,Arial" font-size="17.3333" xml:space="preserve"><tspan x="22.9" y="22.4">碳化</tspan></text></g><g id="shape16" transform="translate(461 107)"><path d="M81 36 81 0 0 0 0 36 81 36Z" stroke="#101843" fill="#FFFFFF"/><text fill="#191919" font-family="方正书宋简体,PingFang SC,Mircrosoft YaHei,Arial" font-size="17.3333" xml:space="preserve"><tspan x="22.9" y="22.4">热解</tspan></text></g><g id="shape17" transform="translate(340 125)"><path d="M0 0 14 0" stroke="#191919" fill="none"/><path d="M14-3 20 0 14 3 14-3" stroke="#191919" stroke-linecap="round" fill="#191919"/></g><g id="shape18" transform="translate(441 125)"><path d="M0 0 14 0" stroke="#191919" fill="none"/><path d="M14-3 20 0 14 3 14-3" stroke="#191919" stroke-linecap="round" fill="#191919"/></g><g id="shape19" transform="translate(461 175)"><path d="M81 36 81 0 0 0 0 36 81 36Z" stroke="#101843" fill="#FFFFFF"/><text fill="#191919" font-family="方正书宋简体,PingFang SC,Mircrosoft YaHei,Arial" font-size="17.3333" xml:space="preserve"><tspan x="22.9" y="22.4">干燥</tspan></text></g><g id="shape20" transform="translate(360 175)"><path d="M81 36 81 0 0 0 0 36 81 36Z" stroke="#101843" fill="#FFFFFF"/><text fill="#191919" font-family="方正书宋简体,PingFang SC,Mircrosoft YaHei,Arial" font-size="17.3333" xml:space="preserve"><tspan x="22.9" y="22.4">除磁</tspan></text></g><g id="shape21" transform="translate(259 175)"><path d="M81 36 81 0 0 0 0 36 81 36Z" stroke="#101843" fill="#FFFFFF"/><text fill="#191919" font-family="方正书宋简体,PingFang SC,Mircrosoft YaHei,Arial" font-size="17.3333" xml:space="preserve"><tspan x="22.9" y="22.4">包装</tspan></text></g><g id="shape22" transform="translate(168 165)"><path d="M71 56 71 0 0 0 0 56 71 56Z" fill="#FFFFFF"/><text fill="#191919" font-family="方正书宋简体,PingFang SC,Mircrosoft YaHei,Arial" font-size="17.3333" xml:space="preserve"><tspan x="9.1" y="22.4">电池级</tspan><tspan x="9.1" y="42.4">碳酸锂</tspan></text></g><g id="shape23" transform="translate(259 193)"><path d="M0 0-14 0" stroke="#191919" fill="none"/><path d="M-14 3-20 0-14-3-14 3" stroke="#191919" stroke-linecap="round" fill="#191919"/></g><g id="shape24" transform="translate(501.5 143)"><path d="M0 0 0 26" stroke="#191919" fill="none"/><path d="M3 26 0 32-3 26 3 26" stroke="#191919" stroke-linecap="round" fill="#191919"/></g><g id="shape25" transform="translate(461 193)"><path d="M0 0-14 0" stroke="#191919" fill="none"/><path d="M-14 3-20 0-14-3-14 3" stroke="#191919" stroke-linecap="round" fill="#191919"/></g><g id="shape26" transform="translate(360 193)"><path d="M0 0-14 0" stroke="#191919" fill="none"/><path d="M-14 3-20 0-14-3-14 3" stroke="#191919" stroke-linecap="round" fill="#191919"/></g><g id="shape27" transform="translate(57 175)"><path d="M81 76 81 0 0 0 0 76 81 76Z" fill="#FFFFFF"/><text fill="#191919" font-family="方正书宋简体,PingFang SC,Mircrosoft YaHei,Arial" font-size="17.3333" xml:space="preserve"><tspan x="5.3" y="22.4">硫酸钴液</tspan><tspan x="5.3" y="52.4">硫酸镍液</tspan></text></g><g id="shape28" transform="translate(97.5 143)"><path d="M0 0 0 26" stroke="#191919" fill="none"/><path d="M3 26 0 32-3 26 3 26" stroke="#191919" stroke-linecap="round" fill="#191919"/></g></g></svg>