<svg viewBox="0 0 1096 520" xmlns="http://www.w3.org/2000/svg" xmlns:xlink="http://www.w3.org/1999/xlink" id="a" overflow="hidden"><defs></defs><g id="b"><path d="M0 0 1096 0 1096 229.38C1083.73 225.04 1071.13 221.7 1058.83 217.44 1046.93 213.84 1035.16 209.84 1023.16 206.59 1004.96 201.35 987.08 195.13 968.9 189.85 953.37 185.4 938.17 179.88 922.61 175.52 892.15 166.66 861.72 157.67 831.4 148.36 820.96 145.26 810.78 141.34 800.27 138.51 787.85 134.91 775.72 130.41 763.34 126.72 743.4 120.85 723.48 114.93 703.68 108.63 681.46 102.27 659.48 95.1 637.23 88.83 630.43 87.21 624.04 84.27 617.28 82.5 601.31 77.55 585.22 72.97 569.32 67.78 562.39 65.43 555.06 64.04 548.67 60.32 515.58 41.92 478.24 29.22 440 30.13 426.21 29.99 412.58 32.87 399.54 37.18 385.66 40.96 373.06 48.18 361.26 56.24 352.96 62.13 344.81 68.34 337.54 75.5 325.98 87.36 314.94 99.78 305.6 113.5 296.17 126.26 289.1 140.5 281.33 154.28 274.66 167.47 266.97 180.11 260.26 193.28 255.84 201.2 252.15 209.51 247.39 217.24 240.71 229.01 235 241.32 228.08 252.97 222.28 264.07 216.29 275.07 210.13 285.98 200.3 304.75 189.88 323.19 179.85 341.84 174.57 352.45 168.27 362.51 163.19 373.22 150.26 397.39 136.69 421.21 123.24 445.1 112.99 464.24 102.84 483.43 92.79 502.68 89.91 508.12 87.01 513.57 84.8 519.33 92.15 519.6 99.52 519.59 106.87 519.31 110.43 512.67 112.93 505.5 117.02 499.15 118.4 506.02 119.94 512.94 119.62 520L114.72 520C116.62 516.42 117.07 512.32 117.11 508.33 114.49 511.64 113.75 515.89 113.52 520L0 520 0 0Z" fill="#FFFFFE"/><path d="M427.61 50.96C452.33 48.28 477.48 51.91 500.85 60.19 507.5 62.63 514.39 64.75 520.31 68.76 513.51 69.3 506.85 67.43 500.07 67.37 484.95 67 469.8 68.2 454.93 70.89 446.41 72.38 437.78 73.72 429.63 76.72 428.42 77.11 427.21 77.48 426 77.82 410.57 81.82 396.1 88.77 382.07 96.2 370.03 103.14 358.24 110.65 347.59 119.61 342.01 124.26 335.82 128.61 332.18 135.07 315.9 163.05 298.65 190.45 282.4 218.44 277.4 225.66 273.67 233.63 268.99 241.03 257.2 260.87 245.38 280.68 233.56 300.49 229.01 307.87 224.99 315.58 219.87 322.59 217.02 327.79 214.33 333.08 211.1 338.06 195.64 364.1 180.2 390.16 165.15 416.44 164.73 415.3 164.31 414.16 163.89 413.03 177.06 390.57 188.56 367.17 201.31 344.47 206.82 333.73 212.48 323.07 218.47 312.58 226.55 296.8 235.55 281.52 243.84 265.86 254.59 246.82 264.35 227.25 275.21 208.27 285.14 188.89 295.76 169.88 305.77 150.54 308.51 145.49 311.88 140.83 314.81 135.89 321.89 123.96 330.73 113.21 339.62 102.61 347.49 94.17 355.43 85.67 364.66 78.67 382.7 64.06 404.65 54.38 427.61 50.96Z" fill="#FFFFFE"/><path d="M430.59 78.66C458.3 70.8 487.46 67.39 516.19 70.26 522.13 70.76 529.74 70.26 533.27 76.14 532.8 76.11 531.88 76.07 531.41 76.05 503.74 75.16 476.04 75.78 448.36 75.88 448.41 86.16 448.22 96.44 448.22 106.73 478.76 106.62 509.3 106.53 539.85 106.69 540.9 97.58 539.44 88.46 539.79 79.33 541.43 79.95 543.08 80.58 544.72 81.21 544.38 89.4 544.64 97.6 544.23 105.78 543.68 110.24 543.25 114.72 543.1 119.22 514.41 119.66 485.7 119.31 457 119.39 448.27 119.05 439.58 120.01 430.87 120.26 430.31 106.4 430.94 92.53 430.59 78.66Z" fill="#FFFFFE"/><path d="M340.41 129.39C365.16 106.89 395.05 90.64 426.49 79.58 428.35 85.89 427.45 92.53 427.58 99 427.75 106.91 426.75 114.97 428.73 122.73 419.15 122.94 409.57 122.54 400 122.9 387.43 123.64 374.84 123.05 362.26 123.23 348.19 150.68 335.1 178.64 321.1 206.13 319.51 209.12 318.32 212.31 317.45 215.58 363.37 215.96 409.31 215.5 455.23 215.65 455.86 193.11 455.33 170.54 455.54 147.99 455.56 140.31 455.69 132.64 455.44 124.96 455.44 124.45 455.44 123.43 455.45 122.92 457.58 123.04 460.7 121.76 461.92 124.19 462.88 128.72 462.32 133.4 462.37 138 462.3 158.67 462.37 179.33 462.31 200 462.3 207.4 462.72 214.87 461.27 222.18 447.18 222.22 433.08 222.36 419 221.93 374.32 222.48 329.63 222.11 284.96 222.45 284.86 221.85 284.65 220.64 284.55 220.04 299.44 195.99 313.51 171.44 328.15 147.24 331.97 141.13 335 134.32 340.41 129.39Z" fill="#FFFFFE"/><path d="M545.82 82.09C548.59 82.89 551.34 83.79 554.04 84.84 567.75 94.96 582.91 102.84 597.65 111.32 602.14 113.8 606.66 116.27 610.77 119.38 602.57 120.69 594.26 119.83 586.01 120.1 572.82 120.07 559.64 120.58 546.46 120.14 546.44 107.88 547.49 95.52 545.83 83.33L545.83 82.09Z" fill="#FFFFFE"/><path d="M621.28 106.73C622.56 106.39 623.85 106.06 625.15 105.76 632.18 107.45 638.99 109.92 645.91 111.99 702.27 129.04 758.65 146 814.68 164.09 856.9 177.88 899.84 189.31 942.22 202.6 993.45 218.75 1044.98 233.92 1096 250.73L1096 382.27C1075.76 369.58 1055.33 357.18 1034.56 345.37 1014.13 333.93 994.21 321.61 973.77 310.18 958.75 301.2 943.54 292.53 928.58 283.44 894.37 263.56 859.57 244.7 825.62 224.39 819.23 220.82 812.87 217.18 806.69 213.25 790.71 203.88 774.77 194.45 758.72 185.21 739.89 173.94 720.53 163.58 701.71 152.28 674.94 137.03 648.48 121.22 621.28 106.73Z" fill="#FFFFFE"/><path d="M465.6 122.21C468.39 122.48 471.2 122.52 474 122.43 474.29 125.28 474.47 128.15 474.49 131.01 474.28 159.07 474.34 187.14 474.28 215.2 486.85 215.62 499.43 215.21 512 215.35 541.29 215.27 570.59 215.52 599.88 215.32 600.37 217.36 600.6 219.45 600.86 221.53 597.58 221.86 594.3 222.17 591 222.23 559 222.38 526.99 222.12 494.99 222.19 485.06 222.15 475.13 222.49 465.21 221.98 465.12 206.66 465.26 191.33 465.21 176.01 465.45 158.08 464.91 140.13 465.6 122.21Z" fill="#FFFFFE"/><path d="M603.11 122.48C607.7 122.19 612.61 121.04 616.97 123.07 620.28 124.61 623.27 126.74 626.4 128.61 675 157.99 723.24 187.99 772.03 217.04 774.38 218.68 776.58 220.52 778.77 222.38 778.39 222.51 777.63 222.77 777.25 222.9 747.85 221.79 718.42 222.64 689.01 222.44 673.6 222.61 658.19 222.36 642.79 222.47 629.42 222 616.05 222.11 602.69 221.71 602.67 219.38 602.67 217.02 603.38 214.78 613.4 215.82 623.5 215.76 633.56 215.43 648.37 215.35 663.18 215.23 677.99 215.36 682.22 215.33 686.69 215.46 690.58 213.51 694.18 211.71 697.29 208.25 697.46 204.06 698.14 196.46 695.36 187.62 688.26 183.84 679.08 178.99 670.94 172.46 662.33 166.7 642.61 153.05 623.04 139.17 603.1 125.85 603.1 124.73 603.1 123.6 603.11 122.48Z" fill="#FFFFFE"/><path d="M363.74 125.91C368.15 126.32 372.57 126.35 377 126.29 396.66 125.93 416.34 126.26 436 125.72 441.3 125.55 446.61 125.69 451.89 126.12 452.63 135.4 452.01 144.71 452.06 154 452.14 169.66 451.75 185.33 451.95 200.99 452.03 205.04 451.78 209.09 451.26 213.11 414.5 213.08 377.75 213.5 341 213.09 334.44 212.85 327.6 214.17 321.33 211.64 331.85 191.24 341.78 170.55 351.86 149.93 355.19 141.62 359.99 134.03 363.74 125.91M357.75 138.76C357.52 157.84 357.72 176.92 357.6 196 357.63 199.6 357.21 203.29 358.21 206.8 362.03 207.92 366.07 207.34 369.99 207.41 394.01 207.3 418.04 207.34 442.07 207.39 443.6 207.16 446.02 207.61 446.47 205.59 447.15 201.43 446.65 197.19 446.71 192.99 446.66 177.32 446.58 161.65 446.79 145.98 446.79 143.36 446.44 140.76 445.99 138.18 439.33 137.66 432.66 138.08 426 138.16 406.33 138.26 386.66 138.2 366.99 138.16 363.9 138.14 360.82 138.38 357.75 138.75Z" fill="#FFFFFE"/><path d="M507.99 224.48C561.42 224.59 614.86 224.37 668.28 224.46 668.91 225.46 669.56 226.46 670.23 227.45 643.16 228.12 616.07 227.6 589 227.76 549.45 228.03 509.9 227.48 470.35 228 470.55 257.86 470.24 287.72 470.37 317.58 520.58 317.75 570.78 317.28 620.99 317.46 636.07 317.35 651.15 317.76 666.22 317.17 667.88 317.63 668.51 319.41 669.52 320.63 661.72 321.76 653.84 321.06 646 321.18 631.67 321.3 617.34 321.2 603.01 321.16 576.67 320.28 550.34 321.39 524 321.21 504.34 321.07 484.67 321.59 465.03 320.86 464.25 295.58 465.28 270.28 465.11 245 464.83 238.28 464.91 231.55 465.35 224.84 479.55 223.98 493.78 224.72 507.99 224.48Z" fill="#FFFFFE"/><path d="M672.45 223.36C686.61 224.13 700.82 223.57 715 223.76 731.6 223.94 748.24 223.22 764.82 224.32 773.09 225.2 781.98 223.52 789.58 227.67 784.74 228.28 779.86 228.34 775 228.01 740.34 227.01 705.65 228.27 670.98 227.48 671.46 226.11 671.95 224.73 672.45 223.36Z" fill="#FFFFFE"/><path d="M281.04 225.62C286.27 224.36 291.67 224.53 297 224.63 332.67 224.56 368.33 224.57 404 224.52 423.39 224.7 442.79 224.15 462.17 224.78 462.66 239.51 462.26 254.26 462.41 269 462.21 286.23 462.79 303.48 461.91 320.69 437.27 320.98 412.63 320.72 388 320.9 372.08 321.64 356.15 320.9 340.23 321.57 301.61 321.51 262.98 321.77 224.36 321.49 227.2 315.51 230.85 309.99 234.3 304.37 243.41 289.15 252.5 273.93 261.69 258.76 268.15 247.72 275.2 237.01 281.04 225.62M307.31 228.32C305.79 229.04 304.96 230.62 304.06 231.97 299.98 238.92 296.37 246.15 291.88 252.86 284.22 264.96 277.34 277.54 269.62 289.6 268.2 292.09 266.09 294.62 266.55 297.68 267.11 303.43 269.62 309.1 273.93 313.03 278.47 317.28 284.87 318.95 290.97 318.81 340.28 318.51 389.59 318.78 438.9 318.61 445.42 318.64 452.34 315.41 455.06 309.21 456.54 304.98 456.27 300.41 456.27 296 456.22 279.34 456.36 262.67 456.33 246.01 456.2 242.5 456.3 238.69 454.39 235.6 451.51 231.11 446.58 227.57 441.05 227.79 399.7 227.68 358.35 227.88 317 227.79 313.77 227.85 310.47 227.51 307.31 228.32Z" fill="#FFFFFE"/><path d="M308.66 230.69C311.68 229.82 314.9 230.44 318 230.31 347 230.05 376.01 230.49 404.99 229.87 415.66 230.27 426.34 230.28 437.01 229.9 440.25 229.92 443.69 229.87 446.67 231.34 450.75 233.65 453.81 238.12 453.55 242.93 453.63 262.62 453.55 282.32 453.55 302.01 453.6 306.29 451.7 310.72 448.05 313.1 444.5 315.39 440.24 316.49 436.03 316.43 387.35 316.34 338.67 316.57 289.99 316.51 283.69 316.47 276.93 314.09 273.3 308.69 270.88 304.98 268.78 300.57 269.62 296.03 270.36 293.83 271.63 291.86 272.83 289.89 278.93 280.25 284.63 270.37 290.56 260.62 292.76 256.95 294.31 252.84 297.31 249.69 297.77 267.67 297.16 285.67 297.55 303.65 300.34 304.07 303.15 304.41 305.99 304.44 342 304.18 378.01 304.38 414.02 304.3 425.51 304.02 437.03 304.55 448.5 303.64 448.96 289.11 448.43 274.56 448.76 260.02 448.82 255.54 449.41 250.84 447.54 246.62 447.2 246.39 446.51 245.91 446.17 245.68 443.51 245.05 440.78 244.77 438.05 244.73 411.37 244.98 384.69 244.81 358.01 244.89 344.34 245.16 330.68 245.32 317.02 245.27 311.45 245.19 305.58 246.24 300.37 243.72 303.27 239.46 305.48 234.74 308.67 230.69Z" fill="#FFFFFE"/><path d="M299.76 248.17C308.16 247.54 316.59 247.9 325 247.83 364.93 247.57 404.87 247.83 444.8 247.61 444.05 265.42 444.73 283.25 444.16 301.06 406.33 301.45 368.49 300.84 330.67 301.46 320.45 301.65 310.24 301.52 300.02 301.65 299.28 283.84 300.09 265.99 299.76 248.17Z" fill="#FFFFFE"/><path d="M827.93 247.51C832.28 249.46 836.28 252.08 840.3 254.63 864.06 268.78 888.11 282.43 911.63 296.96 908.82 303.13 905.02 308.78 901.72 314.69 900.47 316.73 899.34 318.94 897.46 320.48 893.11 321.82 888.47 321.13 884 321.27 868.66 321.39 853.32 321.69 838 322.29 817.9 322.53 797.78 322.48 777.69 321.58 751.46 321.42 725.23 320.31 699 321.09 689.62 320.66 680.24 321.59 670.86 320.97 671.18 319.85 671.5 318.74 671.83 317.64 692.22 317.76 712.61 317.49 733 317.6 750.67 317.48 768.31 318.42 785.98 318.56 799.89 319.16 813.79 318.2 827.7 318.73 826.83 307.78 829.62 296.89 827.83 285.99 827.69 273.17 827.69 260.33 827.93 247.51Z" fill="#FFFFFE"/><path d="M896.89 285.44C900.79 286.92 904.57 288.71 908.06 291 915.58 295.9 923.91 299.52 930.9 305.24 918.69 300.27 907.96 292.45 896.89 285.44Z" fill="#FFFFFE"/><path d="M900.44 321.4C905.66 314.16 908.89 305.63 914.64 298.73 919.79 301.83 924.95 304.94 930.39 307.55 941.55 313.02 952.35 319.21 963.69 324.31 976.83 330.86 989.38 338.52 1002.11 345.82 1002.89 349.24 1004.68 352.31 1007.48 354.48 1008.16 355.38 1009.06 355.9 1010.18 356.02 1011.81 355.57 1010.57 353.66 1009.93 352.9 1009.38 351.97 1008.89 351.03 1008.43 350.08 1008.8 349.96 1009.53 349.73 1009.89 349.62 1014.65 351.29 1018.06 354.99 1021.15 358.79 1024.17 360.57 1028.06 360.19 1031.23 361.79 1032.11 364.23 1032.28 366.85 1032.62 369.41 1030.18 369.48 1027.76 369.52 1025.34 369.55 1025.34 370.11 1025.36 371.24 1025.36 371.8 1028.55 372.08 1031.75 372.3 1034.96 372.45 1034.87 369.95 1034.8 367.46 1034.79 364.97 1055.12 377.25 1075.52 389.43 1096 401.47L1096 440.6C1079.98 440.65 1064.01 439.26 1047.99 439.35 1036.65 439.51 1025.34 438.63 1014 438.66 996.33 438.37 978.67 438.33 961 438.22 947.66 438.4 934.34 437.42 920.99 437.69 902.33 437.6 883.66 437.6 865 437.81 855.41 438.31 845.82 438.31 836.22 438.54 819.49 438.08 802.75 438.48 786.01 438.32 777.05 438.16 768.07 438.73 759.13 437.97 746.12 436.75 733.04 437.59 720 437.34 695 436.95 670 437.46 645 437.38 536 437.33 427 437.3 318 437.34 308.96 437.27 299.93 437.57 290.9 437.11 290.58 430.51 290.38 423.88 290.83 417.29L290.99 416.59C303.99 416.96 316.99 417.36 330 417.16 354.65 416.29 379.33 416.97 403.99 416.63 462.66 416.8 521.33 416.85 580 416.58 592.35 416.54 604.71 416.52 617.04 417.12 622.1 417.32 624.64 412.17 626.36 408.22 628.42 403.41 627.59 398.08 627.64 393 627.61 379 627.58 365 627.64 351 627.6 346.28 628.36 341.29 626.4 336.83 624.42 332.38 620.39 327.96 615.07 328.55 582.09 328.67 549.09 328.17 516.13 328.95 515.78 327.33 515.39 325.72 515.07 324.11 525 322.87 535.03 323.81 545 323.51 603.67 323.44 662.33 323.51 721 323.42 744.33 323.52 767.68 323.19 791 324.21 804.33 324.43 817.67 324.3 831 324.35 851.68 324.59 872.34 323.04 893.02 323.43 895.54 323.21 898.82 323.89 900.44 321.4M645.28 341.93C645.3 362.64 645.31 383.35 645.24 404.06 644.73 411.83 652.57 417.99 659.94 417.72 675.62 417.64 691.3 417.4 706.99 417.56 747.34 417.33 787.66 420.25 828.01 418.79 865 418.29 902.01 417.03 939 418.14 952.32 418.34 965.64 418.01 978.95 418.54 995.97 418.54 1013 418.53 1030.01 419.29 1035.99 419.07 1042.78 420.83 1048.01 417 1052.31 413.48 1053.13 407.21 1052.15 402.04 1050.8 397.9 1046.52 395.97 1042.95 394.13 1032.24 388.92 1022.05 382.68 1011.2 377.77 1011.25 378.48 1011.36 379.91 1011.41 380.62 1022.47 386.13 1033.24 392.2 1044.28 397.77 1046.77 399.07 1049.87 400.81 1049.78 404.07 1050.46 408.74 1048.35 413.94 1043.95 416.02 1038.52 418.03 1032.63 416.9 1027 416.82 1011.33 416.5 995.65 416.19 979.98 416.43 977.69 416.51 975.44 416.18 973.29 415.44 973.77 414.85 974.71 413.69 975.19 413.11 992.79 413.52 1010.4 413.03 1028 413.75 1032.39 413.59 1036.97 414.5 1041.24 413.28 1041.74 408.25 1042.08 403.01 1040.97 398.06 1038.8 396.11 1035.64 396.74 1032.99 396.73 1022.69 397.59 1012.34 396.83 1002.05 397.81 992.81 398.82 983.49 398.25 974.24 398.99 974.05 389.66 974.5 380.32 974.16 371 973.9 366.65 968.21 367.95 965.24 367.62 965.23 364.02 965.25 360.42 965.38 356.82 969.01 358.34 972.7 359.84 976.02 361.99 978.48 363.57 979.69 367.09 983.02 367.07 987.82 367.41 991.75 370.32 996.02 372.19 994.69 369.9 993.43 367.42 991.29 365.79 988.1 364.74 984.69 364.84 981.4 364.56 980.87 361.49 980.63 358.39 980.79 355.29 983.19 355.35 985.65 355.61 988.03 355.03 986.26 351.76 981.74 353.17 978.69 352.41 978.58 354.96 978.5 357.52 978.42 360.08 973.94 358.46 969.77 356.15 965.39 354.33 965.14 345.53 965.7 336.73 965.09 327.94 958.21 326.05 951.02 327.08 944 326.78 914.67 326.73 885.32 326.17 856 327.25 832.68 327.57 809.34 327.6 786.02 327.24 770.7 326.15 755.33 326.64 740 325.85 713.65 325.52 687.3 325.85 660.96 325.81 652.39 325.4 644.78 333.47 645.28 341.93M991.08 355.45C993.9 356.66 996.61 358.1 999.33 359.53 998.35 356.67 997.21 353.73 994.89 351.69 992.67 351.53 992.16 354.01 991.08 355.45M992.25 362.2C992.64 363.35 993.04 364.49 993.44 365.65 994.22 365.44 995.01 365.23 995.81 365.02 995.37 364.18 994.93 363.33 994.5 362.5 993.94 362.42 992.81 362.28 992.25 362.2M1008.2 363.24C1007.72 364.74 1007.24 366.23 1006.79 367.74 1009.09 369.55 1010.92 371.84 1012.34 374.41 1014.51 373.58 1016.68 372.72 1018.85 371.84 1015.82 368.37 1013.42 363.41 1008.2 363.24M1006.4 373.36C1005.13 374.69 1007.32 377 1008.7 375.72 1009.98 374.38 1007.74 372.09 1006.4 373.36Z" fill="#FFFFFE"/><path d="M222.84 323.43C244.41 323.94 266 322.86 287.57 323.71 287.57 325.39 287.59 327.07 287.57 328.76L286.66 328.82C275.75 328.98 264.84 328.63 253.95 328.86 251.19 328.72 249.85 331.48 248.45 333.37 236.39 352.12 225.02 371.29 213.23 390.21 211.01 393.81 207.98 397.44 208.41 401.97 208.28 407.82 210.3 415.25 216.25 417.54 228.4 417.92 240.59 417.61 252.76 417.45 264.21 417.96 275.68 417.24 287.13 417.84 287.6 424.19 287.63 430.57 286.9 436.9 280.28 437.53 273.63 437.39 267 437.33 238.33 437.4 209.66 437.39 181 437.4 173.01 437.36 165.03 437.64 157.05 437.23 156.67 436.67 155.92 435.56 155.55 435.01 164.37 422.45 171.78 408.98 179.87 395.95 194.28 371.82 208.35 347.5 222.84 323.43Z" fill="#FFFFFE"/><path d="M291.92 323.59C294.93 323.2 297.97 323.33 301 323.35 325.9 323.54 350.8 323 375.68 323.53 375.47 325.54 375.25 327.55 375.03 329.57 371.39 328.9 367.69 328.57 364 328.62 347 328.75 330 328.69 313 328.75 305.45 328.82 297.86 328.51 290.34 329.36L290.43 328.68C290.78 326.96 290.9 325.09 291.92 323.59Z" fill="#FFFFFE"/><path d="M377.41 323.94C384.58 323.17 391.8 323.62 399 323.55 427.33 323.5 455.66 323.55 484 323.55 493.87 323.8 503.78 323 513.63 323.95 513.69 332.62 513.64 341.28 513.62 349.94 508.1 350.62 502.54 350.43 497 350.41 465 350.43 433 350.42 401 350.42 393.09 350.26 385.17 350.76 377.28 350.09 377.12 341.38 377.18 332.66 377.41 323.95Z" fill="#FFFFFE"/><path d="M647.58 342.97C647.41 335.65 653.34 328.23 660.96 328.31 696.97 328.17 732.99 327.97 769 328.78 781.33 329.5 793.7 329.65 806.05 329.5 807.61 329.58 809.42 329.25 810.69 330.42 810.71 333.47 806.09 333.85 806.49 337.04 806.38 346.86 806.3 356.68 806.59 366.5 805.39 367.2 804.17 367.86 802.94 368.46 792.93 369.21 782.88 368.09 772.85 368.35 772.45 358.62 772.83 348.89 772.57 339.16 772.89 337.47 771.26 336.56 769.8 336.56 743.81 335.75 717.8 335.49 691.8 335.72 691.35 338.67 691.04 341.63 690.68 344.6 678.2 344.63 665.7 344.28 653.23 344.78 653.11 362.52 652.62 380.26 652.79 398 652.77 403.09 652.94 408.19 652.58 413.28 649.15 411.05 647.27 407.08 647.46 403.02 647.52 383.01 647.45 362.98 647.58 342.97Z" fill="#FFFFFE"/><path d="M619.11 331.35C623.49 333.43 624.55 338.57 624.4 342.98 624.35 361.65 624.31 380.33 624.37 399 624.31 401.76 624.4 404.62 623.43 407.26 622.34 408.69 621.16 410.04 620 411.41 619.17 393.95 619.87 376.46 619.63 358.99 619.51 349.78 620.02 340.54 619.11 331.35Z" fill="#FFFFFE"/><path d="M238.87 353.91C242.8 347.77 246.02 341.19 250.21 335.22 252.07 339.27 250.7 343.74 250.78 348 250.76 370.36 250.68 392.72 250.68 415.07 240.11 415.65 229.51 415.33 218.94 415.37 214.53 415.77 212.58 411.06 211.63 407.57 211.03 403.98 210.6 399.89 212.69 396.69 221.54 382.51 230.03 368.1 238.87 353.91Z" fill="#FFFFFE"/><path d="M1005.29 344.68C1006.7 343.55 1008.09 342.3 1009.85 341.73 1012.14 343.74 1013.12 346.7 1014.1 349.49 1011.11 347.97 1008.15 346.41 1005.29 344.68Z" fill="#FFFFFE"/><path d="M974.66 401.7C988.08 400.89 1001.57 400.91 1015 399.86 1023.07 399.7 1031.16 399.38 1039.23 399.7 1039.35 403.53 1039.34 407.37 1039.22 411.21 1030.14 411.61 1021.08 410.59 1012 410.69 999.38 410.67 986.76 410.54 974.14 410.7 974.18 407.7 973.84 404.63 974.66 401.7Z" fill="#FFFFFE"/><path d="M149.02 439.62C155.97 440.53 162.99 440.85 170 440.67 356 440.59 542 440.6 727.99 440.6 740.67 440.78 753.37 440.22 766.01 441.47 784.66 441.89 803.33 441.53 821.99 441.67 828.68 441.8 835.32 440.97 841.99 440.69 898.06 440.48 954.13 440.74 1010.19 440.66 1028.78 441.41 1047.4 441.3 1066 441.84 1075.99 442.38 1085.99 442.61 1096 442.83L1096 450.05C1084.18 449.49 1072.35 449.3 1060.55 448.52 1044.02 448.1 1027.48 448.72 1010.98 447.62 975.65 447.04 940.32 446.93 905 446.66 895.73 446.8 886.44 446.27 877.19 447.06 866.48 447.97 855.73 447.37 845.01 447.6 821.67 447.43 798.33 448.76 774.99 447.72 721.67 445.98 668.33 446.8 615 446.77 560.66 446.58 506.33 446.9 451.99 446.71 398.99 446.54 345.99 446.86 293 446.79 272.99 446.48 253 447.23 233 447.18 207.74 447.52 182.47 447.18 157.21 447.6 153.3 447.62 148.97 449 145.51 446.52 146.6 444.18 147.75 441.86 149.02 439.62Z" fill="#FFFFFE"/><path d="M126.38 482.54C129.65 476.67 132.31 470.47 135.94 464.81 158.61 465.53 181.31 465.3 204 465.39 215.73 465.27 227.47 465.73 239.19 465.06 241.08 470.85 240.37 477.01 240.38 483 240.31 495.04 240.42 507.08 240.3 519.13 240.94 519.16 242.22 519.22 242.86 519.25 267.24 519.6 291.62 519.22 316.01 519.33 349.08 519.31 382.15 519.41 415.22 519.26 415.73 519.23 416.74 519.18 417.24 519.16 417.67 519.11 418.53 519.01 418.96 518.96 419.06 512.62 419.18 506.27 419.18 499.93 419.18 497.37 418.86 493.8 415.76 493.21 410.58 492.09 405.24 492.73 400 492.65 368.66 492.69 337.33 492.68 305.99 492.67 284.99 492.47 263.98 493.97 242.98 493.09 242.65 488.55 242.68 483.99 243.18 479.46 277.45 479.31 311.73 479.02 346 479.14 400.33 478.23 454.67 478.86 509 478.61 514.08 478.42 519.22 478.43 524.17 479.74 522.8 493.12 523.68 506.58 523.25 520L236.72 520C236.47 511.6 237.55 503.11 235.99 494.8 235.48 494.64 234.46 494.34 233.95 494.18 227.11 492.35 219.97 493.61 213 493.33 183.2 492.84 153.32 491.12 123.61 494.13 122.8 494.14 121.18 494.14 120.37 494.15 122.18 490.17 124.26 486.34 126.38 482.54M426.72 489.22C426.22 499.17 426.46 509.15 426.6 519.1 427.13 519.05 428.2 518.93 428.73 518.88 436.52 519.18 444.33 518.71 452.1 519.38 453.15 519.06 454.2 518.71 455.23 518.33 457.13 518.8 459.08 519.18 461.06 519.12 471.53 518.68 482 519.14 492.48 519.07 493.2 519.08 494.65 519.1 495.37 519.1 495.37 510.1 495.79 501.05 495.26 492.07 494.52 488.54 490.63 489.53 488.02 489.47 467.59 489.59 447.15 489.6 426.72 489.22Z" fill="#FFFFFE"/><path d="M243.01 465.31C272.01 465.55 301.02 464.64 330.02 464.98 383.68 464.46 437.34 464.82 491 464.72 501.91 464.93 512.85 464.3 523.75 465.02 523.81 468.37 523.8 471.73 523.75 475.09 507.51 475.65 491.24 475.2 475 475.35 406.66 475.31 338.33 475.33 269.99 475.39 262.53 475.51 255.04 475.03 247.59 475.81 246.15 475.84 244.64 476.15 243.25 475.65 242.19 472.3 242.86 468.74 243.01 465.31Z" fill="#FFFFFE"/><path d="M541.56 465.34C548.64 464.84 555.74 464.82 562.83 465.24 563.29 483.1 562.59 500.97 563.06 518.82L563.93 518.99C564.61 519.08 565.98 519.25 566.66 519.34 571.49 519.61 576.34 519.4 581.17 519.19 581.55 510.47 581.3 501.73 581.34 493 581.28 483.65 581.78 474.26 580.57 464.96 605.7 464.51 630.86 464.91 656 464.71 680.09 464.49 704.2 465 728.29 464.45 738.02 464.65 747.76 464.42 757.47 465.28 773.97 465.68 790.49 465.52 807 465.55 815.6 465.63 824.22 465.07 832.82 465.63 832.8 479.66 832.74 493.68 832.78 507.7 824.18 507.67 815.58 507.59 807 508.2 792.34 508.42 777.67 508.37 763 508.24 748.02 507.29 732.98 507.84 718 506.78 681.43 506.22 644.85 506.84 608.27 506.77 608.22 510.86 608.19 514.96 608.07 519.05L608.05 520 541.49 520C542.66 512.72 541.81 505.34 541.85 498.01 541.87 487.12 541.55 476.23 541.56 465.34Z" fill="#FFFFFE"/><path d="M835.33 465.17C842.2 464.38 849.12 464.73 856.02 464.6 895.01 464.21 934.01 464.64 973.01 464.74 992.31 465.96 1011.67 465.37 1031 465.8 1044.65 467 1058.37 466.09 1072.03 467.18 1079.57 467.6 1087.14 467.24 1094.68 467.84 1094.78 485.22 1094.4 502.62 1095 520L1070.15 520C1069.91 516.74 1069.56 513.48 1068.84 510.29 1059.98 508.67 1050.91 509.71 1041.97 508.81 972.97 507.63 903.94 506.87 834.93 507.68 834.28 493.5 835.5 479.34 835.33 465.17Z" fill="#FFFFFE"/></g><g id="c"><path d="M399.54 37.18C412.58 32.87 426.21 29.99 440 30.13 478.24 29.22 515.58 41.92 548.67 60.32 555.06 64.04 562.39 65.43 569.32 67.78 585.22 72.97 601.31 77.55 617.28 82.5 624.04 84.27 630.43 87.21 637.23 88.83 659.48 95.1 681.46 102.27 703.68 108.63 723.48 114.93 743.4 120.85 763.34 126.72 775.72 130.41 787.85 134.91 800.27 138.51 810.78 141.34 820.96 145.26 831.4 148.36 861.72 157.67 892.15 166.66 922.61 175.52 938.17 179.88 953.37 185.4 968.9 189.85 987.08 195.13 1004.96 201.35 1023.16 206.59 1035.16 209.84 1046.93 213.84 1058.83 217.44 1071.13 221.7 1083.73 225.04 1096 229.38L1096 250.73C1044.98 233.92 993.45 218.75 942.22 202.6 899.84 189.31 856.9 177.88 814.68 164.09 758.65 146 702.27 129.04 645.91 111.99 638.99 109.92 632.18 107.45 625.15 105.76 617.98 104.18 610.89 102.27 603.93 99.92 587.39 94.59 570.6 90.09 554.04 84.84 551.34 83.79 548.59 82.89 545.82 82.09L545.82 83.33C544.96 95.02 546.44 106.76 545.35 118.42 544.05 114.35 544.22 110.01 544.23 105.78 544.64 97.6 544.38 89.4 544.72 81.21 543.08 80.58 541.43 79.95 539.79 79.33 539.44 88.46 540.9 97.58 539.85 106.69 509.3 106.53 478.76 106.62 448.22 106.73 448.22 96.44 448.41 86.16 448.36 75.88 476.04 75.78 503.74 75.16 531.41 76.05 522.74 78.06 513.8 77.29 505 76.97 496.66 76.48 488.34 77.46 480 77.36 470.25 77.6 460.4 77.01 450.75 78.74 450.5 85.83 450.18 92.94 450.56 100.04 450.75 101.43 450.66 103.3 452.16 104.03 454.06 104.47 456.03 104.48 457.97 104.52 476.98 104.39 496 104.44 515.01 104.41 522.47 104.33 530.03 105.09 537.37 103.35 537.58 94.74 537.54 86.12 537.57 77.51 536.14 77.04 534.71 76.55 533.27 76.14 529.74 70.26 522.13 70.76 516.19 70.26 487.46 67.39 458.3 70.8 430.59 78.66L429.58 78.96C429.59 78.4 429.62 77.28 429.63 76.72 437.78 73.72 446.41 72.38 454.93 70.89 469.8 68.2 484.95 67 500.07 67.37 506.85 67.43 513.51 69.3 520.31 68.76 514.39 64.75 507.5 62.63 500.85 60.19 477.48 51.91 452.33 48.28 427.61 50.96 404.65 54.38 382.7 64.06 364.66 78.67 355.43 85.67 347.49 94.17 339.62 102.61 330.73 113.21 321.89 123.96 314.81 135.89 311.88 140.83 308.51 145.49 305.77 150.54 295.76 169.88 285.14 188.89 275.21 208.27 264.35 227.25 254.59 246.82 243.84 265.86 235.55 281.52 226.55 296.8 218.47 312.58 212.48 323.07 206.82 333.73 201.31 344.47 188.56 367.17 177.06 390.57 163.89 413.03 159.93 419.52 155.35 425.91 153.78 433.49 158.81 428.73 161.86 422.42 165.15 416.44 180.2 390.16 195.64 364.1 211.1 338.06 214.33 333.08 217.02 327.79 219.87 322.59 224.99 315.58 229.01 307.87 233.56 300.49 245.38 280.68 257.2 260.87 268.99 241.03 273.67 233.63 277.4 225.66 282.4 218.44 298.65 190.45 315.9 163.05 332.18 135.07 335.82 128.61 342.01 124.26 347.59 119.61 358.24 110.65 370.03 103.14 382.07 96.2 396.1 88.77 410.57 81.82 426 77.82 426.12 78.26 426.37 79.14 426.49 79.58 395.05 90.64 365.16 106.89 340.41 129.39 335 134.32 331.97 141.13 328.15 147.24 313.51 171.44 299.44 195.99 284.55 220.04 283.35 221.88 282.14 223.71 281.04 225.62 275.2 237.01 268.15 247.72 261.69 258.76 252.5 273.93 243.41 289.15 234.3 304.37 230.85 309.99 227.2 315.51 224.36 321.49 262.98 321.77 301.61 321.51 340.23 321.57 332.51 322.23 324.75 321.85 317 322.09 308.91 321.89 300.77 321.33 292.72 322.57 300.14 323.18 307.58 323.22 315.01 322.82 328 322.82 341 322.5 354 322.61 361.47 322.61 368.98 322.35 376.43 323.24 376.15 325.38 375.81 327.54 375.03 329.57 375.25 327.55 375.47 325.54 375.68 323.53 350.8 323 325.9 323.54 301 323.35 297.97 323.33 294.93 323.2 291.92 323.59 290.9 325.09 290.78 326.96 290.43 328.68 290.74 326.33 291.19 324.01 291.62 321.68 274.43 321.99 257.21 322.8 240.01 321.87 235.51 321.58 230.98 321.74 226.52 322.47 234.59 324.19 242.84 322.75 250.99 322.79 263.5 322.82 276.06 322.29 288.52 323.65 288.53 325.14 288.56 326.64 288.53 328.13 288.29 328.29 287.81 328.61 287.57 328.76 287.59 327.07 287.57 325.39 287.57 323.71 266 322.86 244.41 323.94 222.84 323.43 208.35 347.5 194.28 371.82 179.87 395.95 171.78 408.98 164.37 422.45 155.55 435.01 154.67 436.36 153.86 437.76 153.04 439.16 152.43 438.12 151.83 437.1 151.22 436.07 150.47 437.24 149.72 438.41 149.02 439.62 147.75 441.86 146.6 444.18 145.51 446.52 142.69 452.8 139.62 458.98 135.94 464.81 132.31 470.47 129.65 476.67 126.38 482.54 124.26 486.34 122.18 490.17 120.37 494.15 121.18 494.15 122.8 494.15 123.61 494.13 146.4 494.59 169.2 494.1 191.99 494.37 205.98 494.39 219.97 494.42 233.95 494.18 234.46 494.34 235.48 494.64 235.99 494.8 235.29 502.75 235.85 510.74 235.56 518.72 235.11 518.78 234.21 518.9 233.76 518.96 234.05 511.93 235.14 504.64 233.09 497.78 229.31 495.2 224.3 496.59 220 496.18 205.01 495.42 190 495.85 175 495.64 161 495.49 147 495.68 133 495.68 129.31 495.76 125.49 495.72 121.97 497 119.01 504.11 121.11 512.21 121.98 519.62 121.55 519.71 120.68 519.9 120.25 520L119.62 520C119.94 512.94 118.4 506.02 117.02 499.15 112.93 505.5 110.43 512.67 106.87 519.31 99.52 519.59 92.15 519.6 84.8 519.33 87.01 513.57 89.91 508.12 92.79 502.68 102.84 483.43 112.99 464.24 123.24 445.1 136.69 421.21 150.26 397.39 163.19 373.22 168.27 362.51 174.57 352.45 179.85 341.84 189.88 323.19 200.3 304.75 210.13 285.98 216.29 275.07 222.28 264.07 228.08 252.97 235 241.32 240.71 229.01 247.39 217.24 252.15 209.51 255.84 201.2 260.26 193.28 266.97 180.11 274.66 167.47 281.33 154.28 289.1 140.5 296.17 126.26 305.6 113.5 314.94 99.78 325.98 87.36 337.54 75.5 344.81 68.34 352.96 62.13 361.26 56.24 373.06 48.18 385.66 40.96 399.54 37.18Z" fill="#0B0B13"/><path d="M474 122.43C474.75 121.92 475.52 121.43 476.3 120.95 476.65 151.53 475.82 182.12 476.47 212.7 488.28 213.91 500.16 213.03 512 213.25 540.94 213.29 569.88 213.41 598.82 213.33 599.09 213.83 599.62 214.83 599.88 215.32 570.59 215.52 541.29 215.27 512 215.35 499.43 215.21 486.85 215.62 474.28 215.2 474.34 187.14 474.28 159.07 474.49 131.01 474.47 128.15 474.29 125.28 474 122.43Z" fill="#0B0B13"/><path d="M362.26 123.23C374.84 123.05 387.43 123.64 400 122.9 409.57 122.54 419.15 122.94 428.73 122.73 437.34 122.43 445.91 124.08 454.53 123.35 454.76 123.75 455.21 124.56 455.44 124.96 455.69 132.64 455.56 140.31 455.54 147.99 455.33 170.54 455.86 193.11 455.23 215.65 409.31 215.5 363.37 215.96 317.45 215.58 318.32 212.31 319.51 209.12 321.1 206.13 335.1 178.64 348.19 150.68 362.26 123.23M363.74 125.91C359.99 134.03 355.19 141.62 351.86 149.93 341.78 170.55 331.85 191.24 321.33 211.64 321.25 212.33 321.18 213.02 321.1 213.72 364.06 213.8 407.01 213.57 449.97 213.66 453.37 214.23 452.8 210.26 452.98 208.05 453.38 182.36 452.98 156.65 453.35 130.96 453.21 128.8 453.64 125.43 450.84 124.85 441.25 124.03 431.59 124.8 422 125.25 405.34 125.1 388.68 125.33 372.02 125.17 369.24 125.13 366.43 125.17 363.74 125.91Z" fill="#0B0B13"/><path d="M603.1 125.85C623.04 139.17 642.61 153.05 662.33 166.7 670.94 172.46 679.08 178.99 688.26 183.84 695.36 187.62 698.14 196.46 697.46 204.06 697.29 208.25 694.18 211.71 690.58 213.51 686.69 215.46 682.22 215.33 677.99 215.36 663.18 215.23 648.37 215.36 633.56 215.43 623.5 215.76 613.4 215.82 603.38 214.78 611.33 212.45 619.71 212.71 627.9 212.72 629.93 213.58 632.2 213.55 634.13 212.44 647.78 211.68 661.35 213.78 675 213.32 681.63 213.46 689.96 213.23 693.76 206.78 697.03 199.81 694.22 190.33 687.48 186.44 676.59 179.85 666.5 172.06 655.89 165.05 639.85 153.69 623.67 142.56 607.52 131.38 605.52 130.03 603.96 128.11 603.1 125.85Z" fill="#0B0B13"/><path d="M358.78 139.7C361.48 139.1 364.22 138.64 366.99 138.65 386.99 138.67 407 138.65 427 138.65 433.05 138.68 439.1 138.4 445.14 138.89 445.78 146.57 445.35 154.29 445.45 161.99 445.31 176.78 445.75 191.57 445.28 206.35 423.18 206.57 401.08 206.47 378.99 206.47 372.22 206.44 365.45 206.75 358.69 206.31 358.35 199.55 358.59 192.77 358.59 186 358.7 170.57 358.4 155.13 358.78 139.7M363.26 141.08C360.41 142.03 360.73 145.57 360.57 147.97 360.68 164.99 360.52 182.02 360.55 199.05 360.75 200.75 360.27 203.1 362.22 203.97 366.42 204.78 370.74 204.32 375 204.39 395.33 204.39 415.67 204.24 436.01 204.37 438.45 204.31 440.98 204.26 443.27 203.3 443.58 201.57 443.61 199.8 443.63 198.05 443.44 180.06 443.62 162.06 443.58 144.06 444 141 440.27 140.53 438.05 140.56 415.03 140.49 392 140.64 368.98 140.52 367.06 140.58 365.1 140.5 363.26 141.08Z" fill="#0B0B13"/><path d="M642.79 222.47C658.19 222.36 673.6 222.61 689.01 222.44 718.42 222.64 747.85 221.79 777.25 222.9 773.35 224.7 769 224.51 764.82 224.32 748.24 223.22 731.6 223.94 715 223.76 700.82 223.57 686.61 224.13 672.45 223.36 662.59 221.96 652.65 223.83 642.79 222.47Z" fill="#0B0B13"/><path d="M296.9 223.55C307.25 222.95 317.64 223.25 328.01 223.21 360 223.18 391.99 223.38 423.98 223.14 436.36 223.52 448.76 222.88 461.12 223.55 426.08 223.89 391.03 223.61 355.99 223.71 336.3 223.63 316.59 223.92 296.9 223.55Z" fill="#0B0B13"/><path d="M589 227.76C616.07 227.6 643.16 228.12 670.23 227.45L670.98 227.48C705.65 228.27 740.34 227.01 775 228.01 779.86 228.34 784.74 228.28 789.58 227.67 790.79 227.76 792.01 227.86 793.24 227.97 793.09 228.7 792.79 230.14 792.64 230.87 783.1 231.9 773.54 230.62 763.98 230.67 754.24 230.44 744.46 231.14 734.75 230.09 727.94 229.34 721.05 229.28 714.25 230.19 707.48 231.14 700.63 230.77 693.87 229.99 676.6 228.86 659.3 229.81 642.01 229.63 588.32 229.69 534.64 229.88 480.95 229.62 478.01 229.68 475.13 230.26 472.28 230.9 472.3 250.27 472.44 269.63 472.33 289 472.33 297.81 472.05 306.63 472.5 315.44 480.31 316.23 488.16 316.35 496 315.91 548.33 315.41 600.66 315.82 652.99 315.67 657.43 315.63 661.98 315.66 666.22 317.17 651.15 317.76 636.07 317.35 620.99 317.46 570.78 317.28 520.58 317.75 470.37 317.58 470.24 287.72 470.55 257.86 470.35 228 509.9 227.48 549.45 228.03 589 227.76Z" fill="#0B0B13"/><path d="M307.31 228.32C310.47 227.51 313.77 227.85 317 227.79 358.35 227.88 399.7 227.68 441.05 227.79 446.58 227.57 451.51 231.11 454.39 235.6 456.3 238.69 456.2 242.5 456.33 246.01 456.36 262.67 456.22 279.34 456.27 296 456.27 300.41 456.54 304.98 455.06 309.21 452.34 315.41 445.42 318.64 438.9 318.61 389.59 318.78 340.28 318.51 290.97 318.81 284.87 318.95 278.47 317.28 273.93 313.03 269.62 309.1 267.11 303.43 266.55 297.68 266.09 294.62 268.2 292.09 269.62 289.6 277.34 277.54 284.22 264.96 291.88 252.86 296.37 246.15 299.98 238.92 304.06 231.97 304.96 230.62 305.79 229.04 307.31 228.32M308.66 230.69C305.47 234.74 303.26 239.46 300.36 243.72 299.91 244.46 299.47 245.2 299.04 245.95 312.02 245.5 325.01 245.76 338 245.69 374.06 245.64 410.11 245.59 446.16 245.68 446.5 245.91 447.19 246.39 447.53 246.62 447.25 265.51 447.7 284.42 447.23 303.3 397.34 303.67 347.43 303.16 297.54 303.65 297.15 285.67 297.76 267.67 297.3 249.69 294.3 252.84 292.75 256.95 290.55 260.62 284.62 270.37 278.92 280.25 272.82 289.89 271.62 291.86 270.35 293.83 269.61 296.03 268.77 300.57 270.87 304.98 273.29 308.69 276.92 314.09 283.68 316.47 289.98 316.51 338.66 316.57 387.34 316.34 436.02 316.43 440.23 316.49 444.49 315.39 448.04 313.1 451.69 310.72 453.59 306.29 453.54 302.01 453.54 282.32 453.63 262.62 453.54 242.93 453.8 238.12 450.74 233.65 446.66 231.34 443.68 229.87 440.24 229.92 437 229.9 426.33 230.28 415.65 230.27 404.98 229.87 376 230.49 346.99 230.05 317.99 230.31 314.89 230.44 311.67 229.82 308.65 230.69M299.75 248.17C300.08 265.99 299.27 283.84 300.01 301.65 310.23 301.52 320.44 301.65 330.66 301.46 340.76 301.79 350.88 301.56 360.99 301.61 389.15 301.55 417.32 301.72 445.49 301.51 445.89 286 445.46 270.48 445.78 254.97 445.86 252.47 445.65 249.96 444.79 247.61 404.86 247.82 364.92 247.57 324.99 247.83 316.58 247.9 308.15 247.54 299.75 248.17Z" fill="#0B0B13"/><path d="M825.45 271C825.69 261.75 824.59 252.42 825.8 243.22 842.61 251.62 858.5 261.67 874.94 270.72 881.18 277.06 889.33 280.94 896.89 285.44 907.96 292.45 918.69 300.27 930.9 305.24 937.51 309.21 944.83 311.77 951.52 315.59 954.85 317.52 958.46 318.91 962.09 320.22 976.72 327.96 990.95 336.42 1005.29 344.68 1008.15 346.41 1011.11 347.97 1014.1 349.49 1018.68 352.03 1022.77 355.39 1027.59 357.52 1033.44 360.04 1038.22 364.36 1043.82 367.33 1051.77 371.59 1059.15 376.82 1067.1 381.09 1076.88 386.46 1086.25 392.53 1096 397.95L1096 401.47C1075.52 389.43 1055.12 377.25 1034.79 364.97 1034.8 367.46 1034.87 369.95 1034.96 372.45 1031.75 372.3 1028.55 372.08 1025.36 371.8 1025.36 371.24 1025.34 370.11 1025.34 369.55 1027.76 369.52 1030.18 369.48 1032.62 369.41 1032.28 366.85 1032.11 364.23 1031.23 361.79 1028.06 360.19 1024.17 360.57 1021.15 358.79 1018.06 354.99 1014.65 351.29 1009.89 349.62 1007.27 348.41 1004.64 347.2 1002.11 345.82 989.38 338.52 976.83 330.86 963.69 324.31 952.35 319.21 941.55 313.02 930.39 307.55 924.95 304.94 919.79 301.83 914.64 298.73 913.63 298.14 912.62 297.55 911.63 296.96 888.11 282.43 864.06 268.78 840.3 254.63 836.28 252.08 832.28 249.46 827.93 247.51 827.69 260.33 827.69 273.17 827.83 285.99 829.62 296.89 826.83 307.78 827.7 318.73 813.79 318.2 799.89 319.16 785.98 318.56 768.31 318.42 750.67 317.48 733 317.6 712.61 317.49 692.22 317.76 671.83 317.64 674.04 315.59 677.11 315.44 679.96 315.49 710.3 315.74 740.65 315.31 770.98 315.79 780.33 315.9 789.68 316.61 799.04 316.28 807.99 315.8 817.44 312.35 822.9 304.91 826.28 300.39 825.67 294.42 824.71 289.21 823.34 283.13 825.91 277.12 825.45 271M813.64 316.11C817.01 316.38 820.45 316.77 823.82 316.12 825.87 313.99 825.08 310.92 824.52 308.38 820.83 310.88 817.15 313.38 813.64 316.11Z" fill="#0B0B13"/><path d="M645.28 341.93C644.78 333.47 652.39 325.4 660.96 325.81 687.3 325.86 713.65 325.52 740 325.85 755.33 326.64 770.7 326.15 786.02 327.24 809.34 327.6 832.68 327.57 856 327.25 885.32 326.17 914.67 326.73 944 326.78 951.02 327.08 958.21 326.05 965.09 327.94 965.7 336.73 965.14 345.53 965.39 354.33 969.77 356.15 973.94 358.46 978.42 360.08 978.5 357.52 978.58 354.96 978.69 352.41 981.74 353.17 986.26 351.76 988.03 355.03 985.65 355.61 983.19 355.35 980.79 355.29 980.63 358.39 980.87 361.49 981.4 364.56 984.69 364.84 988.1 364.74 991.29 365.79 993.43 367.42 994.69 369.9 996.02 372.19 991.75 370.32 987.82 367.41 983.02 367.07 979.69 367.09 978.48 363.57 976.02 361.99 972.7 359.84 969.01 358.34 965.38 356.82 965.25 360.42 965.23 364.02 965.24 367.62 968.21 367.95 973.9 366.65 974.16 371 974.5 380.32 974.05 389.66 974.24 398.99 983.49 398.25 992.81 398.82 1002.05 397.81 1012.34 396.83 1022.69 397.59 1032.99 396.73 1035.64 396.73 1038.8 396.11 1040.97 398.06 1042.08 403.01 1041.74 408.25 1041.24 413.28 1036.97 414.5 1032.39 413.59 1028 413.75 1010.4 413.03 992.79 413.52 975.19 413.11 974.71 413.69 973.77 414.85 973.29 415.44 975.44 416.18 977.69 416.51 979.98 416.43 995.65 416.19 1011.33 416.5 1027 416.82 1032.63 416.9 1038.52 418.03 1043.95 416.02 1048.35 413.94 1050.46 408.74 1049.78 404.07 1049.87 400.81 1046.77 399.07 1044.28 397.77 1033.24 392.2 1022.47 386.13 1011.41 380.62 1011.36 379.91 1011.25 378.48 1011.2 377.77 1022.05 382.68 1032.24 388.92 1042.95 394.13 1046.52 395.97 1050.8 397.9 1052.15 402.04 1053.13 407.21 1052.31 413.48 1048.01 417 1042.78 420.83 1035.99 419.07 1030.01 419.29 1013 418.53 995.97 418.55 978.95 418.54 965.64 418.01 952.32 418.34 939 418.14 902.01 417.03 865 418.29 828.01 418.79 787.66 420.25 747.34 417.33 706.99 417.56 691.3 417.4 675.62 417.64 659.94 417.72 652.57 417.99 644.73 411.83 645.24 404.06 645.31 383.35 645.3 362.64 645.28 341.93M647.58 342.97C647.45 362.98 647.52 383.01 647.46 403.02 647.27 407.08 649.15 411.05 652.58 413.28 652.94 408.19 652.77 403.09 652.79 398 652.62 380.26 653.11 362.52 653.23 344.78 665.7 344.28 678.2 344.63 690.68 344.6 691.04 341.63 691.35 338.67 691.8 335.72 717.8 335.49 743.81 335.75 769.8 336.56 771.26 336.56 772.89 337.47 772.57 339.16 772.83 348.89 772.45 358.62 772.85 368.35 782.88 368.09 792.93 369.21 802.94 368.46 805.37 368.8 807.8 369.07 810.25 369.36 811.25 358.56 810.68 347.67 811.02 336.84 810.34 336.89 808.98 336.98 808.3 337.03 808.16 345.37 808.46 353.71 808.31 362.06 808.16 363.65 808.38 365.75 806.59 366.5 806.3 356.68 806.38 346.86 806.49 337.04 806.09 333.85 810.71 333.47 810.69 330.42 809.42 329.25 807.61 329.58 806.05 329.5 793.7 329.65 781.33 329.5 769 328.78 732.99 327.97 696.97 328.17 660.96 328.31 653.34 328.23 647.41 335.65 647.58 342.97M813.22 330.38C812.4 336.89 812.77 343.46 812.7 350 812.7 356.92 812.37 363.86 812.95 370.76 843.31 371.08 873.65 369.4 904.01 369.64 923.57 369.58 943.14 369.72 962.71 369.72 962.81 360.48 962.82 351.24 962.82 342.01 962.78 338.18 963.17 334.31 962.46 330.53 959.74 329.55 956.81 329.74 953.99 329.66 929.33 329.57 904.66 329.59 880 329.64 857.74 330.13 835.48 330.64 813.22 330.38M694.49 338.45C693.42 341.21 694.11 346.73 689.96 346.61 684.65 346.84 679.33 346.53 674.01 346.62 667.76 346.77 661.34 345.95 655.29 347.96 655.27 370.01 655.23 392.05 655.21 414.09 657.12 414.22 659.04 414.36 660.98 414.41 688.65 414.53 716.33 414.03 743.99 414.74 770.98 415.91 797.99 415.75 825 415.63 845.34 415.86 865.66 414.66 886 414.68 908.67 414.65 931.34 414.64 954.01 414.92 959.67 415.22 965.35 415.15 971.01 414.71 971.8 405.5 971.2 396.25 971.38 387.02 971.24 381.75 971.83 376.42 971.01 371.2 969.47 369.45 967 370.76 965.13 371.05 960.54 372.5 955.71 372.19 950.99 371.94 912.33 371.39 873.67 372.47 835.01 372.4 825.01 372.29 815 372.7 805.01 372.02 797.14 371.47 789.19 373.37 781.38 371.73 777.88 371.01 774.32 370.71 770.83 370.07 769.61 360.06 770.87 349.87 770.28 339.79 763.76 337.43 756.76 338.61 750 338.28 731.51 337.56 712.98 337.55 694.49 338.45M974.66 401.7C973.84 404.63 974.18 407.7 974.14 410.7 986.76 410.54 999.38 410.67 1012 410.69 1021.08 410.59 1030.14 411.61 1039.22 411.21 1039.34 407.37 1039.35 403.53 1039.23 399.7 1031.16 399.38 1023.07 399.7 1015 399.86 1001.57 400.91 988.08 400.89 974.66 401.7Z" fill="#0B0B13"/><path d="M248.45 333.37C249.85 331.48 251.19 328.72 253.95 328.86 264.84 328.63 275.75 328.98 286.66 328.82 286.72 329.53 286.84 330.95 286.9 331.66 275.69 333.32 264.31 331.97 253.03 332.4 251.94 339.89 252.52 347.46 252.44 354.99 252.35 372.34 252.58 389.69 252.36 407.04 252.38 409.4 252.38 411.8 252.88 414.12 262.88 415.37 273.01 413.87 283.04 414.6 284.69 414.71 286.11 415.64 287.48 416.49 275.91 416.92 264.3 416.22 252.76 417.45 240.59 417.61 228.4 417.92 216.25 417.54 210.3 415.25 208.28 407.82 208.41 401.97 207.98 397.44 211.01 393.81 213.23 390.21 225.02 371.29 236.39 352.12 248.45 333.37M238.87 353.91C230.03 368.1 221.54 382.51 212.69 396.69 210.6 399.89 211.03 403.98 211.63 407.57 212.58 411.06 214.53 415.77 218.94 415.37 229.51 415.33 240.11 415.65 250.68 415.07 250.68 392.72 250.76 370.36 250.78 348 250.7 343.74 252.07 339.27 250.21 335.22 246.02 341.19 242.8 347.77 238.87 353.91Z" fill="#0B0B13"/><path d="M290.34 329.36C297.86 328.51 305.45 328.82 313 328.75 330 328.69 347 328.75 364 328.62 367.69 328.57 371.39 328.9 375.03 329.57 368.9 331.68 362.34 330.63 356 330.79 335.95 330.9 315.9 331.5 295.85 331.3 293.81 331.38 291.89 330.64 290.34 329.36Z" fill="#0B0B13"/><path d="M516.13 328.95C549.09 328.17 582.09 328.67 615.07 328.55 620.39 327.96 624.42 332.38 626.4 336.83 626.33 360.62 626.4 384.42 626.36 408.22 624.64 412.17 622.1 417.32 617.04 417.12 604.71 416.52 592.35 416.54 580 416.58 521.33 416.85 462.66 416.8 403.99 416.63 379.33 416.97 354.65 416.29 330 417.16 316.99 417.36 303.99 416.96 290.99 416.59 291.11 416.12 291.34 415.19 291.46 414.73 347.97 414.6 404.49 414.47 461 414.71 512.64 414.58 564.29 414.56 615.93 414.61 616.87 404.77 616.23 394.87 616.38 385.01 616.16 367.13 616.88 349.23 616.04 331.37 582.89 329.97 549.72 331.74 516.57 330.98 516.46 330.48 516.24 329.46 516.13 328.95M618.35 337.95C618.56 363.23 618.22 388.53 618.48 413.8 618.88 413.91 619.68 414.15 620.07 414.26 622.02 412.42 622.75 409.77 623.43 407.26 624.4 404.62 624.31 401.76 624.37 399 624.31 380.33 624.35 361.65 624.4 342.98 624.55 338.57 623.49 333.43 619.11 331.35 618.63 333.52 618.33 335.73 618.35 337.95Z" fill="#0B0B13"/><path d="M1007.48 354.48C1008.09 354.08 1009.31 353.29 1009.93 352.9 1010.57 353.66 1011.81 355.57 1010.18 356.02 1009.06 355.9 1008.16 355.38 1007.48 354.48Z" fill="#0B0B13"/><path d="M992.25 362.2C992.81 362.28 993.94 362.42 994.5 362.5 994.93 363.33 995.37 364.18 995.81 365.02 995.01 365.23 994.22 365.44 993.44 365.65 993.04 364.49 992.64 363.35 992.25 362.2Z" fill="#0B0B13"/><path d="M1006.4 373.36C1007.74 372.09 1009.98 374.38 1008.7 375.72 1007.32 377 1005.13 374.69 1006.4 373.36Z" fill="#0B0B13"/><path d="M167.99 438.74C207.75 439.31 247.5 438.26 287.26 438.24 287.98 438.24 289.42 438.24 290.14 438.24 308.09 438.08 326.05 438.46 344 438.2 371 437.64 398 437.88 425 437.84 477.67 437.93 530.34 437.96 583.01 437.67 614.01 437.89 645.01 437.74 676.01 437.68 698.67 437.78 721.35 437.22 744 438.32 774.73 438.84 805.5 440.24 836.22 438.55 845.82 438.32 855.41 438.32 865 437.82 883.66 437.61 902.33 437.61 920.99 437.7 934.34 437.43 947.66 438.41 961 438.23 978.67 438.34 996.33 438.38 1014 438.67 1025.34 438.64 1036.65 439.52 1047.99 439.36 1064.01 439.27 1079.98 440.66 1096 440.61L1096 442.84C1085.99 442.62 1075.99 442.39 1066 441.85 1047.4 441.31 1028.78 441.42 1010.19 440.67 961.8 439.87 913.4 439.27 865 439.71 820.8 441.03 776.55 441.16 732.36 439.46 723.63 438.09 714.79 438.73 706 438.65 664 438.64 622 438.58 580 438.63 570.89 438.71 561.76 438.28 552.68 439.19 480.45 439.68 408.23 438.66 336.01 439.63 311 439.75 286 439.4 261 439.78 230.67 440.48 200.33 440.38 170 440.32 165.2 440.33 160.39 440.17 155.62 439.58 159.7 438.88 163.85 438.63 167.99 438.75Z" fill="#0B0B13"/><path d="M679.04 462.32C688.35 461.45 697.67 462.9 707 462.49 721.02 461.96 735 464.16 749.01 463.18 752.38 462.92 755.78 462.73 759.16 463.05 767.75 463.84 776.38 463.46 784.99 463.5 806.34 463.53 827.69 463.57 849.03 463.36 863.65 462 878.34 462.7 893 462.52 909.99 462.54 926.99 462.43 943.98 462.65 956.62 463.85 969.32 463.28 982 463.42 993.34 463.71 1004.67 462.94 1016.01 463.5 1028.34 463.78 1040.73 462.9 1053.02 464.25 1057.33 464.6 1061.65 464.86 1065.98 465.16 1075.98 465.82 1086.14 464.63 1096 466.94L1096 520 1095 520C1094.4 502.62 1094.78 485.22 1094.68 467.84 1087.14 467.24 1079.57 467.6 1072.03 467.18 1058.37 466.09 1044.65 467 1031 465.8 1011.67 465.37 992.31 465.96 973.01 464.74 934.01 464.64 895.01 464.21 856.02 464.6 849.12 464.73 842.2 464.38 835.33 465.17 835.5 479.34 834.28 493.5 834.93 507.68 903.94 506.87 972.97 507.63 1041.97 508.81 1050.91 509.71 1059.98 508.67 1068.84 510.29 1068.84 513.1 1068.93 515.91 1068.9 518.73 1068.46 518.8 1067.59 518.93 1067.15 519 1066.64 516.8 1066.13 514.62 1065.62 512.43 1057.48 511.02 1049.2 511.5 1041 510.96 1026.68 510.2 1012.33 510.5 998 509.85 984.34 509.5 970.67 510.04 957.01 509.48 920.34 509.48 883.67 508.15 847 509.09 839.33 508.6 831.68 509.03 824.04 509.56 802.03 509.68 780.01 509.74 758 509.62 749.3 509.57 740.58 509.83 731.89 509.14 721.95 508.29 711.97 508.69 702 508.59 674.66 508.45 647.31 508.67 619.97 508.59 616.77 508.73 613.26 508.64 610.51 510.52 609.69 513.31 609.81 516.25 609.77 519.13 609.34 519.11 608.5 519.07 608.07 519.05 608.19 514.96 608.22 510.86 608.27 506.77 644.85 506.84 681.43 506.22 718 506.78 732.98 507.84 748.02 507.29 763 508.24 777.67 508.37 792.34 508.42 807 508.2 815.58 507.59 824.18 507.67 832.78 507.7 832.74 493.68 832.8 479.66 832.82 465.63 824.22 465.07 815.6 465.63 807 465.55 790.49 465.52 773.97 465.68 757.47 465.28 747.76 464.42 738.02 464.65 728.29 464.45 725.2 464.21 722.12 463.78 719.03 463.68 672.6 463.14 626.16 464.39 579.74 463.51 588.8 462.7 597.9 463.43 606.98 463.21 620.64 462.95 634.31 463.62 647.95 462.94 658.3 462.08 668.68 462.84 679.04 462.32Z" fill="#0B0B13"/><path d="M407 463.12C425.64 461.91 444.33 462.75 463 462.49 474.99 462.22 486.96 463.07 498.95 462.88 507.08 463.7 515.28 462.35 523.37 463.53 506.58 464.19 489.77 463.49 472.97 463.66 404.31 463.61 335.66 463.77 267 463.94 259.96 463.86 252.89 464.28 245.88 463.51 299.58 463.06 353.29 463.21 407 463.12Z" fill="#0B0B13"/><path d="M238.59 463.12C239.81 463.13 241.04 463.13 242.27 463.13 242.32 473.48 242.29 483.84 242.08 494.19 250.7 494.67 259.34 494.28 267.96 494.22 315.66 493.65 363.36 494.03 411.06 493.71 413.13 493.96 416.67 493.37 417.11 496.2 418 503.8 417.3 511.51 417.24 519.16 416.74 519.18 415.73 519.23 415.22 519.26 415.51 511.34 416.05 503.36 414.72 495.5 373.15 495.25 331.58 495.42 290 495.46 281.34 495.5 272.66 495.24 264.01 495.88 256.93 496.57 249.73 495.99 242.78 497.76 242.46 504.92 242.37 512.1 242.86 519.25 242.22 519.22 240.94 519.16 240.3 519.13 240.42 507.08 240.3 495.04 240.38 483 240.37 477.01 241.08 470.85 239.19 465.06 239.04 464.58 238.74 463.6 238.59 463.12Z" fill="#0B0B13"/><path d="M564.54 465.77C566.26 472.77 564.52 479.91 564.71 486.99 564.8 494 564.76 501.01 564.67 508.02 564.57 511.89 565.39 515.7 566.66 519.34 565.98 519.25 564.61 519.08 563.93 518.99 564.31 501.25 563.83 483.5 564.54 465.77Z" fill="#0B0B13"/><path d="M525.17 478.59C525.53 478.61 526.24 478.65 526.59 478.67 525.2 485.05 526.57 491.54 526.02 497.97 525.55 504.95 525.84 512.02 527.44 518.85 526.49 518.85 525.55 518.86 524.62 518.88 525.01 515.93 525.36 512.97 525.36 509.99 525.25 499.52 525.51 489.05 525.17 478.59Z" fill="#0B0B13"/><path d="M426.72 489.22C447.15 489.6 467.59 489.59 488.02 489.47 490.63 489.53 494.52 488.54 495.26 492.07 495.79 501.05 495.37 510.1 495.37 519.1 494.65 519.1 493.2 519.08 492.48 519.07 493.79 512.1 493.54 504.98 493.47 497.93 493.28 495.55 493.54 492.02 490.56 491.35 485 489.94 479.66 493.99 474.04 492.95 469.38 492.16 464.75 490.91 459.98 491.13 455.24 490.98 450.64 492.2 445.98 492.84 440.74 493.66 435.74 490.46 430.54 491.53 428.59 492.05 428.56 494.36 428.43 495.99 428.18 503.62 428.25 511.26 428.73 518.88 428.2 518.93 427.13 519.05 426.6 519.1 426.46 509.15 426.22 499.17 426.72 489.22Z" fill="#0B0B13"/><path d="M455.94 499.34C459.34 499.32 462.75 499.3 466.16 499.22 465.86 503.86 465.63 508.5 465.47 513.14 463.8 512.21 462.14 511.28 460.46 510.39 459.58 511.43 458.69 512.48 457.81 513.52 457.29 513.17 456.25 512.48 455.74 512.13 455.81 507.86 455.83 503.6 455.94 499.34M458.34 501.07C453.68 503.96 461.13 511.75 463.74 506.65 466.39 503.15 461.78 498.73 458.34 501.07Z" fill="#0B0B13"/><path d="M113.52 520C113.75 515.89 114.49 511.64 117.11 508.33 117.07 512.32 116.62 516.42 114.72 520L113.52 520Z" fill="#0B0B13"/></g><g id="d"><path d="M531.41 76.05C531.88 76.07 532.8 76.11 533.27 76.14 534.71 76.55 536.14 77.04 537.57 77.51 537.54 86.12 537.58 94.74 537.37 103.35 530.03 105.09 522.47 104.33 515.01 104.41 496 104.44 476.98 104.39 457.97 104.52 456.03 104.48 454.06 104.47 452.16 104.03 450.66 103.3 450.75 101.43 450.56 100.04 450.18 92.94 450.5 85.83 450.75 78.74 460.4 77.01 470.25 77.6 480 77.36 488.34 77.46 496.66 76.48 505 76.97 513.8 77.29 522.74 78.06 531.41 76.05Z" fill="#FE3035"/><path d="M426 77.82C427.21 77.48 428.42 77.11 429.63 76.72 429.62 77.28 429.59 78.4 429.58 78.96 429.65 89.64 429.79 100.32 429.59 111 429.6 114.41 429.39 117.96 430.64 121.21 437.05 122.37 443.6 121.21 450.06 121.71 451.68 121.78 453.14 122.56 454.53 123.35 445.91 124.08 437.34 122.43 428.73 122.73 426.75 114.97 427.75 106.91 427.58 99 427.45 92.53 428.35 85.89 426.49 79.58 426.37 79.14 426.12 78.26 426 77.82Z" fill="#FE3035"/><path d="M599.57 121.5C604.98 121.97 610.17 119.41 615.56 119.81 620.19 121.32 624.04 124.48 628.27 126.8 648.55 139.62 669.33 151.63 689.67 164.34 706.79 174.43 723.01 185.95 740.28 195.78 751.5 202.91 763.37 209.09 774.02 217.06 773.53 217.06 772.53 217.06 772.03 217.04 723.24 187.99 675 157.99 626.4 128.61 623.27 126.74 620.28 124.61 616.97 123.07 612.61 121.04 607.7 122.19 603.11 122.48 603.09 123.6 603.09 124.73 603.1 125.85 603.96 128.11 605.52 130.03 607.52 131.38 623.67 142.56 639.85 153.69 655.89 165.05 666.5 172.06 676.59 179.85 687.48 186.44 694.22 190.33 697.03 199.81 693.76 206.78 689.96 213.23 681.63 213.46 675 213.32 661.35 213.78 647.78 211.68 634.13 212.44 632.09 211.55 629.84 211.65 627.9 212.72 619.71 212.72 611.33 212.45 603.38 214.78 602.67 217.02 602.67 219.38 602.69 221.71 616.05 222.11 629.42 222 642.79 222.47 652.65 223.83 662.59 221.96 672.45 223.36 671.95 224.73 671.46 226.11 670.98 227.48L670.23 227.45C669.56 226.46 668.91 225.46 668.28 224.46 614.86 224.37 561.42 224.59 507.99 224.48 493.78 224.72 479.55 223.98 465.35 224.84 464.91 231.55 464.83 238.28 465.11 245 465.28 270.28 464.25 295.58 465.03 320.86 484.67 321.59 504.34 321.07 524 321.21 550.34 321.39 576.67 320.28 603.01 321.16 617.34 321.2 631.67 321.3 646 321.18 653.84 321.06 661.72 321.76 669.52 320.63 668.51 319.41 667.88 317.63 666.22 317.17 661.98 315.66 657.43 315.63 652.99 315.67 600.66 315.82 548.33 315.41 496 315.91 488.16 316.35 480.31 316.23 472.5 315.44 472.05 306.63 472.33 297.81 472.33 289 472.44 269.63 472.3 250.27 472.28 230.9 475.13 230.26 478.01 229.68 480.95 229.62 534.64 229.88 588.32 229.69 642.01 229.63 659.3 229.81 676.6 228.86 693.87 229.99 700.63 230.77 707.48 231.14 714.25 230.19 721.05 229.28 727.94 229.34 734.75 230.09 744.46 231.14 754.24 230.44 763.98 230.67 773.54 230.62 783.1 231.9 792.64 230.87 792.79 230.14 793.09 228.7 793.24 227.97 797.13 228.28 800.83 229.71 804.2 231.65 811.29 235.72 818.75 239.08 825.8 243.22 824.59 252.42 825.69 261.75 825.45 271 825.91 277.12 823.34 283.13 824.71 289.21 825.67 294.42 826.28 300.39 822.9 304.91 817.44 312.35 807.99 315.8 799.04 316.28 789.68 316.61 780.33 315.9 770.98 315.79 740.65 315.31 710.3 315.74 679.96 315.49 677.11 315.44 674.04 315.59 671.83 317.64 671.5 318.74 671.18 319.85 670.86 320.97 680.24 321.59 689.62 320.66 699 321.09 725.23 320.31 751.46 321.42 777.69 321.58 797.78 322.48 817.9 322.53 838 322.29 853.32 321.69 868.66 321.39 884 321.27 888.47 321.13 893.11 321.82 897.46 320.48 899.34 318.94 900.47 316.73 901.72 314.69 905.02 308.78 908.82 303.13 911.63 296.96 912.62 297.55 913.63 298.14 914.64 298.73 908.89 305.63 905.66 314.16 900.44 321.4 898.82 323.89 895.54 323.21 893.02 323.43 872.34 323.04 851.68 324.59 831 324.35 817.67 324.3 804.33 324.43 791 324.21 767.68 323.19 744.33 323.52 721 323.42 662.33 323.52 603.67 323.44 545 323.51 535.03 323.81 525 322.87 515.07 324.11 515.39 325.72 515.78 327.33 516.13 328.95 516.24 329.46 516.46 330.48 516.57 330.98 549.72 331.74 582.89 329.97 616.04 331.37 616.88 349.23 616.16 367.13 616.38 385.01 616.23 394.87 616.87 404.77 615.93 414.61 564.29 414.56 512.64 414.58 461 414.71 404.49 414.47 347.97 414.6 291.46 414.73 291.34 415.19 291.11 416.12 290.99 416.59L290.83 417.29C288.84 424.11 290.01 431.26 290.14 438.23 289.42 438.23 287.98 438.23 287.26 438.23 288.52 431.05 288.72 423.67 287.48 416.48 286.11 415.63 284.69 414.7 283.04 414.59 273.01 413.86 262.88 415.36 252.88 414.11 252.38 411.79 252.38 409.39 252.36 407.03 252.58 389.68 252.36 372.33 252.44 354.98 252.52 347.45 251.94 339.88 253.03 332.39 264.31 331.96 275.69 333.31 286.9 331.65 286.84 330.94 286.72 329.52 286.66 328.81L287.57 328.75C287.81 328.6 288.29 328.28 288.53 328.12 288.56 326.63 288.53 325.13 288.52 323.64 276.06 322.28 263.5 322.81 250.99 322.78 242.84 322.74 234.59 324.18 226.52 322.46 230.98 321.73 235.51 321.57 240.01 321.86 257.21 322.79 274.43 321.98 291.62 321.67 291.19 324 290.74 326.32 290.43 328.67L290.34 329.35C291.89 330.63 293.81 331.37 295.85 331.29 315.9 331.49 335.95 330.89 356 330.78 362.34 330.62 368.9 331.67 375.03 329.56 375.81 327.53 376.15 325.37 376.43 323.23 368.98 322.34 361.47 322.6 354 322.6 341 322.49 328 322.81 315.01 322.81 307.58 323.21 300.14 323.17 292.72 322.56 300.77 321.32 308.91 321.88 317 322.08 324.75 321.84 332.51 322.22 340.23 321.56 356.15 320.88 372.08 321.63 388 320.89 412.63 320.71 437.27 320.97 461.91 320.68 462.79 303.47 462.21 286.22 462.41 268.99 462.26 254.25 462.66 239.5 462.17 224.77 442.79 224.14 423.39 224.69 404 224.51 368.33 224.56 332.67 224.55 297 224.62 291.67 224.52 286.27 224.35 281.04 225.61 282.14 223.7 283.35 221.87 284.55 220.03 284.65 220.63 284.86 221.84 284.96 222.44 329.63 222.1 374.32 222.47 419 221.92 433.08 222.35 447.18 222.21 461.27 222.17 461.61 222 462.27 221.66 462.6 221.48 463.05 193.99 462.37 166.48 463.11 138.99 463.14 133.88 463.92 128.65 462.69 123.63 460.88 122.29 458.73 121.55 456.72 120.61 459.75 120.57 462.88 120.68 465.6 122.2 464.91 140.12 465.45 158.07 465.21 176 465.26 191.32 465.12 206.65 465.21 221.97 475.13 222.48 485.06 222.14 494.99 222.18 526.99 222.11 559 222.37 591 222.22 594.3 222.16 597.58 221.85 600.86 221.52 600.6 219.44 600.37 217.35 599.88 215.31 599.62 214.82 599.09 213.82 598.82 213.32 569.88 213.4 540.94 213.28 512 213.24 500.16 213.02 488.28 213.9 476.47 212.69 475.82 182.11 476.65 151.52 476.3 120.94 486.85 120.22 497.44 120.94 508 120.76 526.33 120.73 544.66 120.53 563 120.67 575.19 120.97 587.44 119.86 599.57 121.49M296.9 223.54C316.59 223.91 336.3 223.62 355.99 223.7 391.03 223.6 426.08 223.88 461.12 223.54 448.76 222.87 436.36 223.51 423.98 223.13 391.99 223.37 360 223.17 328.01 223.2 317.64 223.24 307.25 222.94 296.9 223.54M377.41 323.93C377.18 332.64 377.12 341.36 377.28 350.07 385.17 350.74 393.09 350.24 401 350.4 433 350.4 465 350.41 497 350.39 502.54 350.41 508.1 350.6 513.62 349.92 513.64 341.26 513.69 332.6 513.63 323.93 503.78 322.98 493.87 323.78 484 323.53 455.66 323.53 427.33 323.49 399 323.53 391.8 323.6 384.58 323.15 377.41 323.92Z" fill="#FE3035"/><path d="M363.26 141.08C365.1 140.5 367.06 140.58 368.98 140.52 392 140.64 415.03 140.49 438.05 140.56 440.27 140.53 444 141 443.58 144.06 443.62 162.06 443.44 180.06 443.63 198.05 443.61 199.8 443.58 201.57 443.27 203.3 440.98 204.26 438.45 204.31 436.01 204.37 415.67 204.24 395.33 204.4 375 204.39 370.74 204.32 366.42 204.78 362.22 203.97 360.27 203.1 360.75 200.75 360.55 199.05 360.52 182.02 360.68 164.99 360.57 147.97 360.73 145.57 360.41 142.03 363.26 141.08Z" fill="#FE3035"/><path d="M779.79 220.74C781.64 221.83 783.49 222.93 785.33 224.05 783.44 224.16 781.56 224.25 779.68 224.34 779.71 223.44 779.76 221.64 779.79 220.74Z" fill="#FE3035"/><path d="M874.94 270.72C880.38 272.2 885.33 274.88 890.07 277.87 901.25 283.97 912.07 290.7 923.26 296.81 936.12 304.74 949.7 311.53 962.09 320.22 958.46 318.91 954.85 317.52 951.52 315.59 944.83 311.77 937.51 309.21 930.9 305.24 923.91 299.52 915.58 295.9 908.06 291 904.57 288.71 900.79 286.92 896.89 285.44 889.33 280.94 881.18 277.06 874.94 270.72Z" fill="#FE3035"/><path d="M813.64 316.11C817.15 313.38 820.83 310.88 824.52 308.38 825.08 310.92 825.87 313.99 823.82 316.12 820.45 316.77 817.01 316.38 813.64 316.11Z" fill="#FE3035"/><path d="M694.49 338.45C712.98 337.55 731.51 337.56 750 338.28 756.76 338.61 763.76 337.43 770.28 339.79 770.87 349.87 769.61 360.06 770.83 370.07 774.32 370.71 777.88 371.01 781.38 371.73 789.19 373.37 797.14 371.47 805.01 372.02 815 372.7 825.01 372.29 835.01 372.4 873.67 372.47 912.33 371.39 950.99 371.94 955.71 372.19 960.54 372.5 965.13 371.05 967 370.76 969.47 369.45 971.01 371.2 971.83 376.42 971.24 381.75 971.38 387.02 971.2 396.25 971.8 405.5 971.01 414.71 965.35 415.15 959.67 415.22 954.01 414.92 931.34 414.64 908.67 414.65 886 414.68 865.66 414.66 845.34 415.86 825 415.63 797.99 415.75 770.98 415.91 743.99 414.74 716.33 414.03 688.65 414.53 660.98 414.41 659.04 414.36 657.12 414.22 655.21 414.09 655.23 392.05 655.27 370.01 655.29 347.96 661.34 345.95 667.76 346.77 674.01 346.62 679.33 346.53 684.65 346.84 689.96 346.61 694.11 346.73 693.42 341.21 694.49 338.45Z" fill="#FE3035"/><path d="M552.68 439.18C561.76 438.27 570.89 438.7 580 438.62 622 438.57 664 438.63 706 438.64 714.79 438.72 723.63 438.08 732.36 439.45 712.91 439.93 693.46 439.41 674.01 439.62 648.34 439.67 622.66 440.26 596.99 439.67 582.22 439.32 567.43 440.14 552.68 439.18Z" fill="#FE3035"/><path d="M505.98 476.19C512.81 475.79 519.9 477.09 526.45 474.6 526.5 475.96 526.54 477.31 526.59 478.67 526.24 478.65 525.53 478.61 525.17 478.59 519.46 478.17 513.73 477.93 508.01 478.17 463 478.51 418 477.73 373 478.22 333.99 478.17 294.99 478.28 255.98 478.41 252.11 478.49 248.22 478.49 244.39 477.86 249.02 475.89 254.13 476.87 259 476.64 285.33 476.42 311.67 476.94 338 476.22 367.34 476.23 396.67 476.11 426.01 475.9 452.66 476.29 479.32 476.24 505.98 476.19Z" fill="#FE3035"/><path d="M458.34 501.07C461.78 498.73 466.39 503.15 463.74 506.65 461.13 511.75 453.68 503.96 458.34 501.07Z" fill="#FE3035"/><path d="M610.51 510.52C613.26 508.64 616.77 508.73 619.97 508.59 647.31 508.67 674.66 508.45 702 508.59 711.97 508.69 721.95 508.29 731.89 509.14 740.58 509.83 749.3 509.57 758 509.62 780.01 509.74 802.03 509.68 824.04 509.56 831.68 509.03 839.33 508.6 847 509.09 883.67 508.15 920.34 509.49 957.01 509.48 970.67 510.04 984.34 509.5 998 509.85 1012.33 510.5 1026.68 510.2 1041 510.96 1049.2 511.5 1057.48 511.02 1065.62 512.43 1066.13 514.62 1066.64 516.8 1067.15 519 1057.13 519.88 1047.04 519.15 1037 519.37 907 519.38 777 519.37 647 519.34 634.59 519.22 622.17 519.6 609.77 519.13 609.81 516.25 609.69 513.31 610.51 510.52Z" fill="#FE3035"/></g><g id="e"><path d="M429.58 78.96 430.59 78.66C430.94 92.53 430.31 106.4 430.87 120.26 439.58 120.01 448.27 119.05 457 119.39 485.7 119.31 514.41 119.66 543.1 119.22 543.25 114.72 543.68 110.24 544.23 105.78 544.22 110.01 544.05 114.35 545.35 118.42 546.44 106.76 544.96 95.02 545.83 83.33 547.49 95.52 546.44 107.88 546.46 120.14 559.64 120.58 572.82 120.07 586.01 120.1 594.26 119.83 602.57 120.69 610.77 119.38 606.66 116.27 602.14 113.8 597.65 111.32 582.91 102.84 567.75 94.96 554.04 84.84 570.6 90.09 587.39 94.59 603.93 99.92 610.89 102.27 617.98 104.18 625.15 105.76 623.85 106.06 622.56 106.39 621.28 106.73 648.48 121.22 674.94 137.03 701.71 152.28 720.53 163.58 739.89 173.94 758.72 185.21 774.77 194.45 790.71 203.88 806.69 213.25 812.87 217.18 819.23 220.82 825.62 224.39 859.57 244.7 894.37 263.56 928.58 283.44 943.54 292.53 958.75 301.2 973.77 310.18 994.21 321.61 1014.13 333.93 1034.56 345.37 1055.33 357.18 1075.76 369.58 1096 382.27L1096 397.95C1086.25 392.53 1076.88 386.46 1067.1 381.09 1059.15 376.82 1051.77 371.59 1043.82 367.33 1038.22 364.36 1033.44 360.04 1027.59 357.52 1022.77 355.39 1018.68 352.03 1014.1 349.49 1013.12 346.7 1012.14 343.74 1009.85 341.73 1008.09 342.3 1006.7 343.55 1005.29 344.68 990.95 336.42 976.72 327.96 962.09 320.22 949.7 311.53 936.12 304.74 923.26 296.81 912.07 290.7 901.25 283.97 890.07 277.87 885.33 274.88 880.38 272.2 874.94 270.72 858.5 261.67 842.61 251.62 825.8 243.22 818.75 239.08 811.29 235.72 804.2 231.65 800.83 229.71 797.13 228.28 793.24 227.97 792.01 227.86 790.79 227.76 789.58 227.67 781.98 223.52 773.09 225.2 764.82 224.32 769 224.51 773.35 224.7 777.25 222.9 777.63 222.77 778.39 222.51 778.77 222.38 776.58 220.52 774.38 218.68 772.03 217.04 772.53 217.05 773.53 217.06 774.02 217.06 763.37 209.09 751.5 202.91 740.28 195.78 723.01 185.95 706.79 174.43 689.67 164.34 669.33 151.63 648.55 139.62 628.27 126.8 624.04 124.48 620.19 121.32 615.56 119.81 610.17 119.41 604.98 121.97 599.57 121.5 587.44 119.87 575.19 120.98 563 120.68 544.66 120.54 526.33 120.74 508 120.77 497.44 120.94 486.85 120.23 476.3 120.95 475.52 121.43 474.75 121.92 474 122.43 471.2 122.52 468.39 122.48 465.6 122.21 462.88 120.69 459.75 120.58 456.72 120.62 458.73 121.56 460.88 122.3 462.69 123.64 463.92 128.66 463.14 133.89 463.11 139 462.37 166.49 463.05 194 462.6 221.49 462.27 221.67 461.61 222.01 461.27 222.18 462.72 214.87 462.3 207.4 462.31 200 462.37 179.33 462.3 158.67 462.37 138 462.32 133.4 462.88 128.72 461.92 124.19 460.7 121.76 457.58 123.04 455.45 122.92 455.44 123.43 455.44 124.45 455.44 124.96 455.21 124.56 454.76 123.75 454.53 123.35 453.14 122.56 451.68 121.78 450.06 121.71 443.6 121.21 437.05 122.37 430.64 121.21 429.39 117.96 429.6 114.41 429.59 111 429.79 100.32 429.65 89.64 429.58 78.96M779.79 220.74C779.76 221.64 779.71 223.44 779.68 224.34 781.56 224.25 783.44 224.16 785.33 224.05 783.49 222.93 781.64 221.83 779.79 220.74Z" fill="#A3A3B3"/><path d="M363.74 125.91C366.43 125.16 369.24 125.13 372.02 125.17 388.68 125.33 405.34 125.1 422 125.25 431.59 124.8 441.25 124.03 450.84 124.85 453.64 125.43 453.21 128.8 453.35 130.96 452.99 156.65 453.38 182.36 452.98 208.05 452.8 210.26 453.37 214.23 449.97 213.66 407.01 213.57 364.06 213.8 321.1 213.72 321.18 213.02 321.25 212.33 321.33 211.64 327.6 214.17 334.44 212.85 341 213.09 377.75 213.5 414.5 213.09 451.26 213.11 451.78 209.09 452.03 205.04 451.95 200.99 451.75 185.33 452.14 169.66 452.06 154 452.01 144.71 452.63 135.4 451.89 126.12 446.61 125.69 441.3 125.55 436 125.72 416.34 126.26 396.66 125.93 377 126.29 372.57 126.35 368.15 126.32 363.74 125.91Z" fill="#A3A3B3"/><path d="M357.75 138.76C360.82 138.39 363.9 138.15 366.99 138.17 386.66 138.2 406.33 138.26 426 138.17 432.66 138.09 439.33 137.67 445.99 138.19 446.44 140.77 446.79 143.37 446.79 145.99 446.58 161.66 446.66 177.33 446.71 193 446.65 197.2 447.15 201.44 446.47 205.6 446.02 207.62 443.6 207.17 442.07 207.4 418.04 207.35 394.01 207.31 369.99 207.42 366.07 207.35 362.03 207.93 358.21 206.81 357.21 203.3 357.63 199.61 357.6 196.01 357.72 176.93 357.52 157.85 357.75 138.77M358.78 139.71C358.4 155.14 358.7 170.58 358.59 186.01 358.59 192.78 358.35 199.56 358.69 206.32 365.45 206.76 372.22 206.45 378.99 206.48 401.08 206.48 423.18 206.58 445.28 206.36 445.75 191.58 445.31 176.79 445.45 162 445.35 154.3 445.78 146.58 445.14 138.9 439.1 138.41 433.05 138.69 427 138.66 407 138.66 386.99 138.68 366.99 138.66 364.22 138.66 361.48 139.11 358.78 139.71Z" fill="#A3A3B3"/><path d="M627.9 212.72C629.84 211.65 632.09 211.55 634.13 212.44 632.2 213.55 629.93 213.58 627.9 212.72Z" fill="#A3A3B3"/><path d="M299.04 245.95C299.47 245.2 299.91 244.46 300.36 243.72 305.57 246.24 311.44 245.19 317.01 245.27 330.67 245.32 344.33 245.16 358 244.89 384.68 244.81 411.36 244.98 438.04 244.73 440.77 244.77 443.5 245.05 446.16 245.68 410.11 245.59 374.06 245.64 338 245.69 325.01 245.76 312.02 245.5 299.04 245.95Z" fill="#A3A3B3"/><path d="M447.53 246.62C449.4 250.84 448.81 255.54 448.75 260.02 448.42 274.56 448.95 289.11 448.49 303.64 437.02 304.55 425.5 304.02 414.01 304.3 378 304.38 341.99 304.18 305.98 304.44 303.14 304.41 300.33 304.07 297.54 303.65 347.43 303.16 397.34 303.67 447.23 303.3 447.7 284.42 447.25 265.51 447.53 246.62Z" fill="#A3A3B3"/><path d="M444.8 247.61C445.66 249.96 445.87 252.47 445.79 254.97 445.47 270.48 445.9 286 445.5 301.51 417.33 301.72 389.16 301.55 361 301.61 350.89 301.56 340.77 301.79 330.67 301.46 368.49 300.84 406.33 301.46 444.16 301.06 444.73 283.25 444.05 265.42 444.8 247.61Z" fill="#A3A3B3"/><path d="M618.35 337.95C618.33 335.73 618.63 333.52 619.11 331.35 620.02 340.54 619.51 349.78 619.63 358.99 619.87 376.46 619.17 393.95 620 411.41 621.16 410.04 622.34 408.69 623.43 407.26 622.75 409.77 622.02 412.42 620.07 414.26 619.68 414.15 618.88 413.91 618.48 413.8 618.22 388.53 618.56 363.23 618.35 337.95Z" fill="#A3A3B3"/><path d="M626.4 336.83C628.36 341.29 627.6 346.28 627.64 351 627.58 365 627.61 379 627.64 393 627.59 398.08 628.42 403.41 626.36 408.22 626.41 384.42 626.33 360.62 626.4 336.83Z" fill="#A3A3B3"/><path d="M808.3 337.03C808.98 336.98 810.34 336.89 811.02 336.84 810.68 347.67 811.25 358.56 810.25 369.36 807.8 369.07 805.37 368.8 802.94 368.46 804.17 367.86 805.39 367.2 806.59 366.5 808.38 365.75 808.16 363.65 808.31 362.06 808.46 353.71 808.16 345.37 808.3 337.03Z" fill="#A3A3B3"/><path d="M1002.11 345.82C1004.64 347.2 1007.27 348.41 1009.89 349.62 1009.53 349.73 1008.8 349.96 1008.43 350.08 1008.89 351.03 1009.38 351.97 1009.93 352.9 1009.31 353.29 1008.09 354.08 1007.48 354.48 1004.68 352.31 1002.89 349.24 1002.11 345.82Z" fill="#A3A3B3"/><path d="M991.08 355.45C992.16 354.01 992.67 351.53 994.89 351.69 997.21 353.73 998.35 356.67 999.33 359.53 996.61 358.1 993.9 356.66 991.08 355.45Z" fill="#A3A3B3"/><path d="M1008.2 363.24C1013.42 363.41 1015.82 368.37 1018.85 371.84 1016.68 372.72 1014.51 373.58 1012.34 374.41 1010.92 371.84 1009.09 369.55 1006.79 367.74 1007.24 366.23 1007.72 364.74 1008.2 363.24Z" fill="#A3A3B3"/><path d="M153.78 433.49C155.35 425.91 159.93 419.52 163.89 413.03 164.31 414.16 164.73 415.3 165.15 416.44 161.86 422.42 158.81 428.73 153.78 433.49Z" fill="#A3A3B3"/><path d="M252.76 417.45C264.3 416.22 275.91 416.92 287.48 416.49 288.72 423.68 288.52 431.06 287.26 438.24 247.5 438.26 207.75 439.31 167.99 438.74 163.85 438.62 159.7 438.87 155.62 439.57 160.39 440.16 165.2 440.32 170 440.31 200.33 440.37 230.67 440.47 261 439.77 286 439.39 311 439.74 336.01 439.62 408.23 438.65 480.45 439.67 552.68 439.18 567.43 440.14 582.22 439.32 596.99 439.67 622.66 440.26 648.34 439.67 674.01 439.62 693.46 439.41 712.91 439.93 732.36 439.45 776.55 441.15 820.8 441.02 865 439.7 913.4 439.26 961.8 439.86 1010.19 440.66 954.13 440.74 898.06 440.48 841.99 440.69 835.32 440.97 828.68 441.8 821.99 441.67 803.33 441.53 784.66 441.89 766.01 441.47 753.37 440.22 740.67 440.78 727.99 440.6 542 440.6 356 440.59 170 440.67 162.99 440.85 155.97 440.53 149.02 439.62 149.72 438.41 150.47 437.24 151.22 436.07 151.83 437.1 152.43 438.12 153.04 439.16 153.86 437.76 154.67 436.36 155.55 435.01 155.92 435.56 156.67 436.67 157.05 437.23 165.03 437.64 173.01 437.36 181 437.4 209.66 437.4 238.33 437.4 267 437.33 273.63 437.39 280.28 437.53 286.9 436.9 287.63 430.57 287.6 424.19 287.13 417.84 275.68 417.24 264.21 417.96 252.76 417.45Z" fill="#A3A3B3"/><path d="M290.14 438.23C290.01 431.26 288.84 424.11 290.83 417.29 290.38 423.88 290.58 430.51 290.9 437.11 299.93 437.57 308.96 437.27 318 437.34 427 437.3 536 437.33 645 437.38 670 437.46 695 436.95 720 437.34 733.04 437.59 746.12 436.75 759.13 437.97 768.07 438.73 777.05 438.16 786.01 438.32 802.75 438.48 819.49 438.08 836.22 438.54 805.5 440.23 774.73 438.83 744 438.31 721.35 437.21 698.67 437.77 676.01 437.67 645.01 437.73 614.01 437.88 583.01 437.66 530.34 437.95 477.67 437.92 425 437.83 398 437.87 371 437.63 344 438.19 326.05 438.45 308.09 438.07 290.14 438.23Z" fill="#A3A3B3"/><path d="M135.94 464.81C139.62 458.98 142.69 452.8 145.51 446.52 148.97 449 153.3 447.62 157.21 447.6 182.47 447.18 207.74 447.52 233 447.18 253 447.23 272.99 446.48 293 446.79 345.99 446.86 398.99 446.54 451.99 446.71 506.33 446.9 560.66 446.58 615 446.77 668.33 446.8 721.67 445.98 774.99 447.72 798.33 448.76 821.67 447.43 845.01 447.6 855.73 447.37 866.48 447.97 877.19 447.06 886.44 446.27 895.73 446.8 905 446.66 940.32 446.93 975.65 447.04 1010.98 447.62 1027.48 448.72 1044.02 448.1 1060.55 448.52 1072.35 449.3 1084.18 449.49 1096 450.05L1096 466.94C1086.14 464.63 1075.98 465.82 1065.98 465.16 1061.65 464.86 1057.33 464.6 1053.02 464.25 1040.73 462.9 1028.34 463.78 1016.01 463.5 1004.67 462.94 993.34 463.71 982 463.42 969.32 463.28 956.62 463.85 943.98 462.65 926.99 462.43 909.99 462.54 893 462.52 878.34 462.7 863.65 462 849.03 463.36 827.69 463.57 806.34 463.53 784.99 463.5 776.38 463.46 767.75 463.84 759.16 463.05 755.78 462.73 752.38 462.92 749.01 463.18 735 464.16 721.02 461.96 707 462.49 697.67 462.9 688.35 461.45 679.04 462.32 668.68 462.84 658.3 462.08 647.95 462.94 634.31 463.62 620.64 462.95 606.98 463.21 597.9 463.43 588.8 462.7 579.74 463.51 626.16 464.39 672.6 463.14 719.03 463.68 722.12 463.78 725.2 464.21 728.29 464.45 704.2 465 680.09 464.49 656 464.71 630.86 464.91 605.7 464.51 580.57 464.96 581.78 474.26 581.28 483.65 581.34 493 581.3 501.73 581.55 510.47 581.17 519.19 576.34 519.4 571.49 519.61 566.66 519.34 565.39 515.7 564.57 511.89 564.67 508.02 564.76 501.01 564.8 494 564.71 486.99 564.52 479.91 566.26 472.77 564.54 465.77 563.83 483.5 564.31 501.25 563.93 518.99L563.06 518.82C562.59 500.97 563.29 483.1 562.83 465.24 555.74 464.82 548.64 464.84 541.56 465.34 541.55 476.23 541.87 487.12 541.85 498.01 541.81 505.34 542.66 512.72 541.49 520L523.25 520C523.68 506.58 522.8 493.12 524.17 479.74 519.22 478.43 514.08 478.42 509 478.61 454.67 478.86 400.33 478.23 346 479.14 311.73 479.02 277.45 479.31 243.18 479.46 242.68 483.99 242.65 488.55 242.98 493.09 263.98 493.97 284.99 492.47 305.99 492.67 337.33 492.67 368.66 492.69 400 492.65 405.24 492.73 410.58 492.09 415.76 493.21 418.86 493.8 419.17 497.37 419.18 499.93 419.18 506.27 419.06 512.62 418.96 518.96 418.53 519.01 417.67 519.11 417.24 519.16 417.3 511.51 418 503.8 417.11 496.2 416.67 493.37 413.13 493.96 411.06 493.71 363.36 494.03 315.66 493.65 267.96 494.22 259.34 494.28 250.7 494.67 242.08 494.19 242.29 483.84 242.32 473.48 242.27 463.13 241.04 463.13 239.81 463.13 238.59 463.12 238.74 463.6 239.04 464.58 239.19 465.06 227.47 465.73 215.73 465.27 204 465.39 181.31 465.3 158.61 465.53 135.94 464.81M407 463.12C353.29 463.21 299.58 463.06 245.88 463.51 252.89 464.28 259.96 463.86 267 463.94 335.66 463.77 404.31 463.61 472.97 463.66 489.77 463.49 506.58 464.19 523.37 463.53 515.28 462.35 507.08 463.7 498.95 462.88 486.96 463.07 474.99 462.22 463 462.49 444.33 462.75 425.64 461.91 407 463.12M243.01 465.31C242.86 468.74 242.19 472.3 243.25 475.65 244.64 476.15 246.15 475.84 247.59 475.81 255.04 475.03 262.53 475.51 269.99 475.39 338.33 475.33 406.66 475.31 475 475.35 491.24 475.2 507.51 475.65 523.75 475.09 523.8 471.73 523.81 468.37 523.75 465.02 512.85 464.3 501.91 464.93 491 464.72 437.34 464.82 383.68 464.46 330.02 464.98 301.02 464.64 272.01 465.55 243.01 465.31M505.98 476.19C479.32 476.24 452.66 476.29 426.01 475.9 396.67 476.11 367.34 476.23 338 476.22 311.67 476.94 285.33 476.42 259 476.64 254.13 476.87 249.02 475.89 244.39 477.86 248.22 478.49 252.11 478.49 255.98 478.41 294.99 478.28 333.99 478.17 373 478.22 418 477.73 463 478.51 508.01 478.17 513.73 477.93 519.46 478.17 525.17 478.59 525.51 489.05 525.25 499.52 525.36 509.99 525.36 512.97 525.01 515.93 524.62 518.88 525.55 518.86 526.49 518.85 527.44 518.85 525.84 512.02 525.55 504.95 526.02 497.97 526.57 491.54 525.2 485.05 526.59 478.67 526.54 477.31 526.5 475.96 526.45 474.6 519.9 477.09 512.81 475.79 505.98 476.19Z" fill="#A3A3B3"/><path d="M123.61 494.13C153.32 491.12 183.2 492.84 213 493.33 219.97 493.61 227.11 492.35 233.95 494.18 219.97 494.42 205.98 494.39 191.99 494.37 169.2 494.1 146.4 494.59 123.61 494.13Z" fill="#A3A3B3"/><path d="M235.99 494.8C237.55 503.11 236.47 511.6 236.72 520L120.25 520C120.68 519.9 121.55 519.71 121.98 519.62 123.63 519.31 125.3 519.15 126.97 519.13 154.65 519.52 182.33 519.23 210 519.33 217.92 519.23 225.86 519.69 233.76 518.96 234.21 518.9 235.11 518.78 235.56 518.72 235.85 510.74 235.29 502.75 235.99 494.8Z" fill="#A3A3B3"/><path d="M453.32 499.37C453.98 499.37 455.28 499.35 455.94 499.34 455.83 503.6 455.81 507.86 455.74 512.13 451.96 508.97 453.47 503.64 453.32 499.37Z" fill="#A3A3B3"/><path d="M457.81 513.52C458.69 512.48 459.58 511.43 460.46 510.39 462.14 511.28 463.8 512.21 465.47 513.14 465.42 514.35 465.37 515.57 465.33 516.8 461.87 516.29 458.38 516.78 455.23 518.33 454.2 518.71 453.15 519.06 452.1 519.38 454.03 517.45 455.99 515.56 457.81 513.52Z" fill="#A3A3B3"/><path d="M1068.84 510.29C1069.56 513.48 1069.91 516.74 1070.15 520L608.05 520 608.07 519.05C608.5 519.07 609.34 519.11 609.77 519.13 622.17 519.6 634.59 519.22 647 519.34 777 519.37 907 519.38 1037 519.37 1047.04 519.15 1057.13 519.88 1067.15 519 1067.59 518.93 1068.46 518.8 1068.9 518.73 1068.93 515.91 1068.84 513.1 1068.84 510.29Z" fill="#A3A3B3"/></g><g id="f"><path d="M813.22 330.38C835.48 330.64 857.74 330.13 880 329.64 904.66 329.59 929.33 329.57 953.99 329.66 956.81 329.74 959.74 329.55 962.46 330.53 963.17 334.31 962.78 338.18 962.82 342.01 962.82 351.24 962.81 360.48 962.71 369.72 943.14 369.72 923.57 369.58 904.01 369.64 873.65 369.4 843.31 371.08 812.95 370.76 812.37 363.86 812.7 356.92 812.7 350 812.77 343.46 812.4 336.89 813.22 330.38Z" fill="#07F333"/></g><g id="g"><path d="M430.54 491.53C435.74 490.46 440.74 493.66 445.98 492.84 450.64 492.2 455.24 490.98 459.98 491.13 464.75 490.91 469.38 492.16 474.04 492.95 479.66 493.99 485 489.94 490.56 491.35 493.54 492.02 493.28 495.55 493.47 497.93 493.54 504.98 493.79 512.1 492.48 519.07 482 519.14 471.53 518.68 461.06 519.12 459.08 519.18 457.13 518.8 455.23 518.33 458.38 516.78 461.87 516.29 465.33 516.8 465.37 515.57 465.42 514.35 465.47 513.14 465.63 508.5 465.86 503.86 466.16 499.22 462.75 499.3 459.34 499.32 455.94 499.34 455.28 499.35 453.98 499.37 453.32 499.37 453.47 503.64 451.96 508.97 455.74 512.13 456.25 512.48 457.29 513.17 457.81 513.52 455.99 515.56 454.03 517.45 452.1 519.38 444.33 518.71 436.52 519.18 428.73 518.88 428.25 511.26 428.18 503.62 428.43 495.99 428.56 494.36 428.59 492.05 430.54 491.53Z" fill="#02BFFE"/><path d="M264.01 495.88C272.66 495.24 281.34 495.5 290 495.46 331.58 495.42 373.15 495.25 414.72 495.5 416.05 503.36 415.51 511.34 415.22 519.26 382.15 519.41 349.08 519.31 316.01 519.33 291.62 519.22 267.24 519.6 242.86 519.25 242.37 512.1 242.46 504.92 242.78 497.76 249.73 495.99 256.93 496.57 264.01 495.88Z" fill="#02BFFE"/><path d="M121.97 497C125.49 495.72 129.31 495.76 133 495.68 147 495.68 161 495.49 175 495.64 190 495.85 205.01 495.42 220 496.18 224.3 496.59 229.31 495.2 233.09 497.78 235.14 504.64 234.05 511.93 233.76 518.96 225.86 519.69 217.92 519.23 210 519.33 182.33 519.23 154.65 519.52 126.97 519.13 125.3 519.15 123.63 519.31 121.98 519.62 121.11 512.21 119.01 504.11 121.97 497Z" fill="#02BFFE"/></g><text stroke="#FFFFFF" stroke-width="0.5" stroke-miterlimit="10" fill="#FFFFFF" font-family="FZSSJW--GB1-0,FZShuSong-Z01S" font-size="18" transform="translate(458.7 96.95)"><tspan x="0" y="0"></tspan></text><path d="M374.34 150.3C375.31 150.76 376.03 151.1 376.49 151.33 376.49 151.39 376.23 151.67 375.72 152.19L375.72 154.51 376.67 154.51 377.7 153.13 379.33 154.85 379.33 155.02 375.72 155.02 375.72 157.86C377.55 157.29 378.56 157 378.73 157L378.9 157.17C378.73 157.23 378.41 157.37 377.95 157.6 376.98 158.06 376.23 158.46 375.72 158.8L375.72 164.39C375.32 165.14 374.63 165.54 373.66 165.59 373.6 165.59 373.57 165.5 373.57 165.33 373.4 164.64 372.62 164.1 371.25 163.7L371.25 163.53C371.42 163.53 371.71 163.56 372.11 163.62 373.03 163.74 373.63 163.76 373.91 163.71 374.25 163.71 374.4 163.45 374.34 162.94L374.34 159.33C372.91 159.96 371.79 160.48 370.99 160.88 370.87 161 370.79 161.05 370.73 161.05 370.27 160.42 369.98 159.96 369.87 159.67 369.93 159.67 370.3 159.56 370.99 159.33 372.31 158.93 373.42 158.59 374.34 158.3L374.34 155.03 371.76 155.03 370.64 155.2 370.38 154.51 374.33 154.51 374.33 150.3ZM372.79 165.77 373.05 165.77C373.11 167.72 372.96 168.95 372.62 169.47 371.3 170.73 370.53 170.82 370.3 169.73 370.36 169.61 370.53 169.41 370.82 169.13 371.97 168.16 372.62 167.04 372.8 165.78ZM381.38 150.22 383.87 150.99 383.7 151.16C383.3 151.5 383.1 151.79 383.1 152.02 383.1 152.31 383.07 152.71 383.01 153.22 383.01 153.79 382.98 154.19 382.92 154.42L384.9 154.33 385.24 153.9C385.64 153.38 385.87 153.13 385.93 153.13 386.39 153.42 386.96 153.93 387.65 154.68 387.65 154.74 387.56 154.8 387.39 154.85 386.82 155.19 386.53 155.54 386.53 155.88 386.24 160.29 386.87 162.78 388.42 163.36 388.53 163.36 388.88 162.41 389.45 160.52L389.54 160.26 389.8 160.26C389.46 162.38 389.54 163.9 390.06 164.81 390.12 164.93 390.15 165.01 390.15 165.07 388.83 165.47 387.57 164.98 386.37 163.61 385.51 162.35 385.14 159.8 385.25 155.96L385.25 154.84 382.84 155.01C382.67 156.96 382.44 158.45 382.15 159.48 383.53 160.4 384.24 161 384.3 161.28 384.47 161.74 384.36 162.2 383.96 162.66 383.67 162.95 383.39 162.86 383.1 162.4 382.87 162 382.41 161.45 381.72 160.77 380.63 162.89 378.68 164.47 375.88 165.5L375.71 165.24C378.52 163.81 380.21 161.95 380.78 159.65 380.38 159.31 379.86 158.91 379.23 158.45L379.49 158.28C380.12 158.51 380.64 158.71 381.04 158.88 381.21 157.73 381.35 156.47 381.47 155.1L380.87 155.1 379.84 155.36 379.32 154.67 381.47 154.5C381.47 152.72 381.44 151.29 381.38 150.2ZM376.31 166.12C377.11 166.64 377.74 167.35 378.2 168.27 378.43 168.84 378.23 169.39 377.6 169.9 376.97 170.19 376.68 169.96 376.74 169.21 376.8 168.29 376.57 167.29 376.05 166.2L376.31 166.11ZM380.78 165.86C381.87 166.43 382.76 167.21 383.44 168.18 383.5 169.33 383.04 169.84 382.06 169.73 382.06 169.67 382.03 169.53 381.97 169.3 381.85 168.1 381.43 167.01 380.68 166.03L380.77 165.86ZM385.33 165.95C386.42 166.41 387.48 167.1 388.51 168.01 388.62 168.07 388.71 168.13 388.77 168.18 389.29 168.64 389.37 169.21 389.03 169.9 388.4 170.76 387.97 170.79 387.74 169.99L387.65 169.82C387.25 168.5 386.42 167.27 385.16 166.12L385.33 165.95Z" stroke="#FFFFFF" stroke-width="0.5" stroke-miterlimit="10" fill="#FFFFFF"/><path d="M396.51 150.73C397.43 151.19 398.17 151.62 398.74 152.02L398.57 152.19C398.05 152.36 397.77 152.56 397.71 152.79 397.65 152.96 397.57 153.19 397.45 153.48 397.05 154.45 396.82 155.14 396.76 155.54L400.03 155.54 400.2 155.28C400.66 154.76 400.92 154.51 400.97 154.51 401.6 154.97 402.14 155.46 402.6 155.97 402.6 156.03 402.48 156.09 402.26 156.14 401.92 156.31 401.72 156.48 401.66 156.66 400.91 160.61 399.91 163.51 398.65 165.34 399.68 166.54 401.11 167.29 402.95 167.57 404.61 167.91 407.7 168 412.23 167.83L412.32 168.09C411.12 168.2 410.43 168.66 410.26 169.47 403.67 169.3 399.57 168.21 397.97 166.2 396.37 167.75 394.36 169.09 391.95 170.24L391.69 169.98C394.21 168.6 396.07 167.03 397.28 165.25 396.48 163.7 395.85 161.58 395.39 158.89 394.3 161.18 393.13 163.04 391.87 164.48L391.61 164.39C393.79 161.24 395.42 156.68 396.51 150.73ZM396.51 156.06 395.74 157.95C396.43 161.1 397.14 163.22 397.89 164.31 398.92 162.76 399.72 160.01 400.3 156.06L396.52 156.06ZM404.85 150.39 407.08 151.51 406.22 152.28 406.22 156.06C409.2 157.32 410.86 158.35 411.2 159.15 411.54 160.24 411.34 160.93 410.6 161.21 410.48 161.21 410.37 161.07 410.26 160.78 409.57 159.29 408.23 157.89 406.22 156.57L406.22 166.28C405.88 166.57 405.39 166.82 404.76 167.05 404.82 164.82 404.85 162.55 404.85 160.26L404.85 150.38Z" stroke="#FFFFFF" stroke-width="0.5" stroke-miterlimit="10" fill="#FFFFFF"/><path d="M420.75 151.93 422.38 153.48 422.29 153.57 418.94 153.57 418.94 159.33 419.63 159.33 420.58 158.21 422.04 159.76 422.04 159.85 418.95 159.85 418.95 164.83 422.39 163.37 422.56 163.71C419.64 165.43 417.29 166.89 415.51 168.09 415.11 168.26 414.88 168.35 414.82 168.35 414.42 167.95 414.07 167.46 413.79 166.89L414.13 166.72C415.1 166.43 416.25 166.03 417.57 165.52L417.57 159.85 415.77 159.85 414.91 160.02 414.48 159.33 417.57 159.33 417.57 153.57 415.25 153.57 414.39 153.74 414.05 153.05 419.81 153.05 420.76 151.93ZM422.98 151.24 424.61 152.19 431.14 152.19C431.2 152.19 431.37 151.99 431.66 151.59L431.92 151.25C432.44 151.48 432.98 151.94 433.55 152.63 433.55 152.69 433.46 152.77 433.29 152.89 433.06 153.06 432.89 153.21 432.77 153.32L432.77 158.13C432.77 159.51 432.8 160.77 432.86 161.91 432.46 162.2 431.97 162.4 431.4 162.51L431.4 161.39 428.39 161.39 428.39 164.83 430.97 164.83 431.83 163.63 433.72 165.26 433.63 165.35 428.39 165.35 428.39 168.96 431.74 168.96 432.77 167.76 434.75 169.31 434.66 169.48 420.57 169.48 419.54 169.65 419.11 168.96 427.02 168.96 427.02 165.35 423.75 165.35 422.72 165.52 422.2 164.83 427.01 164.83 427.01 161.39 424.26 161.39 424.26 161.99C423.74 162.28 423.26 162.45 422.8 162.51 422.91 159.47 422.97 155.72 422.97 151.25ZM427.02 152.7 425.04 152.7C424.47 152.64 424.21 152.82 424.27 153.22L424.27 156.49 427.02 156.49 427.02 152.71ZM424.27 157 424.27 160.87 427.02 160.87 427.02 157 424.27 157ZM431.4 152.7 428.39 152.7 428.39 156.48 431.4 156.48 431.4 152.7ZM431.4 157 428.39 157 428.39 160.87 431.4 160.87 431.4 157Z" stroke="#FFFFFF" stroke-width="0.5" stroke-miterlimit="10" fill="#FFFFFF"/><path d="M389.72 176.36 391.61 177.48C391.61 177.54 391.49 177.62 391.27 177.74 390.93 177.86 390.7 178 390.58 178.17 390.46 178.34 390.35 178.6 390.24 178.94 389.95 179.46 389.81 179.77 389.81 179.89L397.37 179.89 398.4 178.43 400.38 180.23 400.38 180.32 389.47 180.32 386.55 186.25 390.85 186.25 390.85 182.04C390.96 182.04 391.71 182.36 393.08 182.99 393.08 183.05 392.91 183.22 392.56 183.51L392.3 183.77 392.3 186.26 395.48 186.26 396.6 184.97 398.15 186.6 398.06 186.69 392.3 186.69 392.3 191.16 397.89 191.16 399.18 189.78 401.07 191.58 401.07 191.67 392.3 191.67 392.3 196.4C391.84 196.86 391.35 197.09 390.84 197.09L390.84 191.68 382.59 191.68 381.56 191.85 381.22 191.16 390.84 191.16 390.84 186.69 386.54 186.69 386.11 187.12 385.59 187.64C385.07 187.24 384.62 186.81 384.21 186.35L384.3 186.26C384.82 186.03 385.22 185.63 385.5 185.06 386.42 183.57 387.25 182 387.99 180.33L383.01 180.33 382.06 180.5 381.63 179.9 388.25 179.9 389.71 176.38Z" stroke="#FFFFFF" stroke-width="0.5" stroke-miterlimit="10" fill="#FFFFFF"/><path d="M404.33 179.28C405.71 179.8 406.39 180.08 406.39 180.14 406.39 180.2 406.27 180.31 406.05 180.48 405.82 180.65 405.71 180.8 405.71 180.91L405.62 196.12C405.16 196.41 404.67 196.58 404.16 196.64L404.33 179.28ZM406.31 176.7C408.2 177.62 409.26 178.42 409.49 179.11 409.49 180.08 409.09 180.63 408.29 180.74 408.17 180.74 408.03 180.48 407.86 179.97 407.52 178.77 406.94 177.76 406.14 176.96L406.31 176.7ZM415.33 181.94C416.19 182.34 416.79 182.74 417.13 183.14 417.13 183.2 417.04 183.28 416.87 183.4 416.47 183.69 416.27 183.94 416.27 184.17L416.36 192.16C415.9 192.39 415.44 192.56 414.98 192.68L414.98 191.56 410.25 191.56 410.25 192.33C409.91 192.56 409.45 192.73 408.87 192.85L408.96 182.19 410.51 182.96 414.55 182.96C415.01 182.27 415.27 181.93 415.32 181.93ZM414.99 183.4 410.69 183.4C410.35 183.34 410.2 183.54 410.26 184L410.26 186.84 414.99 186.84 414.99 183.4ZM414.99 187.35 410.26 187.35 410.26 191.05 414.99 191.05 414.99 187.35ZM422.21 179.1 421.78 179.44C421.44 179.61 421.26 179.73 421.26 179.78 421.37 189.75 421.43 194.85 421.43 195.08 421.2 196 420.4 196.57 419.02 196.8 419.08 195.94 418.13 195.28 416.18 194.82L416.27 194.56C418.1 194.79 419.13 194.85 419.36 194.73 419.76 194.67 419.93 194.33 419.88 193.7 419.88 193.47 419.85 188.63 419.79 179.18L412.31 179.18 410.85 179.44 410.42 178.67 419.53 178.67C419.59 178.67 419.76 178.44 420.05 177.98L420.39 177.64C421.19 178.1 421.79 178.59 422.19 179.1Z" stroke="#FFFFFF" stroke-width="0.5" stroke-miterlimit="10" fill="#FFFFFF"/><text stroke="#FFFFFF" stroke-width="0.75" stroke-miterlimit="10" fill="#FFFFFF" font-family="FZSSJW--GB1-0,FZShuSong-Z01S" font-size="26" transform="translate(507.94 176.36)"><tspan x="0" y="0"></tspan></text><text stroke="#000000" stroke-width="0.5" stroke-miterlimit="10" font-family="FZSSJW--GB1-0,FZShuSong-Z01S" font-size="21" transform="translate(298.02 281)"><tspan x="0" y="0"></tspan></text><text stroke="#FFFFFF" stroke-width="0.75" stroke-miterlimit="10" fill="#FFFFFF" font-family="FZSSJW--GB1-0,FZShuSong-Z01S" font-size="26" transform="translate(556.13 281)"><tspan x="0" y="0"></tspan></text><text stroke="#FFFFFF" stroke-width="0.75" stroke-miterlimit="10" fill="#FFFFFF" font-family="FZSSJW--GB1-0,FZShuSong-Z01S" font-size="26" transform="translate(352.59 388.93)"><tspan x="0" y="0"></tspan></text><text stroke="#FFFFFF" stroke-width="0.75" stroke-miterlimit="10" fill="#FFFFFF" font-family="FZSSJW--GB1-0,FZShuSong-Z01S" font-size="26" transform="translate(761.64 401.47)"><tspan x="0" y="0"></tspan></text><text stroke="#000000" stroke-width="0.5" stroke-miterlimit="10" font-family="FZSSJW--GB1-0,FZShuSong-Z01S" font-size="21" transform="translate(838.77 357.98)"><tspan x="0" y="0"></tspan></text></svg>