<svg width="418" height="529" viewBox="0 0 418 529" xmlns="http://www.w3.org/2000/svg" xmlns:xlink="http://www.w3.org/1999/xlink" overflow="hidden"><defs></defs><g id="page4" transform="translate(5.5 5.5)"><rect x="0" y="0" width="408" height="519" fill="none"/><g id="shape1" transform="translate(152.52 99.85)"><path d="M112 38.3 112 0 0 0 0 38.3 112 38.3Z" stroke="#000000" fill="none"/><text fill="#191919" font-family="方正书宋简体,PingFang SC,Mircrosoft YaHei,Arial" font-size="17.3333" xml:space="preserve"><tspan x="20.8" y="23.5">板换预热</tspan></text></g><g id="shape2" transform="translate(152.52 187.68)"><path d="M112 38.3 112 0 0 0 0 38.3 112 38.3Z" stroke="#000000" fill="none"/><text fill="#191919" font-family="方正书宋简体,PingFang SC,Mircrosoft YaHei,Arial" font-size="17.3333" xml:space="preserve"><tspan x="20.8" y="23.5">蒸发结晶</tspan></text></g><g id="shape3" transform="translate(152.52 275.51)"><path d="M112 38.3 112 0 0 0 0 38.3 112 38.3Z" stroke="#000000" fill="none"/><text fill="#191919" font-family="方正书宋简体,PingFang SC,Mircrosoft YaHei,Arial" font-size="17.3333" xml:space="preserve"><tspan x="20.8" y="23.9">冷却结晶</tspan></text></g><g id="shape4" transform="translate(152.52 363.34)"><path d="M112 38.3 112 0 0 0 0 38.3 112 38.3Z" stroke="#000000" fill="none"/><text fill="#191919" font-family="方正书宋简体,PingFang SC,Mircrosoft YaHei,Arial" font-size="17.3333" xml:space="preserve"><tspan x="38.4" y="23.9">离心</tspan></text></g><g id="shape5" transform="translate(152.52 451.17)"><text fill="#191919" font-family="方正书宋简体,PingFang SC,Mircrosoft YaHei,Arial" font-size="13.3333" xml:space="preserve"><tspan x="4" y="18.7">S：硫酸铵 (湿料)</tspan></text></g><g id="shape6" transform="translate(208.52 63.3)"><path d="M0 0 0 30.5" stroke="#191919" fill="none"/><path d="M3 30.5 0 36.5-3 30.5 3 30.5" stroke="#191919" stroke-linecap="round" fill="#191919"/></g><g id="shape7" transform="translate(264.52 206.83)"><path d="M0 0 67 0 67-87.8 6-87.8" stroke="#191919" fill="none"/><path d="M6-84.8 0-87.8 6-90.8 6-84.8" stroke="#191919" stroke-linecap="round" fill="#191919"/><text fill="#191919" font-family="方正书宋简体,PingFang SC,Mircrosoft YaHei,Arial" font-size="13.3333" xml:space="preserve"><tspan x="34" y="-48.4">W1: 生蒸汽</tspan><tspan x="46.4" y="-32.4">冷凝水</tspan></text></g><g id="shape8" transform="translate(152.52 119)"><path d="M0 0-33 0" stroke="#191919" fill="none"/><path d="M-33 3-39 0-33-3-33 3" stroke="#191919" stroke-linecap="round" fill="#191919"/></g><g id="shape9" transform="translate(45 96)"><text fill="#191919" font-family="方正书宋简体,PingFang SC,Mircrosoft YaHei,Arial" font-size="13.3333" xml:space="preserve"><tspan x="3.8" y="19.2">W1: 生蒸汽</tspan><tspan x="16.2" y="35.2">冷凝水</tspan></text></g><g id="shape10" transform="translate(208.52 138.15)"><path d="M0 0 0 43.5" stroke="#191919" fill="none"/><path d="M3 43.5 0 49.5-3 43.5 3 43.5" stroke="#191919" stroke-linecap="round" fill="#191919"/></g><g id="shape11" transform="translate(208.52 313.81)"><path d="M0 0 0 43.5" stroke="#191919" fill="none"/><path d="M3 43.5 0 49.5-3 43.5 3 43.5" stroke="#191919" stroke-linecap="round" fill="#191919"/></g><g id="shape12" transform="translate(208.52 401.64)"><path d="M0 0 0 43.5" stroke="#191919" fill="none"/><path d="M3 43.5 0 49.5-3 43.5 3 43.5" stroke="#191919" stroke-linecap="round" fill="#191919"/></g><g id="shape13" transform="translate(140.52 40)"><text font-family="方正书宋简体,PingFang SC,Mircrosoft YaHei,Arial" font-size="13.3333" xml:space="preserve"><tspan x="39.2" y="15.3">除杂后液</tspan></text></g><g id="shape14" transform="translate(53.54 155.34)"><text fill="#191919" font-family="方正书宋简体,PingFang SC,Mircrosoft YaHei,Arial" font-size="13.3333" xml:space="preserve"><tspan x="4.7" y="13.4">低压蒸汽</tspan></text></g><g id="shape15" transform="translate(121 165)"><path d="M0 0 51.4 0 51.4 16.7" stroke="#191919" fill="none"/><path d="M54.4 16.7 51.4 22.7 48.4 16.7 54.4 16.7" stroke="#191919" stroke-linecap="round" fill="#191919"/></g><g id="shape16" transform="translate(38 183.67)"><text fill="#191919" font-family="方正书宋简体,PingFang SC,Mircrosoft YaHei,Arial" font-size="13.3333" xml:space="preserve"><tspan x="12.9" y="19.4">W2:  硫铵</tspan><tspan x="5.3" y="35.4">蒸发冷凝水</tspan></text></g><g id="shape17" transform="translate(152.52 206.83)"><path d="M0 0-26 0" stroke="#191919" fill="none"/><path d="M-26 3-32 0-26-3-26 3" stroke="#191919" stroke-linecap="round" fill="#191919"/></g><g id="shape18" transform="translate(208.52 225.98)"><path d="M0 0 0 43.5" stroke="#191919" fill="none"/><path d="M3 43.5 0 49.5-3 43.5 3 43.5" stroke="#191919" stroke-linecap="round" fill="#191919"/></g></g></svg>