<svg width="686" height="245" viewBox="0 0 686 245" xmlns="http://www.w3.org/2000/svg" xmlns:xlink="http://www.w3.org/1999/xlink" overflow="hidden"><defs></defs><g id="page2" transform="translate(5.5 5.5)"><rect x="0" y="0" width="676" height="235" fill="none"/><g id="shape1" transform="translate(39 39.5)"><path d="M99 36 99 0 0 0 0 36 99 36Z" stroke="#101843" fill="#FFFFFF"/><text fill="#191919" font-family="方正书宋简体,PingFang SC,Mircrosoft YaHei,Arial" font-size="17.3333" xml:space="preserve"><tspan x="14.3" y="22.4">矿山资源</tspan></text></g><g id="shape2" transform="translate(163.625 39.5)"><path d="M99 36 99 0 0 0 0 36 99 36Z" stroke="#101843" fill="#FFFFFF"/><text fill="#191919" font-family="方正书宋简体,PingFang SC,Mircrosoft YaHei,Arial" font-size="17.3333" xml:space="preserve"><tspan x="14.3" y="22.4">化工冶金</tspan></text></g><g id="shape3" transform="translate(288.25 39.5)"><path d="M99 36 99 0 0 0 0 36 99 36Z" stroke="#101843" fill="#FFFFFF"/><text fill="#191919" font-family="方正书宋简体,PingFang SC,Mircrosoft YaHei,Arial" font-size="17.3333" xml:space="preserve"><tspan x="5.5" y="22.4">前驱体生产</tspan></text></g><g id="shape4" transform="translate(412.875 39.5)"><path d="M99 36 99 0 0 0 0 36 99 36Z" stroke="#101843" fill="#FFFFFF"/><text fill="#191919" font-family="方正书宋简体,PingFang SC,Mircrosoft YaHei,Arial" font-size="17.3333" xml:space="preserve"><tspan x="14.3" y="22.4">正极生产</tspan></text></g><g id="shape5" transform="translate(537.5 39.5)"><path d="M99 36 99 0 0 0 0 36 99 36Z" stroke="#101843" fill="#FFFFFF"/><text fill="#191919" font-family="方正书宋简体,PingFang SC,Mircrosoft YaHei,Arial" font-size="17.3333" xml:space="preserve"><tspan x="5.5" y="22.4">锂电池生产</tspan></text></g><g id="shape6" transform="translate(537.5 100)"><path d="M99 36 99 0 0 0 0 36 99 36Z" stroke="#101843" fill="#FFFFFF"/><text fill="#191919" font-family="方正书宋简体,PingFang SC,Mircrosoft YaHei,Arial" font-size="17.3333" xml:space="preserve"><tspan x="20.7" y="22.4">EV生产</tspan></text></g><g id="shape7" transform="translate(412.875 100)"><path d="M99 36 99 0 0 0 0 36 99 36Z" stroke="#101843" fill="#FFFFFF"/><text fill="#191919" font-family="方正书宋简体,PingFang SC,Mircrosoft YaHei,Arial" font-size="17.3333" xml:space="preserve"><tspan x="14.3" y="22.4">梯次利用</tspan></text></g><g id="shape8" transform="translate(288.25 100)"><path d="M99 36 99 0 0 0 0 36 99 36Z" stroke="#101843" fill="#FFFFFF"/><text fill="#191919" font-family="方正书宋简体,PingFang SC,Mircrosoft YaHei,Arial" font-size="17.3333" xml:space="preserve"><tspan x="14.3" y="22.4">再生利用</tspan></text></g><g id="shape9" transform="translate(412.875 160.5)"><path d="M99 36 99 0 0 0 0 36 99 36Z" stroke="#101843" fill="#FFFFFF"/><text fill="#191919" font-family="方正书宋简体,PingFang SC,Mircrosoft YaHei,Arial" font-size="16" xml:space="preserve"><tspan x="7.5" y="21.3">拆解/无害化</tspan></text></g><g id="shape10" transform="translate(288.25 160.5)"><path d="M99 36 99 0 0 0 0 36 99 36Z" stroke="#101843" fill="#FFFFFF"/><text fill="#191919" font-family="方正书宋简体,PingFang SC,Mircrosoft YaHei,Arial" font-size="17.3333" xml:space="preserve"><tspan x="14.3" y="22.4">梯次利用</tspan></text></g><g id="shape11" transform="translate(537.5 160.5)"><path d="M99 36 99 0 0 0 0 36 99 36Z" stroke="#101843" fill="#FFFFFF"/><text fill="#191919" font-family="方正书宋简体,PingFang SC,Mircrosoft YaHei,Arial" font-size="17.3333" xml:space="preserve"><tspan x="14.3" y="22.4">湿法冶金</tspan></text></g><g id="shape12" transform="translate(163.625 160.5)"><path d="M99 36 99 0 0 0 0 36 99 36Z" stroke="#101843" fill="#FFFFFF"/><text fill="#191919" font-family="方正书宋简体,PingFang SC,Mircrosoft YaHei,Arial" font-size="17.3333" xml:space="preserve"><tspan x="14.3" y="22.4">电池储运</tspan></text></g><g id="shape13" transform="translate(39 160.5)"><path d="M99 36 99 0 0 0 0 36 99 36Z" stroke="#101843" fill="#FFFFFF"/><text fill="#191919" font-family="方正书宋简体,PingFang SC,Mircrosoft YaHei,Arial" font-size="17.3333" xml:space="preserve"><tspan x="14.3" y="22.4">电池交付</tspan></text></g><g id="shape14" transform="translate(138 57.5)"><path d="M0 0 19.6 0" stroke="#191919" fill="none"/><path d="M19.6-3 25.6 0 19.6 3 19.6-3" stroke="#191919" stroke-linecap="round" fill="#191919"/></g><g id="shape15" transform="translate(262.625 57.5)"><path d="M0 0 19.6 0" stroke="#191919" fill="none"/><path d="M19.6-3 25.6 0 19.6 3 19.6-3" stroke="#191919" stroke-linecap="round" fill="#191919"/></g><g id="shape16" transform="translate(387.25 57.5)"><path d="M0 0 19.6 0" stroke="#191919" fill="none"/><path d="M19.6-3 25.6 0 19.6 3 19.6-3" stroke="#191919" stroke-linecap="round" fill="#191919"/></g><g id="shape17" transform="translate(511.875 57.5)"><path d="M0 0 19.6 0" stroke="#191919" fill="none"/><path d="M19.6-3 25.6 0 19.6 3 19.6-3" stroke="#191919" stroke-linecap="round" fill="#191919"/></g><g id="shape18" transform="translate(587 75.5)"><path d="M0 0 0 18.5" stroke="#191919" fill="none"/><path d="M3 18.5 0 24.5-3 18.5 3 18.5" stroke="#191919" stroke-linecap="round" fill="#191919"/></g><g id="shape19" transform="translate(537.5 118)"><path d="M0 0-19.6 0" stroke="#191919" fill="none"/><path d="M-19.6 3-25.6 0-19.6-3-19.6 3" stroke="#191919" stroke-linecap="round" fill="#191919"/></g><g id="shape20" transform="translate(412.875 118)"><path d="M0 0-19.6 0" stroke="#191919" fill="none"/><path d="M-19.6 3-25.6 0-19.6-3-19.6 3" stroke="#191919" stroke-linecap="round" fill="#191919"/></g><g id="shape21" transform="translate(288.25 118)"><path d="M0 0-199.7 0-199.7 36.5" stroke="#191919" fill="none"/><path d="M-196.7 36.5-199.7 42.5-202.7 36.5-196.7 36.5" stroke="#191919" stroke-linecap="round" fill="#191919"/><rect x="-144.1" y="-8.3" width="86.4" height="16" fill="#FFFFFF"/><text fill="#191919" font-family="方正书宋简体,PingFang SC,Mircrosoft YaHei,Arial" font-size="13.3333" xml:space="preserve"><tspan x="-144.1" y="3.7">华友资源再生</tspan></text></g><g id="shape22" transform="translate(138 178.5)"><path d="M0 0 19.6 0" stroke="#191919" fill="none"/><path d="M19.6-3 25.6 0 19.6 3 19.6-3" stroke="#191919" stroke-linecap="round" fill="#191919"/></g><g id="shape23" transform="translate(262.625 178.5)"><path d="M0 0 19.6 0" stroke="#191919" fill="none"/><path d="M19.6-3 25.6 0 19.6 3 19.6-3" stroke="#191919" stroke-linecap="round" fill="#191919"/></g><g id="shape24" transform="translate(387.25 178.5)"><path d="M0 0 19.6 0" stroke="#191919" fill="none"/><path d="M19.6-3 25.6 0 19.6 3 19.6-3" stroke="#191919" stroke-linecap="round" fill="#191919"/></g><g id="shape25" transform="translate(511.875 178.5)"><path d="M0 0 19.6 0" stroke="#191919" fill="none"/><path d="M19.6-3 25.6 0 19.6 3 19.6-3" stroke="#191919" stroke-linecap="round" fill="#191919"/></g><g id="shape26" transform="translate(337.75 100)"><path d="M0 0 0-18.5" stroke="#191919" fill="none"/><path d="M-3-18.5 0-24.5 3-18.5-3-18.5" stroke="#191919" stroke-linecap="round" fill="#191919"/></g><g id="shape27" transform="translate(462.375 100)"><path d="M0 0 0-18.5" stroke="#191919" fill="none"/><path d="M-3-18.5 0-24.5 3-18.5-3-18.5" stroke="#191919" stroke-linecap="round" fill="#191919"/></g><path d="M257 39 257 7C257 3.1 253.9 0 250 0L7 0C3.1 0 0 3.1 0 7L0 39C0 42.9 3.1 46 7 46L250 46C253.9 46 257 42.9 257 39Z" id="shape28" stroke="#FF0000" stroke-dasharray="11 5" fill="none" transform="translate(274 95)"/></g></svg>