<svg width="537" height="665" viewBox="0 0 537 665" xmlns="http://www.w3.org/2000/svg" xmlns:xlink="http://www.w3.org/1999/xlink" overflow="hidden"><defs></defs><g id="page3" transform="translate(5.5 5.5)"><rect x="0" y="0" width="527" height="655" fill="none"/><g id="shape1" transform="translate(191 83.5)"><text fill="#191919" font-family="方正书宋简体,PingFang SC,Mircrosoft YaHei,Arial" font-size="17.3333" xml:space="preserve"><tspan x="6" y="22.4">硫酸镍原液</tspan></text></g><g id="shape2" transform="translate(241 43)"><path d="M0 0 0 34" stroke="#191919" fill="none"/><path d="M3 34 0 40-3 34 3 34" stroke="#191919" stroke-linecap="round" fill="#191919"/><rect x="-31" y="9.6" width="64" height="13.6" fill="#FFFFFF"/><text fill="#191919" font-family="方正书宋简体,PingFang SC,Mircrosoft YaHei,Arial" font-size="12" xml:space="preserve"><tspan x="-31" y="20">硫酸镍车间</tspan></text></g><g id="shape3" transform="translate(191 152)"><path d="M100 36 100 0 0 0 0 36 100 36Z" stroke="#101843" fill="none"/><text fill="#191919" font-family="方正书宋简体,PingFang SC,Mircrosoft YaHei,Arial" font-size="17.3333" xml:space="preserve"><tspan x="14.8" y="22.4">溶液配制</tspan></text></g><g id="shape4" transform="translate(241 119.5)"><path d="M0 0 0 26.5" stroke="#191919" fill="none"/><path d="M3 26.5 0 32.5-3 26.5 3 26.5" stroke="#191919" stroke-linecap="round" fill="#191919"/></g><g id="shape5" transform="translate(316 152)"><text fill="#191919" font-family="方正书宋简体,PingFang SC,Mircrosoft YaHei,Arial" font-size="17.3333" xml:space="preserve"><tspan x="4.9" y="22.4">硼酸</tspan></text></g><g id="shape6" transform="translate(316 170)"><path d="M0 0-19 0" stroke="#191919" fill="none"/><path d="M-19 3-25 0-19-3-19 3" stroke="#191919" stroke-linecap="round" fill="#191919"/></g><g id="shape7" transform="translate(191 220.5)"><path d="M100 36 100 0 0 0 0 36 100 36Z" stroke="#101843" fill="none"/><text fill="#191919" font-family="方正书宋简体,PingFang SC,Mircrosoft YaHei,Arial" font-size="17.3333" xml:space="preserve"><tspan x="14.8" y="22.4">电积前液</tspan></text></g><g id="shape8" transform="translate(316 220.5)"><path d="M100 36 100 0 0 0 0 36 100 36Z" stroke="#101843" fill="none"/><text fill="#191919" font-family="方正书宋简体,PingFang SC,Mircrosoft YaHei,Arial" font-size="17.3333" xml:space="preserve"><tspan x="14.8" y="22.4">板式换热</tspan></text></g><g id="shape9" transform="translate(291 238.5)"><path d="M6 0 19 0" stroke="#191919" fill="none"/><path d="M6 3 0 0 6-3 6 3" stroke="#191919" stroke-linecap="round" fill="#191919"/><path d="M19-3 25 0 19 3 19-3" stroke="#191919" stroke-linecap="round" fill="#191919"/></g><g id="shape10" transform="translate(191 289)"><path d="M100 36 100 0 0 0 0 36 100 36Z" stroke="#101843" fill="none"/><text fill="#191919" font-family="方正书宋简体,PingFang SC,Mircrosoft YaHei,Arial" font-size="17.3333" xml:space="preserve"><tspan x="32.4" y="22.4">电积</tspan></text></g><g id="shape11" transform="translate(316 289)"><path d="M100 36 100 0 0 0 0 36 100 36Z" stroke="#101843" fill="none"/><text fill="#191919" font-family="方正书宋简体,PingFang SC,Mircrosoft YaHei,Arial" font-size="17.3333" xml:space="preserve"><tspan x="6" y="22.4">始极片制作</tspan></text></g><g id="shape12" transform="translate(291 307)"><path d="M6 0 19 0" stroke="#191919" fill="none"/><path d="M6 3 0 0 6-3 6 3" stroke="#191919" stroke-linecap="round" fill="#191919"/><path d="M19-3 25 0 19 3 19-3" stroke="#191919" stroke-linecap="round" fill="#191919"/></g><g id="shape13" transform="translate(241 256.5)"><path d="M0 0 0 26.5" stroke="#191919" fill="none"/><path d="M3 26.5 0 32.5-3 26.5 3 26.5" stroke="#191919" stroke-linecap="round" fill="#191919"/></g><g id="shape14" transform="translate(241 188)"><path d="M0 0 0 26.5" stroke="#191919" fill="none"/><path d="M3 26.5 0 32.5-3 26.5 3 26.5" stroke="#191919" stroke-linecap="round" fill="#191919"/></g><g id="shape15" transform="translate(210 357.5)"><text fill="#191919" font-family="方正书宋简体,PingFang SC,Mircrosoft YaHei,Arial" font-size="17.3333" xml:space="preserve"><tspan x="4.6" y="22.4">阳极液</tspan></text></g><g id="shape16" transform="translate(241 325)"><path d="M0 0 0 26.5" stroke="#191919" fill="none"/><path d="M3 26.5 0 32.5-3 26.5 3 26.5" stroke="#191919" stroke-linecap="round" fill="#191919"/></g><g id="shape17" transform="translate(191 426)"><path d="M100 36 100 0 0 0 0 36 100 36Z" stroke="#101843" fill="none"/><text fill="#191919" font-family="方正书宋简体,PingFang SC,Mircrosoft YaHei,Arial" font-size="17.3333" xml:space="preserve"><tspan x="32.4" y="22.4">调酸</tspan></text></g><g id="shape18" transform="translate(241 393.5)"><path d="M0 0 0 26.5" stroke="#191919" fill="none"/><path d="M3 26.5 0 32.5-3 26.5 3 26.5" stroke="#191919" stroke-linecap="round" fill="#191919"/></g><g id="shape19" transform="translate(191 494.5)"><text fill="#191919" font-family="方正书宋简体,PingFang SC,Mircrosoft YaHei,Arial" font-size="17.3333" xml:space="preserve"><tspan x="14.8" y="22.4">调酸后液</tspan></text></g><g id="shape20" transform="translate(241 462)"><path d="M0 0 0 26.5" stroke="#191919" fill="none"/><path d="M3 26.5 0 32.5-3 26.5 3 26.5" stroke="#191919" stroke-linecap="round" fill="#191919"/></g><g id="shape21" transform="translate(191 563)"><path d="M100 36 100 0 0 0 0 36 100 36Z" stroke="#101843" fill="none"/><text fill="#191919" font-family="方正书宋简体,PingFang SC,Mircrosoft YaHei,Arial" font-size="17.3333" xml:space="preserve"><tspan x="32.4" y="22.4">精滤</tspan></text></g><g id="shape22" transform="translate(241 530.5)"><path d="M0 0 0 26.5" stroke="#191919" fill="none"/><path d="M3 26.5 0 32.5-3 26.5 3 26.5" stroke="#191919" stroke-linecap="round" fill="#191919"/></g><g id="shape23" transform="translate(316 357.5)"><path d="M100 36 100 0 0 0 0 36 100 36Z" stroke="#101843" fill="none"/><text fill="#191919" font-family="方正书宋简体,PingFang SC,Mircrosoft YaHei,Arial" font-size="17.3333" xml:space="preserve"><tspan x="32.4" y="22.4">沉镍</tspan></text></g><g id="shape24" transform="translate(316 426)"><path d="M100 36 100 0 0 0 0 36 100 36Z" stroke="#101843" fill="none"/><text fill="#191919" font-family="方正书宋简体,PingFang SC,Mircrosoft YaHei,Arial" font-size="17.3333" xml:space="preserve"><tspan x="32.4" y="22.4">压滤</tspan></text></g><g id="shape25" transform="translate(316 494.5)"><text fill="#191919" font-family="方正书宋简体,PingFang SC,Mircrosoft YaHei,Arial" font-size="17.3333" xml:space="preserve"><tspan x="6" y="22.4">硫酸钠废水</tspan><tspan x="14.8" y="42.4">（外排）</tspan></text></g><g id="shape26" transform="translate(366 462)"><path d="M0 0 0 26.5" stroke="#191919" fill="none"/><path d="M3 26.5 0 32.5-3 26.5 3 26.5" stroke="#191919" stroke-linecap="round" fill="#191919"/></g><g id="shape27" transform="translate(366 393.5)"><path d="M0 0 0 26.5" stroke="#191919" fill="none"/><path d="M3 26.5 0 32.5-3 26.5 3 26.5" stroke="#191919" stroke-linecap="round" fill="#191919"/></g><g id="shape28" transform="translate(272 375.5)"><path d="M0 0 38 0" stroke="#191919" fill="none"/><path d="M38-3 44 0 38 3 38-3" stroke="#191919" stroke-linecap="round" fill="#191919"/><text fill="#191919" font-family="方正书宋简体,PingFang SC,Mircrosoft YaHei,Arial" font-size="12" xml:space="preserve"><tspan x="-5.6" y="-9.9">加热</tspan></text></g><g id="shape29" transform="translate(441 357.5)"><text fill="#191919" font-family="方正书宋简体,PingFang SC,Mircrosoft YaHei,Arial" font-size="17.3333" xml:space="preserve"><tspan x="6.4" y="22.4">液碱</tspan></text></g><g id="shape30" transform="translate(441 375.5)"><path d="M0 0-19 0" stroke="#191919" fill="none"/><path d="M-19 3-25 0-19-3-19 3" stroke="#191919" stroke-linecap="round" fill="#191919"/></g><g id="shape31" transform="translate(316 444)"><path d="M0 0-2 0-12 -0-19 -0" stroke="#191919" fill="none"/><path d="M-19 3-25 -0-19-3-19 3" stroke="#191919" stroke-linecap="round" fill="#191919"/><text fill="#191919" font-family="方正书宋简体,PingFang SC,Mircrosoft YaHei,Arial" font-size="12" xml:space="preserve"><tspan x="-13.8" y="-9.9">渣</tspan></text></g><g id="shape32" transform="translate(241 599)"><path d="M0 0 0 13-198 13-198-436.4-56-436.4" stroke="#191919" fill="none"/><path d="M-56-439.4-50-436.4-56-433.4-56-439.4" stroke="#191919" stroke-linecap="round" fill="#191919"/></g><g id="shape33" transform="translate(66 289)"><path d="M100 36 100 0 0 0 0 36 100 36Z" stroke="#101843" fill="none"/><text fill="#191919" font-family="方正书宋简体,PingFang SC,Mircrosoft YaHei,Arial" font-size="17.3333" xml:space="preserve"><tspan x="32.4" y="22.4">出槽</tspan></text></g><g id="shape34" transform="translate(191 307)"><path d="M0 0-19 0" stroke="#191919" fill="none"/><path d="M-19 3-25 0-19-3-19 3" stroke="#191919" stroke-linecap="round" fill="#191919"/></g><g id="shape35" transform="translate(66 357.5)"><path d="M100 36 100 0 0 0 0 36 100 36Z" stroke="#101843" fill="none"/><text fill="#191919" font-family="方正书宋简体,PingFang SC,Mircrosoft YaHei,Arial" font-size="17.3333" xml:space="preserve"><tspan x="32.4" y="22.4">洗板</tspan></text></g><g id="shape36" transform="translate(116 325)"><path d="M0 0 0 26.5" stroke="#191919" fill="none"/><path d="M3 26.5 0 32.5-3 26.5 3 26.5" stroke="#191919" stroke-linecap="round" fill="#191919"/></g><g id="shape37" transform="translate(66 426)"><path d="M100 36 100 0 0 0 0 36 100 36Z" stroke="#101843" fill="none"/><text fill="#191919" font-family="方正书宋简体,PingFang SC,Mircrosoft YaHei,Arial" font-size="17.3333" xml:space="preserve"><tspan x="32.4" y="22.4">打包</tspan></text></g><g id="shape38" transform="translate(116 393.5)"><path d="M0 0 0 26.5" stroke="#191919" fill="none"/><path d="M3 26.5 0 32.5-3 26.5 3 26.5" stroke="#191919" stroke-linecap="round" fill="#191919"/></g><g id="shape39" transform="translate(66 494.5)"><text fill="#191919" font-family="方正书宋简体,PingFang SC,Mircrosoft YaHei,Arial" font-size="17.3333" xml:space="preserve"><tspan x="32.4" y="22.4">镍板</tspan><tspan x="14.8" y="42.4">（产品）</tspan></text></g><g id="shape40" transform="translate(116 462)"><path d="M0 0 0 26.5" stroke="#191919" fill="none"/><path d="M3 26.5 0 32.5-3 26.5 3 26.5" stroke="#191919" stroke-linecap="round" fill="#191919"/></g><g id="shape41" transform="translate(191 179.108)"><path d="M-6 0-10 0-10 121.9C-13.3 121.9-16 124.6-16 127.9-16 131.2-13.3 133.9-10 133.9L-10 196.4 19 196.4" stroke="#191919" fill="none"/><path d="M-6-3 0 0-6 3-6-3" stroke="#191919" stroke-linecap="round" fill="#191919"/></g></g></svg>