<svg width="584" height="400" viewBox="0 0 584 400" xmlns="http://www.w3.org/2000/svg" xmlns:xlink="http://www.w3.org/1999/xlink" overflow="hidden"><defs></defs><g id="page6" transform="translate(5.5 5.5)"><rect x="0" y="0" width="574" height="390" fill="none"/><g id="group1" transform="translate(87 39)"><g id="shape2" transform="matrix(1 0 0 1 0 57)"><path d="M138 36 138 0 0 0 0 36 138 36Z" stroke="#101843" fill="#FFFFFF"/><text fill="#191919" font-family="方正书宋简体,PingFang SC,Mircrosoft YaHei,Arial" font-size="17.3333" xml:space="preserve"><tspan x="33.8" y="22.4">硫酸配置</tspan></text></g><g id="shape3"><text fill="#191919" font-family="方正书宋简体,PingFang SC,Mircrosoft YaHei,Arial" font-size="17.3333" xml:space="preserve"><tspan x="8.1" y="22.4">浓硫酸</tspan></text></g><g id="shape4" transform="translate(69 0)"><text fill="#191919" font-family="方正书宋简体,PingFang SC,Mircrosoft YaHei,Arial" font-size="17.3333" xml:space="preserve"><tspan x="16.9" y="22.4">纯水</tspan></text></g><g id="shape5" transform="matrix(1 0 0 1 0 114)"><text fill="#191919" font-family="方正书宋简体,PingFang SC,Mircrosoft YaHei,Arial" font-size="17.3333" xml:space="preserve"><tspan x="33.8" y="20.9">硫酸储槽</tspan></text></g><g id="shape6" transform="translate(34.5 36)"><path d="M0 0 0 10 34.5 10 34.5 15" stroke="#191919" fill="none"/><path d="M37.5 15 34.5 21 31.5 15 37.5 15" stroke="#191919" stroke-linecap="round" fill="#191919"/></g><g id="shape7" transform="translate(103.5 36)"><path d="M0 0 0 10-34.5 10-34.5 15" stroke="#191919" fill="none"/><path d="M-31.5 15-34.5 21-37.5 15-31.5 15" stroke="#191919" stroke-linecap="round" fill="#191919"/></g><g id="shape8" transform="translate(69 93)"><path d="M0 0 0 15" stroke="#191919" fill="none"/><path d="M3 15 0 21-3 15 3 15" stroke="#191919" stroke-linecap="round" fill="#191919"/></g><g id="shape9" transform="translate(193 57)"><path d="M207 36 207 0 0 0 0 36 207 36Z" stroke="#101843" fill="#FFFFFF"/><text fill="#191919" font-family="方正书宋简体,PingFang SC,Mircrosoft YaHei,Arial" font-size="17.3333" xml:space="preserve"><tspan x="68.3" y="22.4">氨水配置</tspan></text></g><g id="shape10" transform="translate(193 0)"><text fill="#191919" font-family="方正书宋简体,PingFang SC,Mircrosoft YaHei,Arial" font-size="17.3333" xml:space="preserve"><tspan x="16.9" y="22.4">液氨</tspan></text></g><g id="shape11" transform="translate(262 0)"><text fill="#191919" font-family="方正书宋简体,PingFang SC,Mircrosoft YaHei,Arial" font-size="17.3333" xml:space="preserve"><tspan x="8.1" y="22.4">稀氨水</tspan></text></g><g id="shape12" transform="translate(193 114)"><text fill="#191919" font-family="方正书宋简体,PingFang SC,Mircrosoft YaHei,Arial" font-size="17.3333" xml:space="preserve"><tspan x="68.3" y="20.9">氨水储槽</tspan></text></g><g id="shape13" transform="translate(296.5 36)"><path d="M0 0 0 15" stroke="#191919" fill="none"/><path d="M3 15 0 21-3 15 3 15" stroke="#191919" stroke-linecap="round" fill="#191919"/></g><g id="shape14" transform="translate(296.5 93)"><path d="M0 0 0 15" stroke="#191919" fill="none"/><path d="M3 15 0 21-3 15 3 15" stroke="#191919" stroke-linecap="round" fill="#191919"/></g><g id="shape15" transform="translate(331 0)"><text fill="#191919" font-family="方正书宋简体,PingFang SC,Mircrosoft YaHei,Arial" font-size="17.3333" xml:space="preserve"><tspan x="16.9" y="22.4">纯水</tspan></text></g><g id="shape16" transform="translate(227.5 36)"><path d="M0 0 0 10 69 10 69 15" stroke="#191919" fill="none"/><path d="M72 15 69 21 66 15 72 15" stroke="#191919" stroke-linecap="round" fill="#191919"/></g><g id="shape17" transform="translate(365.5 36)"><path d="M0 0 0 10-69 10-69 15" stroke="#191919" fill="none"/><path d="M-66 15-69 21-72 15-66 15" stroke="#191919" stroke-linecap="round" fill="#191919"/></g></g><g id="group18" transform="translate(39 204)"><g id="shape19" transform="matrix(1 0 0 1 0 57)"><path d="M138 36 138 0 0 0 0 36 138 36Z" stroke="#101843" fill="#FFFFFF"/><text fill="#191919" font-family="方正书宋简体,PingFang SC,Mircrosoft YaHei,Arial" font-size="17.3333" xml:space="preserve"><tspan x="33.8" y="22.4">盐酸配置</tspan></text></g><g id="shape20"><text fill="#191919" font-family="方正书宋简体,PingFang SC,Mircrosoft YaHei,Arial" font-size="17.3333" xml:space="preserve"><tspan x="8.1" y="22.4">浓盐酸</tspan></text></g><g id="shape21" transform="translate(69 0)"><text fill="#191919" font-family="方正书宋简体,PingFang SC,Mircrosoft YaHei,Arial" font-size="17.3333" xml:space="preserve"><tspan x="16.9" y="22.4">氯水</tspan></text></g><g id="shape22" transform="matrix(1 0 0 1 0 114)"><text fill="#191919" font-family="方正书宋简体,PingFang SC,Mircrosoft YaHei,Arial" font-size="17.3333" xml:space="preserve"><tspan x="33.8" y="20.9">盐酸储槽</tspan></text></g><g id="shape23" transform="translate(34.5 36)"><path d="M0 0 0 10 34.5 10 34.5 15" stroke="#191919" fill="none"/><path d="M37.5 15 34.5 21 31.5 15 37.5 15" stroke="#191919" stroke-linecap="round" fill="#191919"/></g><g id="shape24" transform="translate(103.5 36)"><path d="M0 0 0 10-34.5 10-34.5 15" stroke="#191919" fill="none"/><path d="M-31.5 15-34.5 21-37.5 15-31.5 15" stroke="#191919" stroke-linecap="round" fill="#191919"/></g><g id="shape25" transform="translate(69 93)"><path d="M0 0 0 15" stroke="#191919" fill="none"/><path d="M3 15 0 21-3 15 3 15" stroke="#191919" stroke-linecap="round" fill="#191919"/></g><g id="shape26" transform="translate(175 57)"><path d="M138 36 138 0 0 0 0 36 138 36Z" stroke="#101843" fill="#FFFFFF"/><text fill="#191919" font-family="方正书宋简体,PingFang SC,Mircrosoft YaHei,Arial" font-size="17.3333" xml:space="preserve"><tspan x="33.8" y="22.4">盐酸配置</tspan></text></g><g id="shape27" transform="translate(175 0)"><text fill="#191919" font-family="方正书宋简体,PingFang SC,Mircrosoft YaHei,Arial" font-size="17.3333" xml:space="preserve"><tspan x="8.1" y="22.4">浓盐酸</tspan></text></g><g id="shape28" transform="translate(244 0)"><text fill="#191919" font-family="方正书宋简体,PingFang SC,Mircrosoft YaHei,Arial" font-size="17.3333" xml:space="preserve"><tspan x="8.1" y="22.4">再生酸</tspan></text></g><g id="shape29" transform="translate(175 114)"><text fill="#191919" font-family="方正书宋简体,PingFang SC,Mircrosoft YaHei,Arial" font-size="17.3333" xml:space="preserve"><tspan x="33.8" y="20.9">盐酸储槽</tspan></text></g><g id="shape30" transform="translate(209.5 36)"><path d="M0 0 0 10 34.5 10 34.5 15" stroke="#191919" fill="none"/><path d="M37.5 15 34.5 21 31.5 15 37.5 15" stroke="#191919" stroke-linecap="round" fill="#191919"/></g><g id="shape31" transform="translate(278.5 36)"><path d="M0 0 0 10-34.5 10-34.5 15" stroke="#191919" fill="none"/><path d="M-31.5 15-34.5 21-37.5 15-31.5 15" stroke="#191919" stroke-linecap="round" fill="#191919"/></g><g id="shape32" transform="translate(244 93)"><path d="M0 0 0 15" stroke="#191919" fill="none"/><path d="M3 15 0 21-3 15 3 15" stroke="#191919" stroke-linecap="round" fill="#191919"/></g><g id="shape33" transform="translate(350 57)"><path d="M146 36 146 0 0 0 0 36 146 36Z" stroke="#101843" fill="#FFFFFF"/><text fill="#191919" font-family="方正书宋简体,PingFang SC,Mircrosoft YaHei,Arial" font-size="17.3333" xml:space="preserve"><tspan x="37.8" y="22.4">盐酸配置</tspan></text></g><g id="shape34" transform="translate(350 1.5)"><text fill="#191919" font-family="方正书宋简体,PingFang SC,Mircrosoft YaHei,Arial" font-size="17.3333" xml:space="preserve"><tspan x="5.1" y="22.4">浓盐酸</tspan></text></g><g id="shape35" transform="translate(413 1.5)"><text fill="#191919" font-family="方正书宋简体,PingFang SC,Mircrosoft YaHei,Arial" font-size="17.3333" xml:space="preserve"><tspan x="6.3" y="22.4">反铁前液</tspan></text></g><g id="shape36" transform="translate(350 114)"><text fill="#191919" font-family="方正书宋简体,PingFang SC,Mircrosoft YaHei,Arial" font-size="17.3333" xml:space="preserve"><tspan x="37.8" y="20.9">盐酸储槽</tspan></text></g><g id="shape37" transform="translate(381.5 37.5)"><path d="M0 0 0 10 41.5 10 41.5 13.5" stroke="#191919" fill="none"/><path d="M44.5 13.5 41.5 19.5 38.5 13.5 44.5 13.5" stroke="#191919" stroke-linecap="round" fill="#191919"/></g><g id="shape38" transform="translate(454.5 37.5)"><path d="M0 0 0 10-31.5 10-31.5 13.5" stroke="#191919" fill="none"/><path d="M-28.5 13.5-31.5 19.5-34.5 13.5-28.5 13.5" stroke="#191919" stroke-linecap="round" fill="#191919"/></g><g id="shape39" transform="translate(423 93)"><path d="M0 0 0 15" stroke="#191919" fill="none"/><path d="M3 15 0 21-3 15 3 15" stroke="#191919" stroke-linecap="round" fill="#191919"/></g></g></g></svg>