<svg width="1258" height="445" viewBox="0 0 1258 445" xmlns="http://www.w3.org/2000/svg" xmlns:xlink="http://www.w3.org/1999/xlink" overflow="hidden"><defs></defs><g id="page1" transform="translate(5.5 5.5)"><rect x="0" y="0" width="1248" height="435" fill="none"/><g id="group1" transform="translate(39 39)"><path d="M0 0 280 0 280 109 0 109 0 0Z" id="shape2" stroke="#4ED7C5" stroke-width="1.66667" stroke-dasharray="3.33334 8.33335" fill="#E9F8F5"/><g id="shape3" transform="translate(28 0)"><path d="M0 27 224 27 0 27Z" stroke="#4ED7C5" stroke-width="1.66667" stroke-dasharray="3.33334 8.33335" fill="none"/><text fill="#379E90" font-family="方正书宋简体,PingFang SC,Mircrosoft YaHei,Arial" font-size="17.3333" xml:space="preserve"><tspan x="85.6" y="17.9">镍原料</tspan></text></g></g><g id="shape4" transform="translate(47 78.5)"><path d="M116 51 116 0 0 0 0 51 116 51Z" stroke="#101843" fill="#FFFFFF"/><text fill="#191919" font-family="方正书宋简体,PingFang SC,Mircrosoft YaHei,Arial" font-size="17.3333" xml:space="preserve"><tspan x="40" y="22.4">MHP</tspan><tspan font-size="13.3333" x="3.2" y="39.2">Ni39% Co3% Mn7%</tspan></text></g><g id="shape5" transform="translate(193.646 78.5)"><path d="M116 51 116 0 0 0 0 51 116 51Z" stroke="#101843" fill="#FFFFFF"/><text fill="#191919" font-family="方正书宋简体,PingFang SC,Mircrosoft YaHei,Arial" font-size="17.3333" xml:space="preserve"><tspan x="31.6" y="22.4">高冰镍</tspan><tspan font-size="13.3333" x="22" y="39.2">Ni70% Co1%</tspan></text></g><g id="shape6" transform="translate(340.291 78.5)"><path d="M116 51 116 0 0 0 0 51 116 51Z" stroke="#101843" fill="#FFFFFF"/><text fill="#191919" font-family="方正书宋简体,PingFang SC,Mircrosoft YaHei,Arial" font-size="17.3333" xml:space="preserve"><tspan x="31.6" y="22.4">电池料</tspan><tspan font-size="13.3333" x="13.6" y="39.2">Ni+ Co+Mn 35%</tspan></text></g><g id="group7" transform="translate(477.583 39)"><path d="M0 0 431.4 0 431.4 109 0 109 0 0Z" id="shape8" stroke="#FF7E79" stroke-width="1.66667" stroke-dasharray="3.33334 8.33335" fill="#FFECEC"/><g id="shape9" transform="translate(43.1417 0)"><path d="M0 27 345.1 27 0 27Z" stroke="#FF7E79" stroke-width="1.66667" stroke-dasharray="3.33334 8.33335" fill="none"/><text fill="#BC5B57" font-family="方正书宋简体,PingFang SC,Mircrosoft YaHei,Arial" font-size="17.3333" xml:space="preserve"><tspan x="146.2" y="17.9">钴原料</tspan></text></g></g><g id="shape10" transform="translate(486.937 78.5)"><path d="M116 51 116 0 0 0 0 51 116 51Z" stroke="#101843" fill="#FFFFFF"/><text fill="#191919" font-family="方正书宋简体,PingFang SC,Mircrosoft YaHei,Arial" font-size="17.3333" xml:space="preserve"><tspan x="5.2" y="22.4">粗制氢氧化钴</tspan><tspan font-size="13.3333" x="20" y="39.2">Co35% Mn4%</tspan></text></g><g id="shape11" transform="translate(633.583 78.5)"><path d="M116 51 116 0 0 0 0 51 116 51Z" stroke="#101843" fill="#FFFFFF"/><text fill="#191919" font-family="方正书宋简体,PingFang SC,Mircrosoft YaHei,Arial" font-size="17.3333" xml:space="preserve"><tspan x="31.6" y="22.4">硫化矿</tspan><tspan font-size="13.3333" x="42" y="39.2">Co7%</tspan></text></g><g id="shape12" transform="translate(780.228 78.5)"><path d="M116 51 116 0 0 0 0 51 116 51Z" stroke="#101843" fill="#FFFFFF"/><text fill="#191919" font-family="方正书宋简体,PingFang SC,Mircrosoft YaHei,Arial" font-size="17.3333" xml:space="preserve"><tspan x="31.6" y="22.4">白合金</tspan><tspan font-size="13.3333" x="37.2" y="39.2">Co 13%</tspan></text></g><g id="group13" transform="translate(915.811 39)"><path d="M0 0 293.2 0 293.2 109 0 109 0 0Z" id="shape14" stroke="#467DFE" stroke-width="1.66667" stroke-dasharray="3.33334 8.33335" fill="#E9ECFF"/><g id="shape15" transform="translate(29.3189 0)"><path d="M0 27 234.6 27 0 27Z" stroke="#467DFE" stroke-width="1.66667" stroke-dasharray="3.33334 8.33335" fill="none"/><text fill="#315ABB" font-family="方正书宋简体,PingFang SC,Mircrosoft YaHei,Arial" font-size="17.3333" xml:space="preserve"><tspan x="90.9" y="17.9">锂原料</tspan></text></g></g><g id="shape16" transform="translate(926.874 78.5)"><path d="M116 51 116 0 0 0 0 51 116 51Z" stroke="#101843" fill="#FFFFFF"/><text fill="#191919" font-family="方正书宋简体,PingFang SC,Mircrosoft YaHei,Arial" font-size="17.3333" xml:space="preserve"><tspan x="31.6" y="29.9">锂辉石</tspan></text></g><g id="shape17" transform="translate(1073.52 78.5)"><path d="M116 51 116 0 0 0 0 51 116 51Z" stroke="#101843" fill="#FFFFFF"/><text fill="#191919" font-family="方正书宋简体,PingFang SC,Mircrosoft YaHei,Arial" font-size="17.3333" xml:space="preserve"><tspan x="22.8" y="29.9">透锂长石</tspan></text></g><g id="shape18" transform="translate(193.646 211.75)"><path d="M116 51 116 0 0 0 0 51 116 51Z" stroke="#101843" fill="#FFFFFF"/><text fill="#191919" font-family="方正书宋简体,PingFang SC,Mircrosoft YaHei,Arial" font-size="17.3333" xml:space="preserve"><tspan x="31.6" y="29.9">硫酸镍</tspan></text></g><g id="shape19" transform="translate(340.291 211.75)"><path d="M116 51 116 0 0 0 0 51 116 51Z" stroke="#101843" fill="#FFFFFF"/><text fill="#191919" font-family="方正书宋简体,PingFang SC,Mircrosoft YaHei,Arial" font-size="17.3333" xml:space="preserve"><tspan x="31.6" y="29.9">硫酸锰</tspan></text></g><g id="shape20" transform="translate(486.937 211.75)"><path d="M116 51 116 0 0 0 0 51 116 51Z" stroke="#101843" fill="#FFFFFF"/><text fill="#191919" font-family="方正书宋简体,PingFang SC,Mircrosoft YaHei,Arial" font-size="17.3333" xml:space="preserve"><tspan x="31.6" y="29.9">硫酸钴</tspan></text></g><g id="shape21" transform="translate(633.583 211.75)"><path d="M116 51 116 0 0 0 0 51 116 51Z" stroke="#101843" fill="#FFFFFF"/><text fill="#191919" font-family="方正书宋简体,PingFang SC,Mircrosoft YaHei,Arial" font-size="17.3333" xml:space="preserve"><tspan x="31.6" y="29.9">氯化钴</tspan></text></g><g id="shape22" transform="translate(193.646 345)"><path d="M116 51 116 0 0 0 0 51 116 51Z" stroke="#101843" fill="#FFFFFF"/><text fill="#191919" font-family="方正书宋简体,PingFang SC,Mircrosoft YaHei,Arial" font-size="17.3333" xml:space="preserve"><tspan x="40.4" y="29.9">电镍</tspan></text></g><g id="shape23" transform="translate(340.291 345)"><path d="M116 51 116 0 0 0 0 51 116 51Z" stroke="#101843" fill="#FFFFFF"/><text fill="#191919" font-family="方正书宋简体,PingFang SC,Mircrosoft YaHei,Arial" font-size="17.3333" xml:space="preserve"><tspan x="14" y="29.9">三元前驱体</tspan></text></g><g id="shape24" transform="translate(486.937 345)"><path d="M116 51 116 0 0 0 0 51 116 51Z" stroke="#101843" fill="#FFFFFF"/><text fill="#191919" font-family="方正书宋简体,PingFang SC,Mircrosoft YaHei,Arial" font-size="17.3333" xml:space="preserve"><tspan x="40.4" y="29.9">四钴</tspan></text></g><g id="shape25" transform="translate(633.583 345)"><path d="M116 51 116 0 0 0 0 51 116 51Z" stroke="#101843" fill="#FFFFFF"/><text fill="#191919" font-family="方正书宋简体,PingFang SC,Mircrosoft YaHei,Arial" font-size="17.3333" xml:space="preserve"><tspan x="40.4" y="29.9">电钴</tspan></text></g><g id="shape26" transform="translate(780.228 345)"><path d="M116 51 116 0 0 0 0 51 116 51Z" stroke="#101843" fill="#FFFFFF"/><text fill="#191919" font-family="方正书宋简体,PingFang SC,Mircrosoft YaHei,Arial" font-size="17.3333" xml:space="preserve"><tspan x="31.6" y="29.9">碳酸钴</tspan></text></g><g id="shape27" transform="translate(926.874 345)"><path d="M116 51 116 0 0 0 0 51 116 51Z" stroke="#101843" fill="#FFFFFF"/><text fill="#191919" font-family="方正书宋简体,PingFang SC,Mircrosoft YaHei,Arial" font-size="17.3333" xml:space="preserve"><tspan x="22.8" y="29.9">氢氧化钴</tspan></text></g><g id="shape28" transform="translate(1073.52 345)"><path d="M116 51 116 0 0 0 0 51 116 51Z" stroke="#101843" fill="#FFFFFF"/><text fill="#191919" font-family="方正书宋简体,PingFang SC,Mircrosoft YaHei,Arial" font-size="17.3333" xml:space="preserve"><tspan x="31.6" y="29.9">碳酸锂</tspan></text></g><g id="shape29" transform="translate(1073.52 211.75)"><path d="M116 51 116 0 0 0 0 51 116 51Z" stroke="#101843" fill="#FFFFFF"/><text fill="#191919" font-family="方正书宋简体,PingFang SC,Mircrosoft YaHei,Arial" font-size="17.3333" xml:space="preserve"><tspan x="22.8" y="29.9">硫酸锂液</tspan></text></g><g id="shape30" transform="translate(105 129.5)"><path d="M0 0 0 53.5 146.6 53.5 146.6 76.3" stroke="#191919" fill="none"/><path d="M149.6 76.3 146.6 82.3 143.6 76.3 149.6 76.3" stroke="#191919" stroke-linecap="round" fill="#191919"/></g><g id="shape31" transform="translate(251.646 183)"><path d="M0 0 146.6 0 146.6 22.8" stroke="#191919" fill="none"/><path d="M149.6 22.8 146.6 28.8 143.6 22.8 149.6 22.8" stroke="#191919" stroke-linecap="round" fill="#191919"/></g><g id="shape32" transform="translate(105 129.5)"><path d="M0 0 0 53.5 439.9 53.5 439.9 76.3" stroke="#191919" fill="none"/><path d="M442.9 76.3 439.9 82.3 436.9 76.3 442.9 76.3" stroke="#191919" stroke-linecap="round" fill="#191919"/></g><g id="shape33" transform="translate(105 129.5)"><path d="M0 0 0 53.5 586.6 53.5 586.6 76.3" stroke="#191919" fill="none"/><path d="M589.6 76.3 586.6 82.3 583.6 76.3 589.6 76.3" stroke="#191919" stroke-linecap="round" fill="#191919"/></g><path d="M0 0 0 53.5" id="shape34" stroke="#191919" fill="none" transform="translate(251.646 129.5)"/><path d="M0 0 0 53.5" id="shape35" stroke="#191919" fill="none" transform="translate(398.291 129.5)"/><path d="M0 0 0 53.5" id="shape36" stroke="#191919" fill="none" transform="translate(544.937 129.5)"/><path d="M0 0 -0 53.5" id="shape37" stroke="#191919" fill="none" transform="translate(691.583 129.5)"/><g id="shape38" transform="translate(838.228 129.5)"><path d="M0 0 0 53.5-146.6 53.5-146.6 76.3" stroke="#191919" fill="none"/><path d="M-143.6 76.3-146.6 82.3-149.6 76.3-143.6 76.3" stroke="#191919" stroke-linecap="round" fill="#191919"/></g><g id="shape39" transform="translate(251.646 262.75)"><path d="M0 0 0 76.3" stroke="#191919" fill="none"/><path d="M3 76.3 0 82.3-3 76.3 3 76.3" stroke="#191919" stroke-linecap="round" fill="#191919"/></g><g id="shape40" transform="translate(251.646 262.75)"><path d="M0 0 0 55 117.9 55 117.9 77" stroke="#191919" fill="none"/><path d="M120.9 77 117.9 83 114.9 77 120.9 77" stroke="#191919" stroke-linecap="round" fill="#191919"/></g><g id="shape41" transform="translate(398.291 262.75)"><path d="M0 0 -0 76.3" stroke="#191919" fill="none"/><path d="M3 76.3 -0 82.3-3 76.3 3 76.3" stroke="#191919" stroke-linecap="round" fill="#191919"/></g><g id="shape42" transform="translate(544.937 262.75)"><path d="M0 0 0 76.3" stroke="#191919" fill="none"/><path d="M3 76.3 0 82.3-3 76.3 3 76.3" stroke="#191919" stroke-linecap="round" fill="#191919"/></g><g id="shape43" transform="translate(544.937 262.75)"><path d="M0 0 0 54.3 146.6 54.3 146.6 76.3" stroke="#191919" fill="none"/><path d="M149.6 76.3 146.6 82.3 143.6 76.3 149.6 76.3" stroke="#191919" stroke-linecap="round" fill="#191919"/></g><g id="shape44" transform="translate(544.937 262.75)"><path d="M0 0 0 54.3 293.3 54.3 293.3 76.3" stroke="#191919" fill="none"/><path d="M296.3 76.3 293.3 82.3 290.3 76.3 296.3 76.3" stroke="#191919" stroke-linecap="round" fill="#191919"/></g><g id="shape45" transform="translate(544.937 262.75)"><path d="M0 0 0 54.3 439.9 54.3 439.9 76.3" stroke="#191919" fill="none"/><path d="M442.9 76.3 439.9 82.3 436.9 76.3 442.9 76.3" stroke="#191919" stroke-linecap="round" fill="#191919"/></g><g id="shape46" transform="translate(516.347 262.75)"><path d="M0 0 0 54.3-88.3 54.3-88.3 76.3" stroke="#191919" fill="none"/><path d="M-85.3 76.3-88.3 82.3-91.3 76.3-85.3 76.3" stroke="#191919" stroke-linecap="round" fill="#191919"/></g><path d="M0 0 0 54.3" id="shape47" stroke="#191919" fill="none" transform="translate(691.583 262.75)"/><g id="shape48" transform="translate(1131.52 129.5)"><path d="M0 0 0 76.3" stroke="#191919" fill="none"/><path d="M3 76.3 0 82.3-3 76.3 3 76.3" stroke="#191919" stroke-linecap="round" fill="#191919"/></g><g id="shape49" transform="translate(984.874 129.5)"><path d="M0 0 0 53.5 146.6 53.5 146.6 76.3" stroke="#191919" fill="none"/><path d="M149.6 76.3 146.6 82.3 143.6 76.3 149.6 76.3" stroke="#191919" stroke-linecap="round" fill="#191919"/></g><g id="shape50" transform="translate(1131.52 262.75)"><path d="M0 0 0 76.3" stroke="#191919" fill="none"/><path d="M3 76.3 0 82.3-3 76.3 3 76.3" stroke="#191919" stroke-linecap="round" fill="#191919"/></g><g id="shape51" transform="translate(428.451 129.5)"><path d="M0 0 0 38.5 110.5 38.5C110.5 35.2 113.2 32.5 116.5 32.5 119.8 32.5 122.5 35.2 122.5 38.5L257.1 38.5C257.1 35.2 259.8 32.5 263.1 32.5 266.4 32.5 269.1 35.2 269.1 38.5L403.8 38.5C403.8 35.2 406.5 32.5 409.8 32.5 413.1 32.5 415.8 35.2 415.8 38.5L502.5 38.5 502.5 159.5 703.1 159.5 703.1 209.5" stroke="#191919" fill="none"/><path d="M706.1 209.5 703.1 215.5 700.1 209.5 706.1 209.5" stroke="#191919" stroke-linecap="round" fill="#191919"/></g></g></svg>