<svg width="969" height="240" viewBox="0 0 969 240" xmlns="http://www.w3.org/2000/svg" xmlns:xlink="http://www.w3.org/1999/xlink" overflow="hidden"><defs></defs><g id="page1" transform="translate(5.5 5.5)"><rect x="0" y="0" width="959" height="230" fill="none"/><g id="shape1" transform="translate(38 60)"><path d="M62 26 62 7C62 3.1 58.9 0 55 0L7 0C3.1 0 0 3.1 0 7L0 26C0 29.9 3.1 33 7 33L55 33C58.9 33 62 29.9 62 26Z" fill="#FFFFFF"/><text fill="#191919" font-family="方正书宋简体,PingFang SC,Mircrosoft YaHei,Arial" font-size="17.3333" xml:space="preserve"><tspan x="13" y="20.9">MHP</tspan></text></g><g id="shape2" transform="translate(126 60)"><path d="M100 33 100 0 0 0 0 33 100 33Z" stroke="#101843" fill="#FFFFFF"/><text fill="#191919" font-family="方正书宋简体,PingFang SC,Mircrosoft YaHei,Arial" font-size="17.3333" xml:space="preserve"><tspan x="12.8" y="20.9">球磨 浆化</tspan></text></g><g id="shape3" transform="translate(270.52 60)"><path d="M100 33 100 0 0 0 0 33 100 33Z" stroke="#101843" fill="#FFFFFF"/><text fill="#191919" font-family="方正书宋简体,PingFang SC,Mircrosoft YaHei,Arial" font-size="17.3333" xml:space="preserve"><tspan x="14.8" y="20.9">常压浸出</tspan></text></g><g id="shape4" transform="translate(393.39 60)"><path d="M69.7 33 69.7 0 0 0 0 33 69.7 33Z" stroke="#101843" fill="#FFFFFF"/><text fill="#191919" font-family="方正书宋简体,PingFang SC,Mircrosoft YaHei,Arial" font-size="17.3333" xml:space="preserve"><tspan x="17.3" y="20.9">萃取</tspan></text></g><g id="shape5" transform="translate(486 60)"><path d="M69.7 33 69.7 0 0 0 0 33 69.7 33Z" stroke="#101843" fill="#FFFFFF"/><text fill="#191919" font-family="方正书宋简体,PingFang SC,Mircrosoft YaHei,Arial" font-size="17.3333" xml:space="preserve"><tspan x="17.3" y="20.9">除油</tspan></text></g><g id="shape6" transform="translate(578.61 38.25)"><path d="M119.4 69.5 119.4 7C119.4 3.1 116.3 0 112.4 0L7 0C3.1 0 0 3.1 0 7L0 69.5C0 73.4 3.1 76.5 7 76.5L112.4 76.5C116.3 76.5 119.4 73.4 119.4 69.5Z" fill="#FFFFFF"/><text fill="#191919" font-family="方正书宋简体,PingFang SC,Mircrosoft YaHei,Arial" font-size="17.3333" xml:space="preserve"><tspan x="24.5" y="22.6">硫酸镍液</tspan><tspan x="24.5" y="42.6">硫酸钴液</tspan><tspan x="6.9" y="62.6">粗制硫酸锰液</tspan></text></g><g id="shape7" transform="translate(720.87 60)"><path d="M69.7 33 69.7 0 0 0 0 33 69.7 33Z" stroke="#101843" fill="#FFFFFF"/><text fill="#191919" font-family="方正书宋简体,PingFang SC,Mircrosoft YaHei,Arial" font-size="17.3333" xml:space="preserve"><tspan x="17.3" y="20.9">蒸发</tspan></text></g><g id="shape8" transform="translate(813.48 60)"><path d="M107.5 26 107.5 7C107.5 3.1 104.4 0 100.5 0L7 0C3.1 0 0 3.1 0 7L0 26C0 29.9 3.1 33 7 33L100.5 33C104.4 33 107.5 29.9 107.5 26Z" fill="#FFFFFF"/><text fill="#191919" font-family="方正书宋简体,PingFang SC,Mircrosoft YaHei,Arial" font-size="17.3333" xml:space="preserve"><tspan x="9.8" y="20.9">硫酸镍晶体</tspan></text></g><g id="shape9" transform="translate(100 76.5)"><path d="M0 0 20 0" stroke="#191919" fill="none"/><path d="M20-3 26 0 20 3 20-3" stroke="#191919" stroke-linecap="round" fill="#191919"/></g><g id="shape10" transform="translate(126 135)"><path d="M100 56 100 0 0 0 0 56 100 56Z" stroke="#101843" fill="#FFFFFF"/><text fill="#191919" font-family="方正书宋简体,PingFang SC,Mircrosoft YaHei,Arial" font-size="17.3333" xml:space="preserve"><tspan x="14.8" y="32.4">氧压浸出</tspan></text></g><g id="shape11" transform="translate(270.52 135)"><path d="M100 56 100 0 0 0 0 56 100 56Z" stroke="#101843" fill="#FFFFFF"/><text fill="#191919" font-family="方正书宋简体,PingFang SC,Mircrosoft YaHei,Arial" font-size="17.3333" xml:space="preserve"><tspan x="3.6" y="22.4">硫酸钠/硫酸</tspan><tspan x="23.6" y="42.4">镁蒸发</tspan></text></g><g id="shape12" transform="translate(320.52 93)"><path d="M0 0 0 36" stroke="#191919" fill="none"/><path d="M3 36 0 42-3 36 3 36" stroke="#191919" stroke-linecap="round" fill="#191919"/><text fill="#191919" font-family="方正书宋简体,PingFang SC,Mircrosoft YaHei,Arial" font-size="13.3333" xml:space="preserve"><tspan x="-13.4" y="21.4">废水</tspan></text></g><g id="shape13" transform="translate(226 76.5)"><path d="M0 0 38.5 -0" stroke="#191919" fill="none"/><path d="M38.5-3 44.5 -0 38.5 3 38.5-3" stroke="#191919" stroke-linecap="round" fill="#191919"/><text fill="#191919" font-family="方正书宋简体,PingFang SC,Mircrosoft YaHei,Arial" font-size="13.3333" xml:space="preserve"><tspan x="12.8" y="3.7">液</tspan></text></g><g id="shape14" transform="translate(189.2 93)"><path d="M0 0 0 36" stroke="#191919" fill="none"/><path d="M3 36 0 42-3 36 3 36" stroke="#191919" stroke-linecap="round" fill="#191919"/><text fill="#191919" font-family="方正书宋简体,PingFang SC,Mircrosoft YaHei,Arial" font-size="13.3333" xml:space="preserve"><tspan x="8.3" y="24.3">渣</tspan></text></g><g id="shape15" transform="translate(167.2 135)"><path d="M0 0 0-36" stroke="#191919" fill="none"/><path d="M-3-36 0-42 3-36-3-36" stroke="#191919" stroke-linecap="round" fill="#191919"/><text fill="#191919" font-family="方正书宋简体,PingFang SC,Mircrosoft YaHei,Arial" font-size="13.3333" xml:space="preserve"><tspan x="-49.1" y="-13.4">溢流液</tspan></text></g><g id="shape16" transform="translate(370.52 76.5)"><path d="M0 0 16.9 0" stroke="#191919" fill="none"/><path d="M16.9-3 22.9 0 16.9 3 16.9-3" stroke="#191919" stroke-linecap="round" fill="#191919"/></g><g id="shape17" transform="translate(464 76.5)"><path d="M0 0 16 0" stroke="#191919" fill="none"/><path d="M16-3 22 0 16 3 16-3" stroke="#191919" stroke-linecap="round" fill="#191919"/></g><g id="shape18" transform="translate(555.74 76.5)"><path d="M0 0 16.9 0" stroke="#191919" fill="none"/><path d="M16.9-3 22.9 0 16.9 3 16.9-3" stroke="#191919" stroke-linecap="round" fill="#191919"/></g><g id="shape19" transform="translate(699 76.5)"><path d="M0 0 15.9 0" stroke="#191919" fill="none"/><path d="M15.9-3 21.9 0 15.9 3 15.9-3" stroke="#191919" stroke-linecap="round" fill="#191919"/></g><g id="shape20" transform="translate(791 76.5)"><path d="M0 0 16.5 0" stroke="#191919" fill="none"/><path d="M16.5-3 22.5 0 16.5 3 16.5-3" stroke="#191919" stroke-linecap="round" fill="#191919"/></g></g></svg>