<svg width="701" height="823" viewBox="0 0 701 823" xmlns="http://www.w3.org/2000/svg" xmlns:xlink="http://www.w3.org/1999/xlink" overflow="hidden"><defs></defs><g id="page2" transform="translate(5.5 5.5)"><rect x="0" y="0" width="691" height="813" fill="none"/><g id="shape1" transform="translate(289.999 39.5)"><path d="M98 70.5 98 11C98 4.9 93.1 0 87 0L11 0C4.9 0 0 4.9 0 11L0 70.5C0 76.6 4.9 81.5 11 81.5L87 81.5C93.1 81.5 98 76.6 98 70.5Z" stroke="#101843" fill="#FFFFFF"/><text fill="#191919" font-family="方正书宋简体,PingFang SC,Mircrosoft YaHei,Arial" font-size="17.3333" xml:space="preserve"><tspan x="22.6" y="22.6">原料库</tspan><tspan font-size="13.3333" x="11" y="39.5">(四钴成品、</tspan><tspan font-size="13.3333" x="5.8" y="55.5">四钴非成品、</tspan><tspan font-size="13.3333" x="3.8" y="71.5">碳酸钴非成品)</tspan></text></g><g id="shape2" transform="translate(232.999 140)"><path d="M98 56 98 0 0 0 0 56 98 56Z" stroke="#101843" fill="#FFFFFF"/><text fill="#191919" font-family="方正书宋简体,PingFang SC,Mircrosoft YaHei,Arial" font-size="17.3333" xml:space="preserve"><tspan x="5" y="22.4">地面地沟料</tspan><tspan x="22.6" y="42.4">预处理</tspan></text></g><g id="shape3" transform="translate(232.999 206.5)"><path d="M98 36 98 0 0 0 0 36 98 36Z" stroke="#101843" fill="#FFFFFF"/><text fill="#191919" font-family="方正书宋简体,PingFang SC,Mircrosoft YaHei,Arial" font-size="17.3333" xml:space="preserve"><tspan x="31.4" y="22.4">浆化</tspan></text></g><g id="shape4" transform="translate(232.999 253)"><path d="M98 36 98 0 0 0 0 36 98 36Z" stroke="#101843" fill="#FFFFFF"/><text fill="#191919" font-family="方正书宋简体,PingFang SC,Mircrosoft YaHei,Arial" font-size="17.3333" xml:space="preserve"><tspan x="31.4" y="22.4">过滤</tspan></text></g><g id="shape5" transform="translate(232.999 299.5)"><path d="M98 36 98 0 0 0 0 36 98 36Z" stroke="#101843" fill="#FFFFFF"/><text fill="#191919" font-family="方正书宋简体,PingFang SC,Mircrosoft YaHei,Arial" font-size="17.3333" xml:space="preserve"><tspan x="31.4" y="22.4">压滤</tspan></text></g><g id="shape6" transform="translate(232.999 346)"><path d="M98 36 98 0 0 0 0 36 98 36Z" stroke="#101843" fill="#FFFFFF"/><text fill="#191919" font-family="方正书宋简体,PingFang SC,Mircrosoft YaHei,Arial" font-size="17.3333" xml:space="preserve"><tspan x="22.6" y="22.4">回转窑</tspan></text></g><g id="shape7" transform="translate(232.999 392.5)"><path d="M98 36 98 0 0 0 0 36 98 36Z" stroke="#101843" fill="#FFFFFF"/><text fill="#191919" font-family="方正书宋简体,PingFang SC,Mircrosoft YaHei,Arial" font-size="17.3333" xml:space="preserve"><tspan x="31.4" y="22.4">过筛</tspan></text></g><g id="shape8" transform="translate(232.999 439)"><path d="M98 36 98 0 0 0 0 36 98 36Z" stroke="#101843" fill="#FFFFFF"/><text fill="#191919" font-family="方正书宋简体,PingFang SC,Mircrosoft YaHei,Arial" font-size="17.3333" xml:space="preserve"><tspan x="31.4" y="22.4">粉碎</tspan></text></g><g id="shape9" transform="translate(232.999 485.5)"><path d="M98 56 98 0 0 0 0 56 98 56Z" stroke="#101843" fill="#FFFFFF"/><text fill="#191919" font-family="方正书宋简体,PingFang SC,Mircrosoft YaHei,Arial" font-size="17.3333" xml:space="preserve"><tspan x="22.6" y="22.4">混样机</tspan><tspan x="13.8" y="42.4">取样检测</tspan></text></g><g id="shape10" transform="translate(232.999 552)"><path d="M98 36 98 0 0 0 0 36 98 36Z" stroke="#101843" fill="#FFFFFF"/><text fill="#191919" font-family="方正书宋简体,PingFang SC,Mircrosoft YaHei,Arial" font-size="17.3333" xml:space="preserve"><tspan x="13.8" y="22.4">放料备用</tspan></text></g><g id="shape11" transform="translate(232.999 598.5)"><path d="M98 36 98 0 0 0 0 36 98 36Z" stroke="#101843" fill="#FFFFFF"/><text fill="#191919" font-family="方正书宋简体,PingFang SC,Mircrosoft YaHei,Arial" font-size="17.3333" xml:space="preserve"><tspan x="5" y="22.4">配料、混料</tspan></text></g><g id="shape12" transform="translate(232.999 645)"><path d="M98 36 98 0 0 0 0 36 98 36Z" stroke="#101843" fill="#FFFFFF"/><text fill="#191919" font-family="方正书宋简体,PingFang SC,Mircrosoft YaHei,Arial" font-size="17.3333" xml:space="preserve"><tspan x="13.8" y="22.4">取样检测</tspan></text></g><g id="shape13" transform="translate(232.999 691)"><path d="M98 36 98 0 0 0 0 36 98 36Z" stroke="#101843" fill="#FFFFFF"/><text fill="#191919" font-family="方正书宋简体,PingFang SC,Mircrosoft YaHei,Arial" font-size="17.3333" xml:space="preserve"><tspan x="31.4" y="22.4">过筛</tspan></text></g><g id="shape14" transform="translate(232.999 738)"><path d="M98 36 98 0 0 0 0 36 98 36Z" stroke="#101843" fill="#FFFFFF"/><text fill="#191919" font-family="方正书宋简体,PingFang SC,Mircrosoft YaHei,Arial" font-size="17.3333" xml:space="preserve"><tspan x="13.8" y="22.4">包装成晶</tspan></text></g><g id="shape15" transform="translate(104.999 243)"><path d="M98 56 98 0 0 0 0 56 98 56Z" stroke="#101843" fill="#FFFFFF"/><text fill="#191919" font-family="方正书宋简体,PingFang SC,Mircrosoft YaHei,Arial" font-size="17.3333" xml:space="preserve"><tspan x="31.4" y="22.4">杂物</tspan><tspan x="13.8" y="42.4">统一收集</tspan></text></g><g id="shape16" transform="translate(360.999 299.5)"><path d="M98 36 98 0 0 0 0 36 98 36Z" stroke="#101843" fill="#FFFFFF"/><text fill="#191919" font-family="方正书宋简体,PingFang SC,Mircrosoft YaHei,Arial" font-size="17.3333" xml:space="preserve"><tspan x="5" y="22.4">洗水过精滤</tspan></text></g><g id="shape17" transform="translate(409.999 299.5)"><path d="M0 0 0-56.5" stroke="#191919" fill="none"/><path d="M-3-56.5 0-62.5 3-56.5-3-56.5" stroke="#191919" stroke-linecap="round" fill="#191919"/><rect x="-34.2" y="-36.1" width="70.4" height="20" fill="#FFFFFF"/><text fill="#191919" font-family="方正书宋简体,PingFang SC,Mircrosoft YaHei,Arial" font-size="17.3333" xml:space="preserve"><tspan x="-34.2" y="-20.9">污水车间</tspan></text></g><g id="shape18" transform="translate(38.9987 363)"><path d="M98 25 98 11C98 4.9 93.1 0 87 0L11 0C4.9 0 0 4.9 0 11L0 25C0 31.1 4.9 36 11 36L87 36C93.1 36 98 31.1 98 25Z" stroke="#101843" fill="#FFFFFF"/><text fill="#191919" font-family="方正书宋简体,PingFang SC,Mircrosoft YaHei,Arial" font-size="17.3333" xml:space="preserve"><tspan x="13.8" y="22.4">四钴成品</tspan></text></g><g id="shape19" transform="translate(281.999 196)"><path d="M0 0 0 4.5" stroke="#191919" fill="none"/><path d="M3 4.5 0 10.5-3 4.5 3 4.5" stroke="#191919" stroke-linecap="round" fill="#191919"/></g><g id="shape20" transform="translate(281.999 242.5)"><path d="M0 0 0 4.5" stroke="#191919" fill="none"/><path d="M3 4.5 0 10.5-3 4.5 3 4.5" stroke="#191919" stroke-linecap="round" fill="#191919"/></g><g id="shape21" transform="translate(281.999 289)"><path d="M0 0 0 4.5" stroke="#191919" fill="none"/><path d="M3 4.5 0 10.5-3 4.5 3 4.5" stroke="#191919" stroke-linecap="round" fill="#191919"/></g><g id="shape22" transform="translate(281.999 335.5)"><path d="M0 0 0 4.5" stroke="#191919" fill="none"/><path d="M3 4.5 0 10.5-3 4.5 3 4.5" stroke="#191919" stroke-linecap="round" fill="#191919"/></g><g id="shape23" transform="translate(281.999 382)"><path d="M0 0 0 4.5" stroke="#191919" fill="none"/><path d="M3 4.5 0 10.5-3 4.5 3 4.5" stroke="#191919" stroke-linecap="round" fill="#191919"/></g><g id="shape24" transform="translate(281.999 428.5)"><path d="M0 0 0 4.5" stroke="#191919" fill="none"/><path d="M3 4.5 0 10.5-3 4.5 3 4.5" stroke="#191919" stroke-linecap="round" fill="#191919"/></g><g id="shape25" transform="translate(281.999 475)"><path d="M0 0 0 4.5" stroke="#191919" fill="none"/><path d="M3 4.5 0 10.5-3 4.5 3 4.5" stroke="#191919" stroke-linecap="round" fill="#191919"/></g><g id="shape26" transform="translate(281.999 541.5)"><path d="M0 0 0 4.5" stroke="#191919" fill="none"/><path d="M3 4.5 0 10.5-3 4.5 3 4.5" stroke="#191919" stroke-linecap="round" fill="#191919"/></g><g id="shape27" transform="translate(281.999 588)"><path d="M0 0 0 4.5" stroke="#191919" fill="none"/><path d="M3 4.5 0 10.5-3 4.5 3 4.5" stroke="#191919" stroke-linecap="round" fill="#191919"/></g><g id="shape28" transform="translate(281.999 634.5)"><path d="M0 0 0 4.5" stroke="#191919" fill="none"/><path d="M3 4.5 0 10.5-3 4.5 3 4.5" stroke="#191919" stroke-linecap="round" fill="#191919"/></g><g id="shape29" transform="translate(281.999 681)"><path d="M0 0 0 4" stroke="#191919" fill="none"/><path d="M3 4 0 10-3 4 3 4" stroke="#191919" stroke-linecap="round" fill="#191919"/></g><g id="shape30" transform="translate(281.999 727)"><path d="M0 0 0 5" stroke="#191919" fill="none"/><path d="M3 5 0 11-3 5 3 5" stroke="#191919" stroke-linecap="round" fill="#191919"/></g><g id="shape31" transform="translate(232.999 271)"><path d="M0 0-24 0" stroke="#191919" fill="none"/><path d="M-24 3-30 0-24-3-24 3" stroke="#191919" stroke-linecap="round" fill="#191919"/></g><g id="shape32" transform="translate(330.999 317.5)"><path d="M0 0 24 0" stroke="#191919" fill="none"/><path d="M24-3 30 0 24 3 24-3" stroke="#191919" stroke-linecap="round" fill="#191919"/></g><g id="shape33" transform="translate(489.999 243)"><path d="M98 45 98 11C98 4.9 93.1 0 87 0L11 0C4.9 0 0 4.9 0 11L0 45C0 51.1 4.9 56 11 56L87 56C93.1 56 98 51.1 98 45Z" stroke="#101843" fill="#FFFFFF"/><text fill="#191919" font-family="方正书宋简体,PingFang SC,Mircrosoft YaHei,Arial" font-size="17.3333" xml:space="preserve"><tspan x="22.6" y="22.4">碳酸钴</tspan><tspan x="5" y="42.4">除尘除铁料</tspan></text></g><g id="shape34" transform="translate(538.999 299)"><path d="M0 0 0 65-202 65" stroke="#191919" fill="none"/><path d="M-202 68-208 65-202 62-202 68" stroke="#191919" stroke-linecap="round" fill="#191919"/></g><g id="shape35" transform="translate(553.999 392.5)"><path d="M98 45 98 11C98 4.9 93.1 0 87 0L11 0C4.9 0 0 4.9 0 11L0 45C0 51.1 4.9 56 11 56L87 56C93.1 56 98 51.1 98 45Z" stroke="#101843" fill="#FFFFFF"/><text fill="#191919" font-family="方正书宋简体,PingFang SC,Mircrosoft YaHei,Arial" font-size="17.3333" xml:space="preserve"><tspan x="31.4" y="22.4">四钴</tspan><tspan x="5" y="42.4">除尘除铁料</tspan></text></g><g id="shape36" transform="translate(602.999 448.5)"><path d="M0 0 0 168-266 168" stroke="#191919" fill="none"/><path d="M-266 171-272 168-266 165-266 171" stroke="#191919" stroke-linecap="round" fill="#191919"/></g><g id="shape37" transform="translate(538.999 128.001)"><path d="M0 0 64 0 64 258" stroke="#191919" fill="none"/><path d="M67 258 64 264 61 258 67 258" stroke="#191919" stroke-linecap="round" fill="#191919"/></g><g id="shape38" transform="translate(338.999 121)"><path d="M0 0 0 7 200 7 200 116" stroke="#191919" fill="none"/><path d="M203 116 200 122 197 116 203 116" stroke="#191919" stroke-linecap="round" fill="#191919"/></g><g id="shape39" transform="translate(338.999 121)"><path d="M0 0 0 7-57 7-57 13" stroke="#191919" fill="none"/><path d="M-54 13-57 19-60 13-54 13" stroke="#191919" stroke-linecap="round" fill="#191919"/></g><g id="shape40" transform="translate(281.999 128)"><path d="M0 0-194 0-194 229" stroke="#191919" fill="none"/><path d="M-191 229-194 235-197 229-191 229" stroke="#191919" stroke-linecap="round" fill="#191919"/></g><g id="shape41" transform="translate(87.9987 399)"><path d="M0 0 0 217.5 139 217.5" stroke="#191919" fill="none"/><path d="M139 214.5 145 217.5 139 220.5 139 214.5" stroke="#191919" stroke-linecap="round" fill="#191919"/></g></g></svg>