<svg width="461" height="607" viewBox="0 0 461 607" xmlns="http://www.w3.org/2000/svg" xmlns:xlink="http://www.w3.org/1999/xlink" overflow="hidden"><defs></defs><g id="page4" transform="translate(5.5 5.5)"><rect x="0" y="0" width="451" height="597" fill="none"/><g id="shape1" transform="translate(125 37.5)"><path d="M126 29 126 7C126 3.1 122.9 0 119 0L7 0C3.1 0 0 3.1 0 7L0 29C0 32.9 3.1 36 7 36L119 36C122.9 36 126 32.9 126 29Z" fill="#FFFFFF"/><text fill="#191919" font-family="方正书宋简体,PingFang SC,Mircrosoft YaHei,Arial" font-size="17.3333" xml:space="preserve"><tspan x="10.2" y="22.4">萃取硫酸钴液</tspan></text></g><g id="shape2" transform="translate(125 98)"><path d="M126 36 126 0 0 0 0 36 126 36Z" stroke="#101843" fill="#FFFFFF"/><text fill="#191919" font-family="方正书宋简体,PingFang SC,Mircrosoft YaHei,Arial" font-size="17.3333" xml:space="preserve"><tspan x="10.2" y="22.4">电积前液配制</tspan></text></g><g id="shape3" transform="translate(125 158.5)"><path d="M126 36 126 0 0 0 0 36 126 36Z" stroke="#101843" fill="#FFFFFF"/><text fill="#191919" font-family="方正书宋简体,PingFang SC,Mircrosoft YaHei,Arial" font-size="17.3333" xml:space="preserve"><tspan x="19" y="22.4">精密过滤器</tspan></text></g><g id="shape4" transform="translate(125 219)"><path d="M126 36 126 0 0 0 0 36 126 36Z" stroke="#101843" fill="#FFFFFF"/><text fill="#191919" font-family="方正书宋简体,PingFang SC,Mircrosoft YaHei,Arial" font-size="17.3333" xml:space="preserve"><tspan x="19" y="22.4">电积前液槽</tspan></text></g><g id="shape5" transform="translate(188 73.5)"><path d="M0 0 0 18.5" stroke="#191919" fill="none"/><path d="M3 18.5 0 24.5-3 18.5 3 18.5" stroke="#191919" stroke-linecap="round" fill="#191919"/></g><g id="shape6" transform="translate(188 134)"><path d="M0 0 0 18.5" stroke="#191919" fill="none"/><path d="M3 18.5 0 24.5-3 18.5 3 18.5" stroke="#191919" stroke-linecap="round" fill="#191919"/></g><g id="shape7" transform="translate(188 194.5)"><path d="M0 0 0 18.5" stroke="#191919" fill="none"/><path d="M3 18.5 0 24.5-3 18.5 3 18.5" stroke="#191919" stroke-linecap="round" fill="#191919"/></g><g id="shape8" transform="translate(71 279.5)"><path d="M90 36 90 0 0 0 0 36 90 36Z" stroke="#101843" fill="#FFFFFF"/><text fill="#191919" font-family="方正书宋简体,PingFang SC,Mircrosoft YaHei,Arial" font-size="17.3333" xml:space="preserve"><tspan x="18.6" y="22.4">种板槽</tspan></text></g><g id="shape9" transform="translate(214 279.5)"><path d="M90 36 90 0 0 0 0 36 90 36Z" stroke="#101843" fill="#FFFFFF"/><text fill="#191919" font-family="方正书宋简体,PingFang SC,Mircrosoft YaHei,Arial" font-size="17.3333" xml:space="preserve"><tspan x="18.6" y="22.4">生产槽</tspan></text></g><g id="shape10" transform="translate(188 255)"><path d="M0 0 0 12-72 12-72 18" stroke="#191919" fill="none"/><path d="M-69 18-72 24-75 18-69 18" stroke="#191919" stroke-linecap="round" fill="#191919"/></g><g id="shape11" transform="translate(188 255)"><path d="M0 0 0 12 71 12 71 18" stroke="#191919" fill="none"/><path d="M74 18 71 24 68 18 74 18" stroke="#191919" stroke-linecap="round" fill="#191919"/></g><g id="shape12" transform="translate(125 340)"><path d="M126 36 126 0 0 0 0 36 126 36Z" stroke="#101843" fill="#FFFFFF"/><text fill="#191919" font-family="方正书宋简体,PingFang SC,Mircrosoft YaHei,Arial" font-size="17.3333" xml:space="preserve"><tspan x="19" y="22.4">始极片制作</tspan></text></g><g id="shape13" transform="translate(125 400.5)"><path d="M126 36 126 0 0 0 0 36 126 36Z" stroke="#101843" fill="#FFFFFF"/><text fill="#191919" font-family="方正书宋简体,PingFang SC,Mircrosoft YaHei,Arial" font-size="17.3333" xml:space="preserve"><tspan x="27.8" y="22.4">电积后液</tspan></text></g><g id="shape14" transform="translate(105.56 315.5)"><path d="M0 0 0 43 13.4 43" stroke="#191919" fill="none"/><path d="M13.4 40 19.4 43 13.4 46 13.4 40" stroke="#191919" stroke-linecap="round" fill="#191919"/></g><g id="shape15" transform="translate(251 358)"><path d="M0 0 18.4 0 18.4-37" stroke="#191919" fill="none"/><path d="M15.4-37 18.4-43 21.4-37 15.4-37" stroke="#191919" stroke-linecap="round" fill="#191919"/></g><g id="shape16" transform="translate(88.28 315.5)"><path d="M0 0 0 103.5 30.7 103.5" stroke="#191919" fill="none"/><path d="M30.7 100.5 36.7 103.5 30.7 106.5 30.7 100.5" stroke="#191919" stroke-linecap="round" fill="#191919"/></g><g id="shape17" transform="translate(251 418.5)"><path d="M6 0 37 0 37-103.5" stroke="#191919" fill="none"/><path d="M6 3 0 0 6-3 6 3" stroke="#191919" stroke-linecap="round" fill="#191919"/></g><g id="shape18" transform="translate(71 461)"><path d="M90 36 90 0 0 0 0 36 90 36Z" stroke="#101843" fill="#FFFFFF"/><text fill="#191919" font-family="方正书宋简体,PingFang SC,Mircrosoft YaHei,Arial" font-size="17.3333" xml:space="preserve"><tspan x="27.4" y="22.4">调酸</tspan></text></g><g id="shape19" transform="translate(214 461)"><path d="M90 36 90 0 0 0 0 36 90 36Z" stroke="#101843" fill="#FFFFFF"/><text fill="#191919" font-family="方正书宋简体,PingFang SC,Mircrosoft YaHei,Arial" font-size="17.3333" xml:space="preserve"><tspan x="27.4" y="22.4">沉钴</tspan></text></g><g id="shape20" transform="translate(214 521.5)"><path d="M90 36 90 0 0 0 0 36 90 36Z" stroke="#101843" fill="#FFFFFF"/><text fill="#191919" font-family="方正书宋简体,PingFang SC,Mircrosoft YaHei,Arial" font-size="17.3333" xml:space="preserve"><tspan x="9.8" y="22.4">沉钴压滤</tspan></text></g><g id="shape21" transform="translate(188 436.5)"><path d="M0 0 0 11.5 71 11.5 71 18.5" stroke="#191919" fill="none"/><path d="M74 18.5 71 24.5 68 18.5 74 18.5" stroke="#191919" stroke-linecap="round" fill="#191919"/></g><g id="shape22" transform="translate(188 436.5)"><path d="M0 0 0 11.5-72 11.5-72 18.5" stroke="#191919" fill="none"/><path d="M-69 18.5-72 24.5-75 18.5-69 18.5" stroke="#191919" stroke-linecap="round" fill="#191919"/></g><g id="shape23" transform="translate(259 497)"><path d="M0 0 0 18.5" stroke="#191919" fill="none"/><path d="M3 18.5 0 24.5-3 18.5 3 18.5" stroke="#191919" stroke-linecap="round" fill="#191919"/></g><g id="shape24" transform="translate(71 521.5)"><path d="M90 36 90 0 0 0 0 36 90 36Z" stroke="#101843" fill="#FFFFFF"/><text fill="#191919" font-family="方正书宋简体,PingFang SC,Mircrosoft YaHei,Arial" font-size="17.3333" xml:space="preserve"><tspan x="9.8" y="22.4">调酸压滤</tspan></text></g><g id="shape25" transform="translate(116 497)"><path d="M0 0 0 18.5" stroke="#191919" fill="none"/><path d="M3 18.5 0 24.5-3 18.5 3 18.5" stroke="#191919" stroke-linecap="round" fill="#191919"/></g><g id="shape26" transform="translate(214 539.5)"><path d="M0 0-28 0-28-60.5-47-60.5" stroke="#191919" fill="none"/><path d="M-47-57.5-53-60.5-47-63.5-47-57.5" stroke="#191919" stroke-linecap="round" fill="#191919"/><rect x="-34.2" y="-40.9" width="14.4" height="16" fill="#FFFFFF"/><text fill="#191919" font-family="方正书宋简体,PingFang SC,Mircrosoft YaHei,Arial" font-size="13.3333" xml:space="preserve"><tspan x="-34.2" y="-28.9">渣</tspan></text></g><g id="shape27" transform="translate(71 539.5)"><path d="M0 0-28 0-28-302.5 48-302.5" stroke="#191919" fill="none"/><path d="M48-305.5 54-302.5 48-299.5 48-305.5" stroke="#191919" stroke-linecap="round" fill="#191919"/></g><g id="shape28" transform="translate(357 279.5)"><path d="M46 29 46 7C46 3.1 42.9 0 39 0L7 0C3.1 0 0 3.1 0 7L0 29C0 32.9 3.1 36 7 36L39 36C42.9 36 46 32.9 46 29Z" fill="#FFFFFF"/><text fill="#191919" font-family="方正书宋简体,PingFang SC,Mircrosoft YaHei,Arial" font-size="17.3333" xml:space="preserve"><tspan x="5.4" y="22.4">钴板</tspan></text></g><g id="shape29" transform="translate(304 297.5)"><path d="M0 0 47 0" stroke="#191919" fill="none"/><path d="M47-3 53 0 47 3 47-3" stroke="#191919" stroke-linecap="round" fill="#191919"/></g><g id="shape30" transform="translate(357 333.5)"><path d="M46 76 46 0 0 0 0 76 46 76Z" stroke="#101843" fill="#FFFFFF"/><text fill="#191919" font-family="方正书宋简体,PingFang SC,Mircrosoft YaHei,Arial" font-size="17.3333" xml:space="preserve"><tspan x="5.4" y="22.4">洗板</tspan><tspan x="5.4" y="42.4">剪板</tspan><tspan x="5.4" y="62.4">挑板</tspan></text></g><g id="shape31" transform="translate(380 315.5)"><path d="M0 0 0 12" stroke="#191919" fill="none"/><path d="M3 12 0 18-3 12 3 12" stroke="#191919" stroke-linecap="round" fill="#191919"/></g><g id="shape32" transform="translate(357 461)"><path d="M46 48 46 0 0 0 0 48 46 48Z" stroke="#101843" fill="#FFFFFF"/><text fill="#191919" font-family="方正书宋简体,PingFang SC,Mircrosoft YaHei,Arial" font-size="17.3333" xml:space="preserve"><tspan x="5.4" y="18.4">包装</tspan><tspan x="5.4" y="38.4">入库</tspan></text></g><g id="shape33" transform="translate(380 409.5)"><path d="M0 0 0 45.5" stroke="#191919" fill="none"/><path d="M3 45.5 0 51.5-3 45.5 3 45.5" stroke="#191919" stroke-linecap="round" fill="#191919"/></g><g id="shape34" transform="translate(287 37.5)"><path d="M126 29 126 7C126 3.1 122.9 0 119 0L7 0C3.1 0 0 3.1 0 7L0 29C0 32.9 3.1 36 7 36L119 36C122.9 36 126 32.9 126 29Z" fill="#FFFFFF"/><text fill="#191919" font-family="方正书宋简体,PingFang SC,Mircrosoft YaHei,Arial" font-size="17.3333" xml:space="preserve"><tspan x="19" y="22.4">硫酸钴晶体</tspan></text></g><g id="shape35" transform="translate(350 73.5)"><path d="M0 0 0 42.5-93 42.5" stroke="#191919" fill="none"/><path d="M-93 45.5-99 42.5-93 39.5-93 45.5" stroke="#191919" stroke-linecap="round" fill="#191919"/></g></g></svg>