<svg width="780" height="144" viewBox="0 0 780 144" xmlns="http://www.w3.org/2000/svg" xmlns:xlink="http://www.w3.org/1999/xlink" overflow="hidden"><defs></defs><g id="page2" transform="translate(5.5 5.5)"><rect x="0" y="0" width="770" height="134" fill="none"/><g id="shape1" transform="translate(37.8 38.675)"><path d="M62 49 62 7C62 3.1 58.9 0 55 0L7 0C3.1 0 0 3.1 0 7L0 49C0 52.9 3.1 56 7 56L55 56C58.9 56 62 52.9 62 49Z" fill="#FFFFFF"/><text fill="#191919" font-family="方正书宋简体,PingFang SC,Mircrosoft YaHei,Arial" font-size="17.3333" xml:space="preserve"><tspan x="4.6" y="32.4">高冰镍</tspan></text></g><g id="shape2" transform="translate(122.297 38.675)"><path d="M69.7 56 69.7 0 0 0 0 56 69.7 56Z" stroke="#101843" fill="#FFFFFF"/><text fill="#191919" font-family="方正书宋简体,PingFang SC,Mircrosoft YaHei,Arial" font-size="17.3333" xml:space="preserve"><tspan x="17.3" y="32.4">球磨</tspan></text></g><g id="shape3" transform="translate(214.533 38.675)"><path d="M100 56 100 0 0 0 0 56 100 56Z" stroke="#101843" fill="#FFFFFF"/><text fill="#191919" font-family="方正书宋简体,PingFang SC,Mircrosoft YaHei,Arial" font-size="17.3333" xml:space="preserve"><tspan x="32.4" y="22.4">两段</tspan><tspan x="14.8" y="42.4">常压浸出</tspan></text></g><g id="shape4" transform="translate(459.527 38.675)"><path d="M69.7 56 69.7 0 0 0 0 56 69.7 56Z" stroke="#101843" fill="#FFFFFF"/><text fill="#191919" font-family="方正书宋简体,PingFang SC,Mircrosoft YaHei,Arial" font-size="17.3333" xml:space="preserve"><tspan x="17.3" y="32.4">萃取</tspan></text></g><g id="shape5" transform="translate(551.763 38.675)"><path d="M69.7 56 69.7 0 0 0 0 56 69.7 56Z" stroke="#101843" fill="#FFFFFF"/><text fill="#191919" font-family="方正书宋简体,PingFang SC,Mircrosoft YaHei,Arial" font-size="17.3333" xml:space="preserve"><tspan x="17.3" y="32.4">除油</tspan></text></g><g id="shape6" transform="translate(644 38.4625)"><path d="M87.6 49 87.6 7C87.6 3.1 84.5 0 80.6 0L7 0C3.1 0 0 3.1 0 7L0 49C0 52.9 3.1 56 7 56L80.6 56C84.5 56 87.6 52.9 87.6 49Z" fill="#FFFFFF"/><text fill="#191919" font-family="方正书宋简体,PingFang SC,Mircrosoft YaHei,Arial" font-size="17.3333" xml:space="preserve"><tspan x="8.6" y="22.4">硫酸镍液</tspan><tspan x="8.6" y="42.4">硫酸钴液</tspan></text></g><g id="shape7" transform="translate(99.8 66.675)"><path d="M0 0 16.5 0" stroke="#191919" fill="none"/><path d="M16.5-3 22.5 0 16.5 3 16.5-3" stroke="#191919" stroke-linecap="round" fill="#191919"/></g><g id="shape8" transform="translate(529.267 66.675)"><path d="M0 0 16.5 0" stroke="#191919" fill="none"/><path d="M16.5-3 22.5 0 16.5 3 16.5-3" stroke="#191919" stroke-linecap="round" fill="#191919"/></g><g id="shape9" transform="translate(621.503 66.675)"><path d="M0 0 11.4 0 11.4-0.2 16.5-0.2" stroke="#191919" fill="none"/><path d="M16.5-3.2 22.5-0.2 16.5 2.8 16.5-3.2" stroke="#191919" stroke-linecap="round" fill="#191919"/></g><g id="shape10" transform="translate(337.03 38.675)"><path d="M100 56 100 0 0 0 0 56 100 56Z" stroke="#101843" fill="#FFFFFF"/><text fill="#191919" font-family="方正书宋简体,PingFang SC,Mircrosoft YaHei,Arial" font-size="17.3333" xml:space="preserve"><tspan x="32.4" y="22.4">两段</tspan><tspan x="14.8" y="42.4">氧压浸出</tspan></text></g><g id="shape11" transform="translate(193 66.675)"><path d="M0 0 15.5 0" stroke="#191919" fill="none"/><path d="M15.5-3 21.5 0 15.5 3 15.5-3" stroke="#191919" stroke-linecap="round" fill="#191919"/></g><g id="shape12" transform="translate(314.533 66.675)"><path d="M0 0 16.5 0" stroke="#191919" fill="none"/><path d="M16.5-3 22.5 0 16.5 3 16.5-3" stroke="#191919" stroke-linecap="round" fill="#191919"/></g><g id="shape13" transform="translate(437.03 66.675)"><path d="M0 0 16.5 0" stroke="#191919" fill="none"/><path d="M16.5-3 22.5 0 16.5 3 16.5-3" stroke="#191919" stroke-linecap="round" fill="#191919"/></g></g></svg>