<svg width="722" height="745" viewBox="0 0 722 745" xmlns="http://www.w3.org/2000/svg" xmlns:xlink="http://www.w3.org/1999/xlink" overflow="hidden"><defs></defs><g id="page8" transform="translate(5.5 5.5)"><rect x="0" y="0" width="712" height="735" fill="none"/><g id="shape1" transform="translate(248.62 102.315)"><path d="M112 38.3 112 0 0 0 0 38.3 112 38.3Z" stroke="#000000" fill="none"/><text fill="#191919" font-family="方正书宋简体,PingFang SC,Mircrosoft YaHei,Arial" font-size="17.3333" xml:space="preserve"><tspan x="20.8" y="23.5">板换预热</tspan></text></g><g id="shape2" transform="translate(248.62 164.113)"><path d="M112 38.3 112 0 0 0 0 38.3 112 38.3Z" stroke="#000000" fill="none"/><text fill="#191919" font-family="方正书宋简体,PingFang SC,Mircrosoft YaHei,Arial" font-size="17.3333" xml:space="preserve"><tspan x="20.8" y="23.9">一效蒸发</tspan></text></g><g id="shape3" transform="translate(248.62 225.912)"><path d="M112 38.3 112 0 0 0 0 38.3 112 38.3Z" stroke="#000000" fill="none"/><text fill="#191919" font-family="方正书宋简体,PingFang SC,Mircrosoft YaHei,Arial" font-size="17.3333" xml:space="preserve"><tspan x="20.8" y="23.9">二效蒸发</tspan></text></g><g id="shape4" transform="translate(248.62 287.71)"><path d="M112 38.3 112 0 0 0 0 38.3 112 38.3Z" stroke="#000000" fill="none"/><text fill="#191919" font-family="方正书宋简体,PingFang SC,Mircrosoft YaHei,Arial" font-size="17.3333" xml:space="preserve"><tspan x="29.6" y="23.9">盐浆桶</tspan></text></g><g id="shape5" transform="translate(304.62 70.7654)"><path d="M0 0 0 25.5" stroke="#191919" fill="none"/><path d="M3 25.5 0 31.5-3 25.5 3 25.5" stroke="#191919" stroke-linecap="round" fill="#191919"/></g><g id="shape6" transform="translate(304.62 140.615)"><path d="M0 0 0 17.5" stroke="#191919" fill="none"/><path d="M3 17.5 0 23.5-3 17.5 3 17.5" stroke="#191919" stroke-linecap="round" fill="#191919"/></g><g id="shape7" transform="translate(304.62 264.212)"><path d="M0 0 0 17.5" stroke="#191919" fill="none"/><path d="M3 17.5 0 23.5-3 17.5 3 17.5" stroke="#191919" stroke-linecap="round" fill="#191919"/></g><g id="shape8" transform="translate(236.62 37.4654)"><text font-family="方正书宋简体,PingFang SC,Mircrosoft YaHei,Arial" font-size="14.6667" xml:space="preserve"><tspan x="10.4" y="20.5">硫酸钠预处理后液</tspan></text></g><g id="shape9" transform="translate(304.62 202.413)"><path d="M0 0 0 17.5" stroke="#191919" fill="none"/><path d="M3 17.5 0 23.5-3 17.5 3 17.5" stroke="#191919" stroke-linecap="round" fill="#191919"/></g><g id="shape10" transform="translate(248.62 349.508)"><path d="M112 38.3 112 0 0 0 0 38.3 112 38.3Z" stroke="#000000" fill="none"/><text fill="#191919" font-family="方正书宋简体,PingFang SC,Mircrosoft YaHei,Arial" font-size="17.3333" xml:space="preserve"><tspan x="29.6" y="23.9">增稠器</tspan></text></g><g id="shape11" transform="translate(248.62 411.306)"><path d="M112 38.3 112 0 0 0 0 38.3 112 38.3Z" stroke="#000000" fill="none"/><text fill="#191919" font-family="方正书宋简体,PingFang SC,Mircrosoft YaHei,Arial" font-size="17.3333" xml:space="preserve"><tspan x="29.6" y="23.9">离心器</tspan></text></g><g id="shape12" transform="translate(248.62 473.104)"><path d="M112 38.3 112 0 0 0 0 38.3 112 38.3Z" stroke="#000000" fill="none"/><text fill="#191919" font-family="方正书宋简体,PingFang SC,Mircrosoft YaHei,Arial" font-size="17.3333" xml:space="preserve"><tspan x="29.6" y="23.9">流化床</tspan></text></g><g id="shape13" transform="translate(248.62 534.902)"><path d="M112 38.3 112 0 0 0 0 38.3 112 38.3Z" stroke="#000000" fill="none"/><text fill="#191919" font-family="方正书宋简体,PingFang SC,Mircrosoft YaHei,Arial" font-size="17.3333" xml:space="preserve"><tspan x="29.6" y="23.9">振动筛</tspan></text></g><g id="shape14" transform="translate(248.62 596.7)"><path d="M112 38.3 112 0 0 0 0 38.3 112 38.3Z" stroke="#000000" fill="none"/><text fill="#191919" font-family="方正书宋简体,PingFang SC,Mircrosoft YaHei,Arial" font-size="17.3333" xml:space="preserve"><tspan x="29.6" y="23.9">下料仓</tspan></text></g><g id="shape15" transform="translate(432.5 102.315)"><path d="M121 38.3 121 0 0 0 0 38.3 121 38.3Z" stroke="#000000" fill="none"/><text fill="#191919" font-family="方正书宋简体,PingFang SC,Mircrosoft YaHei,Arial" font-size="17.3333" xml:space="preserve"><tspan x="7.7" y="23.5">冷凝水中转槽</tspan></text></g><g id="shape16" transform="translate(71 164.113)"><path d="M112 38.3 112 0 0 0 0 38.3 112 38.3Z" stroke="#000000" fill="none"/><text fill="#191919" font-family="方正书宋简体,PingFang SC,Mircrosoft YaHei,Arial" font-size="17.3333" xml:space="preserve"><tspan x="14.8" y="23.9">冷凝水桶A</tspan></text></g><g id="shape17" transform="translate(71 225.912)"><path d="M112 38.3 112 0 0 0 0 38.3 112 38.3Z" stroke="#000000" fill="none"/><text fill="#191919" font-family="方正书宋简体,PingFang SC,Mircrosoft YaHei,Arial" font-size="17.3333" xml:space="preserve"><tspan x="15.6" y="23.9">冷凝水桶B</tspan></text></g><g id="shape18" transform="translate(248.62 183.263)"><path d="M0 0-59.6 0" stroke="#191919" fill="none"/><path d="M-59.6 3-65.6 0-59.6-3-59.6 3" stroke="#191919" stroke-linecap="round" fill="#191919"/><rect x="-48.4" y="-9.3" width="43.2" height="16.8" fill="#FFFFFF"/><text fill="#191919" font-family="方正书宋简体,PingFang SC,Mircrosoft YaHei,Arial" font-size="14.6667" xml:space="preserve"><tspan x="-48.4" y="3.5">冷凝水</tspan></text></g><g id="shape19" transform="translate(248.62 245.062)"><path d="M0 0-59.6 0" stroke="#191919" fill="none"/><path d="M-59.6 3-65.6 0-59.6-3-59.6 3" stroke="#191919" stroke-linecap="round" fill="#191919"/><rect x="-50.3" y="-9.3" width="43.2" height="16.8" fill="#FFFFFF"/><text fill="#191919" font-family="方正书宋简体,PingFang SC,Mircrosoft YaHei,Arial" font-size="14.6667" xml:space="preserve"><tspan x="-50.3" y="3.5">冷凝水</tspan></text></g><g id="shape20" transform="translate(71 183.263)"><path d="M0 0-28 0-28-61.8 171.6-61.8" stroke="#191919" fill="none"/><path d="M171.6-64.8 177.6-61.8 171.6-58.8 171.6-64.8" stroke="#191919" stroke-linecap="round" fill="#191919"/></g><path d="M0 0-28 0-28-61.8" id="shape21" stroke="#191919" fill="none" transform="translate(71 245.062)"/><g id="shape22" transform="translate(432.5 225.912)"><path d="M121 38.3 121 0 0 0 0 38.3 121 38.3Z" stroke="#000000" fill="none"/><text fill="#191919" font-family="方正书宋简体,PingFang SC,Mircrosoft YaHei,Arial" font-size="17.3333" xml:space="preserve"><tspan x="16.5" y="23.9">开路母液槽</tspan></text></g><g id="shape23" transform="translate(432.5 275.85)"><path d="M121 38.3 121 0 0 0 0 38.3 121 38.3Z" stroke="#000000" fill="none"/><text fill="#191919" font-family="方正书宋简体,PingFang SC,Mircrosoft YaHei,Arial" font-size="17.3333" xml:space="preserve"><tspan x="16.5" y="23.9">循环母液槽</tspan></text></g><g id="shape24" transform="translate(360.62 245.062)"><path d="M0 0 65.9 0" stroke="#191919" fill="none"/><path d="M65.9-3 71.9 0 65.9 3 65.9-3" stroke="#191919" stroke-linecap="round" fill="#191919"/></g><g id="shape25" transform="translate(360.62 245.062)"><path d="M0 0 43.4 0 43.4 49.9 65.9 49.9" stroke="#191919" fill="none"/><path d="M65.9 46.9 71.9 49.9 65.9 52.9 65.9 46.9" stroke="#191919" stroke-linecap="round" fill="#191919"/></g><g id="shape26" transform="translate(584 275.85)"><text font-family="方正书宋简体,PingFang SC,Mircrosoft YaHei,Arial" font-size="14.6667" xml:space="preserve"><tspan x="9" y="14.1">钠线预处理</tspan><tspan x="16.2" y="30.9">除磷工段</tspan></text></g><g id="shape27" transform="translate(584 225.912)"><text font-family="方正书宋简体,PingFang SC,Mircrosoft YaHei,Arial" font-size="14.6667" xml:space="preserve"><tspan x="16.2" y="23">污水车间</tspan></text></g><g id="shape28" transform="translate(553.5 245.062)"><path d="M0 0 24.5 -0" stroke="#191919" fill="none"/><path d="M24.5-3 30.5 -0 24.5 3 24.5-3" stroke="#191919" stroke-linecap="round" fill="#191919"/></g><g id="shape29" transform="translate(553.5 295)"><path d="M0 0 24.5 0" stroke="#191919" fill="none"/><path d="M24.5-3 30.5 0 24.5 3 24.5-3" stroke="#191919" stroke-linecap="round" fill="#191919"/></g><g id="shape30" transform="translate(360.62 121.465)"><path d="M0 0 65.9 -0" stroke="#191919" fill="none"/><path d="M65.9-3 71.9 -0 65.9 3 65.9-3" stroke="#191919" stroke-linecap="round" fill="#191919"/></g><g id="shape31" transform="translate(553.5 121.465)"><path d="M0 0 75 0 75 104.5" stroke="#191919" fill="none"/><path d="M78 104.5 75 110.5 72 104.5 78 104.5" stroke="#191919" stroke-linecap="round" fill="#191919"/></g><g id="shape32" transform="translate(304.62 327)"><path d="M0 0 0 16.5" stroke="#191919" fill="none"/><path d="M3 16.5 0 22.5-3 16.5 3 16.5" stroke="#191919" stroke-linecap="round" fill="#191919"/></g><g id="shape33" transform="translate(304.62 387.808)"><path d="M0 0 0 17.5" stroke="#191919" fill="none"/><path d="M3 17.5 0 23.5-3 17.5 3 17.5" stroke="#191919" stroke-linecap="round" fill="#191919"/></g><g id="shape34" transform="translate(304.62 449.606)"><path d="M0 0 0 17.5" stroke="#191919" fill="none"/><path d="M3 17.5 0 23.5-3 17.5 3 17.5" stroke="#191919" stroke-linecap="round" fill="#191919"/></g><g id="shape35" transform="translate(304.62 511.404)"><path d="M0 0 0 17.5" stroke="#191919" fill="none"/><path d="M3 17.5 0 23.5-3 17.5 3 17.5" stroke="#191919" stroke-linecap="round" fill="#191919"/></g><g id="shape36" transform="translate(304.62 574)"><path d="M0 0 0 16.7" stroke="#191919" fill="none"/><path d="M3 16.7 0 22.7-3 16.7 3 16.7" stroke="#191919" stroke-linecap="round" fill="#191919"/></g><g id="shape37" transform="translate(248.62 658.498)"><text font-family="方正书宋简体,PingFang SC,Mircrosoft YaHei,Arial" font-size="14.6667" xml:space="preserve"><tspan x="34.4" y="23">硫酸钠</tspan></text></g><g id="shape38" transform="translate(304.62 635)"><path d="M0 0 0 18" stroke="#191919" fill="none"/><path d="M3 18 0 24-3 18 3 18" stroke="#191919" stroke-linecap="round" fill="#191919"/></g><g id="shape39" transform="translate(248.62 368.658)"><path d="M0 0-28.6 0-28.6-61.8-6-61.8" stroke="#191919" fill="none"/><path d="M-6-64.8 0-61.8-6-58.8-6-64.8" stroke="#191919" stroke-linecap="round" fill="#191919"/></g><g id="shape40" transform="translate(360.62 430.456)"><path d="M0 0 27.4 0 27.4-174.2 6-174.2" stroke="#191919" fill="none"/><path d="M6-171.2 0-174.2 6-177.2 6-171.2" stroke="#191919" stroke-linecap="round" fill="#191919"/></g></g></svg>