<svg width="1132" height="804" viewBox="0 0 1132 804" xmlns="http://www.w3.org/2000/svg" xmlns:xlink="http://www.w3.org/1999/xlink" overflow="hidden"><defs></defs><g id="page3" transform="translate(5.5 5.5)"><rect x="0" y="0" width="1123" height="794" fill="none"/><g id="shape1" transform="translate(76 75)"><path d="M113 31 113 7C113 3.1 109.9 0 106 0L7 0C3.1 0 0 3.1 0 7L0 31C0 34.9 3.1 38 7 38L106 38C109.9 38 113 34.9 113 31Z" stroke="#101843" fill="#FFFFFF"/><text fill="#191919" font-family="方正书宋简体,PingFang SC,Mircrosoft YaHei,Arial" font-size="13.3333" xml:space="preserve"><tspan x="27.7" y="22.7">反铜锰液</tspan></text></g><g id="shape2" transform="translate(132.5 113)"><path d="M0 0 -0 9.3" stroke="#191919" fill="none"/><path d="M3 9.3 -0 15.3-3 9.3 3 9.3" stroke="#191919" stroke-linecap="round" fill="#191919"/></g><g id="shape3" transform="translate(76 128.286)"><path d="M113 38 113 0 0 0 0 38 113 38Z" stroke="#101843" fill="#FFFFFF"/><text fill="#191919" font-family="方正书宋简体,PingFang SC,Mircrosoft YaHei,Arial" font-size="13.3333" xml:space="preserve"><tspan x="34.9" y="22.7">预萃钙</tspan></text></g><g id="shape4" transform="translate(76 179.571)"><path d="M113 38 113 0 0 0 0 38 113 38Z" stroke="#101843" fill="#FFFFFF"/><text fill="#191919" font-family="方正书宋简体,PingFang SC,Mircrosoft YaHei,Arial" font-size="13.3333" xml:space="preserve"><tspan x="42.1" y="22.7">沉铜</tspan></text></g><g id="shape5" transform="translate(76 231.857)"><path d="M113 38 113 0 0 0 0 38 113 38Z" stroke="#101843" fill="#FFFFFF"/><text fill="#191919" font-family="方正书宋简体,PingFang SC,Mircrosoft YaHei,Arial" font-size="13.3333" xml:space="preserve"><tspan x="34.9" y="22.7">除钙镁</tspan></text></g><g id="shape6" transform="translate(76 284.143)"><path d="M113 38 113 0 0 0 0 38 113 38Z" stroke="#101843" fill="#FFFFFF"/><text fill="#191919" font-family="方正书宋简体,PingFang SC,Mircrosoft YaHei,Arial" font-size="13.3333" xml:space="preserve"><tspan x="42.1" y="22.7">萃锌</tspan></text></g><g id="shape7" transform="translate(76 336.429)"><path d="M113 38 113 0 0 0 0 38 113 38Z" stroke="#101843" fill="#FFFFFF"/><text fill="#191919" font-family="方正书宋简体,PingFang SC,Mircrosoft YaHei,Arial" font-size="13.3333" xml:space="preserve"><tspan x="42.1" y="22.7">萃锰</tspan></text></g><g id="shape8" transform="translate(76 388.714)"><path d="M113 38 113 0 0 0 0 38 113 38Z" stroke="#101843" fill="#FFFFFF"/><text fill="#191919" font-family="方正书宋简体,PingFang SC,Mircrosoft YaHei,Arial" font-size="13.3333" xml:space="preserve"><tspan x="42.1" y="22.7">除油</tspan></text></g><g id="shape9" transform="translate(76 441)"><path d="M113 43 113 7C113 3.1 109.9 0 106 0L7 0C3.1 0 0 3.1 0 7L0 43C0 46.9 3.1 50 7 50L106 50C109.9 50 113 46.9 113 43Z" stroke="#101843" fill="#FFFFFF"/><text fill="#191919" font-family="方正书宋简体,PingFang SC,Mircrosoft YaHei,Arial" font-size="13.3333" xml:space="preserve"><tspan x="20.5" y="21.2">硫酸锰溶液</tspan><tspan x="13.3" y="37.2">（转新能源）</tspan></text></g><g id="shape10" transform="translate(227 75)"><path d="M113 31 113 7C113 3.1 109.9 0 106 0L7 0C3.1 0 0 3.1 0 7L0 31C0 34.9 3.1 38 7 38L106 38C109.9 38 113 34.9 113 31Z" stroke="#101843" fill="#FFFFFF"/><text fill="#191919" font-family="方正书宋简体,PingFang SC,Mircrosoft YaHei,Arial" font-size="13.3333" xml:space="preserve"><tspan x="34.9" y="22.7">硫铵液</tspan></text></g><g id="shape11" transform="translate(227 197)"><path d="M113 38 113 0 0 0 0 38 113 38Z" stroke="#101843" fill="#FFFFFF"/><text fill="#191919" font-family="方正书宋简体,PingFang SC,Mircrosoft YaHei,Arial" font-size="13.3333" xml:space="preserve"><tspan x="27.7" y="22.7">树脂除油</tspan></text></g><g id="shape12" transform="translate(227 319)"><path d="M113 38 113 0 0 0 0 38 113 38Z" stroke="#101843" fill="#FFFFFF"/><text fill="#191919" font-family="方正书宋简体,PingFang SC,Mircrosoft YaHei,Arial" font-size="13.3333" xml:space="preserve"><tspan x="13.7" y="22.7">MVR蒸发结晶</tspan></text></g><g id="shape13" transform="translate(227 441)"><path d="M113 43 113 7C113 3.1 109.9 0 106 0L7 0C3.1 0 0 3.1 0 7L0 43C0 46.9 3.1 50 7 50L106 50C109.9 50 113 46.9 113 43Z" stroke="#101843" fill="#FFFFFF"/><text fill="#191919" font-family="方正书宋简体,PingFang SC,Mircrosoft YaHei,Arial" font-size="13.3333" xml:space="preserve"><tspan x="20.5" y="21.2">硫酸铵产品</tspan><tspan x="27.7" y="37.2">（外售）</tspan></text></g><g id="shape14" transform="translate(378 75)"><path d="M113 31 113 7C113 3.1 109.9 0 106 0L7 0C3.1 0 0 3.1 0 7L0 31C0 34.9 3.1 38 7 38L106 38C109.9 38 113 34.9 113 31Z" stroke="#101843" fill="#FFFFFF"/><text fill="#191919" font-family="方正书宋简体,PingFang SC,Mircrosoft YaHei,Arial" font-size="13.3333" xml:space="preserve"><tspan x="27.7" y="22.7">萃取废水</tspan></text></g><g id="shape15" transform="translate(378 169.5)"><path d="M113 38 113 0 0 0 0 38 113 38Z" stroke="#101843" fill="#FFFFFF"/><text fill="#191919" font-family="方正书宋简体,PingFang SC,Mircrosoft YaHei,Arial" font-size="13.3333" xml:space="preserve"><tspan x="42.1" y="22.7">除磷</tspan></text></g><g id="shape16" transform="translate(378 264)"><path d="M113 38 113 0 0 0 0 38 113 38Z" stroke="#101843" fill="#FFFFFF"/><text fill="#191919" font-family="方正书宋简体,PingFang SC,Mircrosoft YaHei,Arial" font-size="13.3333" xml:space="preserve"><tspan x="42.1" y="22.7">除重</tspan></text></g><g id="shape17" transform="translate(378 358.5)"><path d="M113 38 113 0 0 0 0 38 113 38Z" stroke="#101843" fill="#FFFFFF"/><text fill="#191919" font-family="方正书宋简体,PingFang SC,Mircrosoft YaHei,Arial" font-size="13.3333" xml:space="preserve"><tspan x="34.9" y="22.7">除氨氮</tspan></text></g><g id="shape18" transform="translate(378 453)"><path d="M113 31 113 7C113 3.1 109.9 0 106 0L7 0C3.1 0 0 3.1 0 7L0 31C0 34.9 3.1 38 7 38L106 38C109.9 38 113 34.9 113 31Z" stroke="#101843" fill="#FFFFFF"/><text fill="#191919" font-family="方正书宋简体,PingFang SC,Mircrosoft YaHei,Arial" font-size="13.3333" xml:space="preserve"><tspan x="27.7" y="22.7">废水外排</tspan></text></g><g id="shape19" transform="translate(132.5 166.286)"><path d="M0 0 0 7.3" stroke="#191919" fill="none"/><path d="M3 7.3 0 13.3-3 7.3 3 7.3" stroke="#191919" stroke-linecap="round" fill="#191919"/></g><g id="shape20" transform="translate(132.5 217.571)"><path d="M0 0 0 8.3" stroke="#191919" fill="none"/><path d="M3 8.3 0 14.3-3 8.3 3 8.3" stroke="#191919" stroke-linecap="round" fill="#191919"/></g><g id="shape21" transform="translate(132.5 269.857)"><path d="M0 0 0 8.3" stroke="#191919" fill="none"/><path d="M3 8.3 0 14.3-3 8.3 3 8.3" stroke="#191919" stroke-linecap="round" fill="#191919"/></g><g id="shape22" transform="translate(132.5 322.143)"><path d="M0 0 0 8.3" stroke="#191919" fill="none"/><path d="M3 8.3 0 14.3-3 8.3 3 8.3" stroke="#191919" stroke-linecap="round" fill="#191919"/></g><g id="shape23" transform="translate(132.5 374.429)"><path d="M0 0 0 8.3" stroke="#191919" fill="none"/><path d="M3 8.3 0 14.3-3 8.3 3 8.3" stroke="#191919" stroke-linecap="round" fill="#191919"/></g><g id="shape24" transform="translate(132.5 426.714)"><path d="M0 0 0 1.3 0 6.3 0 8.3" stroke="#191919" fill="none"/><path d="M3 8.3 0 14.3-3 8.3 3 8.3" stroke="#191919" stroke-linecap="round" fill="#191919"/></g><g id="shape25" transform="translate(283.5 113)"><path d="M0 0 0 78" stroke="#191919" fill="none"/><path d="M3 78 0 84-3 78 3 78" stroke="#191919" stroke-linecap="round" fill="#191919"/></g><g id="shape26" transform="translate(283.5 357)"><path d="M0 0 0 78" stroke="#191919" fill="none"/><path d="M3 78 0 84-3 78 3 78" stroke="#191919" stroke-linecap="round" fill="#191919"/></g><g id="shape27" transform="translate(283.5 235)"><path d="M0 0 0 78" stroke="#191919" fill="none"/><path d="M3 78 0 84-3 78 3 78" stroke="#191919" stroke-linecap="round" fill="#191919"/></g><g id="shape28" transform="translate(434.5 113)"><path d="M0 0 0 50.5" stroke="#191919" fill="none"/><path d="M3 50.5 0 56.5-3 50.5 3 50.5" stroke="#191919" stroke-linecap="round" fill="#191919"/></g><g id="shape29" transform="translate(434.5 207.5)"><path d="M0 0 0 50.5" stroke="#191919" fill="none"/><path d="M3 50.5 0 56.5-3 50.5 3 50.5" stroke="#191919" stroke-linecap="round" fill="#191919"/></g><g id="shape30" transform="translate(434.5 302)"><path d="M0 0 0 50.5" stroke="#191919" fill="none"/><path d="M3 50.5 0 56.5-3 50.5 3 50.5" stroke="#191919" stroke-linecap="round" fill="#191919"/></g><g id="shape31" transform="translate(434.5 396.5)"><path d="M0 0 0 50.5" stroke="#191919" fill="none"/><path d="M3 50.5 0 56.5-3 50.5 3 50.5" stroke="#191919" stroke-linecap="round" fill="#191919"/></g></g></svg>