<svg width="495" height="569" viewBox="0 0 495 569" xmlns="http://www.w3.org/2000/svg" xmlns:xlink="http://www.w3.org/1999/xlink" overflow="hidden"><defs></defs><g id="page1" transform="translate(5.5 5.5)"><rect x="0" y="0" width="485" height="559" fill="none"/><g id="shape1" transform="translate(101.47 39.1441)"><path d="M85.6 18.3 85.6 7C85.6 3.1 82.5 0 78.6 0L7 0C3.1 0 0 3.1 0 7L0 18.3C0 22.2 3.1 25.3 7 25.3L78.6 25.3C82.5 25.3 85.6 22.2 85.6 18.3Z" stroke="#101843" fill="#FFFFFF"/><text fill="#191919" font-family="方正书宋简体,PingFang SC,Mircrosoft YaHei,Arial" font-size="13.3333" xml:space="preserve"><tspan x="28.4" y="16.7">吨袋</tspan></text></g><g id="shape2" transform="translate(101.47 88.8241)"><path d="M85.6 25.3 85.6 0 0 0 0 25.3 85.6 25.3Z" stroke="#101843" fill="#FFFFFF"/><text fill="#191919" font-family="方正书宋简体,PingFang SC,Mircrosoft YaHei,Arial" font-size="13.3333" xml:space="preserve"><tspan x="6.8" y="16.4">皮带输送机</tspan></text></g><g id="shape3" transform="translate(101.47 138.503)"><path d="M85.6 25.3 85.6 0 0 0 0 25.3 85.6 25.3Z" stroke="#101843" fill="#FFFFFF"/><text fill="#191919" font-family="方正书宋简体,PingFang SC,Mircrosoft YaHei,Arial" font-size="13.3333" xml:space="preserve"><tspan x="6.8" y="16.7">单轴破碎机</tspan></text></g><g id="shape4" transform="translate(101.47 192.587)"><path d="M85.6 25.3 85.6 0 0 0 0 25.3 85.6 25.3Z" stroke="#101843" fill="#FFFFFF"/><text fill="#191919" font-family="方正书宋简体,PingFang SC,Mircrosoft YaHei,Arial" font-size="13.3333" xml:space="preserve"><tspan x="6.8" y="16.7">螺旋输送机</tspan></text></g><g id="shape5" transform="translate(101.47 246.673)"><path d="M85.6 25.3 85.6 0 0 0 0 25.3 85.6 25.3Z" stroke="#101843" fill="#FFFFFF"/><text fill="#191919" font-family="方正书宋简体,PingFang SC,Mircrosoft YaHei,Arial" font-size="13.3333" xml:space="preserve"><tspan x="6.8" y="16.4">分离沉淀池</tspan></text></g><g id="shape6" transform="translate(101.47 300.757)"><path d="M85.6 25.3 85.6 0 0 0 0 25.3 85.6 25.3Z" stroke="#101843" fill="#FFFFFF"/><text fill="#191919" font-family="方正书宋简体,PingFang SC,Mircrosoft YaHei,Arial" font-size="13.3333" xml:space="preserve"><tspan x="6.8" y="16.4">摩擦清洗机</tspan></text></g><g id="shape7" transform="translate(101.47 354.842)"><path d="M85.6 25.3 85.6 0 0 0 0 25.3 85.6 25.3Z" stroke="#101843" fill="#FFFFFF"/><text fill="#191919" font-family="方正书宋简体,PingFang SC,Mircrosoft YaHei,Arial" font-size="13.3333" xml:space="preserve"><tspan x="6.8" y="16.4">分离沉淀池</tspan></text></g><g id="shape8" transform="translate(101.47 408.926)"><path d="M85.6 25.3 85.6 0 0 0 0 25.3 85.6 25.3Z" stroke="#101843" fill="#FFFFFF"/><text fill="#191919" font-family="方正书宋简体,PingFang SC,Mircrosoft YaHei,Arial" font-size="13.3333" xml:space="preserve"><tspan x="6.8" y="16.4">摩擦清洗机</tspan></text></g><g id="shape9" transform="translate(144.285 64.462)"><path d="M0 0 0 18" stroke="#191919" fill="none"/><path d="M3 18 0 24-3 18 3 18" stroke="#191919" stroke-linecap="round" fill="#191919"/></g><g id="shape10" transform="translate(144.285 163.821)"><path d="M0 0 0 23" stroke="#191919" fill="none"/><path d="M3 23 0 29-3 23 3 23" stroke="#191919" stroke-linecap="round" fill="#191919"/></g><g id="shape11" transform="translate(144.285 114.141)"><path d="M0 0 0 17.9" stroke="#191919" fill="none"/><path d="M3 17.9 0 23.9-3 17.9 3 17.9" stroke="#191919" stroke-linecap="round" fill="#191919"/></g><g id="shape12" transform="translate(144.285 217.905)"><path d="M0 0 0 23" stroke="#191919" fill="none"/><path d="M3 23 0 29-3 23 3 23" stroke="#191919" stroke-linecap="round" fill="#191919"/></g><g id="shape13" transform="translate(144.285 271.99)"><path d="M0 0 0 23" stroke="#191919" fill="none"/><path d="M3 23 0 29-3 23 3 23" stroke="#191919" stroke-linecap="round" fill="#191919"/></g><g id="shape14" transform="translate(144.285 326.075)"><path d="M0 0 0 21.9" stroke="#191919" fill="none"/><path d="M3 21.9 0 27.9-3 21.9 3 21.9" stroke="#191919" stroke-linecap="round" fill="#191919"/></g><g id="shape15" transform="translate(144.285 380.16)"><path d="M0 0 0 21.8" stroke="#191919" fill="none"/><path d="M3 21.8 0 27.8-3 21.8 3 21.8" stroke="#191919" stroke-linecap="round" fill="#191919"/></g><g id="shape16" transform="translate(144.285 434.244)"><path d="M0 0 0 22.8" stroke="#191919" fill="none"/><path d="M3 22.8 0 28.8-3 22.8 3 22.8" stroke="#191919" stroke-linecap="round" fill="#191919"/></g><g id="shape17" transform="translate(38 246.673)"><path d="M32 18.3 32 7C32 3.1 28.9 0 25 0L7 0C3.1 0 0 3.1 0 7L0 18.3C0 22.2 3.1 25.3 7 25.3L25 25.3C28.9 25.3 32 22.2 32 18.3Z" fill="#FFFFFF"/><text fill="#191919" font-family="方正书宋简体,PingFang SC,Mircrosoft YaHei,Arial" font-size="13.3333" xml:space="preserve"><tspan x="8.8" y="16.4">水</tspan></text></g><g id="shape18" transform="translate(38 300.742)"><path d="M32 18.3 32 7C32 3.1 28.9 0 25 0L7 0C3.1 0 0 3.1 0 7L0 18.3C0 22.2 3.1 25.3 7 25.3L25 25.3C28.9 25.3 32 22.2 32 18.3Z" fill="#FFFFFF"/><text fill="#191919" font-family="方正书宋简体,PingFang SC,Mircrosoft YaHei,Arial" font-size="13.3333" xml:space="preserve"><tspan x="8.8" y="16.4">水</tspan></text></g><g id="shape19" transform="translate(38 354.843)"><path d="M32 18.3 32 7C32 3.1 28.9 0 25 0L7 0C3.1 0 0 3.1 0 7L0 18.3C0 22.2 3.1 25.3 7 25.3L25 25.3C28.9 25.3 32 22.2 32 18.3Z" fill="#FFFFFF"/><text fill="#191919" font-family="方正书宋简体,PingFang SC,Mircrosoft YaHei,Arial" font-size="13.3333" xml:space="preserve"><tspan x="8.8" y="16.4">水</tspan></text></g><g id="shape20" transform="translate(38 408.912)"><path d="M32 18.3 32 7C32 3.1 28.9 0 25 0L7 0C3.1 0 0 3.1 0 7L0 18.3C0 22.2 3.1 25.3 7 25.3L25 25.3C28.9 25.3 32 22.2 32 18.3Z" fill="#FFFFFF"/><text fill="#191919" font-family="方正书宋简体,PingFang SC,Mircrosoft YaHei,Arial" font-size="13.3333" xml:space="preserve"><tspan x="8.8" y="16.4">水</tspan></text></g><g id="shape21" transform="translate(70 259.339)"><path d="M0 0 25 -0" stroke="#191919" fill="none"/><path d="M25-3 31 -0 25 3 25-3" stroke="#191919" stroke-linecap="round" fill="#191919"/></g><g id="shape22" transform="translate(70 313.408)"><path d="M0 0 25 0" stroke="#191919" fill="none"/><path d="M25-3 31 0 25 3 25-3" stroke="#191919" stroke-linecap="round" fill="#191919"/></g><g id="shape23" transform="translate(70 367.509)"><path d="M0 0 25 -0" stroke="#191919" fill="none"/><path d="M25-3 31 -0 25 3 25-3" stroke="#191919" stroke-linecap="round" fill="#191919"/></g><g id="shape24" transform="translate(70 421.578)"><path d="M0 0 25 0" stroke="#191919" fill="none"/><path d="M25-3 31 0 25 3 25-3" stroke="#191919" stroke-linecap="round" fill="#191919"/></g><g id="shape25" transform="translate(212 246.673)"><path d="M53 18.3 53 7C53 3.1 49.9 0 46 0L7 0C3.1 0 0 3.1 0 7L0 18.3C0 22.2 3.1 25.3 7 25.3L46 25.3C49.9 25.3 53 22.2 53 18.3Z" fill="#FFFFFF"/><text fill="#191919" font-family="方正书宋简体,PingFang SC,Mircrosoft YaHei,Arial" font-size="13.3333" xml:space="preserve"><tspan x="4.9" y="16.4">清洗水</tspan></text></g><g id="shape26" transform="translate(187.1 259.332)"><path d="M0 0 18.9 0" stroke="#191919" fill="none"/><path d="M18.9-3 24.9 0 18.9 3 18.9-3" stroke="#191919" stroke-linecap="round" fill="#191919"/></g><g id="shape27" transform="translate(212 300.753)"><path d="M53 18.3 53 7C53 3.1 49.9 0 46 0L7 0C3.1 0 0 3.1 0 7L0 18.3C0 22.2 3.1 25.3 7 25.3L46 25.3C49.9 25.3 53 22.2 53 18.3Z" fill="#FFFFFF"/><text fill="#191919" font-family="方正书宋简体,PingFang SC,Mircrosoft YaHei,Arial" font-size="13.3333" xml:space="preserve"><tspan x="4.9" y="16.4">清洗水</tspan></text></g><g id="shape28" transform="translate(212 354.832)"><path d="M53 18.3 53 7C53 3.1 49.9 0 46 0L7 0C3.1 0 0 3.1 0 7L0 18.3C0 22.2 3.1 25.3 7 25.3L46 25.3C49.9 25.3 53 22.2 53 18.3Z" fill="#FFFFFF"/><text fill="#191919" font-family="方正书宋简体,PingFang SC,Mircrosoft YaHei,Arial" font-size="13.3333" xml:space="preserve"><tspan x="4.9" y="16.4">清洗水</tspan></text></g><g id="shape29" transform="translate(212 408.912)"><path d="M53 18.3 53 7C53 3.1 49.9 0 46 0L7 0C3.1 0 0 3.1 0 7L0 18.3C0 22.2 3.1 25.3 7 25.3L46 25.3C49.9 25.3 53 22.2 53 18.3Z" fill="#FFFFFF"/><text fill="#191919" font-family="方正书宋简体,PingFang SC,Mircrosoft YaHei,Arial" font-size="13.3333" xml:space="preserve"><tspan x="4.9" y="16.4">清洗水</tspan></text></g><g id="shape30" transform="translate(187.1 313.416)"><path d="M0 0 18.9 0" stroke="#191919" fill="none"/><path d="M18.9-3 24.9 0 18.9 3 18.9-3" stroke="#191919" stroke-linecap="round" fill="#191919"/></g><g id="shape31" transform="translate(187.1 367.501)"><path d="M0 0 18.9 -0" stroke="#191919" fill="none"/><path d="M18.9-3 24.9 -0 18.9 3 18.9-3" stroke="#191919" stroke-linecap="round" fill="#191919"/></g><g id="shape32" transform="translate(187.1 421.585)"><path d="M0 0 18.9 -0" stroke="#191919" fill="none"/><path d="M18.9-3 24.9 -0 18.9 3 18.9-3" stroke="#191919" stroke-linecap="round" fill="#191919"/></g><g id="shape33" transform="translate(333.5 246.658)"><path d="M76 25.3 76 0 0 0 0 25.3 76 25.3Z" stroke="#101843" fill="#FFFFFF"/><text fill="#191919" font-family="方正书宋简体,PingFang SC,Mircrosoft YaHei,Arial" font-size="13.3333" xml:space="preserve"><tspan x="9.2" y="16.4">循环水池</tspan></text></g><g id="shape34" transform="translate(333.5 300.742)"><path d="M76 25.3 76 0 0 0 0 25.3 76 25.3Z" stroke="#101843" fill="#FFFFFF"/><text fill="#191919" font-family="方正书宋简体,PingFang SC,Mircrosoft YaHei,Arial" font-size="13.3333" xml:space="preserve"><tspan x="16.4" y="16.4">压滤机</tspan></text></g><g id="shape35" transform="translate(328 408.926)"><path d="M50 18.3 50 7C50 3.1 46.9 0 43 0L7 0C3.1 0 0 3.1 0 7L0 18.3C0 22.2 3.1 25.3 7 25.3L43 25.3C46.9 25.3 50 22.2 50 18.3Z" fill="#FFFFFF"/><text fill="#191919" font-family="方正书宋简体,PingFang SC,Mircrosoft YaHei,Arial" font-size="13.3333" xml:space="preserve"><tspan x="3.4" y="16.4">清洗水</tspan></text></g><g id="shape36" transform="translate(396 408.911)"><path d="M50 18.3 50 7C50 3.1 46.9 0 43 0L7 0C3.1 0 0 3.1 0 7L0 18.3C0 22.2 3.1 25.3 7 25.3L43 25.3C46.9 25.3 50 22.2 50 18.3Z" fill="#FFFFFF"/><text fill="#191919" font-family="方正书宋简体,PingFang SC,Mircrosoft YaHei,Arial" font-size="13.3333" xml:space="preserve"><tspan x="3.4" y="16.4">回收料</tspan></text></g><g id="shape37" transform="translate(371.5 271.99)"><path d="M0 0 0 23" stroke="#191919" fill="none"/><path d="M3 23 0 29-3 23 3 23" stroke="#191919" stroke-linecap="round" fill="#191919"/></g><g id="shape38" transform="translate(371.5 326.074)"><path d="M0 0 0 20-18.5 20-18.5 76.9" stroke="#191919" fill="none"/><path d="M-15.5 76.9-18.5 82.9-21.5 76.9-15.5 76.9" stroke="#191919" stroke-linecap="round" fill="#191919"/><rect x="-25.5" y="38.3" width="16" height="9.6" fill="#FFFFFF"/><text fill="#191919" font-family="方正书宋简体,PingFang SC,Mircrosoft YaHei,Arial" font-size="8" xml:space="preserve"><tspan x="-25.5" y="45.5">滤液</tspan></text></g><g id="shape39" transform="translate(371.5 326.074)"><path d="M0 0 0 20 49.5 20 49.5 76.8" stroke="#191919" fill="none"/><path d="M52.5 76.8 49.5 82.8 46.5 76.8 52.5 76.8" stroke="#191919" stroke-linecap="round" fill="#191919"/><rect x="42.5" y="38.3" width="16" height="9.6" fill="#FFFFFF"/><text fill="#191919" font-family="方正书宋简体,PingFang SC,Mircrosoft YaHei,Arial" font-size="8" xml:space="preserve"><tspan x="42.5" y="45.5">滤渣</tspan></text></g><g id="shape40" transform="translate(101.47 463.012)"><path d="M85.6 25.3 85.6 0 0 0 0 25.3 85.6 25.3Z" stroke="#101843" fill="#FFFFFF"/><text fill="#191919" font-family="方正书宋简体,PingFang SC,Mircrosoft YaHei,Arial" font-size="13.3333" xml:space="preserve"><tspan x="6.8" y="16.7">卧式脱水机</tspan></text></g><g id="shape41" transform="translate(265 313.419)"><path d="M0 0 15 0 15-54.1 22-54.1C22-57.4 24.7-60.1 28-60.1 31.3-60.1 34-57.4 34-54.1L62.5-54.1" stroke="#191919" fill="none"/><path d="M62.5-57.1 68.5-54.1 62.5-51.1 62.5-57.1" stroke="#191919" stroke-linecap="round" fill="#191919"/></g><g id="shape42" transform="translate(265 367.498)"><path d="M0 0 15 0 15-108.2 22-108.2C22-111.5 24.7-114.2 28-114.2 31.3-114.2 34-111.5 34-108.2L62.5-108.2" stroke="#191919" fill="none"/><path d="M62.5-111.2 68.5-108.2 62.5-105.2 62.5-111.2" stroke="#191919" stroke-linecap="round" fill="#191919"/></g><g id="shape43" transform="translate(265 421.578)"><path d="M0 0 15 0 15-162.3 22-162.3C22-165.6 24.7-168.3 28-168.3 31.3-168.3 34-165.6 34-162.3L62.5-162.3" stroke="#191919" fill="none"/><path d="M62.5-165.3 68.5-162.3 62.5-159.3 62.5-165.3" stroke="#191919" stroke-linecap="round" fill="#191919"/></g><g id="shape44" transform="translate(328 421.592)"><path d="M0 0-35 0-35-189.6-183.7-189.6-183.7-180.9" stroke="#191919" fill="none"/><path d="M-180.7-180.9-183.7-174.9-186.7-180.9-180.7-180.9" stroke="#191919" stroke-linecap="round" fill="#191919"/></g><path d="M0 0 15 0 15 3.7" id="shape45" stroke="#191919" fill="none" transform="translate(265 259.339)"/><g id="shape46" transform="translate(144.285 488.33)"><path d="M0 0 0 21.7" stroke="#191919" fill="none"/><path d="M3 21.7 0 27.7-3 21.7 3 21.7" stroke="#191919" stroke-linecap="round" fill="#191919"/></g></g></svg>