<svg width="736" height="800" viewBox="0 0 736 800" xmlns="http://www.w3.org/2000/svg" xmlns:xlink="http://www.w3.org/1999/xlink" overflow="hidden"><defs></defs><g id="page4" transform="translate(5.5 5.5)"><rect x="0" y="0" width="726" height="790" fill="none"/><g id="shape1" transform="translate(221 38.25)"><path d="M100 29.5 100 7C100 3.1 96.9 0 93 0L7 0C3.1 0 0 3.1 0 7L0 29.5C0 33.4 3.1 36.5 7 36.5L93 36.5C96.9 36.5 100 33.4 100 29.5Z" fill="#FFFFFF"/><text fill="#BC5B57" font-family="方正书宋简体,PingFang SC,Mircrosoft YaHei,Arial" font-size="17.3333" xml:space="preserve"><tspan x="32.4" y="22.6">钴盐</tspan></text></g><g id="shape2" transform="translate(221 94.6458)"><path d="M100 36.5 100 0 0 0 0 36.5 100 36.5Z" stroke="#101843" fill="#FFFFFF"/><text fill="#191919" font-family="方正书宋简体,PingFang SC,Mircrosoft YaHei,Arial" font-size="17.3333" xml:space="preserve"><tspan x="32.4" y="22.6">浆化</tspan></text></g><g id="shape3" transform="translate(221 151.042)"><path d="M100 36.5 100 0 0 0 0 36.5 100 36.5Z" stroke="#101843" fill="#FFFFFF"/><text fill="#191919" font-family="方正书宋简体,PingFang SC,Mircrosoft YaHei,Arial" font-size="17.3333" xml:space="preserve"><tspan x="14.8" y="22.6">钴盐中转</tspan></text></g><g id="shape4" transform="translate(221 207.438)"><path d="M100 36.5 100 0 0 0 0 36.5 100 36.5Z" stroke="#101843" fill="#FFFFFF"/><text fill="#191919" font-family="方正书宋简体,PingFang SC,Mircrosoft YaHei,Arial" font-size="17.3333" xml:space="preserve"><tspan x="14.8" y="22.6">单酸浸出</tspan></text></g><g id="shape5" transform="translate(221 263.833)"><path d="M100 36.5 100 0 0 0 0 36.5 100 36.5Z" stroke="#101843" fill="#FFFFFF"/><text fill="#191919" font-family="方正书宋简体,PingFang SC,Mircrosoft YaHei,Arial" font-size="17.3333" xml:space="preserve"><tspan x="23.6" y="22.9">除铁铝</tspan></text></g><g id="shape6" transform="translate(221 320.229)"><path d="M100 36.5 100 0 0 0 0 36.5 100 36.5Z" stroke="#101843" fill="#FFFFFF"/><text fill="#191919" font-family="方正书宋简体,PingFang SC,Mircrosoft YaHei,Arial" font-size="17.3333" xml:space="preserve"><tspan x="32.4" y="22.9">压滤</tspan></text></g><g id="shape7" transform="translate(221 489.417)"><path d="M100 36.5 100 0 0 0 0 36.5 100 36.5Z" stroke="#101843" fill="#FFFFFF"/><text fill="#191919" font-family="方正书宋简体,PingFang SC,Mircrosoft YaHei,Arial" font-size="17.3333" xml:space="preserve"><tspan x="14.4" y="22.9">P204萃杂</tspan></text></g><g id="shape8" transform="translate(211.5 433.021)"><path d="M119 29.5 119 7C119 3.1 115.9 0 112 0L7 0C3.1 0 0 3.1 0 7L0 29.5C0 33.4 3.1 36.5 7 36.5L112 36.5C115.9 36.5 119 33.4 119 29.5Z" fill="#FFFFFF"/><text fill="#0070C0" font-family="方正书宋简体,PingFang SC,Mircrosoft YaHei,Arial" font-size="17.3333" xml:space="preserve"><tspan x="6.3" y="22.6">铵线P204原液</tspan></text></g><g id="shape9" transform="translate(271 469.521)"><path d="M0 0 0 13.9" stroke="#0070C0" fill="none"/><path d="M3 13.9 0 19.9-3 13.9 3 13.9" stroke="#0070C0" stroke-linecap="round" fill="#0070C0"/></g><g id="shape10" transform="translate(221 545.812)"><path d="M100 36.5 100 0 0 0 0 36.5 100 36.5Z" stroke="#101843" fill="#FFFFFF"/><text fill="#191919" font-family="方正书宋简体,PingFang SC,Mircrosoft YaHei,Arial" font-size="17.3333" xml:space="preserve"><tspan x="14.4" y="22.9">P507萃钴</tspan></text></g><g id="shape11" transform="translate(211.5 602.208)"><path d="M119 29.5 119 7C119 3.1 115.9 0 112 0L7 0C3.1 0 0 3.1 0 7L0 29.5C0 33.4 3.1 36.5 7 36.5L112 36.5C115.9 36.5 119 33.4 119 29.5Z" fill="#FFFFFF"/><text fill="#0070C0" font-family="方正书宋简体,PingFang SC,Mircrosoft YaHei,Arial" font-size="17.3333" xml:space="preserve"><tspan x="6.3" y="22.9">铵线P507余液</tspan></text></g><g id="shape12" transform="translate(221 658.604)"><path d="M100 36.5 100 0 0 0 0 36.5 100 36.5Z" stroke="#101843" fill="#FFFFFF"/><text fill="#191919" font-family="方正书宋简体,PingFang SC,Mircrosoft YaHei,Arial" font-size="17.3333" xml:space="preserve"><tspan x="23.6" y="22.9">氨镁线</tspan></text></g><g id="shape13" transform="translate(221 715)"><path d="M100 36.5 100 0 0 0 0 36.5 100 36.5Z" stroke="#101843" fill="#FFFFFF"/><text fill="#191919" font-family="方正书宋简体,PingFang SC,Mircrosoft YaHei,Arial" font-size="17.3333" xml:space="preserve"><tspan x="23.6" y="22.9">洗涤段</tspan></text></g><g id="shape14" transform="translate(360.351 658.604)"><path d="M176.6 29.5 176.6 7C176.6 3.1 173.5 0 169.6 0L7 0C3.1 0 0 3.1 0 7L0 29.5C0 33.4 3.1 36.5 7 36.5L169.6 36.5C173.5 36.5 176.6 33.4 176.6 29.5Z" fill="#FFFFFF"/><text fill="#0070C0" font-family="方正书宋简体,PingFang SC,Mircrosoft YaHei,Arial" font-size="17.3333" xml:space="preserve"><tspan x="3.5" y="22.9">硫铵液(硫铵车间)</tspan></text></g><g id="shape15" transform="translate(360.351 715)"><path d="M199.6 29.5 199.6 7C199.6 3.1 196.5 0 192.6 0L7 0C3.1 0 0 3.1 0 7L0 29.5C0 33.4 3.1 36.5 7 36.5L192.6 36.5C196.5 36.5 199.6 33.4 199.6 29.5Z" fill="#FFFFFF"/><text fill="#0070C0" font-family="方正书宋简体,PingFang SC,Mircrosoft YaHei,Arial" font-size="17.3333" xml:space="preserve"><tspan x="3.5" y="22.6">铵线硫酸镁液(硫铵车间)</tspan></text></g><g id="shape16" transform="translate(86 545.812)"><path d="M81 29.5 81 7C81 3.1 77.9 0 74 0L7 0C3.1 0 0 3.1 0 7L0 29.5C0 33.4 3.1 36.5 7 36.5L74 36.5C77.9 36.5 81 33.4 81 29.5Z" fill="#FFFFFF"/><text fill="#0070C0" font-family="方正书宋简体,PingFang SC,Mircrosoft YaHei,Arial" font-size="17.3333" xml:space="preserve"><tspan x="5.3" y="22.6">硫酸钴液</tspan></text></g><g id="shape17" transform="translate(271 74.75)"><path d="M0 0 0 13.9" stroke="#191919" fill="none"/><path d="M3 13.9 0 19.9-3 13.9 3 13.9" stroke="#191919" stroke-linecap="round" fill="#191919"/></g><g id="shape18" transform="translate(271 131.146)"><path d="M0 0 0 13" stroke="#191919" fill="none"/><path d="M3 13 0 19-3 13 3 13" stroke="#191919" stroke-linecap="round" fill="#191919"/></g><g id="shape19" transform="translate(271 187.542)"><path d="M0 0 0 13.9" stroke="#0070C0" fill="none"/><path d="M3 13.9 0 19.9-3 13.9 3 13.9" stroke="#0070C0" stroke-linecap="round" fill="#0070C0"/></g><g id="shape20" transform="translate(271 243.938)"><path d="M0 0 0 13.9" stroke="#0070C0" fill="none"/><path d="M3 13.9 0 19.9-3 13.9 3 13.9" stroke="#0070C0" stroke-linecap="round" fill="#0070C0"/></g><g id="shape21" transform="translate(271 300.333)"><path d="M0 0 0 13.2" stroke="#0070C0" fill="none"/><path d="M3 13.2 0 19.2-3 13.2 3 13.2" stroke="#0070C0" stroke-linecap="round" fill="#0070C0"/></g><g id="shape22" transform="translate(271 356.729)"><path d="M0 0 0 13.9" stroke="#0070C0" fill="none"/><path d="M3 13.9 0 19.9-3 13.9 3 13.9" stroke="#0070C0" stroke-linecap="round" fill="#0070C0"/><rect x="-6.2" y="0.3" width="14.4" height="16" fill="#FFFFFF"/><text fill="#0070C0" font-family="方正书宋简体,PingFang SC,Mircrosoft YaHei,Arial" font-size="13.3333" xml:space="preserve"><tspan x="-6.2" y="12.3">液</tspan></text></g><g id="shape23" transform="translate(221 376.625)"><path d="M100 36.5 100 0 0 0 0 36.5 100 36.5Z" stroke="#101843" fill="#FFFFFF"/><text fill="#191919" font-family="方正书宋简体,PingFang SC,Mircrosoft YaHei,Arial" font-size="17.3333" xml:space="preserve"><tspan x="14.8" y="22.9">二次除铁</tspan></text></g><g id="shape24" transform="translate(271 414)"><path d="M0 0 0 13" stroke="#0070C0" fill="none"/><path d="M3 13 0 19-3 13 3 13" stroke="#0070C0" stroke-linecap="round" fill="#0070C0"/></g><g id="shape25" transform="translate(271 583)"><path d="M0 0 -0 8 -0 13.2" stroke="#0070C0" fill="none"/><path d="M3 13.2 -0 19.2-3 13.2 3 13.2" stroke="#0070C0" stroke-linecap="round" fill="#0070C0"/></g><g id="shape26" transform="translate(271 638.708)"><path d="M0 0 0 1.3 0 9.3 0 13.9" stroke="#0070C0" fill="none"/><path d="M3 13.9 0 19.9-3 13.9 3 13.9" stroke="#0070C0" stroke-linecap="round" fill="#0070C0"/></g><g id="shape27" transform="translate(271 696)"><path d="M0 0 -0 8 -0 13" stroke="#0070C0" fill="none"/><path d="M3 13 -0 19-3 13 3 13" stroke="#0070C0" stroke-linecap="round" fill="#0070C0"/></g><g id="shape28" transform="translate(321 676.854)"><path d="M0 0 33.4 0" stroke="#0070C0" fill="none"/><path d="M33.4-3 39.4 0 33.4 3 33.4-3" stroke="#0070C0" stroke-linecap="round" fill="#0070C0"/></g><g id="shape29" transform="translate(321 733.25)"><path d="M0 0 33 0" stroke="#0070C0" fill="none"/><path d="M33-3 39 0 33 3 33-3" stroke="#0070C0" stroke-linecap="round" fill="#0070C0"/></g><g id="shape30" transform="translate(221 394.875)"><path d="M0 0-47 0-47-112.8-6-112.8" stroke="#BC5B57" fill="none"/><path d="M-6-115.8 0-112.8-6-109.8-6-115.8" stroke="#BC5B57" stroke-linecap="round" fill="#BC5B57"/></g><g id="shape31" transform="translate(221 394.875)"><path d="M0 0-47 0-47-169.2-6-169.2" stroke="#BC5B57" fill="none"/><path d="M-6-172.2 0-169.2-6-166.2-6-172.2" stroke="#BC5B57" stroke-linecap="round" fill="#BC5B57"/><rect x="-60.4" y="-73.4" width="28.8" height="16" fill="#FFFFFF"/><rect x="-67.6" y="-57.4" width="43.2" height="16" fill="#FFFFFF"/><text fill="#BC5B57" font-family="方正书宋简体,PingFang SC,Mircrosoft YaHei,Arial" font-size="13.3333" xml:space="preserve"><tspan x="-60.4" y="-61.4">二次</tspan><tspan x="-67.6" y="-45.4">除铁渣</tspan></text></g><g id="shape32" transform="translate(360.351 207.438)"><path d="M45 29.5 45 7C45 3.1 41.9 0 38 0L7 0C3.1 0 0 3.1 0 7L0 29.5C0 33.4 3.1 36.5 7 36.5L38 36.5C41.9 36.5 45 33.4 45 29.5Z" fill="#FFFFFF"/><text fill="#0070C0" font-family="方正书宋简体,PingFang SC,Mircrosoft YaHei,Arial" font-size="17.3333" xml:space="preserve"><tspan x="4.9" y="22.9">硫酸</tspan></text></g><g id="shape33" transform="translate(360.351 225.688)"><path d="M0 0-33.4 0" stroke="#0070C0" fill="none"/><path d="M-33.4 3-39.4 0-33.4-3-33.4 3" stroke="#0070C0" stroke-linecap="round" fill="#0070C0"/></g><g id="shape34" transform="translate(405.351 320.229)"><path d="M100 36.5 100 0 0 0 0 36.5 100 36.5Z" stroke="#101843" fill="#FFFFFF"/><text fill="#191919" font-family="方正书宋简体,PingFang SC,Mircrosoft YaHei,Arial" font-size="17.3333" xml:space="preserve"><tspan x="14.8" y="22.9">氧压3#线</tspan></text></g><g id="shape35" transform="translate(321 338.479)"><path d="M0 0 78.4 0" stroke="#BC5B57" fill="none"/><path d="M78.4-3 84.4 0 78.4 3 78.4-3" stroke="#BC5B57" stroke-linecap="round" fill="#BC5B57"/><rect x="45.7" y="-8.3" width="14.4" height="16" fill="#FFFFFF"/><text fill="#BC5B57" font-family="方正书宋简体,PingFang SC,Mircrosoft YaHei,Arial" font-size="13.3333" xml:space="preserve"><tspan x="45.7" y="3.7">渣</tspan></text></g><g id="shape36" transform="translate(437.751 320.229)"><path d="M0 0 0-38.1-110.8-38.1" stroke="#0070C0" fill="none"/><path d="M-110.8-35.1-116.8-38.1-110.8-41.1-110.8-35.1" stroke="#0070C0" stroke-linecap="round" fill="#0070C0"/><rect x="-74.1" y="-46.4" width="57.6" height="16" fill="#FFFFFF"/><text fill="#0070C0" font-family="方正书宋简体,PingFang SC,Mircrosoft YaHei,Arial" font-size="13.3333" xml:space="preserve"><tspan x="-74.1" y="-34.4">除杂后液</tspan></text></g><g id="shape37" transform="translate(438.351 197.688)"><path d="M67 49 67 7C67 3.1 63.9 0 60 0L7 0C3.1 0 0 3.1 0 7L0 49C0 52.9 3.1 56 7 56L60 56C63.9 56 67 52.9 67 49Z" fill="#FFFFFF"/><text fill="#0070C0" font-family="方正书宋简体,PingFang SC,Mircrosoft YaHei,Arial" font-size="17.3333" xml:space="preserve"><tspan x="7.1" y="22.4">白合金</tspan><tspan x="7.1" y="42.4">一段液</tspan></text></g><g id="shape38" transform="translate(471.851 253.688)"><path d="M0 0 0 60.5" stroke="#0070C0" fill="none"/><path d="M3 60.5 0 66.5-3 60.5 3 60.5" stroke="#0070C0" stroke-linecap="round" fill="#0070C0"/></g><g id="shape39" transform="translate(321 169.292)"><path d="M0 0 23 0 23 50.4C19.7 50.4 17 53.1 17 56.4 17 59.7 19.7 62.4 23 62.4L23 106.8C19.7 106.8 17 109.5 17 112.8 17 116.1 19.7 118.8 23 118.8L23 163.2C19.7 163.2 17 165.9 17 169.2 17 172.5 19.7 175.2 23 175.2L23 225.6 6 225.6" stroke="#0070C0" fill="none"/><path d="M6 228.6 0 225.6 6 222.6 6 228.6" stroke="#0070C0" stroke-linecap="round" fill="#0070C0"/></g><g id="shape40" transform="translate(543 320.229)"><path d="M69 29.5 69 7C69 3.1 65.9 0 62 0L7 0C3.1 0 0 3.1 0 7L0 29.5C0 33.4 3.1 36.5 7 36.5L62 36.5C65.9 36.5 69 33.4 69 29.5Z" fill="#FFFFFF"/><text fill="#BC5B57" font-family="方正书宋简体,PingFang SC,Mircrosoft YaHei,Arial" font-size="17.3333" xml:space="preserve"><tspan x="8.1" y="22.6">铁精粉</tspan></text></g><g id="shape41" transform="translate(505.351 338.479)"><path d="M0 0 32 0" stroke="#BC5B57" fill="none"/><path d="M32-3 38 0 32 3 32-3" stroke="#BC5B57" stroke-linecap="round" fill="#BC5B57"/></g><g id="shape42" transform="translate(221 564.062)"><path d="M0 0-48 0" stroke="#191919" fill="none"/><path d="M-48 3-54 0-48-3-48 3" stroke="#191919" stroke-linecap="round" fill="#191919"/></g><g id="shape43" transform="translate(38 489.417)"><path d="M65 29.5 65 7C65 3.1 61.9 0 58 0L7 0C3.1 0 0 3.1 0 7L0 29.5C0 33.4 3.1 36.5 7 36.5L58 36.5C61.9 36.5 65 33.4 65 29.5Z" fill="#FFFFFF"/><text fill="#0070C0" font-family="方正书宋简体,PingFang SC,Mircrosoft YaHei,Arial" font-size="17.3333" xml:space="preserve"><tspan x="6.1" y="22.6">碳酸锌</tspan></text></g><g id="shape44" transform="translate(38 440)"><path d="M65 29.5 65 7C65 3.1 61.9 0 58 0L7 0C3.1 0 0 3.1 0 7L0 29.5C0 33.4 3.1 36.5 7 36.5L58 36.5C61.9 36.5 65 33.4 65 29.5Z" fill="#FFFFFF"/><text fill="#0070C0" font-family="方正书宋简体,PingFang SC,Mircrosoft YaHei,Arial" font-size="17.3333" xml:space="preserve"><tspan x="6.1" y="22.6">硫酸锰</tspan></text></g><g id="shape45" transform="translate(38 403.5)"><path d="M65 29.5 65 7C65 3.1 61.9 0 58 0L7 0C3.1 0 0 3.1 0 7L0 29.5C0 33.4 3.1 36.5 7 36.5L58 36.5C61.9 36.5 65 33.4 65 29.5Z" fill="#FFFFFF"/><text fill="#0070C0" font-family="方正书宋简体,PingFang SC,Mircrosoft YaHei,Arial" font-size="17.3333" xml:space="preserve"><tspan x="6.1" y="22.6">硫酸铜</tspan></text></g><g id="shape46" transform="translate(221 507.667)"><path d="M0 0-112 0" stroke="#0070C0" fill="none"/><path d="M-112 3-118 0-112-3-112 3" stroke="#0070C0" stroke-linecap="round" fill="#0070C0"/><rect x="-86.8" y="-8.3" width="57.6" height="16" fill="#FFFFFF"/><text fill="#0070C0" font-family="方正书宋简体,PingFang SC,Mircrosoft YaHei,Arial" font-size="13.3333" xml:space="preserve"><tspan x="-86.8" y="3.7">反锌铝液</tspan></text></g><g id="shape47" transform="translate(221 507.667)"><path d="M0 0-20 0-20-67.7-98-67.7-98-85.9-112-85.9" stroke="#0070C0" fill="none"/><path d="M-112-82.9-118-85.9-112-88.9-112-82.9" stroke="#0070C0" stroke-linecap="round" fill="#0070C0"/></g><g id="shape48" transform="translate(221 507.667)"><path d="M0 0-20 0-20-67.7-98-67.7-98-49.4-112-49.4" stroke="#0070C0" fill="none"/><path d="M-112-46.4-118-49.4-112-52.4-112-46.4" stroke="#0070C0" stroke-linecap="round" fill="#0070C0"/><rect x="-86.8" y="-76" width="57.6" height="16" fill="#FFFFFF"/><text fill="#0070C0" font-family="方正书宋简体,PingFang SC,Mircrosoft YaHei,Arial" font-size="13.3333" xml:space="preserve"><tspan x="-86.8" y="-64">反铜锰液</tspan></text></g><g id="shape49" transform="translate(360.351 545.812)"><path d="M100 29.5 100 7C100 3.1 96.9 0 93 0L7 0C3.1 0 0 3.1 0 7L0 29.5C0 33.4 3.1 36.5 7 36.5L93 36.5C96.9 36.5 100 33.4 100 29.5Z" fill="#FFFFFF"/><text fill="#0070C0" font-family="方正书宋简体,PingFang SC,Mircrosoft YaHei,Arial" font-size="17.3333" xml:space="preserve"><tspan x="14.8" y="22.6">氯化钴液</tspan></text></g><g id="shape50" transform="translate(321 564.062)"><path d="M0 0 33 0" stroke="#191919" fill="none"/><path d="M33-3 39 0 33 3 33-3" stroke="#191919" stroke-linecap="round" fill="#191919"/></g><g id="shape51" transform="translate(499.702 545.812)"><path d="M100 36.5 100 0 0 0 0 36.5 100 36.5Z" stroke="#101843" fill="#FFFFFF"/><text fill="#191919" font-family="方正书宋简体,PingFang SC,Mircrosoft YaHei,Arial" font-size="17.3333" xml:space="preserve"><tspan x="6" y="22.9">电解循环槽</tspan></text></g><g id="shape52" transform="translate(460.351 564.062)"><path d="M0 0 33.4 0" stroke="#0070C0" fill="none"/><path d="M33.4-3 39.4 0 33.4 3 33.4-3" stroke="#0070C0" stroke-linecap="round" fill="#0070C0"/></g><g id="shape53" transform="translate(499.702 602.208)"><path d="M100 36.5 100 0 0 0 0 36.5 100 36.5Z" stroke="#101843" fill="#FFFFFF"/><text fill="#191919" font-family="方正书宋简体,PingFang SC,Mircrosoft YaHei,Arial" font-size="17.3333" xml:space="preserve"><tspan x="23.6" y="22.9">电解槽</tspan></text></g><g id="shape54" transform="translate(549.702 602.208)"><path d="M0-6 0-13.2" stroke="#0070C0" fill="none"/><path d="M3-6 0 0-3-6 3-6" stroke="#0070C0" stroke-linecap="round" fill="#0070C0"/><path d="M-3-13.2 0-19.2 3-13.2-3-13.2" stroke="#0070C0" stroke-linecap="round" fill="#0070C0"/></g><g id="shape55" transform="translate(639.052 469.417)"><path d="M48.9 49 48.9 7C48.9 3.1 45.8 0 41.9 0L7 0C3.1 0 0 3.1 0 7L0 49C0 52.8 3.1 56 7 56L41.9 56C45.8 56 48.9 52.8 48.9 49Z" fill="#FFFFFF"/><text fill="#191919" font-family="方正书宋简体,PingFang SC,Mircrosoft YaHei,Arial" font-size="17.3333" xml:space="preserve"><tspan x="6.9" y="22.4">尾气</tspan><tspan x="6.9" y="42.4">吸收</tspan></text></g><g id="shape56" transform="translate(639.052 545.812)"><path d="M48.9 29.5 48.9 7C48.9 3.1 45.8 0 41.9 0L7 0C3.1 0 0 3.1 0 7L0 29.5C0 33.4 3.1 36.5 7 36.5L41.9 36.5C45.8 36.5 48.9 33.4 48.9 29.5Z" fill="#FFFFFF"/><text fill="#0070C0" font-family="方正书宋简体,PingFang SC,Mircrosoft YaHei,Arial" font-size="17.3333" xml:space="preserve"><tspan x="6.9" y="22.6">盐酸</tspan></text></g><g id="shape57" transform="translate(639.052 564.062)"><path d="M0 0-34 0" stroke="#191919" fill="none"/><path d="M-34 3-40 0-34-3-34 3" stroke="#191919" stroke-linecap="round" fill="#191919"/></g><g id="shape58" transform="translate(499.702 469.417)"><path d="M100 56.5 100 0 0 0 0 56.5 100 56.5Z" stroke="#101843" fill="#FFFFFF"/><text fill="#191919" font-family="方正书宋简体,PingFang SC,Mircrosoft YaHei,Arial" font-size="17.3333" xml:space="preserve"><tspan x="14.8" y="22.6">次氯酸钠</tspan><tspan x="32.4" y="42.6">制备</tspan></text></g><g id="shape59" transform="translate(549.702 545.812)"><path d="M0 0 0-13.9" stroke="#0070C0" fill="none"/><path d="M-3-13.9 0-19.9 3-13.9-3-13.9" stroke="#0070C0" stroke-linecap="round" fill="#0070C0"/></g><g id="shape60" transform="translate(416 469.417)"><path d="M44.4 49.5 44.4 7C44.4 3.1 41.2 0 37.4 0L7 0C3.1 0 0 3.1 0 7L0 49.5C0 53.4 3.1 56.5 7 56.5L37.4 56.5C41.2 56.5 44.4 53.4 44.4 49.5Z" fill="#FFFFFF"/><text fill="#0070C0" font-family="方正书宋简体,PingFang SC,Mircrosoft YaHei,Arial" font-size="17.3333" xml:space="preserve"><tspan x="4.6" y="22.6">液碱</tspan><tspan x="4.6" y="42.6">纯水</tspan></text></g><g id="shape61" transform="translate(460.351 497.667)"><path d="M0 0 33 0" stroke="#0070C0" fill="none"/><path d="M33-3 39 0 33 3 33-3" stroke="#0070C0" stroke-linecap="round" fill="#0070C0"/></g><g id="shape62" transform="translate(599.702 497.667)"><path d="M0 0 28-0.3 34-0.3" stroke="#191919" fill="none"/><path d="M34-3.3 40-0.3 34 2.7 34-3.3" stroke="#191919" stroke-linecap="round" fill="#191919"/></g><g id="shape63" transform="translate(490.202 393.521)"><path d="M119 49 119 7C119 3.1 115.9 0 112 0L7 0C3.1 0 0 3.1 0 7L0 49C0 52.9 3.1 56 7 56L112 56C115.9 56 119 52.9 119 49Z" fill="#FFFFFF"/><text fill="#0070C0" font-family="方正书宋简体,PingFang SC,Mircrosoft YaHei,Arial" font-size="17.3333" xml:space="preserve"><tspan x="6.7" y="22.4">次氯酸钠溶液</tspan><tspan x="37.1" y="42.4">(外卖)</tspan></text></g><g id="shape64" transform="translate(549.702 469.417)"><path d="M0 0 0-13.9" stroke="#0070C0" fill="none"/><path d="M-3-13.9 0-19.9 3-13.9-3-13.9" stroke="#0070C0" stroke-linecap="round" fill="#0070C0"/></g><g id="shape65" transform="translate(639.052 602.208)"><path d="M48.9 29.5 48.9 7C48.9 3.1 45.8 0 41.9 0L7 0C3.1 0 0 3.1 0 7L0 29.5C0 33.4 3.1 36.5 7 36.5L41.9 36.5C45.8 36.5 48.9 33.4 48.9 29.5Z" fill="#FFFFFF"/><text fill="#BC5B57" font-family="方正书宋简体,PingFang SC,Mircrosoft YaHei,Arial" font-size="17.3333" xml:space="preserve"><tspan x="6.9" y="22.9">电钴</tspan></text></g><g id="shape66" transform="translate(597 658.604)"><path d="M91 29.5 91 7C91 3.1 87.9 0 84 0L7 0C3.1 0 0 3.1 0 7L0 29.5C0 33.4 3.1 36.5 7 36.5L84 36.5C87.9 36.5 91 33.4 91 29.5Z" fill="#FFFFFF"/><text fill="#0070C0" font-family="方正书宋简体,PingFang SC,Mircrosoft YaHei,Arial" font-size="17.3333" xml:space="preserve"><tspan x="10.3" y="22.6">电解后液</tspan></text></g><g id="shape67" transform="translate(599.702 620.458)"><path d="M0 0 33.4 0" stroke="#BC5B57" fill="none"/><path d="M33.4-3 39.4 0 33.4 3 33.4-3" stroke="#BC5B57" stroke-linecap="round" fill="#BC5B57"/></g><g id="shape68" transform="translate(549.702 638.708)"><path d="M0 0 0 38.1 41.3 38.1" stroke="#0070C0" fill="none"/><path d="M41.3 35.1 47.3 38.1 41.3 41.1 41.3 35.1" stroke="#0070C0" stroke-linecap="round" fill="#0070C0"/></g><g id="shape69" transform="translate(271 525.917)"><path d="M0 0 0 1.1 0 9.1 0 13.9" stroke="#0070C0" fill="none"/><path d="M3 13.9 0 19.9-3 13.9 3 13.9" stroke="#0070C0" stroke-linecap="round" fill="#0070C0"/></g></g></svg>