<svg width="668" height="303" viewBox="0 0 668 303" xmlns="http://www.w3.org/2000/svg" xmlns:xlink="http://www.w3.org/1999/xlink" overflow="hidden"><defs></defs><g id="page5" transform="translate(5.5 5.5)"><rect x="0" y="0" width="658" height="293" fill="none"/><g id="shape1" transform="translate(80 118.5)"><path d="M102 49 102 7C102 3.1 98.9 0 95 0L7 0C3.1 0 0 3.1 0 7L0 49C0 52.9 3.1 56 7 56L95 56C98.9 56 102 52.9 102 49Z" stroke="#000000" fill="#FFFFFF"/><text fill="#191919" font-family="方正书宋简体,PingFang SC,Mircrosoft YaHei,Arial" font-size="17.3333" xml:space="preserve"><tspan x="24.6" y="22.4">硫酸钠</tspan><tspan x="24.6" y="42.4">冷凝水</tspan></text></g><g id="shape2" transform="translate(216 118.5)"><path d="M102 56 102 0 0 0 0 56 102 56Z" stroke="#000000" fill="#FFFFFF"/><text fill="#191919" font-family="方正书宋简体,PingFang SC,Mircrosoft YaHei,Arial" font-size="17.3333" xml:space="preserve"><tspan x="33.4" y="22.4">芬顿</tspan><tspan x="24.6" y="42.4">反应槽</tspan></text></g><g id="shape3" transform="translate(488 118.5)"><path d="M102 49 102 7C102 3.1 98.9 0 95 0L7 0C3.1 0 0 3.1 0 7L0 49C0 52.9 3.1 56 7 56L95 56C98.9 56 102 52.9 102 49Z" stroke="#000000" fill="#FFFFFF"/><text fill="#191919" font-family="方正书宋简体,PingFang SC,Mircrosoft YaHei,Arial" font-size="17.3333" xml:space="preserve"><tspan x="15.8" y="22.4">二次压滤</tspan><tspan x="33.4" y="42.4">废液</tspan></text></g><g id="shape4" transform="translate(352 118.5)"><path d="M102 56 102 0 0 0 0 56 102 56Z" stroke="#000000" fill="#FFFFFF"/><text fill="#191919" font-family="方正书宋简体,PingFang SC,Mircrosoft YaHei,Arial" font-size="17.3333" xml:space="preserve"><tspan x="33.4" y="32.4">压滤</tspan></text></g><g id="shape5" transform="translate(182 146.5)"><path d="M0 0 28 0" stroke="#191919" fill="none"/><path d="M28-3 34 0 28 3 28-3" stroke="#191919" stroke-linecap="round" fill="#191919"/></g><g id="shape6" transform="translate(318 146.5)"><path d="M0 0 28 0" stroke="#191919" fill="none"/><path d="M28-3 34 0 28 3 28-3" stroke="#191919" stroke-linecap="round" fill="#191919"/></g><g id="shape7" transform="translate(454 146.5)"><path d="M0 0 28 0" stroke="#191919" fill="none"/><path d="M28-3 34 0 28 3 28-3" stroke="#191919" stroke-linecap="round" fill="#191919"/></g><g id="shape8" transform="translate(216 38)"><path d="M102 49 102 7C102 3.1 98.9 0 95 0L7 0C3.1 0 0 3.1 0 7L0 49C0 52.9 3.1 56 7 56L95 56C98.9 56 102 52.9 102 49Z" fill="#FFFFFF"/><text fill="#191919" font-family="方正书宋简体,PingFang SC,Mircrosoft YaHei,Arial" font-size="17.3333" xml:space="preserve"><tspan x="6.6" y="22.4">W1: 4N硫酸</tspan><tspan x="17" y="42.4">W2: 液减</tspan></text></g><g id="shape9" transform="translate(267 94)"><path d="M0 0 0 18.5" stroke="#191919" fill="none"/><path d="M3 18.5 0 24.5-3 18.5 3 18.5" stroke="#191919" stroke-linecap="round" fill="#191919"/></g><g id="shape10" transform="translate(204.5 199)"><path d="M125 49 125 7C125 3.1 121.9 0 118 0L7 0C3.1 0 0 3.1 0 7L0 49C0 52.9 3.1 56 7 56L118 56C121.9 56 125 52.9 125 49Z" fill="#FFFFFF"/><text fill="#191919" font-family="方正书宋简体,PingFang SC,Mircrosoft YaHei,Arial" font-size="17.3333" xml:space="preserve"><tspan x="10.9" y="22.4">W3: 硫酸亚铁</tspan><tspan x="19.7" y="42.4">W4: 双氧水</tspan></text></g><g id="shape11" transform="translate(267 199)"><path d="M0 0 0-18.5" stroke="#191919" fill="none"/><path d="M-3-18.5 0-24.5 3-18.5-3-18.5" stroke="#191919" stroke-linecap="round" fill="#191919"/></g><g id="shape12" transform="translate(358.357 207)"><path d="M89.3 33 89.3 7C89.3 3.1 86.1 0 82.3 0L7 0C3.1 0 0 3.1 0 7L0 33C0 36.9 3.1 40 7 40L82.3 40C86.1 40 89.3 36.9 89.3 33Z" fill="#FFFFFF"/><text fill="#191919" font-family="方正书宋简体,PingFang SC,Mircrosoft YaHei,Arial" font-size="17.3333" xml:space="preserve"><tspan x="14.2" y="24.4">S1: 铁渣</tspan></text></g><g id="shape13" transform="translate(403 174.5)"><path d="M0 0 0 26.5" stroke="#191919" fill="none"/><path d="M3 26.5 0 32.5-3 26.5 3 26.5" stroke="#191919" stroke-linecap="round" fill="#191919"/></g><g id="shape14" transform="matrix(0 1 -1 0 166.606 55)"><path d="M36 63.6 63.5 36.1M0 0 36 0 36 127.2 0 127.2 0 0Z" stroke="#F2C94C" fill="#FCF5E9"/><text fill="#B29335" font-family="方正书宋简体,PingFang SC,Mircrosoft YaHei,Arial" font-size="17.3333" xml:space="preserve" transform="matrix(0 -1 1 0 -45.6 81.6)"><tspan x="-34" y="68">COD: 750mg/L</tspan></text></g><g id="shape15" transform="matrix(0 1 -1 0 619.606 55.8504)"><path d="M36 63.6 62.6 80.6M0 0 36 0 36 127.2 0 127.2 0 0Z" stroke="#F2C94C" fill="#FCF5E9"/><text fill="#B29335" font-family="方正书宋简体,PingFang SC,Mircrosoft YaHei,Arial" font-size="17.3333" xml:space="preserve" transform="matrix(0 -1 1 0 -45.6 81.6)"><tspan x="-34.8" y="68">COD&lt;300mg/L</tspan></text></g></g></svg>