<svg viewBox="0 0 242 243.5" xmlns="http://www.w3.org/2000/svg" xmlns:xlink="http://www.w3.org/1999/xlink" id="_图层_1" overflow="hidden"><defs></defs><g><ellipse cx="121.11" cy="123" rx="120.52" ry="120.5" fill="#FFFFFF" transform="matrix(0.999996 -0.00296706 0.00296706 0.999996 -0.35 0.35)"/><path d="M121.11 3C153.17 3 183.31 15.48 205.98 38.15 228.65 60.81 241.13 90.95 241.13 123 241.13 155.05 228.65 185.19 205.98 207.85 183.31 230.52 153.17 243 121.11 243 89.05 243 58.91 230.52 36.24 207.85 13.58 185.19 1.09 155.05 1.09 123 1.09 90.95 13.58 60.81 36.25 38.15 58.92 15.48 89.06 3 121.11 3M121.11 2C54.28 2 0.09 56.17 0.09 123 0.09 189.83 54.27 244 121.11 244 187.95 244 242.13 189.83 242.13 123 242.13 56.17 187.95 2 121.11 2L121.11 2Z"/></g><g><ellipse cx="119.95" cy="123" rx="73.49" ry="74.5" fill="#FFFFFF"/><path d="M119.95 49C160.2 49 192.94 82.2 192.94 123 192.94 163.8 160.2 197 119.95 197 79.7 197 46.96 163.8 46.96 123 46.96 82.2 79.7 49 119.95 49M119.95 48C79.08 48 45.96 81.58 45.96 123 45.96 164.42 79.09 198 119.95 198 160.81 198 193.94 164.42 193.94 123 193.94 81.58 160.81 48 119.95 48L119.95 48Z"/></g><g><circle cx="120.5" cy="122.5" r="30" fill="#FFFFFF"/><path d="M120.5 93C136.77 93 150 106.23 150 122.5 150 138.77 136.77 152 120.5 152 104.23 152 91 138.77 91 122.5 91 106.23 104.23 93 120.5 93M120.5 92C103.66 92 90 105.66 90 122.5 90 139.34 103.66 153 120.5 153 137.34 153 151 139.34 151 122.5 151 105.66 137.34 92 120.5 92L120.5 92Z"/></g><text font-family="AdobeSongStd-Light-GBpc-EUC-H,Adobe Song Std" font-weight="300" font-size="17" transform="translate(105.68 129.43)"><tspan x="0" y="0">晶种</tspan></text><text font-family="AdobeSongStd-Light-GBpc-EUC-H,Adobe Song Std" font-weight="300" font-size="17" transform="translate(102.43 185.21)"><tspan x="0" y="0">一分</tspan></text><text font-family="AdobeSongStd-Light-GBpc-EUC-H,Adobe Song Std" font-weight="300" font-size="17" transform="translate(105.43 225.21)"><tspan x="0" y="0">二分</tspan></text></svg>