<svg width="1132" height="804" viewBox="0 0 1132 804" xmlns="http://www.w3.org/2000/svg" xmlns:xlink="http://www.w3.org/1999/xlink" overflow="hidden"><defs></defs><g id="page2" transform="translate(5.5 5.5)"><rect x="0" y="0" width="1123" height="794" fill="none"/><path d="M0 0 136 0 136 426.5 0 426.5 0 0Z" id="shape1" stroke="#4ED7C5" stroke-width="0.333333" stroke-dasharray="2 5" fill="#E9F8F5" transform="translate(53 64.5)"/><g id="shape2" transform="translate(68 75)"><path d="M108 31 108 7C108 3.1 104.9 0 101 0L7 0C3.1 0 0 3.1 0 7L0 31C0 34.9 3.1 38 7 38L101 38C104.9 38 108 34.9 108 31Z" stroke="#101843" stroke-width="0.333333" fill="#FFFFFF"/><text fill="#191919" font-family="方正书宋简体,PingFang SC,Mircrosoft YaHei,Arial" font-size="13.3333" xml:space="preserve"><tspan x="39.6" y="15.2">粗制</tspan><tspan x="18" y="31.2">硫酸钴溶液</tspan></text></g><g id="shape3" transform="translate(68 126.375)"><path d="M108 25 108 0 0 0 0 25 108 25Z" stroke="#101843" stroke-width="0.333333" fill="#FFFFFF"/><text fill="#191919" font-family="方正书宋简体,PingFang SC,Mircrosoft YaHei,Arial" font-size="13.3333" xml:space="preserve"><tspan x="26.4" y="16.2">P204萃杂</tspan></text></g><g id="shape4" transform="translate(122 113)"><path d="M0 0 0 7.4" stroke="#191919" stroke-width="0.333333" fill="none"/><path d="M3 7.4 0 13.4-3 7.4 3 7.4" stroke="#191919" stroke-linecap="round" fill="#191919"/></g><g id="shape5" transform="translate(122 151.375)"><path d="M0 0 0 7.4" stroke="#191919" stroke-width="0.333333" fill="none"/><path d="M3 7.4 0 13.4-3 7.4 3 7.4" stroke="#191919" stroke-linecap="round" fill="#191919"/></g><g id="shape6" transform="translate(68 164.75)"><path d="M108 25 108 0 0 0 0 25 108 25Z" stroke="#101843" stroke-width="0.333333" fill="#FFFFFF"/><text fill="#191919" font-family="方正书宋简体,PingFang SC,Mircrosoft YaHei,Arial" font-size="13.3333" xml:space="preserve"><tspan x="26.4" y="16.2">P507萃钴</tspan></text></g><g id="shape7" transform="translate(122 189.75)"><path d="M0 0 0 7.4" stroke="#191919" stroke-width="0.333333" fill="none"/><path d="M3 7.4 0 13.4-3 7.4 3 7.4" stroke="#191919" stroke-linecap="round" fill="#191919"/></g><g id="shape8" transform="translate(68 203.125)"><path d="M108 25 108 0 0 0 0 25 108 25Z" stroke="#101843" stroke-width="0.333333" fill="#FFFFFF"/><text fill="#191919" font-family="方正书宋简体,PingFang SC,Mircrosoft YaHei,Arial" font-size="13.3333" xml:space="preserve"><tspan x="32.4" y="16.2">洗涤段</tspan></text></g><g id="shape9" transform="translate(68 241.5)"><path d="M50 25 50 0 0 0 0 25 50 25Z" stroke="#101843" stroke-width="0.333333" fill="#FFFFFF"/><text fill="#191919" font-family="方正书宋简体,PingFang SC,Mircrosoft YaHei,Arial" font-size="13.3333" xml:space="preserve"><tspan x="3.4" y="16.2">反萃段</tspan></text></g><g id="shape10" transform="translate(126 241.5)"><path d="M50 25 50 0 0 0 0 25 50 25Z" stroke="#101843" stroke-width="0.333333" fill="#FFFFFF"/><text fill="#191919" font-family="方正书宋简体,PingFang SC,Mircrosoft YaHei,Arial" font-size="13.3333" xml:space="preserve"><tspan x="3.4" y="16.2">洗硫段</tspan></text></g><g id="shape11" transform="translate(122 228.125)"><path d="M0 0 0 5.9-29 5.9-29 7.4" stroke="#191919" stroke-width="0.333333" fill="none"/><path d="M-26 7.4-29 13.4-32 7.4-26 7.4" stroke="#191919" stroke-linecap="round" fill="#191919"/></g><g id="shape12" transform="translate(122 228.125)"><path d="M0 0 0 5.9 29 5.9 29 7.4" stroke="#191919" stroke-width="0.333333" fill="none"/><path d="M32 7.4 29 13.4 26 7.4 32 7.4" stroke="#191919" stroke-linecap="round" fill="#191919"/></g><g id="shape13" transform="translate(68 273.375)"><path d="M50 31 50 7C50 3.1 46.9 0 43 0L7 0C3.1 0 0 3.1 0 7L0 31C0 34.9 3.1 38 7 38L43 38C46.9 38 50 34.9 50 31Z" stroke="#101843" stroke-width="0.333333" fill="#FFFFFF"/><text fill="#191919" font-family="方正书宋简体,PingFang SC,Mircrosoft YaHei,Arial" font-size="13.3333" xml:space="preserve"><tspan x="3.4" y="15.2">硫酸钴</tspan><tspan x="10.6" y="31.2">溶液</tspan></text></g><g id="shape14" transform="translate(126 279.875)"><path d="M50 25 50 0 0 0 0 25 50 25Z" stroke="#101843" stroke-width="0.333333" fill="#FFFFFF"/><text fill="#191919" font-family="方正书宋简体,PingFang SC,Mircrosoft YaHei,Arial" font-size="13.3333" xml:space="preserve"><tspan x="3.4" y="16.2">反萃段</tspan></text></g><g id="shape15" transform="translate(126 318.25)"><path d="M50 31 50 7C50 3.1 46.9 0 43 0L7 0C3.1 0 0 3.1 0 7L0 31C0 34.9 3.1 38 7 38L43 38C46.9 38 50 34.9 50 31Z" stroke="#101843" stroke-width="0.333333" fill="#FFFFFF"/><text fill="#191919" font-family="方正书宋简体,PingFang SC,Mircrosoft YaHei,Arial" font-size="13.3333" xml:space="preserve"><tspan x="3.4" y="15.2">氯化钴</tspan><tspan x="10.6" y="31.2">溶液</tspan></text></g><g id="shape16" transform="translate(68 324.75)"><path d="M50 25 50 0 0 0 0 25 50 25Z" stroke="#101843" stroke-width="0.333333" fill="#FFFFFF"/><text fill="#191919" font-family="方正书宋简体,PingFang SC,Mircrosoft YaHei,Arial" font-size="13.3333" xml:space="preserve"><tspan x="10.6" y="16.2">电积</tspan></text></g><g id="shape17" transform="translate(126 369.625)"><path d="M50 25 50 0 0 0 0 25 50 25Z" stroke="#101843" stroke-width="0.333333" fill="#FFFFFF"/><text fill="#191919" font-family="方正书宋简体,PingFang SC,Mircrosoft YaHei,Arial" font-size="13.3333" xml:space="preserve"><tspan x="10.6" y="16.2">电积</tspan></text></g><g id="shape18" transform="translate(68 366.35)"><path d="M50 54 50 7C50 3.1 46.9 0 43 0L7 0C3.1 0 0 3.1 0 7L0 54C0 57.9 3.1 61 7 61L43 61C46.9 61 50 57.9 50 54Z" stroke="#101843" stroke-width="0.333333" fill="#FFFFFF"/><text fill="#191919" font-family="方正书宋简体,PingFang SC,Mircrosoft YaHei,Arial" font-size="13.3333" xml:space="preserve"><tspan x="10.6" y="19.2">硫系</tspan><tspan x="10.6" y="35.2">电钴</tspan><tspan x="6.6" y="51.2">(外售)</tspan></text></g><g id="shape19" transform="translate(126 408)"><path d="M50 31 50 7C50 3.1 46.9 0 43 0L7 0C3.1 0 0 3.1 0 7L0 31C0 34.9 3.1 38 7 38L43 38C46.9 38 50 34.9 50 31Z" stroke="#101843" stroke-width="0.333333" fill="#FFFFFF"/><text fill="#191919" font-family="方正书宋简体,PingFang SC,Mircrosoft YaHei,Arial" font-size="13.3333" xml:space="preserve"><tspan x="10.6" y="15.2">氯系</tspan><tspan x="10.6" y="31.2">电钴</tspan></text></g><g id="shape20" transform="translate(93 266.5)"><path d="" stroke="#191919" stroke-width="0.333333" fill="none"/></g><g id="shape21" transform="translate(151 266.5)"><path d="M0 0 0 1.5 0 1.5 0 7.4" stroke="#191919" stroke-width="0.333333" fill="none"/><path d="M3 7.4 0 13.4-3 7.4 3 7.4" stroke="#191919" stroke-linecap="round" fill="#191919"/></g><g id="shape22" transform="translate(151 304.875)"><path d="M0 0 0 1.1 -0 6.1 -0 7.4" stroke="#191919" stroke-width="0.333333" fill="none"/><path d="M3 7.4 -0 13.4-3 7.4 3 7.4" stroke="#191919" stroke-linecap="round" fill="#191919"/></g><g id="shape23" transform="translate(151 356.25)"><path d="M0 0 0 1.8 0 1.8 0 7.4" stroke="#191919" stroke-width="0.333333" fill="none"/><path d="M3 7.4 0 13.4-3 7.4 3 7.4" stroke="#191919" stroke-linecap="round" fill="#191919"/></g><g id="shape24" transform="translate(151 394.625)"><path d="M0 0 0 7.4" stroke="#191919" stroke-width="0.333333" fill="none"/><path d="M3 7.4 0 13.4-3 7.4 3 7.4" stroke="#191919" stroke-linecap="round" fill="#191919"/></g><g id="shape25" transform="translate(93 311.375)"><path d="M0 0 0 1.6 -0 1.6 -0 7.4" stroke="#191919" stroke-width="0.333333" fill="none"/><path d="M3 7.4 -0 13.4-3 7.4 3 7.4" stroke="#191919" stroke-linecap="round" fill="#191919"/></g><g id="shape26" transform="translate(93 349.75)"><path d="M0 0 0 10.6" stroke="#191919" stroke-width="0.333333" fill="none"/><path d="M3 10.6 0 16.6-3 10.6 3 10.6" stroke="#191919" stroke-linecap="round" fill="#191919"/></g><g id="shape27" transform="translate(53 460)"><text fill="#379E90" font-family="方正书宋简体,PingFang SC,Mircrosoft YaHei,Arial" font-weight="700" font-size="16" xml:space="preserve"><tspan x="17.6" y="18.8">钴线萃取电积</tspan></text></g><path d="M0 0 136 0 136 426.5 0 426.5 0 0Z" id="shape28" stroke="#FF7E79" stroke-width="0.333333" stroke-dasharray="2 5" fill="#FFECEC" transform="translate(302 64.5)"/><g id="shape29" transform="translate(321 75)"><path d="M108 31 108 7C108 3.1 104.9 0 101 0L7 0C3.1 0 0 3.1 0 7L0 31C0 34.9 3.1 38 7 38L101 38C104.9 38 108 34.9 108 31Z" stroke="#101843" stroke-width="0.333333" fill="#FFFFFF"/><text fill="#191919" font-family="方正书宋简体,PingFang SC,Mircrosoft YaHei,Arial" font-size="13.3333" xml:space="preserve"><tspan x="39.6" y="15.2">粗制</tspan><tspan x="18" y="31.2">硫酸镍溶液</tspan></text></g><g id="shape30" transform="translate(321 126.375)"><path d="M108 25 108 0 0 0 0 25 108 25Z" stroke="#101843" stroke-width="0.333333" fill="#FFFFFF"/><text fill="#191919" font-family="方正书宋简体,PingFang SC,Mircrosoft YaHei,Arial" font-size="13.3333" xml:space="preserve"><tspan x="26.4" y="16.2">P204萃杂</tspan></text></g><g id="shape31" transform="translate(375 113)"><path d="M0 0 0 7.4" stroke="#191919" stroke-width="0.333333" fill="none"/><path d="M3 7.4 0 13.4-3 7.4 3 7.4" stroke="#191919" stroke-linecap="round" fill="#191919"/></g><g id="shape32" transform="translate(375 151.375)"><path d="M0 0 0 7.4" stroke="#191919" stroke-width="0.333333" fill="none"/><path d="M3 7.4 0 13.4-3 7.4 3 7.4" stroke="#191919" stroke-linecap="round" fill="#191919"/></g><g id="shape33" transform="translate(321 164.75)"><path d="M108 25 108 0 0 0 0 25 108 25Z" stroke="#101843" stroke-width="0.333333" fill="#FFFFFF"/><text fill="#191919" font-family="方正书宋简体,PingFang SC,Mircrosoft YaHei,Arial" font-size="13.3333" xml:space="preserve"><tspan x="26.4" y="16.2">P507萃钴</tspan></text></g><g id="shape34" transform="translate(321 203.125)"><path d="M108 25 108 0 0 0 0 25 108 25Z" stroke="#101843" stroke-width="0.333333" fill="#FFFFFF"/><text fill="#191919" font-family="方正书宋简体,PingFang SC,Mircrosoft YaHei,Arial" font-size="13.3333" xml:space="preserve"><tspan x="22.8" y="16.2">Cy272萃镁</tspan></text></g><g id="shape35" transform="translate(321 241.5)"><path d="M108 25 108 0 0 0 0 25 108 25Z" stroke="#101843" stroke-width="0.333333" fill="#FFFFFF"/><text fill="#191919" font-family="方正书宋简体,PingFang SC,Mircrosoft YaHei,Arial" font-size="13.3333" xml:space="preserve"><tspan x="39.6" y="16.2">除油</tspan></text></g><g id="shape36" transform="translate(321 279.875)"><path d="M108 18 108 7C108 3.1 104.9 0 101 0L7 0C3.1 0 0 3.1 0 7L0 18C0 21.9 3.1 25 7 25L101 25C104.9 25 108 21.9 108 18Z" stroke="#101843" stroke-width="0.333333" fill="#FFFFFF"/><text fill="#191919" font-family="方正书宋简体,PingFang SC,Mircrosoft YaHei,Arial" font-size="13.3333" xml:space="preserve"><tspan x="18" y="16.2">硫酸镍溶液</tspan></text></g><g id="shape37" transform="translate(321 319.75)"><path d="M50 46 50 0 0 0 0 46 50 46Z" stroke="#101843" stroke-width="0.333333" fill="#FFFFFF"/><text fill="#191919" font-family="方正书宋简体,PingFang SC,Mircrosoft YaHei,Arial" font-size="13.3333" xml:space="preserve"><tspan x="11" y="19.2">MVR</tspan><tspan x="10.6" y="35.2">蒸发</tspan></text></g><g id="shape38" transform="translate(379 318.25)"><path d="M50 49 50 0 0 0 0 49 50 49Z" stroke="#101843" stroke-width="0.333333" fill="#FFFFFF"/><text fill="#191919" font-family="方正书宋简体,PingFang SC,Mircrosoft YaHei,Arial" font-size="13.3333" xml:space="preserve"><tspan x="10.6" y="28.2">电积</tspan></text></g><g id="shape39" transform="translate(321 384.35)"><path d="M50 31.6 50 7C50 3.1 46.9 0 43 0L7 0C3.1 0 0 3.1 0 7L0 31.6C0 35.5 3.1 38.6 7 38.6L43 38.6C46.9 38.6 50 35.5 50 31.6Z" stroke="#101843" stroke-width="0.333333" fill="#FFFFFF"/><text fill="#191919" font-family="方正书宋简体,PingFang SC,Mircrosoft YaHei,Arial" font-size="13.3333" xml:space="preserve"><tspan x="3.4" y="15.5">硫酸镍</tspan><tspan x="10.6" y="31.5">晶体</tspan></text></g><g id="shape40" transform="translate(379 384.35)"><path d="M50 31.6 50 7C50 3.1 46.9 0 43 0L7 0C3.1 0 0 3.1 0 7L0 31.6C0 35.5 3.1 38.6 7 38.6L43 38.6C46.9 38.6 50 35.5 50 31.6Z" stroke="#101843" stroke-width="0.333333" fill="#FFFFFF"/><text fill="#191919" font-family="方正书宋简体,PingFang SC,Mircrosoft YaHei,Arial" font-size="13.3333" xml:space="preserve"><tspan x="10.6" y="23">电镍</tspan></text></g><g id="shape41" transform="translate(302 438)"><text fill="#BC5B57" font-family="方正书宋简体,PingFang SC,Mircrosoft YaHei,Arial" font-weight="700" font-size="16" xml:space="preserve"><tspan x="51.2" y="20.8">镍线</tspan><tspan x="17.6" y="39.2">萃取蒸发电积</tspan></text></g><g id="shape42" transform="translate(200.5 126.375)"><path d="M90 167 90 7C90 3.1 86.9 0 83 0L7 0C3.1 0 0 3.1 0 7L0 167C0 170.9 3.1 174 7 174L83 174C86.9 174 90 170.9 90 167Z" stroke="#101843" stroke-width="0.333333" fill="#FFFFFF"/><text fill="#191919" font-family="方正书宋简体,PingFang SC,Mircrosoft YaHei,Arial" font-size="13.3333" xml:space="preserve"><tspan x="9" y="19.4">硫酸钠废水</tspan><tspan x="16.2" y="43.5">反铜锰液</tspan><tspan x="16.2" y="67.5">反锌后液</tspan><tspan x="9" y="91.5">氯化钠废水</tspan><tspan x="23.4" y="115.5">硫铵液</tspan><tspan x="23.4" y="139.4">洗氯水</tspan><tspan x="9" y="163.4">硫酸镁废水</tspan></text></g><g id="shape43" transform="translate(176 138.875)"><path d="M0 0 18.5 0" stroke="#191919" stroke-width="0.333333" fill="none"/><path d="M18.5-3 24.5 0 18.5 3 18.5-3" stroke="#191919" stroke-linecap="round" fill="#191919"/></g><g id="shape44" transform="translate(176 177.25)"><path d="M0 0 18.5 0" stroke="#191919" stroke-width="0.333333" fill="none"/><path d="M18.5-3 24.5 0 18.5 3 18.5-3" stroke="#191919" stroke-linecap="round" fill="#191919"/></g><g id="shape45" transform="translate(321 138.875)"><path d="M0 0-24.5 0" stroke="#191919" stroke-width="0.333333" fill="none"/><path d="M-24.5 3-30.5 0-24.5-3-24.5 3" stroke="#191919" stroke-linecap="round" fill="#191919"/></g><g id="shape46" transform="translate(321 215.625)"><path d="M0 0-24.5 -0" stroke="#191919" stroke-width="0.333333" fill="none"/><path d="M-24.5 3-30.5 -0-24.5-3-24.5 3" stroke="#191919" stroke-linecap="round" fill="#191919"/></g><g id="shape47" transform="translate(375 189.75)"><path d="M0 0 0 7.4" stroke="#191919" stroke-width="0.333333" fill="none"/><path d="M3 7.4 0 13.4-3 7.4 3 7.4" stroke="#191919" stroke-linecap="round" fill="#191919"/></g><g id="shape48" transform="translate(375 228.125)"><path d="M0 0 0 7.4" stroke="#191919" stroke-width="0.333333" fill="none"/><path d="M3 7.4 0 13.4-3 7.4 3 7.4" stroke="#191919" stroke-linecap="round" fill="#191919"/></g><g id="shape49" transform="translate(375 304.875)"><path d="M0 0 0 7-29 7-29 9" stroke="#191919" stroke-width="0.333333" fill="none"/><path d="M-26 9-29 15-32 9-26 9" stroke="#191919" stroke-linecap="round" fill="#191919"/></g><g id="shape50" transform="translate(375 304.875)"><path d="M0 0 0 6.1 29 6.1 29 7.4" stroke="#191919" stroke-width="0.333333" fill="none"/><path d="M32 7.4 29 13.4 26 7.4 32 7.4" stroke="#191919" stroke-linecap="round" fill="#191919"/></g><g id="shape51" transform="translate(346 365.75)"><path d="M0 0 0 13" stroke="#191919" stroke-width="0.333333" fill="none"/><path d="M3 13 0 19-3 13 3 13" stroke="#191919" stroke-linecap="round" fill="#191919"/></g><g id="shape52" transform="translate(404 367.25)"><path d="M0 0 0 11.1" stroke="#191919" stroke-width="0.333333" fill="none"/><path d="M3 11.1 0 17.1-3 11.1 3 11.1" stroke="#191919" stroke-linecap="round" fill="#191919"/></g></g></svg>