<svg width="420" height="539" viewBox="0 0 420 539" xmlns="http://www.w3.org/2000/svg" xmlns:xlink="http://www.w3.org/1999/xlink" overflow="hidden"><defs></defs><g id="page3" transform="translate(5.5 5.5)"><rect x="0" y="0" width="410" height="529" fill="none"/><g id="shape1" transform="translate(152.52 109.85)"><path d="M112 38.3 112 0 0 0 0 38.3 112 38.3Z" stroke="#000000" fill="none"/><text fill="#191919" font-family="方正书宋简体,PingFang SC,Mircrosoft YaHei,Arial" font-size="17.3333" xml:space="preserve"><tspan x="20.8" y="23.5">板换预热</tspan></text></g><g id="shape2" transform="translate(152.52 197.68)"><path d="M112 38.3 112 0 0 0 0 38.3 112 38.3Z" stroke="#000000" fill="none"/><text fill="#191919" font-family="方正书宋简体,PingFang SC,Mircrosoft YaHei,Arial" font-size="17.3333" xml:space="preserve"><tspan x="20.8" y="23.5">蒸发结晶</tspan></text></g><g id="shape3" transform="translate(152.52 285.51)"><path d="M112 38.3 112 0 0 0 0 38.3 112 38.3Z" stroke="#000000" fill="none"/><text fill="#191919" font-family="方正书宋简体,PingFang SC,Mircrosoft YaHei,Arial" font-size="17.3333" xml:space="preserve"><tspan x="20.8" y="23.9">冷却结晶</tspan></text></g><g id="shape4" transform="translate(152.52 373.34)"><path d="M112 38.3 112 0 0 0 0 38.3 112 38.3Z" stroke="#000000" fill="none"/><text fill="#191919" font-family="方正书宋简体,PingFang SC,Mircrosoft YaHei,Arial" font-size="17.3333" xml:space="preserve"><tspan x="38.4" y="23.9">离心</tspan></text></g><g id="shape5" transform="translate(152.52 461.17)"><text fill="#191919" font-family="方正书宋简体,PingFang SC,Mircrosoft YaHei,Arial" font-size="13.3333" xml:space="preserve"><tspan x="24" y="18.7">S：硫酸镁</tspan></text></g><g id="shape6" transform="translate(208.52 84.8)"><path d="M0 0 0 19.1" stroke="#191919" fill="none"/><path d="M3 19.1 0 25.1-3 19.1 3 19.1" stroke="#191919" stroke-linecap="round" fill="#191919"/></g><g id="shape7" transform="translate(264.52 216.83)"><path d="M0 0 67 0 67-87.8 6-87.8" stroke="#191919" fill="none"/><path d="M6-84.8 0-87.8 6-90.8 6-84.8" stroke="#191919" stroke-linecap="round" fill="#191919"/><text fill="#191919" font-family="方正书宋简体,PingFang SC,Mircrosoft YaHei,Arial" font-size="13.3333" xml:space="preserve"><tspan x="41.2" y="-48.4">W1: 硫铵</tspan><tspan x="32" y="-32.4">蒸发冷凝水</tspan></text></g><g id="shape8" transform="translate(152.52 129)"><path d="M0 0-33 0" stroke="#191919" fill="none"/><path d="M-33 3-39 0-33-3-33 3" stroke="#191919" stroke-linecap="round" fill="#191919"/></g><g id="shape9" transform="translate(38 109.85)"><text fill="#191919" font-family="方正书宋简体,PingFang SC,Mircrosoft YaHei,Arial" font-size="13.3333" xml:space="preserve"><tspan x="14.5" y="15.3">W1: 硫铵</tspan><tspan x="5.3" y="31.3">蒸发冷凝水</tspan></text></g><g id="shape10" transform="translate(208.52 148.15)"><path d="M0 0 0 43.5" stroke="#191919" fill="none"/><path d="M3 43.5 0 49.5-3 43.5 3 43.5" stroke="#191919" stroke-linecap="round" fill="#191919"/></g><g id="shape11" transform="translate(208.52 323.81)"><path d="M0 0 0 43.5" stroke="#191919" fill="none"/><path d="M3 43.5 0 49.5-3 43.5 3 43.5" stroke="#191919" stroke-linecap="round" fill="#191919"/></g><g id="shape12" transform="translate(208.52 411.64)"><path d="M0 0 0 43.5" stroke="#191919" fill="none"/><path d="M3 43.5 0 49.5-3 43.5 3 43.5" stroke="#191919" stroke-linecap="round" fill="#191919"/></g><g id="shape13" transform="translate(140.52 38.5)"><text font-family="方正书宋简体,PingFang SC,Mircrosoft YaHei,Arial" font-size="13.3333" xml:space="preserve"><tspan x="17.6" y="19.3">硫酸镁除油后液</tspan><tspan x="24.8" y="35.3">硫铵液淘洗水</tspan></text></g><g id="shape14" transform="translate(208.52 235.98)"><path d="M0 0 0 43.5" stroke="#191919" fill="none"/><path d="M3 43.5 0 49.5-3 43.5 3 43.5" stroke="#191919" stroke-linecap="round" fill="#191919"/></g></g></svg>