<svg xmlns:xlink="http://www.w3.org/1999/xlink" xmlns="http://www.w3.org/2000/svg" width="768" viewBox="0 0 768 579" xmlns:ev="http://www.w3.org/2001/xml-events" height="579"><defs/><g transform="translate(5.5,5.5)" id="page1"><rect x="0" fill="none" y="0" width="758" height="569"/><path fill="#fff6e9" d="M.0,.0L156.0,.0L156.0,491.0L.0,491.0L.0,.0z" fill-rule="nonzero" stroke-width="1" transform="translate(563.000000,39.000000)" id="shape1" stroke-dasharray="2,5" stroke="#ffcc53"/><path fill="#ffecec" d="M.0,.0L125.5,.0L125.5,491.0L.0,491.0L.0,.0z" fill-rule="nonzero" stroke-width="1" transform="translate(437.500000,39.000000)" id="shape2" stroke-dasharray="2,5" stroke="#ff7e79"/><path fill="#e9f8f5" d="M.0,.0L397.0,.0L397.0,491.0L.0,491.0L.0,.0z" fill-rule="nonzero" stroke-width="1" transform="translate(39.000000,39.000000)" id="shape3" stroke-dasharray="2,5" stroke="#4ed7c5"/><g transform="translate(58.000000,51.000000)" id="shape4"><path fill="#ffffff" d="M13.0,26.0L85.0,26.0L85.0,26.0C92.2,26.0,98.0,20.2,98.0,13.0C98.0,5.8,92.2,.0,85.0,.0L13.0,.0L13.0,.0C5.8,.0,.0,5.8,.0,13.0C.0,20.2,5.8,26.0,13.0,26.0z" fill-rule="nonzero" stroke-width="0.3333329856395721" stroke="#000000"/><text style="fill:#191919;font-family:新宋体,PingFang SC,Mircrosoft YaHei,Arial;font-size:10.00pt" xml:space="preserve"><tspan x="27.4" style="font-family:新宋体,PingFang SC,Mircrosoft YaHei,Arial" y="18.3">硫化矿</tspan></text></g><g transform="translate(107.000000,77.000000)" id="shape5"><path d="M.0,.0L.0,22.0" fill="none" stroke-width="0.3333329856395721" stroke="#191919"/><path fill="#191919" d="M3.0,22.0L.0,28.0L-3.0,22.0L3.0,22.0" stroke-width="1" stroke-linecap="round" stroke="#191919"/></g><g transform="translate(58.000000,105.000000)" id="shape6"><path fill="#ffffff" d="M98.0,26.0L98.0,.0L.0,.0L.0,26.0L98.0,26.0z" fill-rule="nonzero" stroke-width="0.3333329856395721" stroke="#000000"/><text style="fill:#191919;font-family:新宋体,PingFang SC,Mircrosoft YaHei,Arial;font-size:10.00pt" xml:space="preserve"><tspan x="34.6" style="font-family:新宋体,PingFang SC,Mircrosoft YaHei,Arial" y="18.3">球磨</tspan></text></g><g transform="translate(107.000000,131.000000)" id="shape7"><path d="M.0,.0L.0,22.0" fill="none" stroke-width="0.3333329856395721" stroke="#191919"/><path fill="#191919" d="M3.0,22.0L.0,28.0L-3.0,22.0L3.0,22.0" stroke-width="1" stroke-linecap="round" stroke="#191919"/></g><g transform="translate(58.000000,159.000000)" id="shape8"><path fill="#ffffff" d="M98.0,26.0L98.0,.0L.0,.0L.0,26.0L98.0,26.0z" fill-rule="nonzero" stroke-width="0.3333329856395721" stroke="#101843"/><text style="fill:#191919;font-family:新宋体,PingFang SC,Mircrosoft YaHei,Arial;font-size:10.00pt" xml:space="preserve"><tspan x="27.4" style="font-family:新宋体,PingFang SC,Mircrosoft YaHei,Arial" y="18.3">氧压线</tspan></text></g><g transform="translate(58.000000,267.000000)" id="shape9"><path fill="#ffffff" d="M98.0,26.0L98.0,.0L.0,.0L.0,26.0L98.0,26.0z" fill-rule="nonzero" stroke-width="0.3333329856395721" stroke="#101843"/><text style="fill:#191919;font-family:新宋体,PingFang SC,Mircrosoft YaHei,Arial;font-size:10.00pt" xml:space="preserve"><tspan x="5.8" style="font-family:新宋体,PingFang SC,Mircrosoft YaHei,Arial" y="18.3">常压浸出除铁</tspan></text></g><g transform="translate(107.000000,293.000000)" id="shape10"><path d="M.0,.0L.0,22.0" fill="none" stroke-width="0.3333329856395721" stroke="#191919"/><path fill="#191919" d="M3.0,22.0L.0,28.0L-3.0,22.0L3.0,22.0" stroke-width="1" stroke-linecap="round" stroke="#191919"/></g><g transform="translate(58.000000,321.000000)" id="shape11"><path fill="#ffffff" d="M98.0,26.0L98.0,.0L.0,.0L.0,26.0L98.0,26.0z" fill-rule="nonzero" stroke-width="0.3333329856395721" stroke="#101843"/><text style="fill:#191919;font-family:新宋体,PingFang SC,Mircrosoft YaHei,Arial;font-size:10.00pt" xml:space="preserve"><tspan x="27.4" style="font-family:新宋体,PingFang SC,Mircrosoft YaHei,Arial" y="18.8">铜萃取</tspan></text></g><g transform="translate(107.000000,347.000000)" id="shape12"><path d="M.0,.0L.0,22.0" fill="none" stroke-width="0.3333329856395721" stroke="#191919"/><path fill="#191919" d="M3.0,22.0L.0,28.0L-3.0,22.0L3.0,22.0" stroke-width="1" stroke-linecap="round" stroke="#191919"/></g><g transform="translate(58.000000,375.000000)" id="shape13"><path fill="#ffffff" d="M98.0,26.0L98.0,.0L.0,.0L.0,26.0L98.0,26.0z" fill-rule="nonzero" stroke-width="0.3333329856395721" stroke="#101843"/><text style="fill:#191919;font-family:新宋体,PingFang SC,Mircrosoft YaHei,Arial;font-size:10.00pt" xml:space="preserve"><tspan x="27.4" style="font-family:新宋体,PingFang SC,Mircrosoft YaHei,Arial" y="18.8">铜电积</tspan></text></g><g transform="translate(58.000000,429.000000)" id="shape14"><path fill="#ffffff" d="M13.0,26.0L85.0,26.0L85.0,26.0C92.2,26.0,98.0,20.2,98.0,13.0C98.0,5.8,92.2,.0,85.0,.0L13.0,.0L13.0,.0C5.8,.0,.0,5.8,.0,13.0C.0,20.2,5.8,26.0,13.0,26.0z" fill-rule="nonzero" stroke-width="0.3333329856395721" stroke="#000000"/><text style="fill:#191919;font-family:新宋体,PingFang SC,Mircrosoft YaHei,Arial;font-size:10.00pt" xml:space="preserve"><tspan x="13.0" style="font-family:新宋体,PingFang SC,Mircrosoft YaHei,Arial" y="18.3">铜（外售）</tspan></text></g><g transform="translate(190.000000,159.000000)" id="shape15"><path fill="#ffffff" d="M13.0,26.0L85.0,26.0L85.0,26.0C92.2,26.0,98.0,20.2,98.0,13.0C98.0,5.8,92.2,.0,85.0,.0L13.0,.0L13.0,.0C5.8,.0,.0,5.8,.0,13.0C.0,20.2,5.8,26.0,13.0,26.0z" fill-rule="nonzero" stroke-width="0.3333329856395721" stroke="#000000"/><text style="fill:#191919;font-family:新宋体,PingFang SC,Mircrosoft YaHei,Arial;font-size:10.00pt" xml:space="preserve"><tspan x="13.0" style="font-family:新宋体,PingFang SC,Mircrosoft YaHei,Arial" y="18.3">氢氧化钴盐</tspan></text></g><g transform="translate(190.000000,267.000000)" id="shape16"><path fill="#ffffff" d="M98.0,26.0L98.0,.0L.0,.0L.0,26.0L98.0,26.0z" fill-rule="nonzero" stroke-width="0.3333329856395721" stroke="#101843"/><text style="fill:#191919;font-family:新宋体,PingFang SC,Mircrosoft YaHei,Arial;font-size:10.00pt" xml:space="preserve"><tspan x="27.4" style="font-family:新宋体,PingFang SC,Mircrosoft YaHei,Arial" y="18.3">氧压线</tspan></text></g><g transform="translate(104.500000,213.500000)" id="shape17"><path fill="#ffffff" d="M12.5,25.0L104.5,25.0L104.5,25.0C111.4,25.0,117.0,19.4,117.0,12.5C117.0,5.6,111.4,.0,104.5,.0L12.5,.0L12.5,.0C5.6,.0,.0,5.6,.0,12.5C.0,19.4,5.6,25.0,12.5,25.0z" fill-rule="nonzero" stroke-width="0.3333329856395721" stroke="#000000"/><text style="fill:#191919;font-family:新宋体,PingFang SC,Mircrosoft YaHei,Arial;font-size:10.00pt" xml:space="preserve"><tspan x="15.3" style="font-family:新宋体,PingFang SC,Mircrosoft YaHei,Arial" y="17.8">铁精粉(外售)</tspan></text></g><g transform="translate(239.000000,185.000000)" id="shape18"><path d="M.0,.0L.0,76.0" fill="none" stroke-width="0.3333329856395721" stroke="#191919"/><path fill="#191919" d="M3.0,76.0L.0,82.0L-3.0,76.0L3.0,76.0" stroke-width="1" stroke-linecap="round" stroke="#191919"/></g><g transform="translate(79.266000,185.000000)" id="shape19"><path d="M.0,.0L-0.0,76.0" fill="none" stroke-width="0.3333329856395721" stroke="#191919"/><path fill="#191919" d="M3.0,76.0L-0.0,82.0L-3.0,76.0L3.0,76.0" stroke-width="1" stroke-linecap="round" stroke="#191919"/></g><g transform="translate(133.656000,185.000000)" id="shape20"><path d="M.0,.0L-0.3,14.0L-0.3,22.0" fill="none" stroke-width="0.3333329856395721" stroke="#191919"/><path fill="#191919" d="M2.7,22.0L-0.3,28.0L-3.3,22.0L2.7,22.0" stroke-width="1" stroke-linecap="round" stroke="#191919"/></g><g transform="translate(190.000000,267.000000)" id="shape21"><path d="M.0,.0L-22.9,-24.1" fill="none" stroke-width="0.3333329856395721" stroke="#191919"/><path fill="#191919" d="M-25.1,-22.1L-27.0,-28.5L-20.7,-26.2L-25.1,-22.1" stroke-width="1" stroke-linecap="round" stroke="#191919"/></g><g transform="translate(190.000000,321.000000)" id="shape22"><path fill="#ffffff" d="M98.0,26.0L98.0,.0L.0,.0L.0,26.0L98.0,26.0z" fill-rule="nonzero" stroke-width="0.3333329856395721" stroke="#101843"/><text style="fill:#191919;font-family:新宋体,PingFang SC,Mircrosoft YaHei,Arial;font-size:10.00pt" xml:space="preserve"><tspan x="13.0" style="font-family:新宋体,PingFang SC,Mircrosoft YaHei,Arial" y="18.8">铵线预处铁</tspan></text></g><g transform="translate(190.000000,375.000000)" id="shape23"><path fill="#ffffff" d="M98.0,26.0L98.0,.0L.0,.0L.0,26.0L98.0,26.0z" fill-rule="nonzero" stroke-width="0.3333329856395721" stroke="#101843"/><text style="fill:#191919;font-family:新宋体,PingFang SC,Mircrosoft YaHei,Arial;font-size:10.00pt" xml:space="preserve"><tspan x="20.2" style="font-family:新宋体,PingFang SC,Mircrosoft YaHei,Arial" y="18.8">二次除铁</tspan></text></g><g transform="translate(239.000000,293.000000)" id="shape24"><path d="M.0,.0L.0,22.0" fill="none" stroke-width="0.3333329856395721" stroke="#191919"/><path fill="#191919" d="M3.0,22.0L.0,28.0L-3.0,22.0L3.0,22.0" stroke-width="1" stroke-linecap="round" stroke="#191919"/></g><g transform="translate(239.000000,347.000000)" id="shape25"><path d="M.0,.0L.0,22.0" fill="none" stroke-width="0.3333329856395721" stroke="#191919"/><path fill="#191919" d="M3.0,22.0L.0,28.0L-3.0,22.0L3.0,22.0" stroke-width="1" stroke-linecap="round" stroke="#191919"/></g><g transform="translate(107.000000,401.000000)" id="shape26"><path d="M.0,.0L.0,22.0" fill="none" stroke-width="0.3333329856395721" stroke="#191919"/><path fill="#191919" d="M3.0,22.0L.0,28.0L-3.0,22.0L3.0,22.0" stroke-width="1" stroke-linecap="round" stroke="#191919"/></g><g transform="translate(322.000000,267.000000)" id="shape27"><path fill="#ffffff" d="M13.0,26.0L85.0,26.0L85.0,26.0C92.2,26.0,98.0,20.2,98.0,13.0C98.0,5.8,92.2,.0,85.0,.0L13.0,.0L13.0,.0C5.8,.0,.0,5.8,.0,13.0C.0,20.2,5.8,26.0,13.0,26.0z" fill-rule="nonzero" stroke-width="0.3333329856395721" stroke="#000000"/><text style="fill:#191919;font-family:新宋体,PingFang SC,Mircrosoft YaHei,Arial;font-size:10.00pt" xml:space="preserve"><tspan x="13.0" style="font-family:新宋体,PingFang SC,Mircrosoft YaHei,Arial" y="18.3">氢氧化钴盐</tspan></text></g><g transform="translate(322.000000,321.000000)" id="shape28"><path fill="#ffffff" d="M98.0,26.0L98.0,.0L.0,.0L.0,26.0L98.0,26.0z" fill-rule="nonzero" stroke-width="0.3333329856395721" stroke="#101843"/><text style="fill:#191919;font-family:新宋体,PingFang SC,Mircrosoft YaHei,Arial;font-size:10.00pt" xml:space="preserve"><tspan x="27.4" style="font-family:新宋体,PingFang SC,Mircrosoft YaHei,Arial" y="18.8">除铁铝</tspan></text></g><g transform="translate(322.000000,375.000000)" id="shape29"><path fill="#ffffff" d="M98.0,26.0L98.0,.0L.0,.0L.0,26.0L98.0,26.0z" fill-rule="nonzero" stroke-width="0.3333329856395721" stroke="#101843"/><text style="fill:#191919;font-family:新宋体,PingFang SC,Mircrosoft YaHei,Arial;font-size:10.00pt" xml:space="preserve"><tspan x="20.2" style="font-family:新宋体,PingFang SC,Mircrosoft YaHei,Arial" y="18.8">中和脱硅</tspan></text></g><g transform="translate(190.000000,429.000000)" id="shape30"><path fill="#ffffff" d="M13.0,26.0L217.0,26.0L217.0,26.0C224.2,26.0,230.0,20.2,230.0,13.0C230.0,5.8,224.2,.0,217.0,.0L13.0,.0L13.0,.0C5.8,.0,.0,5.8,.0,13.0C.0,20.2,5.8,26.0,13.0,26.0z" fill-rule="nonzero" stroke-width="0.3333329856395721" stroke="#000000"/><text style="fill:#191919;font-family:新宋体,PingFang SC,Mircrosoft YaHei,Arial;font-size:10.00pt" xml:space="preserve"><tspan x="64.6" style="font-family:新宋体,PingFang SC,Mircrosoft YaHei,Arial" y="18.3">粗制硫酸钴溶液</tspan></text></g><g transform="translate(371.000000,293.000000)" id="shape31"><path d="M.0,.0L.0,22.0" fill="none" stroke-width="0.3333329856395721" stroke="#191919"/><path fill="#191919" d="M3.0,22.0L.0,28.0L-3.0,22.0L3.0,22.0" stroke-width="1" stroke-linecap="round" stroke="#191919"/></g><g transform="translate(371.000000,347.000000)" id="shape32"><path d="M.0,.0L.0,22.0" fill="none" stroke-width="0.3333329856395721" stroke="#191919"/><path fill="#191919" d="M3.0,22.0L.0,28.0L-3.0,22.0L3.0,22.0" stroke-width="1" stroke-linecap="round" stroke="#191919"/></g><g transform="translate(371.000000,401.000000)" id="shape33"><path d="M.0,.0L.0,14.0L-66.0,14.0L-66.0,22.0" fill="none" stroke-width="0.3333329856395721" stroke="#191919"/><path fill="#191919" d="M-63.0,22.0L-66.0,28.0L-69.0,22.0L-63.0,22.0" stroke-width="1" stroke-linecap="round" stroke="#191919"/></g><g transform="translate(239.000000,401.000000)" id="shape34"><path d="M.0,.0L.0,14.0L66.0,14.0L66.0,22.0" fill="none" stroke-width="0.3333329856395721" stroke="#191919"/><path fill="#191919" d="M69.0,22.0L66.0,28.0L63.0,22.0L69.0,22.0" stroke-width="1" stroke-linecap="round" stroke="#191919"/></g><g transform="translate(454.000000,51.000000)" id="shape35"><path fill="#ffffff" d="M13.0,26.0L85.0,26.0L85.0,26.0C92.2,26.0,98.0,20.2,98.0,13.0C98.0,5.8,92.2,.0,85.0,.0L13.0,.0L13.0,.0C5.8,.0,.0,5.8,.0,13.0C.0,20.2,5.8,26.0,13.0,26.0z" fill-rule="nonzero" stroke-width="0.3333329856395721" stroke="#000000"/><text style="fill:#191919;font-family:新宋体,PingFang SC,Mircrosoft YaHei,Arial;font-size:10.00pt" xml:space="preserve"><tspan x="27.4" style="font-family:新宋体,PingFang SC,Mircrosoft YaHei,Arial" y="18.3">白合金</tspan></text></g><g transform="translate(503.000000,77.000000)" id="shape36"><path d="M.0,.0L.0,22.0" fill="none" stroke-width="0.3333329856395721" stroke="#191919"/><path fill="#191919" d="M3.0,22.0L.0,28.0L-3.0,22.0L3.0,22.0" stroke-width="1" stroke-linecap="round" stroke="#191919"/></g><g transform="translate(454.000000,105.000000)" id="shape37"><path fill="#ffffff" d="M98.0,26.0L98.0,.0L.0,.0L.0,26.0L98.0,26.0z" fill-rule="nonzero" stroke-width="0.3333329856395721" stroke="#000000"/><text style="fill:#191919;font-family:新宋体,PingFang SC,Mircrosoft YaHei,Arial;font-size:10.00pt" xml:space="preserve"><tspan x="34.6" style="font-family:新宋体,PingFang SC,Mircrosoft YaHei,Arial" y="18.3">球磨</tspan></text></g><g transform="translate(503.000000,131.000000)" id="shape38"><path d="M.0,.0L.0,22.0" fill="none" stroke-width="0.3333329856395721" stroke="#191919"/><path fill="#191919" d="M3.0,22.0L.0,28.0L-3.0,22.0L3.0,22.0" stroke-width="1" stroke-linecap="round" stroke="#191919"/></g><g transform="translate(454.000000,159.000000)" id="shape39"><path fill="#ffffff" d="M98.0,26.0L98.0,.0L.0,.0L.0,26.0L98.0,26.0z" fill-rule="nonzero" stroke-width="0.3333329856395721" stroke="#101843"/><text style="fill:#191919;font-family:新宋体,PingFang SC,Mircrosoft YaHei,Arial;font-size:10.00pt" xml:space="preserve"><tspan x="20.2" style="font-family:新宋体,PingFang SC,Mircrosoft YaHei,Arial" y="18.3">一段浸出</tspan></text></g><g transform="translate(454.000000,213.500000)" id="shape40"><path fill="#ffffff" d="M98.0,26.0L98.0,.0L.0,.0L.0,26.0L98.0,26.0z" fill-rule="nonzero" stroke-width="0.3333329856395721" stroke="#101843"/><text style="fill:#191919;font-family:新宋体,PingFang SC,Mircrosoft YaHei,Arial;font-size:10.00pt" xml:space="preserve"><tspan x="20.2" style="font-family:新宋体,PingFang SC,Mircrosoft YaHei,Arial" y="18.3">二段浸出</tspan></text></g><g transform="translate(454.000000,267.000000)" id="shape41"><path fill="#ffffff" d="M98.0,26.0L98.0,.0L.0,.0L.0,26.0L98.0,26.0z" fill-rule="nonzero" stroke-width="0.3333329856395721" stroke="#101843"/><text style="fill:#191919;font-family:新宋体,PingFang SC,Mircrosoft YaHei,Arial;font-size:10.00pt" xml:space="preserve"><tspan x="27.4" style="font-family:新宋体,PingFang SC,Mircrosoft YaHei,Arial" y="18.8">铜萃取</tspan></text></g><g transform="translate(454.000000,321.000000)" id="shape42"><path fill="#ffffff" d="M98.0,26.0L98.0,.0L.0,.0L.0,26.0L98.0,26.0z" fill-rule="nonzero" stroke-width="0.3333329856395721" stroke="#101843"/><text style="fill:#191919;font-family:新宋体,PingFang SC,Mircrosoft YaHei,Arial;font-size:10.00pt" xml:space="preserve"><tspan x="27.4" style="font-family:新宋体,PingFang SC,Mircrosoft YaHei,Arial" y="18.8">除砷铁</tspan></text></g><g transform="translate(454.000000,375.000000)" id="shape43"><path fill="#ffffff" d="M98.0,26.0L98.0,.0L.0,.0L.0,26.0L98.0,26.0z" fill-rule="nonzero" stroke-width="0.3333329856395721" stroke="#101843"/><text style="fill:#191919;font-family:新宋体,PingFang SC,Mircrosoft YaHei,Arial;font-size:10.00pt" xml:space="preserve"><tspan x="34.6" style="font-family:新宋体,PingFang SC,Mircrosoft YaHei,Arial" y="18.8">沉锗</tspan></text></g><g transform="translate(454.000000,429.000000)" id="shape44"><path fill="#ffffff" d="M98.0,32.6L98.0,7.0C98.0,3.1,94.9,.0,91.0,.0L7.0,.0C3.1,.0,.0,3.1,.0,7.0L.0,32.6C.0,36.5,3.1,39.6,7.0,39.6L91.0,39.6C94.9,39.6,98.0,36.5,98.0,32.6z" fill-rule="nonzero" stroke-width="0.3333329856395721" stroke="#000000"/><text style="fill:#191919;font-family:新宋体,PingFang SC,Mircrosoft YaHei,Arial;font-size:10.00pt" xml:space="preserve"><tspan x="20.2" style="font-family:新宋体,PingFang SC,Mircrosoft YaHei,Arial" y="17.6">粗制锗的</tspan><tspan x="20.2" style="font-family:新宋体,PingFang SC,Mircrosoft YaHei,Arial" y="32.8">氢氧化物</tspan></text></g><g transform="translate(503.000000,185.000000)" id="shape45"><path d="M.0,.0L.0,22.5" fill="none" stroke-width="0.3333329856395721" stroke="#191919"/><path fill="#191919" d="M3.0,22.5L.0,28.5L-3.0,22.5L3.0,22.5" stroke-width="1" stroke-linecap="round" stroke="#191919"/></g><g transform="translate(503.000000,239.500000)" id="shape46"><path d="M.0,.0L.0,21.5" fill="none" stroke-width="0.3333329856395721" stroke="#191919"/><path fill="#191919" d="M3.0,21.5L.0,27.5L-3.0,21.5L3.0,21.5" stroke-width="1" stroke-linecap="round" stroke="#191919"/></g><g transform="translate(503.000000,293.000000)" id="shape47"><path d="M.0,.0L.0,22.0" fill="none" stroke-width="0.3333329856395721" stroke="#191919"/><path fill="#191919" d="M3.0,22.0L.0,28.0L-3.0,22.0L3.0,22.0" stroke-width="1" stroke-linecap="round" stroke="#191919"/></g><g transform="translate(503.000000,347.000000)" id="shape48"><path d="M.0,.0L.0,22.0" fill="none" stroke-width="0.3333329856395721" stroke="#191919"/><path fill="#191919" d="M3.0,22.0L.0,28.0L-3.0,22.0L3.0,22.0" stroke-width="1" stroke-linecap="round" stroke="#191919"/></g><g transform="translate(503.000000,401.000000)" id="shape49"><path d="M.0,.0L.0,22.0" fill="none" stroke-width="0.3333329856395721" stroke="#191919"/><path fill="#191919" d="M3.0,22.0L.0,28.0L-3.0,22.0L3.0,22.0" stroke-width="1" stroke-linecap="round" stroke="#191919"/></g><g transform="translate(587.000000,51.000000)" id="shape50"><path fill="#ffffff" d="M13.0,26.0L85.0,26.0L85.0,26.0C92.2,26.0,98.0,20.2,98.0,13.0C98.0,5.8,92.2,.0,85.0,.0L13.0,.0L13.0,.0C5.8,.0,.0,5.8,.0,13.0C.0,20.2,5.8,26.0,13.0,26.0z" fill-rule="nonzero" stroke-width="0.3333329856395721" stroke="#000000"/><text style="fill:#191919;font-family:新宋体,PingFang SC,Mircrosoft YaHei,Arial;font-size:10.00pt" xml:space="preserve"><tspan x="27.4" style="font-family:新宋体,PingFang SC,Mircrosoft YaHei,Arial" y="18.3">高冰镍</tspan></text></g><g transform="translate(587.000000,105.000000)" id="shape51"><path fill="#ffffff" d="M98.0,26.0L98.0,.0L.0,.0L.0,26.0L98.0,26.0z" fill-rule="nonzero" stroke-width="0.3333329856395721" stroke="#101843"/><text style="fill:#191919;font-family:新宋体,PingFang SC,Mircrosoft YaHei,Arial;font-size:10.00pt" xml:space="preserve"><tspan x="5.8" style="font-family:新宋体,PingFang SC,Mircrosoft YaHei,Arial" y="18.3">一段常压浸出</tspan></text></g><g transform="translate(646.000000,155.500000)" id="shape52"><path fill="#ffffff" d="M45.0,33.0L45.0,.0L.0,.0L.0,33.0L45.0,33.0z" fill-rule="nonzero" stroke-width="0.3333329856395721" stroke="#101843"/><text style="fill:#191919;font-family:新宋体,PingFang SC,Mircrosoft YaHei,Arial;font-size:10.00pt" xml:space="preserve"><tspan x="8.1" style="font-family:新宋体,PingFang SC,Mircrosoft YaHei,Arial" y="14.3">二段</tspan><tspan x="8.1" style="font-family:新宋体,PingFang SC,Mircrosoft YaHei,Arial" y="29.5">常压</tspan></text></g><g transform="translate(568.000000,155.500000)" id="shape53"><path fill="#ffffff" d="M66.0,26.0L66.0,7.0C66.0,3.1,62.9,.0,59.0,.0L7.0,.0C3.1,.0,.0,3.1,.0,7.0L.0,26.0C.0,29.9,3.1,33.0,7.0,33.0L59.0,33.0C62.9,33.0,66.0,29.9,66.0,26.0z" fill-rule="nonzero" stroke-width="0.3333329856395721" stroke="#101843"/><text style="fill:#191919;font-family:新宋体,PingFang SC,Mircrosoft YaHei,Arial;font-size:10.00pt" xml:space="preserve"><tspan x="4.2" style="font-family:新宋体,PingFang SC,Mircrosoft YaHei,Arial" y="14.3">粗制硫酸</tspan><tspan x="11.4" style="font-family:新宋体,PingFang SC,Mircrosoft YaHei,Arial" y="29.5">镍溶液</tspan></text></g><g transform="translate(646.000000,213.500000)" id="shape54"><path fill="#ffffff" d="M45.0,26.0L45.0,.0L.0,.0L.0,26.0L45.0,26.0z" fill-rule="nonzero" stroke-width="0.3333329856395721" stroke="#101843"/><text style="fill:#191919;font-family:新宋体,PingFang SC,Mircrosoft YaHei,Arial;font-size:10.00pt" xml:space="preserve"><tspan x="8.1" style="font-family:新宋体,PingFang SC,Mircrosoft YaHei,Arial" y="18.3">氧压</tspan></text></g><g transform="translate(568.000000,210.000000)" id="shape55"><path fill="#ffffff" d="M66.0,26.0L66.0,7.0C66.0,3.1,62.9,.0,59.0,.0L7.0,.0C3.1,.0,.0,3.1,.0,7.0L.0,26.0C.0,29.9,3.1,33.0,7.0,33.0L59.0,33.0C62.9,33.0,66.0,29.9,66.0,26.0z" fill-rule="nonzero" stroke-width="0.3333329856395721" stroke="#000000"/><text style="fill:#191919;font-family:新宋体,PingFang SC,Mircrosoft YaHei,Arial;font-size:10.00pt" xml:space="preserve"><tspan x="11.4" style="font-family:新宋体,PingFang SC,Mircrosoft YaHei,Arial" y="14.3">铁精粉</tspan><tspan x="11.4" style="font-family:新宋体,PingFang SC,Mircrosoft YaHei,Arial" y="29.5">(外售)</tspan></text></g><g transform="translate(587.000000,267.000000)" id="shape56"><path fill="#ffffff" d="M13.0,26.0L85.0,26.0L85.0,26.0C92.2,26.0,98.0,20.2,98.0,13.0C98.0,5.8,92.2,.0,85.0,.0L13.0,.0L13.0,.0C5.8,.0,.0,5.8,.0,13.0C.0,20.2,5.8,26.0,13.0,26.0z" fill-rule="nonzero" stroke-width="0.3333329856395721" stroke="#000000"/><text style="fill:#191919;font-family:新宋体,PingFang SC,Mircrosoft YaHei,Arial;font-size:10.00pt" xml:space="preserve"><tspan x="13.0" style="font-family:新宋体,PingFang SC,Mircrosoft YaHei,Arial" y="18.3">氢氧化镍盐</tspan></text></g><g transform="translate(587.000000,321.000000)" id="shape57"><path fill="#ffffff" d="M98.0,26.0L98.0,.0L.0,.0L.0,26.0L98.0,26.0z" fill-rule="nonzero" stroke-width="0.3333329856395721" stroke="#101843"/><text style="fill:#191919;font-family:新宋体,PingFang SC,Mircrosoft YaHei,Arial;font-size:10.00pt" xml:space="preserve"><tspan x="27.4" style="font-family:新宋体,PingFang SC,Mircrosoft YaHei,Arial" y="18.8">除铁铝</tspan></text></g><g transform="translate(568.000000,375.000000)" id="shape58"><path fill="#ffffff" d="M66.0,26.0L66.0,.0L.0,.0L.0,26.0L66.0,26.0z" fill-rule="nonzero" stroke-width="0.3333329856395721" stroke="#101843"/><text style="fill:#191919;font-family:新宋体,PingFang SC,Mircrosoft YaHei,Arial;font-size:10.00pt" xml:space="preserve"><tspan x="18.6" style="font-family:新宋体,PingFang SC,Mircrosoft YaHei,Arial" y="18.3">氧压</tspan></text></g><g transform="translate(640.000000,375.000000)" id="shape59"><path fill="#ffffff" d="M66.0,26.0L66.0,.0L.0,.0L.0,26.0L66.0,26.0z" fill-rule="nonzero" stroke-width="0.3333329856395721" stroke="#101843"/><text style="fill:#191919;font-family:新宋体,PingFang SC,Mircrosoft YaHei,Arial;font-size:10.00pt" xml:space="preserve"><tspan x="4.2" style="font-family:新宋体,PingFang SC,Mircrosoft YaHei,Arial" y="18.3">中和脱硅</tspan></text></g><g transform="translate(568.000000,429.000000)" id="shape60"><path fill="#ffffff" d="M66.0,32.6L66.0,7.0C66.0,3.1,62.9,.0,59.0,.0L7.0,.0C3.1,.0,.0,3.1,.0,7.0L.0,32.6C.0,36.5,3.1,39.6,7.0,39.6L59.0,39.6C62.9,39.6,66.0,36.5,66.0,32.6z" fill-rule="nonzero" stroke-width="0.3333329856395721" stroke="#000000"/><text style="fill:#191919;font-family:新宋体,PingFang SC,Mircrosoft YaHei,Arial;font-size:10.00pt" xml:space="preserve"><tspan x="18.6" style="font-family:新宋体,PingFang SC,Mircrosoft YaHei,Arial" y="17.6">锰粉</tspan><tspan x="11.4" style="font-family:新宋体,PingFang SC,Mircrosoft YaHei,Arial" y="32.8">(外售)</tspan></text></g><g transform="translate(640.000000,429.000000)" id="shape61"><path fill="#ffffff" d="M66.0,32.6L66.0,7.0C66.0,3.1,62.9,.0,59.0,.0L7.0,.0C3.1,.0,.0,3.1,.0,7.0L.0,32.6C.0,36.5,3.1,39.6,7.0,39.6L59.0,39.6C62.9,39.6,66.0,36.5,66.0,32.6z" fill-rule="nonzero" stroke-width="0.3333329856395721" stroke="#000000"/><text style="fill:#191919;font-family:新宋体,PingFang SC,Mircrosoft YaHei,Arial;font-size:10.00pt" xml:space="preserve"><tspan x="4.2" style="font-family:新宋体,PingFang SC,Mircrosoft YaHei,Arial" y="17.8">粗制硫酸</tspan><tspan x="11.4" style="font-family:新宋体,PingFang SC,Mircrosoft YaHei,Arial" y="33.0">镍溶液</tspan></text></g><g transform="translate(636.000000,77.000000)" id="shape62"><path d="M.0,.0L.0,22.0" fill="none" stroke-width="1" stroke="#191919"/><path fill="#191919" d="M3.0,22.0L.0,28.0L-3.0,22.0L3.0,22.0" stroke-width="1" stroke-linecap="round" stroke="#191919"/></g><g transform="translate(636.000000,131.000000)" id="shape63"><path d="M.0,.0L.0,12.0L32.5,12.0L32.5,18.5" fill="none" stroke-width="1" stroke="#191919"/><path fill="#191919" d="M35.5,18.5L32.5,24.5L29.5,18.5L35.5,18.5" stroke-width="1" stroke-linecap="round" stroke="#191919"/></g><g transform="translate(636.000000,131.000000)" id="shape64"><path d="M.0,.0L.0,12.0L-35.0,12.0L-35.0,18.5" fill="none" stroke-width="1" stroke="#191919"/><path fill="#191919" d="M-32.0,18.5L-35.0,24.5L-38.0,18.5L-32.0,18.5" stroke-width="1" stroke-linecap="round" stroke="#191919"/></g><g transform="translate(668.500000,188.500000)" id="shape65"><path d="M.0,.0L.0,19.0" fill="none" stroke-width="1" stroke="#191919"/><path fill="#191919" d="M3.0,19.0L.0,25.0L-3.0,19.0L3.0,19.0" stroke-width="1" stroke-linecap="round" stroke="#191919"/></g><g transform="translate(646.000000,226.500000)" id="shape66"><path d="M.0,.0L-6.0,.0" fill="none" stroke-width="1" stroke="#191919"/><path fill="#191919" d="M-6.0,3.0L-12.0,.0L-6.0,-3.0L-6.0,3.0" stroke-width="1" stroke-linecap="round" stroke="#191919"/></g><g transform="translate(636.000000,293.000000)" id="shape67"><path d="M.0,.0L.0,22.0" fill="none" stroke-width="1" stroke="#191919"/><path fill="#191919" d="M3.0,22.0L.0,28.0L-3.0,22.0L3.0,22.0" stroke-width="1" stroke-linecap="round" stroke="#191919"/></g><g transform="translate(636.000000,347.000000)" id="shape68"><path d="M.0,.0L.0,14.0L-35.0,14.0L-35.0,22.0" fill="none" stroke-width="1" stroke="#191919"/><path fill="#191919" d="M-32.0,22.0L-35.0,28.0L-38.0,22.0L-32.0,22.0" stroke-width="1" stroke-linecap="round" stroke="#191919"/></g><g transform="translate(636.000000,347.000000)" id="shape69"><path d="M.0,.0L.0,14.0L37.0,14.0L37.0,22.0" fill="none" stroke-width="1" stroke="#191919"/><path fill="#191919" d="M40.0,22.0L37.0,28.0L34.0,22.0L40.0,22.0" stroke-width="1" stroke-linecap="round" stroke="#191919"/></g><g transform="translate(601.000000,401.000000)" id="shape70"><path d="M.0,.0L.0,22.0" fill="none" stroke-width="1" stroke="#191919"/><path fill="#191919" d="M3.0,22.0L.0,28.0L-3.0,22.0L3.0,22.0" stroke-width="1" stroke-linecap="round" stroke="#191919"/></g><g transform="translate(673.000000,401.000000)" id="shape71"><path d="M.0,.0L.0,22.0" fill="none" stroke-width="1" stroke="#191919"/><path fill="#191919" d="M3.0,22.0L.0,28.0L-3.0,22.0L3.0,22.0" stroke-width="1" stroke-linecap="round" stroke="#191919"/></g><g transform="translate(40.500000,499.000000)" id="shape72"><text style="fill:#379e90;font-family:新宋体,PingFang SC,Mircrosoft YaHei,Arial;font-size:12.00pt;font-weight:bold" xml:space="preserve"><tspan x="164.9" style="font-family:新宋体,PingFang SC,Mircrosoft YaHei,Arial" y="21.7">钴线浸出</tspan></text></g><g transform="translate(437.500000,499.000000)" id="shape73"><text style="fill:#bc5b57;font-family:新宋体,PingFang SC,Mircrosoft YaHei,Arial;font-size:12.00pt;font-weight:bold" xml:space="preserve"><tspan x="46.0" style="font-family:新宋体,PingFang SC,Mircrosoft YaHei,Arial" y="21.7">锗线</tspan></text></g><g transform="translate(563.000000,499.000000)" id="shape74"><text style="fill:#bb720e;font-family:新宋体,PingFang SC,Mircrosoft YaHei,Arial;font-size:12.00pt;font-weight:bold" xml:space="preserve"><tspan x="44.4" style="font-family:新宋体,PingFang SC,Mircrosoft YaHei,Arial" y="21.7">镍线浸出</tspan></text></g></g></svg>