<svg width="1010" height="368" viewBox="0 0 1010 368" xmlns="http://www.w3.org/2000/svg" xmlns:xlink="http://www.w3.org/1999/xlink" overflow="hidden"><defs></defs><g id="page2" transform="translate(5.5 5.5)"><rect x="0" y="0" width="1000" height="358" fill="none"/><path d="M0 0 922 0 922 141 0 141 0 0Z" id="shape1" stroke="#4155C6" stroke-width="2.33333" fill="#E9ECFF" transform="translate(39 178)"/><path d="M0 0 922 0 922 141 0 141 0 0Z" id="shape2" stroke="#BC5B57" stroke-width="2.33333" fill="#FFECEC" transform="translate(39 39)"/><g id="shape3" transform="translate(94.5 94)"><path d="M85 38 85 0 0 0 0 38 85 38Z" stroke="#000000" fill="none"/><text fill="#191919" font-family="方正书宋简体,PingFang SC,Mircrosoft YaHei,Arial" font-size="17.3333" xml:space="preserve"><tspan x="7.3" y="23.4">红土镍矿</tspan></text></g><g id="shape4" transform="translate(476.75 58)"><path d="M100 38 100 0 0 0 0 38 100 38Z" stroke="#000000" fill="none"/><text fill="#191919" font-family="方正书宋简体,PingFang SC,Mircrosoft YaHei,Arial" font-size="17.3333" xml:space="preserve"><tspan x="23.6" y="23.4">低冰镍</tspan></text></g><g id="shape5" transform="translate(476.5 126)"><path d="M100 38 100 0 0 0 0 38 100 38Z" stroke="#000000" fill="none"/><text fill="#191919" font-family="方正书宋简体,PingFang SC,Mircrosoft YaHei,Arial" font-size="17.3333" xml:space="preserve"><tspan x="32.4" y="23.4">镍铁</tspan></text></g><g id="shape6" transform="translate(874 94)"><path d="M72 38 72 0 0 0 0 38 72 38Z" stroke="#000000" fill="none"/><text fill="#191919" font-family="方正书宋简体,PingFang SC,Mircrosoft YaHei,Arial" font-size="17.3333" xml:space="preserve"><tspan x="9.6" y="23.4">高冰镍</tspan></text></g><g id="shape7" transform="translate(179.5 113)"><path d="M0 0 18.5 0 18.5-36 291.3-36" stroke="#191919" fill="none"/><path d="M291.3-39 297.3-36 291.3-33 291.3-39" stroke="#191919" stroke-linecap="round" fill="#191919"/><text fill="#191919" font-family="方正书宋简体,PingFang SC,Mircrosoft YaHei,Arial" font-size="13.3333" xml:space="preserve"><tspan x="156.2" y="-32.3">电炉熔炼</tspan></text></g><g id="shape8" transform="translate(179.5 113)"><path d="M0 0 18.5 0 18.5 32 291 32" stroke="#191919" fill="none"/><path d="M291 29 297 32 291 35 291 29" stroke="#191919" stroke-linecap="round" fill="#191919"/><text fill="#191919" font-family="方正书宋简体,PingFang SC,Mircrosoft YaHei,Arial" font-size="13.3333" xml:space="preserve"><tspan x="155.3" y="35.7">RKEF工艺</tspan></text></g><g id="shape9" transform="translate(576.75 77)"><path d="M0 0 161.3 0 161.3 36 291.3 36" stroke="#191919" fill="none"/><path d="M291.3 33 297.3 36 291.3 39 291.3 33" stroke="#191919" stroke-linecap="round" fill="#191919"/><text fill="#191919" font-family="方正书宋简体,PingFang SC,Mircrosoft YaHei,Arial" font-size="13.3333" xml:space="preserve"><tspan x="51.6" y="3.7">转炉吹炼</tspan></text></g><g id="shape10" transform="translate(576.5 145)"><path d="M0 0 161.5 0 161.5-32 291.5-32" stroke="#191919" fill="none"/><path d="M291.5-35 297.5-32 291.5-29 291.5-35" stroke="#191919" stroke-linecap="round" fill="#191919"/><text fill="#191919" font-family="方正书宋简体,PingFang SC,Mircrosoft YaHei,Arial" font-size="13.3333" xml:space="preserve"><tspan x="65.4" y="3.7">硫化</tspan></text></g><g id="shape11" transform="translate(94.5 191)"><path d="M125.5 51 125.5 0 0 0 0 51 125.5 51Z" stroke="#000000" fill="none"/><text fill="#191919" font-family="方正书宋简体,PingFang SC,Mircrosoft YaHei,Arial" font-size="17.3333" xml:space="preserve"><tspan x="27.6" y="22.4">红土镍矿</tspan><tspan font-size="13.3333" x="4.8" y="39.2">低品位(镍0.9-1.3%)</tspan></text></g><g id="shape12" transform="translate(295 191)"><path d="M106.5 51 106.5 0 0 0 0 51 106.5 51Z" stroke="#000000" fill="none"/><text fill="#191919" font-family="方正书宋简体,PingFang SC,Mircrosoft YaHei,Arial" font-size="17.3333" xml:space="preserve"><tspan x="35.6" y="29.9">矿浆</tspan></text></g><g id="shape13" transform="translate(476.5 191)"><path d="M106.5 51 106.5 0 0 0 0 51 106.5 51Z" stroke="#000000" fill="none"/><text fill="#191919" font-family="方正书宋简体,PingFang SC,Mircrosoft YaHei,Arial" font-size="17.3333" xml:space="preserve"><tspan x="24.4" y="19.9">硫酸镍/</tspan><tspan x="24.4" y="39.9">钴/锰等</tspan></text></g><g id="shape14" transform="translate(658 191)"><path d="M106.5 51 106.5 0 0 0 0 51 106.5 51Z" stroke="#000000" fill="none"/><text fill="#191919" font-family="方正书宋简体,PingFang SC,Mircrosoft YaHei,Arial" font-size="17.3333" xml:space="preserve"><tspan x="8.1" y="29.9">MHP/MSP等</tspan></text></g><g id="shape15" transform="translate(839.5 191)"><path d="M106.5 51 106.5 0 0 0 0 51 106.5 51Z" stroke="#000000" fill="none"/><text fill="#191919" font-family="方正书宋简体,PingFang SC,Mircrosoft YaHei,Arial" font-size="17.3333" xml:space="preserve"><tspan x="26.9" y="29.9">硫酸镍</tspan></text></g><g id="shape16" transform="translate(764.5 216.5)"><path d="M0 0 69 0" stroke="#191919" fill="none"/><path d="M69-3 75 0 69 3 69-3" stroke="#191919" stroke-linecap="round" fill="#191919"/><text fill="#191919" font-family="方正书宋简体,PingFang SC,Mircrosoft YaHei,Arial" font-size="13.3333" xml:space="preserve"><tspan x="21.6" y="3.7">精炼</tspan></text></g><g id="shape17" transform="translate(401.5 216.5)"><path d="M0 0 69 0" stroke="#191919" fill="none"/><path d="M69-3 75 0 69 3 69-3" stroke="#191919" stroke-linecap="round" fill="#191919"/><text fill="#191919" font-family="方正书宋简体,PingFang SC,Mircrosoft YaHei,Arial" font-size="13.3333" xml:space="preserve"><tspan x="7.1" y="-3.8">高压酸浸</tspan><tspan x="1.9" y="12.2">中和及CCD</tspan></text></g><g id="shape18" transform="translate(220 216.5)"><path d="M0 0 69 0" stroke="#191919" fill="none"/><path d="M69-3 75 0 69 3 69-3" stroke="#191919" stroke-linecap="round" fill="#191919"/><text font-family="方正书宋简体,PingFang SC,Mircrosoft YaHei,Arial" font-size="13.3333" xml:space="preserve"><tspan fill="#191919" x="8.4" y="3.7">破碎洗矿</tspan></text></g><g id="shape19" transform="translate(583 216.5)"><path d="M0 0 68 0" stroke="#191919" fill="none"/><path d="M68-3 74 0 68 3 68-3" stroke="#191919" stroke-linecap="round" fill="#191919"/></g><g id="shape20" transform="translate(94.5 255)"><path d="M125.5 51 125.5 0 0 0 0 51 125.5 51Z" stroke="#000000" fill="none"/><text fill="#191919" font-family="方正书宋简体,PingFang SC,Mircrosoft YaHei,Arial" font-size="17.3333" xml:space="preserve"><tspan x="27.6" y="22.4">红土镍矿</tspan><tspan font-size="13.3333" x="6" y="39.2">高品位(镍1.5-2%+)</tspan></text></g><g id="shape21" transform="translate(258.7 255)"><path d="M106.5 51 106.5 0 0 0 0 51 106.5 51Z" stroke="#000000" fill="none"/><text fill="#191919" font-family="方正书宋简体,PingFang SC,Mircrosoft YaHei,Arial" font-size="17.3333" xml:space="preserve"><tspan x="35.6" y="29.9">干矿</tspan></text></g><g id="shape22" transform="translate(220 280.5)"><path d="M0 0 31.7 0" stroke="#191919" fill="none"/><path d="M31.7-3 37.7 0 31.7 3 31.7-3" stroke="#191919" stroke-linecap="round" fill="#191919"/><text fill="#191919" font-family="方正书宋简体,PingFang SC,Mircrosoft YaHei,Arial" font-size="13.3333" xml:space="preserve"><tspan x="3.6" y="3.7">干燥</tspan></text></g><g id="shape23" transform="translate(403.9 255)"><path d="M106.5 51 106.5 0 0 0 0 51 106.5 51Z" stroke="#000000" fill="none"/><text fill="#191919" font-family="方正书宋简体,PingFang SC,Mircrosoft YaHei,Arial" font-size="17.3333" xml:space="preserve"><tspan x="18.1" y="29.9">中间物料</tspan></text></g><g id="shape24" transform="translate(549.1 255)"><path d="M106.5 51 106.5 0 0 0 0 51 106.5 51Z" stroke="#000000" fill="none"/><text fill="#191919" font-family="方正书宋简体,PingFang SC,Mircrosoft YaHei,Arial" font-size="17.3333" xml:space="preserve"><tspan x="9.3" y="29.9">熔融高镍铁</tspan></text></g><g id="shape25" transform="translate(694.3 255)"><path d="M106.5 51 106.5 0 0 0 0 51 106.5 51Z" stroke="#000000" fill="none"/><text fill="#191919" font-family="方正书宋简体,PingFang SC,Mircrosoft YaHei,Arial" font-size="17.3333" xml:space="preserve"><tspan x="26.9" y="29.9">高冰镍</tspan></text></g><g id="shape26" transform="translate(839.5 255)"><path d="M106.5 51 106.5 0 0 0 0 51 106.5 51Z" stroke="#000000" fill="none"/><text fill="#191919" font-family="方正书宋简体,PingFang SC,Mircrosoft YaHei,Arial" font-size="17.3333" xml:space="preserve"><tspan x="26.9" y="29.9">硫酸镍</tspan></text></g><g id="shape27" transform="translate(365.2 280.5)"><path d="M0 0 31.9 0" stroke="#191919" fill="none"/><path d="M31.9-3 37.9 0 31.9 3 31.9-3" stroke="#191919" stroke-linecap="round" fill="#191919"/><text fill="#191919" font-family="方正书宋简体,PingFang SC,Mircrosoft YaHei,Arial" font-size="13.3333" xml:space="preserve"><tspan x="4.6" y="-3.8">还原</tspan><tspan x="4.6" y="12.2">焙烧</tspan></text></g><g id="shape28" transform="translate(510.4 280.5)"><path d="M0 0 32.1 0" stroke="#191919" fill="none"/><path d="M32.1-3 38.1 0 32.1 3 32.1-3" stroke="#191919" stroke-linecap="round" fill="#191919"/><text fill="#191919" font-family="方正书宋简体,PingFang SC,Mircrosoft YaHei,Arial" font-size="13.3333" xml:space="preserve"><tspan x="6.1" y="-3.8">电炉</tspan><tspan x="6.1" y="12.2">煅烧</tspan></text></g><g id="shape29" transform="translate(655.6 280.5)"><path d="M0 0 32.7 0" stroke="#191919" fill="none"/><path d="M32.7-3 38.7 0 32.7 3 32.7-3" stroke="#191919" stroke-linecap="round" fill="#191919"/><text fill="#191919" font-family="方正书宋简体,PingFang SC,Mircrosoft YaHei,Arial" font-size="13.3333" xml:space="preserve"><tspan x="4.5" y="3.7">硫化</tspan></text></g><g id="shape30" transform="translate(800.8 280.5)"><path d="M0 0 32.7 0" stroke="#191919" fill="none"/><path d="M32.7-3 38.7 0 32.7 3 32.7-3" stroke="#191919" stroke-linecap="round" fill="#191919"/><text fill="#191919" font-family="方正书宋简体,PingFang SC,Mircrosoft YaHei,Arial" font-size="13.3333" xml:space="preserve"><tspan x="4.8" y="-3.8">氧浸</tspan><tspan x="4.8" y="12.2">精炼</tspan></text></g><g id="shape31" transform="translate(39 81.5)"><text fill="#BC5B57" font-family="方正书宋简体,PingFang SC,Mircrosoft YaHei,Arial" font-weight="700" font-size="17.3333" xml:space="preserve"><tspan x="5.8" y="22.4">火</tspan><tspan x="5.8" y="42.4">法</tspan></text></g><g id="shape32" transform="translate(39 220.5)"><text fill="#2D3C91" font-family="方正书宋简体,PingFang SC,Mircrosoft YaHei,Arial" font-weight="700" font-size="17.3333" xml:space="preserve"><tspan x="5.8" y="22.4">湿</tspan><tspan x="5.8" y="42.4">法</tspan></text></g></g></svg>