<svg width="952" height="552" viewBox="0 0 952 552" xmlns="http://www.w3.org/2000/svg" xmlns:xlink="http://www.w3.org/1999/xlink" overflow="hidden"><defs></defs><g id="page1" transform="translate(5.5 5.5)"><rect x="0" y="0" width="942" height="542" fill="none"/><g id="shape1" transform="translate(39 141.875)"><path d="M100 38 100 0 0 0 0 38 100 38Z" stroke="#101843" fill="#FFFFFF"/><text fill="#191919" font-family="方正书宋简体,PingFang SC,Mircrosoft YaHei,Arial" font-size="17.3333" xml:space="preserve"><tspan x="32.4" y="23.4">非洲</tspan></text></g><g id="shape2" transform="translate(39 231.25)"><path d="M100 38 100 0 0 0 0 38 100 38Z" stroke="#101843" fill="#FFFFFF"/><text fill="#191919" font-family="方正书宋简体,PingFang SC,Mircrosoft YaHei,Arial" font-size="17.3333" xml:space="preserve"><tspan x="32.4" y="23.4">印尼</tspan></text></g><g id="shape3" transform="translate(39 320.625)"><path d="M100 38 100 0 0 0 0 38 100 38Z" stroke="#101843" fill="#FFFFFF"/><text fill="#191919" font-family="方正书宋简体,PingFang SC,Mircrosoft YaHei,Arial" font-size="17.3333" xml:space="preserve"><tspan x="14.8" y="23.4">津巴布韦</tspan></text></g><g id="shape4" transform="translate(39 410)"><path d="M100 38 100 0 0 0 0 38 100 38Z" stroke="#101843" fill="#FFFFFF"/><text fill="#191919" font-family="方正书宋简体,PingFang SC,Mircrosoft YaHei,Arial" font-size="17.3333" xml:space="preserve"><tspan x="32.4" y="23.4">回收</tspan></text></g><g id="shape5" transform="translate(187 112.083)"><path d="M143 38 143 0 0 0 0 38 143 38Z" stroke="#101843" fill="#FFFFFF"/><text fill="#191919" font-family="方正书宋简体,PingFang SC,Mircrosoft YaHei,Arial" font-size="17.3333" xml:space="preserve"><tspan x="36.3" y="23.4">硫化精矿</tspan></text></g><g id="shape6" transform="translate(187 171.667)"><path d="M143 38 143 0 0 0 0 38 143 38Z" stroke="#101843" fill="#FFFFFF"/><text fill="#191919" font-family="方正书宋简体,PingFang SC,Mircrosoft YaHei,Arial" font-size="17.3333" xml:space="preserve"><tspan x="45.1" y="23.4">合金类</tspan></text></g><g id="shape7" transform="translate(187 231.25)"><path d="M143 38 143 0 0 0 0 38 143 38Z" stroke="#101843" fill="#FFFFFF"/><text fill="#191919" font-family="方正书宋简体,PingFang SC,Mircrosoft YaHei,Arial" font-size="17.3333" xml:space="preserve"><tspan x="29.1" y="23.4">高冰镍MSP</tspan></text></g><g id="shape8" transform="translate(187 290.833)"><path d="M143 38 143 0 0 0 0 38 143 38Z" stroke="#101843" fill="#FFFFFF"/><text fill="#191919" font-family="方正书宋简体,PingFang SC,Mircrosoft YaHei,Arial" font-size="17.3333" xml:space="preserve"><tspan x="18.3" y="23.4">氢氧化镍MHP</tspan></text></g><g id="shape9" transform="translate(39 39.5)"><path d="M100 44 100 7C100 3.1 96.9 0 93 0L7 0C3.1 0 0 3.1 0 7L0 44C0 47.9 3.1 51 7 51L93 51C96.9 51 100 47.9 100 44Z" stroke="#101843" fill="#FFFFFF"/><text fill="#191919" font-family="方正书宋简体,PingFang SC,Mircrosoft YaHei,Arial" font-size="17.3333" xml:space="preserve"><tspan x="32.4" y="29.9">源头</tspan></text></g><g id="shape10" transform="translate(187 350.417)"><path d="M143 38 143 0 0 0 0 38 143 38Z" stroke="#101843" fill="#FFFFFF"/><text fill="#191919" font-family="方正书宋简体,PingFang SC,Mircrosoft YaHei,Arial" font-size="17.3333" xml:space="preserve"><tspan x="45.1" y="23.4">电池料</tspan></text></g><g id="shape11" transform="translate(187 410)"><path d="M143 38 143 0 0 0 0 38 143 38Z" stroke="#101843" fill="#FFFFFF"/><text fill="#191919" font-family="方正书宋简体,PingFang SC,Mircrosoft YaHei,Arial" font-size="17.3333" xml:space="preserve"><tspan x="36.3" y="23.4">氢氧化钴</tspan></text></g><g id="shape12" transform="translate(187 39.5)"><path d="M143 44 143 7C143 3.1 139.9 0 136 0L7 0C3.1 0 0 3.1 0 7L0 44C0 47.9 3.1 51 7 51L136 51C139.9 51 143 47.9 143 44Z" stroke="#101843" fill="#FFFFFF"/><text fill="#191919" font-family="方正书宋简体,PingFang SC,Mircrosoft YaHei,Arial" font-size="17.3333" xml:space="preserve"><tspan x="45.1" y="22.4">初加工</tspan><tspan font-size="13.3333" x="19.1" y="39.2">选矿产物/中间品</tspan></text></g><g id="shape13" transform="translate(139 65)"><path d="M0 0 42 0" stroke="#191919" fill="none"/><path d="M42-3 48 0 42 3 42-3" stroke="#191919" stroke-linecap="round" fill="#191919"/></g><g id="shape14" transform="translate(378 39.5)"><path d="M143 44 143 7C143 3.1 139.9 0 136 0L7 0C3.1 0 0 3.1 0 7L0 44C0 47.9 3.1 51 7 51L136 51C139.9 51 143 47.9 143 44Z" stroke="#101843" fill="#FFFFFF"/><text fill="#191919" font-family="方正书宋简体,PingFang SC,Mircrosoft YaHei,Arial" font-size="17.3333" xml:space="preserve"><tspan x="27.5" y="29.9">精加工提纯</tspan></text></g><g id="shape15" transform="translate(378 109.083)"><path d="M143 56 143 0 0 0 0 56 143 56Z" stroke="#101843" fill="#FFFFFF"/><text fill="#191919" font-family="方正书宋简体,PingFang SC,Mircrosoft YaHei,Arial" font-size="17.3333" xml:space="preserve"><tspan x="45.1" y="22.4">电池级</tspan><tspan x="16.3" y="42.4">硫酸钴/氯化钴</tspan></text></g><g id="shape16" transform="translate(378 183.667)"><path d="M143 38 143 0 0 0 0 38 143 38Z" stroke="#101843" fill="#FFFFFF"/><text fill="#191919" font-family="方正书宋简体,PingFang SC,Mircrosoft YaHei,Arial" font-size="17.3333" xml:space="preserve"><tspan x="18.7" y="23.4">电池级硫酸镍</tspan></text></g><g id="shape17" transform="translate(378 240.25)"><path d="M143 38 143 0 0 0 0 38 143 38Z" stroke="#101843" fill="#FFFFFF"/><text fill="#191919" font-family="方正书宋简体,PingFang SC,Mircrosoft YaHei,Arial" font-size="17.3333" xml:space="preserve"><tspan x="45.1" y="23.4">羟基钴</tspan></text></g><g id="shape18" transform="translate(378 296.833)"><path d="M143 38 143 0 0 0 0 38 143 38Z" stroke="#101843" fill="#FFFFFF"/><text fill="#191919" font-family="方正书宋简体,PingFang SC,Mircrosoft YaHei,Arial" font-size="17.3333" xml:space="preserve"><tspan x="18.7" y="23.4">电池级硫酸锰</tspan></text></g><g id="shape19" transform="translate(378 353.417)"><path d="M143 38 143 0 0 0 0 38 143 38Z" stroke="#101843" fill="#FFFFFF"/><text fill="#191919" font-family="方正书宋简体,PingFang SC,Mircrosoft YaHei,Arial" font-size="17.3333" xml:space="preserve"><tspan x="33.9" y="23.4">电钴/电镍</tspan></text></g><g id="shape20" transform="translate(378 410)"><path d="M143 38 143 0 0 0 0 38 143 38Z" stroke="#101843" fill="#FFFFFF"/><text fill="#191919" font-family="方正书宋简体,PingFang SC,Mircrosoft YaHei,Arial" font-size="17.3333" xml:space="preserve"><tspan x="45.1" y="23.4">电积铜</tspan></text></g><g id="shape21" transform="translate(330 65)"><path d="M0 0 42 0" stroke="#191919" fill="none"/><path d="M42-3 48 0 42 3 42-3" stroke="#191919" stroke-linecap="round" fill="#191919"/></g><g id="shape22" transform="translate(569 39.5)"><path d="M143 44 143 7C143 3.1 139.9 0 136 0L7 0C3.1 0 0 3.1 0 7L0 44C0 47.9 3.1 51 7 51L136 51C139.9 51 143 47.9 143 44Z" stroke="#101843" fill="#FFFFFF"/><text fill="#191919" font-family="方正书宋简体,PingFang SC,Mircrosoft YaHei,Arial" font-size="17.3333" xml:space="preserve"><tspan x="27.5" y="29.9">前驱体制造</tspan></text></g><g id="shape23" transform="translate(569 158.667)"><path d="M143 51 143 0 0 0 0 51 143 51Z" stroke="#101843" fill="#FFFFFF"/><text fill="#191919" font-family="方正书宋简体,PingFang SC,Mircrosoft YaHei,Arial" font-size="17.3333" xml:space="preserve"><tspan x="27.5" y="22.4">四氧化三钴</tspan><tspan font-size="13.3333" x="35.5" y="39.2">3C数码电池</tspan></text></g><g id="shape24" transform="translate(569 397)"><path d="M143 51 143 0 0 0 0 51 143 51Z" stroke="#101843" fill="#FFFFFF"/><text fill="#191919" font-family="方正书宋简体,PingFang SC,Mircrosoft YaHei,Arial" font-size="17.3333" xml:space="preserve"><tspan x="36.3" y="22.4">磷酸铁锂</tspan><tspan font-size="13.3333" x="57.1" y="39.2">电池</tspan></text></g><g id="shape25" transform="translate(521 65)"><path d="M0 0 42 0" stroke="#191919" fill="none"/><path d="M42-3 48 0 42 3 42-3" stroke="#191919" stroke-linecap="round" fill="#191919"/></g><g id="shape26" transform="translate(760 39.5)"><path d="M143 44 143 7C143 3.1 139.9 0 136 0L7 0C3.1 0 0 3.1 0 7L0 44C0 47.9 3.1 51 7 51L136 51C139.9 51 143 47.9 143 44Z" stroke="#101843" fill="#FFFFFF"/><text fill="#191919" font-family="方正书宋简体,PingFang SC,Mircrosoft YaHei,Arial" font-size="17.3333" xml:space="preserve"><tspan x="27.5" y="29.9">正极及终端</tspan></text></g><g id="shape27" transform="translate(760 111)"><path d="M143 51 143 0 0 0 0 51 143 51Z" stroke="#101843" fill="#FFFFFF"/><text fill="#191919" font-family="方正书宋简体,PingFang SC,Mircrosoft YaHei,Arial" font-size="17.3333" xml:space="preserve"><tspan x="9.9" y="29.9">补锂、烧结成型</tspan></text></g><g id="shape28" transform="translate(760 182.5)"><path d="M143 51 143 0 0 0 0 51 143 51Z" stroke="#101843" fill="#FFFFFF"/><text fill="#191919" font-family="方正书宋简体,PingFang SC,Mircrosoft YaHei,Arial" font-size="17.3333" xml:space="preserve"><tspan x="13.9" y="29.9">调浆/涂布/卷片</tspan></text></g><g id="shape29" transform="translate(760 254)"><path d="M143 51 143 0 0 0 0 51 143 51Z" stroke="#101843" fill="#FFFFFF"/><text fill="#191919" font-family="方正书宋简体,PingFang SC,Mircrosoft YaHei,Arial" font-size="17.3333" xml:space="preserve"><tspan x="36.3" y="29.9">单体成型</tspan></text></g><g id="shape30" transform="translate(760 325.5)"><path d="M143 51 143 0 0 0 0 51 143 51Z" stroke="#101843" fill="#FFFFFF"/><text fill="#191919" font-family="方正书宋简体,PingFang SC,Mircrosoft YaHei,Arial" font-size="17.3333" xml:space="preserve"><tspan x="31.9" y="19.9">PACK设计</tspan><tspan x="7.5" y="39.9">能量/热量控制等</tspan></text></g><g id="shape31" transform="translate(760 397)"><path d="M143 51 143 0 0 0 0 51 143 51Z" stroke="#101843" fill="#FFFFFF"/><text fill="#191919" font-family="方正书宋简体,PingFang SC,Mircrosoft YaHei,Arial" font-size="17.3333" xml:space="preserve"><tspan x="27.5" y="29.9">个性化定制</tspan></text></g><g id="shape32" transform="translate(712 65)"><path d="M0 0 42 0" stroke="#191919" fill="none"/><path d="M42-3 48 0 42 3 42-3" stroke="#191919" stroke-linecap="round" fill="#191919"/></g><g id="shape33" transform="matrix(0 1 -1 0 713.987 453.5)"><path d="M0 0 7.5 0C9.6-0.3 11.6 0.4 13.1 1.9 14.6 3.4 15.3 5.4 15 7.5L15 256C14.7 258 15.4 260.1 16.9 261.6 18.4 263.1 20.4 263.8 22.5 263.5 20.4 263.2 18.4 263.9 16.9 265.3 15.4 266.8 14.7 268.9 15 271L15 519.4C15.3 521.5 14.6 523.6 13.1 525 11.6 526.5 9.6 527.2 7.5 526.9L0 526.9" stroke="#000000" fill="none"/><text fill="#191919" font-family="方正书宋简体,PingFang SC,Mircrosoft YaHei,Arial" font-size="13.3333" xml:space="preserve" transform="matrix(0 -1 1 0 -224.5 302.5)"><tspan x="11.2" y="267.2">加工环节</tspan></text></g><g id="shape34" transform="translate(569 277.833)"><path d="M143 51 143 0 0 0 0 51 143 51Z" stroke="#101843" fill="#FFFFFF"/><text fill="#191919" font-family="方正书宋简体,PingFang SC,Mircrosoft YaHei,Arial" font-size="17.3333" xml:space="preserve"><tspan x="45.1" y="22.4">镍钴锰</tspan><tspan font-size="13.3333" x="28.3" y="39.2">三元动力电池</tspan></text></g></g></svg>