<svg xmlns:xlink="http://www.w3.org/1999/xlink" xmlns="http://www.w3.org/2000/svg" width="473" viewBox="0 0 473 515" xmlns:ev="http://www.w3.org/2001/xml-events" height="515"><defs/><g transform="translate(5.5,5.5)" id="page2"><rect x="0" fill="none" y="0" width="463" height="505"/><path fill="#e9f8f5" d="M.0,.0L136.0,.0L136.0,426.5L.0,426.5L.0,.0z" fill-rule="nonzero" stroke-width="0.3333329856395721" transform="translate(39.000000,39.500000)" id="shape1" stroke-dasharray="2,5" stroke="#4ed7c5"/><g transform="translate(54.000000,50.000000)" id="shape2"><path fill="#ffffff" d="M108.0,31.0L108.0,7.0C108.0,3.1,104.9,.0,101.0,.0L7.0,.0C3.1,.0,.0,3.1,.0,7.0L.0,31.0C.0,34.9,3.1,38.0,7.0,38.0L101.0,38.0C104.9,38.0,108.0,34.9,108.0,31.0z" fill-rule="nonzero" stroke-width="0.3333329856395721" stroke="#101843"/><text style="fill:#191919;font-family:方正书宋简体,PingFang SC,Mircrosoft YaHei,Arial;font-size:10.00pt" xml:space="preserve"><tspan x="39.6" style="font-family:方正书宋简体,PingFang SC,Mircrosoft YaHei,Arial" y="15.2">粗制</tspan><tspan x="18.0" style="font-family:方正书宋简体,PingFang SC,Mircrosoft YaHei,Arial" y="31.2">硫酸钴溶液</tspan></text></g><g transform="translate(54.000000,101.375000)" id="shape3"><path fill="#ffffff" d="M108.0,25.0L108.0,.0L.0,.0L.0,25.0L108.0,25.0z" fill-rule="nonzero" stroke-width="0.3333329856395721" stroke="#101843"/><text style="fill:#191919;font-family:方正书宋简体,PingFang SC,Mircrosoft YaHei,Arial;font-size:10.00pt" xml:space="preserve"><tspan x="26.4" style="font-family:方正书宋简体,PingFang SC,Mircrosoft YaHei,Arial" y="16.2">P204萃杂</tspan></text></g><g transform="translate(108.000000,88.000000)" id="shape4"><path d="M.0,.0L.0,7.4" fill="none" stroke-width="0.3333329856395721" stroke="#191919"/><path fill="#191919" d="M3.0,7.4L.0,13.4L-3.0,7.4L3.0,7.4" stroke-width="1" stroke-linecap="round" stroke="#191919"/></g><g transform="translate(108.000000,126.375000)" id="shape5"><path d="M.0,.0L.0,7.4" fill="none" stroke-width="0.3333329856395721" stroke="#191919"/><path fill="#191919" d="M3.0,7.4L.0,13.4L-3.0,7.4L3.0,7.4" stroke-width="1" stroke-linecap="round" stroke="#191919"/></g><g transform="translate(54.000000,139.750000)" id="shape6"><path fill="#ffffff" d="M108.0,25.0L108.0,.0L.0,.0L.0,25.0L108.0,25.0z" fill-rule="nonzero" stroke-width="0.3333329856395721" stroke="#101843"/><text style="fill:#191919;font-family:方正书宋简体,PingFang SC,Mircrosoft YaHei,Arial;font-size:10.00pt" xml:space="preserve"><tspan x="26.4" style="font-family:方正书宋简体,PingFang SC,Mircrosoft YaHei,Arial" y="16.2">P507萃钴</tspan></text></g><g transform="translate(108.000000,164.750000)" id="shape7"><path d="M.0,.0L.0,7.4" fill="none" stroke-width="0.3333329856395721" stroke="#191919"/><path fill="#191919" d="M3.0,7.4L.0,13.4L-3.0,7.4L3.0,7.4" stroke-width="1" stroke-linecap="round" stroke="#191919"/></g><g transform="translate(54.000000,178.125000)" id="shape8"><path fill="#ffffff" d="M108.0,25.0L108.0,.0L.0,.0L.0,25.0L108.0,25.0z" fill-rule="nonzero" stroke-width="0.3333329856395721" stroke="#101843"/><text style="fill:#191919;font-family:方正书宋简体,PingFang SC,Mircrosoft YaHei,Arial;font-size:10.00pt" xml:space="preserve"><tspan x="32.4" style="font-family:方正书宋简体,PingFang SC,Mircrosoft YaHei,Arial" y="16.2">洗涤段</tspan></text></g><g transform="translate(54.000000,216.500000)" id="shape9"><path fill="#ffffff" d="M50.0,25.0L50.0,.0L.0,.0L.0,25.0L50.0,25.0z" fill-rule="nonzero" stroke-width="0.3333329856395721" stroke="#101843"/><text style="fill:#191919;font-family:方正书宋简体,PingFang SC,Mircrosoft YaHei,Arial;font-size:10.00pt" xml:space="preserve"><tspan x="3.4" style="font-family:方正书宋简体,PingFang SC,Mircrosoft YaHei,Arial" y="16.2">反萃段</tspan></text></g><g transform="translate(112.000000,216.500000)" id="shape10"><path fill="#ffffff" d="M50.0,25.0L50.0,.0L.0,.0L.0,25.0L50.0,25.0z" fill-rule="nonzero" stroke-width="0.3333329856395721" stroke="#101843"/><text style="fill:#191919;font-family:方正书宋简体,PingFang SC,Mircrosoft YaHei,Arial;font-size:10.00pt" xml:space="preserve"><tspan x="3.4" style="font-family:方正书宋简体,PingFang SC,Mircrosoft YaHei,Arial" y="16.2">洗硫段</tspan></text></g><g transform="translate(108.000000,203.125000)" id="shape11"><path d="M.0,.0L.0,5.9L-29.0,5.9L-29.0,7.4" fill="none" stroke-width="0.3333329856395721" stroke="#191919"/><path fill="#191919" d="M-26.0,7.4L-29.0,13.4L-32.0,7.4L-26.0,7.4" stroke-width="1" stroke-linecap="round" stroke="#191919"/></g><g transform="translate(108.000000,203.125000)" id="shape12"><path d="M.0,.0L.0,5.9L29.0,5.9L29.0,7.4" fill="none" stroke-width="0.3333329856395721" stroke="#191919"/><path fill="#191919" d="M32.0,7.4L29.0,13.4L26.0,7.4L32.0,7.4" stroke-width="1" stroke-linecap="round" stroke="#191919"/></g><g transform="translate(54.000000,248.375000)" id="shape13"><path fill="#ffffff" d="M50.0,31.0L50.0,7.0C50.0,3.1,46.9,.0,43.0,.0L7.0,.0C3.1,.0,.0,3.1,.0,7.0L.0,31.0C.0,34.9,3.1,38.0,7.0,38.0L43.0,38.0C46.9,38.0,50.0,34.9,50.0,31.0z" fill-rule="nonzero" stroke-width="0.3333329856395721" stroke="#101843"/><text style="fill:#191919;font-family:方正书宋简体,PingFang SC,Mircrosoft YaHei,Arial;font-size:10.00pt" xml:space="preserve"><tspan x="3.4" style="font-family:方正书宋简体,PingFang SC,Mircrosoft YaHei,Arial" y="15.2">硫酸钴</tspan><tspan x="10.6" style="font-family:方正书宋简体,PingFang SC,Mircrosoft YaHei,Arial" y="31.2">溶液</tspan></text></g><g transform="translate(112.000000,254.875000)" id="shape14"><path fill="#ffffff" d="M50.0,25.0L50.0,.0L.0,.0L.0,25.0L50.0,25.0z" fill-rule="nonzero" stroke-width="0.3333329856395721" stroke="#101843"/><text style="fill:#191919;font-family:方正书宋简体,PingFang SC,Mircrosoft YaHei,Arial;font-size:10.00pt" xml:space="preserve"><tspan x="3.4" style="font-family:方正书宋简体,PingFang SC,Mircrosoft YaHei,Arial" y="16.2">反萃段</tspan></text></g><g transform="translate(112.000000,293.250000)" id="shape15"><path fill="#ffffff" d="M50.0,31.0L50.0,7.0C50.0,3.1,46.9,.0,43.0,.0L7.0,.0C3.1,.0,.0,3.1,.0,7.0L.0,31.0C.0,34.9,3.1,38.0,7.0,38.0L43.0,38.0C46.9,38.0,50.0,34.9,50.0,31.0z" fill-rule="nonzero" stroke-width="0.3333329856395721" stroke="#101843"/><text style="fill:#191919;font-family:方正书宋简体,PingFang SC,Mircrosoft YaHei,Arial;font-size:10.00pt" xml:space="preserve"><tspan x="3.4" style="font-family:方正书宋简体,PingFang SC,Mircrosoft YaHei,Arial" y="15.2">氯化钴</tspan><tspan x="10.6" style="font-family:方正书宋简体,PingFang SC,Mircrosoft YaHei,Arial" y="31.2">溶液</tspan></text></g><g transform="translate(54.000000,299.750000)" id="shape16"><path fill="#ffffff" d="M50.0,25.0L50.0,.0L.0,.0L.0,25.0L50.0,25.0z" fill-rule="nonzero" stroke-width="0.3333329856395721" stroke="#101843"/><text style="fill:#191919;font-family:方正书宋简体,PingFang SC,Mircrosoft YaHei,Arial;font-size:10.00pt" xml:space="preserve"><tspan x="10.6" style="font-family:方正书宋简体,PingFang SC,Mircrosoft YaHei,Arial" y="16.2">电积</tspan></text></g><g transform="translate(112.000000,344.625000)" id="shape17"><path fill="#ffffff" d="M50.0,25.0L50.0,.0L.0,.0L.0,25.0L50.0,25.0z" fill-rule="nonzero" stroke-width="0.3333329856395721" stroke="#101843"/><text style="fill:#191919;font-family:方正书宋简体,PingFang SC,Mircrosoft YaHei,Arial;font-size:10.00pt" xml:space="preserve"><tspan x="10.6" style="font-family:方正书宋简体,PingFang SC,Mircrosoft YaHei,Arial" y="16.2">电积</tspan></text></g><g transform="translate(54.000000,341.350000)" id="shape18"><path fill="#ffffff" d="M50.0,54.0L50.0,7.0C50.0,3.1,46.9,.0,43.0,.0L7.0,.0C3.1,.0,.0,3.1,.0,7.0L.0,54.0C.0,57.9,3.1,61.0,7.0,61.0L43.0,61.0C46.9,61.0,50.0,57.9,50.0,54.0z" fill-rule="nonzero" stroke-width="0.3333329856395721" stroke="#101843"/><text style="fill:#191919;font-family:方正书宋简体,PingFang SC,Mircrosoft YaHei,Arial;font-size:10.00pt" xml:space="preserve"><tspan x="10.6" style="font-family:方正书宋简体,PingFang SC,Mircrosoft YaHei,Arial" y="19.2">硫系</tspan><tspan x="10.6" style="font-family:方正书宋简体,PingFang SC,Mircrosoft YaHei,Arial" y="35.2">电钴</tspan><tspan x="6.6" style="font-family:方正书宋简体,PingFang SC,Mircrosoft YaHei,Arial" y="51.2">(外售)</tspan></text></g><g transform="translate(112.000000,383.000000)" id="shape19"><path fill="#ffffff" d="M50.0,31.0L50.0,7.0C50.0,3.1,46.9,.0,43.0,.0L7.0,.0C3.1,.0,.0,3.1,.0,7.0L.0,31.0C.0,34.9,3.1,38.0,7.0,38.0L43.0,38.0C46.9,38.0,50.0,34.9,50.0,31.0z" fill-rule="nonzero" stroke-width="0.3333329856395721" stroke="#101843"/><text style="fill:#191919;font-family:方正书宋简体,PingFang SC,Mircrosoft YaHei,Arial;font-size:10.00pt" xml:space="preserve"><tspan x="10.6" style="font-family:方正书宋简体,PingFang SC,Mircrosoft YaHei,Arial" y="15.2">氯系</tspan><tspan x="10.6" style="font-family:方正书宋简体,PingFang SC,Mircrosoft YaHei,Arial" y="31.2">电钴</tspan></text></g><g transform="translate(79.000000,241.500000)" id="shape20"><path d="" fill="none" stroke-width="0.3333329856395721" stroke="#191919"/></g><g transform="translate(137.000000,241.500000)" id="shape21"><path d="M.0,.0L.0,1.5L.0,1.5L.0,7.4" fill="none" stroke-width="0.3333329856395721" stroke="#191919"/><path fill="#191919" d="M3.0,7.4L.0,13.4L-3.0,7.4L3.0,7.4" stroke-width="1" stroke-linecap="round" stroke="#191919"/></g><g transform="translate(137.000000,279.875000)" id="shape22"><path d="M.0,.0L.0,1.1L-0.0,6.1L-0.0,7.4" fill="none" stroke-width="0.3333329856395721" stroke="#191919"/><path fill="#191919" d="M3.0,7.4L-0.0,13.4L-3.0,7.4L3.0,7.4" stroke-width="1" stroke-linecap="round" stroke="#191919"/></g><g transform="translate(137.000000,331.250000)" id="shape23"><path d="M.0,.0L.0,1.8L.0,1.8L.0,7.4" fill="none" stroke-width="0.3333329856395721" stroke="#191919"/><path fill="#191919" d="M3.0,7.4L.0,13.4L-3.0,7.4L3.0,7.4" stroke-width="1" stroke-linecap="round" stroke="#191919"/></g><g transform="translate(137.000000,369.625000)" id="shape24"><path d="M.0,.0L.0,7.4" fill="none" stroke-width="0.3333329856395721" stroke="#191919"/><path fill="#191919" d="M3.0,7.4L.0,13.4L-3.0,7.4L3.0,7.4" stroke-width="1" stroke-linecap="round" stroke="#191919"/></g><g transform="translate(79.000000,286.375000)" id="shape25"><path d="M.0,.0L.0,1.6L-0.0,1.6L-0.0,7.4" fill="none" stroke-width="0.3333329856395721" stroke="#191919"/><path fill="#191919" d="M3.0,7.4L-0.0,13.4L-3.0,7.4L3.0,7.4" stroke-width="1" stroke-linecap="round" stroke="#191919"/></g><g transform="translate(79.000000,324.750000)" id="shape26"><path d="M.0,.0L.0,10.6" fill="none" stroke-width="0.3333329856395721" stroke="#191919"/><path fill="#191919" d="M3.0,10.6L.0,16.6L-3.0,10.6L3.0,10.6" stroke-width="1" stroke-linecap="round" stroke="#191919"/></g><g transform="translate(39.000000,435.000000)" id="shape27"><text style="fill:#379e90;font-family:方正书宋简体,PingFang SC,Mircrosoft YaHei,Arial;font-size:12.00pt;font-weight:bold" xml:space="preserve"><tspan x="17.6" style="font-family:方正书宋简体,PingFang SC,Mircrosoft YaHei,Arial" y="18.8">钴线萃取电积</tspan></text></g><path fill="#ffecec" d="M.0,.0L136.0,.0L136.0,426.5L.0,426.5L.0,.0z" fill-rule="nonzero" stroke-width="0.3333329856395721" transform="translate(288.000000,39.500000)" id="shape28" stroke-dasharray="2,5" stroke="#ff7e79"/><g transform="translate(307.000000,50.000000)" id="shape29"><path fill="#ffffff" d="M108.0,31.0L108.0,7.0C108.0,3.1,104.9,.0,101.0,.0L7.0,.0C3.1,.0,.0,3.1,.0,7.0L.0,31.0C.0,34.9,3.1,38.0,7.0,38.0L101.0,38.0C104.9,38.0,108.0,34.9,108.0,31.0z" fill-rule="nonzero" stroke-width="0.3333329856395721" stroke="#101843"/><text style="fill:#191919;font-family:方正书宋简体,PingFang SC,Mircrosoft YaHei,Arial;font-size:10.00pt" xml:space="preserve"><tspan x="39.6" style="font-family:方正书宋简体,PingFang SC,Mircrosoft YaHei,Arial" y="15.2">粗制</tspan><tspan x="18.0" style="font-family:方正书宋简体,PingFang SC,Mircrosoft YaHei,Arial" y="31.2">硫酸镍溶液</tspan></text></g><g transform="translate(307.000000,101.375000)" id="shape30"><path fill="#ffffff" d="M108.0,25.0L108.0,.0L.0,.0L.0,25.0L108.0,25.0z" fill-rule="nonzero" stroke-width="0.3333329856395721" stroke="#101843"/><text style="fill:#191919;font-family:方正书宋简体,PingFang SC,Mircrosoft YaHei,Arial;font-size:10.00pt" xml:space="preserve"><tspan x="26.4" style="font-family:方正书宋简体,PingFang SC,Mircrosoft YaHei,Arial" y="16.2">P204萃杂</tspan></text></g><g transform="translate(361.000000,88.000000)" id="shape31"><path d="M.0,.0L.0,7.4" fill="none" stroke-width="0.3333329856395721" stroke="#191919"/><path fill="#191919" d="M3.0,7.4L.0,13.4L-3.0,7.4L3.0,7.4" stroke-width="1" stroke-linecap="round" stroke="#191919"/></g><g transform="translate(361.000000,126.375000)" id="shape32"><path d="M.0,.0L.0,7.4" fill="none" stroke-width="0.3333329856395721" stroke="#191919"/><path fill="#191919" d="M3.0,7.4L.0,13.4L-3.0,7.4L3.0,7.4" stroke-width="1" stroke-linecap="round" stroke="#191919"/></g><g transform="translate(307.000000,139.750000)" id="shape33"><path fill="#ffffff" d="M108.0,25.0L108.0,.0L.0,.0L.0,25.0L108.0,25.0z" fill-rule="nonzero" stroke-width="0.3333329856395721" stroke="#101843"/><text style="fill:#191919;font-family:方正书宋简体,PingFang SC,Mircrosoft YaHei,Arial;font-size:10.00pt" xml:space="preserve"><tspan x="26.4" style="font-family:方正书宋简体,PingFang SC,Mircrosoft YaHei,Arial" y="16.2">P507萃钴</tspan></text></g><g transform="translate(307.000000,178.125000)" id="shape34"><path fill="#ffffff" d="M108.0,25.0L108.0,.0L.0,.0L.0,25.0L108.0,25.0z" fill-rule="nonzero" stroke-width="0.3333329856395721" stroke="#101843"/><text style="fill:#191919;font-family:方正书宋简体,PingFang SC,Mircrosoft YaHei,Arial;font-size:10.00pt" xml:space="preserve"><tspan x="22.8" style="font-family:方正书宋简体,PingFang SC,Mircrosoft YaHei,Arial" y="16.2">Cy272萃镁</tspan></text></g><g transform="translate(307.000000,216.500000)" id="shape35"><path fill="#ffffff" d="M108.0,25.0L108.0,.0L.0,.0L.0,25.0L108.0,25.0z" fill-rule="nonzero" stroke-width="0.3333329856395721" stroke="#101843"/><text style="fill:#191919;font-family:方正书宋简体,PingFang SC,Mircrosoft YaHei,Arial;font-size:10.00pt" xml:space="preserve"><tspan x="39.6" style="font-family:方正书宋简体,PingFang SC,Mircrosoft YaHei,Arial" y="16.2">除油</tspan></text></g><g transform="translate(307.000000,254.875000)" id="shape36"><path fill="#ffffff" d="M108.0,18.0L108.0,7.0C108.0,3.1,104.9,.0,101.0,.0L7.0,.0C3.1,.0,.0,3.1,.0,7.0L.0,18.0C.0,21.9,3.1,25.0,7.0,25.0L101.0,25.0C104.9,25.0,108.0,21.9,108.0,18.0z" fill-rule="nonzero" stroke-width="0.3333329856395721" stroke="#101843"/><text style="fill:#191919;font-family:方正书宋简体,PingFang SC,Mircrosoft YaHei,Arial;font-size:10.00pt" xml:space="preserve"><tspan x="18.0" style="font-family:方正书宋简体,PingFang SC,Mircrosoft YaHei,Arial" y="16.2">硫酸镍溶液</tspan></text></g><g transform="translate(307.000000,294.750000)" id="shape37"><path fill="#ffffff" d="M50.0,46.0L50.0,.0L.0,.0L.0,46.0L50.0,46.0z" fill-rule="nonzero" stroke-width="0.3333329856395721" stroke="#101843"/><text style="fill:#191919;font-family:方正书宋简体,PingFang SC,Mircrosoft YaHei,Arial;font-size:10.00pt" xml:space="preserve"><tspan x="11.0" style="font-family:方正书宋简体,PingFang SC,Mircrosoft YaHei,Arial" y="19.2">MVR</tspan><tspan x="10.6" style="font-family:方正书宋简体,PingFang SC,Mircrosoft YaHei,Arial" y="35.2">蒸发</tspan></text></g><g transform="translate(365.000000,293.250000)" id="shape38"><path fill="#ffffff" d="M50.0,49.0L50.0,.0L.0,.0L.0,49.0L50.0,49.0z" fill-rule="nonzero" stroke-width="0.3333329856395721" stroke="#101843"/><text style="fill:#191919;font-family:方正书宋简体,PingFang SC,Mircrosoft YaHei,Arial;font-size:10.00pt" xml:space="preserve"><tspan x="10.6" style="font-family:方正书宋简体,PingFang SC,Mircrosoft YaHei,Arial" y="28.2">电积</tspan></text></g><g transform="translate(307.000000,359.350200)" id="shape39"><path fill="#ffffff" d="M50.0,31.6L50.0,7.0C50.0,3.1,46.9,.0,43.0,.0L7.0,.0C3.1,.0,.0,3.1,.0,7.0L.0,31.6C.0,35.5,3.1,38.6,7.0,38.6L43.0,38.6C46.9,38.6,50.0,35.5,50.0,31.6z" fill-rule="nonzero" stroke-width="0.3333329856395721" stroke="#101843"/><text style="fill:#191919;font-family:方正书宋简体,PingFang SC,Mircrosoft YaHei,Arial;font-size:10.00pt" xml:space="preserve"><tspan x="3.4" style="font-family:方正书宋简体,PingFang SC,Mircrosoft YaHei,Arial" y="15.5">硫酸镍</tspan><tspan x="10.6" style="font-family:方正书宋简体,PingFang SC,Mircrosoft YaHei,Arial" y="31.5">晶体</tspan></text></g><g transform="translate(365.000000,359.350200)" id="shape40"><path fill="#ffffff" d="M50.0,31.6L50.0,7.0C50.0,3.1,46.9,.0,43.0,.0L7.0,.0C3.1,.0,.0,3.1,.0,7.0L.0,31.6C.0,35.5,3.1,38.6,7.0,38.6L43.0,38.6C46.9,38.6,50.0,35.5,50.0,31.6z" fill-rule="nonzero" stroke-width="0.3333329856395721" stroke="#101843"/><text style="fill:#191919;font-family:方正书宋简体,PingFang SC,Mircrosoft YaHei,Arial;font-size:10.00pt" xml:space="preserve"><tspan x="10.6" style="font-family:方正书宋简体,PingFang SC,Mircrosoft YaHei,Arial" y="23.0">电镍</tspan></text></g><g transform="translate(288.000000,413.000000)" id="shape41"><text style="fill:#bc5b57;font-family:方正书宋简体,PingFang SC,Mircrosoft YaHei,Arial;font-size:12.00pt;font-weight:bold" xml:space="preserve"><tspan x="51.2" style="font-family:方正书宋简体,PingFang SC,Mircrosoft YaHei,Arial" y="20.8">镍线</tspan><tspan x="17.6" style="font-family:方正书宋简体,PingFang SC,Mircrosoft YaHei,Arial" y="39.2">萃取蒸发电积</tspan></text></g><g transform="translate(186.500000,101.375000)" id="shape42"><path fill="#ffffff" d="M90.0,167.0L90.0,7.0C90.0,3.1,86.9,.0,83.0,.0L7.0,.0C3.1,.0,.0,3.1,.0,7.0L.0,167.0C.0,170.9,3.1,174.0,7.0,174.0L83.0,174.0C86.9,174.0,90.0,170.9,90.0,167.0z" fill-rule="nonzero" stroke-width="0.3333329856395721" stroke="#101843"/><text style="fill:#191919;font-family:方正书宋简体,PingFang SC,Mircrosoft YaHei,Arial;font-size:10.00pt" xml:space="preserve"><tspan x="9.0" style="font-family:方正书宋简体,PingFang SC,Mircrosoft YaHei,Arial" y="19.4">硫酸钠废水</tspan><tspan x="16.2" style="font-family:方正书宋简体,PingFang SC,Mircrosoft YaHei,Arial" y="43.5">反铜锰液</tspan><tspan x="16.2" style="font-family:方正书宋简体,PingFang SC,Mircrosoft YaHei,Arial" y="67.5">反锌后液</tspan><tspan x="9.0" style="font-family:方正书宋简体,PingFang SC,Mircrosoft YaHei,Arial" y="91.5">氯化钠废水</tspan><tspan x="23.4" style="font-family:方正书宋简体,PingFang SC,Mircrosoft YaHei,Arial" y="115.5">硫铵液</tspan><tspan x="23.4" style="font-family:方正书宋简体,PingFang SC,Mircrosoft YaHei,Arial" y="139.4">洗氯水</tspan><tspan x="9.0" style="font-family:方正书宋简体,PingFang SC,Mircrosoft YaHei,Arial" y="163.4">硫酸镁废水</tspan></text></g><g transform="translate(162.000000,113.875000)" id="shape43"><path d="M.0,.0L18.5,.0" fill="none" stroke-width="0.3333329856395721" stroke="#191919"/><path fill="#191919" d="M18.5,-3.0L24.5,.0L18.5,3.0L18.5,-3.0" stroke-width="1" stroke-linecap="round" stroke="#191919"/></g><g transform="translate(162.000000,152.250000)" id="shape44"><path d="M.0,.0L18.5,.0" fill="none" stroke-width="0.3333329856395721" stroke="#191919"/><path fill="#191919" d="M18.5,-3.0L24.5,.0L18.5,3.0L18.5,-3.0" stroke-width="1" stroke-linecap="round" stroke="#191919"/></g><g transform="translate(307.000000,113.875000)" id="shape45"><path d="M.0,.0L-24.5,.0" fill="none" stroke-width="0.3333329856395721" stroke="#191919"/><path fill="#191919" d="M-24.5,3.0L-30.5,.0L-24.5,-3.0L-24.5,3.0" stroke-width="1" stroke-linecap="round" stroke="#191919"/></g><g transform="translate(307.000000,190.625000)" id="shape46"><path d="M.0,.0L-24.5,-0.0" fill="none" stroke-width="0.3333329856395721" stroke="#191919"/><path fill="#191919" d="M-24.5,3.0L-30.5,-0.0L-24.5,-3.0L-24.5,3.0" stroke-width="1" stroke-linecap="round" stroke="#191919"/></g><g transform="translate(361.000000,164.750000)" id="shape47"><path d="M.0,.0L.0,7.4" fill="none" stroke-width="0.3333329856395721" stroke="#191919"/><path fill="#191919" d="M3.0,7.4L.0,13.4L-3.0,7.4L3.0,7.4" stroke-width="1" stroke-linecap="round" stroke="#191919"/></g><g transform="translate(361.000000,203.125000)" id="shape48"><path d="M.0,.0L.0,7.4" fill="none" stroke-width="0.3333329856395721" stroke="#191919"/><path fill="#191919" d="M3.0,7.4L.0,13.4L-3.0,7.4L3.0,7.4" stroke-width="1" stroke-linecap="round" stroke="#191919"/></g><g transform="translate(361.000000,279.875000)" id="shape49"><path d="M.0,.0L.0,7.0L-29.0,7.0L-29.0,9.0" fill="none" stroke-width="0.3333329856395721" stroke="#191919"/><path fill="#191919" d="M-26.0,9.0L-29.0,15.0L-32.0,9.0L-26.0,9.0" stroke-width="1" stroke-linecap="round" stroke="#191919"/></g><g transform="translate(361.000000,279.875000)" id="shape50"><path d="M.0,.0L.0,6.1L29.0,6.1L29.0,7.4" fill="none" stroke-width="0.3333329856395721" stroke="#191919"/><path fill="#191919" d="M32.0,7.4L29.0,13.4L26.0,7.4L32.0,7.4" stroke-width="1" stroke-linecap="round" stroke="#191919"/></g><g transform="translate(332.000000,340.750000)" id="shape51"><path d="M.0,.0L.0,13.0" fill="none" stroke-width="0.3333329856395721" stroke="#191919"/><path fill="#191919" d="M3.0,13.0L.0,19.0L-3.0,13.0L3.0,13.0" stroke-width="1" stroke-linecap="round" stroke="#191919"/></g><g transform="translate(390.000000,342.250000)" id="shape52"><path d="M.0,.0L.0,11.1" fill="none" stroke-width="0.3333329856395721" stroke="#191919"/><path fill="#191919" d="M3.0,11.1L.0,17.1L-3.0,11.1L3.0,11.1" stroke-width="1" stroke-linecap="round" stroke="#191919"/></g></g></svg>