<svg width="663" height="635" viewBox="0 0 663 635" xmlns="http://www.w3.org/2000/svg" xmlns:xlink="http://www.w3.org/1999/xlink" overflow="hidden"><defs></defs><g id="page2" transform="translate(5.5 5.5)"><rect x="0" y="0" width="653" height="625" fill="none"/><path d="M0 0 575 0 575 98 0 98 0 0Z" id="shape1" fill="#FBEAEA" transform="translate(38.5197 277)"/><path d="M0 0 575 0 575 75.9 0 75.9 0 0Z" id="shape2" fill="#E8EFE9" transform="translate(38.5197 95.15)"/><path d="M0 0 575 0 575 106 0 106 0 0Z" id="shape3" fill="#FCF5E9" transform="translate(38.5197 171)"/><path d="M0 0 575 0 575 61 0 61 0 0Z" id="shape4" fill="#FCEFE9" transform="translate(38.5197 375)"/><path d="M0 0 575 0 575 91 0 91 0 0Z" id="shape5" fill="#E8EDFC" transform="translate(38.5197 435)"/><path d="M0 0 575 0 575 60 0 60 0 0Z" id="shape6" stroke="#EFE9F9" stroke-width="0.333333" fill="#EFE9F9" transform="translate(38.5197 526)"/><g id="shape7" transform="translate(342.52 116.85)"><path d="M112 38.3 112 0 0 0 0 38.3 112 38.3Z" stroke="#000000" fill="none"/><text fill="#191919" font-family="方正书宋简体,PingFang SC,Mircrosoft YaHei,Arial" font-size="17.3333" xml:space="preserve"><tspan x="20.8" y="23.5">板换预热</tspan></text></g><g id="shape8" transform="translate(342.52 204.68)"><path d="M112 38.3 112 0 0 0 0 38.3 112 38.3Z" stroke="#000000" fill="none"/><text fill="#191919" font-family="方正书宋简体,PingFang SC,Mircrosoft YaHei,Arial" font-size="17.3333" xml:space="preserve"><tspan x="20.8" y="23.5">蒸发结晶</tspan></text></g><g id="shape9" transform="translate(244.52 292.51)"><path d="M112 38.3 112 0 0 0 0 38.3 112 38.3Z" stroke="#000000" fill="none"/><text fill="#191919" font-family="方正书宋简体,PingFang SC,Mircrosoft YaHei,Arial" font-size="17.3333" xml:space="preserve"><tspan x="38.4" y="23.9">除杂</tspan></text></g><g id="shape10" transform="translate(342.52 380.34)"><path d="M112 38.3 112 0 0 0 0 38.3 112 38.3Z" stroke="#000000" fill="none"/><text fill="#191919" font-family="方正书宋简体,PingFang SC,Mircrosoft YaHei,Arial" font-size="17.3333" xml:space="preserve"><tspan x="38.4" y="23.9">离心</tspan></text></g><g id="shape11" transform="translate(342.52 468.17)"><path d="M112 38.3 112 0 0 0 0 38.3 112 38.3Z" stroke="#000000" fill="none"/><text fill="#191919" font-family="方正书宋简体,PingFang SC,Mircrosoft YaHei,Arial" font-size="17.3333" xml:space="preserve"><tspan x="12" y="23.9">流化床干燥</tspan></text></g><g id="shape12" transform="translate(342.52 556)"><text fill="#191919" font-family="方正书宋简体,PingFang SC,Mircrosoft YaHei,Arial" font-size="13.3333" xml:space="preserve"><tspan x="20.8" y="18.7">S2：硫酸铵</tspan></text></g><g id="shape13" transform="translate(398.52 80.3)"><path d="M0 0 0 30.6" stroke="#191919" fill="none"/><path d="M3 30.6 0 36.6-3 30.6 3 30.6" stroke="#191919" stroke-linecap="round" fill="#191919"/></g><g id="shape14" transform="translate(454.52 223.83)"><path d="M0 0 67 0 67-87.8 6-87.8" stroke="#191919" fill="none"/><path d="M6-84.8 0-87.8 6-90.8 6-84.8" stroke="#191919" stroke-linecap="round" fill="#191919"/><text fill="#191919" font-family="方正书宋简体,PingFang SC,Mircrosoft YaHei,Arial" font-size="13.3333" xml:space="preserve"><tspan x="5.2" y="-48.4">W1: 硫铵蒸发冷凝水</tspan><tspan x="22.8" y="-32.4">温度：85~90℃</tspan></text></g><g id="shape15" transform="translate(342.52 136)"><path d="M0 0-33 0" stroke="#191919" fill="none"/><path d="M-33 3-39 0-33-3-33 3" stroke="#191919" stroke-linecap="round" fill="#191919"/></g><g id="shape16" transform="translate(174.52 113)"><text fill="#191919" font-family="方正书宋简体,PingFang SC,Mircrosoft YaHei,Arial" font-size="13.3333" xml:space="preserve"><tspan x="5.2" y="19.2">W1: 硫铵蒸发冷凝水</tspan><tspan x="22.8" y="35.2">温度：50~55℃</tspan></text></g><g id="shape17" transform="translate(300.52 292.51)"><path d="M0 0 0-68.7 36-68.7" stroke="#191919" fill="none"/><path d="M36-71.7 42-68.7 36-65.7 36-71.7" stroke="#191919" stroke-linecap="round" fill="#191919"/></g><g id="shape18" transform="translate(141.52 281.16)"><text fill="#191919" font-family="方正书宋简体,PingFang SC,Mircrosoft YaHei,Arial" font-size="13.3333" xml:space="preserve"><tspan x="13.6" y="19.2">氨水</tspan><tspan x="6.4" y="35.2">活性炭</tspan><tspan x="6.4" y="51.2">硫化钠</tspan></text></g><g id="shape19" transform="translate(197.52 311.66)"><path d="M0 0 41 0" stroke="#191919" fill="none"/><path d="M41-3 47 0 41 3 41-3" stroke="#191919" stroke-linecap="round" fill="#191919"/></g><g id="shape20" transform="translate(253.02 357.02)"><text fill="#191919" font-family="方正书宋简体,PingFang SC,Mircrosoft YaHei,Arial" font-size="13.3333" xml:space="preserve"><tspan x="11.5" y="15.4">活性炭废渣</tspan></text></g><g id="shape21" transform="translate(300.52 330.81)"><path d="M0 0 0 20.2" stroke="#191919" fill="none"/><path d="M3 20.2 0 26.2-3 20.2 3 20.2" stroke="#191919" stroke-linecap="round" fill="#191919"/></g><g id="shape22" transform="translate(379.405 242.98)"><path d="M0 0 0 68.7-16.9 68.7" stroke="#191919" fill="none"/><path d="M-16.9 71.7-22.9 68.7-16.9 65.7-16.9 71.7" stroke="#191919" stroke-linecap="round" fill="#191919"/></g><g id="shape23" transform="translate(454.52 399.49)"><path d="M0 0 38 0 38-133.1-24.4-133.1-24.4-150.5" stroke="#191919" fill="none"/><path d="M-27.4-150.5-24.4-156.5-21.4-150.5-27.4-150.5" stroke="#191919" stroke-linecap="round" fill="#191919"/><text fill="#191919" font-family="方正书宋简体,PingFang SC,Mircrosoft YaHei,Arial" font-size="13.3333" xml:space="preserve"><tspan x="10.2" y="-67.3">离心废液</tspan></text></g><g id="shape24" transform="translate(430.148 266.371)"><path d="M0 0 0 108" stroke="#191919" fill="none"/><path d="M3 108 0 114-3 108 3 108" stroke="#191919" stroke-linecap="round" fill="#191919"/></g><g id="shape25" transform="translate(398.52 156)"><path d="M0 0 0 42.7" stroke="#191919" fill="none"/><path d="M3 42.7 0 48.7-3 42.7 3 42.7" stroke="#191919" stroke-linecap="round" fill="#191919"/></g><g id="shape26" transform="translate(398.52 418.64)"><path d="M0 0 0 43.5" stroke="#191919" fill="none"/><path d="M3 43.5 0 49.5-3 43.5 3 43.5" stroke="#191919" stroke-linecap="round" fill="#191919"/></g><g id="shape27" transform="translate(398.52 506.47)"><path d="M0 0 0 44" stroke="#191919" fill="none"/><path d="M3 44 0 50-3 44 3 44" stroke="#191919" stroke-linecap="round" fill="#191919"/></g><g id="shape28" transform="translate(230.52 475.82)"><path d="M0 0 65 0 65 23 0 23 0 0Z" stroke="#000000" fill="none"/><text fill="#191919" font-family="方正书宋简体,PingFang SC,Mircrosoft YaHei,Arial" font-size="13.3333" xml:space="preserve"><tspan x="3.7" y="15.2">低压蒸汽</tspan></text></g><g id="shape29" transform="translate(295.52 487.32)"><path d="M0 0 41 0" stroke="#191919" fill="none"/><path d="M41-3 47 0 41 3 41-3" stroke="#191919" stroke-linecap="round" fill="#191919"/></g><g id="shape30" transform="translate(489.02 468.17)"><path d="M0 0 108.5 0 108.5 38.3 0 38.3 0 0Z" stroke="#000000" fill="none"/><text fill="#191919" font-family="方正书宋简体,PingFang SC,Mircrosoft YaHei,Arial" font-size="13.3333" xml:space="preserve"><tspan x="11.1" y="22.8">生蒸汽冷凝水</tspan></text></g><g id="shape31" transform="translate(454.52 487.32)"><path d="M0 0 28.5 -0" stroke="#191919" fill="none"/><path d="M28.5-3 34.5 -0 28.5 3 28.5-3" stroke="#191919" stroke-linecap="round" fill="#191919"/></g><g id="shape32" transform="translate(330.52 42)"><text font-family="方正书宋简体,PingFang SC,Mircrosoft YaHei,Arial" font-size="13.3333" xml:space="preserve"><tspan x="24.8" y="15.3">硫铵除油后液</tspan><tspan x="10.4" y="31.3">树脂除钴调酸后液</tspan></text></g><g id="shape33" transform="translate(38.5197 94)"><text fill="#156D3B" font-family="方正书宋简体,PingFang SC,Mircrosoft YaHei,Arial" font-size="17.3333" xml:space="preserve"><tspan x="11.2" y="32.3">预</tspan><tspan x="11.2" y="52.3">热</tspan></text></g><g id="shape34" transform="translate(38.5197 171)"><text fill="#B29335" font-family="方正书宋简体,PingFang SC,Mircrosoft YaHei,Arial" font-size="17.3333" xml:space="preserve"><tspan x="11.2" y="47.4">浓</tspan><tspan x="11.2" y="67.4">缩</tspan></text></g><g id="shape35" transform="translate(38.5197 277)"><text fill="#AD3E3E" font-family="方正书宋简体,PingFang SC,Mircrosoft YaHei,Arial" font-size="17.3333" xml:space="preserve"><tspan x="11.2" y="43.4">除</tspan><tspan x="11.2" y="63.4">杂</tspan></text></g><g id="shape36" transform="translate(38.5197 375)"><text fill="#B26F34" font-family="方正书宋简体,PingFang SC,Mircrosoft YaHei,Arial" font-size="17.3333" xml:space="preserve"><tspan x="11.2" y="24.9">离</tspan><tspan x="11.2" y="44.9">心</tspan></text></g><g id="shape37" transform="translate(38.5197 436)"><text fill="#205CAE" font-family="方正书宋简体,PingFang SC,Mircrosoft YaHei,Arial" font-size="17.3333" xml:space="preserve"><tspan x="11.2" y="39.9">干</tspan><tspan x="11.2" y="59.9">燥</tspan></text></g><g id="shape38" transform="translate(38.5197 525.5)"><text fill="#7139A4" font-family="方正书宋简体,PingFang SC,Mircrosoft YaHei,Arial" font-size="17.3333" xml:space="preserve"><tspan x="11.2" y="24.9">包</tspan><tspan x="11.2" y="44.9">装</tspan></text></g></g></svg>