<svg width="1132" height="804" viewBox="0 0 1132 804" xmlns="http://www.w3.org/2000/svg" xmlns:xlink="http://www.w3.org/1999/xlink" overflow="hidden"><defs></defs><g id="page1" transform="translate(5.5 5.5)"><rect x="0" y="0" width="1123" height="794" fill="none"/><path d="M0 0 156 0 156 491 0 491 0 0Z" id="shape1" stroke="#FFCC53" stroke-dasharray="2 5" fill="#FFF6E9" transform="translate(581 38)"/><path d="M0 0 125.5 0 125.5 491 0 491 0 0Z" id="shape2" stroke="#FF7E79" stroke-dasharray="2 5" fill="#FFECEC" transform="translate(455.5 38)"/><path d="M0 0 397 0 397 491 0 491 0 0Z" id="shape3" stroke="#4ED7C5" stroke-dasharray="2 5" fill="#E9F8F5" transform="translate(57 38)"/><g id="shape4" transform="translate(76 50)"><path d="M13 26 85 26 85 26C92.2 26 98 20.2 98 13 98 5.8 92.2 0 85 0L13 0 13 0C5.8 0 0 5.8 0 13 0 20.2 5.8 26 13 26Z" stroke="#000000" stroke-width="0.333333" fill="#FFFFFF"/><text fill="#191919" font-family="新宋体,PingFang SC,Mircrosoft YaHei,Arial" font-size="13.3333" xml:space="preserve"><tspan x="27.4" y="18.3">硫化矿</tspan></text></g><g id="shape5" transform="translate(125 76)"><path d="M0 0 0 22" stroke="#191919" stroke-width="0.333333" fill="none"/><path d="M3 22 0 28-3 22 3 22" stroke="#191919" stroke-linecap="round" fill="#191919"/></g><g id="shape6" transform="translate(76 104)"><path d="M98 26 98 0 0 0 0 26 98 26Z" stroke="#000000" stroke-width="0.333333" fill="#FFFFFF"/><text fill="#191919" font-family="新宋体,PingFang SC,Mircrosoft YaHei,Arial" font-size="13.3333" xml:space="preserve"><tspan x="34.6" y="18.3">球磨</tspan></text></g><g id="shape7" transform="translate(125 130)"><path d="M0 0 0 22" stroke="#191919" stroke-width="0.333333" fill="none"/><path d="M3 22 0 28-3 22 3 22" stroke="#191919" stroke-linecap="round" fill="#191919"/></g><g id="shape8" transform="translate(76 158)"><path d="M98 26 98 0 0 0 0 26 98 26Z" stroke="#101843" stroke-width="0.333333" fill="#FFFFFF"/><text fill="#191919" font-family="新宋体,PingFang SC,Mircrosoft YaHei,Arial" font-size="13.3333" xml:space="preserve"><tspan x="27.4" y="18.3">氧压线</tspan></text></g><g id="shape9" transform="translate(76 266)"><path d="M98 26 98 0 0 0 0 26 98 26Z" stroke="#101843" stroke-width="0.333333" fill="#FFFFFF"/><text fill="#191919" font-family="新宋体,PingFang SC,Mircrosoft YaHei,Arial" font-size="13.3333" xml:space="preserve"><tspan x="5.8" y="18.3">常压浸出除铁</tspan></text></g><g id="shape10" transform="translate(125 292)"><path d="M0 0 0 22" stroke="#191919" stroke-width="0.333333" fill="none"/><path d="M3 22 0 28-3 22 3 22" stroke="#191919" stroke-linecap="round" fill="#191919"/></g><g id="shape11" transform="translate(76 320)"><path d="M98 26 98 0 0 0 0 26 98 26Z" stroke="#101843" stroke-width="0.333333" fill="#FFFFFF"/><text fill="#191919" font-family="新宋体,PingFang SC,Mircrosoft YaHei,Arial" font-size="13.3333" xml:space="preserve"><tspan x="27.4" y="18.8">铜萃取</tspan></text></g><g id="shape12" transform="translate(125 346)"><path d="M0 0 0 22" stroke="#191919" stroke-width="0.333333" fill="none"/><path d="M3 22 0 28-3 22 3 22" stroke="#191919" stroke-linecap="round" fill="#191919"/></g><g id="shape13" transform="translate(76 374)"><path d="M98 26 98 0 0 0 0 26 98 26Z" stroke="#101843" stroke-width="0.333333" fill="#FFFFFF"/><text fill="#191919" font-family="新宋体,PingFang SC,Mircrosoft YaHei,Arial" font-size="13.3333" xml:space="preserve"><tspan x="27.4" y="18.8">铜电积</tspan></text></g><g id="shape14" transform="translate(76 428)"><path d="M13 26 85 26 85 26C92.2 26 98 20.2 98 13 98 5.8 92.2 0 85 0L13 0 13 0C5.8 0 0 5.8 0 13 0 20.2 5.8 26 13 26Z" stroke="#000000" stroke-width="0.333333" fill="#FFFFFF"/><text fill="#191919" font-family="新宋体,PingFang SC,Mircrosoft YaHei,Arial" font-size="13.3333" xml:space="preserve"><tspan x="13" y="18.3">铜（外售）</tspan></text></g><g id="shape15" transform="translate(208 158)"><path d="M13 26 85 26 85 26C92.2 26 98 20.2 98 13 98 5.8 92.2 0 85 0L13 0 13 0C5.8 0 0 5.8 0 13 0 20.2 5.8 26 13 26Z" stroke="#000000" stroke-width="0.333333" fill="#FFFFFF"/><text fill="#191919" font-family="新宋体,PingFang SC,Mircrosoft YaHei,Arial" font-size="13.3333" xml:space="preserve"><tspan x="13" y="18.3">氢氧化钴盐</tspan></text></g><g id="shape16" transform="translate(208 266)"><path d="M98 26 98 0 0 0 0 26 98 26Z" stroke="#101843" stroke-width="0.333333" fill="#FFFFFF"/><text fill="#191919" font-family="新宋体,PingFang SC,Mircrosoft YaHei,Arial" font-size="13.3333" xml:space="preserve"><tspan x="27.4" y="18.3">氧压线</tspan></text></g><g id="shape17" transform="translate(122.5 212.5)"><path d="M12.5 25 104.5 25 104.5 25C111.4 25 117 19.4 117 12.5 117 5.6 111.4 0 104.5 0L12.5 0 12.5 0C5.6 0 0 5.6 0 12.5 0 19.4 5.6 25 12.5 25Z" stroke="#000000" stroke-width="0.333333" fill="#FFFFFF"/><text fill="#191919" font-family="新宋体,PingFang SC,Mircrosoft YaHei,Arial" font-size="13.3333" xml:space="preserve"><tspan x="15.3" y="17.8">铁精粉(外售)</tspan></text></g><g id="shape18" transform="translate(257 184)"><path d="M0 0 0 76" stroke="#191919" stroke-width="0.333333" fill="none"/><path d="M3 76 0 82-3 76 3 76" stroke="#191919" stroke-linecap="round" fill="#191919"/></g><g id="shape19" transform="translate(97.266 184)"><path d="M0 0 -0 76" stroke="#191919" stroke-width="0.333333" fill="none"/><path d="M3 76 -0 82-3 76 3 76" stroke="#191919" stroke-linecap="round" fill="#191919"/></g><g id="shape20" transform="translate(151.656 184)"><path d="M0 0-0.3 14-0.3 22" stroke="#191919" stroke-width="0.333333" fill="none"/><path d="M2.7 22-0.3 28-3.3 22 2.7 22" stroke="#191919" stroke-linecap="round" fill="#191919"/></g><g id="shape21" transform="translate(208 266)"><path d="M0 0-22.9-24.1" stroke="#191919" stroke-width="0.333333" fill="none"/><path d="M-25.1-22.1-27-28.5-20.7-26.2-25.1-22.1" stroke="#191919" stroke-linecap="round" fill="#191919"/></g><g id="shape22" transform="translate(208 320)"><path d="M98 26 98 0 0 0 0 26 98 26Z" stroke="#101843" stroke-width="0.333333" fill="#FFFFFF"/><text fill="#191919" font-family="新宋体,PingFang SC,Mircrosoft YaHei,Arial" font-size="13.3333" xml:space="preserve"><tspan x="13" y="18.8">铵线预处铁</tspan></text></g><g id="shape23" transform="translate(208 374)"><path d="M98 26 98 0 0 0 0 26 98 26Z" stroke="#101843" stroke-width="0.333333" fill="#FFFFFF"/><text fill="#191919" font-family="新宋体,PingFang SC,Mircrosoft YaHei,Arial" font-size="13.3333" xml:space="preserve"><tspan x="20.2" y="18.8">二次除铁</tspan></text></g><g id="shape24" transform="translate(257 292)"><path d="M0 0 0 22" stroke="#191919" stroke-width="0.333333" fill="none"/><path d="M3 22 0 28-3 22 3 22" stroke="#191919" stroke-linecap="round" fill="#191919"/></g><g id="shape25" transform="translate(257 346)"><path d="M0 0 0 22" stroke="#191919" stroke-width="0.333333" fill="none"/><path d="M3 22 0 28-3 22 3 22" stroke="#191919" stroke-linecap="round" fill="#191919"/></g><g id="shape26" transform="translate(125 400)"><path d="M0 0 0 22" stroke="#191919" stroke-width="0.333333" fill="none"/><path d="M3 22 0 28-3 22 3 22" stroke="#191919" stroke-linecap="round" fill="#191919"/></g><g id="shape27" transform="translate(340 266)"><path d="M13 26 85 26 85 26C92.2 26 98 20.2 98 13 98 5.8 92.2 0 85 0L13 0 13 0C5.8 0 0 5.8 0 13 0 20.2 5.8 26 13 26Z" stroke="#000000" stroke-width="0.333333" fill="#FFFFFF"/><text fill="#191919" font-family="新宋体,PingFang SC,Mircrosoft YaHei,Arial" font-size="13.3333" xml:space="preserve"><tspan x="13" y="18.3">氢氧化钴盐</tspan></text></g><g id="shape28" transform="translate(340 320)"><path d="M98 26 98 0 0 0 0 26 98 26Z" stroke="#101843" stroke-width="0.333333" fill="#FFFFFF"/><text fill="#191919" font-family="新宋体,PingFang SC,Mircrosoft YaHei,Arial" font-size="13.3333" xml:space="preserve"><tspan x="27.4" y="18.8">除铁铝</tspan></text></g><g id="shape29" transform="translate(340 374)"><path d="M98 26 98 0 0 0 0 26 98 26Z" stroke="#101843" stroke-width="0.333333" fill="#FFFFFF"/><text fill="#191919" font-family="新宋体,PingFang SC,Mircrosoft YaHei,Arial" font-size="13.3333" xml:space="preserve"><tspan x="20.2" y="18.8">中和脱硅</tspan></text></g><g id="shape30" transform="translate(208 428)"><path d="M13 26 217 26 217 26C224.2 26 230 20.2 230 13 230 5.8 224.2 0 217 0L13 0 13 0C5.8 0 0 5.8 0 13 0 20.2 5.8 26 13 26Z" stroke="#000000" stroke-width="0.333333" fill="#FFFFFF"/><text fill="#191919" font-family="新宋体,PingFang SC,Mircrosoft YaHei,Arial" font-size="13.3333" xml:space="preserve"><tspan x="64.6" y="18.3">粗制硫酸钴溶液</tspan></text></g><g id="shape31" transform="translate(389 292)"><path d="M0 0 0 22" stroke="#191919" stroke-width="0.333333" fill="none"/><path d="M3 22 0 28-3 22 3 22" stroke="#191919" stroke-linecap="round" fill="#191919"/></g><g id="shape32" transform="translate(389 346)"><path d="M0 0 0 22" stroke="#191919" stroke-width="0.333333" fill="none"/><path d="M3 22 0 28-3 22 3 22" stroke="#191919" stroke-linecap="round" fill="#191919"/></g><g id="shape33" transform="translate(389 400)"><path d="M0 0 0 14-66 14-66 22" stroke="#191919" stroke-width="0.333333" fill="none"/><path d="M-63 22-66 28-69 22-63 22" stroke="#191919" stroke-linecap="round" fill="#191919"/></g><g id="shape34" transform="translate(257 400)"><path d="M0 0 0 14 66 14 66 22" stroke="#191919" stroke-width="0.333333" fill="none"/><path d="M69 22 66 28 63 22 69 22" stroke="#191919" stroke-linecap="round" fill="#191919"/></g><g id="shape35" transform="translate(472 50)"><path d="M13 26 85 26 85 26C92.2 26 98 20.2 98 13 98 5.8 92.2 0 85 0L13 0 13 0C5.8 0 0 5.8 0 13 0 20.2 5.8 26 13 26Z" stroke="#000000" stroke-width="0.333333" fill="#FFFFFF"/><text fill="#191919" font-family="新宋体,PingFang SC,Mircrosoft YaHei,Arial" font-size="13.3333" xml:space="preserve"><tspan x="27.4" y="18.3">白合金</tspan></text></g><g id="shape36" transform="translate(521 76)"><path d="M0 0 0 22" stroke="#191919" stroke-width="0.333333" fill="none"/><path d="M3 22 0 28-3 22 3 22" stroke="#191919" stroke-linecap="round" fill="#191919"/></g><g id="shape37" transform="translate(472 104)"><path d="M98 26 98 0 0 0 0 26 98 26Z" stroke="#000000" stroke-width="0.333333" fill="#FFFFFF"/><text fill="#191919" font-family="新宋体,PingFang SC,Mircrosoft YaHei,Arial" font-size="13.3333" xml:space="preserve"><tspan x="34.6" y="18.3">球磨</tspan></text></g><g id="shape38" transform="translate(521 130)"><path d="M0 0 0 22" stroke="#191919" stroke-width="0.333333" fill="none"/><path d="M3 22 0 28-3 22 3 22" stroke="#191919" stroke-linecap="round" fill="#191919"/></g><g id="shape39" transform="translate(472 158)"><path d="M98 26 98 0 0 0 0 26 98 26Z" stroke="#101843" stroke-width="0.333333" fill="#FFFFFF"/><text fill="#191919" font-family="新宋体,PingFang SC,Mircrosoft YaHei,Arial" font-size="13.3333" xml:space="preserve"><tspan x="20.2" y="18.3">一段浸出</tspan></text></g><g id="shape40" transform="translate(472 212.5)"><path d="M98 26 98 0 0 0 0 26 98 26Z" stroke="#101843" stroke-width="0.333333" fill="#FFFFFF"/><text fill="#191919" font-family="新宋体,PingFang SC,Mircrosoft YaHei,Arial" font-size="13.3333" xml:space="preserve"><tspan x="20.2" y="18.3">二段浸出</tspan></text></g><g id="shape41" transform="translate(472 266)"><path d="M98 26 98 0 0 0 0 26 98 26Z" stroke="#101843" stroke-width="0.333333" fill="#FFFFFF"/><text fill="#191919" font-family="新宋体,PingFang SC,Mircrosoft YaHei,Arial" font-size="13.3333" xml:space="preserve"><tspan x="27.4" y="18.8">铜萃取</tspan></text></g><g id="shape42" transform="translate(472 320)"><path d="M98 26 98 0 0 0 0 26 98 26Z" stroke="#101843" stroke-width="0.333333" fill="#FFFFFF"/><text fill="#191919" font-family="新宋体,PingFang SC,Mircrosoft YaHei,Arial" font-size="13.3333" xml:space="preserve"><tspan x="27.4" y="18.8">除砷铁</tspan></text></g><g id="shape43" transform="translate(472 374)"><path d="M98 26 98 0 0 0 0 26 98 26Z" stroke="#101843" stroke-width="0.333333" fill="#FFFFFF"/><text fill="#191919" font-family="新宋体,PingFang SC,Mircrosoft YaHei,Arial" font-size="13.3333" xml:space="preserve"><tspan x="34.6" y="18.8">沉锗</tspan></text></g><g id="shape44" transform="translate(472 428)"><path d="M98 32.6 98 7C98 3.1 94.9 0 91 0L7 0C3.1 0 0 3.1 0 7L0 32.6C0 36.5 3.1 39.6 7 39.6L91 39.6C94.9 39.6 98 36.5 98 32.6Z" stroke="#000000" stroke-width="0.333333" fill="#FFFFFF"/><text fill="#191919" font-family="新宋体,PingFang SC,Mircrosoft YaHei,Arial" font-size="13.3333" xml:space="preserve"><tspan x="20.2" y="17.6">粗制锗的</tspan><tspan x="20.2" y="32.8">氢氧化物</tspan></text></g><g id="shape45" transform="translate(521 184)"><path d="M0 0 0 22.5" stroke="#191919" stroke-width="0.333333" fill="none"/><path d="M3 22.5 0 28.5-3 22.5 3 22.5" stroke="#191919" stroke-linecap="round" fill="#191919"/></g><g id="shape46" transform="translate(521 238.5)"><path d="M0 0 0 21.5" stroke="#191919" stroke-width="0.333333" fill="none"/><path d="M3 21.5 0 27.5-3 21.5 3 21.5" stroke="#191919" stroke-linecap="round" fill="#191919"/></g><g id="shape47" transform="translate(521 292)"><path d="M0 0 0 22" stroke="#191919" stroke-width="0.333333" fill="none"/><path d="M3 22 0 28-3 22 3 22" stroke="#191919" stroke-linecap="round" fill="#191919"/></g><g id="shape48" transform="translate(521 346)"><path d="M0 0 0 22" stroke="#191919" stroke-width="0.333333" fill="none"/><path d="M3 22 0 28-3 22 3 22" stroke="#191919" stroke-linecap="round" fill="#191919"/></g><g id="shape49" transform="translate(521 400)"><path d="M0 0 0 22" stroke="#191919" stroke-width="0.333333" fill="none"/><path d="M3 22 0 28-3 22 3 22" stroke="#191919" stroke-linecap="round" fill="#191919"/></g><g id="shape50" transform="translate(605 50)"><path d="M13 26 85 26 85 26C92.2 26 98 20.2 98 13 98 5.8 92.2 0 85 0L13 0 13 0C5.8 0 0 5.8 0 13 0 20.2 5.8 26 13 26Z" stroke="#000000" stroke-width="0.333333" fill="#FFFFFF"/><text fill="#191919" font-family="新宋体,PingFang SC,Mircrosoft YaHei,Arial" font-size="13.3333" xml:space="preserve"><tspan x="27.4" y="18.3">高冰镍</tspan></text></g><g id="shape51" transform="translate(605 104)"><path d="M98 26 98 0 0 0 0 26 98 26Z" stroke="#101843" stroke-width="0.333333" fill="#FFFFFF"/><text fill="#191919" font-family="新宋体,PingFang SC,Mircrosoft YaHei,Arial" font-size="13.3333" xml:space="preserve"><tspan x="5.8" y="18.3">一段常压浸出</tspan></text></g><g id="shape52" transform="translate(664 154.5)"><path d="M45 33 45 0 0 0 0 33 45 33Z" stroke="#101843" stroke-width="0.333333" fill="#FFFFFF"/><text fill="#191919" font-family="新宋体,PingFang SC,Mircrosoft YaHei,Arial" font-size="13.3333" xml:space="preserve"><tspan x="8.1" y="14.3">二段</tspan><tspan x="8.1" y="29.5">常压</tspan></text></g><g id="shape53" transform="translate(586 154.5)"><path d="M66 26 66 7C66 3.1 62.9 0 59 0L7 0C3.1 0 0 3.1 0 7L0 26C0 29.9 3.1 33 7 33L59 33C62.9 33 66 29.9 66 26Z" stroke="#101843" stroke-width="0.333333" fill="#FFFFFF"/><text fill="#191919" font-family="新宋体,PingFang SC,Mircrosoft YaHei,Arial" font-size="13.3333" xml:space="preserve"><tspan x="4.2" y="14.3">粗制硫酸</tspan><tspan x="11.4" y="29.5">镍溶液</tspan></text></g><g id="shape54" transform="translate(664 212.5)"><path d="M45 26 45 0 0 0 0 26 45 26Z" stroke="#101843" stroke-width="0.333333" fill="#FFFFFF"/><text fill="#191919" font-family="新宋体,PingFang SC,Mircrosoft YaHei,Arial" font-size="13.3333" xml:space="preserve"><tspan x="8.1" y="18.3">氧压</tspan></text></g><g id="shape55" transform="translate(586 209)"><path d="M66 26 66 7C66 3.1 62.9 0 59 0L7 0C3.1 0 0 3.1 0 7L0 26C0 29.9 3.1 33 7 33L59 33C62.9 33 66 29.9 66 26Z" stroke="#000000" stroke-width="0.333333" fill="#FFFFFF"/><text fill="#191919" font-family="新宋体,PingFang SC,Mircrosoft YaHei,Arial" font-size="13.3333" xml:space="preserve"><tspan x="11.4" y="14.3">铁精粉</tspan><tspan x="11.4" y="29.5">(外售)</tspan></text></g><g id="shape56" transform="translate(605 266)"><path d="M13 26 85 26 85 26C92.2 26 98 20.2 98 13 98 5.8 92.2 0 85 0L13 0 13 0C5.8 0 0 5.8 0 13 0 20.2 5.8 26 13 26Z" stroke="#000000" stroke-width="0.333333" fill="#FFFFFF"/><text fill="#191919" font-family="新宋体,PingFang SC,Mircrosoft YaHei,Arial" font-size="13.3333" xml:space="preserve"><tspan x="13" y="18.3">氢氧化镍盐</tspan></text></g><g id="shape57" transform="translate(605 320)"><path d="M98 26 98 0 0 0 0 26 98 26Z" stroke="#101843" stroke-width="0.333333" fill="#FFFFFF"/><text fill="#191919" font-family="新宋体,PingFang SC,Mircrosoft YaHei,Arial" font-size="13.3333" xml:space="preserve"><tspan x="27.4" y="18.8">除铁铝</tspan></text></g><g id="shape58" transform="translate(586 374)"><path d="M66 26 66 0 0 0 0 26 66 26Z" stroke="#101843" stroke-width="0.333333" fill="#FFFFFF"/><text fill="#191919" font-family="新宋体,PingFang SC,Mircrosoft YaHei,Arial" font-size="13.3333" xml:space="preserve"><tspan x="18.6" y="18.3">氧压</tspan></text></g><g id="shape59" transform="translate(658 374)"><path d="M66 26 66 0 0 0 0 26 66 26Z" stroke="#101843" stroke-width="0.333333" fill="#FFFFFF"/><text fill="#191919" font-family="新宋体,PingFang SC,Mircrosoft YaHei,Arial" font-size="13.3333" xml:space="preserve"><tspan x="4.2" y="18.3">中和脱硅</tspan></text></g><g id="shape60" transform="translate(586 428)"><path d="M66 32.6 66 7C66 3.1 62.9 0 59 0L7 0C3.1 0 0 3.1 0 7L0 32.6C0 36.5 3.1 39.6 7 39.6L59 39.6C62.9 39.6 66 36.5 66 32.6Z" stroke="#000000" stroke-width="0.333333" fill="#FFFFFF"/><text fill="#191919" font-family="新宋体,PingFang SC,Mircrosoft YaHei,Arial" font-size="13.3333" xml:space="preserve"><tspan x="18.6" y="17.6">锰粉</tspan><tspan x="11.4" y="32.8">(外售)</tspan></text></g><g id="shape61" transform="translate(658 428)"><path d="M66 32.6 66 7C66 3.1 62.9 0 59 0L7 0C3.1 0 0 3.1 0 7L0 32.6C0 36.5 3.1 39.6 7 39.6L59 39.6C62.9 39.6 66 36.5 66 32.6Z" stroke="#000000" stroke-width="0.333333" fill="#FFFFFF"/><text fill="#191919" font-family="新宋体,PingFang SC,Mircrosoft YaHei,Arial" font-size="13.3333" xml:space="preserve"><tspan x="4.2" y="17.8">粗制硫酸</tspan><tspan x="11.4" y="33">镍溶液</tspan></text></g><g id="shape62" transform="translate(654 76)"><path d="M0 0 0 22" stroke="#191919" fill="none"/><path d="M3 22 0 28-3 22 3 22" stroke="#191919" stroke-linecap="round" fill="#191919"/></g><g id="shape63" transform="translate(654 130)"><path d="M0 0 0 12 32.5 12 32.5 18.5" stroke="#191919" fill="none"/><path d="M35.5 18.5 32.5 24.5 29.5 18.5 35.5 18.5" stroke="#191919" stroke-linecap="round" fill="#191919"/></g><g id="shape64" transform="translate(654 130)"><path d="M0 0 0 12-35 12-35 18.5" stroke="#191919" fill="none"/><path d="M-32 18.5-35 24.5-38 18.5-32 18.5" stroke="#191919" stroke-linecap="round" fill="#191919"/></g><g id="shape65" transform="translate(686.5 187.5)"><path d="M0 0 0 19" stroke="#191919" fill="none"/><path d="M3 19 0 25-3 19 3 19" stroke="#191919" stroke-linecap="round" fill="#191919"/></g><g id="shape66" transform="translate(664 225.5)"><path d="M0 0-6 0" stroke="#191919" fill="none"/><path d="M-6 3-12 0-6-3-6 3" stroke="#191919" stroke-linecap="round" fill="#191919"/></g><g id="shape67" transform="translate(654 292)"><path d="M0 0 0 22" stroke="#191919" fill="none"/><path d="M3 22 0 28-3 22 3 22" stroke="#191919" stroke-linecap="round" fill="#191919"/></g><g id="shape68" transform="translate(654 346)"><path d="M0 0 0 14-35 14-35 22" stroke="#191919" fill="none"/><path d="M-32 22-35 28-38 22-32 22" stroke="#191919" stroke-linecap="round" fill="#191919"/></g><g id="shape69" transform="translate(654 346)"><path d="M0 0 0 14 37 14 37 22" stroke="#191919" fill="none"/><path d="M40 22 37 28 34 22 40 22" stroke="#191919" stroke-linecap="round" fill="#191919"/></g><g id="shape70" transform="translate(619 400)"><path d="M0 0 0 22" stroke="#191919" fill="none"/><path d="M3 22 0 28-3 22 3 22" stroke="#191919" stroke-linecap="round" fill="#191919"/></g><g id="shape71" transform="translate(691 400)"><path d="M0 0 0 22" stroke="#191919" fill="none"/><path d="M3 22 0 28-3 22 3 22" stroke="#191919" stroke-linecap="round" fill="#191919"/></g><g id="shape72" transform="translate(58.5 498)"><text fill="#379E90" font-family="新宋体,PingFang SC,Mircrosoft YaHei,Arial" font-weight="700" font-size="16" xml:space="preserve"><tspan x="164.9" y="21.7">钴线浸出</tspan></text></g><g id="shape73" transform="translate(455.5 498)"><text fill="#BC5B57" font-family="新宋体,PingFang SC,Mircrosoft YaHei,Arial" font-weight="700" font-size="16" xml:space="preserve"><tspan x="46" y="21.7">锗线</tspan></text></g><g id="shape74" transform="translate(581 498)"><text fill="#BB720E" font-family="新宋体,PingFang SC,Mircrosoft YaHei,Arial" font-weight="700" font-size="16" xml:space="preserve"><tspan x="44.4" y="21.7">镍线浸出</tspan></text></g></g></svg>