<svg width="758" height="854" viewBox="0 0 758 854" xmlns="http://www.w3.org/2000/svg" xmlns:xlink="http://www.w3.org/1999/xlink" overflow="hidden"><defs></defs><g id="page1" transform="translate(5.5 5.5)"><rect x="0" y="0" width="748" height="844" fill="none"/><g id="shape1" transform="translate(316.5 94.3846)"><path d="M110 36 110 0 0 0 0 36 110 36Z" stroke="#101843" fill="#FFFFFF"/><text fill="#191919" font-family="方正书宋简体,PingFang SC,Mircrosoft YaHei,Arial" font-size="17.3333" xml:space="preserve"><tspan x="19.8" y="22.4">配铝钴液</tspan></text></g><g id="shape2" transform="translate(244.875 39)"><path d="M116 36C122.6 36 128 30.6 128 24L128 12C128 5.4 122.6 0 116 0L12 0C5.4 0 0 5.4 0 12L0 24C0 30.6 5.4 36 12 36L116 36Z" stroke="#101843" fill="#FFFFFF"/><text fill="#191919" font-family="方正书宋简体,PingFang SC,Mircrosoft YaHei,Arial" font-size="17.3333" xml:space="preserve"><tspan x="11.2" y="22.4">十八水硫酸铝</tspan></text></g><g id="shape3" transform="translate(388.125 39)"><path d="M98 36C104.6 36 110 30.6 110 24L110 12C110 5.4 104.6 0 98 0L12 0C5.4 0 0 5.4 0 12L0 24C0 30.6 5.4 36 12 36L98 36Z" stroke="#101843" fill="#FFFFFF"/><text fill="#191919" font-family="方正书宋简体,PingFang SC,Mircrosoft YaHei,Arial" font-size="17.3333" xml:space="preserve"><tspan x="11" y="22.4">硫酸钴接液</tspan></text></g><g id="shape4" transform="translate(39 39)"><path d="M116 36C122.6 36 128 30.6 128 24L128 12C128 5.4 122.6 0 116 0L12 0C5.4 0 0 5.4 0 12L0 24C0 30.6 5.4 36 12 36L116 36Z" stroke="#101843" fill="#FFFFFF"/><text fill="#191919" font-family="方正书宋简体,PingFang SC,Mircrosoft YaHei,Arial" font-size="17.3333" xml:space="preserve"><tspan x="11.2" y="22.4">碳酸氢铵溶液</tspan></text></g><g id="shape5" transform="translate(48 94.3846)"><path d="M110 36 110 0 0 0 0 36 110 36Z" stroke="#101843" fill="#FFFFFF"/><text fill="#191919" font-family="方正书宋简体,PingFang SC,Mircrosoft YaHei,Arial" font-size="17.3333" xml:space="preserve"><tspan x="19.8" y="22.4">合成反应</tspan></text></g><g id="shape6" transform="translate(308.875 75)"><path d="M0 0 0 9 62.6 9 62.6 13.4" stroke="#191919" fill="none"/><path d="M65.6 13.4 62.6 19.4 59.6 13.4 65.6 13.4" stroke="#191919" stroke-linecap="round" fill="#191919"/></g><g id="shape7" transform="translate(443.125 75)"><path d="M0 0 0 9-71.6 9-71.6 13.4" stroke="#191919" fill="none"/><path d="M-68.6 13.4-71.6 19.4-74.6 13.4-68.6 13.4" stroke="#191919" stroke-linecap="round" fill="#191919"/></g><g id="shape8" transform="translate(103 75)"><path d="M0 0 0 13.4" stroke="#191919" fill="none"/><path d="M3 13.4 0 19.4-3 13.4 3 13.4" stroke="#191919" stroke-linecap="round" fill="#191919"/></g><g id="shape9" transform="translate(48 149.769)"><path d="M110 36 110 0 0 0 0 36 110 36Z" stroke="#101843" fill="#FFFFFF"/><text fill="#191919" font-family="方正书宋简体,PingFang SC,Mircrosoft YaHei,Arial" font-size="17.3333" xml:space="preserve"><tspan x="37.4" y="22.4">陈化</tspan></text></g><g id="shape10" transform="translate(103 130.385)"><path d="M0 0 0 13.4" stroke="#191919" fill="none"/><path d="M3 13.4 0 19.4-3 13.4 3 13.4" stroke="#191919" stroke-linecap="round" fill="#191919"/></g><g id="shape11" transform="translate(48 205.154)"><path d="M110 36 110 0 0 0 0 36 110 36Z" stroke="#101843" fill="#FFFFFF"/><text fill="#191919" font-family="方正书宋简体,PingFang SC,Mircrosoft YaHei,Arial" font-size="17.3333" xml:space="preserve"><tspan x="19.8" y="22.4">离心过滤</tspan></text></g><g id="shape12" transform="translate(103 185.769)"><path d="M0 0 0 13.4" stroke="#191919" fill="none"/><path d="M3 13.4 0 19.4-3 13.4 3 13.4" stroke="#191919" stroke-linecap="round" fill="#191919"/></g><g id="shape13" transform="translate(48 260.538)"><path d="M98 36C104.6 36 110 30.6 110 24L110 12C110 5.4 104.6 0 98 0L12 0C5.4 0 0 5.4 0 12L0 24C0 30.6 5.4 36 12 36L98 36Z" stroke="#101843" fill="#FFFFFF"/><text fill="#191919" font-family="方正书宋简体,PingFang SC,Mircrosoft YaHei,Arial" font-size="17.3333" xml:space="preserve"><tspan x="11" y="22.4">碳酸钴滤饼</tspan></text></g><g id="shape14" transform="translate(103 241.154)"><path d="M0 0 0 13.4" stroke="#191919" fill="none"/><path d="M3 13.4 0 19.4-3 13.4 3 13.4" stroke="#191919" stroke-linecap="round" fill="#191919"/></g><g id="shape15" transform="translate(48 315.923)"><path d="M110 36 110 0 0 0 0 36 110 36Z" stroke="#101843" fill="#FFFFFF"/><text fill="#191919" font-family="方正书宋简体,PingFang SC,Mircrosoft YaHei,Arial" font-size="17.3333" xml:space="preserve"><tspan x="19.8" y="22.4">闪蒸干燥</tspan></text></g><g id="shape16" transform="translate(48 371.308)"><path d="M110 36 110 0 0 0 0 36 110 36Z" stroke="#101843" fill="#FFFFFF"/><text fill="#191919" font-family="方正书宋简体,PingFang SC,Mircrosoft YaHei,Arial" font-size="17.3333" xml:space="preserve"><tspan x="19.8" y="22.4">过筛除磁</tspan></text></g><g id="shape17" transform="translate(48 426.692)"><path d="M110 36 110 0 0 0 0 36 110 36Z" stroke="#101843" fill="#FFFFFF"/><text fill="#191919" font-family="方正书宋简体,PingFang SC,Mircrosoft YaHei,Arial" font-size="17.3333" xml:space="preserve"><tspan x="11" y="22.4">回转炉烧结</tspan></text></g><g id="shape18" transform="translate(48 482.077)"><path d="M110 36 110 0 0 0 0 36 110 36Z" stroke="#101843" fill="#FFFFFF"/><text fill="#191919" font-family="方正书宋简体,PingFang SC,Mircrosoft YaHei,Arial" font-size="17.3333" xml:space="preserve"><tspan x="19.8" y="22.4">水磁除铁</tspan></text></g><g id="shape19" transform="translate(48 537.462)"><path d="M110 36 110 0 0 0 0 36 110 36Z" stroke="#101843" fill="#FFFFFF"/><text fill="#191919" font-family="方正书宋简体,PingFang SC,Mircrosoft YaHei,Arial" font-size="17.3333" xml:space="preserve"><tspan x="19.8" y="22.4">中转料仓</tspan></text></g><g id="shape20" transform="translate(48 592.846)"><path d="M110 36 110 0 0 0 0 36 110 36Z" stroke="#101843" fill="#FFFFFF"/><text fill="#191919" font-family="方正书宋简体,PingFang SC,Mircrosoft YaHei,Arial" font-size="17.3333" xml:space="preserve"><tspan x="37.4" y="22.4">除铁</tspan></text></g><g id="shape21" transform="translate(48 648.231)"><path d="M110 36 110 0 0 0 0 36 110 36Z" stroke="#101843" fill="#FFFFFF"/><text fill="#191919" font-family="方正书宋简体,PingFang SC,Mircrosoft YaHei,Arial" font-size="17.3333" xml:space="preserve"><tspan x="37.4" y="22.4">混料</tspan></text></g><g id="shape22" transform="translate(48 703.615)"><path d="M110 36 110 0 0 0 0 36 110 36Z" stroke="#101843" fill="#FFFFFF"/><text fill="#191919" font-family="方正书宋简体,PingFang SC,Mircrosoft YaHei,Arial" font-size="17.3333" xml:space="preserve"><tspan x="11" y="22.4">过筛、包装</tspan></text></g><g id="shape23" transform="translate(48 759)"><path d="M98 46C104.6 46 110 40.6 110 34L110 12C110 5.4 104.6 0 98 0L12 0C5.4 0 0 5.4 0 12L0 34C0 40.6 5.4 46 12 46L98 46Z" stroke="#101843" fill="#FFFFFF"/><text fill="#191919" font-family="方正书宋简体,PingFang SC,Mircrosoft YaHei,Arial" font-size="17.3333" xml:space="preserve"><tspan x="18.2" y="17.4">成品300A</tspan><tspan x="11" y="37.4">四氧化三钴</tspan></text></g><g id="shape24" transform="translate(103 296.538)"><path d="M0 0 0 13.4" stroke="#191919" fill="none"/><path d="M3 13.4 0 19.4-3 13.4 3 13.4" stroke="#191919" stroke-linecap="round" fill="#191919"/></g><g id="shape25" transform="translate(103 351.923)"><path d="M0 0 0 13.4" stroke="#191919" fill="none"/><path d="M3 13.4 0 19.4-3 13.4 3 13.4" stroke="#191919" stroke-linecap="round" fill="#191919"/></g><g id="shape26" transform="translate(103 407.308)"><path d="M0 0 0 13.4" stroke="#191919" fill="none"/><path d="M3 13.4 0 19.4-3 13.4 3 13.4" stroke="#191919" stroke-linecap="round" fill="#191919"/></g><g id="shape27" transform="translate(103 462.692)"><path d="M0 0 0 13.4" stroke="#191919" fill="none"/><path d="M3 13.4 0 19.4-3 13.4 3 13.4" stroke="#191919" stroke-linecap="round" fill="#191919"/></g><g id="shape28" transform="translate(103 518.077)"><path d="M0 0 0 13.4" stroke="#191919" fill="none"/><path d="M3 13.4 0 19.4-3 13.4 3 13.4" stroke="#191919" stroke-linecap="round" fill="#191919"/></g><g id="shape29" transform="translate(103 573.462)"><path d="M0 0 0 13.4" stroke="#191919" fill="none"/><path d="M3 13.4 0 19.4-3 13.4 3 13.4" stroke="#191919" stroke-linecap="round" fill="#191919"/></g><g id="shape30" transform="translate(103 628.846)"><path d="M0 0 0 13.4" stroke="#191919" fill="none"/><path d="M3 13.4 0 19.4-3 13.4 3 13.4" stroke="#191919" stroke-linecap="round" fill="#191919"/></g><g id="shape31" transform="translate(103 684.231)"><path d="M0 0 0 13.4" stroke="#191919" fill="none"/><path d="M3 13.4 0 19.4-3 13.4 3 13.4" stroke="#191919" stroke-linecap="round" fill="#191919"/></g><g id="shape32" transform="translate(103 739.615)"><path d="M0 0 0 13.4" stroke="#191919" fill="none"/><path d="M3 13.4 0 19.4-3 13.4 3 13.4" stroke="#191919" stroke-linecap="round" fill="#191919"/></g><g id="shape33" transform="translate(450.75 197.577)"><path d="M110 36 110 0 0 0 0 36 110 36Z" stroke="#101843" fill="#FFFFFF"/><text fill="#191919" font-family="方正书宋简体,PingFang SC,Mircrosoft YaHei,Arial" font-size="17.3333" xml:space="preserve"><tspan x="19.8" y="22.4">抽上清液</tspan></text></g><g id="shape34" transform="translate(450.75 260.538)"><path d="M110 36 110 0 0 0 0 36 110 36Z" stroke="#101843" fill="#FFFFFF"/><text fill="#191919" font-family="方正书宋简体,PingFang SC,Mircrosoft YaHei,Arial" font-size="17.3333" xml:space="preserve"><tspan x="19.8" y="22.4">一次压滤</tspan></text></g><g id="shape35" transform="translate(450.75 315.923)"><path d="M110 36 110 0 0 0 0 36 110 36Z" stroke="#101843" fill="#FFFFFF"/><text fill="#191919" font-family="方正书宋简体,PingFang SC,Mircrosoft YaHei,Arial" font-size="17.3333" xml:space="preserve"><tspan x="19.8" y="22.4">二次压滤</tspan></text></g><g id="shape36" transform="translate(450.75 371.308)"><path d="M110 36 110 0 0 0 0 36 110 36Z" stroke="#101843" fill="#FFFFFF"/><text fill="#191919" font-family="方正书宋简体,PingFang SC,Mircrosoft YaHei,Arial" font-size="17.3333" xml:space="preserve"><tspan x="19.8" y="22.4">精密过滤</tspan></text></g><g id="shape37" transform="translate(182.25 197.577)"><path d="M98 51.2C104.6 51.2 110 45.8 110 39.2L110 12C110 5.4 104.6 0 98 0L12 0C5.4 0 0 5.4 0 12L0 39.2C0 45.8 5.4 51.2 12 51.2L98 51.2Z" stroke="#101843" fill="#FFFFFF"/><text fill="#191919" font-family="方正书宋简体,PingFang SC,Mircrosoft YaHei,Arial" font-size="17.3333" xml:space="preserve"><tspan x="11" y="16">碳酸钴洗液</tspan><tspan x="11" y="40">碳酸钴尾液</tspan></text></g><g id="shape38" transform="translate(182.25 260.538)"><path d="M110 36 110 0 0 0 0 36 110 36Z" stroke="#101843" fill="#FFFFFF"/><text fill="#191919" font-family="方正书宋简体,PingFang SC,Mircrosoft YaHei,Arial" font-size="17.3333" xml:space="preserve"><tspan x="19.8" y="22.4">离心过滤</tspan></text></g><g id="shape39" transform="translate(158 223.154)"><path d="M0 0 18.3 0" stroke="#191919" fill="none"/><path d="M18.3-3 24.3 0 18.3 3 18.3-3" stroke="#191919" stroke-linecap="round" fill="#191919"/></g><g id="shape40" transform="translate(182.25 278.538)"><path d="M0 0-18.3 0" stroke="#191919" fill="none"/><path d="M-18.3 3-24.3 0-18.3-3-18.3 3" stroke="#191919" stroke-linecap="round" fill="#191919"/></g><g id="shape41" transform="translate(237.25 248.731)"><path d="M0 0 0 5.8" stroke="#191919" fill="none"/><path d="M3 5.8 0 11.8-3 5.8 3 5.8" stroke="#191919" stroke-linecap="round" fill="#191919"/></g><g id="shape42" transform="translate(182.25 315.923)"><path d="M110 36 110 0 0 0 0 36 110 36Z" stroke="#101843" fill="#FFFFFF"/><text fill="#191919" font-family="方正书宋简体,PingFang SC,Mircrosoft YaHei,Arial" font-size="17.3333" xml:space="preserve"><tspan x="19.8" y="22.4">两级压滤</tspan></text></g><g id="shape43" transform="translate(182.25 371.308)"><path d="M110 36 110 0 0 0 0 36 110 36Z" stroke="#101843" fill="#FFFFFF"/><text fill="#191919" font-family="方正书宋简体,PingFang SC,Mircrosoft YaHei,Arial" font-size="17.3333" xml:space="preserve"><tspan x="19.8" y="22.4">精密过滤</tspan></text></g><g id="shape44" transform="translate(237.25 296.538)"><path d="M0 0 0 13.4" stroke="#191919" fill="none"/><path d="M3 13.4 0 19.4-3 13.4 3 13.4" stroke="#191919" stroke-linecap="round" fill="#191919"/></g><g id="shape45" transform="translate(237.25 351.923)"><path d="M0 0 -0 13.4" stroke="#191919" fill="none"/><path d="M3 13.4 -0 19.4-3 13.4 3 13.4" stroke="#191919" stroke-linecap="round" fill="#191919"/></g><g id="shape46" transform="translate(599 371.308)"><path d="M98 36C104.6 36 110 30.6 110 24L110 12C110 5.4 104.6 0 98 0L12 0C5.4 0 0 5.4 0 12L0 24C0 30.6 5.4 36 12 36L98 36Z" stroke="#101843" fill="#FFFFFF"/><text fill="#191919" font-family="方正书宋简体,PingFang SC,Mircrosoft YaHei,Arial" font-size="17.3333" xml:space="preserve"><tspan x="37.4" y="22.4">滤饼</tspan></text></g><g id="shape47" transform="translate(316.5 315.923)"><path d="M98 36C104.6 36 110 30.6 110 24L110 12C110 5.4 104.6 0 98 0L12 0C5.4 0 0 5.4 0 12L0 24C0 30.6 5.4 36 12 36L98 36Z" stroke="#101843" fill="#FFFFFF"/><text fill="#191919" font-family="方正书宋简体,PingFang SC,Mircrosoft YaHei,Arial" font-size="17.3333" xml:space="preserve"><tspan x="11" y="22.4">碳酸钴滤饼</tspan></text></g><g id="shape48" transform="translate(292.25 333.923)"><path d="M0 0 18.3 0" stroke="#191919" fill="none"/><path d="M18.3-3 24.3 0 18.3 3 18.3-3" stroke="#191919" stroke-linecap="round" fill="#191919"/></g><g id="shape49" transform="translate(292.25 389.308)"><path d="M0 0 79.3 0 79.3-31.4" stroke="#191919" fill="none"/><path d="M76.3-31.4 79.3-37.4 82.3-31.4 76.3-31.4" stroke="#191919" stroke-linecap="round" fill="#191919"/></g><g id="shape50" transform="translate(599 426.692)"><path d="M110 36 110 0 0 0 0 36 110 36Z" stroke="#101843" fill="#FFFFFF"/><text fill="#191919" font-family="方正书宋简体,PingFang SC,Mircrosoft YaHei,Arial" font-size="17.3333" xml:space="preserve"><tspan x="37.4" y="22.4">打包</tspan></text></g><g id="shape51" transform="translate(654 407.308)"><path d="M0 0 0 13.4" stroke="#191919" fill="none"/><path d="M3 13.4 0 19.4-3 13.4 3 13.4" stroke="#191919" stroke-linecap="round" fill="#191919"/></g><g id="shape52" transform="translate(654 462.692)"><path d="M0 0 0 62" stroke="#191919" fill="none"/><path d="M3 62 0 68-3 62 3 62" stroke="#191919" stroke-linecap="round" fill="#191919"/><rect x="-42.2" y="18.7" width="86.4" height="16.8" fill="#FFFFFF"/><text fill="#191919" font-family="方正书宋简体,PingFang SC,Mircrosoft YaHei,Arial" font-size="14.6667" xml:space="preserve"><tspan x="-42.2" y="31.5">转氧化钴车间</tspan></text></g><g id="shape53" transform="translate(443.125 57)"><path d="" stroke="#191919" fill="none"/></g><g id="shape54" transform="translate(371.5 315.923)"><path d="M0 0 0-148.2-207.5-148.2" stroke="#191919" fill="none"/><path d="M-207.5-145.2-213.5-148.2-207.5-151.2-207.5-145.2" stroke="#191919" stroke-linecap="round" fill="#191919"/></g><g id="shape55" transform="translate(505.75 233.577)"><path d="M0 0 0 21" stroke="#191919" fill="none"/><path d="M3 21 0 27-3 21 3 21" stroke="#191919" stroke-linecap="round" fill="#191919"/></g><g id="shape56" transform="translate(560.75 278.538)"><path d="M0 0 16.3 0 16.3 110.8 32.3 110.8" stroke="#191919" fill="none"/><path d="M32.3 107.8 38.3 110.8 32.3 113.8 32.3 107.8" stroke="#191919" stroke-linecap="round" fill="#191919"/></g><path d="M0 0 16.3 0" id="shape57" stroke="#191919" fill="none" transform="translate(560.75 389.308)"/><path d="M0 0 16.3 0" id="shape58" stroke="#191919" fill="none" transform="translate(560.75 333.923)"/><g id="shape59" transform="translate(505.75 351.923)"><path d="M0 0 0 14" stroke="#191919" fill="none"/><path d="M3 14 0 20-3 14 3 14" stroke="#191919" stroke-linecap="round" fill="#191919"/></g><g id="shape60" transform="translate(505.75 296.538)"><path d="M0 0 0 13.4" stroke="#191919" fill="none"/><path d="M3 13.4 0 19.4-3 13.4 3 13.4" stroke="#191919" stroke-linecap="round" fill="#191919"/></g><g id="shape61" transform="translate(316.5 112.385)"><path d="M0 0-152.5 0" stroke="#191919" fill="none"/><path d="M-152.5 3-158.5 0-152.5-3-152.5 3" stroke="#191919" stroke-linecap="round" fill="#191919"/></g><g id="shape62" transform="translate(103 130.385)"><path d="M0 0 0 6.6 402.8 6.6 402.8 61.2" stroke="#191919" fill="none"/><path d="M405.8 61.2 402.8 67.2 399.8 61.2 405.8 61.2" stroke="#191919" stroke-linecap="round" fill="#191919"/></g><g id="shape63" transform="translate(237.25 407.308)"><path d="M0 0 0 31.7 135.8 31.7 135.8 116.7" stroke="#191919" fill="none"/><path d="M138.8 116.7 135.8 122.7 132.8 116.7 138.8 116.7" stroke="#191919" stroke-linecap="round" fill="#191919"/><rect x="122.4" y="53.5" width="28.8" height="16.8" fill="#FFFFFF"/><rect x="108" y="70.3" width="57.6" height="16.8" fill="#FFFFFF"/><text fill="#191919" font-family="方正书宋简体,PingFang SC,Mircrosoft YaHei,Arial" font-size="14.6667" xml:space="preserve"><tspan x="122.4" y="66.3">送往</tspan><tspan x="108" y="83.1">硫铵车间</tspan></text></g><path d="M0 0 140.8 0 140.8-31.7" id="shape64" stroke="#191919" fill="none" transform="translate(364.947 439)"/></g></svg>