<svg xmlns:xlink="http://www.w3.org/1999/xlink" xmlns="http://www.w3.org/2000/svg" width="503" viewBox="0 0 503 504" xmlns:ev="http://www.w3.org/2001/xml-events" height="504"><defs/><g transform="translate(5.5,5.5)" id="page3"><rect x="0" fill="none" y="0" width="493" height="494"/><g transform="translate(39.000000,39.000000)" id="shape1"><path fill="#ffffff" d="M113.0,31.0L113.0,7.0C113.0,3.1,109.9,.0,106.0,.0L7.0,.0C3.1,.0,.0,3.1,.0,7.0L.0,31.0C.0,34.9,3.1,38.0,7.0,38.0L106.0,38.0C109.9,38.0,113.0,34.9,113.0,31.0z" fill-rule="nonzero" stroke-width="1" stroke="#101843"/><text style="fill:#191919;font-family:方正书宋简体,PingFang SC,Mircrosoft YaHei,Arial;font-size:10.00pt" xml:space="preserve"><tspan x="27.7" style="font-family:方正书宋简体,PingFang SC,Mircrosoft YaHei,Arial" y="22.7">反铜锰液</tspan></text></g><g transform="translate(95.500000,77.000000)" id="shape2"><path d="M.0,.0L-0.0,9.3" fill="none" stroke-width="1" stroke="#191919"/><path fill="#191919" d="M3.0,9.3L-0.0,15.3L-3.0,9.3L3.0,9.3" stroke-width="1" stroke-linecap="round" stroke="#191919"/></g><g transform="translate(39.000000,92.286000)" id="shape3"><path fill="#ffffff" d="M113.0,38.0L113.0,.0L.0,.0L.0,38.0L113.0,38.0z" fill-rule="nonzero" stroke-width="1" stroke="#101843"/><text style="fill:#191919;font-family:方正书宋简体,PingFang SC,Mircrosoft YaHei,Arial;font-size:10.00pt" xml:space="preserve"><tspan x="34.9" style="font-family:方正书宋简体,PingFang SC,Mircrosoft YaHei,Arial" y="22.7">预萃钙</tspan></text></g><g transform="translate(39.000000,143.571000)" id="shape4"><path fill="#ffffff" d="M113.0,38.0L113.0,.0L.0,.0L.0,38.0L113.0,38.0z" fill-rule="nonzero" stroke-width="1" stroke="#101843"/><text style="fill:#191919;font-family:方正书宋简体,PingFang SC,Mircrosoft YaHei,Arial;font-size:10.00pt" xml:space="preserve"><tspan x="42.1" style="font-family:方正书宋简体,PingFang SC,Mircrosoft YaHei,Arial" y="22.7">沉铜</tspan></text></g><g transform="translate(39.000000,195.857000)" id="shape5"><path fill="#ffffff" d="M113.0,38.0L113.0,.0L.0,.0L.0,38.0L113.0,38.0z" fill-rule="nonzero" stroke-width="1" stroke="#101843"/><text style="fill:#191919;font-family:方正书宋简体,PingFang SC,Mircrosoft YaHei,Arial;font-size:10.00pt" xml:space="preserve"><tspan x="34.9" style="font-family:方正书宋简体,PingFang SC,Mircrosoft YaHei,Arial" y="22.7">除钙镁</tspan></text></g><g transform="translate(39.000000,248.143000)" id="shape6"><path fill="#ffffff" d="M113.0,38.0L113.0,.0L.0,.0L.0,38.0L113.0,38.0z" fill-rule="nonzero" stroke-width="1" stroke="#101843"/><text style="fill:#191919;font-family:方正书宋简体,PingFang SC,Mircrosoft YaHei,Arial;font-size:10.00pt" xml:space="preserve"><tspan x="42.1" style="font-family:方正书宋简体,PingFang SC,Mircrosoft YaHei,Arial" y="22.7">萃锌</tspan></text></g><g transform="translate(39.000000,300.429000)" id="shape7"><path fill="#ffffff" d="M113.0,38.0L113.0,.0L.0,.0L.0,38.0L113.0,38.0z" fill-rule="nonzero" stroke-width="1" stroke="#101843"/><text style="fill:#191919;font-family:方正书宋简体,PingFang SC,Mircrosoft YaHei,Arial;font-size:10.00pt" xml:space="preserve"><tspan x="42.1" style="font-family:方正书宋简体,PingFang SC,Mircrosoft YaHei,Arial" y="22.7">萃锰</tspan></text></g><g transform="translate(39.000000,352.714000)" id="shape8"><path fill="#ffffff" d="M113.0,38.0L113.0,.0L.0,.0L.0,38.0L113.0,38.0z" fill-rule="nonzero" stroke-width="1" stroke="#101843"/><text style="fill:#191919;font-family:方正书宋简体,PingFang SC,Mircrosoft YaHei,Arial;font-size:10.00pt" xml:space="preserve"><tspan x="42.1" style="font-family:方正书宋简体,PingFang SC,Mircrosoft YaHei,Arial" y="22.7">除油</tspan></text></g><g transform="translate(39.000000,405.000000)" id="shape9"><path fill="#ffffff" d="M113.0,43.0L113.0,7.0C113.0,3.1,109.9,.0,106.0,.0L7.0,.0C3.1,.0,.0,3.1,.0,7.0L.0,43.0C.0,46.9,3.1,50.0,7.0,50.0L106.0,50.0C109.9,50.0,113.0,46.9,113.0,43.0z" fill-rule="nonzero" stroke-width="1" stroke="#101843"/><text style="fill:#191919;font-family:方正书宋简体,PingFang SC,Mircrosoft YaHei,Arial;font-size:10.00pt" xml:space="preserve"><tspan x="20.5" style="font-family:方正书宋简体,PingFang SC,Mircrosoft YaHei,Arial" y="21.2">硫酸锰溶液</tspan><tspan x="13.3" style="font-family:方正书宋简体,PingFang SC,Mircrosoft YaHei,Arial" y="37.2">（转新能源）</tspan></text></g><g transform="translate(190.000000,39.000000)" id="shape10"><path fill="#ffffff" d="M113.0,31.0L113.0,7.0C113.0,3.1,109.9,.0,106.0,.0L7.0,.0C3.1,.0,.0,3.1,.0,7.0L.0,31.0C.0,34.9,3.1,38.0,7.0,38.0L106.0,38.0C109.9,38.0,113.0,34.9,113.0,31.0z" fill-rule="nonzero" stroke-width="1" stroke="#101843"/><text style="fill:#191919;font-family:方正书宋简体,PingFang SC,Mircrosoft YaHei,Arial;font-size:10.00pt" xml:space="preserve"><tspan x="34.9" style="font-family:方正书宋简体,PingFang SC,Mircrosoft YaHei,Arial" y="22.7">硫铵液</tspan></text></g><g transform="translate(190.000000,161.000000)" id="shape11"><path fill="#ffffff" d="M113.0,38.0L113.0,.0L.0,.0L.0,38.0L113.0,38.0z" fill-rule="nonzero" stroke-width="1" stroke="#101843"/><text style="fill:#191919;font-family:方正书宋简体,PingFang SC,Mircrosoft YaHei,Arial;font-size:10.00pt" xml:space="preserve"><tspan x="27.7" style="font-family:方正书宋简体,PingFang SC,Mircrosoft YaHei,Arial" y="22.7">树脂除油</tspan></text></g><g transform="translate(190.000000,283.000000)" id="shape12"><path fill="#ffffff" d="M113.0,38.0L113.0,.0L.0,.0L.0,38.0L113.0,38.0z" fill-rule="nonzero" stroke-width="1" stroke="#101843"/><text style="fill:#191919;font-family:方正书宋简体,PingFang SC,Mircrosoft YaHei,Arial;font-size:10.00pt" xml:space="preserve"><tspan x="13.7" style="font-family:方正书宋简体,PingFang SC,Mircrosoft YaHei,Arial" y="22.7">MVR蒸发结晶</tspan></text></g><g transform="translate(190.000000,405.000000)" id="shape13"><path fill="#ffffff" d="M113.0,43.0L113.0,7.0C113.0,3.1,109.9,.0,106.0,.0L7.0,.0C3.1,.0,.0,3.1,.0,7.0L.0,43.0C.0,46.9,3.1,50.0,7.0,50.0L106.0,50.0C109.9,50.0,113.0,46.9,113.0,43.0z" fill-rule="nonzero" stroke-width="1" stroke="#101843"/><text style="fill:#191919;font-family:方正书宋简体,PingFang SC,Mircrosoft YaHei,Arial;font-size:10.00pt" xml:space="preserve"><tspan x="20.5" style="font-family:方正书宋简体,PingFang SC,Mircrosoft YaHei,Arial" y="21.2">硫酸铵产品</tspan><tspan x="27.7" style="font-family:方正书宋简体,PingFang SC,Mircrosoft YaHei,Arial" y="37.2">（外售）</tspan></text></g><g transform="translate(341.000000,39.000000)" id="shape14"><path fill="#ffffff" d="M113.0,31.0L113.0,7.0C113.0,3.1,109.9,.0,106.0,.0L7.0,.0C3.1,.0,.0,3.1,.0,7.0L.0,31.0C.0,34.9,3.1,38.0,7.0,38.0L106.0,38.0C109.9,38.0,113.0,34.9,113.0,31.0z" fill-rule="nonzero" stroke-width="1" stroke="#101843"/><text style="fill:#191919;font-family:方正书宋简体,PingFang SC,Mircrosoft YaHei,Arial;font-size:10.00pt" xml:space="preserve"><tspan x="27.7" style="font-family:方正书宋简体,PingFang SC,Mircrosoft YaHei,Arial" y="22.7">萃取废水</tspan></text></g><g transform="translate(341.000000,133.500000)" id="shape15"><path fill="#ffffff" d="M113.0,38.0L113.0,.0L.0,.0L.0,38.0L113.0,38.0z" fill-rule="nonzero" stroke-width="1" stroke="#101843"/><text style="fill:#191919;font-family:方正书宋简体,PingFang SC,Mircrosoft YaHei,Arial;font-size:10.00pt" xml:space="preserve"><tspan x="42.1" style="font-family:方正书宋简体,PingFang SC,Mircrosoft YaHei,Arial" y="22.7">除磷</tspan></text></g><g transform="translate(341.000000,228.000000)" id="shape16"><path fill="#ffffff" d="M113.0,38.0L113.0,.0L.0,.0L.0,38.0L113.0,38.0z" fill-rule="nonzero" stroke-width="1" stroke="#101843"/><text style="fill:#191919;font-family:方正书宋简体,PingFang SC,Mircrosoft YaHei,Arial;font-size:10.00pt" xml:space="preserve"><tspan x="42.1" style="font-family:方正书宋简体,PingFang SC,Mircrosoft YaHei,Arial" y="22.7">除重</tspan></text></g><g transform="translate(341.000000,322.500000)" id="shape17"><path fill="#ffffff" d="M113.0,38.0L113.0,.0L.0,.0L.0,38.0L113.0,38.0z" fill-rule="nonzero" stroke-width="1" stroke="#101843"/><text style="fill:#191919;font-family:方正书宋简体,PingFang SC,Mircrosoft YaHei,Arial;font-size:10.00pt" xml:space="preserve"><tspan x="34.9" style="font-family:方正书宋简体,PingFang SC,Mircrosoft YaHei,Arial" y="22.7">除氨氮</tspan></text></g><g transform="translate(341.000000,417.000000)" id="shape18"><path fill="#ffffff" d="M113.0,31.0L113.0,7.0C113.0,3.1,109.9,.0,106.0,.0L7.0,.0C3.1,.0,.0,3.1,.0,7.0L.0,31.0C.0,34.9,3.1,38.0,7.0,38.0L106.0,38.0C109.9,38.0,113.0,34.9,113.0,31.0z" fill-rule="nonzero" stroke-width="1" stroke="#101843"/><text style="fill:#191919;font-family:方正书宋简体,PingFang SC,Mircrosoft YaHei,Arial;font-size:10.00pt" xml:space="preserve"><tspan x="27.7" style="font-family:方正书宋简体,PingFang SC,Mircrosoft YaHei,Arial" y="22.7">废水外排</tspan></text></g><g transform="translate(95.500000,130.286000)" id="shape19"><path d="M.0,.0L.0,7.3" fill="none" stroke-width="1" stroke="#191919"/><path fill="#191919" d="M3.0,7.3L.0,13.3L-3.0,7.3L3.0,7.3" stroke-width="1" stroke-linecap="round" stroke="#191919"/></g><g transform="translate(95.500000,181.571000)" id="shape20"><path d="M.0,.0L.0,8.3" fill="none" stroke-width="1" stroke="#191919"/><path fill="#191919" d="M3.0,8.3L.0,14.3L-3.0,8.3L3.0,8.3" stroke-width="1" stroke-linecap="round" stroke="#191919"/></g><g transform="translate(95.500000,233.857000)" id="shape21"><path d="M.0,.0L.0,8.3" fill="none" stroke-width="1" stroke="#191919"/><path fill="#191919" d="M3.0,8.3L.0,14.3L-3.0,8.3L3.0,8.3" stroke-width="1" stroke-linecap="round" stroke="#191919"/></g><g transform="translate(95.500000,286.143000)" id="shape22"><path d="M.0,.0L.0,8.3" fill="none" stroke-width="1" stroke="#191919"/><path fill="#191919" d="M3.0,8.3L.0,14.3L-3.0,8.3L3.0,8.3" stroke-width="1" stroke-linecap="round" stroke="#191919"/></g><g transform="translate(95.500000,338.429000)" id="shape23"><path d="M.0,.0L.0,8.3" fill="none" stroke-width="1" stroke="#191919"/><path fill="#191919" d="M3.0,8.3L.0,14.3L-3.0,8.3L3.0,8.3" stroke-width="1" stroke-linecap="round" stroke="#191919"/></g><g transform="translate(95.500000,390.714000)" id="shape24"><path d="M.0,.0L.0,1.3L.0,6.3L.0,8.3" fill="none" stroke-width="1" stroke="#191919"/><path fill="#191919" d="M3.0,8.3L.0,14.3L-3.0,8.3L3.0,8.3" stroke-width="1" stroke-linecap="round" stroke="#191919"/></g><g transform="translate(246.500000,77.000000)" id="shape25"><path d="M.0,.0L.0,78.0" fill="none" stroke-width="1" stroke="#191919"/><path fill="#191919" d="M3.0,78.0L.0,84.0L-3.0,78.0L3.0,78.0" stroke-width="1" stroke-linecap="round" stroke="#191919"/></g><g transform="translate(246.500000,321.000000)" id="shape26"><path d="M.0,.0L.0,78.0" fill="none" stroke-width="1" stroke="#191919"/><path fill="#191919" d="M3.0,78.0L.0,84.0L-3.0,78.0L3.0,78.0" stroke-width="1" stroke-linecap="round" stroke="#191919"/></g><g transform="translate(246.500000,199.000000)" id="shape27"><path d="M.0,.0L.0,78.0" fill="none" stroke-width="1" stroke="#191919"/><path fill="#191919" d="M3.0,78.0L.0,84.0L-3.0,78.0L3.0,78.0" stroke-width="1" stroke-linecap="round" stroke="#191919"/></g><g transform="translate(397.500000,77.000000)" id="shape28"><path d="M.0,.0L.0,50.5" fill="none" stroke-width="1" stroke="#191919"/><path fill="#191919" d="M3.0,50.5L.0,56.5L-3.0,50.5L3.0,50.5" stroke-width="1" stroke-linecap="round" stroke="#191919"/></g><g transform="translate(397.500000,171.500000)" id="shape29"><path d="M.0,.0L.0,50.5" fill="none" stroke-width="1" stroke="#191919"/><path fill="#191919" d="M3.0,50.5L.0,56.5L-3.0,50.5L3.0,50.5" stroke-width="1" stroke-linecap="round" stroke="#191919"/></g><g transform="translate(397.500000,266.000000)" id="shape30"><path d="M.0,.0L.0,50.5" fill="none" stroke-width="1" stroke="#191919"/><path fill="#191919" d="M3.0,50.5L.0,56.5L-3.0,50.5L3.0,50.5" stroke-width="1" stroke-linecap="round" stroke="#191919"/></g><g transform="translate(397.500000,360.500000)" id="shape31"><path d="M.0,.0L.0,50.5" fill="none" stroke-width="1" stroke="#191919"/><path fill="#191919" d="M3.0,50.5L.0,56.5L-3.0,50.5L3.0,50.5" stroke-width="1" stroke-linecap="round" stroke="#191919"/></g></g></svg>