<svg width="509" height="744" viewBox="0 0 509 744" xmlns="http://www.w3.org/2000/svg" xmlns:xlink="http://www.w3.org/1999/xlink" overflow="hidden"><defs></defs><g id="page5" transform="translate(5.5 5.5)"><rect x="0" y="0" width="499" height="734" fill="none"/><g id="shape1" transform="translate(226 39.438)"><path d="M100 36.5 100 0 0 0 0 36.5 100 36.5Z" stroke="#101843" fill="#FFFFFF"/><text fill="#191919" font-family="方正书宋简体,PingFang SC,Mircrosoft YaHei,Arial" font-size="17.3333" xml:space="preserve"><tspan x="14.8" y="22.6">单酸浸出</tspan></text></g><g id="shape2" transform="translate(226 95.833)"><path d="M100 36.5 100 0 0 0 0 36.5 100 36.5Z" stroke="#101843" fill="#FFFFFF"/><text fill="#191919" font-family="方正书宋简体,PingFang SC,Mircrosoft YaHei,Arial" font-size="17.3333" xml:space="preserve"><tspan x="23.6" y="22.9">除铁铝</tspan></text></g><g id="shape3" transform="translate(226 152.229)"><path d="M100 36.5 100 0 0 0 0 36.5 100 36.5Z" stroke="#101843" fill="#FFFFFF"/><text fill="#191919" font-family="方正书宋简体,PingFang SC,Mircrosoft YaHei,Arial" font-size="17.3333" xml:space="preserve"><tspan x="32.4" y="22.9">萃钪</tspan></text></g><g id="shape4" transform="translate(226 321.417)"><path d="M100 36.5 100 0 0 0 0 36.5 100 36.5Z" stroke="#101843" fill="#FFFFFF"/><text fill="#191919" font-family="方正书宋简体,PingFang SC,Mircrosoft YaHei,Arial" font-size="17.3333" xml:space="preserve"><tspan x="14.4" y="22.9">P204萃杂</tspan></text></g><g id="shape5" transform="translate(226 272)"><path d="M100 22.5 100 7C100 3.1 96.9 0 93 0L7 0C3.1 0 0 3.1 0 7L0 22.5C0 26.4 3.1 29.5 7 29.5L93 29.5C96.9 29.5 100 26.4 100 22.5Z" fill="#FFFFFF"/><text fill="#0070C0" font-family="方正书宋简体,PingFang SC,Mircrosoft YaHei,Arial" font-size="17.3333" xml:space="preserve"><tspan x="14.4" y="19.2">P204原液</tspan></text></g><g id="shape6" transform="translate(276 301.521)"><path d="M0 0 0 13.9" stroke="#0070C0" fill="none"/><path d="M3 13.9 0 19.9-3 13.9 3 13.9" stroke="#0070C0" stroke-linecap="round" fill="#0070C0"/></g><g id="shape7" transform="translate(226 377.813)"><path d="M100 36.5 100 0 0 0 0 36.5 100 36.5Z" stroke="#101843" fill="#FFFFFF"/><text fill="#191919" font-family="方正书宋简体,PingFang SC,Mircrosoft YaHei,Arial" font-size="17.3333" xml:space="preserve"><tspan x="14.4" y="22.9">P507萃钴</tspan></text></g><g id="shape8" transform="translate(216.5 434.208)"><path d="M119 29.5 119 7C119 3.1 115.9 0 112 0L7 0C3.1 0 0 3.1 0 7L0 29.5C0 33.4 3.1 36.5 7 36.5L112 36.5C115.9 36.5 119 33.4 119 29.5Z" fill="#FFFFFF"/><text fill="#0070C0" font-family="方正书宋简体,PingFang SC,Mircrosoft YaHei,Arial" font-size="17.3333" xml:space="preserve"><tspan x="6.7" y="22.9">硫酸镍萃余液</tspan></text></g><g id="shape9" transform="translate(226 490.604)"><path d="M100 36.5 100 0 0 0 0 36.5 100 36.5Z" stroke="#101843" fill="#FFFFFF"/><text fill="#191919" font-family="方正书宋简体,PingFang SC,Mircrosoft YaHei,Arial" font-size="17.3333" xml:space="preserve"><tspan x="32.4" y="22.9">除油</tspan></text></g><g id="shape10" transform="translate(276 75.938)"><path d="M0 0 0 13.9" stroke="#0070C0" fill="none"/><path d="M3 13.9 0 19.9-3 13.9 3 13.9" stroke="#0070C0" stroke-linecap="round" fill="#0070C0"/></g><g id="shape11" transform="translate(276 132.333)"><path d="M0 0 0 13.9" stroke="#0070C0" fill="none"/><path d="M3 13.9 0 19.9-3 13.9 3 13.9" stroke="#0070C0" stroke-linecap="round" fill="#0070C0"/><text fill="#0070C0" font-family="方正书宋简体,PingFang SC,Mircrosoft YaHei,Arial" font-size="13.3333" xml:space="preserve"><tspan x="-13.4" y="11.7">溢流</tspan></text></g><g id="shape12" transform="translate(276 188.729)"><path d="M0 0 0 13.9" stroke="#0070C0" fill="none"/><path d="M3 13.9 0 19.9-3 13.9 3 13.9" stroke="#0070C0" stroke-linecap="round" fill="#0070C0"/><rect x="-13.4" y="0.3" width="28.8" height="16" fill="#FFFFFF"/><text fill="#0070C0" font-family="方正书宋简体,PingFang SC,Mircrosoft YaHei,Arial" font-size="13.3333" xml:space="preserve"><tspan x="-13.4" y="12.3">余液</tspan></text></g><g id="shape13" transform="translate(226 208.625)"><path d="M100 36.5 100 0 0 0 0 36.5 100 36.5Z" stroke="#101843" fill="#FFFFFF"/><text fill="#191919" font-family="方正书宋简体,PingFang SC,Mircrosoft YaHei,Arial" font-size="17.3333" xml:space="preserve"><tspan x="14.8" y="22.9">中和脱硅</tspan></text></g><g id="shape14" transform="translate(276 245.125)"><path d="M0 0 0 20.9" stroke="#0070C0" fill="none"/><path d="M3 20.9 0 26.9-3 20.9 3 20.9" stroke="#0070C0" stroke-linecap="round" fill="#0070C0"/><text fill="#0070C0" font-family="方正书宋简体,PingFang SC,Mircrosoft YaHei,Arial" font-size="13.3333" xml:space="preserve"><tspan x="-13.4" y="15.9">精滤</tspan></text></g><g id="shape15" transform="translate(276 414.313)"><path d="M0 0 0 13.9" stroke="#0070C0" fill="none"/><path d="M3 13.9 0 19.9-3 13.9 3 13.9" stroke="#0070C0" stroke-linecap="round" fill="#0070C0"/></g><g id="shape16" transform="translate(276 470.708)"><path d="M0 0 0 13.9" stroke="#0070C0" fill="none"/><path d="M3 13.9 0 19.9-3 13.9 3 13.9" stroke="#0070C0" stroke-linecap="round" fill="#0070C0"/></g><g id="shape17" transform="translate(326 220)"><path d="M0 0 23 0 23-105.9 6-105.9" stroke="#BC5B57" fill="none"/><path d="M6-102.9 0-105.9 6-108.9 6-102.9" stroke="#BC5B57" stroke-linecap="round" fill="#BC5B57"/><rect x="16.8" y="-30.1" width="14.4" height="16" fill="#FFFFFF"/><text fill="#BC5B57" font-family="方正书宋简体,PingFang SC,Mircrosoft YaHei,Arial" font-size="13.3333" xml:space="preserve"><tspan x="16.8" y="-18.1">渣</tspan></text></g><g id="shape18" transform="translate(379 152.229)"><path d="M45 29.5 45 7C45 3.1 41.9 0 38 0L7 0C3.1 0 0 3.1 0 7L0 29.5C0 33.4 3.1 36.5 7 36.5L38 36.5C41.9 36.5 45 33.4 45 29.5Z" fill="#FFFFFF"/><text fill="#BC5B57" font-family="方正书宋简体,PingFang SC,Mircrosoft YaHei,Arial" font-size="17.3333" xml:space="preserve"><tspan x="4.9" y="22.6">钪渣</tspan></text></g><g id="shape19" transform="translate(43 321.417)"><path d="M65 29.5 65 7C65 3.1 61.9 0 58 0L7 0C3.1 0 0 3.1 0 7L0 29.5C0 33.4 3.1 36.5 7 36.5L58 36.5C61.9 36.5 65 33.4 65 29.5Z" fill="#FFFFFF"/><text fill="#0070C0" font-family="方正书宋简体,PingFang SC,Mircrosoft YaHei,Arial" font-size="17.3333" xml:space="preserve"><tspan x="6.1" y="22.6">碳酸锌</tspan></text></g><g id="shape20" transform="translate(43 284.917)"><path d="M65 29.5 65 7C65 3.1 61.9 0 58 0L7 0C3.1 0 0 3.1 0 7L0 29.5C0 33.4 3.1 36.5 7 36.5L58 36.5C61.9 36.5 65 33.4 65 29.5Z" fill="#FFFFFF"/><text fill="#0070C0" font-family="方正书宋简体,PingFang SC,Mircrosoft YaHei,Arial" font-size="17.3333" xml:space="preserve"><tspan x="6.1" y="22.6">硫酸锰</tspan></text></g><g id="shape21" transform="translate(43 245.125)"><path d="M65 29.5 65 7C65 3.1 61.9 0 58 0L7 0C3.1 0 0 3.1 0 7L0 29.5C0 33.4 3.1 36.5 7 36.5L58 36.5C61.9 36.5 65 33.4 65 29.5Z" fill="#FFFFFF"/><text fill="#0070C0" font-family="方正书宋简体,PingFang SC,Mircrosoft YaHei,Arial" font-size="17.3333" xml:space="preserve"><tspan x="6.1" y="22.6">硫酸铜</tspan></text></g><g id="shape22" transform="translate(226 339.667)"><path d="M0 0-112 0" stroke="#0070C0" fill="none"/><path d="M-112 3-118 0-112-3-112 3" stroke="#0070C0" stroke-linecap="round" fill="#0070C0"/><rect x="-86.8" y="-8.3" width="57.6" height="16" fill="#FFFFFF"/><text fill="#0070C0" font-family="方正书宋简体,PingFang SC,Mircrosoft YaHei,Arial" font-size="13.3333" xml:space="preserve"><tspan x="-86.8" y="3.7">反锌铝液</tspan></text></g><g id="shape23" transform="translate(226 339.667)"><path d="M0 0-20 0-20-56.7-98-56.7-98-76.3-112-76.3" stroke="#0070C0" fill="none"/><path d="M-112-73.3-118-76.3-112-79.3-112-73.3" stroke="#0070C0" stroke-linecap="round" fill="#0070C0"/></g><g id="shape24" transform="translate(226 339.667)"><path d="M0 0-20 0-20-56.7-98-56.7-98-36.5-112-36.5" stroke="#0070C0" fill="none"/><path d="M-112-33.5-118-36.5-112-39.5-112-33.5" stroke="#0070C0" stroke-linecap="round" fill="#0070C0"/><rect x="-92.1" y="-65" width="57.6" height="16" fill="#FFFFFF"/><text fill="#0070C0" font-family="方正书宋简体,PingFang SC,Mircrosoft YaHei,Arial" font-size="13.3333" xml:space="preserve"><tspan x="-92.1" y="-53">反铜锰液</tspan></text></g><g id="shape25" transform="translate(276 357.917)"><path d="M0 0 0 13.9" stroke="#0070C0" fill="none"/><path d="M3 13.9 0 19.9-3 13.9 3 13.9" stroke="#0070C0" stroke-linecap="round" fill="#0070C0"/></g><g id="shape26" transform="translate(226 547)"><path d="M100 29.5 100 7C100 3.1 96.9 0 93 0L7 0C3.1 0 0 3.1 0 7L0 29.5C0 33.4 3.1 36.5 7 36.5L93 36.5C96.9 36.5 100 33.4 100 29.5Z" fill="#FFFFFF"/><text fill="#0070C0" font-family="方正书宋简体,PingFang SC,Mircrosoft YaHei,Arial" font-size="17.3333" xml:space="preserve"><tspan x="23.6" y="22.6">阴极液</tspan></text></g><g id="shape27" transform="translate(276 528)"><path d="M0 0 0 13" stroke="#0070C0" fill="none"/><path d="M3 13 0 19-3 13 3 13" stroke="#0070C0" stroke-linecap="round" fill="#0070C0"/></g><g id="shape28" transform="translate(226 603.396)"><path d="M100 36.5 100 0 0 0 0 36.5 100 36.5Z" stroke="#101843" fill="#FFFFFF"/><text fill="#191919" font-family="方正书宋简体,PingFang SC,Mircrosoft YaHei,Arial" font-size="17.3333" xml:space="preserve"><tspan x="23.6" y="22.9">镍电积</tspan></text></g><g id="shape29" transform="translate(276 583.5)"><path d="M0 0 0 13.9" stroke="#0070C0" fill="none"/><path d="M3 13.9 0 19.9-3 13.9 3 13.9" stroke="#0070C0" stroke-linecap="round" fill="#0070C0"/></g><g id="shape30" transform="translate(226 659.792)"><path d="M100 29.5 100 7C100 3.1 96.9 0 93 0L7 0C3.1 0 0 3.1 0 7L0 29.5C0 33.4 3.1 36.5 7 36.5L93 36.5C96.9 36.5 100 33.4 100 29.5Z" fill="#FFFFFF"/><text fill="#BC5B57" font-family="方正书宋简体,PingFang SC,Mircrosoft YaHei,Arial" font-size="17.3333" xml:space="preserve"><tspan x="32.4" y="22.9">电镍</tspan></text></g><g id="shape31" transform="translate(276 639.896)"><path d="M0 0 0 13.9" stroke="#BC5B57" fill="none"/><path d="M3 13.9 0 19.9-3 13.9 3 13.9" stroke="#BC5B57" stroke-linecap="round" fill="#BC5B57"/></g><g id="shape32" transform="translate(326 170.479)"><path d="M0 0 17 0C17-3.3 19.7-6 23-6 26.3-6 29-3.3 29 0L47 0" stroke="#BC5B57" fill="none"/><path d="M47-3 53 0 47 3 47-3" stroke="#BC5B57" stroke-linecap="round" fill="#BC5B57"/></g><g id="shape33" transform="translate(433 312)"><path d="M27 116.5 27 0 0 0 0 116.5 27 116.5Z" stroke="#101843" fill="#FFFFFF"/><text fill="#191919" font-family="方正书宋简体,PingFang SC,Mircrosoft YaHei,Arial" font-size="17.3333" xml:space="preserve"><tspan x="6.2" y="22.6">阳</tspan><tspan x="6.2" y="42.6">极</tspan><tspan x="6.2" y="62.6">液</tspan><tspan x="6.2" y="82.7">蒸</tspan><tspan x="6.2" y="102.7">发</tspan></text></g><g id="shape34" transform="translate(326 621.646)"><path d="M0 0 120.5 0 120.5-187.1" stroke="#0070C0" fill="none"/><path d="M117.5-187.1 120.5-193.1 123.5-187.1 117.5-187.1" stroke="#0070C0" stroke-linecap="round" fill="#0070C0"/></g><g id="shape35" transform="translate(446.5 312)"><path d="M0 0 0-254.3-114.5-254.3" stroke="#0070C0" fill="none"/><path d="M-114.5-251.3-120.5-254.3-114.5-257.3-114.5-251.3" stroke="#0070C0" stroke-linecap="round" fill="#0070C0"/><rect x="-6.2" y="-156.8" width="14.4" height="16" fill="#FFFFFF"/><rect x="-6.2" y="-140.8" width="14.4" height="16" fill="#FFFFFF"/><rect x="-6.2" y="-124.8" width="14.4" height="16" fill="#FFFFFF"/><rect x="-6.2" y="-108.8" width="14.4" height="16" fill="#FFFFFF"/><text fill="#0070C0" font-family="方正书宋简体,PingFang SC,Mircrosoft YaHei,Arial" font-size="13.3333" xml:space="preserve"><tspan x="-6.2" y="-144.8">蒸</tspan><tspan x="-6.2" y="-128.8">发</tspan><tspan x="-6.2" y="-112.8">后</tspan><tspan x="-6.2" y="-96.8">液</tspan></text></g><g id="shape36" transform="translate(92 95.833)"><path d="M100 36.5 100 0 0 0 0 36.5 100 36.5Z" stroke="#101843" fill="#FFFFFF"/><text fill="#191919" font-family="方正书宋简体,PingFang SC,Mircrosoft YaHei,Arial" font-size="17.3333" xml:space="preserve"><tspan x="32.4" y="22.9">氧压</tspan></text></g><g id="shape37" transform="translate(92 152.229)"><path d="M100 36.5 100 0 0 0 0 36.5 100 36.5Z" stroke="#101843" fill="#FFFFFF"/><text fill="#191919" font-family="方正书宋简体,PingFang SC,Mircrosoft YaHei,Arial" font-size="17.3333" xml:space="preserve"><tspan x="14.8" y="22.9">固液分离</tspan></text></g><g id="shape38" transform="translate(92 208.625)"><path d="M100 36.5 100 0 0 0 0 36.5 100 36.5Z" stroke="#101843" fill="#FFFFFF"/><text fill="#191919" font-family="方正书宋简体,PingFang SC,Mircrosoft YaHei,Arial" font-size="17.3333" xml:space="preserve"><tspan x="15.2" y="22.9">COD洗涤</tspan></text></g><g id="shape39" transform="translate(75.5 284.917)"><path d="" stroke="#191919" fill="none"/></g><g id="shape40" transform="translate(379 216.5)"><path d="M45 29.5 45 7C45 3.1 41.9 0 38 0L7 0C3.1 0 0 3.1 0 7L0 29.5C0 33.4 3.1 36.5 7 36.5L38 36.5C41.9 36.5 45 33.4 45 29.5Z" fill="#FFFFFF"/><text fill="#BC5B57" font-family="方正书宋简体,PingFang SC,Mircrosoft YaHei,Arial" font-size="17.3333" xml:space="preserve"><tspan x="3.2" y="22.6">MHP</tspan></text></g><g id="shape41" transform="translate(379 234.75)"><path d="M0 0-47 -0" stroke="#BC5B57" fill="none"/><path d="M-47 3-53 -0-47-3-47 3" stroke="#BC5B57" stroke-linecap="round" fill="#BC5B57"/></g><g id="shape42" transform="translate(226 114.083)"><path d="M0 0-28 0" stroke="#0070C0" fill="none"/><path d="M-28 3-34 0-28-3-28 3" stroke="#0070C0" stroke-linecap="round" fill="#0070C0"/></g><g id="shape43" transform="translate(142 132.333)"><path d="M0 0 0 13.2" stroke="#0070C0" fill="none"/><path d="M3 13.2 0 19.2-3 13.2 3 13.2" stroke="#0070C0" stroke-linecap="round" fill="#0070C0"/><text fill="#0070C0" font-family="方正书宋简体,PingFang SC,Mircrosoft YaHei,Arial" font-size="13.3333" xml:space="preserve"><tspan x="-27.8" y="12.4">闪蒸矿浆</tspan></text></g><g id="shape44" transform="translate(142 188.729)"><path d="M0 0 0 13.9" stroke="#0070C0" fill="none"/><path d="M3 13.9 0 19.9-3 13.9 3 13.9" stroke="#0070C0" stroke-linecap="round" fill="#0070C0"/><text fill="#0070C0" font-family="方正书宋简体,PingFang SC,Mircrosoft YaHei,Arial" font-size="13.3333" xml:space="preserve"><tspan x="-13.4" y="11.5">底液</tspan></text></g><g id="shape45" transform="translate(92 226.875)"><path d="M0 0-42 0-42-169.2 128-169.2" stroke="#0070C0" fill="none"/><path d="M128-172.2 134-169.2 128-166.2 128-172.2" stroke="#0070C0" stroke-linecap="round" fill="#0070C0"/><rect x="-48.2" y="-122.4" width="14.4" height="16" fill="#FFFFFF"/><rect x="-48.2" y="-106.4" width="14.4" height="16" fill="#FFFFFF"/><text fill="#0070C0" font-family="方正书宋简体,PingFang SC,Mircrosoft YaHei,Arial" font-size="13.3333" xml:space="preserve"><tspan x="-48.2" y="-110.4">洗</tspan><tspan x="-48.2" y="-94.4">水</tspan></text></g><g id="shape46" transform="translate(92 170.479)"><path d="M0 0-19 0-19-112.8 128-112.8" stroke="#0070C0" fill="none"/><path d="M128-115.8 134-112.8 128-109.8 128-115.8" stroke="#0070C0" stroke-linecap="round" fill="#0070C0"/><rect x="-25.2" y="-75.4" width="14.4" height="16" fill="#FFFFFF"/><rect x="-25.2" y="-59.4" width="14.4" height="16" fill="#FFFFFF"/><rect x="-25.2" y="-43.4" width="14.4" height="16" fill="#FFFFFF"/><text fill="#0070C0" font-family="方正书宋简体,PingFang SC,Mircrosoft YaHei,Arial" font-size="13.3333" xml:space="preserve"><tspan x="-25.2" y="-63.4">浸</tspan><tspan x="-25.2" y="-47.4">出</tspan><tspan x="-25.2" y="-31.4">液</tspan></text></g></g></svg>