<svg width="554.5" height="268.8" viewBox="0 0 554.5 268.8" xmlns="http://www.w3.org/2000/svg" xmlns:xlink="http://www.w3.org/1999/xlink" id="图层_1" xml:space="preserve" overflow="hidden"><rect x="-198.1" y="-170.6" width="1123" height="794" fill="none"/><g id="shape1" transform="translate(215 183.5)"><path d="M40.2-135.6 40.2-170.6-198.1-170.6-198.1-135.6 40.2-135.6Z" stroke="#101843" fill="#FFFFFF"/></g><path d="M50.9 215.4 50.9 47.9 16.9 47.9 16.9 215.4 50.9 215.4Z" stroke="#101843" fill="#FFFFFF"/><path d="M84.9 215.4 84.9 47.9 50.9 47.9 50.9 215.4 84.9 215.4Z" stroke="#101843" fill="#FFFFFF"/><path d="M118.9 215.4 118.9 47.9 84.9 47.9 84.9 215.4 118.9 215.4Z" stroke="#101843" fill="#FFFFFF"/><path d="M152.9 215.4 152.9 47.9 118.9 47.9 118.9 215.4 152.9 215.4Z" stroke="#101843" fill="#FFFFFF"/><path d="M221.2 215.4 221.2 47.9 187.2 47.9 187.2 215.4 221.2 215.4Z" stroke="#101843" fill="#FFFFFF"/><path d="M255.2 215.4 255.2 47.9 221.2 47.9 221.2 215.4 255.2 215.4Z" stroke="#101843" fill="#FFFFFF"/><path d="M255.2 250.4 255.2 215.4 16.9 215.4 16.9 250.4 255.2 250.4Z" stroke="#101843" fill="#FFFFFF"/><g><path d="M167.3 127.7C167.5 127.9 167.6 128.1 167.6 128.4 167.6 128.7 167.5 128.9 167.3 129.1 167.1 129.3 166.9 129.4 166.6 129.4 166.3 129.4 166.1 129.3 165.9 129.1 165.7 128.9 165.6 128.7 165.6 128.4 165.6 128.1 165.7 127.9 165.9 127.7 166.1 127.5 166.3 127.4 166.6 127.4 166.9 127.5 167.2 127.5 167.3 127.7Z" fill="#191919"/><path d="M170.9 127.7C171.1 127.9 171.2 128.1 171.2 128.4 171.2 128.7 171.1 128.9 170.9 129.1 170.7 129.3 170.5 129.4 170.2 129.4 169.9 129.4 169.7 129.3 169.5 129.1 169.3 128.9 169.2 128.7 169.2 128.4 169.2 128.1 169.3 127.9 169.5 127.7 169.7 127.5 169.9 127.4 170.2 127.4 170.5 127.5 170.7 127.5 170.9 127.7Z" fill="#191919"/><path d="M174.4 127.7C174.6 127.9 174.7 128.1 174.7 128.4 174.7 128.7 174.6 128.9 174.4 129.1 174.2 129.3 174 129.4 173.7 129.4 173.4 129.4 173.2 129.3 173 129.1 172.8 128.9 172.7 128.7 172.7 128.4 172.7 128.1 172.8 127.9 173 127.7 173.2 127.5 173.4 127.4 173.7 127.4 174 127.5 174.2 127.5 174.4 127.7Z" fill="#191919"/></g><path d="M327.7 88.7 455 56.8 455 227 327.7 258.9 327.7 88.7 327.7 88.7Z" id="shape10" stroke="#101843" stroke-opacity="0.97" fill="#FFFFFF"/><path d="M387.8 101.4C400.9 29.3 338.6 13.4 350.8 82.6" id="shape11" stroke="#191919" fill="none"/><path d="M438.3 88.7C451.4 16.6 389.1 0.7 401.3 69.9" id="shape12" stroke="#191919" fill="none"/><path d="M298.2 76.7 484.4 27.5" id="shape13" stroke="#191919" stroke-width="2.6667" fill="none"/><g id="shape14" transform="translate(464.835 295)"><g><path d="M-196.2-150.4-189.6-150.4-189.6-149.3-196.2-149.3-196.2-150.4ZM-196.2-147.7-189.6-147.7-189.6-146.6-196.2-146.6-196.2-147.7Z" fill="#191919"/><path d="M-188.3-150.4-181.7-150.4-181.7-149.3-188.3-149.3-188.3-150.4ZM-188.3-147.7-181.7-147.7-181.7-146.6-188.3-146.6-188.3-147.7Z" fill="#191919"/><path d="M-180.4-151.8-173.8-149-173.8-148-180.4-145.1-180.4-146.3-175.5-148.4-180.4-150.5-180.4-151.8Z" fill="#191919"/></g></g><g id="shape15" transform="translate(650 198.665)"><g><path d="M-136-180.6C-135-179.8-134.3-178.6-134.1-177.2L-136.2-177.2C-136.4-178.2-136.9-178.9-137.6-179.3-138.3-179.8-139.1-180-140.2-180-141.7-180-142.9-179.5-143.7-178.4-144.4-177.5-144.8-176.1-144.8-174.5-144.8-172.8-144.4-171.5-143.7-170.5-142.9-169.5-141.8-169-140.2-169-139.1-169-138.3-169.3-137.6-169.8-136.9-170.4-136.4-171.2-136.1-172.3L-134-172.3C-134.3-170.6-135.1-169.3-136.2-168.4-137.3-167.5-138.6-167.1-140.2-167.1-142.5-167.1-144.3-167.8-145.5-169.3-146.5-170.6-147-172.3-147-174.5-147-176.6-146.5-178.4-145.4-179.7-144.2-181.2-142.5-182-140.2-182-138.4-181.9-137.1-181.4-136-180.6Z" fill="#191919"/><path d="M-131.9-177.6-129.8-177.6-129.8-171.3C-129.8-170.4-129.6-169.8-129.2-169.4-128.8-169-128.2-168.8-127.4-168.8-126.9-168.8-126.4-169-125.9-169.5-125.4-170-125.1-170.6-124.9-171.3L-124.9-177.6-122.8-177.6-122.8-167.2-124.9-167.2-124.9-168.6C-125.8-167.5-126.9-166.9-128.2-166.9-130.7-166.9-131.9-168.3-131.9-171.1L-131.9-177.6Z" fill="#191919"/><path d="M-116.2-165.3-118-165.3-118-174.2C-118.6-172.6-119.3-171.1-120-169.7L-120.8-171.8C-119.5-173.6-118.6-175.7-118-178.1L-120.4-178.1-120.4-179.9-118-179.9-118-183.6-116.2-183.6-116.2-179.9-114.3-179.9-114.3-178.1-116.2-178.1-116.2-176.6C-115.4-175.8-114.6-175-113.9-174.1L-114.9-172.6C-115.2-173.1-115.6-173.8-116.2-174.6L-116.2-165.3ZM-113.6-182.4-109.5-182.4-109.3-183.9-107.4-183.7-107.6-182.4-103.4-182.4-103.4-180.7-107.9-180.7-108.2-179.6-104.1-179.6-104.1-178-108.7-178C-108.9-177.5-109-177.2-109.1-176.9L-102.8-176.9-102.8-175.2-105.1-175.2C-104.4-174.1-103.5-173.1-102.2-172.2L-103.4-170.7C-104-171.2-104.6-171.8-105.1-172.4L-105.1-171.1-107.6-171.1-107.6-169.7-103.6-169.7-103.6-168-107.6-168-107.6-165.4-109.4-165.4-109.4-168-113.5-168-113.5-169.7-109.4-169.7-109.4-171.1-112-171.1-112-172.2C-112.6-171.6-113.2-171.1-113.9-170.6L-115-172.2C-113.8-173-112.8-174-112-175.2L-114.4-175.2-114.4-176.9-111-176.9-110.5-178-113.1-178-113.1-179.6-110-179.6-109.7-180.7-113.5-180.7-113.5-182.4ZM-109.8-175.2C-110.3-174.3-110.9-173.5-111.5-172.7L-109.3-172.7-109.3-174.4-107.5-174.4-107.5-172.7-105.2-172.7C-105.8-173.5-106.4-174.3-106.8-175.2L-109.8-175.2Z" fill="#191919"/></g></g><g><path d="M128.4 226.8 128.4 229.9 128 229.9C127.5 227.8 126.4 226.8 124.8 226.8 123.8 226.8 123 227.3 122.4 228.3 121.9 229.2 121.7 230.9 121.7 233.2 121.6 236.9 122.6 238.7 124.9 238.5 126.4 238.5 127.5 237.4 128.2 235.4L128.6 235.4 128.6 238.7 128.1 238.7 127.6 238C126.8 238.6 125.9 238.8 124.8 238.8 123 238.8 121.6 238.1 120.7 236.8 119.9 235.7 119.6 234.3 119.6 232.7 119.6 230.8 120.2 229.3 121.4 228.1 122.4 227.1 123.6 226.5 124.8 226.5 125.7 226.5 126.6 226.8 127.4 227.5L128 226.9 128.4 226.9Z"/><path d="M138.3 238.3 138.3 238.7 137.9 238.7C137.2 238.7 136.5 238.7 135.9 238.7L135.9 237.4 135.8 237.4C135.6 238 135.2 238.4 134.7 238.7 134.2 238.8 133.7 238.8 133.2 238.8 131.7 238.8 131 238.3 131.1 237.3L131.1 232 130.1 232 130.1 231.6 130.5 231.6C131.2 231.6 131.9 231.5 132.5 231.4L132.5 237.1C132.5 237.9 132.9 238.4 133.6 238.4 134.2 238.4 134.7 238.2 135.1 237.8 135.6 237.3 135.9 236.7 135.9 236L135.9 232 134.8 232 134.8 231.6 135.2 231.6C135.9 231.6 136.5 231.5 137.2 231.4L137.2 238.3 138.3 238.3Z"/><path d="M142.7 224.1C143.8 224.6 144.4 224.8 144.4 224.9L144.1 225.1C143.9 225.2 143.7 225.3 143.7 225.4L143.7 228.6 144.6 228.6 145.3 227.6 146.5 228.9 146.4 229 143.7 229 143.7 231.2C145 231.7 145.7 232.2 145.9 232.6 146.1 233.4 145.9 233.8 145.4 234 145.3 234 145.1 233.8 145 233.4 144.7 232.6 144.3 232 143.7 231.6L143.6 240C143.3 240.3 142.8 240.5 142.3 240.6 142.3 239 142.4 236 142.5 231.8 141.5 233.8 140.3 235.4 139.1 236.7L139 236.5C141 233.6 142.1 231.1 142.3 228.9L140.5 228.9 139.8 229 139.4 228.5 142.6 228.5C142.8 226.2 142.8 224.7 142.7 224.1ZM153.8 224.7C154.6 225.5 155 226 155 226 155 226 154.9 226.1 154.7 226.1 154.3 226.1 153.9 226.1 153.5 226.2 152.9 226.2 152.3 226.3 151.5 226.4 150.5 226.5 149.7 226.6 149.1 226.6 148.3 226.6 148 226.9 148.1 227.4 148.1 228.6 148.1 229.5 148.1 230.1L152.7 230.1C152.7 230.1 152.8 230 153 229.7L153.3 229.3C153.9 229.7 154.4 230.1 154.8 230.5L154.5 230.7C154.2 230.9 154 231 154 231.1 153.4 233.7 152.7 235.5 151.8 236.7 152.7 237.7 154.2 238.6 156.2 239.3L156.2 239.5C155.4 239.4 154.8 239.6 154.6 240.1L154.5 240.2C153.2 239.4 152.1 238.5 151.2 237.5 149.5 239 147.6 239.9 145.4 240.2L145.3 240.1C147.5 239.3 149.4 238.2 150.7 236.7 149.7 235 149.2 232.9 149.2 230.5L148.1 230.5C148.3 234.9 147 238.1 144.2 240.2L144.1 240C145.5 238.6 146.4 237 146.7 235.3 147 233.8 147.2 230.5 147.1 225.5 147.1 225.5 147.6 225.7 148.6 226.3 150.5 226 152.3 225.5 153.8 224.7ZM149.5 230.5C149.9 232.9 150.5 234.7 151.2 235.9 152.1 234.2 152.7 232.4 152.9 230.5L149.5 230.5Z"/></g><g><path d="M129.3 22.5 129.3 25.6 128.9 25.6C128.4 23.5 127.3 22.5 125.7 22.5 124.7 22.5 123.9 23 123.3 24 122.8 24.9 122.6 26.6 122.6 28.9 122.5 32.6 123.5 34.4 125.8 34.2 127.3 34.2 128.4 33.1 129.1 31.1L129.5 31.1 129.5 34.4 129 34.4 128.5 33.7C127.7 34.3 126.8 34.5 125.7 34.5 123.9 34.5 122.5 33.8 121.6 32.5 120.8 31.4 120.5 30 120.5 28.4 120.5 26.5 121.1 25 122.3 23.8 123.3 22.8 124.5 22.2 125.7 22.2 126.6 22.2 127.5 22.5 128.3 23.2L128.9 22.6 129.3 22.6Z"/><path d="M139.1 34 139.1 34.4 138.7 34.4C138 34.4 137.3 34.4 136.7 34.4L136.7 33.1 136.6 33.1C136.4 33.7 136 34.1 135.5 34.4 135 34.5 134.5 34.5 134 34.5 132.5 34.5 131.8 34 131.9 33L131.9 27.8 130.9 27.8 130.9 27.4 131.3 27.4C132 27.4 132.7 27.3 133.3 27.2L133.3 32.9C133.3 33.7 133.7 34.2 134.4 34.2 135 34.2 135.5 34 135.9 33.6 136.4 33.1 136.7 32.5 136.7 31.8L136.7 27.8 135.6 27.8 135.6 27.4 136 27.4C136.7 27.4 137.3 27.3 138 27.2L138 34 139.1 34Z"/><path d="M143.6 19.8C144.7 20.3 145.3 20.5 145.3 20.6L145 20.8C144.8 20.9 144.6 21 144.6 21.1L144.6 24.3 145.5 24.3 146.2 23.3 147.4 24.6 147.3 24.7 144.6 24.7 144.6 26.9C145.9 27.4 146.6 27.9 146.8 28.3 147 29.1 146.8 29.5 146.3 29.7 146.2 29.7 146 29.5 145.9 29.1 145.6 28.3 145.2 27.7 144.6 27.3L144.5 35.7C144.2 36 143.7 36.2 143.2 36.3 143.2 34.7 143.3 31.7 143.4 27.5 142.4 29.5 141.2 31.1 140 32.4L139.9 32.2C141.9 29.3 143 26.8 143.2 24.6L141.4 24.6 140.7 24.7 140.3 24.2 143.5 24.2C143.6 21.9 143.6 20.5 143.6 19.8ZM154.6 20.4C155.4 21.2 155.8 21.7 155.8 21.7 155.8 21.7 155.7 21.8 155.5 21.8 155.1 21.8 154.7 21.8 154.3 21.9 153.7 21.9 153.1 22 152.3 22.1 151.3 22.2 150.5 22.3 149.9 22.3 149.1 22.3 148.8 22.6 148.9 23.1 148.9 24.3 148.9 25.2 148.9 25.8L153.5 25.8C153.5 25.8 153.6 25.7 153.8 25.4L154.1 25C154.7 25.4 155.2 25.8 155.6 26.2L155.3 26.4C155 26.6 154.8 26.7 154.8 26.8 154.2 29.4 153.5 31.2 152.6 32.4 153.5 33.4 155 34.3 157 35L157 35.2C156.2 35.1 155.6 35.3 155.4 35.8L155.3 35.9C154 35.1 152.9 34.2 152 33.2 150.3 34.7 148.4 35.6 146.2 35.9L146.1 35.8C148.3 35 150.2 33.9 151.5 32.4 150.5 30.7 150 28.6 150 26.2L149 26.2C149.2 30.6 147.9 33.8 145.1 35.9L145 35.7C146.4 34.3 147.3 32.7 147.6 31 147.9 29.5 148.1 26.2 148 21.2 148 21.2 148.5 21.4 149.5 22 151.4 21.7 153.1 21.2 154.6 20.4ZM150.4 26.3C150.8 28.7 151.4 30.5 152.1 31.7 153 30 153.6 28.2 153.8 26.3L150.4 26.3Z"/></g><g><path d="M31.8 112.4C32.2 112.6 32.6 113.1 33.2 113.7 33.2 113.7 33.2 113.8 33.1 113.8 32.7 113.8 32.4 114.1 32.2 114.5 31.2 116.2 30.6 117.3 30.4 117.6L30.6 117.8C32.4 119.5 33 121.1 32.6 122.6 32.2 123.4 31.5 124 30.6 124.4L30.5 124.3C30.4 123.7 29.9 123.3 29 123L29 122.9C29.7 123.1 30.3 123.2 30.8 123 31.6 122.4 31.9 121.5 31.4 120.2 31.2 119.5 30.7 118.8 30.1 118L30 117.8C30 117.8 30 117.5 30.1 117.2 30.4 116.2 30.8 115.1 31.2 113.8L29.5 113.8C28.9 113.8 28.6 114 28.7 114.4L28.7 127.8C28.5 128.1 28.1 128.2 27.5 128.2 27.6 127.5 27.6 126 27.6 123.7 27.6 122.6 27.7 121.2 27.7 119.6 27.7 118.2 27.7 115.8 27.7 112.5L29 113.4 31.1 113.4C31.1 113.4 31.3 113.2 31.5 113 31.7 112.5 31.8 112.4 31.8 112.4ZM33.9 112.8 35.2 113.5 39.8 113.5C39.9 113.5 40 113.4 40.2 113.1 40.3 112.9 40.4 112.8 40.4 112.8 41.3 113.4 41.8 113.7 41.7 113.8 41.7 113.8 41.7 113.9 41.5 114 41.4 114.1 41.2 114.3 41.1 114.4 41.1 119.7 41.1 123.9 41.2 127 40.9 127.4 40.5 127.6 40 127.5L40 125.4 34.7 125.4 34.7 127.3C34.2 127.7 33.8 127.9 33.4 127.7 33.7 125.1 33.9 120.1 33.9 112.8ZM35.8 114C35.1 113.9 34.8 114.2 34.9 114.8L34.9 119.3 40.2 119.3 40.2 114 35.8 114ZM34.9 119.7 34.9 125 40.2 125 40.2 119.7 34.9 119.7Z"/></g><g><path d="M28.7 133.7C29.1 133.8 29.7 134.1 30.3 134.6 30.3 134.6 30.2 134.7 29.9 134.9L29.6 135 29.6 137.9 30.6 137.9 31.3 137 32.6 138.2 32.5 138.3 29.7 138.3 29.7 140.8C31 141.1 31.8 141.6 32.1 142.1 32.1 142.9 31.9 143.2 31.5 143.3 31.4 143.3 31.3 143.1 31.1 142.7 30.7 141.9 30.3 141.3 29.8 141 29.8 143.1 29.8 145.9 29.7 149.3 29.4 149.6 29 149.8 28.6 149.9 28.7 145.7 28.8 142.8 28.8 141 28 142.8 27.1 144.4 26 145.6L25.9 145.5C27.3 143.3 28.3 141 28.8 138.3L27.3 138.3 26.3 138.4 26 137.8 28.9 137.8 28.9 133.7ZM38.8 134.6C39.4 135 39.9 135.4 40.3 135.8 40.3 135.8 40.2 135.9 39.9 136 39.5 136.2 39.2 136.4 39.2 136.5 38.9 137.5 38.4 138.7 37.8 140.3L39.5 140.3C39.9 139.8 40.2 139.6 40.2 139.6 40.5 139.8 40.9 140.2 41.5 140.9 41.5 140.9 41.4 141 41.1 141 40.8 141.1 40.6 141.2 40.6 141.3 39.8 143.3 39.1 144.9 38.2 146.2 39.4 147.5 40.9 148.4 42.7 148.9L42.7 149C41.9 149 41.3 149.1 40.9 149.5 40.8 149.6 40.7 149.6 40.7 149.6 39.8 149 38.7 148.1 37.5 147.1 36 148.5 34.1 149.4 31.8 150L31.7 149.8C33.9 149 35.6 147.9 36.9 146.3 36 144.8 35.2 142.7 34.6 140.2 34.4 142.8 34 144.8 33.4 146.2 32.6 147.7 31.6 149 30.2 149.9L30.1 149.7C31.4 148.5 32.2 147.2 32.6 146 32.9 145.1 33.2 143.6 33.4 141.6 33.6 139.2 33.7 137.3 33.6 136L32.8 136 31.9 136.1 31.5 135.6 38 135.6 38.2 135.3C38.6 134.8 38.7 134.6 38.8 134.6ZM38.4 135.9 34.7 135.9C34.7 136.6 34.7 137.6 34.6 138.9 35.3 141.7 36.3 143.9 37.5 145.5 38.3 144.2 38.9 142.6 39.4 140.7L37.7 140.7C37.7 140.7 37.6 140.7 37.4 140.8 37.2 140.9 37.2 141 37.1 141 36.8 140.8 36.6 140.5 36.3 140.2 36.6 140.1 36.7 140 36.8 139.9 37 139.4 37.4 138.5 37.8 137.2 38.1 136.7 38.2 136.2 38.4 135.9Z"/></g><g><path d="M63.8 112.2C63.8 112.2 64.1 112.3 64.6 112.6 64.8 112.7 65 112.8 65 112.8L67.8 112.8C67.8 112.8 67.9 112.7 68 112.5 68.1 112.3 68.2 112.2 68.3 112.2 68.9 112.5 69.3 112.8 69.7 113.3 69.7 113.3 69.7 113.4 69.6 113.4 69.2 113.5 68.8 113.8 68.5 114.3 68 115 67.4 116 66.6 117.3 68.4 118.7 69.3 119.9 69.3 121.2 69.4 122.5 68.7 123.4 67.1 123.9 67.1 123.9 67 123.8 67 123.7 66.8 123 66.2 122.6 65.3 122.4L65.3 122.2C65.4 122.2 65.6 122.2 65.8 122.3 67.2 122.7 68 122.4 68.2 121.5 68.4 120.5 67.7 119.2 66.2 117.6 66.8 116.2 67.4 114.9 68 113.5L65.4 113.5C65 113.5 64.9 113.7 64.9 114.2L65 127.6C64.5 128.1 64.1 128.3 63.8 128.2L63.8 112.2ZM78.2 113.3C78.2 113.3 78.1 113.4 77.9 113.5 77.6 113.6 77.5 113.8 77.5 113.9 77.5 115.5 77.5 117.7 77.6 120.4 77.6 124 77.7 126.1 77.7 126.6 77.6 127.3 76.9 127.9 75.7 128.1L75.7 128C75.7 127.2 75 126.8 73.5 126.6L73.5 126.4C74.5 126.5 75.4 126.6 76.1 126.6 76.4 126.6 76.6 126.4 76.5 125.8L76.5 121.3 71.7 121.3C71.7 124.7 69.9 127.1 66.1 128.3L66 128.1C67.9 127.1 69.2 126 69.9 124.9 70.5 123.9 70.8 121.2 70.7 116.9 70.7 114.9 70.7 113.4 70.7 112.4 70.8 112.4 71.2 112.5 72 113L76 113C76 113 76.2 112.8 76.5 112.5L76.8 112.2C77.1 112.3 77.6 112.7 78.2 113.3ZM76.5 117.3 71.8 117.3 71.7 120.9 76.5 120.9 76.5 117.3ZM76.4 113.3 72.3 113.3C71.9 113.3 71.7 113.5 71.7 114.1L71.7 116.9 76.3 116.9 76.3 113.3Z"/></g><g><path d="M65.1 133.7C65.5 133.8 66.1 134.1 66.7 134.6 66.7 134.6 66.6 134.7 66.3 134.9L66 135 66 137.9 67 137.9 67.7 137 69 138.2 68.9 138.3 66 138.3 66 140.8C67.3 141.1 68.1 141.6 68.4 142.1 68.4 142.9 68.2 143.2 67.8 143.3 67.7 143.3 67.6 143.1 67.4 142.7 67 141.9 66.6 141.3 66.1 141 66.1 143.1 66.1 145.9 66 149.3 65.7 149.6 65.3 149.8 64.9 149.9 65 145.7 65.1 142.8 65.1 141 64.3 142.8 63.4 144.4 62.3 145.6L62.2 145.5C63.6 143.3 64.6 141 65.1 138.3L63.6 138.3 62.6 138.4 62.3 137.8 65.2 137.8 65.2 133.7ZM75.1 134.6C75.7 135 76.2 135.4 76.6 135.8 76.6 135.8 76.5 135.9 76.2 136 75.8 136.2 75.5 136.4 75.5 136.5 75.2 137.5 74.7 138.7 74.1 140.3L75.8 140.3C76.2 139.8 76.5 139.6 76.5 139.6 76.8 139.8 77.2 140.2 77.8 140.9 77.8 140.9 77.7 141 77.4 141 77.1 141.1 76.9 141.2 76.9 141.3 76.1 143.3 75.4 144.9 74.5 146.2 75.7 147.5 77.2 148.4 79 148.9L79 149C78.2 149 77.6 149.1 77.2 149.5 77.1 149.6 77 149.6 77 149.6 76.1 149 75 148.1 73.8 147.1 72.3 148.5 70.4 149.4 68.1 150L68 149.8C70.2 149 71.9 147.9 73.2 146.3 72.3 144.8 71.5 142.7 70.9 140.2 70.7 142.8 70.3 144.8 69.7 146.2 68.9 147.7 67.9 149 66.5 149.9L66.4 149.7C67.7 148.5 68.5 147.2 68.9 146 69.2 145.1 69.5 143.6 69.7 141.6 69.9 139.2 70 137.3 69.9 136L69.1 136 68.2 136.1 67.8 135.6 74.3 135.6 74.5 135.3C74.9 134.8 75.1 134.6 75.1 134.6ZM74.7 135.9 71 135.9C71 136.6 71 137.6 70.9 138.9 71.6 141.7 72.6 143.9 73.8 145.5 74.6 144.2 75.2 142.6 75.7 140.7L74 140.7C74 140.7 73.9 140.7 73.7 140.8 73.6 140.9 73.5 141 73.4 141 73.1 140.8 72.9 140.5 72.6 140.2 72.9 140.1 73 140 73.1 139.9 73.3 139.4 73.7 138.5 74.1 137.2 74.4 136.7 74.6 136.2 74.7 135.9Z"/></g><g><path d="M100.4 112.4C100.8 112.6 101.2 113.1 101.8 113.7 101.8 113.7 101.8 113.8 101.7 113.8 101.3 113.8 101 114.1 100.8 114.5 99.8 116.2 99.2 117.3 99 117.6L99.2 117.8C101 119.5 101.6 121.1 101.2 122.6 100.8 123.4 100.1 124 99.2 124.4L99.1 124.3C99 123.7 98.5 123.3 97.6 123L97.6 122.9C98.3 123.1 98.9 123.2 99.4 123 100.2 122.4 100.5 121.5 100 120.2 99.8 119.5 99.3 118.8 98.7 118L98.6 117.8C98.6 117.8 98.6 117.5 98.7 117.2 99 116.2 99.4 115.1 99.8 113.8L98.1 113.8C97.5 113.8 97.2 114 97.3 114.4L97.3 127.8C97.1 128.1 96.7 128.2 96.1 128.2 96.2 127.5 96.2 126 96.2 123.7 96.2 122.6 96.3 121.2 96.3 119.6 96.3 118.2 96.3 115.8 96.3 112.5L97.6 113.4 99.7 113.4C99.7 113.4 99.9 113.2 100.1 113 100.2 112.5 100.3 112.4 100.4 112.4ZM102.4 112.8 103.7 113.5 108.3 113.5C108.4 113.5 108.5 113.4 108.7 113.1 108.8 112.9 108.9 112.8 108.9 112.8 109.8 113.4 110.3 113.7 110.2 113.8 110.2 113.8 110.2 113.9 110 114 109.9 114.1 109.7 114.3 109.6 114.4 109.6 119.7 109.6 123.9 109.7 127 109.4 127.4 109 127.6 108.5 127.5L108.5 125.4 103.2 125.4 103.2 127.3C102.7 127.7 102.3 127.9 101.9 127.7 102.3 125.1 102.4 120.1 102.4 112.8ZM104.3 114C103.6 113.9 103.3 114.2 103.4 114.8L103.4 119.3 108.7 119.3 108.7 114 104.3 114ZM103.4 119.7 103.4 125 108.7 125 108.7 119.7 103.4 119.7Z"/></g><g><path d="M97.3 133.7C97.7 133.8 98.3 134.1 98.9 134.6 98.9 134.6 98.8 134.7 98.5 134.9L98.2 135 98.2 137.9 99.2 137.9 99.9 137 101.2 138.2 101.1 138.3 98.3 138.3 98.3 140.8C99.6 141.1 100.4 141.6 100.7 142.1 100.7 142.9 100.5 143.2 100.1 143.3 100 143.3 99.9 143.1 99.7 142.7 99.3 141.9 98.9 141.3 98.4 141 98.4 143.1 98.4 145.9 98.3 149.3 98 149.6 97.6 149.8 97.2 149.9 97.3 145.7 97.4 142.8 97.4 141 96.6 142.8 95.7 144.4 94.6 145.6L94.5 145.5C95.9 143.3 96.9 141 97.4 138.3L95.9 138.3 94.9 138.4 94.6 137.8 97.5 137.8 97.5 133.7ZM107.3 134.6C107.9 135 108.4 135.4 108.8 135.8 108.8 135.8 108.7 135.9 108.4 136 108 136.2 107.7 136.4 107.7 136.5 107.4 137.5 106.9 138.7 106.3 140.3L108 140.3C108.4 139.8 108.7 139.6 108.7 139.6 109 139.8 109.4 140.2 110 140.9 110 140.9 109.9 141 109.6 141 109.3 141.1 109.1 141.2 109.1 141.3 108.3 143.3 107.6 144.9 106.7 146.2 107.9 147.5 109.4 148.4 111.2 148.9L111.2 149C110.4 149 109.8 149.1 109.4 149.5 109.3 149.6 109.2 149.6 109.2 149.6 108.3 149 107.2 148.1 106 147.1 104.5 148.5 102.6 149.4 100.3 150L100.2 149.8C102.4 149 104.1 147.9 105.4 146.3 104.5 144.8 103.7 142.7 103.1 140.2 102.9 142.8 102.5 144.8 101.9 146.2 101.1 147.7 100.1 149 98.7 149.9L98.6 149.7C99.9 148.5 100.7 147.2 101.1 146 101.4 145.1 101.7 143.6 101.9 141.6 102.1 139.2 102.2 137.3 102.1 136L101.3 136 100.4 136.1 100 135.6 106.5 135.6 106.7 135.3C107.1 134.8 107.3 134.6 107.3 134.6ZM106.9 135.9 103.2 135.9C103.2 136.6 103.2 137.6 103.1 138.9 103.8 141.7 104.8 143.9 106 145.5 106.8 144.2 107.4 142.6 107.9 140.7L106.2 140.7C106.2 140.7 106.1 140.7 105.9 140.8 105.8 140.9 105.7 141 105.6 141 105.3 140.8 105.1 140.5 104.8 140.2 105.1 140.1 105.2 140 105.3 139.9 105.5 139.4 105.9 138.5 106.3 137.2 106.6 136.7 106.8 136.2 106.9 135.9Z"/></g><g><path d="M132.3 112.2C132.3 112.2 132.6 112.3 133.1 112.6 133.3 112.7 133.5 112.8 133.5 112.8L136.3 112.8C136.3 112.8 136.4 112.7 136.5 112.5 136.6 112.3 136.7 112.2 136.8 112.2 137.4 112.5 137.8 112.8 138.2 113.3 138.2 113.3 138.2 113.4 138.1 113.4 137.7 113.5 137.3 113.8 137 114.3 136.5 115 135.9 116 135.1 117.3 136.9 118.7 137.8 119.9 137.8 121.2 137.9 122.5 137.2 123.4 135.6 123.9 135.6 123.9 135.5 123.8 135.5 123.7 135.3 123 134.7 122.6 133.8 122.4L133.8 122.2C133.9 122.2 134.1 122.2 134.3 122.3 135.7 122.7 136.5 122.4 136.7 121.5 136.9 120.5 136.2 119.2 134.7 117.6 135.3 116.2 135.9 114.9 136.5 113.5L133.9 113.5C133.5 113.5 133.4 113.7 133.4 114.2L133.5 127.6C133 128.1 132.6 128.3 132.3 128.2L132.3 112.2ZM146.7 113.3C146.7 113.3 146.6 113.4 146.4 113.5 146.1 113.6 146 113.8 146 113.9 146 115.5 146 117.7 146.1 120.4 146.1 124 146.2 126.1 146.2 126.6 146.1 127.3 145.4 127.9 144.2 128.1L144.2 128C144.2 127.2 143.5 126.8 142 126.6L142 126.4C143 126.5 143.9 126.6 144.6 126.6 144.9 126.6 145.1 126.4 145 125.8L145 121.3 140.2 121.3C140.2 124.7 138.4 127.1 134.6 128.3L134.5 128.1C136.4 127.1 137.7 126 138.4 124.9 139 123.9 139.3 121.2 139.2 116.9 139.2 114.9 139.2 113.4 139.2 112.4 139.3 112.4 139.7 112.5 140.5 113L144.5 113C144.5 113 144.7 112.8 145 112.5L145.3 112.2C145.6 112.3 146.1 112.7 146.7 113.3ZM145 117.3 140.3 117.3 140.2 120.9 145 120.9 145 117.3ZM144.9 113.3 140.8 113.3C140.4 113.3 140.2 113.5 140.2 114.1L140.2 116.9 144.8 116.9 144.8 113.3Z"/></g><g><path d="M133.6 133.7C134 133.8 134.6 134.1 135.2 134.6 135.2 134.6 135.1 134.7 134.8 134.9L134.5 135 134.5 137.9 135.5 137.9 136.2 137 137.5 138.2 137.4 138.3 134.6 138.3 134.6 140.8C135.9 141.1 136.7 141.6 137 142.1 137 142.9 136.8 143.2 136.4 143.3 136.3 143.3 136.2 143.1 136 142.7 135.6 141.9 135.2 141.3 134.7 141 134.7 143.1 134.7 145.9 134.6 149.3 134.3 149.6 133.9 149.8 133.5 149.9 133.6 145.7 133.7 142.8 133.7 141 132.9 142.8 132 144.4 130.9 145.6L130.8 145.5C132.2 143.3 133.2 141 133.7 138.3L132 138.3 131 138.4 130.7 137.8 133.6 137.8 133.6 133.7ZM143.7 134.6C144.3 135 144.8 135.4 145.2 135.8 145.2 135.8 145.1 135.9 144.8 136 144.4 136.2 144.1 136.4 144.1 136.5 143.8 137.5 143.3 138.7 142.7 140.3L144.4 140.3C144.8 139.8 145.1 139.6 145.1 139.6 145.4 139.8 145.8 140.2 146.4 140.9 146.4 140.9 146.3 141 146 141 145.7 141.1 145.5 141.2 145.5 141.3 144.7 143.3 144 144.9 143.1 146.2 144.3 147.5 145.8 148.4 147.6 148.9L147.6 149C146.8 149 146.2 149.1 145.8 149.5 145.7 149.6 145.6 149.6 145.6 149.6 144.7 149 143.6 148.1 142.4 147.1 140.9 148.5 139 149.4 136.7 150L136.6 149.8C138.8 149 140.5 147.9 141.8 146.3 140.9 144.8 140.1 142.7 139.5 140.2 139.3 142.8 138.9 144.8 138.3 146.2 137.5 147.7 136.5 149 135.1 149.9L135 149.7C136.3 148.5 137.1 147.2 137.5 146 137.8 145.1 138.1 143.6 138.3 141.6 138.5 139.2 138.6 137.3 138.5 136L137.7 136 136.8 136.1 136.4 135.6 142.9 135.6 143.1 135.3C143.5 134.8 143.6 134.6 143.7 134.6ZM143.3 135.9 139.6 135.9C139.6 136.6 139.6 137.6 139.5 138.9 140.2 141.7 141.2 143.9 142.4 145.5 143.2 144.2 143.8 142.6 144.3 140.7L142.6 140.7C142.6 140.7 142.5 140.7 142.3 140.8 142.2 140.9 142.1 141 142 141 141.7 140.8 141.5 140.5 141.2 140.2 141.5 140.1 141.6 140 141.7 139.9 141.9 139.4 142.3 138.5 142.7 137.2 142.9 136.7 143.1 136.2 143.3 135.9Z"/></g><g><path d="M201 112.4C201.4 112.6 201.8 113.1 202.4 113.7 202.4 113.7 202.4 113.8 202.3 113.8 201.9 113.8 201.6 114.1 201.4 114.5 200.4 116.2 199.8 117.3 199.6 117.6L199.8 117.8C201.6 119.5 202.2 121.1 201.8 122.6 201.4 123.4 200.7 124 199.8 124.4L199.7 124.3C199.6 123.7 199.1 123.3 198.2 123L198.2 122.9C198.9 123.1 199.5 123.2 200 123 200.8 122.4 201.1 121.5 200.6 120.2 200.4 119.5 199.9 118.8 199.3 118L199.2 117.8C199.2 117.8 199.2 117.5 199.3 117.2 199.6 116.2 200 115.1 200.4 113.8L198.7 113.8C198.1 113.8 197.8 114 197.9 114.4L197.9 127.8C197.7 128.1 197.3 128.2 196.7 128.2 196.8 127.5 196.8 126 196.8 123.7 196.8 122.6 196.9 121.2 196.9 119.6 196.9 118.2 196.9 115.8 196.9 112.5L198.2 113.4 200.3 113.4C200.3 113.4 200.5 113.2 200.7 113 200.8 112.5 201 112.4 201 112.4ZM203 112.8 204.3 113.5 208.9 113.5C209 113.5 209.1 113.4 209.3 113.1 209.4 112.9 209.5 112.8 209.5 112.8 210.4 113.4 210.9 113.7 210.8 113.8 210.8 113.8 210.8 113.9 210.6 114 210.5 114.1 210.3 114.3 210.2 114.4 210.2 119.7 210.2 123.9 210.3 127 210 127.4 209.6 127.6 209.1 127.5L209.1 125.4 204 125.4 204 127.3C203.5 127.7 203.1 127.9 202.7 127.7 202.9 125.1 203 120.1 203 112.8ZM204.9 114C204.2 113.9 203.9 114.2 204 114.8L204 119.3 209.3 119.3 209.3 114 204.9 114ZM204 119.7 204 125 209.3 125 209.3 119.7 204 119.7Z"/></g><g><path d="M197.9 133.7C198.3 133.8 198.9 134.1 199.5 134.6 199.5 134.6 199.4 134.7 199.1 134.9L198.8 135 198.8 137.9 199.8 137.9 200.5 137 201.8 138.2 201.7 138.3 198.9 138.3 198.9 140.8C200.2 141.1 201 141.6 201.3 142.1 201.3 142.9 201.1 143.2 200.7 143.3 200.6 143.3 200.5 143.1 200.3 142.7 199.9 141.9 199.5 141.3 199 141 199 143.1 199 145.9 198.9 149.3 198.6 149.6 198.2 149.8 197.8 149.9 197.9 145.7 198 142.8 198 141 197.2 142.8 196.3 144.4 195.2 145.6L195.1 145.5C196.5 143.3 197.5 141 198 138.3L196.5 138.3 195.5 138.4 195.2 137.8 198.1 137.8 198.1 133.7ZM208 134.6C208.6 135 209.1 135.4 209.5 135.8 209.5 135.8 209.4 135.9 209.1 136 208.7 136.2 208.4 136.4 208.4 136.5 208.1 137.5 207.6 138.7 207 140.3L208.7 140.3C209.1 139.8 209.4 139.6 209.4 139.6 209.7 139.8 210.1 140.2 210.7 140.9 210.7 140.9 210.6 141 210.3 141 210 141.1 209.8 141.2 209.8 141.3 209 143.3 208.3 144.9 207.4 146.2 208.6 147.5 210.1 148.4 211.9 148.9L211.9 149C211.1 149 210.5 149.1 210.1 149.5 210 149.6 209.9 149.6 209.9 149.6 209 149 207.9 148.1 206.7 147.1 205.2 148.5 203.3 149.4 201 150L200.9 149.8C203.1 149 204.8 147.9 206.1 146.3 205.2 144.8 204.4 142.7 203.8 140.2 203.6 142.8 203.2 144.8 202.6 146.2 201.8 147.7 200.8 149 199.4 149.9L199.3 149.7C200.6 148.5 201.4 147.2 201.8 146 202.1 145.1 202.4 143.6 202.6 141.6 202.8 139.2 202.9 137.3 202.8 136L202 136 201.1 136.1 200.7 135.6 207.2 135.6 207.4 135.3C207.8 134.8 207.9 134.6 208 134.6ZM207.5 135.9 203.8 135.9C203.8 136.6 203.8 137.6 203.7 138.9 204.4 141.7 205.4 143.9 206.6 145.5 207.4 144.2 208 142.6 208.5 140.7L206.8 140.7C206.8 140.7 206.7 140.7 206.5 140.8 206.4 140.9 206.3 141 206.2 141 205.9 140.8 205.7 140.5 205.4 140.2 205.7 140.1 205.8 140 205.9 139.9 206.1 139.4 206.5 138.5 206.9 137.2 207.2 136.7 207.4 136.2 207.5 135.9Z"/></g><g><path d="M232.9 112.2C232.9 112.2 233.2 112.3 233.7 112.6 233.9 112.7 234.1 112.8 234.1 112.8L236.9 112.8C236.9 112.8 237 112.7 237.1 112.5 237.2 112.3 237.3 112.2 237.4 112.2 238 112.5 238.4 112.8 238.8 113.3 238.8 113.3 238.8 113.4 238.7 113.4 238.3 113.5 237.9 113.8 237.6 114.3 237.1 115 236.5 116 235.7 117.3 237.5 118.7 238.4 119.9 238.4 121.2 238.5 122.5 237.8 123.4 236.2 123.9 236.2 123.9 236.1 123.8 236.1 123.7 235.9 123 235.3 122.6 234.4 122.4L234.4 122.2C234.5 122.2 234.7 122.2 234.9 122.3 236.3 122.7 237.1 122.4 237.3 121.5 237.5 120.5 236.8 119.2 235.3 117.6 235.9 116.2 236.5 114.9 237.1 113.5L234.5 113.5C234.1 113.5 234 113.7 234 114.2L234.1 127.6C233.6 128.1 233.2 128.3 232.9 128.2L232.9 112.2ZM247.3 113.3C247.3 113.3 247.2 113.4 247 113.5 246.7 113.6 246.6 113.8 246.6 113.9 246.6 115.5 246.6 117.7 246.7 120.4 246.7 124 246.8 126.1 246.8 126.6 246.7 127.3 246 127.9 244.8 128.1L244.8 128C244.8 127.2 244.1 126.8 242.6 126.6L242.6 126.4C243.6 126.5 244.5 126.6 245.2 126.6 245.5 126.6 245.7 126.4 245.6 125.8L245.6 121.3 240.8 121.3C240.8 124.7 239 127.1 235.2 128.3L235.1 128.1C237 127.1 238.3 126 239 124.9 239.6 123.9 239.9 121.2 239.8 116.9 239.8 114.9 239.8 113.4 239.8 112.4 239.9 112.4 240.3 112.5 241.1 113L245.1 113C245.1 113 245.3 112.8 245.6 112.5L245.9 112.2C246.3 112.3 246.7 112.7 247.3 113.3ZM245.7 117.3 241 117.3 240.9 120.9 245.7 120.9 245.7 117.3ZM245.6 113.3 241.5 113.3C241.1 113.3 240.9 113.5 240.9 114.1L240.9 116.9 245.5 116.9 245.5 113.3Z"/></g><g><path d="M234.3 133.7C234.7 133.8 235.3 134.1 235.9 134.6 235.9 134.6 235.8 134.7 235.5 134.9L235.2 135 235.2 137.9 236.2 137.9 236.9 137 238.2 138.2 238.1 138.3 235.3 138.3 235.3 140.8C236.6 141.1 237.4 141.6 237.7 142.1 237.7 142.9 237.5 143.2 237.1 143.3 237 143.3 236.9 143.1 236.7 142.7 236.3 141.9 235.9 141.3 235.4 141 235.4 143.1 235.4 145.9 235.3 149.3 235 149.6 234.6 149.8 234.2 149.9 234.3 145.7 234.4 142.8 234.4 141 233.6 142.8 232.7 144.4 231.6 145.6L231.5 145.5C232.9 143.3 233.9 141 234.4 138.3L232.9 138.3 231.9 138.4 231.6 137.8 234.5 137.8 234.5 133.7ZM244.3 134.6C244.9 135 245.4 135.4 245.8 135.8 245.8 135.8 245.7 135.9 245.4 136 245 136.2 244.7 136.4 244.7 136.5 244.4 137.5 243.9 138.7 243.3 140.3L245 140.3C245.4 139.8 245.7 139.6 245.7 139.6 246 139.8 246.4 140.2 247 140.9 247 140.9 246.9 141 246.6 141 246.3 141.1 246.1 141.2 246.1 141.3 245.3 143.3 244.6 144.9 243.7 146.2 244.9 147.5 246.4 148.4 248.2 148.9L248.2 149C247.4 149 246.8 149.1 246.4 149.5 246.3 149.6 246.2 149.6 246.2 149.6 245.3 149 244.2 148.1 243 147.1 241.5 148.5 239.6 149.4 237.3 150L237.2 149.8C239.4 149 241.1 147.9 242.4 146.3 241.5 144.8 240.7 142.7 240.1 140.2 239.9 142.8 239.5 144.8 238.9 146.2 238.1 147.7 237.1 149 235.7 149.9L235.6 149.7C236.9 148.5 237.7 147.2 238.1 146 238.4 145.1 238.7 143.6 238.9 141.6 239.1 139.2 239.2 137.3 239.1 136L238.3 136 237.4 136.1 237 135.6 243.5 135.6 243.7 135.3C244.1 134.8 244.3 134.6 244.3 134.6ZM243.9 135.9 240.2 135.9C240.2 136.6 240.2 137.6 240.1 138.9 240.8 141.7 241.8 143.9 243 145.5 243.8 144.2 244.4 142.6 244.9 140.7L243.2 140.7C243.2 140.7 243.1 140.7 242.9 140.8 242.8 140.9 242.7 141 242.6 141 242.3 140.8 242.1 140.5 241.8 140.2 242.1 140.1 242.2 140 242.3 139.9 242.5 139.4 242.9 138.5 243.3 137.2 243.6 136.7 243.8 136.2 243.9 135.9Z"/></g><g><path d="M364.8 164.1C366 164.2 366.6 164.2 366.6 164.3 366.6 164.4 366.6 164.4 366.5 164.6 366.2 165 366 165.3 365.9 165.6 365.9 165.8 365.8 166.1 365.7 166.8 365.6 167.7 365.4 168.4 365.3 168.9L367 168.4C367 168.4 367.2 168.2 367.4 167.8 367.5 167.5 367.6 167.3 367.7 167.3 368 167.4 368.5 167.5 369.1 167.9 369.1 167.9 369 168 368.9 168.1 368.7 168.4 368.5 168.6 368.5 168.7 368.2 171.8 367.6 174.3 366.7 176.4 367.9 176.9 368.6 177.3 368.7 177.8 368.7 178.5 368.5 179 368 179.2 368 179.2 367.9 179.1 367.7 178.8 367.2 178.2 366.7 177.7 366.2 177.3 364.7 179.4 363.1 181.1 361.5 182.3L361.4 182.2C363.3 180.3 364.7 178.6 365.5 177 364.7 176.6 363.9 176.3 363 176.1 363.6 173.8 364 171.6 364.3 169.6L362.7 170 362.1 170.3 361.8 169.8 364.4 169.1C364.5 167.3 364.6 165.6 364.8 164.1ZM367.3 168.8 365.2 169.4C365.1 170.5 364.7 172.6 364 175.8 364.3 175.9 364.8 176 365.5 176.2 365.7 176.2 365.8 176.2 365.9 176.2 366.6 174.3 367.1 171.8 367.3 168.8ZM372.7 161.8C373 161.9 373.3 162.1 373.6 162.2 374.2 162.4 374.5 162.5 374.3 162.6 374.3 162.7 374.2 162.7 374.1 162.8 373.7 163 373.4 163.3 373.1 163.9 372.1 165.7 371.1 167.5 370 169.2L376.4 167.2C376 166.4 375.3 165.6 374.5 164.9L374.6 164.6C376 165.3 377.1 166 377.9 166.8 378.3 167.6 378.1 168.4 377.4 169 377.2 169 377.1 168.8 377 168.5 376.9 168.1 376.8 167.8 376.7 167.6 373.3 168.9 371 169.8 369.6 170.5L369.5 170.5C369.1 170.3 368.9 169.9 368.9 169.4L369 169.4C369.5 169.2 369.9 168.7 370.4 167.9 371.3 166 372.1 163.9 372.7 161.8ZM369.9 171.7 371.1 172.2 375.2 171.1C375.3 171.1 375.4 170.9 375.6 170.6 375.7 170.4 375.8 170.3 375.8 170.2 376.6 170.4 377 170.7 377.2 170.9L377 171C376.7 171.3 376.5 171.5 376.5 171.6 376.5 172.6 376.5 174.6 376.6 177.7L376.5 177.8C376.1 178.2 375.7 178.5 375.4 178.6L375.4 176.6 371 177.8 371 179.3C370.7 179.7 370.3 180 369.8 180.1L369.9 171.7ZM371.4 172.5C371.2 172.5 371 172.7 371 173L371 177.5 375.4 176.3 375.4 171.5 371.4 172.5Z"/><path d="M382.6 159.4C383 159.4 383.6 159.6 384.2 159.9 384.2 159.9 384.1 160.1 383.8 160.3L383.5 160.5 383.5 163.5 384.5 163.2 385.2 162.1 386.5 163 386.4 163.2 383.5 164 383.5 166.6C384.8 166.6 385.6 166.8 385.9 167.3 385.9 168.1 385.7 168.5 385.3 168.7 385.2 168.7 385.1 168.6 384.9 168.2 384.5 167.5 384.1 167 383.5 166.8 383.5 169 383.5 171.9 383.4 175.4 383.1 175.8 382.7 176.1 382.3 176.3 382.4 171.9 382.5 168.8 382.5 167 381.7 169.1 380.8 171 379.6 172.5L379.5 172.4C380.9 169.8 381.9 167 382.4 164.1L380.9 164.5 379.9 164.9 379.6 164.4 382.5 163.6 382.6 159.4ZM392.8 157.6C393.4 157.9 393.9 158.1 394.3 158.4 394.3 158.4 394.2 158.6 393.9 158.7 393.5 159 393.2 159.2 393.2 159.4 392.9 160.5 392.4 162 391.8 163.7L393.5 163.2C393.9 162.6 394.2 162.3 394.2 162.3 394.5 162.4 395 162.7 395.5 163.3 395.5 163.3 395.4 163.4 395.1 163.6 394.8 163.8 394.6 163.9 394.6 164 393.8 166.3 393 168.2 392.2 169.7 393.4 170.7 395 171.2 396.8 171.2L396.8 171.3C396 171.5 395.4 171.8 394.9 172.3 394.8 172.4 394.7 172.5 394.7 172.5 393.7 172.1 392.7 171.5 391.5 170.7 389.9 172.5 388 174.1 385.7 175.3L385.6 175.1C387.8 173.7 389.6 172 390.9 170 389.9 168.7 389.2 166.7 388.5 164.3 388.3 167.1 387.9 169.3 387.3 170.8 386.5 172.6 385.5 174.2 384.1 175.6L384 175.4C385.3 173.8 386.1 172.3 386.6 170.8 386.9 169.7 387.2 168.2 387.4 166.1 387.6 163.6 387.7 161.6 387.6 160.2L386.8 160.4 385.9 160.8 385.5 160.4 392.1 158.6 392.3 158.3C392.6 157.9 392.7 157.6 392.8 157.6ZM392.3 159 388.6 160C388.6 160.7 388.6 161.8 388.5 163.2 389.3 165.9 390.2 167.9 391.4 169.3 392.2 167.7 392.8 165.9 393.3 163.8L391.6 164.3C391.6 164.3 391.5 164.4 391.3 164.5 391.2 164.6 391.1 164.7 391 164.8 390.7 164.6 390.5 164.4 390.2 164.1 390.5 163.9 390.7 163.8 390.7 163.7 390.9 163.1 391.3 162.1 391.7 160.6 392 160 392.2 159.5 392.3 159Z"/><path d="M399.6 169.5 399.6 157.9 398.2 158.3 398.2 157.9 401.7 156.9 406.9 164.5 407 164.5 407 155.9 405.6 156.3 405.6 155.9 409 155 409 155.4 407.6 155.8 407.6 168 407.2 168.1 400.3 158.1 400.2 158.1 400.2 169.4 401.6 169 401.6 169.4 398.2 170.3 398.2 169.9 399.6 169.5Z"/><path d="M413.9 166 410.2 167 410.2 166.6 411.4 166.3 411.4 159.8 410.2 160.1 410.2 159.7 410.8 159.5C411.5 159.3 412.2 159 412.9 158.7L412.9 165.9 414 165.6 414 166ZM411.3 155.3C411.3 155.1 411.4 154.9 411.5 154.7 411.7 154.5 411.9 154.3 412.1 154.2 412.4 154.1 412.6 154.2 412.8 154.4 412.9 154.5 413 154.6 413 154.8 413 155.1 412.9 155.4 412.8 155.6 412.6 155.8 412.4 156 412.1 156.1 411.9 156.2 411.7 156.1 411.5 156.1 411.3 155.9 411.3 155.6 411.3 155.3Z"/><path d="M425 147.7C426.3 147.9 426.9 148 426.9 148.1L426.5 148.5C426.2 148.7 426.1 148.9 426.1 148.9L426.1 153 429 152.2 430 150.8 431.5 151.9 431.4 152.1 420.1 155.2 420 158.4 425.3 157C425.3 157 425.5 156.8 425.7 156.5L426.1 156C426.4 156.1 426.9 156.3 427.5 156.8L427.3 157C426.9 157.4 426.8 157.7 426.8 157.6L426.9 163.9C426.6 164.4 426.1 164.7 425.6 164.9L425.7 157.5 420 159C419.8 162.1 418.4 164.7 415.7 167L415.6 166.8C417.3 165 418.3 163.1 418.6 161.2 418.8 160.2 419 158.9 419 157.3 419 155.8 419 153.5 418.9 150.4 420.2 150.6 420.9 150.8 420.9 150.9 420.9 150.9 420.8 151.1 420.5 151.5 420.3 151.7 420.1 151.8 420.1 151.9 420.1 152.5 420.1 153.5 420.1 154.8L425 153.5 425 147.7Z"/></g></svg>