<svg viewBox="0 0 368 242" xmlns="http://www.w3.org/2000/svg" xmlns:xlink="http://www.w3.org/1999/xlink" id="_图层_1" overflow="hidden"><defs></defs><g><ellipse cx="184" cy="121" rx="183.5" ry="120.5" fill="#FFFFFF"/><path d="M184 1C284.91 1 367 54.83 367 121 367 187.17 284.91 241 184 241 83.09 241 1 187.17 1 121 1 54.83 83.09 1 184 1M184 0C82.38 0 0 54.17 0 121 0 187.83 82.38 242 184 242 285.62 242 368 187.83 368 121 368 54.17 285.62 0 184 0L184 0Z"/></g><g><ellipse cx="184.5" cy="121" rx="112" ry="74.5" fill="#FFFFFF"/><path d="M184.5 47C245.98 47 296 80.2 296 121 296 161.8 245.98 195 184.5 195 123.02 195 73 161.8 73 121 73 80.2 123.02 47 184.5 47M184.5 46C122.37 46 72 79.58 72 121 72 162.42 122.37 196 184.5 196 246.63 196 297 162.42 297 121 297 79.58 246.63 46 184.5 46L184.5 46Z"/></g><g><ellipse cx="184.84" cy="121.39" rx="47.66" ry="41.11" fill="#FFFFFF"/><path d="M184.84 80.79C210.85 80.79 232 99.01 232 121.4 232 143.79 210.84 162.01 184.84 162.01 158.84 162.01 137.68 143.79 137.68 121.4 137.68 99.01 158.84 80.79 184.84 80.79M184.84 79.79C158.24 79.79 136.68 98.42 136.68 121.4 136.68 144.38 158.24 163.01 184.84 163.01 211.44 163.01 233 144.38 233 121.4 233 98.42 211.44 79.79 184.84 79.79L184.84 79.79Z"/></g><text font-family="AdobeSongStd-Light-GBpc-EUC-H,Adobe Song Std" font-weight="300" font-size="17" transform="translate(169.27 128.55)"><tspan x="0" y="0">晶种</tspan></text><text font-family="AdobeSongStd-Light-GBpc-EUC-H,Adobe Song Std" font-weight="300" font-size="17" transform="translate(166.01 184.32)"><tspan x="0" y="0">一分</tspan></text><text font-family="AdobeSongStd-Light-GBpc-EUC-H,Adobe Song Std" font-weight="300" font-size="17" transform="translate(169.01 224.32)"><tspan x="0" y="0">二分</tspan></text></svg>