<?xml version="1.0" encoding="UTF-8"?>
<svg id="_图层_1" data-name="图层 1" xmlns="http://www.w3.org/2000/svg" xmlns:xlink="http://www.w3.org/1999/xlink" viewBox="0 0 299.22 227.92">
  <defs>
    <clipPath id="clippath">
      <rect y=".05" width="299.13" height="227.87" fill="none"/>
    </clipPath>
    <clipPath id="clippath-1">
      <rect y=".05" width="299.13" height="227.87" fill="none"/>
    </clipPath>
  </defs>
  <g id="g6930">
    <g id="g6932">
      <g clip-path="url(#clippath)" fill="none">
        <g id="g6934">
          <g id="g6940">
            <g clip-path="url(#clippath-1)" fill="none">
              <g id="g6942">
                <path id="path6948" d="m0,121.24h286.71" fill="none" stroke="#231f20" stroke-miterlimit="10" stroke-width=".5"/>
                <path id="path6950" d="m283.96,121.24l-3.36-5.52.19-.12,9.02,3.57c3.14.69,6.28,1.38,9.42,2.07-3.14.69-6.28,1.38-9.42,2.07l-9.02,3.57-.19-.09,3.36-5.55Z" fill="#231f20"/>
                <path id="path6952" d="m103.58,227.92V12.48" fill="none" stroke="#231f20" stroke-miterlimit="10" stroke-width=".5"/>
                <path id="path6954" d="m103.58,15.23l-5.53,3.36-.13-.19,3.58-9c.69-3.14,1.38-6.27,2.07-9.4.69,3.13,1.38,6.27,2.07,9.4l3.58,9-.09.19-5.56-3.36Z" fill="#231f20"/>
                <path id="path6956" d="m187.71,121.24c0,31.65-37.67,57.3-84.14,57.3s-84.14-25.65-84.14-57.3,37.67-57.3,84.14-57.3,84.14,25.65,84.14,57.3Z" fill="none" stroke="#231f20" stroke-miterlimit="10" stroke-width=".5"/>
                <path id="path6958" d="m103.58,63.94l155.49,57.3-155.49,82.7,43.21-82.7" fill="none" stroke="#231f20" stroke-linecap="round" stroke-linejoin="round" stroke-width=".5"/>
                <path id="path6960" d="m103.58,63.94l68.18,90.87" fill="none" stroke="#231f20" stroke-miterlimit="10" stroke-width=".5"/>
                <path id="path6962" d="m150.42,144.76l.17-.44h5.8c.97,0,1.84.15,2.61.46.76.3,1.33.72,1.71,1.27.38.54.57,1.11.57,1.72,0,.93-.34,1.78-1.01,2.53-.68.75-1.78,1.31-3.31,1.67.99.37,1.71.85,2.17,1.46.46.6.69,1.27.69,2,0,.81-.21,1.57-.62,2.31-.42.74-.95,1.3-1.6,1.71-.65.4-1.43.7-2.35.9-.66.13-1.68.2-3.07.2h-5.96l.15-.44c.62-.02,1.05-.08,1.27-.18.32-.14.55-.32.68-.54.19-.3.45-1,.77-2.08l2.91-9.82c.25-.83.37-1.41.37-1.75,0-.29-.11-.53-.33-.7-.22-.17-.64-.25-1.25-.25-.14,0-.26,0-.38-.01Zm.07,14.73c.86.11,1.54.17,2.03.17,1.25,0,2.35-.38,3.31-1.12.96-.75,1.45-1.77,1.45-3.05,0-.98-.3-1.75-.89-2.3-.6-.55-1.56-.83-2.88-.83-.25,0-.57.01-.94.04l-2.07,7.09Zm2.36-7.99c.52.02.9.02,1.13.02,1.66,0,2.9-.36,3.71-1.08.81-.72,1.22-1.63,1.22-2.71,0-.82-.25-1.46-.74-1.92-.49-.46-1.29-.69-2.37-.69-.29,0-.66.05-1.1.14l-1.83,6.23Z" fill="#0e0f0f"/>
                <path id="path6964" d="m90.56,124.18c1.18,0,2.23.26,3.14.77s1.62,1.27,2.14,2.27.78,2.04.78,3.11c0,1.91-.56,3.91-1.66,6-1.11,2.09-2.56,3.69-4.35,4.8-1.79,1.1-3.64,1.65-5.55,1.65-1.37,0-2.53-.3-3.45-.91-.92-.61-1.61-1.41-2.05-2.4-.44-1-.66-1.96-.66-2.9,0-1.66.4-3.3,1.2-4.92.8-1.62,1.76-2.98,2.87-4.07,1.11-1.09,2.3-1.93,3.56-2.51,1.26-.59,2.6-.88,4.02-.88Zm-.44.84c-.88,0-1.73.22-2.57.65-.84.43-1.67,1.14-2.49,2.13-.83.98-1.57,2.27-2.22,3.86-.81,1.96-1.21,3.81-1.21,5.55,0,1.24.32,2.34.96,3.3.64.96,1.62,1.44,2.95,1.44.79,0,1.58-.2,2.34-.59.77-.39,1.57-1.07,2.4-2.02,1.04-1.2,1.92-2.73,2.63-4.59.71-1.86,1.06-3.59,1.06-5.2,0-1.19-.32-2.24-.96-3.15-.64-.91-1.6-1.37-2.89-1.37Z" fill="#0e0f0f"/>
                <path id="path6966" d="m89.12,3.39c.27.46.46.89.56,1.3.1.4.21,1.19.31,2.37l.53,5.89c.48-.58,1.18-1.48,2.09-2.73.44-.6.98-1.43,1.63-2.47.39-.64.63-1.08.72-1.34.05-.13.07-.26.07-.4,0-.09-.03-.16-.09-.21-.06-.06-.2-.12-.44-.2s-.43-.22-.59-.42c-.16-.2-.24-.44-.24-.7,0-.33.1-.59.29-.79.19-.2.43-.3.72-.3.35,0,.65.14.9.44.25.29.37.69.37,1.2,0,.63-.21,1.35-.64,2.16-.43.81-1.26,2.05-2.5,3.73-1.23,1.68-2.72,3.5-4.47,5.48-1.21,1.36-2.1,2.22-2.69,2.58-.58.36-1.08.53-1.5.53-.25,0-.47-.09-.65-.28-.19-.19-.28-.41-.28-.65,0-.31.13-.59.39-.85.26-.26.54-.38.84-.38.16,0,.29.03.4.11.06.04.14.15.21.34.07.19.14.31.21.38.04.04.09.06.14.06.05,0,.13-.04.25-.12.44-.27.95-.7,1.53-1.29.77-.78,1.33-1.42,1.7-1.91l-.67-7.59c-.11-1.25-.28-2.02-.5-2.28-.22-.27-.6-.41-1.13-.41-.17,0-.47.02-.9.07l-.11-.44,3.51-.86Z" fill="#0e0f0f"/>
                <path id="path6968" d="m287.58,131.55c.39.41.69.83.89,1.24.14.29.38,1.04.71,2.26l1.05-1.58c.28-.38.62-.75,1.02-1.09.4-.35.75-.58,1.06-.71.19-.08.41-.12.64-.12.34,0,.62.09.82.28.2.18.3.41.3.67,0,.3-.06.51-.18.62-.23.2-.48.3-.77.3-.17,0-.35-.04-.54-.11-.37-.13-.63-.19-.75-.19-.19,0-.42.11-.68.33-.49.41-1.09,1.22-1.77,2.4l.98,4.12c.15.63.28,1.01.38,1.13.11.13.21.19.31.19.17,0,.36-.09.59-.28.44-.37.82-.85,1.13-1.44l.42.22c-.5.94-1.14,1.72-1.92,2.34-.44.35-.81.53-1.11.53-.45,0-.8-.25-1.07-.75-.17-.31-.52-1.65-1.04-4.02-1.25,2.16-2.24,3.55-3,4.17-.49.4-.96.6-1.41.6-.32,0-.61-.12-.87-.35-.19-.17-.29-.41-.29-.71,0-.26.09-.48.26-.66.18-.18.39-.26.65-.26s.53.13.82.38c.21.18.37.27.48.27.1,0,.22-.06.37-.19.37-.3.89-.96,1.53-1.96.65-1,1.07-1.73,1.27-2.18-.49-1.94-.76-2.96-.8-3.08-.18-.52-.42-.89-.72-1.1s-.73-.32-1.31-.32c-.18,0-.4,0-.64.02v-.43l3.2-.56Z" fill="#0e0f0f"/>
                <path id="path6970" d="m85.42,40.57h6.4c1.68,0,2.93.36,3.77,1.08.83.72,1.25,1.6,1.25,2.64,0,.82-.26,1.62-.79,2.39-.53.77-1.31,1.4-2.35,1.88s-2.16.72-3.37.72c-.75,0-1.71-.13-2.87-.41l-1.3,4.43c-.3,1.05-.45,1.75-.45,2.08,0,.26.11.47.32.63.22.17.73.28,1.55.32l-.12.44h-6.46l.13-.44c.85,0,1.43-.14,1.77-.44.33-.29.69-1.09,1.07-2.41l2.69-9.23c.32-1.11.48-1.85.48-2.23,0-.28-.11-.51-.34-.7-.23-.18-.73-.29-1.5-.33l.13-.44Zm2.24,7.56c.9.23,1.63.35,2.18.35.87,0,1.66-.18,2.38-.54.72-.36,1.27-.9,1.68-1.62.41-.72.6-1.46.6-2.24s-.25-1.44-.74-1.91c-.49-.47-1.25-.7-2.26-.7-.54,0-1.2.07-1.98.2l-1.87,6.46Z" fill="#0e0f0f"/>
                <path id="path6972" d="m154.04,99.88l5.02,12.72,2.72-9.5c.22-.78.33-1.39.33-1.82,0-.29-.1-.53-.31-.69-.21-.17-.6-.25-1.16-.25-.1,0-.2,0-.3-.01l.13-.44h5.23l-.14.44c-.54,0-.95.05-1.21.17-.37.17-.66.38-.84.64-.25.38-.52,1.03-.78,1.96l-3.82,13.38h-.43l-5.41-13.68-2.89,10.11c-.22.77-.33,1.35-.33,1.76,0,.3.1.53.29.69.19.16.66.26,1.4.32l-.12.44h-5.11l.17-.44c.64-.02,1.07-.07,1.28-.17.33-.14.57-.33.73-.56.23-.35.49-1.03.78-2.03l3.22-11.28c-.31-.48-.64-.81-1-.99-.36-.18-.91-.28-1.66-.3l.13-.44h4.06Z" fill="#0e0f0f"/>
                <path id="path6974" d="m255.03,95.46l1.5,13.06,9.44-13.06h3.97v.44c-.87.06-1.37.11-1.53.17-.26.1-.51.31-.72.62-.22.31-.46.91-.71,1.79l-3.01,10.29c-.17.6-.26,1.07-.26,1.41,0,.31.11.55.33.7.3.23.78.35,1.44.35h.29l-.11.44h-6.84l.12-.44h.32c.61,0,1.07-.09,1.39-.26.25-.13.47-.37.67-.72.2-.36.47-1.14.82-2.36l2.69-9.4-9.48,13.19h-.48l-1.52-13.19-2.9,10.04c-.25.85-.37,1.43-.37,1.72s.11.52.32.67c.22.16.74.26,1.57.32l-.13.44h-5.36l.13-.44h.33c.79,0,1.36-.2,1.71-.6.25-.28.52-.91.8-1.87l3.54-12.1c-.26-.27-.52-.45-.75-.55-.24-.09-.68-.17-1.33-.23l.12-.44h4.04Z" fill="#0e0f0f"/>
                <path id="path6976" d="m187.08,65.04l-1.24,13.49c-.06.63-.1,1.04-.1,1.24,0,.32.06.56.18.73.15.23.36.4.62.51.26.11.7.17,1.31.17l-.13.44h-6.4l.13-.44h.28c.52,0,.95-.11,1.27-.33.23-.15.41-.4.54-.75.09-.25.17-.83.25-1.75l.19-2.06h-4.65l-1.65,2.24c-.37.5-.61.86-.71,1.08-.1.22-.14.42-.14.62,0,.25.1.47.31.66.21.18.55.28,1.03.3l-.13.44h-4.81l.13-.44c.59-.02,1.11-.22,1.57-.59.45-.37,1.12-1.16,2.02-2.37l9.71-13.19h.42Zm-2.38,3.98l-4.71,6.4h4.09l.62-6.4Z" fill="#0e0f0f"/>
                <path id="path6978" d="m82.62,214.25l-3.39,2.74c.54-.1,1.03-.14,1.49-.14s.84.02,1.22.08c.37.06,1.17.22,2.39.49,1.22.28,2.29.41,3.2.41.97,0,1.8-.17,2.48-.51.68-.34,1.34-.9,1.98-1.68l.44.21c-.91,1.3-1.97,2.23-3.19,2.8s-2.53.86-3.9.86c-.76,0-1.8-.15-3.13-.45-2.02-.44-3.44-.67-4.24-.67-.31,0-.56.02-.75.07-.19.04-.48.15-.87.31l-.3-.36,5.39-4.25c-1.67-.23-2.93-.96-3.79-2.19-.86-1.23-1.29-2.55-1.29-3.95,0-1.91.58-3.9,1.74-5.94,1.16-2.05,2.65-3.63,4.46-4.76,1.81-1.12,3.58-1.68,5.33-1.68,1.3,0,2.4.26,3.32.79.92.52,1.62,1.29,2.12,2.29s.75,2.03.75,3.08c0,2.01-.57,4.05-1.72,6.11-1.15,2.06-2.57,3.63-4.28,4.69-1.71,1.06-3.52,1.61-5.44,1.65Zm4.93-17.76c-.88,0-1.73.22-2.57.65-.84.43-1.67,1.14-2.49,2.13-.83.98-1.57,2.27-2.22,3.86-.8,1.96-1.2,3.81-1.2,5.55,0,1.24.32,2.34.96,3.3.64.96,1.62,1.44,2.94,1.44.79,0,1.57-.2,2.34-.59.77-.4,1.57-1.06,2.39-2.01,1.05-1.21,1.93-2.74,2.65-4.61.71-1.86,1.06-3.6,1.06-5.19,0-1.18-.32-2.23-.96-3.15-.64-.92-1.61-1.38-2.91-1.38Z" fill="#0e0f0f"/>
              </g>
            </g>
          </g>
        </g>
      </g>
    </g>
  </g>
</svg>