<?xml version="1.0" encoding="UTF-8"?>
<!DOCTYPE svg PUBLIC "-//W3C//DTD SVG 1.0//EN" "http://www.w3.org/TR/2001/REC-SVG-20010904/DTD/svg10.dtd">
<!-- Creator: CorelDRAW -->
<svg xmlns="http://www.w3.org/2000/svg" xml:space="preserve" width="168.926mm" height="125.307mm" version="1.0" shape-rendering="geometricPrecision" text-rendering="geometricPrecision" image-rendering="optimizeQuality" fill-rule="evenodd" clip-rule="evenodd"
viewBox="0 0 16892.64 12530.72"
 xmlns:xlink="http://www.w3.org/1999/xlink"
 xmlns:xodm="http://www.corel.com/coreldraw/odm/2003">
 <defs>
   <clipPath id="id0" clip-rule="nonzero">
    <path d="M-5.6 12531.01l16892.64 0 0 -12530.73 -16892.64 0 0 12530.73z"/>
   </clipPath>
 </defs>
 <g id="圖層_x0020_1">
  <metadata id="CorelCorpID_0Corel-Layer"/>
  <g>
  </g>
  <g clip-path="url(#id0)">
   <g id="_1966519088032">
    <line id="path8092" fill="none" fill-rule="nonzero" stroke="#231F20" stroke-width="17.64" stroke-miterlimit="22.9256" x1="-5.6" y1="7088.06" x2="16356.79" y2= "7088.06" />
    <polygon id="path8094" fill="#231F20" fill-rule="nonzero" points="16239.9,7088.06 16097.12,6853.29 16105.21,6848.08 16487.85,6999.98 16887.04,7087.87 16887.04,7088.24 16487.85,7176.14 16105.21,7328.04 16097.12,7324.01 "/>
    <line id="path8096" fill="none" fill-rule="nonzero" stroke="#231F20" stroke-width="17.64" stroke-miterlimit="22.9256" x1="7833.1" y1="12169.16" x2="7833.1" y2= "540.39" />
    <polygon id="path8098" fill="#231F20" fill-rule="nonzero" points="7833.1,657.24 7598.44,800.02 7593.08,791.93 7745.13,409.29 7833.02,9.33 7833.1,9.33 7921.14,409.29 8073.18,791.93 8069.16,800.02 "/>
    <line id="path8100" fill="none" fill-rule="nonzero" stroke="#231F20" stroke-width="17.64" stroke-miterlimit="22.9256" x1="3685.76" y1="2832.07" x2="11719.96" y2= "11039.96" />
    <line id="path8102" fill="none" fill-rule="nonzero" stroke="#231F20" stroke-width="17.64" stroke-miterlimit="22.9256" x1="2243.49" y1="11919.4" x2="13903.91" y2= "1838.66" />
    <polyline id="path8104" fill="none" fill-rule="nonzero" stroke="#231F20" stroke-width="17.64" stroke-miterlimit="22.9256" points="5715.7,4905.81 7833.1,3060.08 9992.15,5220.46 "/>
    <path id="path8106" fill="none" fill-rule="nonzero" stroke="#231F20" stroke-width="17.64" stroke-miterlimit="22.9256" d="M1698.91 2734.35c0,0 4744.55,2377.68 4744.55,4027.98 0,1650.22 -3191.94,4006.26 -3191.94,4006.26"/>
    <path id="path8108" fill="none" fill-rule="nonzero" stroke="#231F20" stroke-width="17.64" stroke-miterlimit="22.9256" d="M14034.35 2918.86c0,0 -4744.55,2377.79 -4744.55,4027.98 0,1650.29 3191.97,4006.22 3191.97,4006.22"/>
    <line id="path8110" fill="none" fill-rule="nonzero" stroke="#231F20" stroke-width="17.64" stroke-miterlimit="22.9256" x1="6443.46" y1="12521.96" x2="13903.91" y2= "1398.96" />
    <line id="path8112" fill="none" fill-rule="nonzero" stroke="#231F20" stroke-width="17.64" stroke-miterlimit="22.9256" x1="9178.78" y1="8443.79" x2="9178.78" y2= "8313.5" />
    <line id="path8114" fill="none" fill-rule="nonzero" stroke="#231F20" stroke-width="17.64" stroke-miterlimit="22.9256" stroke-dasharray="59.300000 59.300000" x1="9178.78" y1="8094.5" x2="9178.78" y2= "7327.93" />
    <line id="path8116" fill="none" fill-rule="nonzero" stroke="#231F20" stroke-width="17.64" stroke-miterlimit="22.9256" x1="9178.78" y1="7218.35" x2="9178.78" y2= "7088.06" />
    <line id="path8118" fill="none" fill-rule="nonzero" stroke="#231F20" stroke-width="17.64" stroke-miterlimit="22.9256" stroke-dasharray="70.550000" x1="13201.96" y1="2445.51" x2="13201.96" y2= "7088.06" />
    <path id="path8120" fill="#0E0F0F" fill-rule="nonzero" d="M10336.61 4154.6l-52.52 574.02c-2.62,26.85 -4.03,44.54 -4.03,53.03 0,13.55 2.63,23.86 7.69,31.02 6.5,9.79 15.1,17.21 26.18,21.9 11.08,4.69 29.58,7.17 55.77,7.17l-5.62 18.76 -271.74 -0.04 5.62 -18.76 11.7 0c22.02,0 40,-4.69 53.92,-14.33 9.79,-6.5 17.47,-17.06 22.79,-32.06 3.77,-10.41 7.31,-35.3 10.67,-74.26l8.2 -87.57 -197.47 0.04 -70.2 95.1c-15.88,21.49 -25.93,36.74 -29.95,46.12 -4.03,9.38 -6.13,18.1 -6.13,26.19 0,10.93 4.43,20.2 13.14,27.99 8.87,7.68 23.45,12.12 43.77,12.78l-5.58 18.76 -204.04 0 5.61 -18.76c25,-1.03 47.16,-9.53 66.44,-25.26 19.17,-15.77 47.68,-49.38 85.71,-100.97l412.23 -560.87 17.84 0zm-100.83 169.48l-199.98 272.29 173.54 0 26.44 -272.29z"/>
    <path id="path8122" fill="#0E0F0F" fill-rule="nonzero" d="M8101.33 2247.64l7.01 -18.91 246.41 0c41.28,0 78.29,6.5 110.6,19.42 32.43,12.89 56.69,30.88 72.83,53.92 16.14,23.05 24.23,47.57 24.23,73.24 0,39.73 -14.48,75.7 -42.99,107.72 -28.66,32.06 -75.56,55.62 -140.3,70.87 41.81,15.63 72.42,36.34 92.11,62.16 19.79,25.78 29.58,54.21 29.58,84.94 0,34.38 -8.72,67.1 -26.45,98.24 -17.72,31.28 -40.4,55.5 -67.99,72.82 -27.62,17.32 -60.82,29.96 -99.93,38.19 -27.88,5.72 -71.28,8.61 -130.29,8.61l-253.05 0 6.64 -18.77c26.45,-0.77 44.43,-3.25 53.92,-7.68 13.67,-5.72 23.31,-13.4 29.07,-22.93 8.09,-12.89 18.91,-42.36 32.57,-88.45l123.65 -417.84c10.56,-35.3 15.77,-60.05 15.77,-74.38 0,-12.52 -4.7,-22.41 -13.93,-29.69 -9.38,-7.31 -27.11,-10.93 -53.14,-10.93 -5.73,0 -11.19,-0.26 -16.29,-0.52l-0.03 -0.03zm2.99 626.53c36.6,4.69 65.25,7.02 85.97,7.02 52.89,0 99.94,-15.88 140.71,-47.83 40.92,-31.91 61.38,-75.19 61.38,-129.77 0,-41.7 -12.63,-74.27 -37.93,-97.72 -25.26,-23.45 -66.07,-35.16 -122.46,-35.16 -10.82,0 -23.97,0.51 -39.59,1.55l-88.08 301.91zm100.34 -340.06c21.9,0.77 38.04,1.03 47.82,1.03 70.62,0 122.98,-15.36 157.51,-45.98 34.39,-30.76 51.6,-69.17 51.6,-115.29 0,-34.9 -10.57,-62.16 -31.54,-81.69 -20.98,-19.54 -54.59,-29.33 -100.71,-29.33 -12.26,0 -27.89,2.07 -46.91,6.13l-77.77 265.13z"/>
    <path id="path8124" fill="#0E0F0F" fill-rule="nonzero" d="M10512.62 7412.35l-81.43 273.21 90.55 0c40.77,0 71.13,-6.24 91.33,-18.76 20.31,-12.52 41.03,-39.48 62.41,-80.4l19.28 0 -71.64 251.32 -20.46 0c5.09,-20.31 7.68,-37.12 7.68,-50.3 0,-20.72 -6.91,-36.75 -20.57,-48.19 -13.82,-11.34 -39.48,-16.96 -77.12,-16.96l-91.62 0 -60.05 208.07c-10.82,37.01 -16.29,61.64 -16.29,73.86 0,12.52 4.69,22.16 13.93,28.92 9.38,6.76 32.16,11.45 68.54,13.81l-6.13 18.8 -272.81 0 6.65 -18.76c26.44,-0.78 44.17,-3.14 52.88,-7.16 13.67,-5.73 23.6,-13.56 29.95,-23.46 9.24,-13.92 20.06,-42.47 32.58,-85.97l121.68 -415.73c9.79,-33.61 14.74,-59.94 14.74,-78.96 0,-8.86 -2.07,-16.29 -6.5,-22.68 -4.54,-6.24 -10.93,-10.93 -19.68,-13.92 -8.61,-2.99 -25.78,-4.54 -51.6,-4.54l6.13 -18.91 535.35 -0.04 -50.96 174.58 -19.28 0c3.66,-20.98 5.62,-38.3 5.62,-51.86 0,-22.41 -6.25,-40.14 -18.62,-53.14 -12.26,-13.15 -28.29,-22.42 -47.56,-27.73 -13.56,-3.4 -43.92,-5.1 -91.08,-5.1l-135.9 0z"/>
    <path id="path8126" fill="#0E0F0F" fill-rule="nonzero" d="M7512.2 7750.67c50.3,0 94.73,10.94 133.4,32.69 38.7,21.75 68.91,53.92 90.92,96.53 22.01,42.62 32.98,86.76 32.98,132.51 0,81.18 -23.6,166.23 -70.61,255.34 -47.05,89.12 -108.54,157.11 -184.47,203.9 -75.82,46.9 -154.37,70.35 -235.44,70.35 -58.49,0 -107.21,-12.89 -146.43,-38.81 -39.33,-25.78 -68.39,-59.94 -87.15,-102.26 -18.76,-42.47 -28.14,-83.65 -28.14,-123.39 0,-70.76 17.06,-140.56 51.07,-209.62 34.01,-68.91 74.64,-126.64 121.95,-172.87 47.16,-46.39 97.57,-81.95 151.27,-106.96 53.55,-24.89 110.49,-37.37 170.65,-37.37l0 -0.04zm-18.91 35.72c-37.26,0 -73.6,9.23 -109.16,27.62 -35.57,18.5 -70.76,48.6 -105.66,90.41 -35.05,41.95 -66.44,96.68 -94.32,164.41 -34.28,83.25 -51.45,161.95 -51.45,236.07 0,52.77 13.56,99.52 40.77,140.3 27.11,40.66 68.81,61.12 125.09,61.12 33.75,0 66.95,-8.35 99.53,-25.15 32.57,-16.7 66.44,-45.35 101.89,-85.87 44.28,-51.07 81.43,-116.07 111.64,-195.18 30.1,-78.96 45.09,-152.71 45.09,-221.21 0,-50.56 -13.55,-95.36 -40.66,-134.21 -27.21,-38.81 -68.13,-58.35 -122.72,-58.35l-0.04 0.04z"/>
    <path id="path8128" fill="#0E0F0F" fill-rule="nonzero" d="M7115.6 157.49c11.6,19.54 19.43,38.04 23.86,55.11 4.54,17.21 8.86,50.92 13.29,101.11l22.42 250.39c20.31,-24.48 49.78,-63.18 88.45,-116.07 18.76,-25.78 41.81,-60.82 69.32,-105.4 16.69,-27.11 26.85,-46.13 30.47,-56.95 2.07,-5.46 2.99,-11.08 2.99,-16.8 0,-3.77 -1.03,-6.76 -3.51,-9.12 -2.32,-2.33 -8.46,-5.21 -18.61,-8.46 -10.05,-3.25 -18.25,-9.12 -24.89,-17.84 -6.65,-8.6 -9.9,-18.5 -9.9,-29.69 0,-13.92 4.03,-25.15 12.26,-33.61 8.09,-8.46 18.24,-12.63 30.47,-12.63 14.84,0 27.62,6.13 38.19,18.5 10.56,12.38 15.76,29.44 15.76,51.19 0,26.7 -9.12,57.46 -27.47,91.85 -18.25,34.38 -53.55,87.3 -105.81,158.54 -52.37,71.13 -115.56,148.91 -189.82,233.07 -51.34,57.98 -89.27,94.58 -114.01,109.58 -24.89,15.1 -45.98,22.67 -63.71,22.67 -10.56,0 -19.68,-4.02 -27.73,-12 -7.94,-7.94 -11.86,-17.21 -11.86,-27.62 0,-13.3 5.47,-25.27 16.55,-36.23 11.08,-10.82 22.93,-16.29 35.82,-16.29 6.76,0 12.37,1.55 16.81,4.54 2.62,1.81 5.72,6.65 8.86,14.59 3.25,7.94 6.24,13.3 8.97,16.03 1.56,1.7 3.66,2.47 6.13,2.47 1.96,0 5.62,-1.7 10.68,-5.09 18.61,-11.45 40.25,-29.84 65.14,-54.99 32.58,-33.24 56.54,-60.31 72.17,-81.44l-28.55 -322.59c-4.69,-53.29 -11.71,-85.71 -21.38,-97.2 -9.53,-11.6 -25.41,-17.32 -47.83,-17.32 -7.02,0 -19.79,1.03 -38.19,2.99l-4.54 -18.76 149.17 -36.75 0.03 0.22z"/>
    <path id="path8130" fill="#0E0F0F" fill-rule="nonzero" d="M16328.5 7605.17c16.69,17.57 29.17,35.3 37.78,52.88 5.98,12.26 16.14,44.28 29.95,96.28l44.83 -67.21c11.86,-16.29 26.33,-31.8 43.25,-46.5 16.95,-14.85 31.91,-24.89 44.83,-30.36 8.09,-3.4 17.06,-5.09 26.96,-5.09 14.59,0 26.19,3.91 34.79,11.7 8.72,7.83 13.04,17.32 13.04,28.55 0,12.89 -2.62,21.64 -7.68,26.44 -9.53,8.46 -20.32,12.63 -32.58,12.63 -7.16,0 -14.73,-1.44 -22.93,-4.54 -15.88,-5.35 -26.59,-8.09 -32.06,-8.09 -8.09,0 -17.72,4.69 -28.91,14.22 -20.98,17.58 -46.24,51.74 -75.31,102.26l41.7 175.09c6.5,26.85 11.85,42.88 16.29,48.09 4.43,5.35 8.71,7.94 13.14,7.94 7.17,0 15.51,-3.92 25,-11.71 18.62,-15.62 34.54,-35.97 47.83,-61.12l17.84 9.12c-21.39,40.14 -48.46,73.35 -81.43,99.79 -18.77,14.99 -34.54,22.42 -47.42,22.42 -18.91,0 -34.02,-10.68 -45.21,-32.06 -7.16,-13.3 -21.9,-70.21 -44.28,-171.06 -52.88,91.99 -95.35,151.26 -127.3,177.71 -20.72,16.95 -40.66,25.41 -60.05,25.41 -13.55,0 -25.92,-4.95 -37.11,-14.74 -8.09,-7.42 -12.12,-17.58 -12.12,-30.1 0,-11.19 3.66,-20.46 11.08,-27.99 7.57,-7.43 16.7,-11.19 27.48,-11.19 10.82,0 22.42,5.46 34.64,16.28 8.72,7.94 15.62,11.71 20.31,11.71 4.18,0 9.38,-2.73 15.77,-8.09 15.88,-12.89 37.67,-40.77 65.15,-83.5 27.47,-42.73 45.46,-73.6 53.92,-92.62 -20.98,-82.47 -32.43,-125.97 -34.02,-130.81 -7.83,-22.01 -17.98,-37.67 -30.61,-46.75 -12.52,-9.13 -31.02,-13.82 -55.36,-13.82 -7.83,0 -16.81,0.41 -26.96,1.04l0 -18.25 135.76 -23.96z"/>
    <path id="path8132" fill="#0E0F0F" fill-rule="nonzero" d="M6079.06 3852.47l-51.44 223.43 -18.39 0 -1.96 -56.02c-1.7,-20.32 -5.61,-38.45 -11.71,-54.48 -6.13,-16.02 -15.25,-29.69 -27.47,-41.43 -12.27,-11.71 -27.63,-20.83 -46.24,-27.48 -18.76,-6.65 -39.33,-9.9 -62.16,-9.9 -60.71,0 -113.85,16.55 -159.32,49.79 -57.98,42.47 -103.44,102.26 -136.27,179.66 -27.11,63.86 -40.77,128.45 -40.77,194 0,66.85 19.42,120.14 58.49,159.99 39.08,39.85 89.78,59.79 152.16,59.79 47.31,0 89.26,-10.56 125.97,-31.54 36.75,-21.09 71.02,-53.4 102.52,-97.2l23.97 0c-37.26,59.27 -78.81,103.07 -124.16,131.07 -45.46,28.03 -99.94,41.95 -163.38,41.95 -56.43,0 -106.33,-11.86 -149.69,-35.45 -43.39,-23.6 -76.48,-56.69 -99.15,-99.42 -22.79,-42.73 -34.13,-88.71 -34.13,-137.98 0,-75.3 20.2,-148.64 60.57,-219.77 40.25,-71.28 95.76,-127.3 166.11,-167.93 70.36,-40.77 141.37,-61.12 213.02,-61.12 33.61,0 71.28,7.94 112.97,23.86 18.36,6.91 31.54,10.3 39.74,10.3 8.09,0 15.25,-1.81 21.38,-5.09 6.13,-3.4 16.29,-13.15 30.47,-29.07l18.87 0.04z"/>
    <path id="path8134" fill="#0E0F0F" fill-rule="nonzero" d="M9047.98 8979.14l213.12 540.93 115.56 -404.02c9.53,-33.35 14.22,-59.02 14.22,-77.37 0,-12.52 -4.43,-22.42 -13.15,-29.59 -8.71,-7.01 -25.26,-10.67 -49.38,-10.67 -4.02,0 -8.19,-0.15 -12.77,-0.52l5.61 -18.76 221.99 0 -6.13 18.76c-23.04,-0.25 -40.25,2.07 -51.44,7.17 -15.88,7.16 -27.89,16.29 -35.57,27.48 -10.82,16.02 -21.9,43.8 -33.09,83.53l-162.35 568.96 -18.35 -0.04 -229.56 -582.25 -122.61 430.06c-9.13,32.57 -13.82,57.47 -13.82,74.79 0,12.89 4.29,22.67 12.52,29.32 8.35,6.65 28.14,11.08 59.28,13.41l-5.1 18.9 -216.78 0.04 7.16 -18.91c27.11,-0.66 45.2,-2.99 54.47,-7.01 13.82,-6.13 24.23,-14.22 31.03,-23.97 9.78,-15 20.83,-43.77 33.09,-86.49l136.94 -479.96c-13.3,-20.31 -27.37,-34.27 -42.47,-41.95 -15.26,-7.57 -38.56,-12 -70.51,-13.04l5.47 -18.76 172.62 -0.04z"/>
    <path id="path8136" fill="#0E0F0F" fill-rule="nonzero" d="M12598.48 1755.42l63.59 555.66 400.63 -555.66 168.44 0 0 18.76c-36.75,2.33 -58.24,4.84 -64.63,7.17 -11.19,4.43 -21.49,13.14 -30.87,26.44 -9.24,13.29 -19.43,38.7 -30.21,76.34l-127.82 437.63c-7.43,25.52 -11.19,45.46 -11.19,60.05 0,13.29 4.69,23.3 13.81,30.1 12.89,9.78 33.24,14.73 61.12,14.73l12.08 0 -4.55 18.87 -290.53 0 5.1 -18.91 13.66 0.04c25.93,0 45.46,-3.77 59.02,-11.19 10.56,-5.35 20.05,-15.77 28.28,-30.76 8.35,-15.11 20.06,-48.6 34.9,-100.57l114.01 -399.96 -402.58 561.39 -20.35 -0.04 -64.63 -561.38 -123.24 426.95c-10.56,36.34 -15.77,60.83 -15.77,73.35 0,12.52 4.54,22.16 13.81,28.66 9.12,6.64 31.39,11.19 66.59,13.55l-5.61 18.91 -227.46 -0.04 5.61 -18.91 13.81 0.04c33.61,0 57.84,-8.46 72.68,-25.41 10.82,-12.26 22.27,-38.7 34.13,-79.47l150.09 -514.49c-11.19,-11.45 -21.9,-19.28 -32.06,-23.45 -10.16,-4.02 -28.92,-7.31 -56.43,-9.64l5.1 -18.76 171.47 0z"/>
    <path id="path8138" fill="#0E0F0F" fill-rule="nonzero" d="M13248.72 7412.87l-78.96 272.69 64.78 0c46.12,0 79.47,-7.01 100.19,-21.08 20.72,-14.07 38.56,-40.15 53.4,-78.04l18.87 -0.04 -70.76 250.29 -20.27 0c5.98,-20.98 9.12,-38.97 9.12,-53.92 0,-14.48 -2.99,-26.19 -8.86,-35.05 -5.99,-8.86 -14.22,-15.36 -24.49,-19.69 -10.3,-4.17 -32.16,-6.24 -65.4,-6.24l-65.7 -0.03 -66.7 228.53c-6.39,22.01 -9.64,38.81 -9.64,50.3 0,8.86 4.17,16.69 12.78,23.45 5.72,4.83 20.2,7.16 43.25,7.16l61.12 0c66.07,0 119.21,-11.71 158.95,-35.16 39.85,-23.45 75.56,-64.11 107.21,-122.09l18.76 0 -65.15 191.78 -533.39 0 6.65 -18.76c26.44,-0.78 44.28,-3.14 53.4,-7.16 13.66,-6.13 23.45,-13.93 29.58,-23.46 9.12,-13.92 19.94,-42.98 32.57,-87.56l121.17 -416.25c9.53,-33.6 14.22,-59.16 14.22,-76.85 0,-12.89 -4.43,-22.93 -13.55,-30.21 -8.98,-7.31 -26.59,-10.93 -52.63,-10.93l-10.71 -0.04 6.13 -18.91 495.73 0 -42.73 166.49 -18.87 0.03c2.47,-15.62 3.5,-28.8 3.5,-39.22 0,-17.98 -4.43,-33.09 -13.14,-45.35 -11.6,-15.51 -28.4,-27.47 -50.41,-35.56 -16.29,-6.13 -53.81,-9.12 -112.42,-9.12l-87.6 0z"/>
    <path id="path8140" fill="#0E0F0F" fill-rule="nonzero" d="M8699.61 6578.27l318.67 0 50.3 -170.55c9.64,-33.24 14.33,-59.02 14.33,-77.37 0,-8.72 -2.21,-16.29 -6.39,-22.53 -4.17,-6.39 -10.82,-10.93 -19.53,-14.07 -8.87,-2.99 -26.19,-4.54 -52,-4.54l5.09 -18.91 277.87 -0.04 -6.13 18.91c-23.45,-0.26 -40.77,2.07 -52.37,7.16 -16.28,7.02 -28.4,16.29 -36.19,27.48 -11.23,15.92 -22.42,43.91 -34.01,83.91l-121.69 416.8c-10.16,34.64 -15.25,59.42 -15.25,74.38 0,12.89 4.43,22.67 13.4,29.17 9.13,6.65 30.47,11.19 64.49,13.56l-5.62 18.76 -268.74 0 7.16 -18.76c26.44,-0.78 44.17,-3.14 52.89,-7.17 13.66,-6.13 23.45,-13.92 29.58,-23.45 8.71,-13.14 19.68,-41.95 32.57,-86.49l62.01 -211.21 -320.08 0 -62.53 211.21c-9.89,34.01 -14.84,58.76 -14.84,74.38 0,12.89 4.54,22.67 13.29,29.17 8.72,6.65 30.1,11.19 64.11,13.56l-4.02 18.76 -270.78 0 6.65 -18.76c26.85,-0.78 44.54,-3.14 53.4,-7.17 13.55,-6.13 23.45,-13.92 29.95,-23.45 8.86,-13.81 19.8,-42.73 32.57,-86.49l122.21 -416.76c9.79,-33.87 14.73,-59.69 14.73,-77.38 0,-8.71 -2.21,-16.28 -6.38,-22.52 -4.18,-6.39 -10.83,-10.93 -19.8,-14.07 -9.12,-3 -26.59,-4.55 -52.77,-4.55l6.13 -18.9 272.29 -0.08 -5.62 18.91c-22.78,-0.26 -39.59,2.07 -50.41,7.16 -15.88,6.76 -27.47,15.77 -35.04,26.96 -10.16,14.85 -21.35,42.99 -33.61,84.43l-49.89 170.55z"/>
   </g>
  </g>
  <polygon fill="none" fill-rule="nonzero" points="-5.6,12531.01 16887.04,12531.01 16887.04,0.28 -5.6,0.28 "/>
 </g>
</svg>
