<?xml version="1.0" encoding="UTF-8"?>
<!DOCTYPE svg PUBLIC "-//W3C//DTD SVG 1.0//EN" "http://www.w3.org/TR/2001/REC-SVG-20010904/DTD/svg10.dtd">
<!-- Creator: CorelDRAW -->
<svg xmlns="http://www.w3.org/2000/svg" xml:space="preserve" width="79.1924mm" height="48.3754mm" version="1.0" shape-rendering="geometricPrecision" text-rendering="geometricPrecision" image-rendering="optimizeQuality" fill-rule="evenodd" clip-rule="evenodd"
viewBox="0 0 7919.24 4837.54"
 xmlns:xlink="http://www.w3.org/1999/xlink"
 xmlns:xodm="http://www.corel.com/coreldraw/odm/2003">
 <defs>
   <clipPath id="id0" clip-rule="nonzero">
    <path d="M-5.82 4839.22l7919.25 0 0 -4837.54 -7919.25 0 0 4837.54z"/>
   </clipPath>
 </defs>
 <g id="圖層_x0020_1">
  <metadata id="CorelCorpID_0Corel-Layer"/>
  <g>
  </g>
  <g clip-path="url(#id0)">
   <g id="_1966517226288">
    <line id="path4106" fill="none" fill-rule="nonzero" stroke="#231F20" stroke-width="17.64" stroke-miterlimit="22.9256" x1="-5.82" y1="2871.74" x2="7611.47" y2= "2871.74" />
    <polygon id="path4108" fill="#231F20" fill-rule="nonzero" points="7544.83,2871.74 7463.5,2738.14 7468.11,2735.17 7686.15,2821.61 7913.43,2871.59 7913.43,2871.84 7686.15,2921.83 7468.11,3008.27 7463.5,3005.97 "/>
    <line id="path4110" fill="none" fill-rule="nonzero" stroke="#231F20" stroke-width="17.64" stroke-miterlimit="22.9256" x1="3593.88" y1="4839.22" x2="3593.88" y2= "303.05" />
    <polygon id="path4112" fill="#231F20" fill-rule="nonzero" points="3593.88,369.63 3460.21,450.81 3457.16,446.29 3543.77,228.48 3593.69,1.68 3594.03,1.68 3644.03,228.48 3730.64,446.29 3728.35,450.81 "/>
    <path id="path4114" fill="none" fill-rule="nonzero" stroke="#231F20" stroke-width="17.64" stroke-miterlimit="22.9256" d="M4739.06 2871.74c0,583.47 -512.73,1056.55 -1145.18,1056.55 -632.45,0 -1145.11,-473.08 -1145.11,-1056.55 0,-583.54 512.66,-1056.63 1145.11,-1056.63 632.45,0 1145.18,473.07 1145.18,1056.63z"/>
    <path id="path4116" fill="none" fill-rule="nonzero" stroke="#231F20" stroke-width="17.64" stroke-miterlimit="22.9256" d="M6760.68 2849.42c0,843.76 -1382.74,1527.71 -3088.44,1527.71 -1705.7,0 -3088.53,-683.93 -3088.53,-1527.71 0,-843.76 1382.81,-1527.77 3088.53,-1527.77 1705.7,0 3088.44,684.01 3088.44,1527.77z"/>
    <line id="path4118" fill="none" fill-rule="nonzero" stroke="#231F20" stroke-width="17.64" stroke-miterlimit="22.9256" x1="1359.63" y1="2871.74" x2="5067.14" y2= "1486.01" />
    <line id="path4120" fill="none" fill-rule="nonzero" stroke="#231F20" stroke-width="17.64" stroke-miterlimit="22.9256" x1="5858.04" y1="2871.74" x2="5821.31" y2= "2807.3" />
    <line id="path4122" fill="none" fill-rule="nonzero" stroke="#231F20" stroke-width="17.64" stroke-miterlimit="22.9256" stroke-dasharray="76.480000 76.480000" x1="5741.6" y1="2667.62" x2="5143.74" y2= "1620.26" />
    <line id="path4124" fill="none" fill-rule="nonzero" stroke="#231F20" stroke-width="17.64" stroke-miterlimit="22.9256" x1="5103.9" y1="1550.42" x2="5067.16" y2= "1485.99" />
    <line id="path4126" fill="none" fill-rule="nonzero" stroke="#231F20" stroke-width="17.64" stroke-miterlimit="22.9256" x1="3593.79" y1="2871.74" x2="3557.06" y2= "2807.3" />
    <line id="path4128" fill="none" fill-rule="nonzero" stroke="#231F20" stroke-width="17.64" stroke-miterlimit="22.9256" stroke-dasharray="61.770000 61.770000" x1="3492.73" y1="2694.55" x2="3267.35" y2= "2299.75" />
    <line id="path4130" fill="none" fill-rule="nonzero" stroke="#231F20" stroke-width="17.64" stroke-miterlimit="22.9256" x1="3235.14" y1="2243.33" x2="3198.41" y2= "2178.89" />
    <path id="path4132" fill="#0E0F0F" fill-rule="nonzero" d="M2482.61 1906.07l-29.83 326.66c-1.55,15.19 -2.29,25.28 -2.29,30.1 0,7.72 1.41,13.63 4.31,17.65 3.71,5.64 8.69,9.78 14.92,12.45 6.31,2.74 16.85,4.09 31.76,4.09l-3.19 10.66 -154.83 0 3.19 -10.66 6.69 0c12.54,0 22.79,-2.74 30.72,-8.08 5.63,-3.7 9.95,-9.78 13.06,-18.3 2.15,-5.94 4.17,-20.03 6.08,-42.27l4.61 -49.81 -112.44 -0.02 -39.99 54.19c-9.13,12.16 -14.86,20.91 -17.15,26.17 -2.29,5.34 -3.49,10.31 -3.49,14.89 0,6.23 2.52,11.49 7.57,15.95 5.05,4.44 13.36,6.9 24.93,7.26l-3.2 10.66 -116.27 0.02 3.2 -10.66c14.33,-0.59 26.95,-5.35 37.85,-14.31 10.91,-8.96 27.24,-28.17 48.82,-57.53l234.81 -319.09 10.16 -0.02zm-57.36 96.39l-113.92 154.96 98.85 -0.02 15.07 -154.94z"/>
    <path id="path4134" fill="#0E0F0F" fill-rule="nonzero" d="M3878.72 1377.98l3.99 -10.66 140.34 -0.02c23.6,0 44.6,3.64 63.09,10.98 18.41,7.34 32.29,17.56 41.4,30.69 9.19,13.19 13.8,27.06 13.8,41.74 0,22.61 -8.16,43 -24.49,61.24 -16.41,18.24 -42.98,31.72 -79.85,40.41 23.75,8.9 41.25,20.68 52.46,35.3 11.13,14.68 16.77,30.84 16.77,48.4 0,19.5 -5.05,38.1 -15.06,55.9 -10.02,17.79 -22.93,31.57 -38.67,41.38 -15.8,9.86 -34.82,17.12 -56.99,21.73 -15.8,3.34 -40.6,4.96 -74.22,4.96l-144.03 -0.02 3.7 -10.75c15.15,-0.38 25.37,-1.85 30.71,-4.29 7.72,-3.34 13.28,-7.64 16.56,-13.04 4.67,-7.34 10.83,-24.17 18.55,-50.41l70.43 -237.75c6.02,-20.09 8.99,-34.19 8.99,-42.27 0,-7.11 -2.59,-12.74 -7.93,-16.97 -5.35,-4.15 -15.45,-6.23 -30.28,-6.23 -3.34,0 -6.37,-0.08 -9.27,-0.29l0 -0.03zm1.7 356.54c20.93,2.73 37.26,4.08 48.97,4.08 30.21,0 56.84,-9.11 80.15,-27.2 23.31,-18.16 34.97,-42.77 34.97,-73.93 0,-23.73 -7.2,-42.26 -21.61,-55.6 -14.39,-13.27 -37.63,-19.94 -69.69,-19.94 -6.23,0 -13.74,0.29 -22.64,0.88l-50.15 171.71zm57.14 -193.44c12.53,0.38 21.6,0.53 27.24,0.53 40.16,0 70.13,-8.67 89.72,-26.17 19.59,-17.5 29.39,-39.36 29.39,-65.61 0,-19.86 -5.93,-35.37 -17.97,-46.5 -11.95,-11.12 -31.09,-16.59 -57.36,-16.59 -6.99,0 -15.89,1.11 -26.72,3.4l-44.3 150.94z"/>
    <path id="path4136" fill="#0E0F0F" fill-rule="nonzero" d="M1380.39 3087.32l-46.38 155.55 51.58 0c23.16,0 40.52,-3.64 52.02,-10.75 11.51,-7.11 23.38,-22.38 35.56,-45.73l10.98 -0.03 -40.9 143.1 -11.57 0c2.91,-11.64 4.38,-21.12 4.38,-28.7 0,-11.78 -3.94,-20.91 -11.8,-27.35 -7.79,-6.52 -22.41,-9.71 -43.87,-9.71l-52.17 0 -34.2 118.47c-6.23,20.98 -9.28,34.99 -9.28,41.97 0,7.11 2.59,12.69 7.93,16.54 5.35,3.85 18.32,6.46 38.96,7.78l-3.41 10.75 -155.39 0 3.78 -10.75c15.06,-0.38 25.08,-1.7 30.13,-4 7.72,-3.34 13.44,-7.72 17.06,-13.33 5.26,-7.93 11.42,-24.24 18.55,-48.93l69.32 -236.65c5.64,-19.12 8.39,-34.03 8.39,-44.85 0,-5.05 -1.26,-9.34 -3.79,-12.89 -2.44,-3.56 -6.22,-6.23 -11.12,-7.93 -4.9,-1.79 -14.77,-2.67 -29.39,-2.67l3.41 -10.67 305.03 -0.04 -29.01 99.33 -11 0c2.14,-12.01 3.19,-21.88 3.19,-29.57 0,-12.75 -3.55,-22.83 -10.6,-30.26 -7.05,-7.4 -16.11,-12.68 -27.09,-15.79 -7.72,-1.94 -25.08,-2.89 -51.88,-2.89l-77.42 0z"/>
    <path id="path4138" fill="#0E0F0F" fill-rule="nonzero" d="M5883.41 3087.32l-46.45 155.55 51.65 0c23.16,0 40.51,-3.64 52.02,-10.75 11.51,-7.11 23.31,-22.38 35.47,-45.73l11.06 -0.03 -40.89 143.1 -11.57 0c2.9,-11.64 4.37,-21.12 4.37,-28.7 0,-11.78 -3.93,-20.91 -11.8,-27.35 -7.78,-6.52 -22.49,-9.71 -43.86,-9.71l-52.23 0 -34.21 118.47c-6.16,20.98 -9.28,34.99 -9.28,41.97 0,7.11 2.68,12.69 8.02,16.54 5.34,3.85 18.26,6.46 38.96,7.78l-3.49 10.75 -155.34 0 3.7 -10.75c15.07,-0.38 25.16,-1.7 30.21,-4 7.72,-3.34 13.45,-7.72 17.06,-13.33 5.2,-7.93 11.43,-24.24 18.56,-48.93l69.31 -236.65c5.58,-19.12 8.4,-34.03 8.4,-44.85 0,-5.05 -1.26,-9.34 -3.79,-12.89 -2.52,-3.56 -6.23,-6.23 -11.13,-7.93 -4.96,-1.79 -14.77,-2.67 -29.47,-2.67l3.49 -10.67 305.03 -0.04 -29.01 99.33 -11 0c2.09,-12.01 3.2,-21.88 3.2,-29.57 0,-12.75 -3.55,-22.83 -10.6,-30.26 -7.05,-7.4 -16.12,-12.68 -27.1,-15.79 -7.72,-1.94 -25.07,-2.89 -51.94,-2.89l-77.35 0z"/>
    <path id="path4140" fill="#0E0F0F" fill-rule="nonzero" d="M6130.93 3226.63l8.98 -85.7c2.53,-24.32 5.05,-40.77 7.57,-49.23 3.64,-12.16 8.84,-20.91 15.51,-26.25 6.67,-5.35 14.18,-7.94 22.49,-7.94 6.98,0 12.47,1.94 16.47,5.79 4.08,3.85 6.08,8.81 6.08,14.75 0,4.44 -0.97,9.42 -2.9,14.74 -2.44,7.35 -9.66,23.5 -21.46,48.41l-39.99 85.41 -12.75 0.02z"/>
    <path id="path4142" fill="#0E0F0F" fill-rule="nonzero" d="M5159.92 928.85l154.81 0c40.6,0 70.87,8.67 90.98,26.17 20.11,17.5 30.21,38.77 30.21,63.91 0,19.86 -6.38,39.21 -19.15,57.89 -12.77,18.68 -31.68,33.89 -56.84,45.59 -25.07,11.72 -52.25,17.5 -81.41,17.5 -18.17,0 -41.34,-3.26 -69.32,-9.78l-31.32 107.14c-7.34,25.5 -10.98,42.26 -10.98,50.4 0,6.17 2.59,11.28 7.78,15.36 5.26,4 17.67,6.61 37.41,7.78l-2.91 10.75 -156.28 0 3.26 -10.75c20.41,0 34.73,-3.49 42.75,-10.51 8.01,-7.11 16.62,-26.55 25.9,-58.36l64.94 -223.6c7.72,-26.84 11.65,-44.79 11.65,-53.9 0,-6.75 -2.82,-12.3 -8.31,-16.74 -5.49,-4.44 -17.67,-7.19 -36.37,-8.16l3.2 -10.69zm54.17 183.04c21.89,5.55 39.48,8.37 52.76,8.37 21.07,0 40.3,-4.37 57.59,-13.04 17.3,-8.67 30.8,-21.73 40.6,-39.06 9.72,-17.42 14.63,-35.45 14.63,-54.19 0,-19.51 -6.02,-34.93 -17.97,-46.35 -12.01,-11.42 -30.21,-17.06 -54.55,-17.06 -13.13,0 -29.09,1.64 -47.79,4.9l-45.27 156.43z"/>
    <path id="path4144" fill="#0E0F0F" fill-rule="nonzero" d="M3352.31 2950.4c26.13,0 49.21,5.7 69.32,16.97 20.11,11.28 35.76,27.96 47.21,50.11 11.42,22.09 17.14,45 17.14,68.73 0,42.11 -12.24,86.29 -36.67,132.55 -24.48,46.2 -56.39,81.48 -95.8,105.79 -39.48,24.32 -80.23,36.48 -122.37,36.48 -30.27,0 -55.66,-6.67 -76.07,-20.09 -20.4,-13.42 -35.46,-31.13 -45.27,-53.16 -9.72,-22.02 -14.62,-43.29 -14.62,-63.97 0,-36.71 8.84,-72.96 26.57,-108.76 17.67,-35.8 38.73,-65.76 63.3,-89.78 24.57,-24.03 50.76,-42.56 78.59,-55.46 27.84,-12.89 57.37,-19.41 88.7,-19.41l-0.03 0zm-9.86 18.53c-19.29,0 -38.23,4.82 -56.63,14.39 -18.47,9.57 -36.82,25.2 -54.99,46.93 -18.12,21.73 -34.5,50.11 -48.98,85.26 -17.81,43.3 -26.63,84.07 -26.63,122.48 0,27.43 7.05,51.75 21.14,72.87 14.1,21.12 35.77,31.66 64.94,31.66 17.59,0 34.82,-4.29 51.73,-12.98 16.92,-8.75 34.5,-23.58 52.91,-44.64 23.01,-26.46 42.31,-60.21 57.96,-101.21 15.65,-41 23.52,-79.33 23.52,-114.84 0,-26.25 -7.14,-49.45 -21.15,-69.61 -14.09,-20.17 -35.4,-30.31 -63.82,-30.31z"/>
    <path id="path4146" fill="#0E0F0F" fill-rule="nonzero" d="M3154.61 59.8c6.52,11.13 11.13,21.65 13.59,31.37 2.53,9.78 5.05,28.99 7.57,57.53l12.77 142.51c11.57,-13.95 28.42,-35.96 50.47,-66.06 10.6,-14.68 23.75,-34.63 39.4,-59.97 9.43,-15.42 15.3,-26.26 17.36,-32.4 1.18,-3.11 1.79,-6.31 1.79,-9.57 0,-2.15 -0.74,-3.85 -2.09,-5.2 -1.32,-1.32 -4.9,-2.97 -10.54,-4.82 -5.72,-1.85 -10.45,-5.19 -14.24,-10.07 -3.7,-4.97 -5.64,-10.61 -5.64,-16.98 0,-7.93 2.3,-14.3 6.99,-19.12 4.61,-4.82 10.45,-7.2 17.35,-7.2 8.54,0 15.8,3.5 21.76,10.52 6.01,7.05 8.98,16.75 8.98,29.14 0,15.19 -5.2,32.69 -15.65,52.27 -10.4,19.57 -30.51,49.67 -60.27,90.23 -29.77,40.56 -65.83,84.74 -108.13,132.64 -29.16,32.98 -50.85,53.83 -64.94,62.41 -14.1,8.52 -26.19,12.84 -36.23,12.84 -6.01,0 -11.27,-2.23 -15.8,-6.76 -4.52,-4.52 -6.83,-9.86 -6.83,-15.8 0,-7.55 3.11,-14.38 9.42,-20.61 6.23,-6.17 13.06,-9.28 20.41,-9.28 3.93,0 7.04,0.88 9.57,2.59 1.56,1.03 3.26,3.79 5.11,8.31 1.79,4.52 3.49,7.55 5.05,9.11 0.97,0.96 2.14,1.41 3.49,1.41 1.12,0 3.2,-0.97 6.08,-2.89 10.6,-6.52 23.02,-16.97 37.11,-31.21 18.55,-18.98 32.29,-34.4 41.19,-46.41l-16.26 -183.57c-2.76,-30.31 -6.75,-48.78 -12.18,-55.3 -5.43,-6.61 -14.54,-9.87 -27.24,-9.87 -4.09,0 -11.36,0.59 -21.76,1.7l-2.67 -10.66 85.01 -20.83z"/>
    <path id="path4148" fill="#0E0F0F" fill-rule="nonzero" d="M7655.99 3197.11c9.42,10.02 16.62,20.09 21.45,30.11 3.5,6.96 9.13,25.2 17.06,54.71l25.54 -38.26c6.76,-9.28 15,-18.09 24.64,-26.47 9.65,-8.37 18.17,-14.15 25.54,-17.2 4.6,-1.94 9.71,-2.89 15.35,-2.89 8.31,0 14.92,2.15 19.82,6.61 4.96,4.44 7.43,9.87 7.43,16.24 0,7.34 -1.5,12.39 -4.38,15.04 -5.34,4.82 -11.57,7.26 -18.56,7.26 -3.99,0 -8.39,-0.88 -12.97,-2.59 -9.13,-3.11 -15.21,-4.67 -18.26,-4.67 -4.67,0 -10.17,2.74 -16.56,8.16 -12.01,10.02 -26.28,29.43 -42.89,58.21l23.75 99.65c3.64,15.19 6.75,24.32 9.27,27.35 2.53,2.97 5.05,4.44 7.58,4.44 3.99,0 8.75,-2.23 14.18,-6.67 10.6,-8.81 19.73,-20.38 27.24,-34.69l10.16 5.2c-12.18,22.76 -27.69,41.67 -46.39,56.8 -10.6,8.45 -19.58,12.68 -26.95,12.68 -10.83,0 -19.43,-6.08 -25.83,-18.24 -4.08,-7.49 -12.47,-39.97 -25.22,-97.27 -30.13,52.28 -54.32,86 -72.43,101.06 -11.8,9.72 -23.23,14.45 -34.21,14.45 -7.72,0 -14.85,-2.73 -21.22,-8.37 -4.61,-4.23 -6.9,-9.93 -6.9,-17.06 0,-6.38 2.14,-11.72 6.37,-15.95 4.23,-4.23 9.43,-6.37 15.65,-6.37 6.17,0 12.69,3.03 19.67,9.28 5.05,4.43 8.9,6.66 11.66,6.66 2.29,0 5.26,-1.55 8.98,-4.67 9.04,-7.34 21.46,-23.14 37.11,-47.45 15.65,-24.32 25.89,-41.89 30.71,-52.72 -12.01,-46.94 -18.47,-71.76 -19.44,-74.43 -4.46,-12.6 -10.24,-21.44 -17.35,-26.7 -7.2,-5.19 -17.74,-7.78 -31.62,-7.78 -4.46,0 -9.57,0.15 -15.36,0.59l0 -10.46 77.38 -13.59z"/>
    <path id="path4150" fill="#0E0F0F" fill-rule="nonzero" d="M3237.35 2321.63l-29.24 127.14 -10.46 0 -1.18 -31.87c-0.96,-11.57 -3.19,-21.87 -6.66,-30.98 -3.41,-9.05 -8.69,-16.92 -15.59,-23.58 -6.99,-6.67 -15.8,-11.87 -26.42,-15.66 -10.61,-3.78 -22.41,-5.63 -35.33,-5.63 -34.64,0 -64.85,9.42 -90.75,28.4 -33.05,24.08 -59.03,58.18 -77.73,102.15 -15.44,36.33 -23.22,73.1 -23.22,110.4 0,38.03 11.13,68.35 33.38,91.05 22.2,22.68 51.14,34.03 86.67,34.03 26.87,0 50.77,-5.93 71.7,-17.94 20.99,-12.01 40.45,-30.4 58.48,-55.3l13.59 -0.03c-21.23,33.81 -44.83,58.65 -70.73,74.58 -25.89,15.95 -56.92,23.88 -93.06,23.88 -32.06,0 -60.48,-6.67 -85.2,-20.18 -24.78,-13.42 -43.63,-32.25 -56.55,-56.57 -12.92,-24.31 -19.44,-50.48 -19.44,-78.51 0,-42.85 11.51,-84.52 34.5,-125.06 23.02,-40.56 54.55,-72.43 94.69,-95.57 40.07,-23.2 80.53,-34.77 121.26,-34.77 19.14,0 40.6,4.52 64.41,13.57 10.39,3.93 17.97,5.84 22.55,5.84 4.67,0 8.69,-0.96 12.18,-2.88 3.49,-1.93 9.28,-7.4 17.44,-16.53l10.71 0.02z"/>
   </g>
  </g>
  <polygon fill="none" fill-rule="nonzero" points="-5.82,4839.22 7913.43,4839.22 7913.43,1.68 -5.82,1.68 "/>
 </g>
</svg>
