<svg version="1.1" xmlns="http://www.w3.org/2000/svg" xmlns:xlink="http://www.w3.org/1999/xlink" width="892" height="908"><defs><clipPath id="CGozQqhBOvhO"><path fill="none" stroke="none" d=" M 0 0 L 892 0 L 892 908 L 0 908 L 0 0 Z"/></clipPath></defs><g transform="scale(1,1)" clip-path="url(#CGozQqhBOvhO)"><g><rect fill="rgb(255,255,255)" stroke="none" x="0" y="0" width="892" height="908" fill-opacity="1"/><path fill="none" stroke="rgb(192,192,192)" paint-order="fill stroke markers" d=" M 0.5 0.5 L 0.5 908.5 M 0.5 0.5 L 0.5 908.5 M 87.5 0.5 L 87.5 908.5 M 173.5 0.5 L 173.5 908.5 M 259.5 0.5 L 259.5 908.5 M 432.5 0.5 L 432.5 908.5 M 518.5 0.5 L 518.5 908.5 M 604.5 0.5 L 604.5 908.5 M 691.5 0.5 L 691.5 908.5 M 777.5 0.5 L 777.5 908.5 M 863.5 0.5 L 863.5 908.5" stroke-opacity="1" stroke-linecap="round" stroke-linejoin="round" stroke-miterlimit="10"/><path fill="none" stroke="rgb(192,192,192)" paint-order="fill stroke markers" d=" M 18.5 0.5 L 18.5 908.5 M 35.5 0.5 L 35.5 908.5 M 52.5 0.5 L 52.5 908.5 M 69.5 0.5 L 69.5 908.5 M 104.5 0.5 L 104.5 908.5 M 121.5 0.5 L 121.5 908.5 M 138.5 0.5 L 138.5 908.5 M 156.5 0.5 L 156.5 908.5 M 190.5 0.5 L 190.5 908.5 M 207.5 0.5 L 207.5 908.5 M 225.5 0.5 L 225.5 908.5 M 242.5 0.5 L 242.5 908.5 M 276.5 0.5 L 276.5 908.5 M 294.5 0.5 L 294.5 908.5 M 311.5 0.5 L 311.5 908.5 M 328.5 0.5 L 328.5 908.5 M 363.5 0.5 L 363.5 908.5 M 380.5 0.5 L 380.5 908.5 M 397.5 0.5 L 397.5 908.5 M 415.5 0.5 L 415.5 908.5 M 449.5 0.5 L 449.5 908.5 M 466.5 0.5 L 466.5 908.5 M 484.5 0.5 L 484.5 908.5 M 501.5 0.5 L 501.5 908.5 M 535.5 0.5 L 535.5 908.5 M 553.5 0.5 L 553.5 908.5 M 570.5 0.5 L 570.5 908.5 M 587.5 0.5 L 587.5 908.5 M 622.5 0.5 L 622.5 908.5 M 639.5 0.5 L 639.5 908.5 M 656.5 0.5 L 656.5 908.5 M 674.5 0.5 L 674.5 908.5 M 708.5 0.5 L 708.5 908.5 M 725.5 0.5 L 725.5 908.5 M 743.5 0.5 L 743.5 908.5 M 760.5 0.5 L 760.5 908.5 M 794.5 0.5 L 794.5 908.5 M 812.5 0.5 L 812.5 908.5 M 829.5 0.5 L 829.5 908.5 M 846.5 0.5 L 846.5 908.5 M 881.5 0.5 L 881.5 908.5" stroke-opacity="0.23529411764705882" stroke-linecap="round" stroke-linejoin="round" stroke-miterlimit="10"/><path fill="none" stroke="rgb(192,192,192)" paint-order="fill stroke markers" d=" M 0.5 48.5 L 892.5 48.5 M 0.5 48.5 L 892.5 48.5 M 0.5 134.5 L 892.5 134.5 M 0.5 220.5 L 892.5 220.5 M 0.5 307.5 L 892.5 307.5 M 0.5 393.5 L 892.5 393.5 M 0.5 479.5 L 892.5 479.5 M 0.5 652.5 L 892.5 652.5 M 0.5 738.5 L 892.5 738.5 M 0.5 825.5 L 892.5 825.5" stroke-opacity="1" stroke-linecap="round" stroke-linejoin="round" stroke-miterlimit="10"/><path fill="none" stroke="rgb(192,192,192)" paint-order="fill stroke markers" d=" M 0.5 13.5 L 892.5 13.5 M 0.5 13.5 L 892.5 13.5 M 0.5 30.5 L 892.5 30.5 M 0.5 65.5 L 892.5 65.5 M 0.5 82.5 L 892.5 82.5 M 0.5 100.5 L 892.5 100.5 M 0.5 117.5 L 892.5 117.5 M 0.5 151.5 L 892.5 151.5 M 0.5 169.5 L 892.5 169.5 M 0.5 186.5 L 892.5 186.5 M 0.5 203.5 L 892.5 203.5 M 0.5 238.5 L 892.5 238.5 M 0.5 255.5 L 892.5 255.5 M 0.5 272.5 L 892.5 272.5 M 0.5 289.5 L 892.5 289.5 M 0.5 324.5 L 892.5 324.5 M 0.5 341.5 L 892.5 341.5 M 0.5 358.5 L 892.5 358.5 M 0.5 376.5 L 892.5 376.5 M 0.5 410.5 L 892.5 410.5 M 0.5 427.5 L 892.5 427.5 M 0.5 445.5 L 892.5 445.5 M 0.5 462.5 L 892.5 462.5 M 0.5 497.5 L 892.5 497.5 M 0.5 514.5 L 892.5 514.5 M 0.5 531.5 L 892.5 531.5 M 0.5 548.5 L 892.5 548.5 M 0.5 583.5 L 892.5 583.5 M 0.5 600.5 L 892.5 600.5 M 0.5 617.5 L 892.5 617.5 M 0.5 635.5 L 892.5 635.5 M 0.5 669.5 L 892.5 669.5 M 0.5 686.5 L 892.5 686.5 M 0.5 704.5 L 892.5 704.5 M 0.5 721.5 L 892.5 721.5 M 0.5 755.5 L 892.5 755.5 M 0.5 773.5 L 892.5 773.5 M 0.5 790.5 L 892.5 790.5 M 0.5 807.5 L 892.5 807.5 M 0.5 842.5 L 892.5 842.5 M 0.5 859.5 L 892.5 859.5 M 0.5 876.5 L 892.5 876.5 M 0.5 894.5 L 892.5 894.5" stroke-opacity="0.23529411764705882" stroke-linecap="round" stroke-linejoin="round" stroke-miterlimit="10"/><path fill="none" stroke="rgb(0,0,0)" paint-order="fill stroke markers" d=" M 346.5 2.5 L 346.5 908.5" stroke-opacity="1" stroke-miterlimit="10"/><path fill="none" stroke="rgb(0,0,0)" paint-order="fill stroke markers" d=" M 346.5 1.5 L 342.5 5.5" stroke-opacity="1" stroke-miterlimit="10"/><path fill="none" stroke="rgb(0,0,0)" paint-order="fill stroke markers" d=" M 346.5 1.5 L 350.5 5.5" stroke-opacity="1" stroke-miterlimit="10"/><path fill="none" stroke="rgb(0,0,0)" paint-order="fill stroke markers" d=" M 0.5 566.5 L 890.5 566.5" stroke-opacity="1" stroke-miterlimit="10"/><path fill="none" stroke="rgb(0,0,0)" paint-order="fill stroke markers" d=" M 891.5 566.5 L 887.5 562.5" stroke-opacity="1" stroke-miterlimit="10"/><path fill="none" stroke="rgb(0,0,0)" paint-order="fill stroke markers" d=" M 891.5 566.5 L 887.5 570.5" stroke-opacity="1" stroke-miterlimit="10"/><text fill="rgb(0,0,0)" stroke="none" font-family="geogebra-sans-serif, sans-serif" font-size="12px" font-style="normal" font-weight="normal" text-decoration="normal" x="82" y="582" text-anchor="start" dominant-baseline="alphabetic" fill-opacity="1">–6</text><text fill="none" stroke="rgb(255,255,255)" font-family="geogebra-sans-serif, sans-serif" font-size="12px" font-style="normal" font-weight="normal" text-decoration="normal" x="82" y="582" text-anchor="start" dominant-baseline="alphabetic" stroke-opacity="1" stroke-linejoin="bevel" stroke-miterlimit="10" stroke-width="3">–6</text><text fill="rgb(0,0,0)" stroke="none" font-family="geogebra-sans-serif, sans-serif" font-size="12px" font-style="normal" font-weight="normal" text-decoration="normal" x="82" y="582" text-anchor="start" dominant-baseline="alphabetic" fill-opacity="1">–6</text><text fill="rgb(0,0,0)" stroke="none" font-family="geogebra-sans-serif, sans-serif" font-size="12px" font-style="normal" font-weight="normal" text-decoration="normal" x="168" y="582" text-anchor="start" dominant-baseline="alphabetic" fill-opacity="1">–4</text><text fill="none" stroke="rgb(255,255,255)" font-family="geogebra-sans-serif, sans-serif" font-size="12px" font-style="normal" font-weight="normal" text-decoration="normal" x="168" y="582" text-anchor="start" dominant-baseline="alphabetic" stroke-opacity="1" stroke-linejoin="bevel" stroke-miterlimit="10" stroke-width="3">–4</text><text fill="rgb(0,0,0)" stroke="none" font-family="geogebra-sans-serif, sans-serif" font-size="12px" font-style="normal" font-weight="normal" text-decoration="normal" x="168" y="582" text-anchor="start" dominant-baseline="alphabetic" fill-opacity="1">–4</text><text fill="rgb(0,0,0)" stroke="none" font-family="geogebra-sans-serif, sans-serif" font-size="12px" font-style="normal" font-weight="normal" text-decoration="normal" x="254" y="582" text-anchor="start" dominant-baseline="alphabetic" fill-opacity="1">–2</text><text fill="none" stroke="rgb(255,255,255)" font-family="geogebra-sans-serif, sans-serif" font-size="12px" font-style="normal" font-weight="normal" text-decoration="normal" x="254" y="582" text-anchor="start" dominant-baseline="alphabetic" stroke-opacity="1" stroke-linejoin="bevel" stroke-miterlimit="10" stroke-width="3">–2</text><text fill="rgb(0,0,0)" stroke="none" font-family="geogebra-sans-serif, sans-serif" font-size="12px" font-style="normal" font-weight="normal" text-decoration="normal" x="254" y="582" text-anchor="start" dominant-baseline="alphabetic" fill-opacity="1">–2</text><text fill="rgb(0,0,0)" stroke="none" font-family="geogebra-sans-serif, sans-serif" font-size="12px" font-style="normal" font-weight="normal" text-decoration="normal" x="430" y="582" text-anchor="start" dominant-baseline="alphabetic" fill-opacity="1">2</text><text fill="none" stroke="rgb(255,255,255)" font-family="geogebra-sans-serif, sans-serif" font-size="12px" font-style="normal" font-weight="normal" text-decoration="normal" x="430" y="582" text-anchor="start" dominant-baseline="alphabetic" stroke-opacity="1" stroke-linejoin="bevel" stroke-miterlimit="10" stroke-width="3">2</text><text fill="rgb(0,0,0)" stroke="none" font-family="geogebra-sans-serif, sans-serif" font-size="12px" font-style="normal" font-weight="normal" text-decoration="normal" x="430" y="582" text-anchor="start" dominant-baseline="alphabetic" fill-opacity="1">2</text><text fill="rgb(0,0,0)" stroke="none" font-family="geogebra-sans-serif, sans-serif" font-size="12px" font-style="normal" font-weight="normal" text-decoration="normal" x="516" y="582" text-anchor="start" dominant-baseline="alphabetic" fill-opacity="1">4</text><text fill="none" stroke="rgb(255,255,255)" font-family="geogebra-sans-serif, sans-serif" font-size="12px" font-style="normal" font-weight="normal" text-decoration="normal" x="516" y="582" text-anchor="start" dominant-baseline="alphabetic" stroke-opacity="1" stroke-linejoin="bevel" stroke-miterlimit="10" stroke-width="3">4</text><text fill="rgb(0,0,0)" stroke="none" font-family="geogebra-sans-serif, sans-serif" font-size="12px" font-style="normal" font-weight="normal" text-decoration="normal" x="516" y="582" text-anchor="start" dominant-baseline="alphabetic" fill-opacity="1">4</text><text fill="rgb(0,0,0)" stroke="none" font-family="geogebra-sans-serif, sans-serif" font-size="12px" font-style="normal" font-weight="normal" text-decoration="normal" x="602" y="582" text-anchor="start" dominant-baseline="alphabetic" fill-opacity="1">6</text><text fill="none" stroke="rgb(255,255,255)" font-family="geogebra-sans-serif, sans-serif" font-size="12px" font-style="normal" font-weight="normal" text-decoration="normal" x="602" y="582" text-anchor="start" dominant-baseline="alphabetic" stroke-opacity="1" stroke-linejoin="bevel" stroke-miterlimit="10" stroke-width="3">6</text><text fill="rgb(0,0,0)" stroke="none" font-family="geogebra-sans-serif, sans-serif" font-size="12px" font-style="normal" font-weight="normal" text-decoration="normal" x="602" y="582" text-anchor="start" dominant-baseline="alphabetic" fill-opacity="1">6</text><text fill="rgb(0,0,0)" stroke="none" font-family="geogebra-sans-serif, sans-serif" font-size="12px" font-style="normal" font-weight="normal" text-decoration="normal" x="689" y="582" text-anchor="start" dominant-baseline="alphabetic" fill-opacity="1">8</text><text fill="none" stroke="rgb(255,255,255)" font-family="geogebra-sans-serif, sans-serif" font-size="12px" font-style="normal" font-weight="normal" text-decoration="normal" x="689" y="582" text-anchor="start" dominant-baseline="alphabetic" stroke-opacity="1" stroke-linejoin="bevel" stroke-miterlimit="10" stroke-width="3">8</text><text fill="rgb(0,0,0)" stroke="none" font-family="geogebra-sans-serif, sans-serif" font-size="12px" font-style="normal" font-weight="normal" text-decoration="normal" x="689" y="582" text-anchor="start" dominant-baseline="alphabetic" fill-opacity="1">8</text><text fill="rgb(0,0,0)" stroke="none" font-family="geogebra-sans-serif, sans-serif" font-size="12px" font-style="normal" font-weight="normal" text-decoration="normal" x="772" y="582" text-anchor="start" dominant-baseline="alphabetic" fill-opacity="1">10</text><text fill="none" stroke="rgb(255,255,255)" font-family="geogebra-sans-serif, sans-serif" font-size="12px" font-style="normal" font-weight="normal" text-decoration="normal" x="772" y="582" text-anchor="start" dominant-baseline="alphabetic" stroke-opacity="1" stroke-linejoin="bevel" stroke-miterlimit="10" stroke-width="3">10</text><text fill="rgb(0,0,0)" stroke="none" font-family="geogebra-sans-serif, sans-serif" font-size="12px" font-style="normal" font-weight="normal" text-decoration="normal" x="772" y="582" text-anchor="start" dominant-baseline="alphabetic" fill-opacity="1">10</text><text fill="rgb(0,0,0)" stroke="none" font-family="geogebra-sans-serif, sans-serif" font-size="12px" font-style="normal" font-weight="normal" text-decoration="normal" x="858" y="582" text-anchor="start" dominant-baseline="alphabetic" fill-opacity="1">12</text><text fill="none" stroke="rgb(255,255,255)" font-family="geogebra-sans-serif, sans-serif" font-size="12px" font-style="normal" font-weight="normal" text-decoration="normal" x="858" y="582" text-anchor="start" dominant-baseline="alphabetic" stroke-opacity="1" stroke-linejoin="bevel" stroke-miterlimit="10" stroke-width="3">12</text><text fill="rgb(0,0,0)" stroke="none" font-family="geogebra-sans-serif, sans-serif" font-size="12px" font-style="normal" font-weight="normal" text-decoration="normal" x="858" y="582" text-anchor="start" dominant-baseline="alphabetic" fill-opacity="1">12</text><text fill="rgb(0,0,0)" stroke="none" font-family="geogebra-sans-serif, sans-serif" font-size="12px" font-style="normal" font-weight="normal" text-decoration="normal" x="325" y="830" text-anchor="start" dominant-baseline="alphabetic" fill-opacity="1">–6</text><text fill="none" stroke="rgb(255,255,255)" font-family="geogebra-sans-serif, sans-serif" font-size="12px" font-style="normal" font-weight="normal" text-decoration="normal" x="325" y="830" text-anchor="start" dominant-baseline="alphabetic" stroke-opacity="1" stroke-linejoin="bevel" stroke-miterlimit="10" stroke-width="3">–6</text><text fill="rgb(0,0,0)" stroke="none" font-family="geogebra-sans-serif, sans-serif" font-size="12px" font-style="normal" font-weight="normal" text-decoration="normal" x="325" y="830" text-anchor="start" dominant-baseline="alphabetic" fill-opacity="1">–6</text><text fill="rgb(0,0,0)" stroke="none" font-family="geogebra-sans-serif, sans-serif" font-size="12px" font-style="normal" font-weight="normal" text-decoration="normal" x="325" y="743" text-anchor="start" dominant-baseline="alphabetic" fill-opacity="1">–4</text><text fill="none" stroke="rgb(255,255,255)" font-family="geogebra-sans-serif, sans-serif" font-size="12px" font-style="normal" font-weight="normal" text-decoration="normal" x="325" y="743" text-anchor="start" dominant-baseline="alphabetic" stroke-opacity="1" stroke-linejoin="bevel" stroke-miterlimit="10" stroke-width="3">–4</text><text fill="rgb(0,0,0)" stroke="none" font-family="geogebra-sans-serif, sans-serif" font-size="12px" font-style="normal" font-weight="normal" text-decoration="normal" x="325" y="743" text-anchor="start" dominant-baseline="alphabetic" fill-opacity="1">–4</text><text fill="rgb(0,0,0)" stroke="none" font-family="geogebra-sans-serif, sans-serif" font-size="12px" font-style="normal" font-weight="normal" text-decoration="normal" x="325" y="657" text-anchor="start" dominant-baseline="alphabetic" fill-opacity="1">–2</text><text fill="none" stroke="rgb(255,255,255)" font-family="geogebra-sans-serif, sans-serif" font-size="12px" font-style="normal" font-weight="normal" text-decoration="normal" x="325" y="657" text-anchor="start" dominant-baseline="alphabetic" stroke-opacity="1" stroke-linejoin="bevel" stroke-miterlimit="10" stroke-width="3">–2</text><text fill="rgb(0,0,0)" stroke="none" font-family="geogebra-sans-serif, sans-serif" font-size="12px" font-style="normal" font-weight="normal" text-decoration="normal" x="325" y="657" text-anchor="start" dominant-baseline="alphabetic" fill-opacity="1">–2</text><text fill="rgb(0,0,0)" stroke="none" font-family="geogebra-sans-serif, sans-serif" font-size="12px" font-style="normal" font-weight="normal" text-decoration="normal" x="332" y="484" text-anchor="start" dominant-baseline="alphabetic" fill-opacity="1">2</text><text fill="none" stroke="rgb(255,255,255)" font-family="geogebra-sans-serif, sans-serif" font-size="12px" font-style="normal" font-weight="normal" text-decoration="normal" x="332" y="484" text-anchor="start" dominant-baseline="alphabetic" stroke-opacity="1" stroke-linejoin="bevel" stroke-miterlimit="10" stroke-width="3">2</text><text fill="rgb(0,0,0)" stroke="none" font-family="geogebra-sans-serif, sans-serif" font-size="12px" font-style="normal" font-weight="normal" text-decoration="normal" x="332" y="484" text-anchor="start" dominant-baseline="alphabetic" fill-opacity="1">2</text><text fill="rgb(0,0,0)" stroke="none" font-family="geogebra-sans-serif, sans-serif" font-size="12px" font-style="normal" font-weight="normal" text-decoration="normal" x="332" y="398" text-anchor="start" dominant-baseline="alphabetic" fill-opacity="1">4</text><text fill="none" stroke="rgb(255,255,255)" font-family="geogebra-sans-serif, sans-serif" font-size="12px" font-style="normal" font-weight="normal" text-decoration="normal" x="332" y="398" text-anchor="start" dominant-baseline="alphabetic" stroke-opacity="1" stroke-linejoin="bevel" stroke-miterlimit="10" stroke-width="3">4</text><text fill="rgb(0,0,0)" stroke="none" font-family="geogebra-sans-serif, sans-serif" font-size="12px" font-style="normal" font-weight="normal" text-decoration="normal" x="332" y="398" text-anchor="start" dominant-baseline="alphabetic" fill-opacity="1">4</text><text fill="rgb(0,0,0)" stroke="none" font-family="geogebra-sans-serif, sans-serif" font-size="12px" font-style="normal" font-weight="normal" text-decoration="normal" x="332" y="312" text-anchor="start" dominant-baseline="alphabetic" fill-opacity="1">6</text><text fill="none" stroke="rgb(255,255,255)" font-family="geogebra-sans-serif, sans-serif" font-size="12px" font-style="normal" font-weight="normal" text-decoration="normal" x="332" y="312" text-anchor="start" dominant-baseline="alphabetic" stroke-opacity="1" stroke-linejoin="bevel" stroke-miterlimit="10" stroke-width="3">6</text><text fill="rgb(0,0,0)" stroke="none" font-family="geogebra-sans-serif, sans-serif" font-size="12px" font-style="normal" font-weight="normal" text-decoration="normal" x="332" y="312" text-anchor="start" dominant-baseline="alphabetic" fill-opacity="1">6</text><text fill="rgb(0,0,0)" stroke="none" font-family="geogebra-sans-serif, sans-serif" font-size="12px" font-style="normal" font-weight="normal" text-decoration="normal" x="332" y="225" text-anchor="start" dominant-baseline="alphabetic" fill-opacity="1">8</text><text fill="none" stroke="rgb(255,255,255)" font-family="geogebra-sans-serif, sans-serif" font-size="12px" font-style="normal" font-weight="normal" text-decoration="normal" x="332" y="225" text-anchor="start" dominant-baseline="alphabetic" stroke-opacity="1" stroke-linejoin="bevel" stroke-miterlimit="10" stroke-width="3">8</text><text fill="rgb(0,0,0)" stroke="none" font-family="geogebra-sans-serif, sans-serif" font-size="12px" font-style="normal" font-weight="normal" text-decoration="normal" x="332" y="225" text-anchor="start" dominant-baseline="alphabetic" fill-opacity="1">8</text><text fill="rgb(0,0,0)" stroke="none" font-family="geogebra-sans-serif, sans-serif" font-size="12px" font-style="normal" font-weight="normal" text-decoration="normal" x="325" y="139" text-anchor="start" dominant-baseline="alphabetic" fill-opacity="1">10</text><text fill="none" stroke="rgb(255,255,255)" font-family="geogebra-sans-serif, sans-serif" font-size="12px" font-style="normal" font-weight="normal" text-decoration="normal" x="325" y="139" text-anchor="start" dominant-baseline="alphabetic" stroke-opacity="1" stroke-linejoin="bevel" stroke-miterlimit="10" stroke-width="3">10</text><text fill="rgb(0,0,0)" stroke="none" font-family="geogebra-sans-serif, sans-serif" font-size="12px" font-style="normal" font-weight="normal" text-decoration="normal" x="325" y="139" text-anchor="start" dominant-baseline="alphabetic" fill-opacity="1">10</text><text fill="rgb(0,0,0)" stroke="none" font-family="geogebra-sans-serif, sans-serif" font-size="12px" font-style="normal" font-weight="normal" text-decoration="normal" x="325" y="53" text-anchor="start" dominant-baseline="alphabetic" fill-opacity="1">12</text><text fill="none" stroke="rgb(255,255,255)" font-family="geogebra-sans-serif, sans-serif" font-size="12px" font-style="normal" font-weight="normal" text-decoration="normal" x="325" y="53" text-anchor="start" dominant-baseline="alphabetic" stroke-opacity="1" stroke-linejoin="bevel" stroke-miterlimit="10" stroke-width="3">12</text><text fill="rgb(0,0,0)" stroke="none" font-family="geogebra-sans-serif, sans-serif" font-size="12px" font-style="normal" font-weight="normal" text-decoration="normal" x="325" y="53" text-anchor="start" dominant-baseline="alphabetic" fill-opacity="1">12</text><text fill="rgb(0,0,0)" stroke="none" font-family="geogebra-sans-serif, sans-serif" font-size="12px" font-style="normal" font-weight="normal" text-decoration="normal" x="332" y="582" text-anchor="start" dominant-baseline="alphabetic" fill-opacity="1">0</text><text fill="none" stroke="rgb(255,255,255)" font-family="geogebra-sans-serif, sans-serif" font-size="12px" font-style="normal" font-weight="normal" text-decoration="normal" x="332" y="582" text-anchor="start" dominant-baseline="alphabetic" stroke-opacity="1" stroke-linejoin="bevel" stroke-miterlimit="10" stroke-width="3">0</text><text fill="rgb(0,0,0)" stroke="none" font-family="geogebra-sans-serif, sans-serif" font-size="12px" font-style="normal" font-weight="normal" text-decoration="normal" x="332" y="582" text-anchor="start" dominant-baseline="alphabetic" fill-opacity="1">0</text><path fill="none" stroke="rgb(0,100,0)" paint-order="fill stroke markers" d=" M 346.05187182570376 920.514254552809 L 346.0542129720966 912.6459389707181 L 346.0565541184894 905.9933729362725 L 346.0588952648822 900.2306581165806 L 346.0635775576679 890.6006181327025 L 346.06825985045356 882.7323025506116 L 346.07294214323923 876.079736516166 L 346.0776244360249 870.3170216964741 L 346.0869890215962 860.686981712596 L 346.09635360716754 852.8186661305051 L 346.1057181927389 846.1661000960594 L 346.11508277831024 840.4033852763675 L 346.1338119494529 830.7733452924895 L 346.1525411205955 822.9050297103986 L 346.1712702917382 816.2524636759529 L 346.18999946288085 810.489748856261 L 346.2274578051662 800.8597088723828 L 346.2649161474515 792.991393290292 L 346.3023744897368 786.3388272558464 L 346.3398328320221 780.5761124361545 L 346.4147495165928 770.9460724522763 L 346.4896662011634 763.0777568701856 L 346.56458288573407 756.4251908357398 L 346.6394995703047 750.6624760160479 L 346.78933293944596 741.0324360321698 L 346.93916630858723 733.1641204500789 L 347.0889996777285 726.5115544156333 L 347.2388330468698 720.7488395959414 L 347.53849978515234 711.1187996120633 L 347.8381665234349 703.2504840299724 L 348.13783326171745 696.5979179955268 L 348.4375 690.8352031758349 M 348.4375 690.8352031758349 L 348.873046875 683.6308321817745 L 349.30859375 677.458845028469 L 349.744140625 672.0601092893428 L 350.1796875 667.2622671097778 L 351.05078125 659.0203496567949 L 351.921875 652.1028915250638 L 352.79296875 646.1425692022074 L 353.6640625 640.906422891701 L 355.40625 632.0245423499385 L 357.1484375 624.662303923779 L 358.890625 618.3748898294405 L 360.6328125 612.8880809249636 L 362.375 608.0208258815743 M 362.375 608.0208258815743 L 365.859375 599.6764890238705 L 369.34375 592.6870940110161 L 372.828125 586.6734715336587 L 376.3125 581.3962499788261 L 379.796875 576.6945936441388 L 383.28125 572.4552089424686 L 386.765625 568.5952761772772 L 390.25 565.0524140061724 M 390.25 565.0524140061724 L 393.734375 561.7784625601997 L 397.21875 558.7354642088516 L 400.703125 555.8929709831896 L 404.1875 553.2261855634362 L 407.671875 550.7146441399542 L 411.15625 548.34126200626 L 414.640625 546.0916282432486 L 418.125 543.9534753370851 L 421.609375 541.9162741173473 L 425.09375 539.9709200798569 L 428.578125 538.1094874182651 L 432.0625 536.3250339494939 L 435.546875 534.6114447969334 L 439.03125 532.9633059429168 L 442.51562500000006 531.3758010528742 L 446 529.8446266135431 M 446 529.8446266135431 L 449.484375 528.3659216176414 L 452.96875 526.9362089017626 L 456.453125 525.5523458941346 L 459.9375 524.2114830171051 L 463.421875 522.9110283596589 L 466.90625 521.6486175189737 L 470.390625 520.4220877291718 L 473.875 519.2294555661016 L 477.359375 518.0688976509164 L 480.84375 516.9387338810865 L 484.328125 515.8374128017103 L 487.8125 514.7634987974593 L 491.296875 513.7156608398392 L 494.78125 512.6926625684913 L 498.265625 511.6933535211375 L 501.75 510.71666135615146 L 505.234375 509.7615849359162 L 508.71875 508.8271881591157 L 512.203125 507.9125944467074 L 515.6875 507.01698180016035 L 519.171875 506.1395783621377 L 522.65625 505.2796584195395 L 526.140625 504.4365387970439 L 529.625 503.6095755962399 L 533.109375 502.798161241359 L 536.59375 502.00172179764934 L 540.078125 501.21971453274574 L 543.5625 500.4516256950815 L 547.046875 499.69696848656696 L 550.53125 498.95528120949945 L 554.015625 498.226125570039 L 557.5 497.5090851226397 L 560.984375 496.80376384161286 L 564.46875 496.1097848075536 L 567.953125 495.4267889977229 L 571.4375 494.754434170666 L 574.921875 494.09239383639226 L 578.40625 493.4403563043596 L 581.890625 492.798023802314 L 585.375 492.1651116597488 L 588.859375 491.5413475503793 L 592.34375 490.92647078858704 L 595.828125 490.32023167528433 L 599.3125 489.72239088909106 L 602.796875 489.1327189191089 L 606.28125 488.55099553592765 L 609.765625 487.97700929781297 L 613.25 487.4105570893047 L 616.734375 486.8514436897057 L 620.21875 486.2994813691675 L 623.703125 485.7544895102816 L 627.1875 485.2162942532676 L 630.671875 484.6847281630148 L 634.15625 484.1596299163807 L 637.640625 483.6408440082856 L 641.125 483.1282204752647 L 644.609375 482.621614635246 L 648.09375 482.1208868424261 L 651.578125 481.6259022562043 L 655.0625 481.1365306232174 L 658.546875 480.6526460715961 L 662.03125 480.174126916627 L 665.515625 479.70085547707237 L 669 479.23271790145213 L 672.484375 478.7696040036475 L 675.96875 478.3114071072316 L 679.453125 477.85802389797885 L 682.9375 477.4093542840396 L 686.421875 476.9653012633105 L 689.90625 476.52577079755804 L 693.390625 476.09067169288824 L 696.875 475.6599154861815 L 700.359375 475.23341633713983 L 703.84375 474.8110909256161 L 707.328125 474.39285835391877 L 710.8125 473.9786400538044 L 714.296875 473.5683596978927 L 717.78125 473.1619431152518 L 721.265625 472.75931821092195 L 724.75 472.3604148891584 L 728.234375 471.96516498018946 L 731.71875 471.5735021702983 L 735.203125 471.1853619350488 L 738.6875 470.8006814754875 L 742.171875 470.41939965716443 L 745.65625 470.04145695182314 L 749.140625 469.66679538162305 L 752.625 469.29535846576135 L 756.109375 468.9270911693729 L 759.59375 468.5619398545919 L 763.078125 468.19985223366655 L 766.5625 467.84077732402426 L 770.046875 467.4846654051911 L 773.53125 467.131467977474 L 777.015625 466.7811377223199 L 780.5 466.4336284642711 L 783.984375 466.0888951344405 L 787.46875 465.74689373543333 L 790.953125 465.4075813076486 L 794.4375 465.07091589689486 L 797.921875 464.7368565232591 L 801.40625 464.40536315117157 L 804.890625 464.0763966606115 L 808.375 463.7499188194022 L 811.859375 463.4258922565454 L 815.34375 463.1042804365508 L 818.828125 462.78504763471324 L 822.3125 462.468158913299 L 825.796875 462.15358009859926 L 829.28125 461.84127775881433 L 832.765625 461.5312191827318 L 836.25 461.22337235916575 L 839.734375 460.91770595712376 L 843.21875 460.6141893066716 L 846.703125 460.3127923804658 L 850.1875 460.01348577592694 L 853.671875 459.7162406980267 L 857.15625 459.4210289426638 L 860.640625 459.1278228806044 L 864.125 458.8365954419648 L 867.609375 458.5473201012137 L 871.09375 458.2599708626744 L 874.578125 457.97452224650556 L 878.0625 457.6909492751438 L 881.546875 457.4092274601874 L 885.0312500000001 457.12933278970684 L 888.515625 456.85124171596266 L 892 456.5749311435179" stroke-opacity="0.6980392156862745" stroke-linecap="round" stroke-linejoin="round" stroke-miterlimit="10" stroke-width="2.5"/><g transform="scale(19,19)"><g transform="translate(14.736842105263158,46.69736842105263)"><path fill="rgb(0,100,0)" stroke="none" paint-order="stroke fill markers" d=" M 0.177 -0.6940000000000001 L 0.177 -0.076 Q 0.177 -0.042 0.193 -0.036000000000000004 Q 0.20400000000000001 -0.031 0.255 -0.031 L 0.255 0 L 0.14400000000000002 -0.003 Q 0.132 -0.003 0.033 0 L 0.033 -0.031 Q 0.092 -0.031 0.10200000000000001 -0.04 L 0.10400000000000001 -0.042 Q 0.111 -0.05 0.111 -0.076 L 0.111 -0.596 Q 0.111 -0.635 0.097 -0.644 L 0.096 -0.644 Q 0.085 -0.65 0.058 -0.652 L 0.033 -0.652 L 0.033 -0.683 L 0.177 -0.6940000000000001 Z"/></g><g transform="translate(15.014621105263158,46.69736842105263)"><path fill="rgb(0,100,0)" stroke="none" paint-order="stroke fill markers" d=" M 0.11 -0.34400000000000003 Q 0.11 -0.383 0.095 -0.392 Q 0.083 -0.399 0.052000000000000005 -0.4 L 0.032 -0.4 L 0.032 -0.431 L 0.17300000000000001 -0.442 L 0.17300000000000001 -0.337 Q 0.22 -0.442 0.321 -0.442 Q 0.396 -0.442 0.426 -0.405 Q 0.453 -0.374 0.456 -0.32 Q 0.457 -0.301 0.457 -0.252 L 0.457 -0.061 Q 0.458 -0.037 0.486 -0.033 Q 0.498 -0.031 0.535 -0.031 L 0.535 0 Q 0.433 -0.003 0.423 -0.003 Q 0.41500000000000004 -0.003 0.31 0 L 0.31 -0.031 Q 0.369 -0.031 0.379 -0.04 L 0.381 -0.042 Q 0.388 -0.05 0.388 -0.076 L 0.388 -0.309 Q 0.388 -0.40800000000000003 0.331 -0.418 Q 0.323 -0.42 0.314 -0.42 Q 0.253 -0.42 0.212 -0.367 Q 0.179 -0.324 0.179 -0.26 L 0.179 -0.076 Q 0.179 -0.042 0.195 -0.036000000000000004 Q 0.20600000000000002 -0.031 0.257 -0.031 L 0.257 0 Q 0.155 -0.003 0.145 -0.003 Q 0.137 -0.003 0.032 0 L 0.032 -0.031 Q 0.091 -0.031 0.101 -0.04 L 0.10300000000000001 -0.042 Q 0.11 -0.05 0.11 -0.076 L 0.11 -0.34400000000000003 Z"/></g><g transform="translate(15.570178105263157,46.69736842105263)"><path fill="rgb(0,100,0)" stroke="none" paint-order="stroke fill markers" d=" M 0.331 0.24 L 0.331 0.24 Q 0.331 0.25 0.321 0.25 Q 0.309 0.25 0.268 0.209 Q 0.20600000000000002 0.147 0.165 0.062 Q 0.099 -0.074 0.099 -0.25 Q 0.099 -0.419 0.162 -0.555 Q 0.214 -0.666 0.294 -0.733 Q 0.315 -0.75 0.321 -0.75 Q 0.331 -0.75 0.331 -0.74 Q 0.331 -0.735 0.318 -0.723 Q 0.157 -0.559 0.157 -0.25 Q 0.157 0.058 0.314 0.218 Q 0.331 0.23500000000000001 0.331 0.24 Z"/></g><g transform="translate(15.959068105263157,46.69736842105263)"><path fill="rgb(0,100,0)" stroke="none" paint-order="stroke fill markers" d=" M 0.334 -0.302 L 0.3 -0.165 Q 0.28300000000000003 -0.097 0.28300000000000003 -0.077 Q 0.28300000000000003 -0.025 0.32 -0.014 Q 0.328 -0.011 0.338 -0.011 Q 0.388 -0.011 0.429 -0.061 Q 0.456 -0.093 0.47100000000000003 -0.14200000000000002 Q 0.47400000000000003 -0.153 0.484 -0.153 Q 0.496 -0.153 0.496 -0.14300000000000002 Q 0.496 -0.11800000000000001 0.465 -0.07100000000000001 Q 0.41100000000000003 0.011 0.336 0.011 Q 0.268 0.011 0.23700000000000002 -0.046 Q 0.231 -0.055 0.228 -0.065 Q 0.20400000000000001 -0.017 0.162 0.002 Q 0.14300000000000002 0.011 0.123 0.011 Q 0.063 0.011 0.039 -0.024 Q 0.029 -0.037 0.029 -0.055 Q 0.029 -0.092 0.061 -0.107 Q 0.07200000000000001 -0.113 0.084 -0.113 Q 0.114 -0.113 0.12 -0.088 Q 0.121 -0.083 0.121 -0.078 Q 0.121 -0.044 0.08700000000000001 -0.028 Q 0.081 -0.025 0.074 -0.024 Q 0.095 -0.011 0.124 -0.011 Q 0.177 -0.011 0.20800000000000002 -0.082 Q 0.214 -0.097 0.219 -0.115 Q 0.273 -0.319 0.273 -0.353 Q 0.267 -0.41500000000000004 0.219 -0.42 Q 0.167 -0.42 0.124 -0.367 L 0.124 -0.366 Q 0.124 -0.365 0.123 -0.365 Q 0.108 -0.34500000000000003 0.096 -0.319 Q 0.091 -0.307 0.08700000000000001 -0.295 L 0.085 -0.289 Q 0.083 -0.278 0.07200000000000001 -0.278 Q 0.06 -0.278 0.06 -0.28800000000000003 Q 0.06 -0.313 0.092 -0.36 Q 0.146 -0.442 0.221 -0.442 Q 0.298 -0.442 0.329 -0.366 Q 0.361 -0.428 0.41400000000000003 -0.44 Q 0.424 -0.442 0.434 -0.442 Q 0.493 -0.442 0.517 -0.40900000000000003 Q 0.527 -0.395 0.527 -0.376 Q 0.527 -0.335 0.49 -0.321 Q 0.481 -0.318 0.47300000000000003 -0.318 Q 0.442 -0.318 0.436 -0.34500000000000003 Q 0.435 -0.34900000000000003 0.435 -0.353 Q 0.435 -0.383 0.464 -0.4 Q 0.47300000000000003 -0.405 0.483 -0.40700000000000003 Q 0.462 -0.42 0.433 -0.42 Q 0.365 -0.42 0.337 -0.314 Q 0.335 -0.308 0.334 -0.302 Z"/></g><g transform="translate(16.530596105263157,46.69736842105263)"><path fill="rgb(0,100,0)" stroke="none" paint-order="stroke fill markers" d=" M 0.289 -0.25 L 0.289 -0.25 Q 0.289 -0.081 0.226 0.055 Q 0.17400000000000002 0.166 0.094 0.233 Q 0.073 0.25 0.067 0.25 Q 0.057 0.25 0.057 0.24 Q 0.057 0.23500000000000001 0.07 0.223 Q 0.231 0.059000000000000004 0.231 -0.25 Q 0.231 -0.555 0.081 -0.712 L 0.076 -0.717 Q 0.057 -0.735 0.057 -0.74 Q 0.057 -0.75 0.067 -0.75 Q 0.079 -0.75 0.12 -0.709 Q 0.182 -0.647 0.223 -0.562 Q 0.289 -0.426 0.289 -0.25 Z"/></g></g><path fill="none" stroke="rgb(204,0,0)" paint-order="fill stroke markers" d=" M 0 517.554868727203 L 3.484375 517.5001224536844 L 6.96875 517.4442510098464 L 10.453125 517.3872193480125 L 13.9375 517.3289909496451 L 17.421875000000057 517.2695277473665 L 20.90625 517.2087900419666 L 24.390625 517.1467364140162 L 27.875 517.083323629672 L 31.359375 517.0185065402244 L 34.84375 516.9522379748961 L 38.328125 516.8844686263584 L 41.8125 516.8151469283789 L 45.296875 516.7442189249651 L 48.78125 516.6716281303044 L 52.265625 516.5973153787361 L 55.75 516.52121866392 L 59.234375 516.4432729662806 L 62.71875 516.3634100677182 L 66.203125 516.2815583524781 L 69.6875 516.1976425929549 L 73.17187500000006 516.111583719086 L 76.65625 516.0232985698476 L 80.140625 515.9326996252141 L 83.62500000000006 515.8396947167608 L 87.109375 515.7441867149015 L 90.59375 515.6460731905294 L 94.07812500000003 515.5452460485822 L 97.56250000000003 515.4415911307768 L 101.046875 515.3349877844443 L 104.53125000000003 515.2253083940394 L 108.015625 515.1124178715036 L 111.50000000000003 514.9961731011983 L 114.98437500000003 514.8764223346175 L 118.46875 514.7530045294912 L 121.95312500000003 514.6257486272343 L 125.4375 514.4944727619163 L 128.921875 514.3589833930662 L 132.40625000000003 514.2190743536111 L 135.890625 514.0745258031028 L 139.375 513.9251030750523 L 142.85937500000003 513.7705554056602 L 146.34375 513.6106145294588 L 149.828125 513.4449931253201 L 153.31250000000003 513.2733830938947 L 156.796875 513.0954536447528 L 160.28125 512.9108491682431 L 163.76562500000003 512.7191868632624 L 167.25000000000003 512.5200540876343 L 170.734375 512.3130053925064 L 174.21875000000003 512.0975591959088 L 177.70312500000003 511.8731940431932 L 181.1875 511.6393443932291 L 184.67187500000003 511.39539585867533 L 188.15625000000003 511.14067981599135 L 191.640625 510.87446728562423 L 195.12500000000003 510.5959619644197 L 198.60937500000003 510.30429227000144 L 202.09375 509.99850222970633 L 205.578125 509.6775410134358 L 209.06250000000003 509.3402508689562 L 212.54687500000003 508.9853531677591 L 216.03125 508.61143220700774 L 219.51562500000003 508.21691633500274 L 223 507.8000558695993 L 226.484375 507.35889715530556 L 229.96875000000003 506.891251947664 L 233.453125 506.39466111262965 L 236.9375 505.8663513700237 L 240.42187500000003 505.3031834747185 L 243.90625000000003 504.7015897907966 L 247.390625 504.057498636148 L 250.875 503.36624200679694 L 254.35937500000003 502.6224422593256 L 257.84375 501.8198719322802 L 261.328125 500.9512789726269 L 264.8125 500.00816697926655 L 268.296875 498.98051635098 L 271.78125 497.85642692863905 L 275.265625 496.62165507670005 L 278.75 495.2590069414538 L 282.234375 493.7475329076531 L 285.71875000000006 492.06144286920363 L 289.203125 490.1686225061395 L 292.6875 488.02856816451606 L 296.17187500000006 485.589455977394 L 299.65625 482.78388997426265 L 303.140625 479.5225781149787 L 306.62500000000006 475.68465402056336 L 310.109375 471.1023674248276 L 313.59375 465.5359102007618 L 317.078125 458.6300705535217 L 320.5625 449.8353188738905 L 322.3046875 444.46963900043113 L 324.046875 438.25387985828013 L 325.78906250000006 430.9686463706605 L 327.53125 422.3119395182658 L 328.40234375 417.3422821583052 L 329.2734375 411.85624052675576 L 330.14453125 405.7689197862609 L 331.01562500000006 398.97573694745546 L 331.88671875000006 391.3463621944436 L 332.7578125 382.7162761417587 L 333.62890625 372.8747717291157 L 334.064453125 367.4171283368479 L 334.5 361.54752215218053 L 334.935546875 355.21747899424014 L 335.37109375 348.37060917560626 L 335.80664062500006 340.9409230514583 L 336.24218750000006 332.8506972981114 L 336.67773437500006 324.0077456182593 L 337.11328125 314.3018904648327 L 337.3310546875 309.08491700409377 L 337.548828125 303.6003489079572 L 337.7666015625 297.8270556213689 L 337.984375 291.7416216871183 L 338.2021484375 285.3180293243814 L 338.419921875 278.52728657911695 L 338.6376953125 271.3369898377564 L 338.85546875 263.71080677771164 L 339.0732421875 255.60786234569247 L 339.291015625 246.9820058609622 L 339.5087890625 237.78093149826327 L 339.7265625 227.94511674906147 L 339.83544921875 222.7682959665209 L 339.9443359375 217.40653334205695 L 340.05322265625 211.8497380619536 L 340.162109375 206.08707161259355 L 340.27099609375 200.10687722042144 L 340.3798828125 193.89660114770328 L 340.48876953125 187.4427047259535 L 340.59765625 180.73056582979393 L 340.70654296875 173.74436828229625 L 340.81542968750006 166.46697743111923 L 340.92431640625 158.87979983512184 L 341.03320312500006 150.96262464251083 L 341.14208984375 142.69344381156907 L 341.25097656250006 134.04824780663353 L 341.35986328125 125.00079277546212 L 341.46875000000006 115.52233445288647 L 341.57763671875 105.58132310765495 L 341.632080078125 100.4266483700614 L 341.68652343750006 95.14305271205296 L 341.740966796875 89.72563832300659 L 341.79541015625 84.16925611445873 L 341.849853515625 78.46848939627546 L 341.90429687500006 72.61763626349051 L 341.958740234375 66.61069057348374 L 342.01318359375 60.44132138004392 L 342.06762695312506 54.1028506763476 L 342.1220703125 47.58822928228142 L 342.176513671875 40.89001069310984 L 342.23095703125 34.00032268556811 L 342.28540039062506 26.910836453671095 L 342.33984375 19.61273301989661 L 342.394287109375 12.096666636877558 L 342.44873046875 4.352724860336139 L 342.50317382812506 -3.6296150655130077 L 342.5576171875 -11.861533913540597 M 350.72412109375 920.5630932420391 L 350.83300781250006 911.5295815844586 L 350.94189453125006 902.8974097627026 L 351.05078125 894.6404129787652 L 351.15966796875 886.7346524316603 L 351.26855468750006 879.1581835237516 L 351.37744140625006 871.8908524402158 L 351.486328125 864.9141171308149 L 351.59521484375 858.2108893456867 L 351.70410156250006 851.7653948919435 L 351.81298828125006 845.5630497052287 L 351.921875 839.5903496868526 L 352.03076171875 833.8347725550061 L 352.13964843750006 828.2846902088081 L 352.24853515625 822.9292903144415 L 352.357421875 817.758506000723 L 352.57519531250006 807.9338713165973 L 352.79296875 798.742912626356 L 353.01074218750006 790.126238368552 L 353.228515625 782.0316541301022 L 353.44628906250006 774.4131045030587 L 353.6640625 767.2297962939581 L 353.88183593750006 760.445467830875 L 354.099609375 754.0277767344147 L 354.31738281250006 747.9477843350812 L 354.53515625 742.1795193940332 L 354.75292968750006 736.6996072519785 L 354.970703125 731.4869532378962 L 355.40625 721.7888504715061 L 355.84179687500006 712.952640679376 L 356.27734375000006 704.868314597978 L 356.71289062500006 697.4438205868113 L 357.14843750000006 690.6015441046828 L 357.58398437500006 684.2755841596078 L 358.01953125000006 678.4096238972392 L 358.45507812500006 672.9552494205316 L 358.89062500000006 667.8706104957975 L 359.76171875000006 658.6697064082421 L 360.6328125 650.5672802556534 L 361.50390625 643.3776957196504 L 362.375 636.9549144692331 L 363.24609375 631.1824724177977 L 364.1171875 625.9663541190688 L 365.859375 616.9096703211521 L 367.60156250000006 609.316569030313 L 369.34375000000006 602.8587957824346 L 371.0859375 597.299429826374 L 372.828125 592.4631841282219 L 376.31250000000006 584.4606624465107 L 379.79687500000006 578.1101848999161 L 383.28125 572.9480425401874 L 386.76562500000006 568.6692218307354 L 390.25000000000006 565.0648671661507 L 393.734375 561.9871560321924 L 397.21875000000006 559.3285225246111 L 400.703125 557.0088269857506 L 404.1875 554.967138660643 L 407.67187500000006 553.1563057793983 L 411.15625 551.5392689756227 L 414.640625 550.0864982045525 L 418.12500000000006 548.7741730135341 L 421.609375 547.5828662413569 L 425.09375 546.4965758221188 L 428.57812500000006 545.502001825959 L 432.0625 544.5879992026161 L 435.546875 543.7451583487009 L 439.03125000000006 542.9654799718103 L 442.515625 542.2421204116483 L 446 541.5691902263452 L 449.48437500000006 540.9415934848222 L 452.96875 540.3548984800726 L 456.453125 539.805232922363 L 459.93750000000006 539.2891983700853 L 463.421875 538.8037999008882 L 466.90625 538.3463879476176 L 470.39062500000006 537.9146099130103 L 473.875 537.506369697374 L 477.359375 537.1197936695318 L 480.84375000000006 536.7532019152227 L 484.328125 536.4050838321432 L 487.8125 536.0740773238301 L 491.29687500000006 535.7589509880901 L 494.78125 535.4585888089267 L 498.265625 535.1719769508403 L 501.75 534.8981923261786 L 505.234375 534.636392663886 L 508.71875 534.3858078545431 L 512.203125 534.1457323843551 L 515.6875 533.9155187015253 L 519.171875 533.6945713836634 L 522.65625 533.4823419956032 L 526.140625 533.278324544131 L 529.625 533.0820514503203 L 533.109375 532.893089971983 L 536.59375 532.7110390186289 L 540.078125 532.5355263095869 L 543.5625 532.3662058329217 L 547.046875 532.2027555686398 L 550.53125 532.0448754446664 L 554.015625 531.8922854982925 L 557.5 531.7447242193925 L 560.984375 531.6019470547869 L 564.46875 531.4637250557557 L 567.953125 531.3298436529676 L 571.4375 531.2001015450395 L 574.921875 531.0743096886143 L 578.40625 530.9522903793043 L 581.890625 530.8338764140994 L 585.375 530.7189103269429 L 588.859375 530.6072436901202 L 592.34375 530.498736474947 L 595.828125 530.3932564659652 L 599.3125 530.2906787234934 L 602.796875 530.1908850899389 L 606.28125 530.0937637357702 L 609.765625 529.9992087414805 L 613.25 529.9071197122598 L 616.734375 529.8174014224242 L 620.21875 529.7299634869597 L 623.703125 529.6447200577958 L 627.1875 529.5615895426644 L 630.671875 529.4804943446082 L 634.15625 529.4013606203922 L 637.640625 529.3241180562335 L 641.125 529.2486996594232 L 644.609375 529.1750415645364 L 648.09375 529.1030828530575 L 651.578125 529.0327653853453 L 655.0625 528.9640336439687 L 658.546875 528.8968345875204 L 662.03125 528.8311175141041 L 665.515625 528.7668339337547 L 669 528.7039374491166 L 672.484375 528.6423836437644 L 675.96875 528.5821299776 L 679.453125 528.5231356888078 L 682.9375 528.4653617018959 L 686.421875 528.4087705413837 L 689.90625 528.3533262507382 L 693.390625 528.2989943161888 L 696.8750000000001 528.2457415950821 L 700.359375 528.1935362484638 L 703.84375 528.1423476776009 L 707.328125 528.0921464641751 L 710.8125 528.0429043139061 L 714.296875 527.9945940033739 L 717.7812500000001 527.9471893298322 L 721.265625 527.9006650638187 L 724.75 527.8549969043801 L 728.234375 527.8101614367474 L 731.71875 527.7661360923058 L 735.203125 527.7228991107133 L 738.6875000000001 527.6804295040383 L 742.171875 527.6387070227888 L 745.65625 527.5977121237185 L 749.140625 527.5574259393038 L 752.625 527.517830248789 L 756.109375 527.4789074507088 L 759.5937500000001 527.4406405367985 L 763.078125 527.4030130672136 L 766.5625 527.3660091469803 L 770.046875 527.3296134036078 L 773.53125 527.2938109657946 L 777.015625 527.2585874431686 L 780.5000000000001 527.223928907002 L 783.984375 527.1898218718463 L 787.46875 527.1562532780374 L 790.953125 527.1232104750229 L 794.4375 527.0906812054666 L 797.9218750000001 527.0586535900882 L 801.40625 527.0271161131997 L 804.890625 526.9960576088996 L 808.375 526.9654672478931 L 811.859375 526.9353345249019 L 815.34375 526.9056492466364 L 818.8281250000001 526.8764015202987 L 822.3125 526.8475817425913 L 825.796875 526.8191805892036 L 829.28125 526.7911890047542 L 832.765625 526.7635981931646 L 836.25 526.736399608444 L 839.7343750000001 526.7095849458635 L 843.21875 526.6831461335025 L 846.703125 526.6570753241471 L 850.1875 526.6313648875248 L 853.671875 526.6060074028599 L 857.15625 526.5809956517314 L 860.6406250000001 526.5563226112233 L 864.125 526.5319814473497 L 867.609375 526.5079655087441 L 871.09375 526.4842683205999 L 874.578125 526.4608835788507 L 878.0625000000001 526.437805144579 L 881.5468750000001 526.4150270386433 L 885.03125 526.3925434365138 L 888.515625 526.3703486633071 L 892 526.3484371890102" stroke-opacity="0.6980392156862745" stroke-linecap="round" stroke-linejoin="round" stroke-miterlimit="10" stroke-width="2.5"/><g transform="scale(19,19)"><g transform="translate(4.589237726941052,26.276022947368425)"><path fill="rgb(204,0,0)" stroke="none" paint-order="stroke fill markers" d=" M 0.334 -0.302 L 0.3 -0.165 Q 0.28300000000000003 -0.097 0.28300000000000003 -0.077 Q 0.28300000000000003 -0.025 0.32 -0.014 Q 0.328 -0.011 0.338 -0.011 Q 0.388 -0.011 0.429 -0.061 Q 0.456 -0.093 0.47100000000000003 -0.14200000000000002 Q 0.47400000000000003 -0.153 0.484 -0.153 Q 0.496 -0.153 0.496 -0.14300000000000002 Q 0.496 -0.11800000000000001 0.465 -0.07100000000000001 Q 0.41100000000000003 0.011 0.336 0.011 Q 0.268 0.011 0.23700000000000002 -0.046 Q 0.231 -0.055 0.228 -0.065 Q 0.20400000000000001 -0.017 0.162 0.002 Q 0.14300000000000002 0.011 0.123 0.011 Q 0.063 0.011 0.039 -0.024 Q 0.029 -0.037 0.029 -0.055 Q 0.029 -0.092 0.061 -0.107 Q 0.07200000000000001 -0.113 0.084 -0.113 Q 0.114 -0.113 0.12 -0.088 Q 0.121 -0.083 0.121 -0.078 Q 0.121 -0.044 0.08700000000000001 -0.028 Q 0.081 -0.025 0.074 -0.024 Q 0.095 -0.011 0.124 -0.011 Q 0.177 -0.011 0.20800000000000002 -0.082 Q 0.214 -0.097 0.219 -0.115 Q 0.273 -0.319 0.273 -0.353 Q 0.267 -0.41500000000000004 0.219 -0.42 Q 0.167 -0.42 0.124 -0.367 L 0.124 -0.366 Q 0.124 -0.365 0.123 -0.365 Q 0.108 -0.34500000000000003 0.096 -0.319 Q 0.091 -0.307 0.08700000000000001 -0.295 L 0.085 -0.289 Q 0.083 -0.278 0.07200000000000001 -0.278 Q 0.06 -0.278 0.06 -0.28800000000000003 Q 0.06 -0.313 0.092 -0.36 Q 0.146 -0.442 0.221 -0.442 Q 0.298 -0.442 0.329 -0.366 Q 0.361 -0.428 0.41400000000000003 -0.44 Q 0.424 -0.442 0.434 -0.442 Q 0.493 -0.442 0.517 -0.40900000000000003 Q 0.527 -0.395 0.527 -0.376 Q 0.527 -0.335 0.49 -0.321 Q 0.481 -0.318 0.47300000000000003 -0.318 Q 0.442 -0.318 0.436 -0.34500000000000003 Q 0.435 -0.34900000000000003 0.435 -0.353 Q 0.435 -0.383 0.464 -0.4 Q 0.47300000000000003 -0.405 0.483 -0.40700000000000003 Q 0.462 -0.42 0.433 -0.42 Q 0.365 -0.42 0.337 -0.314 Q 0.335 -0.308 0.334 -0.302 Z"/></g><g transform="translate(5.382988615829941,26.276022947368425)"><path fill="rgb(204,0,0)" stroke="none" paint-order="stroke fill markers" d=" M 0.661 -0.23 L 0.116 -0.23 Q 0.084 -0.23 0.083 -0.25 Q 0.083 -0.27 0.116 -0.27 L 0.661 -0.27 Q 0.6930000000000001 -0.27 0.6940000000000001 -0.25 Q 0.6940000000000001 -0.23 0.661 -0.23 Z"/></g><g transform="translate(6.38299250471883,26.276022947368425)"><path fill="rgb(204,0,0)" stroke="none" paint-order="stroke fill markers" d=" M 0.294 -0.64 L 0.294 -0.079 Q 0.294 -0.049 0.306 -0.041 Q 0.323 -0.031 0.387 -0.031 L 0.419 -0.031 L 0.419 0 Q 0.384 -0.003 0.257 -0.003 Q 0.13 -0.003 0.095 0 L 0.095 -0.031 L 0.127 -0.031 Q 0.20400000000000001 -0.031 0.215 -0.049 L 0.216 -0.05 Q 0.22 -0.058 0.22 -0.079 L 0.22 -0.597 Q 0.168 -0.5710000000000001 0.089 -0.5710000000000001 L 0.089 -0.602 Q 0.209 -0.602 0.271 -0.666 Q 0.29 -0.666 0.293 -0.659 L 0.293 -0.659 L 0.293 -0.658 Q 0.294 -0.655 0.294 -0.64 Z"/></g><rect fill="rgb(204,0,0)" stroke="none" x="4.589237726941052" y="26.682531447368426" width="2.293756777777778" height="0.039999"/><g transform="translate(5.450352115829941,27.638481947368426)"><path fill="rgb(204,0,0)" stroke="none" paint-order="stroke fill markers" d=" M 0.334 -0.302 L 0.3 -0.165 Q 0.28300000000000003 -0.097 0.28300000000000003 -0.077 Q 0.28300000000000003 -0.025 0.32 -0.014 Q 0.328 -0.011 0.338 -0.011 Q 0.388 -0.011 0.429 -0.061 Q 0.456 -0.093 0.47100000000000003 -0.14200000000000002 Q 0.47400000000000003 -0.153 0.484 -0.153 Q 0.496 -0.153 0.496 -0.14300000000000002 Q 0.496 -0.11800000000000001 0.465 -0.07100000000000001 Q 0.41100000000000003 0.011 0.336 0.011 Q 0.268 0.011 0.23700000000000002 -0.046 Q 0.231 -0.055 0.228 -0.065 Q 0.20400000000000001 -0.017 0.162 0.002 Q 0.14300000000000002 0.011 0.123 0.011 Q 0.063 0.011 0.039 -0.024 Q 0.029 -0.037 0.029 -0.055 Q 0.029 -0.092 0.061 -0.107 Q 0.07200000000000001 -0.113 0.084 -0.113 Q 0.114 -0.113 0.12 -0.088 Q 0.121 -0.083 0.121 -0.078 Q 0.121 -0.044 0.08700000000000001 -0.028 Q 0.081 -0.025 0.074 -0.024 Q 0.095 -0.011 0.124 -0.011 Q 0.177 -0.011 0.20800000000000002 -0.082 Q 0.214 -0.097 0.219 -0.115 Q 0.273 -0.319 0.273 -0.353 Q 0.267 -0.41500000000000004 0.219 -0.42 Q 0.167 -0.42 0.124 -0.367 L 0.124 -0.366 Q 0.124 -0.365 0.123 -0.365 Q 0.108 -0.34500000000000003 0.096 -0.319 Q 0.091 -0.307 0.08700000000000001 -0.295 L 0.085 -0.289 Q 0.083 -0.278 0.07200000000000001 -0.278 Q 0.06 -0.278 0.06 -0.28800000000000003 Q 0.06 -0.313 0.092 -0.36 Q 0.146 -0.442 0.221 -0.442 Q 0.298 -0.442 0.329 -0.366 Q 0.361 -0.428 0.41400000000000003 -0.44 Q 0.424 -0.442 0.434 -0.442 Q 0.493 -0.442 0.517 -0.40900000000000003 Q 0.527 -0.395 0.527 -0.376 Q 0.527 -0.335 0.49 -0.321 Q 0.481 -0.318 0.47300000000000003 -0.318 Q 0.442 -0.318 0.436 -0.34500000000000003 Q 0.435 -0.34900000000000003 0.435 -0.353 Q 0.435 -0.383 0.464 -0.4 Q 0.47300000000000003 -0.405 0.483 -0.40700000000000003 Q 0.462 -0.42 0.433 -0.42 Q 0.365 -0.42 0.337 -0.314 Q 0.335 -0.308 0.334 -0.302 Z"/></g></g><path fill="none" stroke="rgb(0,0,0)" paint-order="fill stroke markers" d=" M 42.2897589812533 913 L 897 58.28975898125384" stroke-opacity="0.6980392156862745" stroke-linecap="round" stroke-linejoin="round" stroke-miterlimit="10" stroke-width="2.5"/><text fill="rgb(0,0,0)" stroke="none" font-family="geogebra-sans-serif, sans-serif" font-size="16px" font-style="normal" font-weight="normal" text-decoration="normal" x="130" y="855" text-anchor="start" dominant-baseline="alphabetic" fill-opacity="1">y = x - 1</text><text fill="none" stroke="rgb(255,255,255)" font-family="geogebra-sans-serif, sans-serif" font-size="16px" font-style="normal" font-weight="normal" text-decoration="normal" x="130" y="855" text-anchor="start" dominant-baseline="alphabetic" stroke-opacity="1" stroke-linejoin="bevel" stroke-miterlimit="10" stroke-width="3">y = x - 1</text><text fill="rgb(0,0,0)" stroke="none" font-family="geogebra-sans-serif, sans-serif" font-size="16px" font-style="normal" font-weight="normal" text-decoration="normal" x="130" y="855" text-anchor="start" dominant-baseline="alphabetic" fill-opacity="1">y = x - 1</text></g></g></svg>