<svg version="1.1" xmlns="http://www.w3.org/2000/svg" xmlns:xlink="http://www.w3.org/1999/xlink" width="892" height="908"><defs><clipPath id="ddETryusGsVU"><path fill="none" stroke="none" d=" M 0 0 L 892 0 L 892 908 L 0 908 L 0 0 Z"/></clipPath></defs><g transform="scale(1,1)" clip-path="url(#ddETryusGsVU)"><g><rect fill="rgb(255,255,255)" stroke="none" x="0" y="0" width="892" height="908" fill-opacity="1"/><path fill="none" stroke="rgb(192,192,192)" paint-order="fill stroke markers" d=" M 9.5 0.5 L 9.5 908.5 M 9.5 0.5 L 9.5 908.5 M 85.5 0.5 L 85.5 908.5 M 162.5 0.5 L 162.5 908.5 M 238.5 0.5 L 238.5 908.5 M 315.5 0.5 L 315.5 908.5 M 468.5 0.5 L 468.5 908.5 M 544.5 0.5 L 544.5 908.5 M 621.5 0.5 L 621.5 908.5 M 698.5 0.5 L 698.5 908.5 M 774.5 0.5 L 774.5 908.5 M 851.5 0.5 L 851.5 908.5" stroke-opacity="1" stroke-linecap="round" stroke-linejoin="round" stroke-miterlimit="10"/><path fill="none" stroke="rgb(192,192,192)" paint-order="fill stroke markers" d=" M 24.5 0.5 L 24.5 908.5 M 39.5 0.5 L 39.5 908.5 M 55.5 0.5 L 55.5 908.5 M 70.5 0.5 L 70.5 908.5 M 100.5 0.5 L 100.5 908.5 M 116.5 0.5 L 116.5 908.5 M 131.5 0.5 L 131.5 908.5 M 146.5 0.5 L 146.5 908.5 M 177.5 0.5 L 177.5 908.5 M 192.5 0.5 L 192.5 908.5 M 208.5 0.5 L 208.5 908.5 M 223.5 0.5 L 223.5 908.5 M 254.5 0.5 L 254.5 908.5 M 269.5 0.5 L 269.5 908.5 M 284.5 0.5 L 284.5 908.5 M 299.5 0.5 L 299.5 908.5 M 330.5 0.5 L 330.5 908.5 M 345.5 0.5 L 345.5 908.5 M 361.5 0.5 L 361.5 908.5 M 376.5 0.5 L 376.5 908.5 M 407.5 0.5 L 407.5 908.5 M 422.5 0.5 L 422.5 908.5 M 437.5 0.5 L 437.5 908.5 M 453.5 0.5 L 453.5 908.5 M 483.5 0.5 L 483.5 908.5 M 499.5 0.5 L 499.5 908.5 M 514.5 0.5 L 514.5 908.5 M 529.5 0.5 L 529.5 908.5 M 560.5 0.5 L 560.5 908.5 M 575.5 0.5 L 575.5 908.5 M 590.5 0.5 L 590.5 908.5 M 606.5 0.5 L 606.5 908.5 M 636.5 0.5 L 636.5 908.5 M 652.5 0.5 L 652.5 908.5 M 667.5 0.5 L 667.5 908.5 M 682.5 0.5 L 682.5 908.5 M 713.5 0.5 L 713.5 908.5 M 728.5 0.5 L 728.5 908.5 M 743.5 0.5 L 743.5 908.5 M 759.5 0.5 L 759.5 908.5 M 789.5 0.5 L 789.5 908.5 M 805.5 0.5 L 805.5 908.5 M 820.5 0.5 L 820.5 908.5 M 835.5 0.5 L 835.5 908.5 M 866.5 0.5 L 866.5 908.5 M 881.5 0.5 L 881.5 908.5" stroke-opacity="0.23529411764705882" stroke-linecap="round" stroke-linejoin="round" stroke-miterlimit="10"/><path fill="none" stroke="rgb(192,192,192)" paint-order="fill stroke markers" d=" M 0.5 52.5 L 892.5 52.5 M 0.5 52.5 L 892.5 52.5 M 0.5 129.5 L 892.5 129.5 M 0.5 206.5 L 892.5 206.5 M 0.5 282.5 L 892.5 282.5 M 0.5 359.5 L 892.5 359.5 M 0.5 435.5 L 892.5 435.5 M 0.5 588.5 L 892.5 588.5 M 0.5 665.5 L 892.5 665.5 M 0.5 741.5 L 892.5 741.5 M 0.5 818.5 L 892.5 818.5 M 0.5 895.5 L 892.5 895.5" stroke-opacity="1" stroke-linecap="round" stroke-linejoin="round" stroke-miterlimit="10"/><path fill="none" stroke="rgb(192,192,192)" paint-order="fill stroke markers" d=" M 0.5 7.5 L 892.5 7.5 M 0.5 7.5 L 892.5 7.5 M 0.5 22.5 L 892.5 22.5 M 0.5 37.5 L 892.5 37.5 M 0.5 68.5 L 892.5 68.5 M 0.5 83.5 L 892.5 83.5 M 0.5 98.5 L 892.5 98.5 M 0.5 114.5 L 892.5 114.5 M 0.5 144.5 L 892.5 144.5 M 0.5 160.5 L 892.5 160.5 M 0.5 175.5 L 892.5 175.5 M 0.5 190.5 L 892.5 190.5 M 0.5 221.5 L 892.5 221.5 M 0.5 236.5 L 892.5 236.5 M 0.5 251.5 L 892.5 251.5 M 0.5 267.5 L 892.5 267.5 M 0.5 297.5 L 892.5 297.5 M 0.5 313.5 L 892.5 313.5 M 0.5 328.5 L 892.5 328.5 M 0.5 343.5 L 892.5 343.5 M 0.5 374.5 L 892.5 374.5 M 0.5 389.5 L 892.5 389.5 M 0.5 405.5 L 892.5 405.5 M 0.5 420.5 L 892.5 420.5 M 0.5 451.5 L 892.5 451.5 M 0.5 466.5 L 892.5 466.5 M 0.5 481.5 L 892.5 481.5 M 0.5 496.5 L 892.5 496.5 M 0.5 527.5 L 892.5 527.5 M 0.5 542.5 L 892.5 542.5 M 0.5 558.5 L 892.5 558.5 M 0.5 573.5 L 892.5 573.5 M 0.5 604.5 L 892.5 604.5 M 0.5 619.5 L 892.5 619.5 M 0.5 634.5 L 892.5 634.5 M 0.5 650.5 L 892.5 650.5 M 0.5 680.5 L 892.5 680.5 M 0.5 695.5 L 892.5 695.5 M 0.5 711.5 L 892.5 711.5 M 0.5 726.5 L 892.5 726.5 M 0.5 757.5 L 892.5 757.5 M 0.5 772.5 L 892.5 772.5 M 0.5 787.5 L 892.5 787.5 M 0.5 803.5 L 892.5 803.5 M 0.5 833.5 L 892.5 833.5 M 0.5 849.5 L 892.5 849.5 M 0.5 864.5 L 892.5 864.5 M 0.5 879.5 L 892.5 879.5" stroke-opacity="0.23529411764705882" stroke-linecap="round" stroke-linejoin="round" stroke-miterlimit="10"/><path fill="none" stroke="rgb(0,0,0)" paint-order="fill stroke markers" d=" M 391.5 2.5 L 391.5 908.5" stroke-opacity="1" stroke-miterlimit="10"/><path fill="none" stroke="rgb(0,0,0)" paint-order="fill stroke markers" d=" M 391.5 1.5 L 387.5 5.5" stroke-opacity="1" stroke-miterlimit="10"/><path fill="none" stroke="rgb(0,0,0)" paint-order="fill stroke markers" d=" M 391.5 1.5 L 395.5 5.5" stroke-opacity="1" stroke-miterlimit="10"/><path fill="none" stroke="rgb(0,0,0)" paint-order="fill stroke markers" d=" M 0.5 512.5 L 890.5 512.5" stroke-opacity="1" stroke-miterlimit="10"/><path fill="none" stroke="rgb(0,0,0)" paint-order="fill stroke markers" d=" M 891.5 512.5 L 887.5 508.5" stroke-opacity="1" stroke-miterlimit="10"/><path fill="none" stroke="rgb(0,0,0)" paint-order="fill stroke markers" d=" M 891.5 512.5 L 887.5 516.5" stroke-opacity="1" stroke-miterlimit="10"/><text fill="rgb(0,0,0)" stroke="none" font-family="geogebra-sans-serif, sans-serif" font-size="12px" font-style="normal" font-weight="normal" text-decoration="normal" x="80" y="528" text-anchor="start" dominant-baseline="alphabetic" fill-opacity="1">–8</text><text fill="none" stroke="rgb(255,255,255)" font-family="geogebra-sans-serif, sans-serif" font-size="12px" font-style="normal" font-weight="normal" text-decoration="normal" x="80" y="528" text-anchor="start" dominant-baseline="alphabetic" stroke-opacity="1" stroke-linejoin="bevel" stroke-miterlimit="10" stroke-width="3">–8</text><text fill="rgb(0,0,0)" stroke="none" font-family="geogebra-sans-serif, sans-serif" font-size="12px" font-style="normal" font-weight="normal" text-decoration="normal" x="80" y="528" text-anchor="start" dominant-baseline="alphabetic" fill-opacity="1">–8</text><text fill="rgb(0,0,0)" stroke="none" font-family="geogebra-sans-serif, sans-serif" font-size="12px" font-style="normal" font-weight="normal" text-decoration="normal" x="157" y="528" text-anchor="start" dominant-baseline="alphabetic" fill-opacity="1">–6</text><text fill="none" stroke="rgb(255,255,255)" font-family="geogebra-sans-serif, sans-serif" font-size="12px" font-style="normal" font-weight="normal" text-decoration="normal" x="157" y="528" text-anchor="start" dominant-baseline="alphabetic" stroke-opacity="1" stroke-linejoin="bevel" stroke-miterlimit="10" stroke-width="3">–6</text><text fill="rgb(0,0,0)" stroke="none" font-family="geogebra-sans-serif, sans-serif" font-size="12px" font-style="normal" font-weight="normal" text-decoration="normal" x="157" y="528" text-anchor="start" dominant-baseline="alphabetic" fill-opacity="1">–6</text><text fill="rgb(0,0,0)" stroke="none" font-family="geogebra-sans-serif, sans-serif" font-size="12px" font-style="normal" font-weight="normal" text-decoration="normal" x="233" y="528" text-anchor="start" dominant-baseline="alphabetic" fill-opacity="1">–4</text><text fill="none" stroke="rgb(255,255,255)" font-family="geogebra-sans-serif, sans-serif" font-size="12px" font-style="normal" font-weight="normal" text-decoration="normal" x="233" y="528" text-anchor="start" dominant-baseline="alphabetic" stroke-opacity="1" stroke-linejoin="bevel" stroke-miterlimit="10" stroke-width="3">–4</text><text fill="rgb(0,0,0)" stroke="none" font-family="geogebra-sans-serif, sans-serif" font-size="12px" font-style="normal" font-weight="normal" text-decoration="normal" x="233" y="528" text-anchor="start" dominant-baseline="alphabetic" fill-opacity="1">–4</text><text fill="rgb(0,0,0)" stroke="none" font-family="geogebra-sans-serif, sans-serif" font-size="12px" font-style="normal" font-weight="normal" text-decoration="normal" x="310" y="528" text-anchor="start" dominant-baseline="alphabetic" fill-opacity="1">–2</text><text fill="none" stroke="rgb(255,255,255)" font-family="geogebra-sans-serif, sans-serif" font-size="12px" font-style="normal" font-weight="normal" text-decoration="normal" x="310" y="528" text-anchor="start" dominant-baseline="alphabetic" stroke-opacity="1" stroke-linejoin="bevel" stroke-miterlimit="10" stroke-width="3">–2</text><text fill="rgb(0,0,0)" stroke="none" font-family="geogebra-sans-serif, sans-serif" font-size="12px" font-style="normal" font-weight="normal" text-decoration="normal" x="310" y="528" text-anchor="start" dominant-baseline="alphabetic" fill-opacity="1">–2</text><text fill="rgb(0,0,0)" stroke="none" font-family="geogebra-sans-serif, sans-serif" font-size="12px" font-style="normal" font-weight="normal" text-decoration="normal" x="466" y="528" text-anchor="start" dominant-baseline="alphabetic" fill-opacity="1">2</text><text fill="none" stroke="rgb(255,255,255)" font-family="geogebra-sans-serif, sans-serif" font-size="12px" font-style="normal" font-weight="normal" text-decoration="normal" x="466" y="528" text-anchor="start" dominant-baseline="alphabetic" stroke-opacity="1" stroke-linejoin="bevel" stroke-miterlimit="10" stroke-width="3">2</text><text fill="rgb(0,0,0)" stroke="none" font-family="geogebra-sans-serif, sans-serif" font-size="12px" font-style="normal" font-weight="normal" text-decoration="normal" x="466" y="528" text-anchor="start" dominant-baseline="alphabetic" fill-opacity="1">2</text><text fill="rgb(0,0,0)" stroke="none" font-family="geogebra-sans-serif, sans-serif" font-size="12px" font-style="normal" font-weight="normal" text-decoration="normal" x="542" y="528" text-anchor="start" dominant-baseline="alphabetic" fill-opacity="1">4</text><text fill="none" stroke="rgb(255,255,255)" font-family="geogebra-sans-serif, sans-serif" font-size="12px" font-style="normal" font-weight="normal" text-decoration="normal" x="542" y="528" text-anchor="start" dominant-baseline="alphabetic" stroke-opacity="1" stroke-linejoin="bevel" stroke-miterlimit="10" stroke-width="3">4</text><text fill="rgb(0,0,0)" stroke="none" font-family="geogebra-sans-serif, sans-serif" font-size="12px" font-style="normal" font-weight="normal" text-decoration="normal" x="542" y="528" text-anchor="start" dominant-baseline="alphabetic" fill-opacity="1">4</text><text fill="rgb(0,0,0)" stroke="none" font-family="geogebra-sans-serif, sans-serif" font-size="12px" font-style="normal" font-weight="normal" text-decoration="normal" x="619" y="528" text-anchor="start" dominant-baseline="alphabetic" fill-opacity="1">6</text><text fill="none" stroke="rgb(255,255,255)" font-family="geogebra-sans-serif, sans-serif" font-size="12px" font-style="normal" font-weight="normal" text-decoration="normal" x="619" y="528" text-anchor="start" dominant-baseline="alphabetic" stroke-opacity="1" stroke-linejoin="bevel" stroke-miterlimit="10" stroke-width="3">6</text><text fill="rgb(0,0,0)" stroke="none" font-family="geogebra-sans-serif, sans-serif" font-size="12px" font-style="normal" font-weight="normal" text-decoration="normal" x="619" y="528" text-anchor="start" dominant-baseline="alphabetic" fill-opacity="1">6</text><text fill="rgb(0,0,0)" stroke="none" font-family="geogebra-sans-serif, sans-serif" font-size="12px" font-style="normal" font-weight="normal" text-decoration="normal" x="696" y="528" text-anchor="start" dominant-baseline="alphabetic" fill-opacity="1">8</text><text fill="none" stroke="rgb(255,255,255)" font-family="geogebra-sans-serif, sans-serif" font-size="12px" font-style="normal" font-weight="normal" text-decoration="normal" x="696" y="528" text-anchor="start" dominant-baseline="alphabetic" stroke-opacity="1" stroke-linejoin="bevel" stroke-miterlimit="10" stroke-width="3">8</text><text fill="rgb(0,0,0)" stroke="none" font-family="geogebra-sans-serif, sans-serif" font-size="12px" font-style="normal" font-weight="normal" text-decoration="normal" x="696" y="528" text-anchor="start" dominant-baseline="alphabetic" fill-opacity="1">8</text><text fill="rgb(0,0,0)" stroke="none" font-family="geogebra-sans-serif, sans-serif" font-size="12px" font-style="normal" font-weight="normal" text-decoration="normal" x="769" y="528" text-anchor="start" dominant-baseline="alphabetic" fill-opacity="1">10</text><text fill="none" stroke="rgb(255,255,255)" font-family="geogebra-sans-serif, sans-serif" font-size="12px" font-style="normal" font-weight="normal" text-decoration="normal" x="769" y="528" text-anchor="start" dominant-baseline="alphabetic" stroke-opacity="1" stroke-linejoin="bevel" stroke-miterlimit="10" stroke-width="3">10</text><text fill="rgb(0,0,0)" stroke="none" font-family="geogebra-sans-serif, sans-serif" font-size="12px" font-style="normal" font-weight="normal" text-decoration="normal" x="769" y="528" text-anchor="start" dominant-baseline="alphabetic" fill-opacity="1">10</text><text fill="rgb(0,0,0)" stroke="none" font-family="geogebra-sans-serif, sans-serif" font-size="12px" font-style="normal" font-weight="normal" text-decoration="normal" x="846" y="528" text-anchor="start" dominant-baseline="alphabetic" fill-opacity="1">12</text><text fill="none" stroke="rgb(255,255,255)" font-family="geogebra-sans-serif, sans-serif" font-size="12px" font-style="normal" font-weight="normal" text-decoration="normal" x="846" y="528" text-anchor="start" dominant-baseline="alphabetic" stroke-opacity="1" stroke-linejoin="bevel" stroke-miterlimit="10" stroke-width="3">12</text><text fill="rgb(0,0,0)" stroke="none" font-family="geogebra-sans-serif, sans-serif" font-size="12px" font-style="normal" font-weight="normal" text-decoration="normal" x="846" y="528" text-anchor="start" dominant-baseline="alphabetic" fill-opacity="1">12</text><text fill="rgb(0,0,0)" stroke="none" font-family="geogebra-sans-serif, sans-serif" font-size="12px" font-style="normal" font-weight="normal" text-decoration="normal" x="363" y="900" text-anchor="start" dominant-baseline="alphabetic" fill-opacity="1">–10</text><text fill="none" stroke="rgb(255,255,255)" font-family="geogebra-sans-serif, sans-serif" font-size="12px" font-style="normal" font-weight="normal" text-decoration="normal" x="363" y="900" text-anchor="start" dominant-baseline="alphabetic" stroke-opacity="1" stroke-linejoin="bevel" stroke-miterlimit="10" stroke-width="3">–10</text><text fill="rgb(0,0,0)" stroke="none" font-family="geogebra-sans-serif, sans-serif" font-size="12px" font-style="normal" font-weight="normal" text-decoration="normal" x="363" y="900" text-anchor="start" dominant-baseline="alphabetic" fill-opacity="1">–10</text><text fill="rgb(0,0,0)" stroke="none" font-family="geogebra-sans-serif, sans-serif" font-size="12px" font-style="normal" font-weight="normal" text-decoration="normal" x="370" y="823" text-anchor="start" dominant-baseline="alphabetic" fill-opacity="1">–8</text><text fill="none" stroke="rgb(255,255,255)" font-family="geogebra-sans-serif, sans-serif" font-size="12px" font-style="normal" font-weight="normal" text-decoration="normal" x="370" y="823" text-anchor="start" dominant-baseline="alphabetic" stroke-opacity="1" stroke-linejoin="bevel" stroke-miterlimit="10" stroke-width="3">–8</text><text fill="rgb(0,0,0)" stroke="none" font-family="geogebra-sans-serif, sans-serif" font-size="12px" font-style="normal" font-weight="normal" text-decoration="normal" x="370" y="823" text-anchor="start" dominant-baseline="alphabetic" fill-opacity="1">–8</text><text fill="rgb(0,0,0)" stroke="none" font-family="geogebra-sans-serif, sans-serif" font-size="12px" font-style="normal" font-weight="normal" text-decoration="normal" x="370" y="746" text-anchor="start" dominant-baseline="alphabetic" fill-opacity="1">–6</text><text fill="none" stroke="rgb(255,255,255)" font-family="geogebra-sans-serif, sans-serif" font-size="12px" font-style="normal" font-weight="normal" text-decoration="normal" x="370" y="746" text-anchor="start" dominant-baseline="alphabetic" stroke-opacity="1" stroke-linejoin="bevel" stroke-miterlimit="10" stroke-width="3">–6</text><text fill="rgb(0,0,0)" stroke="none" font-family="geogebra-sans-serif, sans-serif" font-size="12px" font-style="normal" font-weight="normal" text-decoration="normal" x="370" y="746" text-anchor="start" dominant-baseline="alphabetic" fill-opacity="1">–6</text><text fill="rgb(0,0,0)" stroke="none" font-family="geogebra-sans-serif, sans-serif" font-size="12px" font-style="normal" font-weight="normal" text-decoration="normal" x="370" y="670" text-anchor="start" dominant-baseline="alphabetic" fill-opacity="1">–4</text><text fill="none" stroke="rgb(255,255,255)" font-family="geogebra-sans-serif, sans-serif" font-size="12px" font-style="normal" font-weight="normal" text-decoration="normal" x="370" y="670" text-anchor="start" dominant-baseline="alphabetic" stroke-opacity="1" stroke-linejoin="bevel" stroke-miterlimit="10" stroke-width="3">–4</text><text fill="rgb(0,0,0)" stroke="none" font-family="geogebra-sans-serif, sans-serif" font-size="12px" font-style="normal" font-weight="normal" text-decoration="normal" x="370" y="670" text-anchor="start" dominant-baseline="alphabetic" fill-opacity="1">–4</text><text fill="rgb(0,0,0)" stroke="none" font-family="geogebra-sans-serif, sans-serif" font-size="12px" font-style="normal" font-weight="normal" text-decoration="normal" x="370" y="593" text-anchor="start" dominant-baseline="alphabetic" fill-opacity="1">–2</text><text fill="none" stroke="rgb(255,255,255)" font-family="geogebra-sans-serif, sans-serif" font-size="12px" font-style="normal" font-weight="normal" text-decoration="normal" x="370" y="593" text-anchor="start" dominant-baseline="alphabetic" stroke-opacity="1" stroke-linejoin="bevel" stroke-miterlimit="10" stroke-width="3">–2</text><text fill="rgb(0,0,0)" stroke="none" font-family="geogebra-sans-serif, sans-serif" font-size="12px" font-style="normal" font-weight="normal" text-decoration="normal" x="370" y="593" text-anchor="start" dominant-baseline="alphabetic" fill-opacity="1">–2</text><text fill="rgb(0,0,0)" stroke="none" font-family="geogebra-sans-serif, sans-serif" font-size="12px" font-style="normal" font-weight="normal" text-decoration="normal" x="377" y="440" text-anchor="start" dominant-baseline="alphabetic" fill-opacity="1">2</text><text fill="none" stroke="rgb(255,255,255)" font-family="geogebra-sans-serif, sans-serif" font-size="12px" font-style="normal" font-weight="normal" text-decoration="normal" x="377" y="440" text-anchor="start" dominant-baseline="alphabetic" stroke-opacity="1" stroke-linejoin="bevel" stroke-miterlimit="10" stroke-width="3">2</text><text fill="rgb(0,0,0)" stroke="none" font-family="geogebra-sans-serif, sans-serif" font-size="12px" font-style="normal" font-weight="normal" text-decoration="normal" x="377" y="440" text-anchor="start" dominant-baseline="alphabetic" fill-opacity="1">2</text><text fill="rgb(0,0,0)" stroke="none" font-family="geogebra-sans-serif, sans-serif" font-size="12px" font-style="normal" font-weight="normal" text-decoration="normal" x="377" y="364" text-anchor="start" dominant-baseline="alphabetic" fill-opacity="1">4</text><text fill="none" stroke="rgb(255,255,255)" font-family="geogebra-sans-serif, sans-serif" font-size="12px" font-style="normal" font-weight="normal" text-decoration="normal" x="377" y="364" text-anchor="start" dominant-baseline="alphabetic" stroke-opacity="1" stroke-linejoin="bevel" stroke-miterlimit="10" stroke-width="3">4</text><text fill="rgb(0,0,0)" stroke="none" font-family="geogebra-sans-serif, sans-serif" font-size="12px" font-style="normal" font-weight="normal" text-decoration="normal" x="377" y="364" text-anchor="start" dominant-baseline="alphabetic" fill-opacity="1">4</text><text fill="rgb(0,0,0)" stroke="none" font-family="geogebra-sans-serif, sans-serif" font-size="12px" font-style="normal" font-weight="normal" text-decoration="normal" x="377" y="287" text-anchor="start" dominant-baseline="alphabetic" fill-opacity="1">6</text><text fill="none" stroke="rgb(255,255,255)" font-family="geogebra-sans-serif, sans-serif" font-size="12px" font-style="normal" font-weight="normal" text-decoration="normal" x="377" y="287" text-anchor="start" dominant-baseline="alphabetic" stroke-opacity="1" stroke-linejoin="bevel" stroke-miterlimit="10" stroke-width="3">6</text><text fill="rgb(0,0,0)" stroke="none" font-family="geogebra-sans-serif, sans-serif" font-size="12px" font-style="normal" font-weight="normal" text-decoration="normal" x="377" y="287" text-anchor="start" dominant-baseline="alphabetic" fill-opacity="1">6</text><text fill="rgb(0,0,0)" stroke="none" font-family="geogebra-sans-serif, sans-serif" font-size="12px" font-style="normal" font-weight="normal" text-decoration="normal" x="377" y="211" text-anchor="start" dominant-baseline="alphabetic" fill-opacity="1">8</text><text fill="none" stroke="rgb(255,255,255)" font-family="geogebra-sans-serif, sans-serif" font-size="12px" font-style="normal" font-weight="normal" text-decoration="normal" x="377" y="211" text-anchor="start" dominant-baseline="alphabetic" stroke-opacity="1" stroke-linejoin="bevel" stroke-miterlimit="10" stroke-width="3">8</text><text fill="rgb(0,0,0)" stroke="none" font-family="geogebra-sans-serif, sans-serif" font-size="12px" font-style="normal" font-weight="normal" text-decoration="normal" x="377" y="211" text-anchor="start" dominant-baseline="alphabetic" fill-opacity="1">8</text><text fill="rgb(0,0,0)" stroke="none" font-family="geogebra-sans-serif, sans-serif" font-size="12px" font-style="normal" font-weight="normal" text-decoration="normal" x="370" y="134" text-anchor="start" dominant-baseline="alphabetic" fill-opacity="1">10</text><text fill="none" stroke="rgb(255,255,255)" font-family="geogebra-sans-serif, sans-serif" font-size="12px" font-style="normal" font-weight="normal" text-decoration="normal" x="370" y="134" text-anchor="start" dominant-baseline="alphabetic" stroke-opacity="1" stroke-linejoin="bevel" stroke-miterlimit="10" stroke-width="3">10</text><text fill="rgb(0,0,0)" stroke="none" font-family="geogebra-sans-serif, sans-serif" font-size="12px" font-style="normal" font-weight="normal" text-decoration="normal" x="370" y="134" text-anchor="start" dominant-baseline="alphabetic" fill-opacity="1">10</text><text fill="rgb(0,0,0)" stroke="none" font-family="geogebra-sans-serif, sans-serif" font-size="12px" font-style="normal" font-weight="normal" text-decoration="normal" x="370" y="57" text-anchor="start" dominant-baseline="alphabetic" fill-opacity="1">12</text><text fill="none" stroke="rgb(255,255,255)" font-family="geogebra-sans-serif, sans-serif" font-size="12px" font-style="normal" font-weight="normal" text-decoration="normal" x="370" y="57" text-anchor="start" dominant-baseline="alphabetic" stroke-opacity="1" stroke-linejoin="bevel" stroke-miterlimit="10" stroke-width="3">12</text><text fill="rgb(0,0,0)" stroke="none" font-family="geogebra-sans-serif, sans-serif" font-size="12px" font-style="normal" font-weight="normal" text-decoration="normal" x="370" y="57" text-anchor="start" dominant-baseline="alphabetic" fill-opacity="1">12</text><text fill="rgb(0,0,0)" stroke="none" font-family="geogebra-sans-serif, sans-serif" font-size="12px" font-style="normal" font-weight="normal" text-decoration="normal" x="377" y="528" text-anchor="start" dominant-baseline="alphabetic" fill-opacity="1">0</text><text fill="none" stroke="rgb(255,255,255)" font-family="geogebra-sans-serif, sans-serif" font-size="12px" font-style="normal" font-weight="normal" text-decoration="normal" x="377" y="528" text-anchor="start" dominant-baseline="alphabetic" stroke-opacity="1" stroke-linejoin="bevel" stroke-miterlimit="10" stroke-width="3">0</text><text fill="rgb(0,0,0)" stroke="none" font-family="geogebra-sans-serif, sans-serif" font-size="12px" font-style="normal" font-weight="normal" text-decoration="normal" x="377" y="528" text-anchor="start" dominant-baseline="alphabetic" fill-opacity="1">0</text><path fill="none" stroke="rgb(0,100,0)" paint-order="fill stroke markers" d=" M 353.57199245735 920.369346315885 L 353.5722164751251 911.8282908979202 L 353.5724404929002 904.8497404924697 L 353.57266451067534 898.9494601959129 L 353.57288852845045 893.8384049234201 L 353.57333656400067 885.2973495053645 L 353.5737845995509 878.3187990999745 L 353.57423263510117 872.4185188033573 L 353.5746806706514 867.3074635309097 L 353.57557674175183 858.7664081128814 L 353.57647281285233 851.7878577074794 L 353.5773688839528 845.8875774108535 L 353.5782649550532 840.7765221383994 L 353.58005709725415 832.2354667203258 L 353.5818492394551 825.2569163149237 L 353.58364138165604 819.3566360182978 L 353.585433523857 814.245580745855 L 353.5890178082588 805.7045253277792 L 353.5926020926607 798.7259749223756 L 353.5961863770625 792.8256946257551 L 353.5997706614644 787.7146393532994 L 353.6069392302681 779.173583935228 L 353.6141077990718 772.1950335298275 L 353.6212763678755 766.2947532332026 L 353.6284449366792 761.1836979607466 L 353.64278207428663 752.6426425426746 L 353.6571192118941 745.6640921372737 L 353.6714563495015 739.763811840647 L 353.6857934871089 734.6527565681938 L 353.7144677623238 726.11170115012 L 353.74314203753863 719.133150744718 L 353.77181631275346 713.2328704480929 L 353.80049058796834 708.1218151756387 L 353.85783913839805 699.5807597575649 L 353.91518768882776 692.6022093521633 L 353.97253623925747 686.7019290555372 L 354.0298847896871 681.5908737830835 L 354.14458189054653 673.0498183650099 L 354.25927899140595 666.0712679596078 L 354.37397609226537 660.1709876629819 L 354.4886731931248 655.0599323905278 L 354.71806739484356 646.5188769724541 L 354.9474615965624 639.5403265670521 L 355.17685579828117 633.6400462704263 L 355.40625 628.5289909979723 M 355.40625 628.5289909979723 L 355.841796875 620.3777149622468 L 356.27734375 613.661240240905 L 356.712890625 607.949261616945 L 357.1484375 602.9800430278561 L 358.01953125 594.6384461295735 L 358.890625 587.7934478593005 L 359.76171875 581.988848051785 L 360.6328125 576.9497104338219 L 362.375 568.5095672879851 M 362.375 568.5095672879851 L 364.1171875 561.5984398391886 L 365.859375 555.746391614376 L 369.34375 546.1914702056365 L 372.828125 538.5516280457772 L 376.3125 532.1858950371878 L 379.796875 526.7294274306008 L 383.28125 521.9546417279278 L 386.765625 517.7099723284753 L 390.25 513.8893827704981 M 390.25 513.8893827704981 L 393.734375 510.41577870151696 L 397.21875 507.23134791362736 L 400.703125 504.2916220395372 L 404.1875 501.56166173609853 L 407.671875 499.01351465349785 L 411.15625 496.6244683264576 L 414.640625 494.3758171679611 L 418.125 492.2519720764872 L 421.609375 490.2398044047788 L 425.09375 488.3281539535543 L 428.578125 486.5074541124309 L 432.0625 484.7694421926058 L 435.546875 483.10693272474794 L 439.03125 481.51363797995486 L 442.515625 479.984024380243 L 446 478.51319651674675 M 446 478.51319651674675 L 449.484375 477.09680264109176 L 452.96875 475.73095702908165 L 456.453125 474.4121757263736 L 459.9375 473.1373230001912 L 463.421875 471.9035664253231 L 466.90625 470.70833898580923 L 470.390625 469.54930691701117 L 473.875 468.424342275291 L 477.359375 467.331499425046 L 480.84375 466.2689947903689 L 484.328125 465.2351893420705 L 487.8125 464.2285733882795 L 491.296875 463.24775331431647 L 494.78125 462.2914399795323 L 498.265625 461.35843852869357 L 501.75 460.4476394158941 L 505.234375 459.5580104718502 L 508.71875 458.68858987233995 L 512.203125 457.8384798876685 L 515.6875 457.006841311315 L 519.171875 456.1928884810824 L 522.65625 455.39588481870743 L 526.140625 454.6151388244655 L 529.625 453.85000047218483 L 533.109375 453.0998579575779 L 536.59375 452.3641347591335 L 540.078125 451.64228697619484 L 543.5625 450.93380091343556 L 547.046875 450.2381908848596 L 550.53125 449.55499721381176 L 554.015625 448.88378440837266 L 557.5 448.2241394939989 L 560.984375 447.5756704874223 L 564.46875 446.9380049976862 L 567.953125 446.3107889418168 L 571.4375 445.6936853640385 L 574.921875 445.08637334867603 L 578.40625 444.4885470179598 L 581.890625 443.8999146069026 L 585.375 443.3201976082407 L 588.859375 442.7491299811669 L 592.34375 442.1864574182297 L 595.828125 441.63193666534005 L 599.3125 441.08533489033636 L 602.796875 440.5464290960039 L 606.28125 440.0150055738465 L 609.765625 439.49085939526054 L 613.25 438.97379393708013 L 616.734375 438.46362043874433 L 620.21875 437.9601575885905 L 623.703125 437.4632311370044 L 627.1875 436.9726735343625 L 630.671875 436.4883235918834 L 634.15625 436.01002616367 L 637.640625 435.5376318483749 L 641.125 435.0709967090513 L 644.609375 434.6099820098774 L 648.09375 434.15445396854653 L 651.578125 433.7042835232208 L 655.0625 433.25934611302927 L 658.546875 432.8195214711791 L 662.03125 432.3846934298183 L 665.515625 431.9547497358593 L 669 431.5295818770315 L 672.484375 431.1090849174898 L 675.96875 430.6931573423549 L 679.453125 430.28170091060986 L 682.9375 429.87462051582014 L 686.421875 429.4718240541813 L 689.90625 429.07322229943895 L 693.390625 428.6787287842539 L 696.875 428.28825968761913 L 700.359375 427.9017337279615 L 703.84375 427.51907206158694 L 707.328125 427.1401981861526 L 710.8125 426.76503784886916 L 714.296875 426.3935189591587 L 717.78125 426.0255715055109 L 721.265625 425.66112747629745 L 724.75 425.3001207843209 L 728.234375 424.9424871948887 L 731.71875 424.5881642572163 L 735.203125 424.23709123897623 L 738.6875 423.889209063822 L 742.171875 423.544460251725 L 745.65625 423.202788861975 L 749.140625 422.8641404387023 L 752.625 422.528461958788 L 756.109375 422.1957017820397 L 759.59375 421.8658096035134 L 763.078125 421.53873640787333 L 766.5625 421.21443442568483 L 770.046875 420.8928570915433 L 773.53125 420.57395900394795 L 777.015625 420.25769588683266 L 780.5 419.9440245526737 L 783.984375 419.6329028670966 L 787.46875 419.32428971491004 L 790.953125 419.01814496749796 L 794.4375 418.71442945150557 L 797.921875 418.4131049187579 L 801.40625 418.1141340173532 L 804.890625 417.8174802638765 L 808.375 417.52310801668204 L 811.859375 417.2309824501945 L 815.34375 416.94106953018456 L 818.828125 416.65333598997256 L 822.3125 416.36774930752136 L 825.796875 416.084277683376 L 829.28125 415.8028900194155 L 832.765625 415.5235558983791 L 836.25 415.2462455641347 L 839.734375 414.970929902657 L 843.21875 414.6975804236844 L 846.703125 414.4261692430267 L 850.1875 414.1566690654954 L 853.671875 413.88905316843096 L 857.15625 413.623295385802 L 860.640625 413.3593700928521 L 864.125 413.09725219127324 L 867.609375 412.8369170948827 L 871.09375 412.57834071578424 L 874.578125 412.32149945099326 L 878.0625 412.066370169508 L 881.546875 411.81293019980865 L 885.03125 411.5611573177675 L 888.515625 411.3110297349544 L 892 411.0625260873217" stroke-opacity="0.6980392156862745" stroke-linecap="round" stroke-linejoin="round" stroke-miterlimit="10" stroke-width="2.5"/><g transform="scale(19,19)"><g transform="translate(15.105263157894736,46.69736842105263)"><path fill="rgb(0,100,0)" stroke="none" paint-order="stroke fill markers" d=" M 0.177 -0.6940000000000001 L 0.177 -0.076 Q 0.177 -0.042 0.193 -0.036000000000000004 Q 0.20400000000000001 -0.031 0.255 -0.031 L 0.255 0 L 0.14400000000000002 -0.003 Q 0.132 -0.003 0.033 0 L 0.033 -0.031 Q 0.092 -0.031 0.10200000000000001 -0.04 L 0.10400000000000001 -0.042 Q 0.111 -0.05 0.111 -0.076 L 0.111 -0.596 Q 0.111 -0.635 0.097 -0.644 L 0.096 -0.644 Q 0.085 -0.65 0.058 -0.652 L 0.033 -0.652 L 0.033 -0.683 L 0.177 -0.6940000000000001 Z"/></g><g transform="translate(15.383042157894737,46.69736842105263)"><path fill="rgb(0,100,0)" stroke="none" paint-order="stroke fill markers" d=" M 0.11 -0.34400000000000003 Q 0.11 -0.383 0.095 -0.392 Q 0.083 -0.399 0.052000000000000005 -0.4 L 0.032 -0.4 L 0.032 -0.431 L 0.17300000000000001 -0.442 L 0.17300000000000001 -0.337 Q 0.22 -0.442 0.321 -0.442 Q 0.396 -0.442 0.426 -0.405 Q 0.453 -0.374 0.456 -0.32 Q 0.457 -0.301 0.457 -0.252 L 0.457 -0.061 Q 0.458 -0.037 0.486 -0.033 Q 0.498 -0.031 0.535 -0.031 L 0.535 0 Q 0.433 -0.003 0.423 -0.003 Q 0.41500000000000004 -0.003 0.31 0 L 0.31 -0.031 Q 0.369 -0.031 0.379 -0.04 L 0.381 -0.042 Q 0.388 -0.05 0.388 -0.076 L 0.388 -0.309 Q 0.388 -0.40800000000000003 0.331 -0.418 Q 0.323 -0.42 0.314 -0.42 Q 0.253 -0.42 0.212 -0.367 Q 0.179 -0.324 0.179 -0.26 L 0.179 -0.076 Q 0.179 -0.042 0.195 -0.036000000000000004 Q 0.20600000000000002 -0.031 0.257 -0.031 L 0.257 0 Q 0.155 -0.003 0.145 -0.003 Q 0.137 -0.003 0.032 0 L 0.032 -0.031 Q 0.091 -0.031 0.101 -0.04 L 0.10300000000000001 -0.042 Q 0.11 -0.05 0.11 -0.076 L 0.11 -0.34400000000000003 Z"/></g><g transform="translate(15.938599157894735,46.69736842105263)"><path fill="rgb(0,100,0)" stroke="none" paint-order="stroke fill markers" d=" M 0.331 0.24 L 0.331 0.24 Q 0.331 0.25 0.321 0.25 Q 0.309 0.25 0.268 0.209 Q 0.20600000000000002 0.147 0.165 0.062 Q 0.099 -0.074 0.099 -0.25 Q 0.099 -0.419 0.162 -0.555 Q 0.214 -0.666 0.294 -0.733 Q 0.315 -0.75 0.321 -0.75 Q 0.331 -0.75 0.331 -0.74 Q 0.331 -0.735 0.318 -0.723 Q 0.157 -0.559 0.157 -0.25 Q 0.157 0.058 0.314 0.218 Q 0.331 0.23500000000000001 0.331 0.24 Z"/></g><g transform="translate(16.327489157894735,46.69736842105263)"><path fill="rgb(0,100,0)" stroke="none" paint-order="stroke fill markers" d=" M 0.334 -0.302 L 0.3 -0.165 Q 0.28300000000000003 -0.097 0.28300000000000003 -0.077 Q 0.28300000000000003 -0.025 0.32 -0.014 Q 0.328 -0.011 0.338 -0.011 Q 0.388 -0.011 0.429 -0.061 Q 0.456 -0.093 0.47100000000000003 -0.14200000000000002 Q 0.47400000000000003 -0.153 0.484 -0.153 Q 0.496 -0.153 0.496 -0.14300000000000002 Q 0.496 -0.11800000000000001 0.465 -0.07100000000000001 Q 0.41100000000000003 0.011 0.336 0.011 Q 0.268 0.011 0.23700000000000002 -0.046 Q 0.231 -0.055 0.228 -0.065 Q 0.20400000000000001 -0.017 0.162 0.002 Q 0.14300000000000002 0.011 0.123 0.011 Q 0.063 0.011 0.039 -0.024 Q 0.029 -0.037 0.029 -0.055 Q 0.029 -0.092 0.061 -0.107 Q 0.07200000000000001 -0.113 0.084 -0.113 Q 0.114 -0.113 0.12 -0.088 Q 0.121 -0.083 0.121 -0.078 Q 0.121 -0.044 0.08700000000000001 -0.028 Q 0.081 -0.025 0.074 -0.024 Q 0.095 -0.011 0.124 -0.011 Q 0.177 -0.011 0.20800000000000002 -0.082 Q 0.214 -0.097 0.219 -0.115 Q 0.273 -0.319 0.273 -0.353 Q 0.267 -0.41500000000000004 0.219 -0.42 Q 0.167 -0.42 0.124 -0.367 L 0.124 -0.366 Q 0.124 -0.365 0.123 -0.365 Q 0.108 -0.34500000000000003 0.096 -0.319 Q 0.091 -0.307 0.08700000000000001 -0.295 L 0.085 -0.289 Q 0.083 -0.278 0.07200000000000001 -0.278 Q 0.06 -0.278 0.06 -0.28800000000000003 Q 0.06 -0.313 0.092 -0.36 Q 0.146 -0.442 0.221 -0.442 Q 0.298 -0.442 0.329 -0.366 Q 0.361 -0.428 0.41400000000000003 -0.44 Q 0.424 -0.442 0.434 -0.442 Q 0.493 -0.442 0.517 -0.40900000000000003 Q 0.527 -0.395 0.527 -0.376 Q 0.527 -0.335 0.49 -0.321 Q 0.481 -0.318 0.47300000000000003 -0.318 Q 0.442 -0.318 0.436 -0.34500000000000003 Q 0.435 -0.34900000000000003 0.435 -0.353 Q 0.435 -0.383 0.464 -0.4 Q 0.47300000000000003 -0.405 0.483 -0.40700000000000003 Q 0.462 -0.42 0.433 -0.42 Q 0.365 -0.42 0.337 -0.314 Q 0.335 -0.308 0.334 -0.302 Z"/></g><g transform="translate(17.121240046783626,46.69736842105263)"><path fill="rgb(0,100,0)" stroke="none" paint-order="stroke fill markers" d=" M 0.40900000000000003 -0.23 L 0.40900000000000003 0.05 Q 0.40900000000000003 0.082 0.389 0.083 Q 0.369 0.083 0.369 0.05 L 0.369 -0.23 L 0.089 -0.23 Q 0.057 -0.23 0.056 -0.25 Q 0.056 -0.27 0.089 -0.27 L 0.369 -0.27 L 0.369 -0.55 Q 0.369 -0.582 0.389 -0.583 Q 0.40900000000000003 -0.583 0.40900000000000003 -0.55 L 0.40900000000000003 -0.27 L 0.6880000000000001 -0.27 Q 0.72 -0.27 0.721 -0.25 Q 0.721 -0.23 0.6880000000000001 -0.23 L 0.40900000000000003 -0.23 Z"/></g><g transform="translate(18.121243935672517,46.69736842105263)"><path fill="rgb(0,100,0)" stroke="none" paint-order="stroke fill markers" d=" M 0.294 -0.64 L 0.294 -0.079 Q 0.294 -0.049 0.306 -0.041 Q 0.323 -0.031 0.387 -0.031 L 0.419 -0.031 L 0.419 0 Q 0.384 -0.003 0.257 -0.003 Q 0.13 -0.003 0.095 0 L 0.095 -0.031 L 0.127 -0.031 Q 0.20400000000000001 -0.031 0.215 -0.049 L 0.216 -0.05 Q 0.22 -0.058 0.22 -0.079 L 0.22 -0.597 Q 0.168 -0.5710000000000001 0.089 -0.5710000000000001 L 0.089 -0.602 Q 0.209 -0.602 0.271 -0.666 Q 0.29 -0.666 0.293 -0.659 L 0.293 -0.659 L 0.293 -0.658 Q 0.294 -0.655 0.294 -0.64 Z"/></g><g transform="translate(18.621245935672512,46.69736842105263)"><path fill="rgb(0,100,0)" stroke="none" paint-order="stroke fill markers" d=" M 0.289 -0.25 L 0.289 -0.25 Q 0.289 -0.081 0.226 0.055 Q 0.17400000000000002 0.166 0.094 0.233 Q 0.073 0.25 0.067 0.25 Q 0.057 0.25 0.057 0.24 Q 0.057 0.23500000000000001 0.07 0.223 Q 0.231 0.059000000000000004 0.231 -0.25 Q 0.231 -0.555 0.081 -0.712 L 0.076 -0.717 Q 0.057 -0.735 0.057 -0.74 Q 0.057 -0.75 0.067 -0.75 Q 0.079 -0.75 0.12 -0.709 Q 0.182 -0.647 0.223 -0.562 Q 0.289 -0.426 0.289 -0.25 Z"/></g></g><path fill="none" stroke="rgb(204,0,0)" paint-order="fill stroke markers" d=" M 0 469.8382935702998 L 3.484375 469.79705278810667 L 6.96875 469.75498282312265 L 10.453125 469.712058414207 L 13.9375 469.66825326358077 L 17.421875 469.6235399831004 L 20.90625 469.57789003715396 L 24.390625000000057 469.53127368193225 L 27.875 469.4836599008001 L 31.359375 469.4350163354756 L 34.84375 469.3853092126946 L 38.32812499999994 469.3345032660116 L 41.8125 469.28256165235734 L 45.296875 469.22944586293664 L 48.78125 469.1751156280155 L 52.265625 469.11952881510103 L 55.75000000000006 469.0626413199744 L 59.234375 469.00440694998343 L 62.71875 468.94477729894726 L 66.203125 468.88370161295927 L 69.68749999999994 468.82112664630785 L 73.171875 468.75699650665456 L 76.65625 468.6912524885236 L 80.140625 468.6238328940605 L 83.62500000000006 468.5546728399086 L 87.109375 468.48370404893376 L 90.59375 468.41085462539155 L 94.078125 468.3360488119802 L 97.5625 468.25920672705473 L 101.046875 468.1802440800842 L 104.53125 468.09907186322334 L 108.015625 468.0155960166243 L 111.5 467.9297170648439 L 114.984375 467.8413297213904 L 118.46875 467.75032245810564 L 121.953125 467.65657703567797 L 125.4375 467.55996799113194 L 128.921875 467.46036207762273 L 132.40625 467.3576176512752 L 135.89062500000003 467.2515839991347 L 139.375 467.1421006015235 L 142.859375 467.0289963212101 L 146.34375 466.9120885107779 L 149.82812500000003 466.79118202839936 L 153.3125 466.6660681508613 L 156.796875 466.53652337110475 L 160.28125 466.40230806570594 L 163.765625 466.2631650155869 L 167.25 466.118817760741 L 170.734375 465.9689687668321 L 174.21875000000003 465.8132973780823 L 177.703125 465.65145752681036 L 181.18750000000003 465.4830751651882 L 184.671875 465.3077453791024 L 188.15625 465.12502913724506 L 191.640625 464.93444962049244 L 195.125 464.73548806696095 L 198.609375 464.5275790565106 L 202.09375 464.31010514443545 L 205.57812500000003 464.0823907370815 L 209.0625 463.84369508144243 L 212.54687500000003 463.5932042154921 L 216.03125 463.3300216949562 L 219.51562500000003 463.0531578739033 L 223 462.76151746900933 L 226.484375 462.45388507809645 L 229.96875 462.12890824925944 L 233.453125 461.785077603214 L 236.9375 461.42070339263086 L 240.421875 461.0338877304063 L 243.90625000000003 460.62249152359567 L 247.390625 460.1840948968511 L 250.87500000000003 459.71594955910257 L 254.359375 459.21492113277486 L 257.84375 458.6774188880684 L 261.328125 458.09930955198683 L 264.8125 457.4758108158939 L 268.296875 456.80135873485676 L 271.78125 456.06944123301986 L 275.265625 455.2723871577018 L 278.75 454.40109639172243 L 282.234375 453.44469087127396 L 285.71875 452.39005807755353 L 289.203125 451.2212462577902 L 292.6875 449.9186519768644 L 296.171875 448.45791175465274 L 299.65625 446.8083639199588 L 303.140625 444.93087281689884 L 306.625 442.7746840769405 L 310.109375 440.2727671927136 L 313.59375 437.3347224795283 L 317.078125 433.83562454657886 L 320.5625 429.59779969428683 L 324.046875 424.35969979483764 L 327.53125 417.7197863772579 L 331.01562500000006 409.02840190698396 L 332.7578125 403.59143391753355 L 334.5 397.1611074470312 L 336.2421875 389.43781620057365 L 337.984375 379.98800131453817 L 338.85546875 374.4240190910192 L 339.7265625 368.1598688185301 L 340.59765625 361.05451342324864 L 341.46875 352.9263099820064 L 342.33984375 343.53726281376214 L 342.775390625 338.27454523049903 L 343.2109375 332.5693324649583 L 343.646484375 326.3633671080971 L 344.08203125 319.5876957204041 L 344.517578125 312.1600960074393 L 344.953125 303.9817238217568 L 345.388671875 294.9326892931065 L 345.6064453125 290.03703724764955 L 345.82421875 284.86614063920945 L 346.0419921875 279.3961157680551 L 346.25976562500006 273.60023335925086 L 346.4775390625 267.44848176439575 L 346.69531250000006 260.90704715633717 L 346.9130859375 253.93769171164524 L 347.13085937500006 246.4970056343364 L 347.3486328125 238.53550211383936 L 347.56640625000006 229.99651534275188 L 347.7841796875 220.81484971565095 L 348.00195312500006 210.9151121008852 L 348.11083984375 205.66911711235434 L 348.2197265625 200.2096369042619 L 348.32861328125 194.52336917047467 L 348.4375 188.59588300466396 L 348.54638671875 182.41149661506682 L 348.6552734375 175.9531387873297 L 348.76416015625 169.20219151853155 L 348.873046875 162.1383107675324 L 348.98193359375 154.73922168709083 L 349.0908203125 146.9804839964042 L 349.19970703125 138.83522228775763 L 349.30859375 130.27381499680814 L 349.41748046875 121.2635344511823 L 349.5263671875 111.76812877829428 L 349.58081054687506 106.82609332849427 L 349.63525390625 101.74733441306154 L 349.689697265625 96.52609868026542 L 349.744140625 91.15630538311308 L 349.798583984375 85.63152275519644 L 349.85302734375 79.9449423109175 L 349.907470703125 74.08935085430608 L 349.9619140625 68.05709995441072 L 350.016357421875 61.8400726155765 L 350.07080078125 55.42964683739052 L 350.125244140625 48.81665572006011 L 350.1796875 41.991343727226365 L 350.234130859375 34.9433186672872 L 350.28857421875006 27.661498896051683 L 350.343017578125 20.134055176790753 L 350.3974609375 12.348346555841772 L 350.451904296875 4.290849522823407 L 350.50634765625 -4.052920379694342 L 350.560791015625 -12.698495453061128 M 356.876220703125 917.2501151178885 L 356.9306640625 910.0667470464587 L 356.985107421875 903.1124858439696 L 357.03955078125 896.3765428309198 L 357.093994140625 889.8487962469143 L 357.1484375 883.5197405016605 L 357.20288085937506 877.3804399904958 L 357.25732421875 871.4224870027301 L 357.311767578125 865.637963305599 L 357.3662109375 860.0194050349075 L 357.420654296875 854.5597705649308 L 357.47509765625 849.2524110666806 L 357.529541015625 844.0910434958346 L 357.583984375 839.0697257795206 L 357.69287109375 829.4250413622117 L 357.8017578125 820.2768173957743 L 357.91064453125006 811.5876827431601 L 358.01953125 803.323925280542 L 358.12841796875 795.4550547787626 L 358.2373046875 787.9534269862199 L 358.34619140625006 780.7939191440419 L 358.455078125 773.9536489069615 L 358.56396484375 767.4117300435688 L 358.6728515625 761.1490594211265 L 358.78173828125006 755.1481306986003 L 358.890625 749.392870901087 L 358.99951171875 743.8684966628064 L 359.1083984375 738.5613874313417 L 359.21728515625006 733.4589733433806 L 359.326171875 728.5496358289022 L 359.5439453125 719.2679524363812 L 359.76171875 710.6392903329702 L 359.9794921875 702.5970755919118 L 360.197265625 695.0834862711155 L 360.4150390625 688.0480599776115 L 360.6328125 681.446559076616 L 360.8505859375 675.2400395912105 L 361.068359375 669.3940823764049 L 361.2861328125 663.878154503731 L 361.50390625000006 658.6650758344205 L 361.93945312500006 649.0528919655385 L 362.37500000000006 640.3917763567582 L 362.81054687500006 632.5472291882788 L 363.24609375000006 625.4089701719436 L 363.68164062500006 618.8857218482256 L 364.1171875 612.9012855623705 L 364.552734375 607.3915512336571 L 364.98828125 602.3021915590444 L 365.859375 593.2057985982597 L 366.73046875 585.3136896772685 L 367.6015625 578.4015577149412 L 368.47265625 572.2975445008002 L 369.34375 566.8677574366737 L 371.0859375 557.6284732823942 L 372.828125 550.060949157701 L 374.5703125 543.749095327039 L 376.3125 538.4043262931093 L 379.796875 529.8451173045361 L 383.28125 523.29353804466 L 386.765625 518.1173757548067 L 390.25 513.9246501929775 L 393.73437500000006 510.45940648192004 L 397.21875 507.5474208526173 L 400.703125 505.0659895714098 L 404.1875 502.92619604014743 L 407.67187500000006 501.0620304490566 L 411.15625 499.423459532073 L 414.640625 497.9718687889492 L 418.125 496.6769807767969 L 421.609375 495.5147203239912 L 425.09375 494.46570374737365 L 428.578125 493.5141491606978 L 432.0625 492.64707702331697 L 435.546875 491.85371457262113 L 439.03125000000006 491.12504595109004 L 442.515625 490.45346807516677 L 446 489.8325243422428 L 449.484375 489.2566963816222 L 452.96875 488.72123960638356 L 456.453125 488.22205218209695 L 459.9375 487.75556974965747 L 463.421875 487.31868018394215 L 466.90625 486.9086540764214 L 470.39062500000006 486.52308765873755 L 473.875 486.15985564494684 L 477.359375 485.8170720381011 L 480.84375 485.4930573748766 L 484.328125 485.1863112073367 L 487.8125 484.89548887028053 L 491.296875 484.6193817752201 L 494.78125 484.3569006218464 L 498.265625 484.1070610351932 L 501.75 483.86897122922426 L 505.234375 483.6418213709507 L 508.71875 483.42487437774133 L 512.203125 483.21745792746293 L 515.6875 483.01895749897903 L 519.171875 482.8288102912504 L 522.65625 482.6464998942975 L 526.140625 482.47155160575954 L 529.625 482.30352830360766 L 533.109375 482.1420267994585 L 536.59375 481.98667460843984 L 540.078125 481.8371270811339 L 543.5625 481.6930648511155 L 547.046875 481.5541915582997 L 550.53125 481.4202318139431 L 554.015625 481.2909293778948 L 557.5 481.16604552271104 L 560.984375 481.0453575626581 L 564.46875 480.9286575285361 L 567.953125 480.8157509717314 L 571.4375 480.7064558830314 L 574.921875 480.6006017135554 L 578.40625 480.4980284867242 L 581.890625 480.3985859915427 L 585.375 480.30213304864003 L 588.859375 480.2085368415247 L 592.34375 480.117672306393 L 595.828125 480.0294215745958 L 599.3125 479.94367346253694 L 602.796875 479.8603230043614 L 606.28125 479.77927102330324 L 609.765625 479.70042373801294 L 613.25 479.62369240057876 L 616.734375 479.54899296330393 L 620.21875 479.47624577161025 L 623.703125 479.4053752807089 L 627.1875 479.33630979391893 L 630.6718750000001 479.26898122072936 L 634.15625 479.2033248528877 L 637.640625 479.13927915696723 L 641.125 479.07678558201553 L 644.609375 479.01578838102023 L 648.09375 478.9562344450479 L 651.578125 478.8980731490185 L 655.0625 478.8412562081742 L 658.546875 478.7857375443875 L 662.03125 478.7314731615305 L 665.515625 478.6784210291968 L 669 478.62654097412985 L 672.484375 478.5757945787691 L 675.96875 478.5261450863749 L 679.453125 478.47755731224 L 682.9375 478.42999756053626 L 686.421875 478.38343354638516 L 689.90625 478.33783432277147 L 693.390625 478.29317021195385 L 696.875 478.24941274105197 L 700.359375 478.20653458151725 L 703.84375 478.16450949221553 L 707.328125 478.1233122658745 L 710.8125 478.0829186786642 L 714.296875 478.0433054427001 L 717.78125 478.0044501612724 L 721.265625 477.9663312866209 L 724.75 477.9289280800883 L 728.234375 477.8922205744968 L 731.71875 477.8561895386048 L 735.203125 477.8208164435105 L 738.6875 477.78608343087996 L 742.171875 477.7519732828835 L 745.65625 477.7184693937358 L 749.140625 477.68555574273995 L 752.625 477.65321686874364 L 756.109375 477.62143784592206 L 759.59375 477.5902042608078 L 763.078125 477.55950219049316 L 766.5625 477.5293181819363 L 770.046875 477.49963923230587 L 773.53125 477.4704527703042 L 777.015625 477.4417466384127 L 780.5 477.4135090760065 L 783.984375 477.3857287032894 L 787.46875 477.35839450600264 L 790.953125 477.33149582086526 L 794.4375 477.30502232170375 L 797.921875 477.27896400623524 L 801.40625 477.25331118346753 L 804.890625 477.2280544616822 L 808.375 477.20318473697085 L 811.859375 477.17869318229396 L 815.34375 477.15457123703476 L 818.828125 477.13081059702347 L 822.3125 477.10740320500514 L 825.796875 477.0843412415308 L 829.28125 477.061617116248 L 832.765625 477.03922345957153 L 836.25 477.01715311471537 L 839.734375 476.9953991300668 L 843.21875 476.973954751886 L 846.703125 476.95281341731584 L 850.1875 476.93196874768506 L 853.671875 476.9114145420922 L 857.15625 476.89114477125514 L 860.640625 476.871153571615 L 864.125 476.85143523968094 L 867.609375 476.831984226605 L 871.09375 476.8127951329763 L 874.578125 476.79386270382406 L 878.0625 476.7751818238197 L 881.546875 476.7567475126691 L 885.03125 476.73855492068583 L 888.515625 476.7205993245379 L 892 476.7028761231589" stroke-opacity="0.6980392156862745" stroke-linecap="round" stroke-linejoin="round" stroke-miterlimit="10" stroke-width="2.5"/><g transform="scale(19,19)"><g transform="translate(5.450352115829941,23.535818157894738)"><path fill="rgb(204,0,0)" stroke="none" paint-order="stroke fill markers" d=" M 0.334 -0.302 L 0.3 -0.165 Q 0.28300000000000003 -0.097 0.28300000000000003 -0.077 Q 0.28300000000000003 -0.025 0.32 -0.014 Q 0.328 -0.011 0.338 -0.011 Q 0.388 -0.011 0.429 -0.061 Q 0.456 -0.093 0.47100000000000003 -0.14200000000000002 Q 0.47400000000000003 -0.153 0.484 -0.153 Q 0.496 -0.153 0.496 -0.14300000000000002 Q 0.496 -0.11800000000000001 0.465 -0.07100000000000001 Q 0.41100000000000003 0.011 0.336 0.011 Q 0.268 0.011 0.23700000000000002 -0.046 Q 0.231 -0.055 0.228 -0.065 Q 0.20400000000000001 -0.017 0.162 0.002 Q 0.14300000000000002 0.011 0.123 0.011 Q 0.063 0.011 0.039 -0.024 Q 0.029 -0.037 0.029 -0.055 Q 0.029 -0.092 0.061 -0.107 Q 0.07200000000000001 -0.113 0.084 -0.113 Q 0.114 -0.113 0.12 -0.088 Q 0.121 -0.083 0.121 -0.078 Q 0.121 -0.044 0.08700000000000001 -0.028 Q 0.081 -0.025 0.074 -0.024 Q 0.095 -0.011 0.124 -0.011 Q 0.177 -0.011 0.20800000000000002 -0.082 Q 0.214 -0.097 0.219 -0.115 Q 0.273 -0.319 0.273 -0.353 Q 0.267 -0.41500000000000004 0.219 -0.42 Q 0.167 -0.42 0.124 -0.367 L 0.124 -0.366 Q 0.124 -0.365 0.123 -0.365 Q 0.108 -0.34500000000000003 0.096 -0.319 Q 0.091 -0.307 0.08700000000000001 -0.295 L 0.085 -0.289 Q 0.083 -0.278 0.07200000000000001 -0.278 Q 0.06 -0.278 0.06 -0.28800000000000003 Q 0.06 -0.313 0.092 -0.36 Q 0.146 -0.442 0.221 -0.442 Q 0.298 -0.442 0.329 -0.366 Q 0.361 -0.428 0.41400000000000003 -0.44 Q 0.424 -0.442 0.434 -0.442 Q 0.493 -0.442 0.517 -0.40900000000000003 Q 0.527 -0.395 0.527 -0.376 Q 0.527 -0.335 0.49 -0.321 Q 0.481 -0.318 0.47300000000000003 -0.318 Q 0.442 -0.318 0.436 -0.34500000000000003 Q 0.435 -0.34900000000000003 0.435 -0.353 Q 0.435 -0.383 0.464 -0.4 Q 0.47300000000000003 -0.405 0.483 -0.40700000000000003 Q 0.462 -0.42 0.433 -0.42 Q 0.365 -0.42 0.337 -0.314 Q 0.335 -0.308 0.334 -0.302 Z"/></g><rect fill="rgb(204,0,0)" stroke="none" x="4.589237726941052" y="23.94232665789474" width="2.293756777777778" height="0.039999"/><g transform="translate(4.589237726941052,24.89827715789474)"><path fill="rgb(204,0,0)" stroke="none" paint-order="stroke fill markers" d=" M 0.334 -0.302 L 0.3 -0.165 Q 0.28300000000000003 -0.097 0.28300000000000003 -0.077 Q 0.28300000000000003 -0.025 0.32 -0.014 Q 0.328 -0.011 0.338 -0.011 Q 0.388 -0.011 0.429 -0.061 Q 0.456 -0.093 0.47100000000000003 -0.14200000000000002 Q 0.47400000000000003 -0.153 0.484 -0.153 Q 0.496 -0.153 0.496 -0.14300000000000002 Q 0.496 -0.11800000000000001 0.465 -0.07100000000000001 Q 0.41100000000000003 0.011 0.336 0.011 Q 0.268 0.011 0.23700000000000002 -0.046 Q 0.231 -0.055 0.228 -0.065 Q 0.20400000000000001 -0.017 0.162 0.002 Q 0.14300000000000002 0.011 0.123 0.011 Q 0.063 0.011 0.039 -0.024 Q 0.029 -0.037 0.029 -0.055 Q 0.029 -0.092 0.061 -0.107 Q 0.07200000000000001 -0.113 0.084 -0.113 Q 0.114 -0.113 0.12 -0.088 Q 0.121 -0.083 0.121 -0.078 Q 0.121 -0.044 0.08700000000000001 -0.028 Q 0.081 -0.025 0.074 -0.024 Q 0.095 -0.011 0.124 -0.011 Q 0.177 -0.011 0.20800000000000002 -0.082 Q 0.214 -0.097 0.219 -0.115 Q 0.273 -0.319 0.273 -0.353 Q 0.267 -0.41500000000000004 0.219 -0.42 Q 0.167 -0.42 0.124 -0.367 L 0.124 -0.366 Q 0.124 -0.365 0.123 -0.365 Q 0.108 -0.34500000000000003 0.096 -0.319 Q 0.091 -0.307 0.08700000000000001 -0.295 L 0.085 -0.289 Q 0.083 -0.278 0.07200000000000001 -0.278 Q 0.06 -0.278 0.06 -0.28800000000000003 Q 0.06 -0.313 0.092 -0.36 Q 0.146 -0.442 0.221 -0.442 Q 0.298 -0.442 0.329 -0.366 Q 0.361 -0.428 0.41400000000000003 -0.44 Q 0.424 -0.442 0.434 -0.442 Q 0.493 -0.442 0.517 -0.40900000000000003 Q 0.527 -0.395 0.527 -0.376 Q 0.527 -0.335 0.49 -0.321 Q 0.481 -0.318 0.47300000000000003 -0.318 Q 0.442 -0.318 0.436 -0.34500000000000003 Q 0.435 -0.34900000000000003 0.435 -0.353 Q 0.435 -0.383 0.464 -0.4 Q 0.47300000000000003 -0.405 0.483 -0.40700000000000003 Q 0.462 -0.42 0.433 -0.42 Q 0.365 -0.42 0.337 -0.314 Q 0.335 -0.308 0.334 -0.302 Z"/></g><g transform="translate(5.382988615829941,24.89827715789474)"><path fill="rgb(204,0,0)" stroke="none" paint-order="stroke fill markers" d=" M 0.40900000000000003 -0.23 L 0.40900000000000003 0.05 Q 0.40900000000000003 0.082 0.389 0.083 Q 0.369 0.083 0.369 0.05 L 0.369 -0.23 L 0.089 -0.23 Q 0.057 -0.23 0.056 -0.25 Q 0.056 -0.27 0.089 -0.27 L 0.369 -0.27 L 0.369 -0.55 Q 0.369 -0.582 0.389 -0.583 Q 0.40900000000000003 -0.583 0.40900000000000003 -0.55 L 0.40900000000000003 -0.27 L 0.6880000000000001 -0.27 Q 0.72 -0.27 0.721 -0.25 Q 0.721 -0.23 0.6880000000000001 -0.23 L 0.40900000000000003 -0.23 Z"/></g><g transform="translate(6.38299250471883,24.89827715789474)"><path fill="rgb(204,0,0)" stroke="none" paint-order="stroke fill markers" d=" M 0.294 -0.64 L 0.294 -0.079 Q 0.294 -0.049 0.306 -0.041 Q 0.323 -0.031 0.387 -0.031 L 0.419 -0.031 L 0.419 0 Q 0.384 -0.003 0.257 -0.003 Q 0.13 -0.003 0.095 0 L 0.095 -0.031 L 0.127 -0.031 Q 0.20400000000000001 -0.031 0.215 -0.049 L 0.216 -0.05 Q 0.22 -0.058 0.22 -0.079 L 0.22 -0.597 Q 0.168 -0.5710000000000001 0.089 -0.5710000000000001 L 0.089 -0.602 Q 0.209 -0.602 0.271 -0.666 Q 0.29 -0.666 0.293 -0.659 L 0.293 -0.659 L 0.293 -0.658 Q 0.294 -0.655 0.294 -0.64 Z"/></g></g><path fill="none" stroke="rgb(0,0,0)" paint-order="fill stroke markers" d=" M -5 909.1051033818271 L 897 7.105103381827348" stroke-opacity="0.6980392156862745" stroke-linecap="round" stroke-linejoin="round" stroke-miterlimit="10" stroke-width="2.5"/><text fill="rgb(0,0,0)" stroke="none" font-family="geogebra-sans-serif, sans-serif" font-size="16px" font-style="normal" font-weight="normal" text-decoration="normal" x="69" y="837" text-anchor="start" dominant-baseline="alphabetic" fill-opacity="1">y = x</text><text fill="none" stroke="rgb(255,255,255)" font-family="geogebra-sans-serif, sans-serif" font-size="16px" font-style="normal" font-weight="normal" text-decoration="normal" x="69" y="837" text-anchor="start" dominant-baseline="alphabetic" stroke-opacity="1" stroke-linejoin="bevel" stroke-miterlimit="10" stroke-width="3">y = x</text><text fill="rgb(0,0,0)" stroke="none" font-family="geogebra-sans-serif, sans-serif" font-size="16px" font-style="normal" font-weight="normal" text-decoration="normal" x="69" y="837" text-anchor="start" dominant-baseline="alphabetic" fill-opacity="1">y = x</text></g></g></svg>