<svg version="1.1" xmlns="http://www.w3.org/2000/svg" xmlns:xlink="http://www.w3.org/1999/xlink" width="892" height="908"><defs><clipPath id="WFfGBRrnTRab"><path fill="none" stroke="none" d=" M 0 0 L 892 0 L 892 908 L 0 908 L 0 0 Z"/></clipPath></defs><g transform="scale(1,1)" clip-path="url(#WFfGBRrnTRab)"><g><rect fill="rgb(255,255,255)" stroke="none" x="0" y="0" width="892" height="908" fill-opacity="1"/><path fill="none" stroke="rgb(192,192,192)" paint-order="fill stroke markers" d=" M 31.5 0.5 L 31.5 908.5 M 31.5 0.5 L 31.5 908.5 M 128.5 0.5 L 128.5 908.5 M 225.5 0.5 L 225.5 908.5 M 322.5 0.5 L 322.5 908.5 M 516.5 0.5 L 516.5 908.5 M 613.5 0.5 L 613.5 908.5 M 710.5 0.5 L 710.5 908.5 M 807.5 0.5 L 807.5 908.5" stroke-opacity="1" stroke-linecap="round" stroke-linejoin="round" stroke-miterlimit="10"/><path fill="none" stroke="rgb(192,192,192)" paint-order="fill stroke markers" d=" M 12.5 0.5 L 12.5 908.5 M 50.5 0.5 L 50.5 908.5 M 70.5 0.5 L 70.5 908.5 M 89.5 0.5 L 89.5 908.5 M 109.5 0.5 L 109.5 908.5 M 147.5 0.5 L 147.5 908.5 M 167.5 0.5 L 167.5 908.5 M 186.5 0.5 L 186.5 908.5 M 206.5 0.5 L 206.5 908.5 M 245.5 0.5 L 245.5 908.5 M 264.5 0.5 L 264.5 908.5 M 283.5 0.5 L 283.5 908.5 M 303.5 0.5 L 303.5 908.5 M 342.5 0.5 L 342.5 908.5 M 361.5 0.5 L 361.5 908.5 M 380.5 0.5 L 380.5 908.5 M 400.5 0.5 L 400.5 908.5 M 439.5 0.5 L 439.5 908.5 M 458.5 0.5 L 458.5 908.5 M 477.5 0.5 L 477.5 908.5 M 497.5 0.5 L 497.5 908.5 M 536.5 0.5 L 536.5 908.5 M 555.5 0.5 L 555.5 908.5 M 574.5 0.5 L 574.5 908.5 M 594.5 0.5 L 594.5 908.5 M 633.5 0.5 L 633.5 908.5 M 652.5 0.5 L 652.5 908.5 M 672.5 0.5 L 672.5 908.5 M 691.5 0.5 L 691.5 908.5 M 730.5 0.5 L 730.5 908.5 M 749.5 0.5 L 749.5 908.5 M 769.5 0.5 L 769.5 908.5 M 788.5 0.5 L 788.5 908.5 M 827.5 0.5 L 827.5 908.5 M 846.5 0.5 L 846.5 908.5 M 866.5 0.5 L 866.5 908.5 M 885.5 0.5 L 885.5 908.5" stroke-opacity="0.23529411764705882" stroke-linecap="round" stroke-linejoin="round" stroke-miterlimit="10"/><path fill="none" stroke="rgb(192,192,192)" paint-order="fill stroke markers" d=" M 0.5 40.5 L 892.5 40.5 M 0.5 40.5 L 892.5 40.5 M 0.5 137.5 L 892.5 137.5 M 0.5 234.5 L 892.5 234.5 M 0.5 331.5 L 892.5 331.5 M 0.5 428.5 L 892.5 428.5 M 0.5 525.5 L 892.5 525.5 M 0.5 622.5 L 892.5 622.5 M 0.5 816.5 L 892.5 816.5" stroke-opacity="1" stroke-linecap="round" stroke-linejoin="round" stroke-miterlimit="10"/><path fill="none" stroke="rgb(192,192,192)" paint-order="fill stroke markers" d=" M 0.5 1.5 L 892.5 1.5 M 0.5 1.5 L 892.5 1.5 M 0.5 20.5 L 892.5 20.5 M 0.5 59.5 L 892.5 59.5 M 0.5 79.5 L 892.5 79.5 M 0.5 98.5 L 892.5 98.5 M 0.5 117.5 L 892.5 117.5 M 0.5 156.5 L 892.5 156.5 M 0.5 176.5 L 892.5 176.5 M 0.5 195.5 L 892.5 195.5 M 0.5 215.5 L 892.5 215.5 M 0.5 253.5 L 892.5 253.5 M 0.5 273.5 L 892.5 273.5 M 0.5 292.5 L 892.5 292.5 M 0.5 312.5 L 892.5 312.5 M 0.5 350.5 L 892.5 350.5 M 0.5 370.5 L 892.5 370.5 M 0.5 389.5 L 892.5 389.5 M 0.5 409.5 L 892.5 409.5 M 0.5 447.5 L 892.5 447.5 M 0.5 467.5 L 892.5 467.5 M 0.5 486.5 L 892.5 486.5 M 0.5 506.5 L 892.5 506.5 M 0.5 544.5 L 892.5 544.5 M 0.5 564.5 L 892.5 564.5 M 0.5 583.5 L 892.5 583.5 M 0.5 603.5 L 892.5 603.5 M 0.5 642.5 L 892.5 642.5 M 0.5 661.5 L 892.5 661.5 M 0.5 680.5 L 892.5 680.5 M 0.5 700.5 L 892.5 700.5 M 0.5 739.5 L 892.5 739.5 M 0.5 758.5 L 892.5 758.5 M 0.5 777.5 L 892.5 777.5 M 0.5 797.5 L 892.5 797.5 M 0.5 836.5 L 892.5 836.5 M 0.5 855.5 L 892.5 855.5 M 0.5 874.5 L 892.5 874.5 M 0.5 894.5 L 892.5 894.5" stroke-opacity="0.23529411764705882" stroke-linecap="round" stroke-linejoin="round" stroke-miterlimit="10"/><path fill="none" stroke="rgb(0,0,0)" paint-order="fill stroke markers" d=" M 419.5 2.5 L 419.5 908.5" stroke-opacity="1" stroke-miterlimit="10"/><path fill="none" stroke="rgb(0,0,0)" paint-order="fill stroke markers" d=" M 419.5 1.5 L 415.5 5.5" stroke-opacity="1" stroke-miterlimit="10"/><path fill="none" stroke="rgb(0,0,0)" paint-order="fill stroke markers" d=" M 419.5 1.5 L 423.5 5.5" stroke-opacity="1" stroke-miterlimit="10"/><path fill="none" stroke="rgb(0,0,0)" paint-order="fill stroke markers" d=" M 0.5 719.5 L 890.5 719.5" stroke-opacity="1" stroke-miterlimit="10"/><path fill="none" stroke="rgb(0,0,0)" paint-order="fill stroke markers" d=" M 891.5 719.5 L 887.5 715.5" stroke-opacity="1" stroke-miterlimit="10"/><path fill="none" stroke="rgb(0,0,0)" paint-order="fill stroke markers" d=" M 891.5 719.5 L 887.5 723.5" stroke-opacity="1" stroke-miterlimit="10"/><text fill="rgb(0,0,0)" stroke="none" font-family="geogebra-sans-serif, sans-serif" font-size="12px" font-style="normal" font-weight="normal" text-decoration="normal" x="26" y="735" text-anchor="start" dominant-baseline="alphabetic" fill-opacity="1">–2</text><text fill="rgb(0,0,0)" stroke="none" font-family="geogebra-sans-serif, sans-serif" font-size="12px" font-style="normal" font-weight="normal" text-decoration="normal" x="26" y="735" text-anchor="start" dominant-baseline="alphabetic" fill-opacity="1">–2</text><text fill="rgb(0,0,0)" stroke="none" font-family="geogebra-sans-serif, sans-serif" font-size="12px" font-style="normal" font-weight="normal" text-decoration="normal" x="117" y="735" text-anchor="start" dominant-baseline="alphabetic" fill-opacity="1">–1.5</text><text fill="rgb(0,0,0)" stroke="none" font-family="geogebra-sans-serif, sans-serif" font-size="12px" font-style="normal" font-weight="normal" text-decoration="normal" x="117" y="735" text-anchor="start" dominant-baseline="alphabetic" fill-opacity="1">–1.5</text><text fill="rgb(0,0,0)" stroke="none" font-family="geogebra-sans-serif, sans-serif" font-size="12px" font-style="normal" font-weight="normal" text-decoration="normal" x="220" y="735" text-anchor="start" dominant-baseline="alphabetic" fill-opacity="1">–1</text><text fill="rgb(0,0,0)" stroke="none" font-family="geogebra-sans-serif, sans-serif" font-size="12px" font-style="normal" font-weight="normal" text-decoration="normal" x="220" y="735" text-anchor="start" dominant-baseline="alphabetic" fill-opacity="1">–1</text><text fill="rgb(0,0,0)" stroke="none" font-family="geogebra-sans-serif, sans-serif" font-size="12px" font-style="normal" font-weight="normal" text-decoration="normal" x="311" y="735" text-anchor="start" dominant-baseline="alphabetic" fill-opacity="1">–0.5</text><text fill="rgb(0,0,0)" stroke="none" font-family="geogebra-sans-serif, sans-serif" font-size="12px" font-style="normal" font-weight="normal" text-decoration="normal" x="311" y="735" text-anchor="start" dominant-baseline="alphabetic" fill-opacity="1">–0.5</text><text fill="rgb(0,0,0)" stroke="none" font-family="geogebra-sans-serif, sans-serif" font-size="12px" font-style="normal" font-weight="normal" text-decoration="normal" x="508" y="735" text-anchor="start" dominant-baseline="alphabetic" fill-opacity="1">0.5</text><text fill="rgb(0,0,0)" stroke="none" font-family="geogebra-sans-serif, sans-serif" font-size="12px" font-style="normal" font-weight="normal" text-decoration="normal" x="508" y="735" text-anchor="start" dominant-baseline="alphabetic" fill-opacity="1">0.5</text><text fill="rgb(0,0,0)" stroke="none" font-family="geogebra-sans-serif, sans-serif" font-size="12px" font-style="normal" font-weight="normal" text-decoration="normal" x="611" y="735" text-anchor="start" dominant-baseline="alphabetic" fill-opacity="1">1</text><text fill="rgb(0,0,0)" stroke="none" font-family="geogebra-sans-serif, sans-serif" font-size="12px" font-style="normal" font-weight="normal" text-decoration="normal" x="611" y="735" text-anchor="start" dominant-baseline="alphabetic" fill-opacity="1">1</text><text fill="rgb(0,0,0)" stroke="none" font-family="geogebra-sans-serif, sans-serif" font-size="12px" font-style="normal" font-weight="normal" text-decoration="normal" x="702" y="735" text-anchor="start" dominant-baseline="alphabetic" fill-opacity="1">1.5</text><text fill="rgb(0,0,0)" stroke="none" font-family="geogebra-sans-serif, sans-serif" font-size="12px" font-style="normal" font-weight="normal" text-decoration="normal" x="702" y="735" text-anchor="start" dominant-baseline="alphabetic" fill-opacity="1">1.5</text><text fill="rgb(0,0,0)" stroke="none" font-family="geogebra-sans-serif, sans-serif" font-size="12px" font-style="normal" font-weight="normal" text-decoration="normal" x="805" y="735" text-anchor="start" dominant-baseline="alphabetic" fill-opacity="1">2</text><text fill="rgb(0,0,0)" stroke="none" font-family="geogebra-sans-serif, sans-serif" font-size="12px" font-style="normal" font-weight="normal" text-decoration="normal" x="805" y="735" text-anchor="start" dominant-baseline="alphabetic" fill-opacity="1">2</text><text fill="rgb(0,0,0)" stroke="none" font-family="geogebra-sans-serif, sans-serif" font-size="12px" font-style="normal" font-weight="normal" text-decoration="normal" x="388" y="821" text-anchor="start" dominant-baseline="alphabetic" fill-opacity="1">–0.5</text><text fill="rgb(0,0,0)" stroke="none" font-family="geogebra-sans-serif, sans-serif" font-size="12px" font-style="normal" font-weight="normal" text-decoration="normal" x="388" y="821" text-anchor="start" dominant-baseline="alphabetic" fill-opacity="1">–0.5</text><text fill="rgb(0,0,0)" stroke="none" font-family="geogebra-sans-serif, sans-serif" font-size="12px" font-style="normal" font-weight="normal" text-decoration="normal" x="395" y="627" text-anchor="start" dominant-baseline="alphabetic" fill-opacity="1">0.5</text><text fill="rgb(0,0,0)" stroke="none" font-family="geogebra-sans-serif, sans-serif" font-size="12px" font-style="normal" font-weight="normal" text-decoration="normal" x="395" y="627" text-anchor="start" dominant-baseline="alphabetic" fill-opacity="1">0.5</text><text fill="rgb(0,0,0)" stroke="none" font-family="geogebra-sans-serif, sans-serif" font-size="12px" font-style="normal" font-weight="normal" text-decoration="normal" x="405" y="530" text-anchor="start" dominant-baseline="alphabetic" fill-opacity="1">1</text><text fill="rgb(0,0,0)" stroke="none" font-family="geogebra-sans-serif, sans-serif" font-size="12px" font-style="normal" font-weight="normal" text-decoration="normal" x="405" y="530" text-anchor="start" dominant-baseline="alphabetic" fill-opacity="1">1</text><text fill="rgb(0,0,0)" stroke="none" font-family="geogebra-sans-serif, sans-serif" font-size="12px" font-style="normal" font-weight="normal" text-decoration="normal" x="395" y="433" text-anchor="start" dominant-baseline="alphabetic" fill-opacity="1">1.5</text><text fill="rgb(0,0,0)" stroke="none" font-family="geogebra-sans-serif, sans-serif" font-size="12px" font-style="normal" font-weight="normal" text-decoration="normal" x="395" y="433" text-anchor="start" dominant-baseline="alphabetic" fill-opacity="1">1.5</text><text fill="rgb(0,0,0)" stroke="none" font-family="geogebra-sans-serif, sans-serif" font-size="12px" font-style="normal" font-weight="normal" text-decoration="normal" x="405" y="336" text-anchor="start" dominant-baseline="alphabetic" fill-opacity="1">2</text><text fill="rgb(0,0,0)" stroke="none" font-family="geogebra-sans-serif, sans-serif" font-size="12px" font-style="normal" font-weight="normal" text-decoration="normal" x="405" y="336" text-anchor="start" dominant-baseline="alphabetic" fill-opacity="1">2</text><text fill="rgb(0,0,0)" stroke="none" font-family="geogebra-sans-serif, sans-serif" font-size="12px" font-style="normal" font-weight="normal" text-decoration="normal" x="395" y="239" text-anchor="start" dominant-baseline="alphabetic" fill-opacity="1">2.5</text><text fill="rgb(0,0,0)" stroke="none" font-family="geogebra-sans-serif, sans-serif" font-size="12px" font-style="normal" font-weight="normal" text-decoration="normal" x="395" y="239" text-anchor="start" dominant-baseline="alphabetic" fill-opacity="1">2.5</text><text fill="rgb(0,0,0)" stroke="none" font-family="geogebra-sans-serif, sans-serif" font-size="12px" font-style="normal" font-weight="normal" text-decoration="normal" x="405" y="142" text-anchor="start" dominant-baseline="alphabetic" fill-opacity="1">3</text><text fill="rgb(0,0,0)" stroke="none" font-family="geogebra-sans-serif, sans-serif" font-size="12px" font-style="normal" font-weight="normal" text-decoration="normal" x="405" y="142" text-anchor="start" dominant-baseline="alphabetic" fill-opacity="1">3</text><text fill="rgb(0,0,0)" stroke="none" font-family="geogebra-sans-serif, sans-serif" font-size="12px" font-style="normal" font-weight="normal" text-decoration="normal" x="395" y="45" text-anchor="start" dominant-baseline="alphabetic" fill-opacity="1">3.5</text><text fill="rgb(0,0,0)" stroke="none" font-family="geogebra-sans-serif, sans-serif" font-size="12px" font-style="normal" font-weight="normal" text-decoration="normal" x="395" y="45" text-anchor="start" dominant-baseline="alphabetic" fill-opacity="1">3.5</text><text fill="rgb(0,0,0)" stroke="none" font-family="geogebra-sans-serif, sans-serif" font-size="12px" font-style="normal" font-weight="normal" text-decoration="normal" x="405" y="735" text-anchor="start" dominant-baseline="alphabetic" fill-opacity="1">0</text><text fill="rgb(0,0,0)" stroke="none" font-family="geogebra-sans-serif, sans-serif" font-size="12px" font-style="normal" font-weight="normal" text-decoration="normal" x="405" y="735" text-anchor="start" dominant-baseline="alphabetic" fill-opacity="1">0</text><path fill="none" stroke="rgb(153,51,0)" paint-order="fill stroke markers" d=" M 0 697.3538772297338 L 3.484375 696.9493947217812 L 6.96875 696.5375854595517 L 10.453125 696.1183167269767 L 13.937499999999943 695.6914534039826 L 17.421874999999943 695.2568579229447 L 20.90625 694.8143902243527 L 24.390625 694.3639077116728 L 27.875 693.9052652053922 L 31.359375 693.4383148962316 L 34.84375 692.9629062975097 L 38.328125 692.4788861966449 L 41.81249999999994 691.9860986057789 L 45.296875 691.4843847115054 L 48.78125 690.9735828236886 L 52.265625 690.4535283233541 L 55.74999999999994 689.9240536096368 L 59.234375 689.3849880457665 L 62.71875 688.8361579040763 L 66.20312499999994 688.2773863100147 L 69.6875 687.7084931851423 L 73.171875 687.1292951890979 L 76.65625 686.5396056605118 L 80.140625 685.9392345568498 L 83.625 685.3279883931665 L 87.10937499999994 684.7056701797505 L 90.59374999999994 684.0720793586394 L 94.078125 683.4270117389839 L 97.5625 682.7702594312436 L 101.046875 682.101610780188 L 104.53125 681.4208502966858 L 108.015625 680.7277585882579 L 111.49999999999994 680.0221122883725 L 114.98437499999994 679.3036839844597 L 118.46875 678.5722421446216 L 121.953125 677.8275510430155 L 125.4375 677.0693706838857 L 128.921875 676.2974567242176 L 132.40624999999994 675.5115603949927 L 135.89062499999994 674.7114284210163 L 139.375 673.8968029392931 L 142.859375 673.0674214159242 L 146.34375 672.2230165614988 L 149.82812499999994 671.3633162449531 L 153.3125 670.4880434058699 L 156.79687499999994 669.596915965188 L 160.28124999999994 668.6896467342953 L 163.76562499999997 667.7659433224749 L 167.25 666.8255080426746 L 170.734375 665.8680378155701 L 174.21874999999997 664.8932240718894 L 177.70312499999997 663.9007526529685 L 181.18749999999994 662.8903037095062 L 184.67187499999997 661.8615515984837 L 188.15624999999997 660.8141647782189 L 191.640625 659.7478057015174 L 195.12499999999997 658.6621307068904 L 198.60937499999997 657.5567899077998 L 202.09374999999997 656.4314270798997 L 205.57812499999994 655.2856795462328 L 209.06249999999997 654.119178060349 L 212.54687499999997 652.9315466873063 L 216.03125 651.7224026825162 L 219.51562499999997 650.4913563683941 L 222.99999999999997 649.2380110087762 L 226.48437499999997 647.9619626810606 L 229.96874999999994 646.6628001460338 L 233.45312499999997 645.3401047153368 L 236.93749999999997 643.993450116534 L 240.421875 642.6224023557343 L 243.90624999999997 641.2265195777267 L 247.39062499999997 639.8053519235802 L 250.875 638.3584413856661 L 254.35937499999994 636.8853216600527 L 257.84375 635.3855179962272 L 261.328125 633.8585470440951 L 264.81249999999994 632.3039166982084 L 268.296875 630.7211259391719 L 271.78125 629.109664672177 L 275.265625 627.4690135626105 L 278.75 625.7986438686859 L 282.234375 624.0980172710425 L 285.71875 622.3665856992586 L 289.20312499999994 620.6037911552215 L 292.6875 618.8090655332986 L 296.171875 616.9818304372504 L 299.65624999999994 615.1214969938283 L 303.14062499999994 613.227465662994 L 306.625 611.2991260447034 L 310.109375 609.3358566821892 L 313.59374999999994 607.3370248616804 L 317.078125 605.3019864084945 L 320.5625 603.230085479435 L 324.04687499999994 601.1206543514302 L 327.53124999999994 598.9730132063413 L 331.015625 596.7864699118746 L 334.5 594.5603197985232 L 337.98437499999994 592.2938454324701 L 341.46875 589.9863163843762 L 344.953125 587.6369889939809 L 348.43749999999994 585.2451061304389 L 351.921875 582.8098969483148 L 355.40625 580.330576639159 L 358.89062499999994 577.8063461785828 L 362.37499999999994 575.2363920687526 L 365.859375 572.619886076219 L 369.34375 569.9559849649979 L 372.82812499999994 567.2438302248158 L 376.31249999999994 564.4825477944328 L 379.796875 561.6712477799541 L 383.28124999999994 558.8090241680396 L 386.76562499999994 555.8949545339168 L 390.24999999999994 552.9280997441066 L 393.73437499999994 549.907503653763 L 397.21874999999994 546.8321927985317 L 400.70312499999994 543.7011760808255 L 404.1875 540.5134444504181 L 407.671875 537.267970579252 L 411.15624999999994 533.963708530356 L 414.64062499999994 530.599593420764 L 418.12499999999994 527.1745410783305 L 421.60937499999994 523.6874476923283 L 425.09375 520.1371894577168 L 428.578125 516.5226222129668 L 432.0625 512.8425810713261 L 435.54687499999994 509.09588004540433 L 439.03124999999994 505.28131166495814 L 442.51562499999994 501.39764658775334 L 445.99999999999994 497.4436332033779 L 449.484375 493.41799722987804 L 452.96875 489.31944130308875 L 456.453125 485.14664455852494 L 459.93749999999994 480.8982622056989 L 463.42187499999994 476.57292509472705 L 466.90624999999994 472.16923927508674 L 470.39062499999994 467.68578554637986 L 473.875 463.12111900095914 L 477.359375 458.47376855826974 L 480.84375 453.74223649075617 L 484.32812499999994 448.92499794118083 L 487.81249999999994 444.0205004311998 L 491.29687499999994 439.0271633610375 L 494.78125 433.9433775000975 L 498.265625 428.76750446834683 L 501.75 423.4978762083064 L 505.2343749999999 418.1327944474767 L 508.71874999999994 412.6705301510254 L 512.203125 407.10932296456286 L 515.6875 401.44738064682195 L 519.171875 395.6828784920628 L 522.65625 389.81395874201473 L 526.140625 383.83872998716595 L 529.6249999999999 377.7552665572088 L 533.1093749999999 371.56160790044254 L 536.59375 365.2557579519363 L 540.078125 358.83568449024557 L 543.5625 352.2993184824771 L 547.046875 345.6445534174897 L 550.53125 338.8692446270176 L 554.0156249999999 331.9712085944964 L 557.5 324.9482222513678 L 560.984375 317.7980222606408 L 564.46875 310.51830428747166 L 567.953125 303.1067222565344 L 571.4375 295.5608875959371 L 574.921875 287.878368467444 L 578.4062499999999 280.05668898275337 L 581.890625 272.09332840557863 L 585.375 263.98572033927746 L 588.859375 255.73125189976452 L 592.34375 247.3272628734423 L 595.828125 238.77104485987985 L 599.3124999999999 230.05984039896117 L 602.7968749999999 221.1908420822228 L 606.28125 212.16119164809538 L 609.765625 202.96797906075528 L 613.25 193.60824157229126 L 616.734375 184.078962767883 L 620.21875 174.37707159368438 L 623.7031249999999 164.49944136709814 L 625.4453125 159.4937315622567 L 627.1874999999999 154.4428887691215 L 628.9296875 149.34650605506704 L 630.671875 144.2041728184413 L 632.4140625 139.01547475548307 L 634.15625 133.7799938269443 L 635.8984374999999 128.4973082244088 L 637.640625 123.16699233630823 L 639.3828124999999 117.78861671363313 L 641.125 112.36174803533072 L 642.8671875 106.885949073397 L 644.609375 101.36077865764628 L 646.3515625 95.78579164017174 L 648.0937499999999 90.16053885947713 L 649.8359375 84.4845671042915 L 651.5781249999999 78.75741907705469 L 653.3203125 72.97863335707325 L 655.0625 67.14774436334642 L 656.8046875 61.26428231705427 L 658.546875 55.32777320370997 L 660.2890624999999 49.337738734968525 L 662.03125 43.29369631009331 L 663.7734375 37.1951589770747 L 665.515625 31.041635393395723 L 667.2578125 24.832629786448365 L 669 18.567641913588545 L 670.7421875 12.246167021834594 L 672.4843749999999 5.867695807198743 L 674.2265625 -0.5682856263445046 L 675.96875 -7.062295808261638" stroke-opacity="0.6980392156862745" stroke-linecap="round" stroke-linejoin="round" stroke-miterlimit="10" stroke-width="2.5"/><g transform="scale(19,19)"><g transform="translate(4.473684210526316,35.7142805)"><path fill="rgb(153,51,0)" stroke="none" paint-order="stroke fill markers" d=" M 0.187 -0.231 L 0.134 -0.231 Q 0.11800000000000001 -0.166 0.11800000000000001 -0.127 Q 0.11800000000000001 -0.048 0.164 -0.021 Q 0.181 -0.011 0.20500000000000002 -0.011 Q 0.295 -0.011 0.367 -0.07100000000000001 Q 0.388 -0.088 0.405 -0.11 Q 0.41200000000000003 -0.12 0.418 -0.12 Q 0.427 -0.12 0.43 -0.107 Q 0.43 -0.096 0.396 -0.064 Q 0.313 0.011 0.203 0.011 Q 0.113 0.011 0.07100000000000001 -0.066 Q 0.046 -0.111 0.046 -0.17 Q 0.046 -0.301 0.148 -0.382 Q 0.223 -0.442 0.308 -0.442 Q 0.38 -0.442 0.406 -0.392 Q 0.41500000000000004 -0.376 0.41500000000000004 -0.357 Q 0.41500000000000004 -0.305 0.37 -0.271 L 0.369 -0.27 Q 0.356 -0.261 0.34 -0.254 Q 0.28500000000000003 -0.231 0.187 -0.231 M 0.14 -0.253 L 0.181 -0.253 Q 0.382 -0.253 0.382 -0.357 Q 0.382 -0.397 0.343 -0.41400000000000003 L 0.343 -0.41400000000000003 Q 0.329 -0.419 0.308 -0.42 Q 0.252 -0.42 0.20500000000000002 -0.374 Q 0.16 -0.33 0.14 -0.253 Z"/></g><g transform="translate(4.939311210526316,35.3013885) scale(0.7,0.7)"><path fill="rgb(153,51,0)" stroke="none" paint-order="stroke fill markers" d=" M 0.334 -0.302 L 0.3 -0.165 Q 0.28300000000000003 -0.097 0.28300000000000003 -0.077 Q 0.28300000000000003 -0.025 0.32 -0.014 Q 0.328 -0.011 0.338 -0.011 Q 0.388 -0.011 0.429 -0.061 Q 0.456 -0.093 0.47100000000000003 -0.14200000000000002 Q 0.47400000000000003 -0.153 0.484 -0.153 Q 0.496 -0.153 0.496 -0.14300000000000002 Q 0.496 -0.11800000000000001 0.465 -0.07100000000000001 Q 0.41100000000000003 0.011 0.336 0.011 Q 0.268 0.011 0.23700000000000002 -0.046 Q 0.231 -0.055 0.228 -0.065 Q 0.20400000000000001 -0.017 0.162 0.002 Q 0.14300000000000002 0.011 0.123 0.011 Q 0.063 0.011 0.039 -0.024 Q 0.029 -0.037 0.029 -0.055 Q 0.029 -0.092 0.061 -0.107 Q 0.07200000000000001 -0.113 0.084 -0.113 Q 0.114 -0.113 0.12 -0.088 Q 0.121 -0.083 0.121 -0.078 Q 0.121 -0.044 0.08700000000000001 -0.028 Q 0.081 -0.025 0.074 -0.024 Q 0.095 -0.011 0.124 -0.011 Q 0.177 -0.011 0.20800000000000002 -0.082 Q 0.214 -0.097 0.219 -0.115 Q 0.273 -0.319 0.273 -0.353 Q 0.267 -0.41500000000000004 0.219 -0.42 Q 0.167 -0.42 0.124 -0.367 L 0.124 -0.366 Q 0.124 -0.365 0.123 -0.365 Q 0.108 -0.34500000000000003 0.096 -0.319 Q 0.091 -0.307 0.08700000000000001 -0.295 L 0.085 -0.289 Q 0.083 -0.278 0.07200000000000001 -0.278 Q 0.06 -0.278 0.06 -0.28800000000000003 Q 0.06 -0.313 0.092 -0.36 Q 0.146 -0.442 0.221 -0.442 Q 0.298 -0.442 0.329 -0.366 Q 0.361 -0.428 0.41400000000000003 -0.44 Q 0.424 -0.442 0.434 -0.442 Q 0.493 -0.442 0.517 -0.40900000000000003 Q 0.527 -0.395 0.527 -0.376 Q 0.527 -0.335 0.49 -0.321 Q 0.481 -0.318 0.47300000000000003 -0.318 Q 0.442 -0.318 0.436 -0.34500000000000003 Q 0.435 -0.34900000000000003 0.435 -0.353 Q 0.435 -0.383 0.464 -0.4 Q 0.47300000000000003 -0.405 0.483 -0.40700000000000003 Q 0.462 -0.42 0.433 -0.42 Q 0.365 -0.42 0.337 -0.314 Q 0.335 -0.308 0.334 -0.302 Z"/></g></g><path fill="none" stroke="rgb(0,100,0)" paint-order="fill stroke markers" d=" M 0 491.5012972545231 L 3.484375 495.5203457755623 L 6.96875 499.4768435127693 L 10.453125 503.37079046614406 L 13.937499999999943 507.20218663568636 L 17.421874999999943 510.97103202139647 L 20.90625 514.6773266232743 L 24.390625 518.3210704413199 L 27.875 521.9022634755331 L 31.359375 525.4209057259143 L 34.84375 528.8769971924629 L 38.328125 532.2705378751793 L 41.81249999999994 535.6015277740635 L 45.296875 538.8699668891154 L 48.78125 542.0758552203351 L 52.265625 545.2191927677225 L 55.74999999999994 548.2999795312775 L 59.234375 551.3182155110003 L 62.71875 554.2739007068908 L 66.20312499999994 557.167035118949 L 69.6875 559.997618747175 L 73.171875 562.7656515915687 L 76.65625 565.4711336521301 L 80.140625 568.1140649288592 L 83.625 570.694445421756 L 87.10937499999994 573.2122751308206 L 90.59374999999994 575.6675540560528 L 94.078125 578.0602821974528 L 97.5625 580.3904595550206 L 101.046875 582.658086128756 L 104.53125 584.8631619186592 L 108.015625 587.0056869247301 L 111.49999999999994 589.0856611469687 L 114.98437499999994 591.1030845853751 L 118.46875 593.0579572399491 L 121.953125 594.9502791106909 L 125.4375 596.7800501976004 L 128.921875 598.5472705006777 L 132.40624999999994 600.2519400199226 L 135.89062499999994 601.8940587553352 L 139.375 603.4736267069156 L 142.859375 604.9906438746638 L 146.34375 606.4451102585796 L 149.82812499999994 607.8370258586632 L 153.3125 609.1663906749145 L 156.79687499999994 610.4332047073334 L 160.28124999999994 611.6374679559201 L 163.76562499999997 612.7791804206746 L 167.25 613.8583421015968 L 170.734375 614.8749529986867 L 174.21874999999997 615.8290131119443 L 177.70312499999997 616.7205224413697 L 181.18749999999994 617.5494809869626 L 184.67187499999997 618.3158887487234 L 188.15624999999997 619.019745726652 L 191.640625 619.6610519207482 L 195.12499999999997 620.2398073310121 L 198.60937499999997 620.7560119574438 L 202.09374999999997 621.2096658000432 L 205.57812499999994 621.6007688588103 L 209.06249999999997 621.9293211337451 L 212.54687499999997 622.1953226248477 L 216.03125 622.398773332118 L 219.51562499999997 622.539673255556 L 222.99999999999997 622.6180223951617 L 226.48437499999997 622.6338207509351 L 229.96874999999994 622.5870683228763 L 233.45312499999997 622.4777651109852 L 236.93749999999997 622.3059111152618 L 240.421875 622.0715063357061 L 243.90624999999997 621.7745507723182 L 247.39062499999997 621.415044425098 L 250.875 620.9929872940454 L 254.35937499999994 620.5083793791607 L 257.84375 619.9612206804436 L 261.328125 619.3515111978943 L 264.81249999999994 618.6792509315127 L 268.296875 617.9444398812988 L 271.78125 617.1470780472525 L 275.265625 616.2871654293741 L 278.75 615.3647020276634 L 282.234375 614.3796878421205 L 285.71875 613.3321228727451 L 289.20312499999994 612.2220071195376 L 292.6875 611.0493405824977 L 296.171875 609.8141232616256 L 299.65624999999994 608.5163551569212 L 303.14062499999994 607.1560362683846 L 306.625 605.7331665960156 L 310.109375 604.2477461398144 L 313.59374999999994 602.6997748997809 L 317.078125 601.0892528759151 L 320.5625 599.416180068217 L 324.04687499999994 597.6805564766867 L 327.53124999999994 595.8823821013241 L 331.015625 594.0216569421292 L 334.5 592.098380999102 L 337.98437499999994 590.1125542722425 L 341.46875 588.0641767615508 L 344.953125 585.9532484670268 L 348.43749999999994 583.7797693886705 L 351.921875 581.543739526482 L 355.40625 579.2451588804611 L 358.89062499999994 576.8840274506081 L 362.37499999999994 574.4603452369226 L 365.859375 571.9741122394049 L 369.34375 569.425328458055 L 372.82812499999994 566.8139938928728 L 376.31249999999994 564.1401085438582 L 379.796875 561.4036724110115 L 383.28124999999994 558.6046854943324 L 386.76562499999994 555.743147793821 L 390.24999999999994 552.8190593094774 L 393.73437499999994 549.8324200413016 L 397.21874999999994 546.7832299892933 L 400.70312499999994 543.6714891534529 L 404.1875 540.4971975337801 L 407.671875 537.2603551302751 L 411.15624999999994 533.960961942938 L 414.64062499999994 530.5990179717683 L 418.12499999999994 527.1745232167665 L 421.60937499999994 523.6874776779323 L 425.09375 520.1378813552659 L 428.578125 516.5257342487672 L 432.0625 512.8510363584362 L 435.54687499999994 509.1137876842731 L 439.03124999999994 505.31398822627756 L 442.51562499999994 501.45163798444975 L 445.99999999999994 497.5267369587897 L 449.484375 493.5392851492973 L 452.96875 489.4892825559727 L 456.453125 485.37672917881576 L 459.93749999999994 481.2016250178267 L 463.42187499999994 476.96397007300516 L 466.90624999999994 472.6637643443514 L 470.39062499999994 468.3010078318654 L 473.875 463.87570053554714 L 477.359375 459.3878424553965 L 480.84375 454.8374335914136 L 484.32812499999994 450.22447394359864 L 487.81249999999994 445.54896351195123 L 491.29687499999994 440.81090229647145 L 494.78125 436.01029029715954 L 498.265625 431.14712751401527 L 501.75 426.22141394703874 L 505.2343749999999 421.23314959623 L 508.71874999999994 416.18233446158894 L 512.203125 411.0689685431156 L 515.6875 405.89305184080996 L 519.171875 400.654584354672 L 522.65625 395.35356608470175 L 526.140625 389.9899970308993 L 529.6249999999999 384.5638771932647 L 533.1093749999999 379.07520657179765 L 536.59375 373.52398516649833 L 540.078125 367.9102129773667 L 543.5625 362.2338900044029 L 547.046875 356.4950162476067 L 550.53125 350.6935917069783 L 554.0156249999999 344.8296163825177 L 557.5 338.9030902742247 L 560.984375 332.9140133820995 L 564.46875 326.86238570614194 L 567.953125 320.7482072463521 L 571.4375 314.57147800273 L 574.921875 308.33219797527556 L 578.4062499999999 302.0303671639892 L 581.890625 295.6659855688702 L 585.375 289.23905318991905 L 588.859375 282.7495700271355 L 592.34375 276.19753608051974 L 595.828125 269.5829513500717 L 599.3124999999999 262.9058158357915 L 602.7968749999999 256.1661295376789 L 606.28125 249.36389245573406 L 609.765625 242.49910458995686 L 613.25 235.5717659403474 L 616.734375 228.58187650690576 L 620.21875 221.5294362896318 L 623.7031249999999 214.41444528852566 L 627.1874999999999 207.2369035035872 L 630.671875 199.99681093481627 L 634.15625 192.69416758221314 L 637.640625 185.3289734457777 L 641.125 177.90122852551008 L 644.609375 170.41093282141014 L 648.0937499999999 162.85808633347813 L 651.5781249999999 155.2426890617137 L 655.0625 147.56474100611695 L 658.546875 139.82424216668778 L 662.03125 132.02119254342642 L 665.515625 124.15559213633287 L 669 116.2274409454069 L 672.4843749999999 108.23673897064896 L 675.96875 100.1834862120586 L 679.453125 92.06768266963581 L 682.9375 83.88932834338084 L 686.421875 75.64842323329356 L 689.90625 67.34496733937397 L 693.3906249999999 58.97896066162241 L 696.875 50.55040320003832 L 700.359375 42.05929495462192 L 703.84375 33.50563592537321 L 707.328125 24.889426112292313 L 710.8125 16.21066551537899 L 714.296875 7.469354134633477 L 717.7812499999999 -1.3345080299441179 L 721.265625 -10.200920978354134" stroke-opacity="0.6980392156862745" stroke-linecap="round" stroke-linejoin="round" stroke-miterlimit="10" stroke-width="2.5"/><g transform="scale(19,19)"><g transform="translate(3.9473684210526314,29.37358357894737)"><path fill="rgb(0,100,0)" stroke="none" paint-order="stroke fill markers" d=" M 0.294 -0.64 L 0.294 -0.079 Q 0.294 -0.049 0.306 -0.041 Q 0.323 -0.031 0.387 -0.031 L 0.419 -0.031 L 0.419 0 Q 0.384 -0.003 0.257 -0.003 Q 0.13 -0.003 0.095 0 L 0.095 -0.031 L 0.127 -0.031 Q 0.20400000000000001 -0.031 0.215 -0.049 L 0.216 -0.05 Q 0.22 -0.058 0.22 -0.079 L 0.22 -0.597 Q 0.168 -0.5710000000000001 0.089 -0.5710000000000001 L 0.089 -0.602 Q 0.209 -0.602 0.271 -0.666 Q 0.29 -0.666 0.293 -0.659 L 0.293 -0.659 L 0.293 -0.658 Q 0.294 -0.655 0.294 -0.64 Z"/></g><g transform="translate(4.66959330994152,29.37358357894737)"><path fill="rgb(0,100,0)" stroke="none" paint-order="stroke fill markers" d=" M 0.40900000000000003 -0.23 L 0.40900000000000003 0.05 Q 0.40900000000000003 0.082 0.389 0.083 Q 0.369 0.083 0.369 0.05 L 0.369 -0.23 L 0.089 -0.23 Q 0.057 -0.23 0.056 -0.25 Q 0.056 -0.27 0.089 -0.27 L 0.369 -0.27 L 0.369 -0.55 Q 0.369 -0.582 0.389 -0.583 Q 0.40900000000000003 -0.583 0.40900000000000003 -0.55 L 0.40900000000000003 -0.27 L 0.6880000000000001 -0.27 Q 0.72 -0.27 0.721 -0.25 Q 0.721 -0.23 0.6880000000000001 -0.23 L 0.40900000000000003 -0.23 Z"/></g><g transform="translate(5.6695971988304095,29.37358357894737)"><path fill="rgb(0,100,0)" stroke="none" paint-order="stroke fill markers" d=" M 0.334 -0.302 L 0.3 -0.165 Q 0.28300000000000003 -0.097 0.28300000000000003 -0.077 Q 0.28300000000000003 -0.025 0.32 -0.014 Q 0.328 -0.011 0.338 -0.011 Q 0.388 -0.011 0.429 -0.061 Q 0.456 -0.093 0.47100000000000003 -0.14200000000000002 Q 0.47400000000000003 -0.153 0.484 -0.153 Q 0.496 -0.153 0.496 -0.14300000000000002 Q 0.496 -0.11800000000000001 0.465 -0.07100000000000001 Q 0.41100000000000003 0.011 0.336 0.011 Q 0.268 0.011 0.23700000000000002 -0.046 Q 0.231 -0.055 0.228 -0.065 Q 0.20400000000000001 -0.017 0.162 0.002 Q 0.14300000000000002 0.011 0.123 0.011 Q 0.063 0.011 0.039 -0.024 Q 0.029 -0.037 0.029 -0.055 Q 0.029 -0.092 0.061 -0.107 Q 0.07200000000000001 -0.113 0.084 -0.113 Q 0.114 -0.113 0.12 -0.088 Q 0.121 -0.083 0.121 -0.078 Q 0.121 -0.044 0.08700000000000001 -0.028 Q 0.081 -0.025 0.074 -0.024 Q 0.095 -0.011 0.124 -0.011 Q 0.177 -0.011 0.20800000000000002 -0.082 Q 0.214 -0.097 0.219 -0.115 Q 0.273 -0.319 0.273 -0.353 Q 0.267 -0.41500000000000004 0.219 -0.42 Q 0.167 -0.42 0.124 -0.367 L 0.124 -0.366 Q 0.124 -0.365 0.123 -0.365 Q 0.108 -0.34500000000000003 0.096 -0.319 Q 0.091 -0.307 0.08700000000000001 -0.295 L 0.085 -0.289 Q 0.083 -0.278 0.07200000000000001 -0.278 Q 0.06 -0.278 0.06 -0.28800000000000003 Q 0.06 -0.313 0.092 -0.36 Q 0.146 -0.442 0.221 -0.442 Q 0.298 -0.442 0.329 -0.366 Q 0.361 -0.428 0.41400000000000003 -0.44 Q 0.424 -0.442 0.434 -0.442 Q 0.493 -0.442 0.517 -0.40900000000000003 Q 0.527 -0.395 0.527 -0.376 Q 0.527 -0.335 0.49 -0.321 Q 0.481 -0.318 0.47300000000000003 -0.318 Q 0.442 -0.318 0.436 -0.34500000000000003 Q 0.435 -0.34900000000000003 0.435 -0.353 Q 0.435 -0.383 0.464 -0.4 Q 0.47300000000000003 -0.405 0.483 -0.40700000000000003 Q 0.462 -0.42 0.433 -0.42 Q 0.365 -0.42 0.337 -0.314 Q 0.335 -0.308 0.334 -0.302 Z"/></g><g transform="translate(6.463348087719298,29.37358357894737)"><path fill="rgb(0,100,0)" stroke="none" paint-order="stroke fill markers" d=" M 0.40900000000000003 -0.23 L 0.40900000000000003 0.05 Q 0.40900000000000003 0.082 0.389 0.083 Q 0.369 0.083 0.369 0.05 L 0.369 -0.23 L 0.089 -0.23 Q 0.057 -0.23 0.056 -0.25 Q 0.056 -0.27 0.089 -0.27 L 0.369 -0.27 L 0.369 -0.55 Q 0.369 -0.582 0.389 -0.583 Q 0.40900000000000003 -0.583 0.40900000000000003 -0.55 L 0.40900000000000003 -0.27 L 0.6880000000000001 -0.27 Q 0.72 -0.27 0.721 -0.25 Q 0.721 -0.23 0.6880000000000001 -0.23 L 0.40900000000000003 -0.23 Z"/></g><g transform="translate(7.526273914075556,28.69707557894737)"><path fill="rgb(0,100,0)" stroke="none" paint-order="stroke fill markers" d=" M 0.294 -0.64 L 0.294 -0.079 Q 0.294 -0.049 0.306 -0.041 Q 0.323 -0.031 0.387 -0.031 L 0.419 -0.031 L 0.419 0 Q 0.384 -0.003 0.257 -0.003 Q 0.13 -0.003 0.095 0 L 0.095 -0.031 L 0.127 -0.031 Q 0.20400000000000001 -0.031 0.215 -0.049 L 0.216 -0.05 Q 0.22 -0.058 0.22 -0.079 L 0.22 -0.597 Q 0.168 -0.5710000000000001 0.089 -0.5710000000000001 L 0.089 -0.602 Q 0.209 -0.602 0.271 -0.666 Q 0.29 -0.666 0.293 -0.659 L 0.293 -0.659 L 0.293 -0.658 Q 0.294 -0.655 0.294 -0.64 Z"/></g><rect fill="rgb(0,100,0)" stroke="none" x="7.526273914075556" y="29.10358407894737" width="0.500002" height="0.039999"/><g transform="translate(7.526273914075556,30.05953457894737)"><path fill="rgb(0,100,0)" stroke="none" paint-order="stroke fill markers" d=" M 0.449 -0.17400000000000002 L 0.449 -0.17400000000000002 L 0.421 0 L 0.05 0 Q 0.05 -0.025 0.056 -0.032 L 0.061 -0.037 L 0.253 -0.251 Q 0.358 -0.369 0.358 -0.47200000000000003 Q 0.358 -0.561 0.304 -0.607 L 0.303 -0.608 L 0.302 -0.608 Q 0.27 -0.635 0.224 -0.635 Q 0.152 -0.635 0.109 -0.5730000000000001 Q 0.097 -0.555 0.089 -0.533 Q 0.092 -0.534 0.10200000000000001 -0.534 Q 0.14200000000000002 -0.534 0.153 -0.498 L 0.153 -0.497 Q 0.155 -0.49 0.155 -0.482 Q 0.155 -0.442 0.117 -0.431 Q 0.109 -0.429 0.10300000000000001 -0.429 Q 0.066 -0.429 0.054 -0.46 Q 0.05 -0.47100000000000003 0.05 -0.485 Q 0.05 -0.562 0.109 -0.617 Q 0.162 -0.666 0.23700000000000002 -0.666 Q 0.34700000000000003 -0.666 0.40800000000000003 -0.592 Q 0.443 -0.549 0.448 -0.49 Q 0.449 -0.481 0.449 -0.47200000000000003 Q 0.449 -0.399 0.394 -0.333 Q 0.365 -0.299 0.304 -0.243 L 0.243 -0.189 L 0.233 -0.18 L 0.127 -0.077 L 0.307 -0.077 Q 0.395 -0.077 0.402 -0.085 Q 0.41200000000000003 -0.099 0.424 -0.17400000000000002 L 0.449 -0.17400000000000002 Z"/></g><g transform="translate(8.533643629320702,29.37358357894737)"><path fill="rgb(0,100,0)" stroke="none" paint-order="stroke fill markers" d=" M 0.334 -0.302 L 0.3 -0.165 Q 0.28300000000000003 -0.097 0.28300000000000003 -0.077 Q 0.28300000000000003 -0.025 0.32 -0.014 Q 0.328 -0.011 0.338 -0.011 Q 0.388 -0.011 0.429 -0.061 Q 0.456 -0.093 0.47100000000000003 -0.14200000000000002 Q 0.47400000000000003 -0.153 0.484 -0.153 Q 0.496 -0.153 0.496 -0.14300000000000002 Q 0.496 -0.11800000000000001 0.465 -0.07100000000000001 Q 0.41100000000000003 0.011 0.336 0.011 Q 0.268 0.011 0.23700000000000002 -0.046 Q 0.231 -0.055 0.228 -0.065 Q 0.20400000000000001 -0.017 0.162 0.002 Q 0.14300000000000002 0.011 0.123 0.011 Q 0.063 0.011 0.039 -0.024 Q 0.029 -0.037 0.029 -0.055 Q 0.029 -0.092 0.061 -0.107 Q 0.07200000000000001 -0.113 0.084 -0.113 Q 0.114 -0.113 0.12 -0.088 Q 0.121 -0.083 0.121 -0.078 Q 0.121 -0.044 0.08700000000000001 -0.028 Q 0.081 -0.025 0.074 -0.024 Q 0.095 -0.011 0.124 -0.011 Q 0.177 -0.011 0.20800000000000002 -0.082 Q 0.214 -0.097 0.219 -0.115 Q 0.273 -0.319 0.273 -0.353 Q 0.267 -0.41500000000000004 0.219 -0.42 Q 0.167 -0.42 0.124 -0.367 L 0.124 -0.366 Q 0.124 -0.365 0.123 -0.365 Q 0.108 -0.34500000000000003 0.096 -0.319 Q 0.091 -0.307 0.08700000000000001 -0.295 L 0.085 -0.289 Q 0.083 -0.278 0.07200000000000001 -0.278 Q 0.06 -0.278 0.06 -0.28800000000000003 Q 0.06 -0.313 0.092 -0.36 Q 0.146 -0.442 0.221 -0.442 Q 0.298 -0.442 0.329 -0.366 Q 0.361 -0.428 0.41400000000000003 -0.44 Q 0.424 -0.442 0.434 -0.442 Q 0.493 -0.442 0.517 -0.40900000000000003 Q 0.527 -0.395 0.527 -0.376 Q 0.527 -0.335 0.49 -0.321 Q 0.481 -0.318 0.47300000000000003 -0.318 Q 0.442 -0.318 0.436 -0.34500000000000003 Q 0.435 -0.34900000000000003 0.435 -0.353 Q 0.435 -0.383 0.464 -0.4 Q 0.47300000000000003 -0.405 0.483 -0.40700000000000003 Q 0.462 -0.42 0.433 -0.42 Q 0.365 -0.42 0.337 -0.314 Q 0.335 -0.308 0.334 -0.302 Z"/></g><g transform="translate(9.105171629320703,28.96069157894737) scale(0.7,0.7)"><path fill="rgb(0,100,0)" stroke="none" paint-order="stroke fill markers" d=" M 0.449 -0.17400000000000002 L 0.449 -0.17400000000000002 L 0.421 0 L 0.05 0 Q 0.05 -0.025 0.056 -0.032 L 0.061 -0.037 L 0.253 -0.251 Q 0.358 -0.369 0.358 -0.47200000000000003 Q 0.358 -0.561 0.304 -0.607 L 0.303 -0.608 L 0.302 -0.608 Q 0.27 -0.635 0.224 -0.635 Q 0.152 -0.635 0.109 -0.5730000000000001 Q 0.097 -0.555 0.089 -0.533 Q 0.092 -0.534 0.10200000000000001 -0.534 Q 0.14200000000000002 -0.534 0.153 -0.498 L 0.153 -0.497 Q 0.155 -0.49 0.155 -0.482 Q 0.155 -0.442 0.117 -0.431 Q 0.109 -0.429 0.10300000000000001 -0.429 Q 0.066 -0.429 0.054 -0.46 Q 0.05 -0.47100000000000003 0.05 -0.485 Q 0.05 -0.562 0.109 -0.617 Q 0.162 -0.666 0.23700000000000002 -0.666 Q 0.34700000000000003 -0.666 0.40800000000000003 -0.592 Q 0.443 -0.549 0.448 -0.49 Q 0.449 -0.481 0.449 -0.47200000000000003 Q 0.449 -0.399 0.394 -0.333 Q 0.365 -0.299 0.304 -0.243 L 0.243 -0.189 L 0.233 -0.18 L 0.127 -0.077 L 0.307 -0.077 Q 0.395 -0.077 0.402 -0.085 Q 0.41200000000000003 -0.099 0.424 -0.17400000000000002 L 0.449 -0.17400000000000002 Z"/></g></g></g></g></svg>