<?xml version="1.0" encoding="UTF-8"?>
<!DOCTYPE svg PUBLIC "-//W3C//DTD SVG 1.1//EN" "http://www.w3.org/Graphics/SVG/1.1/DTD/svg11.dtd">
<!-- Creator: CorelDRAW -->
<svg xmlns="http://www.w3.org/2000/svg" xml:space="preserve" width="60.384mm" height="55.372mm" version="1.1" style="shape-rendering:geometricPrecision; text-rendering:geometricPrecision; image-rendering:optimizeQuality; fill-rule:evenodd; clip-rule:evenodd"
viewBox="0 0 6038.4 5537.2"
 xmlns:xlink="http://www.w3.org/1999/xlink"
 xmlns:xodm="http://www.corel.com/coreldraw/odm/2003">
 <defs>
  <style type="text/css">
   <![CDATA[
    .fil1 {fill:#020202}
    .fil4 {fill:#050237}
    .fil3 {fill:#0B03E4}
    .fil2 {fill:#E50B08}
    .fil0 {fill:white}
   ]]>
  </style>
 </defs>
 <g id="圖層_x0020_1">
  <metadata id="CorelCorpID_0Corel-Layer"/>
  <polygon class="fil0" points="-7.14,5537.73 6031.27,5537.73 6031.27,0.53 -7.14,0.53 "/>
  <path class="fil1" d="M4728.38 2989.18c-10.3,-112.25 -15.8,-209.03 -34.26,-311.66 -8.75,-166.04 -125.04,-470.18 -193.01,-604.8 -62.11,-123.03 -143.8,-263.99 -227.15,-365.59 -24.55,-29.93 -61.36,-91.23 -91.01,-100.83l2.55 20.85 6.32 18.54c124.28,153.67 218.47,290.64 317.3,503.66 74.29,160.12 168.31,450.16 176.57,646.28 22.7,45.21 13.25,126.72 14,186.28l1.55 49.45 -608.75 -0.06 0.67 -1419.5 -26.43 -9.64 0.21 1429.4 -313.87 -0.3c-13.87,-312.15 -114.73,-650.96 -316.94,-888.66 47.91,-66.3 379.7,-390.87 457.54,-469.67 26.73,-27.07 134.03,-136.01 146.32,-157.43 14.33,-27.01 14.96,-33.53 46.22,-50.19 15.88,-11.27 -14.82,37.64 4.12,-11.57 19.63,-51.02 107.18,-117.37 142.51,-152.85l310.26 -316.37c36.26,-38.2 120.04,-130.33 156.98,-154.77 0.36,-29.45 2.1,-16.93 -6.23,-31.4 -33.13,21.42 -126.83,122.15 -161.08,158.95l-479.63 493.05 -267.6 -211.47c-286.26,-204.45 -680.05,-351.68 -1048.12,-382.24 -666.62,-55.34 -1225.55,168.83 -1646.82,536.14l-262.51 270.97c-14.73,18.61 -37.04,46.38 -51.86,66.71 -475.44,652.16 -570.38,1497.64 -232.99,2234.29 122.7,267.9 258.13,451.86 439.12,627.42 21.45,20.81 34.63,39.69 56.56,61.89l128.48 108.63c91.73,70.06 174.63,127.86 288.8,194 669.16,387.69 1559.29,381.12 2241.94,-50.33 103.02,-65.11 189.2,-126.47 270.91,-202.98 22.48,-21.05 41.8,-30.32 65.49,-53.35 21.09,-20.5 36.04,-42.84 56.55,-62.01 25.3,-23.64 40.2,-32.89 60.87,-57.38 11.45,-13.56 14.92,-20.75 25.84,-33.78 13.38,-15.98 19.84,-18.38 32.94,-34.42 283.92,-347.65 501.26,-793.88 516.18,-1396.98l38.62 -8.37c-6.04,-37.45 15.25,-24.63 -38.6,-25.76l1.44 -42.15z"/>
  <path class="fil0" d="M4701.54 3057.13l-1921.47 -0.07c-68.42,0 -218.57,8.87 -266.73,4.21 -2.1,-25.84 183.26,-206.6 212.6,-236.18l505.51 -518.96c20.23,-20.73 40.68,-34.94 62.06,-56.37 21.8,-21.86 36.61,-38.09 58.66,-60.45 49.14,-49.82 -8.1,-58.18 53.73,-75.16 33.05,-9.08 14.32,5.42 66.19,-50.01l493.17 -506.02c46.75,-49.09 35.57,-34.47 60.37,-94.54 -76.72,-55.35 -133.96,-121.67 -258.55,-206.3 -539.65,-366.56 -1235.26,-491.08 -1872.59,-288.21 -259.42,82.57 -439.82,182.87 -631.61,316.84 -47.14,32.92 -84.27,66.15 -128.3,100.28 -291.29,225.77 -553.94,651.44 -663.99,995.37 -178.55,557.98 -117.13,1083.87 99.82,1581.36 101.29,232.28 243.64,408.69 377.97,561.72 130.22,148.36 353.9,317.44 525.97,413.92 438.74,246.01 990.14,352.32 1553.48,220.26 298.62,-70.01 710.99,-259.73 932.95,-480.81 40.9,-40.73 81.83,-67.92 123.78,-113.17 21.23,-22.91 34.55,-38.63 55.47,-63.36l155.25 -191.83c267.31,-357.1 392.51,-795.46 406.26,-1252.52z"/>
  <path class="fil0" d="M4039.99 1515.5c-12.29,21.42 -119.59,130.36 -146.32,157.43 -77.84,78.8 -409.63,403.37 -457.54,469.67 202.21,237.7 303.07,576.51 316.94,888.66l313.87 0.3 -0.21 -1429.4 -9.01 -89.2 -17.73 2.54z"/>
  <path class="fil0" d="M4086.21 1465.31c17.16,29.51 -7.51,1.24 15.16,12.45 37.38,18.5 9.21,17.57 43.47,70.65 19.97,30.94 22.98,21.19 38.11,57.89 29.65,9.6 66.46,70.9 91.01,100.83 83.35,101.6 165.04,242.56 227.15,365.59 67.97,134.62 184.26,438.76 193.01,604.8 15.92,-35.64 12.81,-1671.26 5.96,-1847.77 -36.94,24.44 -120.72,116.57 -156.98,154.77l-310.26 316.37c-35.33,35.48 -122.88,101.83 -142.51,152.85 -18.94,49.21 11.76,0.3 -4.12,11.57z"/>
  <path class="fil0" d="M2565.09 3031.42l473.36 -0.29c-25.82,-27.83 -17.5,-62.34 8.17,-72.34 34.29,-13.34 41.76,15.97 84.08,21.64 28.4,-30.7 128.04,-124.57 123.84,-175.83 -1.83,-22.22 -25.6,-132.97 -80.99,-149.15 -17.29,-5.05 -15.42,-2.29 -29.49,-4.52 -52.06,-8.28 31.95,7.52 -15.67,-2.38 -2.68,-0.56 -5.08,-1.25 -7.46,-1.82l-14.32 -4.6c11.17,-23.2 9.7,-19.39 67.76,-29.24 30.25,-5.12 59.04,-16.45 79.59,-4.13 33.55,20.11 46.83,83.46 58.8,110.73l9.18 17.8c41.88,-46.22 52.64,-75.8 101.16,-112.64 52.15,-39.59 134.89,-34.26 101.24,50.85 -69.27,25.63 -102.76,-62.74 -183.64,79.16 -20.76,36.41 0.95,76.4 12.13,118.85 10.92,41.45 19.23,85.66 40.81,111.79 30.56,-2.12 32.04,-7.66 50.49,-26.14 4.26,-4.27 13.04,-15.18 20.7,-21.5 14.62,-12.06 2.8,-9.73 23.81,-12.6 -4,42.25 -59.84,80.85 -90.57,104.87l303.4 1.51c-4.64,-237.95 -68.78,-481.84 -184.42,-677.74l-118.91 -170.09c-47.01,24.68 -630.37,637.37 -727.53,738.59 -27.92,29.09 -86.2,71.7 -105.52,109.22z"/>
  <path class="fil0" d="M4699.69 2981.91c-28.97,-12.09 -21.81,-17.28 -45.07,-72.32 -13.72,-32.46 -25.34,-58.95 -37.71,-89.29 -22.26,-54.61 -48.11,-110.89 -74.09,-171.42 -49.55,-115.48 -424.99,-1008.99 -449.66,-1037.08l-0.67 1419.5 608.75 0.06 -1.55 -49.45z"/>
  <path class="fil1" d="M4972.82 491.6c32.11,20.09 0.51,-2.63 39.56,11.69 47.68,17.47 27.86,67.86 9.23,130.3 -16.66,55.83 -34.35,116.46 -52.38,175.82 -14.56,47.95 -62.54,231.66 -85.38,262.09 -26.21,34.93 -45.56,17.37 -79.78,38.16 7.26,4.69 1.02,3.46 18.17,6.68 9.43,1.76 13.37,1.91 23.02,2.36 98.11,4.58 314.9,1.76 392.62,-23.23 113.78,-36.59 203.78,-117.08 245.56,-228.87 51.7,-138.33 3.21,-281.61 -88.77,-339.69 -92.98,-58.71 -386.82,-55.75 -421.85,-35.31z"/>
  <path class="fil1" d="M3991.16 578.68c13.01,13.96 -1.75,5.35 18.81,12.17 83.24,27.61 78.72,-14.15 -27.53,349.68 -10.78,36.94 -54.35,200.6 -76.42,228.2 -27.44,34.34 -43.22,14.75 -77.91,34.07 4.25,2.48 4.69,4.09 19.8,6.81l117.5 1.52c133.99,-0.13 284.56,4.39 355.87,-75.89 27.91,-31.42 59.31,-96.41 43.56,-154.66 -17.51,-64.78 -61.96,-74.42 -110.6,-106.82 82.16,-31.81 173.81,-54.91 173.13,-161.78 -1.09,-170.25 -291.18,-136.49 -436.21,-133.3z"/>
  <path class="fil1" d="M2783.44 3292.43c-363.28,70.76 -398.18,534.48 -66.32,480.17 352.7,-57.71 405.41,-546.21 66.32,-480.17z"/>
  <path class="fil0" d="M5142.27 519.33c-20.77,31.81 -96.26,312.17 -114.34,374.44 -8.78,30.27 -62.5,165.52 -32.9,184.16 38.29,24.13 182.46,-6.95 221.13,-21.1 112.79,-41.28 183.44,-148.86 190.08,-302.49 7.95,-184.16 -81.71,-250.7 -263.97,-235.01z"/>
  <path class="fil2" d="M4653.85 858.83c8.33,14.35 6.59,1.93 6.23,31.14 6.85,175.03 9.96,1796.97 -5.96,1832.31 18.46,101.77 23.96,197.74 34.26,309.05l41.32 -0.05 0.97 -2232.61 -67.71 -0.32 -9.11 60.48z"/>
  <path class="fil1" d="M4918.48 3471.93c39.68,-0.01 164.15,6.28 192.64,-8.53 -25.77,-18.42 -123.5,-11.4 48.08,-193.77l186.37 -0.99c-9.64,221.78 -39.24,159.15 -102.76,194.76l196.24 9.05c31.89,0.03 37.86,3.61 59.52,-9.05l-39.19 -12.91c-27.03,-9 -20.58,-6.31 -36.31,-20.29 -15.06,-69.03 36.7,-499.97 46.97,-599.04 -34.83,1.82 -113.61,123.87 -136.48,154.58 -42.13,56.56 -84.89,110.39 -128.06,168.2 -34.12,45.7 -188.16,264.43 -237.14,287.7 -33.27,15.8 -36.92,7.63 -49.88,30.29z"/>
  <path class="fil0" d="M2782.04 3317.6c-85.11,26.95 -143.55,115.32 -177.06,207.92 -37.96,104.9 -29.79,264.83 118.38,219.81 177.56,-53.94 288.45,-500.49 58.68,-427.73z"/>
  <path class="fil3" d="M4093.16 1614.01c24.77,29.05 401.7,953.18 451.44,1072.61 26.09,62.61 52.04,120.82 74.39,177.3 12.41,31.38 24.08,58.78 37.86,92.35 23.35,56.92 16.16,62.29 45.24,74.8 -0.75,-61.61 8.74,-145.91 -14.05,-192.67 -28.38,-36.65 -496.41,-1178.23 -495.83,-1189.34l-6.34 -19.18c-31.29,-14.74 -0.91,8.73 -31.53,-21.89 -14.33,-14.34 -37.59,-53.08 -56.34,-60.59l-4.84 66.61z"/>
  <path class="fil1" d="M4360.47 3669.46c-45.81,-0.23 -123.48,158.03 -308.29,96.41 -224.42,-74.83 -115.65,-457.43 92.07,-538.68 55.29,-21.63 130.07,-27.67 181.98,2.35 74.98,43.37 37.62,92.54 62.51,155.36 26.78,-10.08 18.41,-25.57 35.48,-97.37 8.93,-37.58 16.58,-72.9 25.32,-111.63 -49.26,7.91 -24.82,34.14 -90.07,21.2 -110.22,-21.86 -169.41,-44.57 -310.29,28.34 -95.74,49.55 -187.55,149.18 -214.38,284.26 -66.86,336.68 376.39,412.24 525.67,159.76z"/>
  <path class="fil0" d="M4685.69 2795.63c-8.26,-196.12 -102.28,-486.16 -176.57,-646.28 -98.83,-213.02 -193.02,-349.99 -317.3,-503.66 -0.58,10.74 465.6,1114.5 493.87,1149.94z"/>
  <path class="fil1" d="M2782.79 1710.8c51.33,22.2 111.82,-93.1 111.82,143.93 0,676.98 6.43,450.17 -102.84,524.93 23.71,16.54 278.86,13.31 298.51,0 -66.26,-47.1 -100.5,45.24 -100.5,-143.93l0.08 -616.44c-34.63,0.61 -76.43,23.69 -109.97,38.72 -19.5,8.73 -32.2,14.02 -53,23.19 -31.23,13.75 -33.4,7.06 -44.1,29.6z"/>
  <path class="fil0" d="M3996.09 1170.11c283.64,45 307.91,-176.44 240.07,-246.48 -32.78,-33.85 -100.48,-36.09 -159.39,-32.63l-80.68 279.11z"/>
  <path class="fil0" d="M4087.99 854.43c109.33,2.8 202.77,-13.21 234.17,-90.78 48.31,-119.33 -45.29,-168.28 -158.36,-148.69l-75.81 239.47z"/>
  <path class="fil0" d="M5185.57 3233.17l164.62 0.79 25.18 -242.93c-15.14,7.63 -180.7,223.14 -189.8,242.14z"/>
  <path class="fil0" d="M3117.47 3030.66l209.38 -1.02c-28.24,-22.14 -44.84,-125.1 -58.51,-172.41 -93.68,113.07 -20.72,46.26 -150.87,173.43z"/>
  <path class="fil4" d="M4039.99 1515.5l17.73 -2.54 9.01 89.2 26.43 9.64 4.82 -64.4c18.68,7.26 41.85,44.72 56.12,58.58 30.5,29.61 0.24,6.92 31.4,21.17l-2.55 -20.85c-15.13,-36.7 -18.14,-26.95 -38.11,-57.89 -34.26,-53.08 -6.09,-52.15 -43.47,-70.65 -22.67,-11.21 2,17.06 -15.16,-12.45 -31.26,16.66 -31.89,23.18 -46.22,50.19z"/>
 </g>
</svg>
