<svg width="100%" height="100%" xmlns="http://www.w3.org/2000/svg" x="0px" y="0px" viewBox="0 0 117.45 68.66" style="width: 100%;"><g><g><path d="M60.49,41.52h56.96c0-15.73-12.75-28.48-28.48-28.48c-0.48,0-0.96,0.01-1.44,0.04c0.99-4.68,4.15-8.97,7.04-12.78    c0.14-0.18-0.11-0.4-0.27-0.24c0,0-24.24,10.4-31.14,29.43C61.44,33.14,60.49,37.22,60.49,41.52z" fill="rgb(149 171 241 / 70%)"></path></g><g><path d="M0,41.52h56.96c0-15.73-12.75-28.48-28.48-28.48c-0.48,0-0.96,0.01-1.44,0.04c0.99-4.68,4.15-8.97,7.04-12.78    c0.14-0.18-0.11-0.4-0.27-0.24c0,0-24.24,10.4-31.14,29.43C0.96,33.14,0,37.22,0,41.52z" fill="rgb(149 171 241 / 70%)"></path></g><path d="M88.97,68.66c11.52,0,20.87-9.34,20.87-20.87H68.1C68.1,59.32,77.44,68.66,88.97,68.66z" fill="rgba(197,17,106,0)"></path><path d="M28.48,68.66c11.52,0,20.87-9.34,20.87-20.87H7.61C7.61,59.32,16.96,68.66,28.48,68.66z" fill="rgba(197,17,106,0)"></path></g></svg>