<svg width="100%" height="100%" xmlns="http://www.w3.org/2000/svg" x="0px" y="0px" viewBox="0 0 117.45 68.66" style="width: 100%;"><g><g><path d="M56.96,27.14H0c0,15.73,12.75,28.48,28.48,28.48c0.48,0,0.96-0.01,1.44-0.04c-0.99,4.68-4.15,8.97-7.04,12.78    c-0.14,0.18,0.11,0.4,0.27,0.24c0,0,24.24-10.4,31.14-29.43C56,35.52,56.96,31.44,56.96,27.14z" fill="rgb(149 171 241 / 70%)"></path></g><g><path d="M117.45,27.14H60.49c0,15.73,12.75,28.48,28.48,28.48c0.48,0,0.96-0.01,1.44-0.04c-0.99,4.68-4.15,8.97-7.04,12.78    c-0.14,0.18,0.11,0.4,0.27,0.24c0,0,24.24-10.4,31.14-29.43C116.49,35.52,117.45,31.44,117.45,27.14z" fill="rgb(149 171 241 / 70%)"></path></g><path d="M28.48,0C16.96,0,7.61,9.34,7.61,20.87h41.73C49.35,9.34,40.01,0,28.48,0z" fill="rgba(197,17,106,0)"></path><path d="M88.97,0C77.44,0,68.1,9.34,68.1,20.87h41.73C109.83,9.34,100.49,0,88.97,0z" fill="rgba(197,17,106,0)"></path></g></svg>