<svg version="1.1" xmlns="http://www.w3.org/2000/svg" xmlns:xlink="http://www.w3.org/1999/xlink" x="0px" y="0px"
	 viewBox="0 0 1010 214" style="enable-background:new 0 0 1010 214;" xml:space="preserve">
<style type="text/css">
	.st0{font-family:'TimesNewRomanPS-BoldMT';}
	.st1{font-size:48px;}
</style>
<g id="XMLID_66_">
	<g id="XMLID_1_">
		<g id="XMLID_107_">
			<path d="M335,196c12.1,0,24.1,0,36.2,0c28.8,0,57.6,0,86.4,0c35,0,70,0,105,0c30.3,0,60.5,0,90.8,0c9.9,0,19.9,0,29.8,0
				c4.5,0,9.8,0.8,14.3,0c0.2,0,0.4,0,0.6,0c1.9,0,1.9-3,0-3c-12.1,0-24.1,0-36.2,0c-28.8,0-57.6,0-86.4,0c-35,0-70,0-105,0
				c-30.3,0-60.5,0-90.8,0c-9.9,0-19.9,0-29.8,0c-4.5,0-9.8-0.8-14.3,0c-0.2,0-0.4,0-0.6,0C333.1,193,333.1,196,335,196L335,196z"/>
		</g>
	</g>
	<g id="XMLID_2_">
		<g id="XMLID_101_">
			<path d="M336,195c0-49.3,0-98.7,0-148c0-7,0-14,0-21c0-1.9-3-1.9-3,0c0,49.3,0,98.7,0,148c0,7,0,14,0,21
				C333,196.9,336,196.9,336,195L336,195z"/>
		</g>
	</g>
	<g id="XMLID_3_">
		<g id="XMLID_95_">
			<path id="XMLID_99_" d="M457.5,193c-21.7,0-43.3,0-65,0c0.5,0.5,1,1,1.5,1.5c0-21.7,0-43.3,0-65c-0.5,0.5-1,1-1.5,1.5
				c21.7,0,43.3,0,65,0c-0.5-0.5-1-1-1.5-1.5c0,21.7,0,43.3,0,65c0,1.9,3,1.9,3,0c0-21.7,0-43.3,0-65c0-0.8-0.7-1.5-1.5-1.5
				c-21.7,0-43.3,0-65,0c-0.8,0-1.5,0.7-1.5,1.5c0,21.7,0,43.3,0,65c0,0.8,0.7,1.5,1.5,1.5c21.7,0,43.3,0,65,0
				C459.4,196,459.4,193,457.5,193z"/>
		</g>
	</g>
	<g id="XMLID_4_">
		<g id="XMLID_89_">
			<path id="XMLID_93_" d="M648.3,193c-32,0-64.1,0-96.1,0c-4.6,0-9.2,0-13.7,0c0.5,0.5,1,1,1.5,1.5c0-32,0-64.1,0-96.1
				c0-4.6,0-9.2,0-13.7c-0.5,0.5-1,1-1.5,1.5c32,0,64.1,0,96.1,0c4.6,0,9.2,0,13.7,0c-0.5-0.5-1-1-1.5-1.5c0,32,0,64.1,0,96.1
				c0,4.6,0,9.2,0,13.7c0,1.9,3,1.9,3,0c0-32,0-64.1,0-96.1c0-4.6,0-9.2,0-13.7c0-0.8-0.7-1.5-1.5-1.5c-32,0-64.1,0-96.1,0
				c-4.6,0-9.2,0-13.7,0c-0.8,0-1.5,0.7-1.5,1.5c0,32,0,64.1,0,96.1c0,4.6,0,9.2,0,13.7c0,0.8,0.7,1.5,1.5,1.5c32,0,64.1,0,96.1,0
				c4.6,0,9.2,0,13.7,0C650.3,196,650.3,193,648.3,193z"/>
		</g>
	</g>
	<g id="XMLID_5_">
		<g id="XMLID_83_">
			<path d="M333.4,44.9c-6.3,5.3-12.6,10.7-18.8,16c-1.5,1.3,0.7,3.4,2.1,2.1c6.3-5.3,12.6-10.7,18.8-16
				C337,45.8,334.9,43.7,333.4,44.9L333.4,44.9z"/>
		</g>
	</g>
	<g id="XMLID_6_">
		<g id="XMLID_77_">
			<path d="M333.4,60.9c-6.3,5.3-12.6,10.7-18.8,16c-1.5,1.3,0.7,3.4,2.1,2.1c6.3-5.3,12.6-10.7,18.8-16
				C337,61.8,334.9,59.7,333.4,60.9L333.4,60.9z"/>
		</g>
	</g>
	<g id="XMLID_8_">
		<g id="XMLID_71_">
			<path d="M333.4,76.9c-6.3,5.3-12.6,10.7-18.8,16c-1.5,1.3,0.7,3.4,2.1,2.1c6.3-5.3,12.6-10.7,18.8-16
				C337,77.8,334.9,75.7,333.4,76.9L333.4,76.9z"/>
		</g>
	</g>
	<g id="XMLID_7_">
		<g id="XMLID_64_">
			<path d="M333.4,92.9c-6.3,5.3-12.6,10.7-18.8,16c-1.5,1.3,0.7,3.4,2.1,2.1c6.3-5.3,12.6-10.7,18.8-16
				C337,93.8,334.9,91.7,333.4,92.9L333.4,92.9z"/>
		</g>
	</g>
	<g id="XMLID_12_">
		<g id="XMLID_57_">
			<path d="M333.4,108.9c-6.3,5.3-12.6,10.7-18.8,16c-1.5,1.3,0.7,3.4,2.1,2.1c6.3-5.3,12.6-10.7,18.8-16
				C337,109.8,334.9,107.7,333.4,108.9L333.4,108.9z"/>
		</g>
	</g>
	<g id="XMLID_11_">
		<g id="XMLID_50_">
			<path d="M333.4,124.9c-6.3,5.3-12.6,10.7-18.8,16c-1.5,1.3,0.7,3.4,2.1,2.1c6.3-5.3,12.6-10.7,18.8-16
				C337,125.8,334.9,123.7,333.4,124.9L333.4,124.9z"/>
		</g>
	</g>
	<g id="XMLID_10_">
		<g id="XMLID_44_">
			<path d="M333.4,140.9c-6.3,5.3-12.6,10.7-18.8,16c-1.5,1.3,0.7,3.4,2.1,2.1c6.3-5.3,12.6-10.7,18.8-16
				C337,141.8,334.9,139.7,333.4,140.9L333.4,140.9z"/>
		</g>
	</g>
	<g id="XMLID_9_">
		<g id="XMLID_38_">
			<path d="M333.4,155.9c-6.3,5.3-12.6,10.7-18.8,16c-1.5,1.3,0.7,3.4,2.1,2.1c6.3-5.3,12.6-10.7,18.8-16
				C337,156.8,334.9,154.7,333.4,155.9L333.4,155.9z"/>
		</g>
	</g>
	<g id="XMLID_20_">
		<g id="XMLID_32_">
			<path d="M333.4,170.9c-6.3,5.3-12.6,10.7-18.8,16c-1.5,1.3,0.7,3.4,2.1,2.1c6.3-5.3,12.6-10.7,18.8-16
				C337,171.8,334.9,169.7,333.4,170.9L333.4,170.9z"/>
		</g>
	</g>
	<g id="XMLID_13_">
		<g id="XMLID_26_">
			<path d="M333.4,28.9c-6.3,5.3-12.6,10.7-18.8,16c-1.5,1.3,0.7,3.4,2.1,2.1c6.3-5.3,12.6-10.7,18.8-16
				C337,29.8,334.9,27.7,333.4,28.9L333.4,28.9z"/>
		</g>
	</g>
	<text id="XMLID_54_" transform="matrix(1 0 0 1 407 173)" class="st0 st1">m</text>
	<text id="XMLID_60_" transform="matrix(1 0 0 1 571.6665 158.0002)" class="st0 st1">M</text>
</g>
</svg>