<svg id="图层_1" data-name="图层 1" xmlns="http://www.w3.org/2000/svg" xmlns:xlink="http://www.w3.org/1999/xlink" viewBox="0 0 1045.78 790.88"><defs><style>.cls-1,.cls-16{fill:none;}.cls-1{clip-rule:evenodd;}.cls-2{font-size:75.46px;}.cls-2,.cls-3,.cls-5{font-family:TimesNewRomanPS-ItalicMT, Times New Roman;font-style:italic;}.cls-3{font-size:44.02px;}.cls-4{clip-path:url(#clip-path);}.cls-10,.cls-5,.cls-7,.cls-8{font-size:28.25px;}.cls-6{letter-spacing:-0.01em;}.cls-10,.cls-7,.cls-8{font-family:TimesNewRomanPSMT, Times New Roman;}.cls-12,.cls-8{letter-spacing:-0.03em;}.cls-9{letter-spacing:0em;}.cls-10,.cls-13{letter-spacing:-0.03em;}.cls-11{letter-spacing:0em;}.cls-14{clip-path:url(#clip-path-2);}.cls-15{fill:#d4d4d4;}.cls-15,.cls-17{fill-rule:evenodd;}.cls-16{stroke:#000;stroke-linecap:square;stroke-miterlimit:10;stroke-width:0;}.cls-18{font-size:38.6px;font-family:AdobeSongStd-Light-GBpc-EUC-H, Adobe Song Std;}</style><clipPath id="clip-path" transform="translate(-101.68 -28)"><polygon class="cls-1" points="103.56 29.88 645.52 29.88 645.52 817 103.56 817 103.56 29.88 103.56 29.88"/></clipPath><clipPath id="clip-path-2" transform="translate(-101.68 -28)"><polygon class="cls-1" points="101.68 28 645.52 28 645.52 817 101.68 817 101.68 28 101.68 28"/></clipPath></defs><title>m=5</title><text class="cls-2" transform="translate(796.32 415.86)">b</text><text class="cls-2" transform="translate(859.83 351.71)">a</text><text class="cls-2" transform="translate(914.54 419)">b</text><text class="cls-2" transform="translate(822.73 485.66)">c</text><text class="cls-2" transform="translate(891.27 485.66)">c</text><text class="cls-3" transform="translate(894.42 357.37)">n</text><text class="cls-3" transform="translate(832.79 419)">n</text><text class="cls-3" transform="translate(952.27 425.29)">n</text><text class="cls-3" transform="translate(920.2 485.66)">n</text><text class="cls-3" transform="translate(855.43 489.43)">n</text><g class="cls-4"><text class="cls-5" transform="translate(60.21 32.02)">n</text><text class="cls-5" transform="translate(186.28 32.02)"><tspan class="cls-6">A</tspan><tspan x="16.97" y="0">n</tspan></text><text class="cls-5" transform="translate(321.79 32.02)"><tspan class="cls-6">B</tspan><tspan x="16.97" y="0">n</tspan></text><text class="cls-5" transform="translate(457.28 32.02)">Cn</text><text class="cls-7" transform="translate(62.09 73.44)">0</text><text class="cls-7" transform="translate(197.58 73.44)">1</text><text class="cls-7" transform="translate(333.07 73.44)">0</text><text class="cls-7" transform="translate(468.56 73.44)">0</text><text class="cls-7" transform="translate(62.09 114.86)">1</text><text class="cls-7" transform="translate(197.58 114.86)">0</text><text class="cls-7" transform="translate(333.07 114.86)">1</text><text class="cls-7" transform="translate(468.56 114.86)">0</text><text class="cls-7" transform="translate(62.09 156.3)">2</text><text class="cls-7" transform="translate(197.58 156.3)">2</text><text class="cls-7" transform="translate(333.07 156.3)">0</text><text class="cls-7" transform="translate(468.56 156.3)">1</text><text class="cls-7" transform="translate(62.09 197.72)">3</text><text class="cls-7" transform="translate(197.58 197.72)">0</text><text class="cls-7" transform="translate(333.07 197.72)">3</text><text class="cls-7" transform="translate(468.56 197.72)">1</text><text class="cls-7" transform="translate(62.09 239.14)">4</text><text class="cls-7" transform="translate(197.58 239.14)">6</text><text class="cls-7" transform="translate(333.07 239.14)">1</text><text class="cls-7" transform="translate(468.56 239.14)">4</text><text class="cls-7" transform="translate(62.09 280.58)">5</text><text class="cls-7" transform="translate(197.58 280.58)">2</text><text class="cls-8" transform="translate(327.42 280.58)">1<tspan class="cls-9" x="13.19" y="0">0</tspan></text><text class="cls-7" transform="translate(468.56 280.58)">5</text><text class="cls-7" transform="translate(62.09 322)">6</text><text class="cls-10" transform="translate(191.93 322)">2<tspan class="cls-11" x="13.19" y="0">0</tspan></text><text class="cls-7" transform="translate(333.07 322)">7</text><text class="cls-8" transform="translate(462.93 322)">1<tspan class="cls-9" x="13.19" y="0">5</tspan></text><text class="cls-7" transform="translate(62.09 363.42)">7</text><text class="cls-10" transform="translate(191.93 363.42)">1<tspan class="cls-11" x="13.19" y="0">4</tspan></text><text class="cls-8" transform="translate(327.42 363.42)">3<tspan class="cls-9" x="13.19" y="0">5</tspan></text><text class="cls-8" transform="translate(462.93 363.42)">2<tspan class="cls-9" x="13.19" y="0">2</tspan></text><text class="cls-7" transform="translate(62.09 404.87)">8</text><text class="cls-10" transform="translate(191.93 404.87)">7<tspan class="cls-11" x="13.19" y="0">0</tspan></text><text class="cls-8" transform="translate(327.42 404.87)">3<tspan class="cls-9" x="13.19" y="0">6</tspan></text><text class="cls-8" transform="translate(462.93 404.87)">5<tspan class="cls-9" x="13.19" y="0">7</tspan></text><text class="cls-7" transform="translate(62.09 446.29)">9</text><text class="cls-10" transform="translate(191.93 446.29)">7<tspan class="cls-11" x="13.19" y="0">2</tspan></text><text class="cls-7" transform="translate(319.9 446.29)"><tspan class="cls-12">12</tspan><tspan x="26.38" y="0">7</tspan></text><text class="cls-8" transform="translate(462.93 446.29)">9<tspan class="cls-9" x="13.19" y="0">3</tspan></text><text class="cls-7" transform="translate(56.46 487.71)"><tspan class="cls-13">1</tspan><tspan x="13.19" y="0">0</tspan></text><text class="cls-7" transform="translate(184.41 487.71)"><tspan class="cls-13">25</tspan><tspan x="26.38" y="0">4</tspan></text><text class="cls-7" transform="translate(319.9 487.71)"><tspan class="cls-12">16</tspan><tspan x="26.38" y="0">5</tspan></text><text class="cls-7" transform="translate(455.39 487.71)"><tspan class="cls-12">22</tspan><tspan x="26.38" y="0">0</tspan></text><text class="cls-7" transform="translate(56.46 529.13)"><tspan class="cls-13">1</tspan><tspan x="13.19" y="0">1</tspan></text><text class="cls-7" transform="translate(184.41 529.13)"><tspan class="cls-13">33</tspan><tspan x="26.38" y="0">0</tspan></text><text class="cls-7" transform="translate(319.9 529.13)"><tspan class="cls-12">47</tspan><tspan x="26.38" y="0">4</tspan></text><text class="cls-7" transform="translate(455.39 529.13)"><tspan class="cls-12">38</tspan><tspan x="26.38" y="0">5</tspan></text><text class="cls-7" transform="translate(56.46 570.55)"><tspan class="cls-13">1</tspan><tspan x="13.19" y="0">2</tspan></text><text class="cls-7" transform="translate(184.41 570.55)"><tspan class="cls-13">94</tspan><tspan x="26.38" y="0">8</tspan></text><text class="cls-7" transform="translate(319.9 570.55)"><tspan class="cls-12">71</tspan><tspan x="26.38" y="0">5</tspan></text><text class="cls-7" transform="translate(455.39 570.55)"><tspan class="cls-12">85</tspan><tspan x="26.38" y="0">9</tspan></text><text class="cls-7" transform="translate(56.46 611.99)"><tspan class="cls-13">1</tspan><tspan x="13.19" y="0">3</tspan></text><text class="cls-7" transform="translate(178.76 611.99)"><tspan class="cls-13">143</tspan><tspan x="39.57" y="0">0</tspan></text><text class="cls-7" transform="translate(314.25 611.99)"><tspan class="cls-12">180</tspan><tspan x="39.57" y="0">7</tspan></text><text class="cls-7" transform="translate(449.74 611.99)"><tspan class="cls-12">157</tspan><tspan x="39.57" y="0">4</tspan></text><text class="cls-7" transform="translate(56.46 653.41)"><tspan class="cls-13">1</tspan><tspan x="13.19" y="0">4</tspan></text><text class="cls-7" transform="translate(178.76 653.41)"><tspan class="cls-13">361</tspan><tspan x="39.57" y="0">4</tspan></text><text class="cls-7" transform="translate(314.25 653.41)"><tspan class="cls-12">300</tspan><tspan x="39.57" y="0">4</tspan></text><text class="cls-7" transform="translate(449.74 653.41)"><tspan class="cls-12">338</tspan><tspan x="39.57" y="0">1</tspan></text><text class="cls-7" transform="translate(56.46 694.83)"><tspan class="cls-13">1</tspan><tspan x="13.19" y="0">5</tspan></text><text class="cls-7" transform="translate(178.76 694.83)"><tspan class="cls-13">600</tspan><tspan x="39.57" y="0">8</tspan></text><text class="cls-7" transform="translate(314.25 694.83)"><tspan class="cls-12">699</tspan><tspan x="39.57" y="0">5</tspan></text><text class="cls-7" transform="translate(449.74 694.83)"><tspan class="cls-12">638</tspan><tspan x="39.57" y="0">5</tspan></text><text class="cls-7" transform="translate(56.46 736.27)"><tspan class="cls-13">1</tspan><tspan x="13.19" y="0">6</tspan></text><text class="cls-7" transform="translate(171.24 736.27)"><tspan class="cls-13">1399</tspan><tspan x="52.76" y="0">0</tspan></text><text class="cls-7" transform="translate(306.73 736.27)"><tspan class="cls-12">1239</tspan><tspan x="52.76" y="0">3</tspan></text><text class="cls-7" transform="translate(442.22 736.27)"><tspan class="cls-12">1338</tspan><tspan x="52.76" y="0">0</tspan></text><text class="cls-7" transform="translate(56.46 777.71)"><tspan class="cls-13">1</tspan><tspan x="13.19" y="0">7</tspan></text><text class="cls-7" transform="translate(171.24 777.71)"><tspan class="cls-13">2478</tspan><tspan x="52.76" y="0">6</tspan></text><text class="cls-7" transform="translate(306.73 777.71)"><tspan class="cls-12">2737</tspan><tspan x="52.76" y="0">0</tspan></text><text class="cls-7" transform="translate(442.22 777.71)"><tspan class="cls-12">2577</tspan><tspan x="52.76" y="0">3</tspan></text></g><g class="cls-14"><polyline class="cls-15" points="0 0 0 0 1.88 0 1.88 0 0 0"/><polyline class="cls-15" points="135.49 0 135.49 0 137.37 0 137.37 0 135.49 0"/><polyline class="cls-15" points="270.98 0 270.98 0 272.86 0 272.86 0 270.98 0"/><polyline class="cls-15" points="406.47 0 406.47 0 408.35 0 408.35 0 406.47 0"/><polyline class="cls-15" points="541.96 0 541.96 0 543.84 0 543.84 0 541.96 0"/><line class="cls-16" y2="790.88"/><polyline class="cls-17" points="0 0 0 790.88 1.88 790.88 1.88 0 0 0"/><line class="cls-16" x1="135.49" y1="1.88" x2="135.49" y2="790.88"/><polyline class="cls-17" points="135.49 1.88 135.49 790.88 137.37 790.88 137.37 1.88 135.49 1.88"/><line class="cls-16" x1="270.98" y1="1.88" x2="270.98" y2="790.88"/><polyline class="cls-17" points="270.98 1.88 270.98 790.88 272.86 790.88 272.86 1.88 270.98 1.88"/><line class="cls-16" x1="406.47" y1="1.88" x2="406.47" y2="790.88"/><polyline class="cls-17" points="406.47 1.88 406.47 790.88 408.35 790.88 408.35 1.88 406.47 1.88"/><line class="cls-16" x1="541.96" y1="1.88" x2="541.96" y2="790.88"/><polyline class="cls-17" points="541.96 1.88 541.96 790.88 543.84 790.88 543.84 1.88 541.96 1.88"/><line class="cls-16" x1="1.88" x2="545.72"/><polyline class="cls-17" points="1.88 0 1.88 1.88 545.72 1.88 545.72 0 1.88 0"/><line class="cls-16" x1="1.88" y1="41.43" x2="545.72" y2="41.43"/><polyline class="cls-17" points="1.88 41.43 1.88 43.31 545.72 43.31 545.72 41.43 1.88 41.43"/><line class="cls-16" x1="1.88" y1="82.85" x2="545.72" y2="82.85"/><polyline class="cls-17" points="1.88 82.85 1.88 84.74 545.72 84.74 545.72 82.85 1.88 82.85"/><line class="cls-16" x1="1.88" y1="124.28" x2="545.72" y2="124.28"/><polyline class="cls-17" points="1.88 124.28 1.88 126.17 545.72 126.17 545.72 124.28 1.88 124.28"/><line class="cls-16" x1="1.88" y1="165.71" x2="545.72" y2="165.71"/><polyline class="cls-17" points="1.88 165.71 1.88 167.59 545.72 167.59 545.72 165.71 1.88 165.71"/><line class="cls-16" x1="1.88" y1="207.14" x2="545.72" y2="207.14"/><polyline class="cls-17" points="1.88 207.14 1.88 209.02 545.72 209.02 545.72 207.14 1.88 207.14"/><line class="cls-16" x1="1.88" y1="248.56" x2="545.72" y2="248.56"/><polyline class="cls-17" points="1.88 248.56 1.88 250.45 545.72 250.45 545.72 248.56 1.88 248.56"/><line class="cls-16" x1="1.88" y1="289.99" x2="545.72" y2="289.99"/><polyline class="cls-17" points="1.88 289.99 1.88 291.87 545.72 291.87 545.72 289.99 1.88 289.99"/><line class="cls-16" x1="1.88" y1="331.42" x2="545.72" y2="331.42"/><polyline class="cls-17" points="1.88 331.42 1.88 333.3 545.72 333.3 545.72 331.42 1.88 331.42"/><line class="cls-16" x1="1.88" y1="372.84" x2="545.72" y2="372.84"/><polyline class="cls-17" points="1.88 372.85 1.88 374.73 545.72 374.73 545.72 372.85 1.88 372.85"/><line class="cls-16" x1="1.88" y1="414.27" x2="545.72" y2="414.27"/><polyline class="cls-17" points="1.88 414.27 1.88 416.15 545.72 416.15 545.72 414.27 1.88 414.27"/><line class="cls-16" x1="1.88" y1="455.7" x2="545.72" y2="455.7"/><polyline class="cls-17" points="1.88 455.7 1.88 457.58 545.72 457.58 545.72 455.7 1.88 455.7"/><line class="cls-16" x1="1.88" y1="497.13" x2="545.72" y2="497.13"/><polyline class="cls-17" points="1.88 497.13 1.88 499.01 545.72 499.01 545.72 497.13 1.88 497.13"/><line class="cls-16" x1="1.88" y1="538.55" x2="545.72" y2="538.55"/><polyline class="cls-17" points="1.88 538.55 1.88 540.44 545.72 540.44 545.72 538.55 1.88 538.55"/><line class="cls-16" x1="1.88" y1="579.98" x2="545.72" y2="579.98"/><polyline class="cls-17" points="1.88 579.98 1.88 581.86 545.72 581.86 545.72 579.98 1.88 579.98"/><line class="cls-16" x1="1.88" y1="621.41" x2="545.72" y2="621.41"/><polyline class="cls-17" points="1.88 621.41 1.88 623.29 545.72 623.29 545.72 621.41 1.88 621.41"/><line class="cls-16" x1="1.88" y1="662.84" x2="545.72" y2="662.84"/><polyline class="cls-17" points="1.88 662.84 1.88 664.72 545.72 664.72 545.72 662.84 1.88 662.84"/><line class="cls-16" x1="1.88" y1="704.26" x2="545.72" y2="704.26"/><polyline class="cls-17" points="1.88 704.26 1.88 706.15 545.72 706.15 545.72 704.26 1.88 704.26"/><line class="cls-16" x1="1.88" y1="745.69" x2="545.72" y2="745.69"/><polyline class="cls-17" points="1.88 745.69 1.88 747.57 545.72 747.57 545.72 745.69 1.88 745.69"/><line class="cls-16" x1="1.88" y1="787.12" x2="545.72" y2="787.12"/><polyline class="cls-17" points="1.88 787.12 1.88 789 545.72 789 545.72 787.12 1.88 787.12"/></g><text class="cls-18" transform="translate(755.27 150.96)">记第n次跳到荷叶<tspan x="0" y="46.31">的次数为如下数</tspan><tspan x="0" y="92.63">列：</tspan></text></svg>